<?xml version="1.0" encoding="utf-8" standalone="no"?>
<!DOCTYPE svg PUBLIC "-//W3C//DTD SVG 1.1//EN"
  "http://www.w3.org/Graphics/SVG/1.1/DTD/svg11.dtd">
<svg xmlns:xlink="http://www.w3.org/1999/xlink" width="576pt" height="396pt" viewBox="0 0 576 396" xmlns="http://www.w3.org/2000/svg" version="1.1">
 <metadata>
  <rdf:RDF xmlns:dc="http://purl.org/dc/elements/1.1/" xmlns:cc="http://creativecommons.org/ns#" xmlns:rdf="http://www.w3.org/1999/02/22-rdf-syntax-ns#">
   <cc:Work>
    <dc:type rdf:resource="http://purl.org/dc/dcmitype/StillImage"/>
    <dc:date>2022-12-26T10:52:53.810786</dc:date>
    <dc:format>image/svg+xml</dc:format>
    <dc:creator>
     <cc:Agent>
      <dc:title>Matplotlib v3.5.0, https://matplotlib.org/</dc:title>
     </cc:Agent>
    </dc:creator>
   </cc:Work>
  </rdf:RDF>
 </metadata>
 <defs>
  <style type="text/css">*{stroke-linejoin: round; stroke-linecap: butt}</style>
 </defs>
 <g id="figure_1">
  <g id="patch_1">
   <path d="M 0 396 
L 576 396 
L 576 0 
L 0 0 
z
" style="fill: #ffffff"/>
  </g>
  <g id="axes_1">
   <g id="patch_2">
    <path d="M 72 346.5 
L 518.4 346.5 
L 518.4 47.52 
L 72 47.52 
z
" style="fill: #ffffff"/>
   </g>
   <g id="matplotlib.axis_1">
    <g id="xtick_1">
     <g id="line2d_1"/>
     <g id="text_1">
      <!-- 0-500 -->
      <g style="fill: #262626" transform="translate(87.113281 360.746875)scale(0.1 -0.1)">
       <defs>
        <path id="LiberationSans-30" d="M 3309 2203 
Q 3309 1100 2920 518 
Q 2531 -63 1772 -63 
Q 1013 -63 631 515 
Q 250 1094 250 2203 
Q 250 3338 620 3903 
Q 991 4469 1791 4469 
Q 2569 4469 2939 3897 
Q 3309 3325 3309 2203 
z
M 2738 2203 
Q 2738 3156 2517 3584 
Q 2297 4013 1791 4013 
Q 1272 4013 1045 3591 
Q 819 3169 819 2203 
Q 819 1266 1048 831 
Q 1278 397 1778 397 
Q 2275 397 2506 840 
Q 2738 1284 2738 2203 
z
" transform="scale(0.015625)"/>
        <path id="LiberationSans-2d" d="M 284 1450 
L 284 1950 
L 1847 1950 
L 1847 1450 
L 284 1450 
z
" transform="scale(0.015625)"/>
        <path id="LiberationSans-35" d="M 3291 1434 
Q 3291 738 2877 337 
Q 2463 -63 1728 -63 
Q 1113 -63 734 206 
Q 356 475 256 984 
L 825 1050 
Q 1003 397 1741 397 
Q 2194 397 2450 670 
Q 2706 944 2706 1422 
Q 2706 1838 2448 2094 
Q 2191 2350 1753 2350 
Q 1525 2350 1328 2278 
Q 1131 2206 934 2034 
L 384 2034 
L 531 4403 
L 3034 4403 
L 3034 3925 
L 1044 3925 
L 959 2528 
Q 1325 2809 1869 2809 
Q 2519 2809 2905 2428 
Q 3291 2047 3291 1434 
z
" transform="scale(0.015625)"/>
       </defs>
       <use xlink:href="#LiberationSans-30"/>
       <use xlink:href="#LiberationSans-2d" x="55.615234"/>
       <use xlink:href="#LiberationSans-35" x="88.916016"/>
       <use xlink:href="#LiberationSans-30" x="144.53125"/>
       <use xlink:href="#LiberationSans-30" x="200.146484"/>
      </g>
     </g>
    </g>
    <g id="xtick_2">
     <g id="line2d_2"/>
     <g id="text_2">
      <!-- 500-1000 -->
      <g style="fill: #262626" transform="translate(134.571875 360.746875)scale(0.1 -0.1)">
       <defs>
        <path id="LiberationSans-31" d="M 488 0 
L 488 478 
L 1609 478 
L 1609 3866 
L 616 3156 
L 616 3688 
L 1656 4403 
L 2175 4403 
L 2175 478 
L 3247 478 
L 3247 0 
L 488 0 
z
" transform="scale(0.015625)"/>
       </defs>
       <use xlink:href="#LiberationSans-35"/>
       <use xlink:href="#LiberationSans-30" x="55.615234"/>
       <use xlink:href="#LiberationSans-30" x="111.230469"/>
       <use xlink:href="#LiberationSans-2d" x="166.845703"/>
       <use xlink:href="#LiberationSans-31" x="200.146484"/>
       <use xlink:href="#LiberationSans-30" x="255.761719"/>
       <use xlink:href="#LiberationSans-30" x="311.376953"/>
       <use xlink:href="#LiberationSans-30" x="366.992188"/>
      </g>
     </g>
    </g>
    <g id="xtick_3">
     <g id="line2d_3"/>
     <g id="text_3">
      <!-- 1000-1500 -->
      <g style="fill: #262626" transform="translate(187.591406 360.746875)scale(0.1 -0.1)">
       <use xlink:href="#LiberationSans-31"/>
       <use xlink:href="#LiberationSans-30" x="55.615234"/>
       <use xlink:href="#LiberationSans-30" x="111.230469"/>
       <use xlink:href="#LiberationSans-30" x="166.845703"/>
       <use xlink:href="#LiberationSans-2d" x="222.460938"/>
       <use xlink:href="#LiberationSans-31" x="255.761719"/>
       <use xlink:href="#LiberationSans-35" x="311.376953"/>
       <use xlink:href="#LiberationSans-30" x="366.992188"/>
       <use xlink:href="#LiberationSans-30" x="422.607422"/>
      </g>
     </g>
    </g>
    <g id="xtick_4">
     <g id="line2d_4"/>
     <g id="text_4">
      <!-- 1500-2000 -->
      <g style="fill: #262626" transform="translate(243.391406 360.746875)scale(0.1 -0.1)">
       <defs>
        <path id="LiberationSans-32" d="M 322 0 
L 322 397 
Q 481 763 711 1042 
Q 941 1322 1194 1548 
Q 1447 1775 1695 1969 
Q 1944 2163 2144 2356 
Q 2344 2550 2467 2762 
Q 2591 2975 2591 3244 
Q 2591 3606 2378 3806 
Q 2166 4006 1788 4006 
Q 1428 4006 1195 3811 
Q 963 3616 922 3263 
L 347 3316 
Q 409 3844 795 4156 
Q 1181 4469 1788 4469 
Q 2453 4469 2811 4155 
Q 3169 3841 3169 3263 
Q 3169 3006 3051 2753 
Q 2934 2500 2703 2247 
Q 2472 1994 1819 1463 
Q 1459 1169 1246 933 
Q 1034 697 941 478 
L 3238 478 
L 3238 0 
L 322 0 
z
" transform="scale(0.015625)"/>
       </defs>
       <use xlink:href="#LiberationSans-31"/>
       <use xlink:href="#LiberationSans-35" x="55.615234"/>
       <use xlink:href="#LiberationSans-30" x="111.230469"/>
       <use xlink:href="#LiberationSans-30" x="166.845703"/>
       <use xlink:href="#LiberationSans-2d" x="222.460938"/>
       <use xlink:href="#LiberationSans-32" x="255.761719"/>
       <use xlink:href="#LiberationSans-30" x="311.376953"/>
       <use xlink:href="#LiberationSans-30" x="366.992188"/>
       <use xlink:href="#LiberationSans-30" x="422.607422"/>
      </g>
     </g>
    </g>
    <g id="xtick_5">
     <g id="line2d_5"/>
     <g id="text_5">
      <!-- 2000-2500 -->
      <g style="fill: #262626" transform="translate(299.191406 360.746875)scale(0.1 -0.1)">
       <use xlink:href="#LiberationSans-32"/>
       <use xlink:href="#LiberationSans-30" x="55.615234"/>
       <use xlink:href="#LiberationSans-30" x="111.230469"/>
       <use xlink:href="#LiberationSans-30" x="166.845703"/>
       <use xlink:href="#LiberationSans-2d" x="222.460938"/>
       <use xlink:href="#LiberationSans-32" x="255.761719"/>
       <use xlink:href="#LiberationSans-35" x="311.376953"/>
       <use xlink:href="#LiberationSans-30" x="366.992188"/>
       <use xlink:href="#LiberationSans-30" x="422.607422"/>
      </g>
     </g>
    </g>
    <g id="xtick_6">
     <g id="line2d_6"/>
     <g id="text_6">
      <!-- 2500-3000 -->
      <g style="fill: #262626" transform="translate(354.991406 360.746875)scale(0.1 -0.1)">
       <defs>
        <path id="LiberationSans-33" d="M 3278 1216 
Q 3278 606 2890 271 
Q 2503 -63 1784 -63 
Q 1116 -63 717 239 
Q 319 541 244 1131 
L 825 1184 
Q 938 403 1784 403 
Q 2209 403 2451 612 
Q 2694 822 2694 1234 
Q 2694 1594 2417 1795 
Q 2141 1997 1619 1997 
L 1300 1997 
L 1300 2484 
L 1606 2484 
Q 2069 2484 2323 2686 
Q 2578 2888 2578 3244 
Q 2578 3597 2370 3801 
Q 2163 4006 1753 4006 
Q 1381 4006 1151 3815 
Q 922 3625 884 3278 
L 319 3322 
Q 381 3863 767 4166 
Q 1153 4469 1759 4469 
Q 2422 4469 2789 4161 
Q 3156 3853 3156 3303 
Q 3156 2881 2920 2617 
Q 2684 2353 2234 2259 
L 2234 2247 
Q 2728 2194 3003 1916 
Q 3278 1638 3278 1216 
z
" transform="scale(0.015625)"/>
       </defs>
       <use xlink:href="#LiberationSans-32"/>
       <use xlink:href="#LiberationSans-35" x="55.615234"/>
       <use xlink:href="#LiberationSans-30" x="111.230469"/>
       <use xlink:href="#LiberationSans-30" x="166.845703"/>
       <use xlink:href="#LiberationSans-2d" x="222.460938"/>
       <use xlink:href="#LiberationSans-33" x="255.761719"/>
       <use xlink:href="#LiberationSans-30" x="311.376953"/>
       <use xlink:href="#LiberationSans-30" x="366.992188"/>
       <use xlink:href="#LiberationSans-30" x="422.607422"/>
      </g>
     </g>
    </g>
    <g id="xtick_7">
     <g id="line2d_7"/>
     <g id="text_7">
      <!-- 3000-3500 -->
      <g style="fill: #262626" transform="translate(410.791406 360.746875)scale(0.1 -0.1)">
       <use xlink:href="#LiberationSans-33"/>
       <use xlink:href="#LiberationSans-30" x="55.615234"/>
       <use xlink:href="#LiberationSans-30" x="111.230469"/>
       <use xlink:href="#LiberationSans-30" x="166.845703"/>
       <use xlink:href="#LiberationSans-2d" x="222.460938"/>
       <use xlink:href="#LiberationSans-33" x="255.761719"/>
       <use xlink:href="#LiberationSans-35" x="311.376953"/>
       <use xlink:href="#LiberationSans-30" x="366.992188"/>
       <use xlink:href="#LiberationSans-30" x="422.607422"/>
      </g>
     </g>
    </g>
    <g id="xtick_8">
     <g id="line2d_8"/>
     <g id="text_8">
      <!-- 3500-4000 -->
      <g style="fill: #262626" transform="translate(466.591406 360.746875)scale(0.1 -0.1)">
       <defs>
        <path id="LiberationSans-34" d="M 2753 997 
L 2753 0 
L 2222 0 
L 2222 997 
L 147 997 
L 147 1434 
L 2163 4403 
L 2753 4403 
L 2753 1441 
L 3372 1441 
L 3372 997 
L 2753 997 
z
M 2222 3769 
Q 2216 3750 2134 3603 
Q 2053 3456 2013 3397 
L 884 1734 
L 716 1503 
L 666 1441 
L 2222 1441 
L 2222 3769 
z
" transform="scale(0.015625)"/>
       </defs>
       <use xlink:href="#LiberationSans-33"/>
       <use xlink:href="#LiberationSans-35" x="55.615234"/>
       <use xlink:href="#LiberationSans-30" x="111.230469"/>
       <use xlink:href="#LiberationSans-30" x="166.845703"/>
       <use xlink:href="#LiberationSans-2d" x="222.460938"/>
       <use xlink:href="#LiberationSans-34" x="255.761719"/>
       <use xlink:href="#LiberationSans-30" x="311.376953"/>
       <use xlink:href="#LiberationSans-30" x="366.992188"/>
       <use xlink:href="#LiberationSans-30" x="422.607422"/>
      </g>
     </g>
    </g>
    <g id="text_9">
     <!-- Area (km2) -->
     <g style="fill: #262626" transform="translate(268.0025 374.793437)scale(0.11 -0.11)">
      <defs>
       <path id="LiberationSans-41" d="M 3647 0 
L 3144 1288 
L 1138 1288 
L 631 0 
L 13 0 
L 1809 4403 
L 2488 4403 
L 4256 0 
L 3647 0 
z
M 2141 3953 
L 2113 3866 
Q 2034 3606 1881 3200 
L 1319 1753 
L 2966 1753 
L 2400 3206 
Q 2313 3422 2225 3694 
L 2141 3953 
z
" transform="scale(0.015625)"/>
       <path id="LiberationSans-72" d="M 444 0 
L 444 2594 
Q 444 2950 425 3381 
L 956 3381 
Q 981 2806 981 2691 
L 994 2691 
Q 1128 3125 1303 3284 
Q 1478 3444 1797 3444 
Q 1909 3444 2025 3413 
L 2025 2897 
Q 1913 2928 1725 2928 
Q 1375 2928 1190 2626 
Q 1006 2325 1006 1763 
L 1006 0 
L 444 0 
z
" transform="scale(0.015625)"/>
       <path id="LiberationSans-65" d="M 863 1572 
Q 863 991 1103 675 
Q 1344 359 1806 359 
Q 2172 359 2392 506 
Q 2613 653 2691 878 
L 3184 738 
Q 2881 -63 1806 -63 
Q 1056 -63 664 384 
Q 272 831 272 1713 
Q 272 2550 664 2997 
Q 1056 3444 1784 3444 
Q 3275 3444 3275 1647 
L 3275 1572 
L 863 1572 
z
M 2694 2003 
Q 2647 2538 2422 2783 
Q 2197 3028 1775 3028 
Q 1366 3028 1127 2754 
Q 888 2481 869 2003 
L 2694 2003 
z
" transform="scale(0.015625)"/>
       <path id="LiberationSans-61" d="M 1294 -63 
Q 784 -63 528 206 
Q 272 475 272 944 
Q 272 1469 617 1750 
Q 963 2031 1731 2050 
L 2491 2063 
L 2491 2247 
Q 2491 2659 2316 2837 
Q 2141 3016 1766 3016 
Q 1388 3016 1216 2887 
Q 1044 2759 1009 2478 
L 422 2531 
Q 566 3444 1778 3444 
Q 2416 3444 2737 3151 
Q 3059 2859 3059 2306 
L 3059 850 
Q 3059 600 3125 473 
Q 3191 347 3375 347 
Q 3456 347 3559 369 
L 3559 19 
Q 3347 -31 3125 -31 
Q 2813 -31 2670 133 
Q 2528 297 2509 647 
L 2491 647 
Q 2275 259 1989 98 
Q 1703 -63 1294 -63 
z
M 1422 359 
Q 1731 359 1972 500 
Q 2213 641 2352 886 
Q 2491 1131 2491 1391 
L 2491 1669 
L 1875 1656 
Q 1478 1650 1273 1575 
Q 1069 1500 959 1344 
Q 850 1188 850 934 
Q 850 659 998 509 
Q 1147 359 1422 359 
z
" transform="scale(0.015625)"/>
       <path id="LiberationSans-20" transform="scale(0.015625)"/>
       <path id="LiberationSans-28" d="M 397 1663 
Q 397 2566 680 3284 
Q 963 4003 1550 4638 
L 2094 4638 
Q 1509 3988 1236 3256 
Q 963 2525 963 1656 
Q 963 791 1233 62 
Q 1503 -666 2094 -1325 
L 1550 -1325 
Q 959 -688 678 32 
Q 397 753 397 1650 
L 397 1663 
z
" transform="scale(0.015625)"/>
       <path id="LiberationSans-6b" d="M 2550 0 
L 1406 1544 
L 994 1203 
L 994 0 
L 431 0 
L 431 4638 
L 994 4638 
L 994 1741 
L 2478 3381 
L 3138 3381 
L 1766 1928 
L 3209 0 
L 2550 0 
z
" transform="scale(0.015625)"/>
       <path id="LiberationSans-6d" d="M 2400 0 
L 2400 2144 
Q 2400 2634 2265 2821 
Q 2131 3009 1781 3009 
Q 1422 3009 1212 2734 
Q 1003 2459 1003 1959 
L 1003 0 
L 444 0 
L 444 2659 
Q 444 3250 425 3381 
L 956 3381 
Q 959 3366 962 3297 
Q 966 3228 970 3139 
Q 975 3050 981 2803 
L 991 2803 
Q 1172 3163 1406 3303 
Q 1641 3444 1978 3444 
Q 2363 3444 2586 3291 
Q 2809 3138 2897 2803 
L 2906 2803 
Q 3081 3144 3329 3294 
Q 3578 3444 3931 3444 
Q 4444 3444 4676 3166 
Q 4909 2888 4909 2253 
L 4909 0 
L 4353 0 
L 4353 2144 
Q 4353 2634 4218 2821 
Q 4084 3009 3734 3009 
Q 3366 3009 3161 2736 
Q 2956 2463 2956 1959 
L 2956 0 
L 2400 0 
z
" transform="scale(0.015625)"/>
       <path id="LiberationSans-29" d="M 1734 1650 
Q 1734 747 1451 28 
Q 1169 -691 581 -1325 
L 38 -1325 
Q 625 -669 897 57 
Q 1169 784 1169 1656 
Q 1169 2528 895 3256 
Q 622 3984 38 4638 
L 581 4638 
Q 1172 4000 1453 3279 
Q 1734 2559 1734 1663 
L 1734 1650 
z
" transform="scale(0.015625)"/>
      </defs>
      <use xlink:href="#LiberationSans-41"/>
      <use xlink:href="#LiberationSans-72" x="66.699219"/>
      <use xlink:href="#LiberationSans-65" x="100"/>
      <use xlink:href="#LiberationSans-61" x="155.615234"/>
      <use xlink:href="#LiberationSans-20" x="211.230469"/>
      <use xlink:href="#LiberationSans-28" x="239.013672"/>
      <use xlink:href="#LiberationSans-6b" x="272.314453"/>
      <use xlink:href="#LiberationSans-6d" x="322.314453"/>
      <use xlink:href="#LiberationSans-32" x="405.615234"/>
      <use xlink:href="#LiberationSans-29" x="461.230469"/>
     </g>
    </g>
   </g>
   <g id="matplotlib.axis_2">
    <g id="ytick_1">
     <g id="line2d_9">
      <path d="M 72 331.193125 
L 518.4 331.193125 
" clip-path="url(#p2cc3c5a876)" style="fill: none; stroke: #cccccc; stroke-linecap: round"/>
     </g>
     <g id="line2d_10"/>
     <g id="text_10">
      <!-- 0 -->
      <g style="fill: #262626" transform="translate(59.439062 334.816563)scale(0.1 -0.1)">
       <use xlink:href="#LiberationSans-30"/>
      </g>
     </g>
    </g>
    <g id="ytick_2">
     <g id="line2d_11">
      <path d="M 72 277.837773 
L 518.4 277.837773 
" clip-path="url(#p2cc3c5a876)" style="fill: none; stroke: #cccccc; stroke-linecap: round"/>
     </g>
     <g id="line2d_12"/>
     <g id="text_11">
      <!-- 2 -->
      <g style="fill: #262626" transform="translate(59.439062 281.461211)scale(0.1 -0.1)">
       <use xlink:href="#LiberationSans-32"/>
      </g>
     </g>
    </g>
    <g id="ytick_3">
     <g id="line2d_13">
      <path d="M 72 224.482421 
L 518.4 224.482421 
" clip-path="url(#p2cc3c5a876)" style="fill: none; stroke: #cccccc; stroke-linecap: round"/>
     </g>
     <g id="line2d_14"/>
     <g id="text_12">
      <!-- 4 -->
      <g style="fill: #262626" transform="translate(59.439062 228.105859)scale(0.1 -0.1)">
       <use xlink:href="#LiberationSans-34"/>
      </g>
     </g>
    </g>
    <g id="ytick_4">
     <g id="line2d_15">
      <path d="M 72 171.12707 
L 518.4 171.12707 
" clip-path="url(#p2cc3c5a876)" style="fill: none; stroke: #cccccc; stroke-linecap: round"/>
     </g>
     <g id="line2d_16"/>
     <g id="text_13">
      <!-- 6 -->
      <g style="fill: #262626" transform="translate(59.439062 174.750507)scale(0.1 -0.1)">
       <defs>
        <path id="LiberationSans-36" d="M 3278 1441 
Q 3278 744 2900 340 
Q 2522 -63 1856 -63 
Q 1113 -63 719 490 
Q 325 1044 325 2100 
Q 325 3244 734 3856 
Q 1144 4469 1900 4469 
Q 2897 4469 3156 3572 
L 2619 3475 
Q 2453 4013 1894 4013 
Q 1413 4013 1148 3564 
Q 884 3116 884 2266 
Q 1038 2550 1316 2698 
Q 1594 2847 1953 2847 
Q 2563 2847 2920 2465 
Q 3278 2084 3278 1441 
z
M 2706 1416 
Q 2706 1894 2472 2153 
Q 2238 2413 1819 2413 
Q 1425 2413 1183 2183 
Q 941 1953 941 1550 
Q 941 1041 1192 716 
Q 1444 391 1838 391 
Q 2244 391 2475 664 
Q 2706 938 2706 1416 
z
" transform="scale(0.015625)"/>
       </defs>
       <use xlink:href="#LiberationSans-36"/>
      </g>
     </g>
    </g>
    <g id="ytick_5">
     <g id="line2d_17">
      <path d="M 72 117.771718 
L 518.4 117.771718 
" clip-path="url(#p2cc3c5a876)" style="fill: none; stroke: #cccccc; stroke-linecap: round"/>
     </g>
     <g id="line2d_18"/>
     <g id="text_14">
      <!-- 8 -->
      <g style="fill: #262626" transform="translate(59.439062 121.395155)scale(0.1 -0.1)">
       <defs>
        <path id="LiberationSans-38" d="M 3281 1228 
Q 3281 619 2893 278 
Q 2506 -63 1781 -63 
Q 1075 -63 676 271 
Q 278 606 278 1222 
Q 278 1653 525 1947 
Q 772 2241 1156 2303 
L 1156 2316 
Q 797 2400 589 2681 
Q 381 2963 381 3341 
Q 381 3844 757 4156 
Q 1134 4469 1769 4469 
Q 2419 4469 2795 4162 
Q 3172 3856 3172 3334 
Q 3172 2956 2962 2675 
Q 2753 2394 2391 2322 
L 2391 2309 
Q 2813 2241 3047 1952 
Q 3281 1663 3281 1228 
z
M 2588 3303 
Q 2588 4050 1769 4050 
Q 1372 4050 1164 3862 
Q 956 3675 956 3303 
Q 956 2925 1170 2726 
Q 1384 2528 1775 2528 
Q 2172 2528 2380 2711 
Q 2588 2894 2588 3303 
z
M 2697 1281 
Q 2697 1691 2453 1898 
Q 2209 2106 1769 2106 
Q 1341 2106 1100 1882 
Q 859 1659 859 1269 
Q 859 359 1788 359 
Q 2247 359 2472 579 
Q 2697 800 2697 1281 
z
" transform="scale(0.015625)"/>
       </defs>
       <use xlink:href="#LiberationSans-38"/>
      </g>
     </g>
    </g>
    <g id="ytick_6">
     <g id="line2d_19">
      <path d="M 72 64.416366 
L 518.4 64.416366 
" clip-path="url(#p2cc3c5a876)" style="fill: none; stroke: #cccccc; stroke-linecap: round"/>
     </g>
     <g id="line2d_20"/>
     <g id="text_15">
      <!-- 10 -->
      <g style="fill: #262626" transform="translate(53.878125 68.039804)scale(0.1 -0.1)">
       <use xlink:href="#LiberationSans-31"/>
       <use xlink:href="#LiberationSans-30" x="55.615234"/>
      </g>
     </g>
    </g>
    <g id="text_16">
     <!-- VE / VF -->
     <g style="fill: #262626" transform="translate(47.595625 215.959219)rotate(-90)scale(0.11 -0.11)">
      <defs>
       <path id="LiberationSans-56" d="M 2444 0 
L 1825 0 
L 28 4403 
L 656 4403 
L 1875 1303 
L 2138 525 
L 2400 1303 
L 3613 4403 
L 4241 4403 
L 2444 0 
z
" transform="scale(0.015625)"/>
       <path id="LiberationSans-45" d="M 525 0 
L 525 4403 
L 3866 4403 
L 3866 3916 
L 1122 3916 
L 1122 2503 
L 3678 2503 
L 3678 2022 
L 1122 2022 
L 1122 488 
L 3994 488 
L 3994 0 
L 525 0 
z
" transform="scale(0.015625)"/>
       <path id="LiberationSans-2f" d="M 0 -63 
L 1284 4638 
L 1778 4638 
L 506 -63 
L 0 -63 
z
" transform="scale(0.015625)"/>
       <path id="LiberationSans-46" d="M 1122 3916 
L 1122 2278 
L 3578 2278 
L 3578 1784 
L 1122 1784 
L 1122 0 
L 525 0 
L 525 4403 
L 3653 4403 
L 3653 3916 
L 1122 3916 
z
" transform="scale(0.015625)"/>
      </defs>
      <use xlink:href="#LiberationSans-56"/>
      <use xlink:href="#LiberationSans-45" x="66.699219"/>
      <use xlink:href="#LiberationSans-20" x="133.398438"/>
      <use xlink:href="#LiberationSans-2f" x="161.181641"/>
      <use xlink:href="#LiberationSans-20" x="188.964844"/>
      <use xlink:href="#LiberationSans-56" x="216.748047"/>
      <use xlink:href="#LiberationSans-46" x="283.447266"/>
     </g>
    </g>
   </g>
   <g id="PolyCollection_1">
    <defs>
     <path id="mea06e073c5" d="M 99.900847 -63.09 
L 99.899153 -63.09 
L 99.879175 -65.835455 
L 99.758484 -68.580909 
L 99.449655 -71.326364 
L 98.924886 -74.071818 
L 97.741532 -76.817273 
L 95.074709 -79.562727 
L 90.62683 -82.308182 
L 85.028472 -85.053636 
L 80.150865 -87.799091 
L 77.587087 -90.544545 
L 77.58 -93.29 
L 79.156332 -96.035455 
L 81.166337 -98.780909 
L 82.995089 -101.526364 
L 84.644605 -104.271818 
L 86.004933 -107.017273 
L 87.281703 -109.762727 
L 88.699481 -112.508182 
L 89.879309 -115.253636 
L 91.09479 -117.999091 
L 92.151801 -120.744545 
L 93.10571 -123.49 
L 94.040715 -126.235455 
L 94.916003 -128.980909 
L 95.665837 -131.726364 
L 96.343592 -134.471818 
L 96.896215 -137.217273 
L 97.377897 -139.962727 
L 97.744855 -142.708182 
L 98.137839 -145.453636 
L 98.456111 -148.199091 
L 98.689663 -150.944545 
L 98.870997 -153.69 
L 99.053212 -156.435455 
L 99.16274 -159.180909 
L 99.280936 -161.926364 
L 99.348769 -164.671818 
L 99.395948 -167.417273 
L 99.494704 -170.162727 
L 99.554949 -172.908182 
L 99.573075 -175.653636 
L 99.596278 -178.399091 
L 99.647773 -181.144545 
L 99.681937 -183.89 
L 99.715092 -186.635455 
L 99.735042 -189.380909 
L 99.748772 -192.126364 
L 99.776178 -194.871818 
L 99.799105 -197.617273 
L 99.815469 -200.362727 
L 99.830451 -203.108182 
L 99.840444 -205.853636 
L 99.851718 -208.599091 
L 99.860521 -211.344545 
L 99.864888 -214.09 
L 99.866264 -216.835455 
L 99.862211 -219.580909 
L 99.870024 -222.326364 
L 99.879897 -225.071818 
L 99.890779 -227.817273 
L 99.888854 -230.562727 
L 99.885336 -233.308182 
L 99.888879 -236.053636 
L 99.89247 -238.799091 
L 99.89127 -241.544545 
L 99.883787 -244.29 
L 99.881328 -247.035455 
L 99.885554 -249.780909 
L 99.889994 -252.526364 
L 99.890119 -255.271818 
L 99.886847 -258.017273 
L 99.88964 -260.762727 
L 99.886675 -263.508182 
L 99.887837 -266.253636 
L 99.889418 -268.999091 
L 99.889618 -271.744545 
L 99.890485 -274.49 
L 99.890594 -277.235455 
L 99.886142 -279.980909 
L 99.890489 -282.726364 
L 99.892201 -285.471818 
L 99.891527 -288.217273 
L 99.895045 -290.962727 
L 99.895479 -293.708182 
L 99.892368 -296.453636 
L 99.894206 -299.199091 
L 99.891445 -301.944545 
L 99.89301 -304.69 
L 99.894658 -307.435455 
L 99.893877 -310.180909 
L 99.894184 -312.926364 
L 99.895609 -315.671818 
L 99.896238 -318.417273 
L 99.896442 -321.162727 
L 99.896619 -323.908182 
L 99.892626 -326.653636 
L 99.893556 -329.399091 
L 99.898309 -332.144545 
L 99.899871 -334.89 
L 99.900129 -334.89 
L 99.900129 -334.89 
L 99.901691 -332.144545 
L 99.906444 -329.399091 
L 99.907374 -326.653636 
L 99.903381 -323.908182 
L 99.903558 -321.162727 
L 99.903762 -318.417273 
L 99.904391 -315.671818 
L 99.905816 -312.926364 
L 99.906123 -310.180909 
L 99.905342 -307.435455 
L 99.90699 -304.69 
L 99.908555 -301.944545 
L 99.905794 -299.199091 
L 99.907632 -296.453636 
L 99.904521 -293.708182 
L 99.904955 -290.962727 
L 99.908473 -288.217273 
L 99.907799 -285.471818 
L 99.909511 -282.726364 
L 99.913858 -279.980909 
L 99.909406 -277.235455 
L 99.909515 -274.49 
L 99.910382 -271.744545 
L 99.910582 -268.999091 
L 99.912163 -266.253636 
L 99.913325 -263.508182 
L 99.91036 -260.762727 
L 99.913153 -258.017273 
L 99.909881 -255.271818 
L 99.910006 -252.526364 
L 99.914446 -249.780909 
L 99.918672 -247.035455 
L 99.916213 -244.29 
L 99.90873 -241.544545 
L 99.90753 -238.799091 
L 99.911121 -236.053636 
L 99.914664 -233.308182 
L 99.911146 -230.562727 
L 99.909221 -227.817273 
L 99.920103 -225.071818 
L 99.929976 -222.326364 
L 99.937789 -219.580909 
L 99.933736 -216.835455 
L 99.935112 -214.09 
L 99.939479 -211.344545 
L 99.948282 -208.599091 
L 99.959556 -205.853636 
L 99.969549 -203.108182 
L 99.984531 -200.362727 
L 100.000895 -197.617273 
L 100.023822 -194.871818 
L 100.051228 -192.126364 
L 100.064958 -189.380909 
L 100.084908 -186.635455 
L 100.118063 -183.89 
L 100.152227 -181.144545 
L 100.203722 -178.399091 
L 100.226925 -175.653636 
L 100.245051 -172.908182 
L 100.305296 -170.162727 
L 100.404052 -167.417273 
L 100.451231 -164.671818 
L 100.519064 -161.926364 
L 100.63726 -159.180909 
L 100.746788 -156.435455 
L 100.929003 -153.69 
L 101.110337 -150.944545 
L 101.343889 -148.199091 
L 101.662161 -145.453636 
L 102.055145 -142.708182 
L 102.422103 -139.962727 
L 102.903785 -137.217273 
L 103.456408 -134.471818 
L 104.134163 -131.726364 
L 104.883997 -128.980909 
L 105.759285 -126.235455 
L 106.69429 -123.49 
L 107.648199 -120.744545 
L 108.70521 -117.999091 
L 109.920691 -115.253636 
L 111.100519 -112.508182 
L 112.518297 -109.762727 
L 113.795067 -107.017273 
L 115.155395 -104.271818 
L 116.804911 -101.526364 
L 118.633663 -98.780909 
L 120.643668 -96.035455 
L 122.22 -93.29 
L 122.212913 -90.544545 
L 119.649135 -87.799091 
L 114.771528 -85.053636 
L 109.17317 -82.308182 
L 104.725291 -79.562727 
L 102.058468 -76.817273 
L 100.875114 -74.071818 
L 100.350345 -71.326364 
L 100.041516 -68.580909 
L 99.920825 -65.835455 
L 99.900847 -63.09 
z
" style="stroke: #464646; stroke-width: 1.75"/>
    </defs>
    <g clip-path="url(#p2cc3c5a876)">
     <use xlink:href="#mea06e073c5" x="0" y="396" style="fill: #ea96a3; stroke: #464646; stroke-width: 1.75"/>
    </g>
   </g>
   <g id="PolyCollection_2">
    <defs>
     <path id="mcc35f6228d" d="M 155.700309 -64.723477 
L 155.699691 -64.723477 
L 155.699528 -65.182885 
L 155.699299 -65.642292 
L 155.698989 -66.1017 
L 155.698584 -66.561107 
L 155.698072 -67.020515 
L 155.697449 -67.479922 
L 155.696715 -67.93933 
L 155.695882 -68.398737 
L 155.69497 -68.858145 
L 155.694009 -69.317552 
L 155.693037 -69.77696 
L 155.692093 -70.236367 
L 155.69122 -70.695775 
L 155.690452 -71.155182 
L 155.68982 -71.61459 
L 155.68934 -72.073997 
L 155.689016 -72.533405 
L 155.688839 -72.992812 
L 155.688786 -73.45222 
L 155.688828 -73.911627 
L 155.688929 -74.371035 
L 155.68905 -74.830442 
L 155.689161 -75.28985 
L 155.689239 -75.749257 
L 155.689271 -76.208665 
L 155.689261 -76.668072 
L 155.689222 -77.127479 
L 155.68918 -77.586887 
L 155.689166 -78.046294 
L 155.689211 -78.505702 
L 155.689342 -78.965109 
L 155.689579 -79.424517 
L 155.689931 -79.883924 
L 155.690398 -80.343332 
L 155.690966 -80.802739 
L 155.691617 -81.262147 
L 155.692323 -81.721554 
L 155.693058 -82.180962 
L 155.693796 -82.640369 
L 155.694513 -83.099777 
L 155.69519 -83.559184 
L 155.695815 -84.018592 
L 155.69638 -84.477999 
L 155.696881 -84.937407 
L 155.697318 -85.396814 
L 155.697693 -85.856222 
L 155.698009 -86.315629 
L 155.698271 -86.775037 
L 155.698484 -87.234444 
L 155.698652 -87.693852 
L 155.698781 -88.153259 
L 155.698878 -88.612667 
L 155.698948 -89.072074 
L 155.698998 -89.531482 
L 155.699035 -89.990889 
L 155.699064 -90.450297 
L 155.699089 -90.909704 
L 155.699113 -91.369112 
L 155.699138 -91.828519 
L 155.699163 -92.287927 
L 155.699186 -92.747334 
L 155.699208 -93.206742 
L 155.699227 -93.666149 
L 155.699242 -94.125557 
L 155.699253 -94.584964 
L 155.699261 -95.044372 
L 155.699269 -95.503779 
L 155.699279 -95.963187 
L 155.699294 -96.422594 
L 155.699317 -96.882002 
L 155.699349 -97.341409 
L 155.69939 -97.800817 
L 155.69944 -98.260224 
L 155.699497 -98.719632 
L 155.699557 -99.179039 
L 155.699616 -99.638447 
L 155.699671 -100.097854 
L 155.699719 -100.557262 
L 155.699756 -101.016669 
L 155.699782 -101.476077 
L 155.699795 -101.935484 
L 155.699798 -102.394892 
L 155.699792 -102.854299 
L 155.699781 -103.313707 
L 155.699767 -103.773114 
L 155.699754 -104.232522 
L 155.699745 -104.691929 
L 155.699743 -105.151337 
L 155.699747 -105.610744 
L 155.699759 -106.070152 
L 155.699778 -106.529559 
L 155.699802 -106.988967 
L 155.699829 -107.448374 
L 155.699858 -107.907782 
L 155.699885 -108.367189 
L 155.699911 -108.826597 
L 155.699933 -109.286004 
L 155.699951 -109.745412 
L 155.699966 -110.204819 
L 155.700034 -110.204819 
L 155.700034 -110.204819 
L 155.700049 -109.745412 
L 155.700067 -109.286004 
L 155.700089 -108.826597 
L 155.700115 -108.367189 
L 155.700142 -107.907782 
L 155.700171 -107.448374 
L 155.700198 -106.988967 
L 155.700222 -106.529559 
L 155.700241 -106.070152 
L 155.700253 -105.610744 
L 155.700257 -105.151337 
L 155.700255 -104.691929 
L 155.700246 -104.232522 
L 155.700233 -103.773114 
L 155.700219 -103.313707 
L 155.700208 -102.854299 
L 155.700202 -102.394892 
L 155.700205 -101.935484 
L 155.700218 -101.476077 
L 155.700244 -101.016669 
L 155.700281 -100.557262 
L 155.700329 -100.097854 
L 155.700384 -99.638447 
L 155.700443 -99.179039 
L 155.700503 -98.719632 
L 155.70056 -98.260224 
L 155.70061 -97.800817 
L 155.700651 -97.341409 
L 155.700683 -96.882002 
L 155.700706 -96.422594 
L 155.700721 -95.963187 
L 155.700731 -95.503779 
L 155.700739 -95.044372 
L 155.700747 -94.584964 
L 155.700758 -94.125557 
L 155.700773 -93.666149 
L 155.700792 -93.206742 
L 155.700814 -92.747334 
L 155.700837 -92.287927 
L 155.700862 -91.828519 
L 155.700887 -91.369112 
L 155.700911 -90.909704 
L 155.700936 -90.450297 
L 155.700965 -89.990889 
L 155.701002 -89.531482 
L 155.701052 -89.072074 
L 155.701122 -88.612667 
L 155.701219 -88.153259 
L 155.701348 -87.693852 
L 155.701516 -87.234444 
L 155.701729 -86.775037 
L 155.701991 -86.315629 
L 155.702307 -85.856222 
L 155.702682 -85.396814 
L 155.703119 -84.937407 
L 155.70362 -84.477999 
L 155.704185 -84.018592 
L 155.70481 -83.559184 
L 155.705487 -83.099777 
L 155.706204 -82.640369 
L 155.706942 -82.180962 
L 155.707677 -81.721554 
L 155.708383 -81.262147 
L 155.709034 -80.802739 
L 155.709602 -80.343332 
L 155.710069 -79.883924 
L 155.710421 -79.424517 
L 155.710658 -78.965109 
L 155.710789 -78.505702 
L 155.710834 -78.046294 
L 155.71082 -77.586887 
L 155.710778 -77.127479 
L 155.710739 -76.668072 
L 155.710729 -76.208665 
L 155.710761 -75.749257 
L 155.710839 -75.28985 
L 155.71095 -74.830442 
L 155.711071 -74.371035 
L 155.711172 -73.911627 
L 155.711214 -73.45222 
L 155.711161 -72.992812 
L 155.710984 -72.533405 
L 155.71066 -72.073997 
L 155.71018 -71.61459 
L 155.709548 -71.155182 
L 155.70878 -70.695775 
L 155.707907 -70.236367 
L 155.706963 -69.77696 
L 155.705991 -69.317552 
L 155.70503 -68.858145 
L 155.704118 -68.398737 
L 155.703285 -67.93933 
L 155.702551 -67.479922 
L 155.701928 -67.020515 
L 155.701416 -66.561107 
L 155.701011 -66.1017 
L 155.700701 -65.642292 
L 155.700472 -65.182885 
L 155.700309 -64.723477 
z
" style="stroke: #464646; stroke-width: 1.75"/>
    </defs>
    <g clip-path="url(#p2cc3c5a876)">
     <use xlink:href="#mcc35f6228d" x="0" y="396" style="fill: #ca984c; stroke: #464646; stroke-width: 1.75"/>
    </g>
   </g>
   <g id="PolyCollection_3">
    <defs>
     <path id="mcb1e430168" d="M 211.50014 -66.877411 
L 211.49986 -66.877411 
L 211.499814 -67.158458 
L 211.499756 -67.439505 
L 211.499685 -67.720552 
L 211.499597 -68.001598 
L 211.499493 -68.282645 
L 211.49937 -68.563692 
L 211.499227 -68.844739 
L 211.499063 -69.125786 
L 211.498879 -69.406833 
L 211.498676 -69.68788 
L 211.498455 -69.968927 
L 211.498218 -70.249974 
L 211.497971 -70.531021 
L 211.497716 -70.812068 
L 211.497459 -71.093114 
L 211.497206 -71.374161 
L 211.496961 -71.655208 
L 211.49673 -71.936255 
L 211.496518 -72.217302 
L 211.496331 -72.498349 
L 211.496171 -72.779396 
L 211.496042 -73.060443 
L 211.495945 -73.34149 
L 211.495881 -73.622537 
L 211.495849 -73.903583 
L 211.495847 -74.18463 
L 211.495873 -74.465677 
L 211.495923 -74.746724 
L 211.495994 -75.027771 
L 211.496082 -75.308818 
L 211.496183 -75.589865 
L 211.496292 -75.870912 
L 211.496406 -76.151959 
L 211.496522 -76.433006 
L 211.496636 -76.714052 
L 211.496747 -76.995099 
L 211.496851 -77.276146 
L 211.496948 -77.557193 
L 211.497035 -77.83824 
L 211.497112 -78.119287 
L 211.497177 -78.400334 
L 211.497231 -78.681381 
L 211.497274 -78.962428 
L 211.497305 -79.243475 
L 211.497327 -79.524522 
L 211.497339 -79.805568 
L 211.497345 -80.086615 
L 211.497346 -80.367662 
L 211.497345 -80.648709 
L 211.497345 -80.929756 
L 211.49735 -81.210803 
L 211.497363 -81.49185 
L 211.497387 -81.772897 
L 211.497425 -82.053944 
L 211.497478 -82.334991 
L 211.497548 -82.616037 
L 211.497635 -82.897084 
L 211.497739 -83.178131 
L 211.497859 -83.459178 
L 211.497992 -83.740225 
L 211.498135 -84.021272 
L 211.498285 -84.302319 
L 211.498437 -84.583366 
L 211.498589 -84.864413 
L 211.498735 -85.14546 
L 211.498874 -85.426507 
L 211.499001 -85.707553 
L 211.499114 -85.9886 
L 211.499213 -86.269647 
L 211.499296 -86.550694 
L 211.499364 -86.831741 
L 211.499418 -87.112788 
L 211.499458 -87.393835 
L 211.499486 -87.674882 
L 211.499505 -87.955929 
L 211.499517 -88.236976 
L 211.499523 -88.518022 
L 211.499528 -88.799069 
L 211.499531 -89.080116 
L 211.499536 -89.361163 
L 211.499543 -89.64221 
L 211.499554 -89.923257 
L 211.499568 -90.204304 
L 211.499587 -90.485351 
L 211.499609 -90.766398 
L 211.499635 -91.047445 
L 211.499663 -91.328492 
L 211.499694 -91.609538 
L 211.499725 -91.890585 
L 211.499757 -92.171632 
L 211.499788 -92.452679 
L 211.499818 -92.733726 
L 211.499845 -93.014773 
L 211.499871 -93.29582 
L 211.499893 -93.576867 
L 211.499913 -93.857914 
L 211.499931 -94.138961 
L 211.499945 -94.420007 
L 211.499957 -94.701054 
L 211.500043 -94.701054 
L 211.500043 -94.701054 
L 211.500055 -94.420007 
L 211.500069 -94.138961 
L 211.500087 -93.857914 
L 211.500107 -93.576867 
L 211.500129 -93.29582 
L 211.500155 -93.014773 
L 211.500182 -92.733726 
L 211.500212 -92.452679 
L 211.500243 -92.171632 
L 211.500275 -91.890585 
L 211.500306 -91.609538 
L 211.500337 -91.328492 
L 211.500365 -91.047445 
L 211.500391 -90.766398 
L 211.500413 -90.485351 
L 211.500432 -90.204304 
L 211.500446 -89.923257 
L 211.500457 -89.64221 
L 211.500464 -89.361163 
L 211.500469 -89.080116 
L 211.500472 -88.799069 
L 211.500477 -88.518022 
L 211.500483 -88.236976 
L 211.500495 -87.955929 
L 211.500514 -87.674882 
L 211.500542 -87.393835 
L 211.500582 -87.112788 
L 211.500636 -86.831741 
L 211.500704 -86.550694 
L 211.500787 -86.269647 
L 211.500886 -85.9886 
L 211.500999 -85.707553 
L 211.501126 -85.426507 
L 211.501265 -85.14546 
L 211.501411 -84.864413 
L 211.501563 -84.583366 
L 211.501715 -84.302319 
L 211.501865 -84.021272 
L 211.502008 -83.740225 
L 211.502141 -83.459178 
L 211.502261 -83.178131 
L 211.502365 -82.897084 
L 211.502452 -82.616037 
L 211.502522 -82.334991 
L 211.502575 -82.053944 
L 211.502613 -81.772897 
L 211.502637 -81.49185 
L 211.50265 -81.210803 
L 211.502655 -80.929756 
L 211.502655 -80.648709 
L 211.502654 -80.367662 
L 211.502655 -80.086615 
L 211.502661 -79.805568 
L 211.502673 -79.524522 
L 211.502695 -79.243475 
L 211.502726 -78.962428 
L 211.502769 -78.681381 
L 211.502823 -78.400334 
L 211.502888 -78.119287 
L 211.502965 -77.83824 
L 211.503052 -77.557193 
L 211.503149 -77.276146 
L 211.503253 -76.995099 
L 211.503364 -76.714052 
L 211.503478 -76.433006 
L 211.503594 -76.151959 
L 211.503708 -75.870912 
L 211.503817 -75.589865 
L 211.503918 -75.308818 
L 211.504006 -75.027771 
L 211.504077 -74.746724 
L 211.504127 -74.465677 
L 211.504153 -74.18463 
L 211.504151 -73.903583 
L 211.504119 -73.622537 
L 211.504055 -73.34149 
L 211.503958 -73.060443 
L 211.503829 -72.779396 
L 211.503669 -72.498349 
L 211.503482 -72.217302 
L 211.50327 -71.936255 
L 211.503039 -71.655208 
L 211.502794 -71.374161 
L 211.502541 -71.093114 
L 211.502284 -70.812068 
L 211.502029 -70.531021 
L 211.501782 -70.249974 
L 211.501545 -69.968927 
L 211.501324 -69.68788 
L 211.501121 -69.406833 
L 211.500937 -69.125786 
L 211.500773 -68.844739 
L 211.50063 -68.563692 
L 211.500507 -68.282645 
L 211.500403 -68.001598 
L 211.500315 -67.720552 
L 211.500244 -67.439505 
L 211.500186 -67.158458 
L 211.50014 -66.877411 
z
" style="stroke: #464646; stroke-width: 1.75"/>
    </defs>
    <g clip-path="url(#p2cc3c5a876)">
     <use xlink:href="#mcb1e430168" x="0" y="396" style="fill: #98a246; stroke: #464646; stroke-width: 1.75"/>
    </g>
   </g>
   <g id="PolyCollection_4">
    <defs>
     <path id="mb6895f361b" d="M 267.300076 -67.84742 
L 267.299924 -67.84742 
L 267.299909 -68.071324 
L 267.299892 -68.295229 
L 267.299873 -68.519133 
L 267.299851 -68.743037 
L 267.299827 -68.966941 
L 267.2998 -69.190846 
L 267.299771 -69.41475 
L 267.299739 -69.638654 
L 267.299705 -69.862559 
L 267.299669 -70.086463 
L 267.299631 -70.310367 
L 267.299592 -70.534271 
L 267.299551 -70.758176 
L 267.29951 -70.98208 
L 267.299468 -71.205984 
L 267.299426 -71.429888 
L 267.299385 -71.653793 
L 267.299345 -71.877697 
L 267.299306 -72.101601 
L 267.299269 -72.325505 
L 267.299234 -72.54941 
L 267.299201 -72.773314 
L 267.29917 -72.997218 
L 267.299143 -73.221122 
L 267.299117 -73.445027 
L 267.299094 -73.668931 
L 267.299074 -73.892835 
L 267.299055 -74.11674 
L 267.299038 -74.340644 
L 267.299023 -74.564548 
L 267.299009 -74.788452 
L 267.298996 -75.012357 
L 267.298983 -75.236261 
L 267.298971 -75.460165 
L 267.298958 -75.684069 
L 267.298946 -75.907974 
L 267.298933 -76.131878 
L 267.298919 -76.355782 
L 267.298905 -76.579686 
L 267.29889 -76.803591 
L 267.298876 -77.027495 
L 267.298861 -77.251399 
L 267.298846 -77.475303 
L 267.298831 -77.699208 
L 267.298817 -77.923112 
L 267.298803 -78.147016 
L 267.298791 -78.370921 
L 267.29878 -78.594825 
L 267.298771 -78.818729 
L 267.298763 -79.042633 
L 267.298758 -79.266538 
L 267.298755 -79.490442 
L 267.298754 -79.714346 
L 267.298756 -79.93825 
L 267.29876 -80.162155 
L 267.298767 -80.386059 
L 267.298776 -80.609963 
L 267.298787 -80.833867 
L 267.298801 -81.057772 
L 267.298817 -81.281676 
L 267.298835 -81.50558 
L 267.298855 -81.729484 
L 267.298877 -81.953389 
L 267.2989 -82.177293 
L 267.298925 -82.401197 
L 267.298952 -82.625102 
L 267.29898 -82.849006 
L 267.29901 -83.07291 
L 267.29904 -83.296814 
L 267.299072 -83.520719 
L 267.299106 -83.744623 
L 267.29914 -83.968527 
L 267.299176 -84.192431 
L 267.299212 -84.416336 
L 267.29925 -84.64024 
L 267.299288 -84.864144 
L 267.299327 -85.088048 
L 267.299366 -85.311953 
L 267.299406 -85.535857 
L 267.299445 -85.759761 
L 267.299485 -85.983665 
L 267.299524 -86.20757 
L 267.299562 -86.431474 
L 267.2996 -86.655378 
L 267.299636 -86.879283 
L 267.299671 -87.103187 
L 267.299704 -87.327091 
L 267.299735 -87.550995 
L 267.299765 -87.7749 
L 267.299793 -87.998804 
L 267.299818 -88.222708 
L 267.299841 -88.446612 
L 267.299863 -88.670517 
L 267.299882 -88.894421 
L 267.299899 -89.118325 
L 267.299915 -89.342229 
L 267.299928 -89.566134 
L 267.29994 -89.790038 
L 267.29995 -90.013942 
L 267.30005 -90.013942 
L 267.30005 -90.013942 
L 267.30006 -89.790038 
L 267.300072 -89.566134 
L 267.300085 -89.342229 
L 267.300101 -89.118325 
L 267.300118 -88.894421 
L 267.300137 -88.670517 
L 267.300159 -88.446612 
L 267.300182 -88.222708 
L 267.300207 -87.998804 
L 267.300235 -87.7749 
L 267.300265 -87.550995 
L 267.300296 -87.327091 
L 267.300329 -87.103187 
L 267.300364 -86.879283 
L 267.3004 -86.655378 
L 267.300438 -86.431474 
L 267.300476 -86.20757 
L 267.300515 -85.983665 
L 267.300555 -85.759761 
L 267.300594 -85.535857 
L 267.300634 -85.311953 
L 267.300673 -85.088048 
L 267.300712 -84.864144 
L 267.30075 -84.64024 
L 267.300788 -84.416336 
L 267.300824 -84.192431 
L 267.30086 -83.968527 
L 267.300894 -83.744623 
L 267.300928 -83.520719 
L 267.30096 -83.296814 
L 267.30099 -83.07291 
L 267.30102 -82.849006 
L 267.301048 -82.625102 
L 267.301075 -82.401197 
L 267.3011 -82.177293 
L 267.301123 -81.953389 
L 267.301145 -81.729484 
L 267.301165 -81.50558 
L 267.301183 -81.281676 
L 267.301199 -81.057772 
L 267.301213 -80.833867 
L 267.301224 -80.609963 
L 267.301233 -80.386059 
L 267.30124 -80.162155 
L 267.301244 -79.93825 
L 267.301246 -79.714346 
L 267.301245 -79.490442 
L 267.301242 -79.266538 
L 267.301237 -79.042633 
L 267.301229 -78.818729 
L 267.30122 -78.594825 
L 267.301209 -78.370921 
L 267.301197 -78.147016 
L 267.301183 -77.923112 
L 267.301169 -77.699208 
L 267.301154 -77.475303 
L 267.301139 -77.251399 
L 267.301124 -77.027495 
L 267.30111 -76.803591 
L 267.301095 -76.579686 
L 267.301081 -76.355782 
L 267.301067 -76.131878 
L 267.301054 -75.907974 
L 267.301042 -75.684069 
L 267.301029 -75.460165 
L 267.301017 -75.236261 
L 267.301004 -75.012357 
L 267.300991 -74.788452 
L 267.300977 -74.564548 
L 267.300962 -74.340644 
L 267.300945 -74.11674 
L 267.300926 -73.892835 
L 267.300906 -73.668931 
L 267.300883 -73.445027 
L 267.300857 -73.221122 
L 267.30083 -72.997218 
L 267.300799 -72.773314 
L 267.300766 -72.54941 
L 267.300731 -72.325505 
L 267.300694 -72.101601 
L 267.300655 -71.877697 
L 267.300615 -71.653793 
L 267.300574 -71.429888 
L 267.300532 -71.205984 
L 267.30049 -70.98208 
L 267.300449 -70.758176 
L 267.300408 -70.534271 
L 267.300369 -70.310367 
L 267.300331 -70.086463 
L 267.300295 -69.862559 
L 267.300261 -69.638654 
L 267.300229 -69.41475 
L 267.3002 -69.190846 
L 267.300173 -68.966941 
L 267.300149 -68.743037 
L 267.300127 -68.519133 
L 267.300108 -68.295229 
L 267.300091 -68.071324 
L 267.300076 -67.84742 
z
" style="stroke: #464646; stroke-width: 1.75"/>
    </defs>
    <g clip-path="url(#p2cc3c5a876)">
     <use xlink:href="#mb6895f361b" x="0" y="396" style="fill: #49af72; stroke: #464646; stroke-width: 1.75"/>
    </g>
   </g>
   <g id="PolyCollection_5">
    <defs>
     <path id="m5ee56be711" d="M 323.100023 -69.93582 
L 323.099977 -69.93582 
L 323.099973 -70.108722 
L 323.099968 -70.281625 
L 323.099963 -70.454528 
L 323.099957 -70.627431 
L 323.099951 -70.800333 
L 323.099944 -70.973236 
L 323.099937 -71.146139 
L 323.099929 -71.319042 
L 323.09992 -71.491944 
L 323.099912 -71.664847 
L 323.099902 -71.83775 
L 323.099892 -72.010653 
L 323.099882 -72.183555 
L 323.099872 -72.356458 
L 323.099861 -72.529361 
L 323.099851 -72.702264 
L 323.09984 -72.875166 
L 323.099829 -73.048069 
L 323.099818 -73.220972 
L 323.099808 -73.393875 
L 323.099797 -73.566777 
L 323.099786 -73.73968 
L 323.099775 -73.912583 
L 323.099764 -74.085486 
L 323.099752 -74.258388 
L 323.099741 -74.431291 
L 323.099729 -74.604194 
L 323.099716 -74.777097 
L 323.099703 -74.949999 
L 323.099689 -75.122902 
L 323.099674 -75.295805 
L 323.099659 -75.468708 
L 323.099643 -75.64161 
L 323.099626 -75.814513 
L 323.099608 -75.987416 
L 323.09959 -76.160319 
L 323.099571 -76.333221 
L 323.099552 -76.506124 
L 323.099532 -76.679027 
L 323.099513 -76.85193 
L 323.099494 -77.024832 
L 323.099476 -77.197735 
L 323.099459 -77.370638 
L 323.099443 -77.54354 
L 323.099428 -77.716443 
L 323.099415 -77.889346 
L 323.099403 -78.062249 
L 323.099394 -78.235151 
L 323.099386 -78.408054 
L 323.099381 -78.580957 
L 323.099378 -78.75386 
L 323.099377 -78.926762 
L 323.099378 -79.099665 
L 323.099382 -79.272568 
L 323.099387 -79.445471 
L 323.099394 -79.618373 
L 323.099403 -79.791276 
L 323.099414 -79.964179 
L 323.099426 -80.137082 
L 323.099439 -80.309984 
L 323.099452 -80.482887 
L 323.099467 -80.65579 
L 323.099482 -80.828693 
L 323.099498 -81.001595 
L 323.099514 -81.174498 
L 323.099531 -81.347401 
L 323.099548 -81.520304 
L 323.099565 -81.693206 
L 323.099582 -81.866109 
L 323.099599 -82.039012 
L 323.099616 -82.211915 
L 323.099633 -82.384817 
L 323.09965 -82.55772 
L 323.099667 -82.730623 
L 323.099684 -82.903526 
L 323.099701 -83.076428 
L 323.099718 -83.249331 
L 323.099735 -83.422234 
L 323.099752 -83.595137 
L 323.099768 -83.768039 
L 323.099784 -83.940942 
L 323.0998 -84.113845 
L 323.099816 -84.286748 
L 323.099831 -84.45965 
L 323.099846 -84.632553 
L 323.09986 -84.805456 
L 323.099873 -84.978359 
L 323.099886 -85.151261 
L 323.099898 -85.324164 
L 323.099909 -85.497067 
L 323.099919 -85.66997 
L 323.099929 -85.842872 
L 323.099938 -86.015775 
L 323.099946 -86.188678 
L 323.099953 -86.361581 
L 323.09996 -86.534483 
L 323.099966 -86.707386 
L 323.099971 -86.880289 
L 323.099975 -87.053192 
L 323.100025 -87.053192 
L 323.100025 -87.053192 
L 323.100029 -86.880289 
L 323.100034 -86.707386 
L 323.10004 -86.534483 
L 323.100047 -86.361581 
L 323.100054 -86.188678 
L 323.100062 -86.015775 
L 323.100071 -85.842872 
L 323.100081 -85.66997 
L 323.100091 -85.497067 
L 323.100102 -85.324164 
L 323.100114 -85.151261 
L 323.100127 -84.978359 
L 323.10014 -84.805456 
L 323.100154 -84.632553 
L 323.100169 -84.45965 
L 323.100184 -84.286748 
L 323.1002 -84.113845 
L 323.100216 -83.940942 
L 323.100232 -83.768039 
L 323.100248 -83.595137 
L 323.100265 -83.422234 
L 323.100282 -83.249331 
L 323.100299 -83.076428 
L 323.100316 -82.903526 
L 323.100333 -82.730623 
L 323.10035 -82.55772 
L 323.100367 -82.384817 
L 323.100384 -82.211915 
L 323.100401 -82.039012 
L 323.100418 -81.866109 
L 323.100435 -81.693206 
L 323.100452 -81.520304 
L 323.100469 -81.347401 
L 323.100486 -81.174498 
L 323.100502 -81.001595 
L 323.100518 -80.828693 
L 323.100533 -80.65579 
L 323.100548 -80.482887 
L 323.100561 -80.309984 
L 323.100574 -80.137082 
L 323.100586 -79.964179 
L 323.100597 -79.791276 
L 323.100606 -79.618373 
L 323.100613 -79.445471 
L 323.100618 -79.272568 
L 323.100622 -79.099665 
L 323.100623 -78.926762 
L 323.100622 -78.75386 
L 323.100619 -78.580957 
L 323.100614 -78.408054 
L 323.100606 -78.235151 
L 323.100597 -78.062249 
L 323.100585 -77.889346 
L 323.100572 -77.716443 
L 323.100557 -77.54354 
L 323.100541 -77.370638 
L 323.100524 -77.197735 
L 323.100506 -77.024832 
L 323.100487 -76.85193 
L 323.100468 -76.679027 
L 323.100448 -76.506124 
L 323.100429 -76.333221 
L 323.10041 -76.160319 
L 323.100392 -75.987416 
L 323.100374 -75.814513 
L 323.100357 -75.64161 
L 323.100341 -75.468708 
L 323.100326 -75.295805 
L 323.100311 -75.122902 
L 323.100297 -74.949999 
L 323.100284 -74.777097 
L 323.100271 -74.604194 
L 323.100259 -74.431291 
L 323.100248 -74.258388 
L 323.100236 -74.085486 
L 323.100225 -73.912583 
L 323.100214 -73.73968 
L 323.100203 -73.566777 
L 323.100192 -73.393875 
L 323.100182 -73.220972 
L 323.100171 -73.048069 
L 323.10016 -72.875166 
L 323.100149 -72.702264 
L 323.100139 -72.529361 
L 323.100128 -72.356458 
L 323.100118 -72.183555 
L 323.100108 -72.010653 
L 323.100098 -71.83775 
L 323.100088 -71.664847 
L 323.10008 -71.491944 
L 323.100071 -71.319042 
L 323.100063 -71.146139 
L 323.100056 -70.973236 
L 323.100049 -70.800333 
L 323.100043 -70.627431 
L 323.100037 -70.454528 
L 323.100032 -70.281625 
L 323.100027 -70.108722 
L 323.100023 -69.93582 
z
" style="stroke: #464646; stroke-width: 1.75"/>
    </defs>
    <g clip-path="url(#p2cc3c5a876)">
     <use xlink:href="#m5ee56be711" x="0" y="396" style="fill: #4baba4; stroke: #464646; stroke-width: 1.75"/>
    </g>
   </g>
   <g id="PolyCollection_6">
    <defs>
     <path id="m430a2ab9a9" d="M 378.900054 -68.28513 
L 378.899946 -68.28513 
L 378.899936 -68.66261 
L 378.899926 -69.04009 
L 378.899914 -69.417571 
L 378.8999 -69.795051 
L 378.899885 -70.172531 
L 378.899869 -70.550011 
L 378.899852 -70.927491 
L 378.899832 -71.304971 
L 378.899812 -71.682451 
L 378.89979 -72.059931 
L 378.899767 -72.437411 
L 378.899742 -72.814891 
L 378.899717 -73.192371 
L 378.899691 -73.569851 
L 378.899664 -73.947331 
L 378.899637 -74.324811 
L 378.89961 -74.702291 
L 378.899583 -75.079771 
L 378.899556 -75.457251 
L 378.899531 -75.834731 
L 378.899506 -76.212211 
L 378.899483 -76.589691 
L 378.899461 -76.967171 
L 378.899442 -77.344651 
L 378.899425 -77.722131 
L 378.89941 -78.099611 
L 378.899398 -78.477091 
L 378.899388 -78.854571 
L 378.899382 -79.232051 
L 378.899378 -79.609531 
L 378.899377 -79.987011 
L 378.899379 -80.364491 
L 378.899383 -80.741971 
L 378.89939 -81.119451 
L 378.899399 -81.496931 
L 378.89941 -81.874411 
L 378.899423 -82.251892 
L 378.899437 -82.629372 
L 378.899453 -83.006852 
L 378.89947 -83.384332 
L 378.899487 -83.761812 
L 378.899504 -84.139292 
L 378.899522 -84.516772 
L 378.899539 -84.894252 
L 378.899557 -85.271732 
L 378.899573 -85.649212 
L 378.899589 -86.026692 
L 378.899605 -86.404172 
L 378.899619 -86.781652 
L 378.899632 -87.159132 
L 378.899645 -87.536612 
L 378.899656 -87.914092 
L 378.899666 -88.291572 
L 378.899676 -88.669052 
L 378.899684 -89.046532 
L 378.899692 -89.424012 
L 378.899699 -89.801492 
L 378.899706 -90.178972 
L 378.899712 -90.556452 
L 378.899717 -90.933932 
L 378.899722 -91.311412 
L 378.899727 -91.688892 
L 378.899732 -92.066372 
L 378.899736 -92.443852 
L 378.899741 -92.821332 
L 378.899746 -93.198812 
L 378.899751 -93.576292 
L 378.899756 -93.953772 
L 378.899761 -94.331252 
L 378.899767 -94.708732 
L 378.899773 -95.086213 
L 378.89978 -95.463693 
L 378.899786 -95.841173 
L 378.899794 -96.218653 
L 378.899801 -96.596133 
L 378.89981 -96.973613 
L 378.899818 -97.351093 
L 378.899827 -97.728573 
L 378.899835 -98.106053 
L 378.899844 -98.483533 
L 378.899854 -98.861013 
L 378.899863 -99.238493 
L 378.899872 -99.615973 
L 378.899881 -99.993453 
L 378.89989 -100.370933 
L 378.899899 -100.748413 
L 378.899908 -101.125893 
L 378.899916 -101.503373 
L 378.899924 -101.880853 
L 378.899931 -102.258333 
L 378.899938 -102.635813 
L 378.899945 -103.013293 
L 378.899951 -103.390773 
L 378.899957 -103.768253 
L 378.899962 -104.145733 
L 378.899967 -104.523213 
L 378.899971 -104.900693 
L 378.899975 -105.278173 
L 378.899979 -105.655653 
L 378.900021 -105.655653 
L 378.900021 -105.655653 
L 378.900025 -105.278173 
L 378.900029 -104.900693 
L 378.900033 -104.523213 
L 378.900038 -104.145733 
L 378.900043 -103.768253 
L 378.900049 -103.390773 
L 378.900055 -103.013293 
L 378.900062 -102.635813 
L 378.900069 -102.258333 
L 378.900076 -101.880853 
L 378.900084 -101.503373 
L 378.900092 -101.125893 
L 378.900101 -100.748413 
L 378.90011 -100.370933 
L 378.900119 -99.993453 
L 378.900128 -99.615973 
L 378.900137 -99.238493 
L 378.900146 -98.861013 
L 378.900156 -98.483533 
L 378.900165 -98.106053 
L 378.900173 -97.728573 
L 378.900182 -97.351093 
L 378.90019 -96.973613 
L 378.900199 -96.596133 
L 378.900206 -96.218653 
L 378.900214 -95.841173 
L 378.90022 -95.463693 
L 378.900227 -95.086213 
L 378.900233 -94.708732 
L 378.900239 -94.331252 
L 378.900244 -93.953772 
L 378.900249 -93.576292 
L 378.900254 -93.198812 
L 378.900259 -92.821332 
L 378.900264 -92.443852 
L 378.900268 -92.066372 
L 378.900273 -91.688892 
L 378.900278 -91.311412 
L 378.900283 -90.933932 
L 378.900288 -90.556452 
L 378.900294 -90.178972 
L 378.900301 -89.801492 
L 378.900308 -89.424012 
L 378.900316 -89.046532 
L 378.900324 -88.669052 
L 378.900334 -88.291572 
L 378.900344 -87.914092 
L 378.900355 -87.536612 
L 378.900368 -87.159132 
L 378.900381 -86.781652 
L 378.900395 -86.404172 
L 378.900411 -86.026692 
L 378.900427 -85.649212 
L 378.900443 -85.271732 
L 378.900461 -84.894252 
L 378.900478 -84.516772 
L 378.900496 -84.139292 
L 378.900513 -83.761812 
L 378.90053 -83.384332 
L 378.900547 -83.006852 
L 378.900563 -82.629372 
L 378.900577 -82.251892 
L 378.90059 -81.874411 
L 378.900601 -81.496931 
L 378.90061 -81.119451 
L 378.900617 -80.741971 
L 378.900621 -80.364491 
L 378.900623 -79.987011 
L 378.900622 -79.609531 
L 378.900618 -79.232051 
L 378.900612 -78.854571 
L 378.900602 -78.477091 
L 378.90059 -78.099611 
L 378.900575 -77.722131 
L 378.900558 -77.344651 
L 378.900539 -76.967171 
L 378.900517 -76.589691 
L 378.900494 -76.212211 
L 378.900469 -75.834731 
L 378.900444 -75.457251 
L 378.900417 -75.079771 
L 378.90039 -74.702291 
L 378.900363 -74.324811 
L 378.900336 -73.947331 
L 378.900309 -73.569851 
L 378.900283 -73.192371 
L 378.900258 -72.814891 
L 378.900233 -72.437411 
L 378.90021 -72.059931 
L 378.900188 -71.682451 
L 378.900168 -71.304971 
L 378.900148 -70.927491 
L 378.900131 -70.550011 
L 378.900115 -70.172531 
L 378.9001 -69.795051 
L 378.900086 -69.417571 
L 378.900074 -69.04009 
L 378.900064 -68.66261 
L 378.900054 -68.28513 
z
" style="stroke: #464646; stroke-width: 1.75"/>
    </defs>
    <g clip-path="url(#p2cc3c5a876)">
     <use xlink:href="#m430a2ab9a9" x="0" y="396" style="fill: #53accd; stroke: #464646; stroke-width: 1.75"/>
    </g>
   </g>
   <g id="PolyCollection_7">
    <defs>
     <path id="mb0a3fd26b5" d="M 434.700041 -73.92094 
L 434.699959 -73.92094 
L 434.699951 -74.132791 
L 434.699943 -74.344642 
L 434.699934 -74.556493 
L 434.699924 -74.768343 
L 434.699913 -74.980194 
L 434.6999 -75.192045 
L 434.699886 -75.403896 
L 434.699871 -75.615747 
L 434.699855 -75.827598 
L 434.699838 -76.039449 
L 434.699819 -76.2513 
L 434.699799 -76.463151 
L 434.699778 -76.675002 
L 434.699756 -76.886853 
L 434.699733 -77.098704 
L 434.699709 -77.310555 
L 434.699685 -77.522406 
L 434.69966 -77.734257 
L 434.699635 -77.946108 
L 434.69961 -78.157959 
L 434.699585 -78.36981 
L 434.699561 -78.581661 
L 434.699537 -78.793512 
L 434.699514 -79.005363 
L 434.699493 -79.217214 
L 434.699472 -79.429065 
L 434.699454 -79.640915 
L 434.699437 -79.852766 
L 434.699422 -80.064617 
L 434.699409 -80.276468 
L 434.699398 -80.488319 
L 434.699389 -80.70017 
L 434.699383 -80.912021 
L 434.699379 -81.123872 
L 434.699377 -81.335723 
L 434.699377 -81.547574 
L 434.699379 -81.759425 
L 434.699383 -81.971276 
L 434.699389 -82.183127 
L 434.699396 -82.394978 
L 434.699405 -82.606829 
L 434.699414 -82.81868 
L 434.699425 -83.030531 
L 434.699436 -83.242382 
L 434.699448 -83.454233 
L 434.699459 -83.666084 
L 434.699471 -83.877935 
L 434.699482 -84.089786 
L 434.699493 -84.301637 
L 434.699504 -84.513488 
L 434.699514 -84.725338 
L 434.699523 -84.937189 
L 434.699531 -85.14904 
L 434.699538 -85.360891 
L 434.699544 -85.572742 
L 434.699549 -85.784593 
L 434.699553 -85.996444 
L 434.699557 -86.208295 
L 434.69956 -86.420146 
L 434.699562 -86.631997 
L 434.699564 -86.843848 
L 434.699566 -87.055699 
L 434.699567 -87.26755 
L 434.699569 -87.479401 
L 434.699571 -87.691252 
L 434.699573 -87.903103 
L 434.699576 -88.114954 
L 434.69958 -88.326805 
L 434.699585 -88.538656 
L 434.69959 -88.750507 
L 434.699597 -88.962358 
L 434.699605 -89.174209 
L 434.699614 -89.38606 
L 434.699624 -89.59791 
L 434.699635 -89.809761 
L 434.699648 -90.021612 
L 434.699661 -90.233463 
L 434.699675 -90.445314 
L 434.69969 -90.657165 
L 434.699706 -90.869016 
L 434.699722 -91.080867 
L 434.699739 -91.292718 
L 434.699756 -91.504569 
L 434.699772 -91.71642 
L 434.699789 -91.928271 
L 434.699805 -92.140122 
L 434.699821 -92.351973 
L 434.699837 -92.563824 
L 434.699852 -92.775675 
L 434.699866 -92.987526 
L 434.69988 -93.199377 
L 434.699892 -93.411228 
L 434.699904 -93.623079 
L 434.699915 -93.83493 
L 434.699925 -94.046781 
L 434.699935 -94.258632 
L 434.699943 -94.470483 
L 434.699951 -94.682333 
L 434.699958 -94.894184 
L 434.700042 -94.894184 
L 434.700042 -94.894184 
L 434.700049 -94.682333 
L 434.700057 -94.470483 
L 434.700065 -94.258632 
L 434.700075 -94.046781 
L 434.700085 -93.83493 
L 434.700096 -93.623079 
L 434.700108 -93.411228 
L 434.70012 -93.199377 
L 434.700134 -92.987526 
L 434.700148 -92.775675 
L 434.700163 -92.563824 
L 434.700179 -92.351973 
L 434.700195 -92.140122 
L 434.700211 -91.928271 
L 434.700228 -91.71642 
L 434.700244 -91.504569 
L 434.700261 -91.292718 
L 434.700278 -91.080867 
L 434.700294 -90.869016 
L 434.70031 -90.657165 
L 434.700325 -90.445314 
L 434.700339 -90.233463 
L 434.700352 -90.021612 
L 434.700365 -89.809761 
L 434.700376 -89.59791 
L 434.700386 -89.38606 
L 434.700395 -89.174209 
L 434.700403 -88.962358 
L 434.70041 -88.750507 
L 434.700415 -88.538656 
L 434.70042 -88.326805 
L 434.700424 -88.114954 
L 434.700427 -87.903103 
L 434.700429 -87.691252 
L 434.700431 -87.479401 
L 434.700433 -87.26755 
L 434.700434 -87.055699 
L 434.700436 -86.843848 
L 434.700438 -86.631997 
L 434.70044 -86.420146 
L 434.700443 -86.208295 
L 434.700447 -85.996444 
L 434.700451 -85.784593 
L 434.700456 -85.572742 
L 434.700462 -85.360891 
L 434.700469 -85.14904 
L 434.700477 -84.937189 
L 434.700486 -84.725338 
L 434.700496 -84.513488 
L 434.700507 -84.301637 
L 434.700518 -84.089786 
L 434.700529 -83.877935 
L 434.700541 -83.666084 
L 434.700552 -83.454233 
L 434.700564 -83.242382 
L 434.700575 -83.030531 
L 434.700586 -82.81868 
L 434.700595 -82.606829 
L 434.700604 -82.394978 
L 434.700611 -82.183127 
L 434.700617 -81.971276 
L 434.700621 -81.759425 
L 434.700623 -81.547574 
L 434.700623 -81.335723 
L 434.700621 -81.123872 
L 434.700617 -80.912021 
L 434.700611 -80.70017 
L 434.700602 -80.488319 
L 434.700591 -80.276468 
L 434.700578 -80.064617 
L 434.700563 -79.852766 
L 434.700546 -79.640915 
L 434.700528 -79.429065 
L 434.700507 -79.217214 
L 434.700486 -79.005363 
L 434.700463 -78.793512 
L 434.700439 -78.581661 
L 434.700415 -78.36981 
L 434.70039 -78.157959 
L 434.700365 -77.946108 
L 434.70034 -77.734257 
L 434.700315 -77.522406 
L 434.700291 -77.310555 
L 434.700267 -77.098704 
L 434.700244 -76.886853 
L 434.700222 -76.675002 
L 434.700201 -76.463151 
L 434.700181 -76.2513 
L 434.700162 -76.039449 
L 434.700145 -75.827598 
L 434.700129 -75.615747 
L 434.700114 -75.403896 
L 434.7001 -75.192045 
L 434.700087 -74.980194 
L 434.700076 -74.768343 
L 434.700066 -74.556493 
L 434.700057 -74.344642 
L 434.700049 -74.132791 
L 434.700041 -73.92094 
z
" style="stroke: #464646; stroke-width: 1.75"/>
    </defs>
    <g clip-path="url(#p2cc3c5a876)">
     <use xlink:href="#mb0a3fd26b5" x="0" y="396" style="fill: #b6a8eb; stroke: #464646; stroke-width: 1.75"/>
    </g>
   </g>
   <g id="PolyCollection_8">
    <defs>
     <path id="m61bacea37e" d="M 490.50002 -78.696259 
L 490.49998 -78.696259 
L 490.499978 -78.700825 
L 490.499975 -78.70539 
L 490.499973 -78.709955 
L 490.49997 -78.714521 
L 490.499966 -78.719086 
L 490.499963 -78.723651 
L 490.499959 -78.728217 
L 490.499955 -78.732782 
L 490.499951 -78.737347 
L 490.499947 -78.741912 
L 490.499942 -78.746478 
L 490.499938 -78.751043 
L 490.499933 -78.755608 
L 490.499927 -78.760174 
L 490.499922 -78.764739 
L 490.499917 -78.769304 
L 490.499911 -78.77387 
L 490.499906 -78.778435 
L 490.4999 -78.783 
L 490.499894 -78.787565 
L 490.499888 -78.792131 
L 490.499882 -78.796696 
L 490.499877 -78.801261 
L 490.499871 -78.805827 
L 490.499865 -78.810392 
L 490.49986 -78.814957 
L 490.499854 -78.819523 
L 490.499849 -78.824088 
L 490.499844 -78.828653 
L 490.499839 -78.833218 
L 490.499834 -78.837784 
L 490.49983 -78.842349 
L 490.499825 -78.846914 
L 490.499821 -78.85148 
L 490.499818 -78.856045 
L 490.499814 -78.86061 
L 490.499811 -78.865175 
L 490.499808 -78.869741 
L 490.499805 -78.874306 
L 490.499803 -78.878871 
L 490.499801 -78.883437 
L 490.499799 -78.888002 
L 490.499797 -78.892567 
L 490.499796 -78.897133 
L 490.499795 -78.901698 
L 490.499794 -78.906263 
L 490.499793 -78.910828 
L 490.499793 -78.915394 
L 490.499792 -78.919959 
L 490.499792 -78.924524 
L 490.499793 -78.92909 
L 490.499793 -78.933655 
L 490.499794 -78.93822 
L 490.499795 -78.942786 
L 490.499796 -78.947351 
L 490.499797 -78.951916 
L 490.499799 -78.956481 
L 490.499801 -78.961047 
L 490.499803 -78.965612 
L 490.499805 -78.970177 
L 490.499808 -78.974743 
L 490.499811 -78.979308 
L 490.499814 -78.983873 
L 490.499818 -78.988439 
L 490.499821 -78.993004 
L 490.499825 -78.997569 
L 490.49983 -79.002134 
L 490.499834 -79.0067 
L 490.499839 -79.011265 
L 490.499844 -79.01583 
L 490.499849 -79.020396 
L 490.499854 -79.024961 
L 490.49986 -79.029526 
L 490.499865 -79.034092 
L 490.499871 -79.038657 
L 490.499877 -79.043222 
L 490.499882 -79.047787 
L 490.499888 -79.052353 
L 490.499894 -79.056918 
L 490.4999 -79.061483 
L 490.499906 -79.066049 
L 490.499911 -79.070614 
L 490.499917 -79.075179 
L 490.499922 -79.079744 
L 490.499927 -79.08431 
L 490.499933 -79.088875 
L 490.499938 -79.09344 
L 490.499942 -79.098006 
L 490.499947 -79.102571 
L 490.499951 -79.107136 
L 490.499955 -79.111702 
L 490.499959 -79.116267 
L 490.499963 -79.120832 
L 490.499966 -79.125397 
L 490.49997 -79.129963 
L 490.499973 -79.134528 
L 490.499975 -79.139093 
L 490.499978 -79.143659 
L 490.49998 -79.148224 
L 490.50002 -79.148224 
L 490.50002 -79.148224 
L 490.500022 -79.143659 
L 490.500025 -79.139093 
L 490.500027 -79.134528 
L 490.50003 -79.129963 
L 490.500034 -79.125397 
L 490.500037 -79.120832 
L 490.500041 -79.116267 
L 490.500045 -79.111702 
L 490.500049 -79.107136 
L 490.500053 -79.102571 
L 490.500058 -79.098006 
L 490.500062 -79.09344 
L 490.500067 -79.088875 
L 490.500073 -79.08431 
L 490.500078 -79.079744 
L 490.500083 -79.075179 
L 490.500089 -79.070614 
L 490.500094 -79.066049 
L 490.5001 -79.061483 
L 490.500106 -79.056918 
L 490.500112 -79.052353 
L 490.500118 -79.047787 
L 490.500123 -79.043222 
L 490.500129 -79.038657 
L 490.500135 -79.034092 
L 490.50014 -79.029526 
L 490.500146 -79.024961 
L 490.500151 -79.020396 
L 490.500156 -79.01583 
L 490.500161 -79.011265 
L 490.500166 -79.0067 
L 490.50017 -79.002134 
L 490.500175 -78.997569 
L 490.500179 -78.993004 
L 490.500182 -78.988439 
L 490.500186 -78.983873 
L 490.500189 -78.979308 
L 490.500192 -78.974743 
L 490.500195 -78.970177 
L 490.500197 -78.965612 
L 490.500199 -78.961047 
L 490.500201 -78.956481 
L 490.500203 -78.951916 
L 490.500204 -78.947351 
L 490.500205 -78.942786 
L 490.500206 -78.93822 
L 490.500207 -78.933655 
L 490.500207 -78.92909 
L 490.500208 -78.924524 
L 490.500208 -78.919959 
L 490.500207 -78.915394 
L 490.500207 -78.910828 
L 490.500206 -78.906263 
L 490.500205 -78.901698 
L 490.500204 -78.897133 
L 490.500203 -78.892567 
L 490.500201 -78.888002 
L 490.500199 -78.883437 
L 490.500197 -78.878871 
L 490.500195 -78.874306 
L 490.500192 -78.869741 
L 490.500189 -78.865175 
L 490.500186 -78.86061 
L 490.500182 -78.856045 
L 490.500179 -78.85148 
L 490.500175 -78.846914 
L 490.50017 -78.842349 
L 490.500166 -78.837784 
L 490.500161 -78.833218 
L 490.500156 -78.828653 
L 490.500151 -78.824088 
L 490.500146 -78.819523 
L 490.50014 -78.814957 
L 490.500135 -78.810392 
L 490.500129 -78.805827 
L 490.500123 -78.801261 
L 490.500118 -78.796696 
L 490.500112 -78.792131 
L 490.500106 -78.787565 
L 490.5001 -78.783 
L 490.500094 -78.778435 
L 490.500089 -78.77387 
L 490.500083 -78.769304 
L 490.500078 -78.764739 
L 490.500073 -78.760174 
L 490.500067 -78.755608 
L 490.500062 -78.751043 
L 490.500058 -78.746478 
L 490.500053 -78.741912 
L 490.500049 -78.737347 
L 490.500045 -78.732782 
L 490.500041 -78.728217 
L 490.500037 -78.723651 
L 490.500034 -78.719086 
L 490.50003 -78.714521 
L 490.500027 -78.709955 
L 490.500025 -78.70539 
L 490.500022 -78.700825 
L 490.50002 -78.696259 
z
" style="stroke: #464646; stroke-width: 1.75"/>
    </defs>
    <g clip-path="url(#p2cc3c5a876)">
     <use xlink:href="#m61bacea37e" x="0" y="396" style="fill: #e78cd7; stroke: #464646; stroke-width: 1.75"/>
    </g>
   </g>
   <g id="line2d_21">
    <path d="M 99.9 329.471671 
L 99.9 246.906333 
" clip-path="url(#p2cc3c5a876)" style="fill: none; stroke: #464646; stroke-width: 1.75; stroke-linecap: round"/>
   </g>
   <g id="line2d_22">
    <path d="M 99.9 304.704407 
L 99.9 281.584511 
" clip-path="url(#p2cc3c5a876)" style="fill: none; stroke: #464646; stroke-width: 5.25; stroke-linecap: round"/>
   </g>
   <g id="line2d_23">
    <path d="M 155.7 326.308111 
L 155.7 305.624721 
" clip-path="url(#p2cc3c5a876)" style="fill: none; stroke: #464646; stroke-width: 1.75; stroke-linecap: round"/>
   </g>
   <g id="line2d_24">
    <path d="M 155.7 323.011534 
L 155.7 315.92921 
" clip-path="url(#p2cc3c5a876)" style="fill: none; stroke: #464646; stroke-width: 5.25; stroke-linecap: round"/>
   </g>
   <g id="line2d_25">
    <path d="M 211.5 324.516101 
L 211.5 305.905434 
" clip-path="url(#p2cc3c5a876)" style="fill: none; stroke: #464646; stroke-width: 1.75; stroke-linecap: round"/>
   </g>
   <g id="line2d_26">
    <path d="M 211.5 322.376432 
L 211.5 314.382462 
" clip-path="url(#p2cc3c5a876)" style="fill: none; stroke: #464646; stroke-width: 5.25; stroke-linecap: round"/>
   </g>
   <g id="line2d_27">
    <path d="M 267.3 323.055193 
L 267.3 311.083444 
" clip-path="url(#p2cc3c5a876)" style="fill: none; stroke: #464646; stroke-width: 1.75; stroke-linecap: round"/>
   </g>
   <g id="line2d_28">
    <path d="M 267.3 320.574788 
L 267.3 314.5327 
" clip-path="url(#p2cc3c5a876)" style="fill: none; stroke: #464646; stroke-width: 5.25; stroke-linecap: round"/>
   </g>
   <g id="line2d_29">
    <path d="M 323.1 318.097039 
L 323.1 313.101096 
" clip-path="url(#p2cc3c5a876)" style="fill: none; stroke: #464646; stroke-width: 1.75; stroke-linecap: round"/>
   </g>
   <g id="line2d_30">
    <path d="M 323.1 318.05141 
L 323.1 315.679652 
" clip-path="url(#p2cc3c5a876)" style="fill: none; stroke: #464646; stroke-width: 5.25; stroke-linecap: round"/>
   </g>
   <g id="line2d_31">
    <path d="M 378.9 317.816652 
L 378.9 300.242564 
" clip-path="url(#p2cc3c5a876)" style="fill: none; stroke: #464646; stroke-width: 1.75; stroke-linecap: round"/>
   </g>
   <g id="line2d_32">
    <path d="M 378.9 317.213354 
L 378.9 309.049954 
" clip-path="url(#p2cc3c5a876)" style="fill: none; stroke: #464646; stroke-width: 5.25; stroke-linecap: round"/>
   </g>
   <g id="line2d_33">
    <path d="M 434.7 316.307475 
L 434.7 306.877401 
" clip-path="url(#p2cc3c5a876)" style="fill: none; stroke: #464646; stroke-width: 1.75; stroke-linecap: round"/>
   </g>
   <g id="line2d_34">
    <path d="M 434.7 315.043798 
L 434.7 308.40803 
" clip-path="url(#p2cc3c5a876)" style="fill: none; stroke: #464646; stroke-width: 5.25; stroke-linecap: round"/>
   </g>
   <g id="line2d_35">
    <path d="M 490.5 317.143028 
L 490.5 317.012489 
" clip-path="url(#p2cc3c5a876)" style="fill: none; stroke: #464646; stroke-width: 1.75; stroke-linecap: round"/>
   </g>
   <g id="line2d_36">
    <path d="M 490.5 317.110393 
L 490.5 317.045123 
" clip-path="url(#p2cc3c5a876)" style="fill: none; stroke: #464646; stroke-width: 5.25; stroke-linecap: round"/>
   </g>
   <g id="line2d_37">
    <path d="M 72 304.515449 
L 518.4 304.515449 
" clip-path="url(#p2cc3c5a876)" style="fill: none; stroke-dasharray: 6.475,2.8; stroke-dashoffset: 0; stroke: #ff0000; stroke-width: 1.75"/>
   </g>
   <g id="patch_3">
    <path d="M 72 346.5 
L 72 47.52 
" style="fill: none; stroke: #cccccc; stroke-width: 1.25; stroke-linejoin: miter; stroke-linecap: square"/>
   </g>
   <g id="patch_4">
    <path d="M 518.4 346.5 
L 518.4 47.52 
" style="fill: none; stroke: #cccccc; stroke-width: 1.25; stroke-linejoin: miter; stroke-linecap: square"/>
   </g>
   <g id="patch_5">
    <path d="M 72 346.5 
L 518.4 346.5 
" style="fill: none; stroke: #cccccc; stroke-width: 1.25; stroke-linejoin: miter; stroke-linecap: square"/>
   </g>
   <g id="patch_6">
    <path d="M 72 47.52 
L 518.4 47.52 
" style="fill: none; stroke: #cccccc; stroke-width: 1.25; stroke-linejoin: miter; stroke-linecap: square"/>
   </g>
   <g id="PathCollection_1">
    <defs>
     <path id="m641b6be7e5" d="M 0 1.75 
C 0.464105 1.75 0.909265 1.565609 1.237437 1.237437 
C 1.565609 0.909265 1.75 0.464105 1.75 0 
C 1.75 -0.464105 1.565609 -0.909265 1.237437 -1.237437 
C 0.909265 -1.565609 0.464105 -1.75 0 -1.75 
C -0.464105 -1.75 -0.909265 -1.565609 -1.237437 -1.237437 
C -1.565609 -0.909265 -1.75 -0.464105 -1.75 0 
C -1.75 0.464105 -1.565609 0.909265 -1.237437 1.237437 
C -0.909265 1.565609 -0.464105 1.75 0 1.75 
z
" style="stroke: #464646; stroke-width: 0.3"/>
    </defs>
    <g clip-path="url(#p2cc3c5a876)">
     <use xlink:href="#m641b6be7e5" x="99.9" y="295.492977" style="fill: #ffffff; stroke: #464646; stroke-width: 0.3"/>
    </g>
   </g>
   <g id="PathCollection_2">
    <g clip-path="url(#p2cc3c5a876)">
     <use xlink:href="#m641b6be7e5" x="155.7" y="319.055641" style="fill: #ffffff; stroke: #464646; stroke-width: 0.3"/>
    </g>
   </g>
   <g id="PathCollection_3">
    <g clip-path="url(#p2cc3c5a876)">
     <use xlink:href="#m641b6be7e5" x="211.5" y="319.508187" style="fill: #ffffff; stroke: #464646; stroke-width: 0.3"/>
    </g>
   </g>
   <g id="PathCollection_4">
    <g clip-path="url(#p2cc3c5a876)">
     <use xlink:href="#m641b6be7e5" x="267.3" y="316.970808" style="fill: #ffffff; stroke: #464646; stroke-width: 0.3"/>
    </g>
   </g>
   <g id="PathCollection_5">
    <g clip-path="url(#p2cc3c5a876)">
     <use xlink:href="#m641b6be7e5" x="323.1" y="317.452491" style="fill: #ffffff; stroke: #464646; stroke-width: 0.3"/>
    </g>
   </g>
   <g id="PathCollection_6">
    <g clip-path="url(#p2cc3c5a876)">
     <use xlink:href="#m641b6be7e5" x="378.9" y="315.413415" style="fill: #ffffff; stroke: #464646; stroke-width: 0.3"/>
    </g>
   </g>
   <g id="PathCollection_7">
    <g clip-path="url(#p2cc3c5a876)">
     <use xlink:href="#m641b6be7e5" x="434.7" y="313.386345" style="fill: #ffffff; stroke: #464646; stroke-width: 0.3"/>
    </g>
   </g>
   <g id="PathCollection_8">
    <g clip-path="url(#p2cc3c5a876)">
     <use xlink:href="#m641b6be7e5" x="490.5" y="317.077758" style="fill: #ffffff; stroke: #464646; stroke-width: 0.3"/>
    </g>
   </g>
   <g id="text_17">
    <!-- VE / VF against Area -->
    <g style="fill: #262626" transform="translate(239.505 41.52)scale(0.12 -0.12)">
     <defs>
      <path id="LiberationSans-67" d="M 1713 -1328 
Q 1159 -1328 831 -1111 
Q 503 -894 409 -494 
L 975 -413 
Q 1031 -647 1223 -773 
Q 1416 -900 1728 -900 
Q 2569 -900 2569 84 
L 2569 628 
L 2563 628 
Q 2403 303 2125 139 
Q 1847 -25 1475 -25 
Q 853 -25 561 387 
Q 269 800 269 1684 
Q 269 2581 583 3007 
Q 897 3434 1538 3434 
Q 1897 3434 2161 3270 
Q 2425 3106 2569 2803 
L 2575 2803 
Q 2575 2897 2587 3128 
Q 2600 3359 2613 3381 
L 3147 3381 
Q 3128 3213 3128 2681 
L 3128 97 
Q 3128 -1328 1713 -1328 
z
M 2569 1691 
Q 2569 2103 2456 2401 
Q 2344 2700 2139 2858 
Q 1934 3016 1675 3016 
Q 1244 3016 1047 2703 
Q 850 2391 850 1691 
Q 850 997 1034 694 
Q 1219 391 1666 391 
Q 1931 391 2137 547 
Q 2344 703 2456 995 
Q 2569 1288 2569 1691 
z
" transform="scale(0.015625)"/>
      <path id="LiberationSans-69" d="M 428 4100 
L 428 4638 
L 991 4638 
L 991 4100 
L 428 4100 
z
M 428 0 
L 428 3381 
L 991 3381 
L 991 0 
L 428 0 
z
" transform="scale(0.015625)"/>
      <path id="LiberationSans-6e" d="M 2578 0 
L 2578 2144 
Q 2578 2478 2512 2662 
Q 2447 2847 2303 2928 
Q 2159 3009 1881 3009 
Q 1475 3009 1240 2731 
Q 1006 2453 1006 1959 
L 1006 0 
L 444 0 
L 444 2659 
Q 444 3250 425 3381 
L 956 3381 
Q 959 3366 962 3297 
Q 966 3228 970 3139 
Q 975 3050 981 2803 
L 991 2803 
Q 1184 3153 1439 3298 
Q 1694 3444 2072 3444 
Q 2628 3444 2886 3167 
Q 3144 2891 3144 2253 
L 3144 0 
L 2578 0 
z
" transform="scale(0.015625)"/>
      <path id="LiberationSans-73" d="M 2969 934 
Q 2969 456 2608 196 
Q 2247 -63 1597 -63 
Q 966 -63 623 145 
Q 281 353 178 794 
L 675 891 
Q 747 619 972 492 
Q 1197 366 1597 366 
Q 2025 366 2223 497 
Q 2422 628 2422 891 
Q 2422 1091 2284 1216 
Q 2147 1341 1841 1422 
L 1438 1528 
Q 953 1653 748 1773 
Q 544 1894 428 2066 
Q 313 2238 313 2488 
Q 313 2950 642 3192 
Q 972 3434 1603 3434 
Q 2163 3434 2492 3237 
Q 2822 3041 2909 2606 
L 2403 2544 
Q 2356 2769 2151 2889 
Q 1947 3009 1603 3009 
Q 1222 3009 1040 2893 
Q 859 2778 859 2544 
Q 859 2400 934 2306 
Q 1009 2213 1156 2147 
Q 1303 2081 1775 1966 
Q 2222 1853 2419 1758 
Q 2616 1663 2730 1547 
Q 2844 1431 2906 1279 
Q 2969 1128 2969 934 
z
" transform="scale(0.015625)"/>
      <path id="LiberationSans-74" d="M 1731 25 
Q 1453 -50 1163 -50 
Q 488 -50 488 716 
L 488 2972 
L 97 2972 
L 97 3381 
L 509 3381 
L 675 4138 
L 1050 4138 
L 1050 3381 
L 1675 3381 
L 1675 2972 
L 1050 2972 
L 1050 838 
Q 1050 594 1129 495 
Q 1209 397 1406 397 
Q 1519 397 1731 441 
L 1731 25 
z
" transform="scale(0.015625)"/>
     </defs>
     <use xlink:href="#LiberationSans-56"/>
     <use xlink:href="#LiberationSans-45" x="66.699219"/>
     <use xlink:href="#LiberationSans-20" x="133.398438"/>
     <use xlink:href="#LiberationSans-2f" x="161.181641"/>
     <use xlink:href="#LiberationSans-20" x="188.964844"/>
     <use xlink:href="#LiberationSans-56" x="216.748047"/>
     <use xlink:href="#LiberationSans-46" x="283.447266"/>
     <use xlink:href="#LiberationSans-20" x="344.53125"/>
     <use xlink:href="#LiberationSans-61" x="372.314453"/>
     <use xlink:href="#LiberationSans-67" x="427.929688"/>
     <use xlink:href="#LiberationSans-61" x="483.544922"/>
     <use xlink:href="#LiberationSans-69" x="539.160156"/>
     <use xlink:href="#LiberationSans-6e" x="561.376953"/>
     <use xlink:href="#LiberationSans-73" x="616.992188"/>
     <use xlink:href="#LiberationSans-74" x="666.992188"/>
     <use xlink:href="#LiberationSans-20" x="694.775391"/>
     <use xlink:href="#LiberationSans-41" x="717.058594"/>
     <use xlink:href="#LiberationSans-72" x="783.757812"/>
     <use xlink:href="#LiberationSans-65" x="817.058594"/>
     <use xlink:href="#LiberationSans-61" x="872.673828"/>
    </g>
   </g>
  </g>
 </g>
 <defs>
  <clipPath id="p2cc3c5a876">
   <rect x="72" y="47.52" width="446.4" height="298.98"/>
  </clipPath>
 </defs>
</svg>
