<?xml version="1.0" encoding="utf-8" standalone="no"?>
<!DOCTYPE svg PUBLIC "-//W3C//DTD SVG 1.1//EN"
  "http://www.w3.org/Graphics/SVG/1.1/DTD/svg11.dtd">
<svg xmlns:xlink="http://www.w3.org/1999/xlink" width="576pt" height="396pt" viewBox="0 0 576 396" xmlns="http://www.w3.org/2000/svg" version="1.1">
 <metadata>
  <rdf:RDF xmlns:dc="http://purl.org/dc/elements/1.1/" xmlns:cc="http://creativecommons.org/ns#" xmlns:rdf="http://www.w3.org/1999/02/22-rdf-syntax-ns#">
   <cc:Work>
    <dc:type rdf:resource="http://purl.org/dc/dcmitype/StillImage"/>
    <dc:date>2022-10-13T17:46:17.278787</dc:date>
    <dc:format>image/svg+xml</dc:format>
    <dc:creator>
     <cc:Agent>
      <dc:title>Matplotlib v3.5.0, https://matplotlib.org/</dc:title>
     </cc:Agent>
    </dc:creator>
   </cc:Work>
  </rdf:RDF>
 </metadata>
 <defs>
  <style type="text/css">*{stroke-linejoin: round; stroke-linecap: butt}</style>
 </defs>
 <g id="figure_1">
  <g id="patch_1">
   <path d="M 0 396 
L 576 396 
L 576 0 
L 0 0 
z
" style="fill: #ffffff"/>
  </g>
  <g id="axes_1">
   <g id="patch_2">
    <path d="M 72 346.5 
L 518.4 346.5 
L 518.4 47.52 
L 72 47.52 
z
" style="fill: #ffffff"/>
   </g>
   <g id="matplotlib.axis_1">
    <g id="xtick_1">
     <g id="line2d_1"/>
     <g id="text_1">
      <!-- 0-750 -->
      <g style="fill: #262626" transform="translate(96.413281 360.746875)scale(0.1 -0.1)">
       <defs>
        <path id="LiberationSans-30" d="M 3309 2203 
Q 3309 1100 2920 518 
Q 2531 -63 1772 -63 
Q 1013 -63 631 515 
Q 250 1094 250 2203 
Q 250 3338 620 3903 
Q 991 4469 1791 4469 
Q 2569 4469 2939 3897 
Q 3309 3325 3309 2203 
z
M 2738 2203 
Q 2738 3156 2517 3584 
Q 2297 4013 1791 4013 
Q 1272 4013 1045 3591 
Q 819 3169 819 2203 
Q 819 1266 1048 831 
Q 1278 397 1778 397 
Q 2275 397 2506 840 
Q 2738 1284 2738 2203 
z
" transform="scale(0.015625)"/>
        <path id="LiberationSans-2d" d="M 284 1450 
L 284 1950 
L 1847 1950 
L 1847 1450 
L 284 1450 
z
" transform="scale(0.015625)"/>
        <path id="LiberationSans-37" d="M 3238 3947 
Q 2563 2916 2284 2331 
Q 2006 1747 1867 1178 
Q 1728 609 1728 0 
L 1141 0 
Q 1141 844 1498 1776 
Q 1856 2709 2694 3925 
L 328 3925 
L 328 4403 
L 3238 4403 
L 3238 3947 
z
" transform="scale(0.015625)"/>
        <path id="LiberationSans-35" d="M 3291 1434 
Q 3291 738 2877 337 
Q 2463 -63 1728 -63 
Q 1113 -63 734 206 
Q 356 475 256 984 
L 825 1050 
Q 1003 397 1741 397 
Q 2194 397 2450 670 
Q 2706 944 2706 1422 
Q 2706 1838 2448 2094 
Q 2191 2350 1753 2350 
Q 1525 2350 1328 2278 
Q 1131 2206 934 2034 
L 384 2034 
L 531 4403 
L 3034 4403 
L 3034 3925 
L 1044 3925 
L 959 2528 
Q 1325 2809 1869 2809 
Q 2519 2809 2905 2428 
Q 3291 2047 3291 1434 
z
" transform="scale(0.015625)"/>
       </defs>
       <use xlink:href="#LiberationSans-30"/>
       <use xlink:href="#LiberationSans-2d" x="55.615234"/>
       <use xlink:href="#LiberationSans-37" x="88.916016"/>
       <use xlink:href="#LiberationSans-35" x="144.53125"/>
       <use xlink:href="#LiberationSans-30" x="200.146484"/>
      </g>
     </g>
    </g>
    <g id="xtick_2">
     <g id="line2d_2"/>
     <g id="text_2">
      <!-- 750-1500 -->
      <g style="fill: #262626" transform="translate(162.471875 360.746875)scale(0.1 -0.1)">
       <defs>
        <path id="LiberationSans-31" d="M 488 0 
L 488 478 
L 1609 478 
L 1609 3866 
L 616 3156 
L 616 3688 
L 1656 4403 
L 2175 4403 
L 2175 478 
L 3247 478 
L 3247 0 
L 488 0 
z
" transform="scale(0.015625)"/>
       </defs>
       <use xlink:href="#LiberationSans-37"/>
       <use xlink:href="#LiberationSans-35" x="55.615234"/>
       <use xlink:href="#LiberationSans-30" x="111.230469"/>
       <use xlink:href="#LiberationSans-2d" x="166.845703"/>
       <use xlink:href="#LiberationSans-31" x="200.146484"/>
       <use xlink:href="#LiberationSans-35" x="255.761719"/>
       <use xlink:href="#LiberationSans-30" x="311.376953"/>
       <use xlink:href="#LiberationSans-30" x="366.992188"/>
      </g>
     </g>
    </g>
    <g id="xtick_3">
     <g id="line2d_3"/>
     <g id="text_3">
      <!-- 1500-2250 -->
      <g style="fill: #262626" transform="translate(234.091406 360.746875)scale(0.1 -0.1)">
       <defs>
        <path id="LiberationSans-32" d="M 322 0 
L 322 397 
Q 481 763 711 1042 
Q 941 1322 1194 1548 
Q 1447 1775 1695 1969 
Q 1944 2163 2144 2356 
Q 2344 2550 2467 2762 
Q 2591 2975 2591 3244 
Q 2591 3606 2378 3806 
Q 2166 4006 1788 4006 
Q 1428 4006 1195 3811 
Q 963 3616 922 3263 
L 347 3316 
Q 409 3844 795 4156 
Q 1181 4469 1788 4469 
Q 2453 4469 2811 4155 
Q 3169 3841 3169 3263 
Q 3169 3006 3051 2753 
Q 2934 2500 2703 2247 
Q 2472 1994 1819 1463 
Q 1459 1169 1246 933 
Q 1034 697 941 478 
L 3238 478 
L 3238 0 
L 322 0 
z
" transform="scale(0.015625)"/>
       </defs>
       <use xlink:href="#LiberationSans-31"/>
       <use xlink:href="#LiberationSans-35" x="55.615234"/>
       <use xlink:href="#LiberationSans-30" x="111.230469"/>
       <use xlink:href="#LiberationSans-30" x="166.845703"/>
       <use xlink:href="#LiberationSans-2d" x="222.460938"/>
       <use xlink:href="#LiberationSans-32" x="255.761719"/>
       <use xlink:href="#LiberationSans-32" x="311.376953"/>
       <use xlink:href="#LiberationSans-35" x="366.992188"/>
       <use xlink:href="#LiberationSans-30" x="422.607422"/>
      </g>
     </g>
    </g>
    <g id="xtick_4">
     <g id="line2d_4"/>
     <g id="text_4">
      <!-- 2250-3000 -->
      <g style="fill: #262626" transform="translate(308.491406 360.746875)scale(0.1 -0.1)">
       <defs>
        <path id="LiberationSans-33" d="M 3278 1216 
Q 3278 606 2890 271 
Q 2503 -63 1784 -63 
Q 1116 -63 717 239 
Q 319 541 244 1131 
L 825 1184 
Q 938 403 1784 403 
Q 2209 403 2451 612 
Q 2694 822 2694 1234 
Q 2694 1594 2417 1795 
Q 2141 1997 1619 1997 
L 1300 1997 
L 1300 2484 
L 1606 2484 
Q 2069 2484 2323 2686 
Q 2578 2888 2578 3244 
Q 2578 3597 2370 3801 
Q 2163 4006 1753 4006 
Q 1381 4006 1151 3815 
Q 922 3625 884 3278 
L 319 3322 
Q 381 3863 767 4166 
Q 1153 4469 1759 4469 
Q 2422 4469 2789 4161 
Q 3156 3853 3156 3303 
Q 3156 2881 2920 2617 
Q 2684 2353 2234 2259 
L 2234 2247 
Q 2728 2194 3003 1916 
Q 3278 1638 3278 1216 
z
" transform="scale(0.015625)"/>
       </defs>
       <use xlink:href="#LiberationSans-32"/>
       <use xlink:href="#LiberationSans-32" x="55.615234"/>
       <use xlink:href="#LiberationSans-35" x="111.230469"/>
       <use xlink:href="#LiberationSans-30" x="166.845703"/>
       <use xlink:href="#LiberationSans-2d" x="222.460938"/>
       <use xlink:href="#LiberationSans-33" x="255.761719"/>
       <use xlink:href="#LiberationSans-30" x="311.376953"/>
       <use xlink:href="#LiberationSans-30" x="366.992188"/>
       <use xlink:href="#LiberationSans-30" x="422.607422"/>
      </g>
     </g>
    </g>
    <g id="xtick_5">
     <g id="line2d_5"/>
     <g id="text_5">
      <!-- 3000-3750 -->
      <g style="fill: #262626" transform="translate(382.891406 360.746875)scale(0.1 -0.1)">
       <use xlink:href="#LiberationSans-33"/>
       <use xlink:href="#LiberationSans-30" x="55.615234"/>
       <use xlink:href="#LiberationSans-30" x="111.230469"/>
       <use xlink:href="#LiberationSans-30" x="166.845703"/>
       <use xlink:href="#LiberationSans-2d" x="222.460938"/>
       <use xlink:href="#LiberationSans-33" x="255.761719"/>
       <use xlink:href="#LiberationSans-37" x="311.376953"/>
       <use xlink:href="#LiberationSans-35" x="366.992188"/>
       <use xlink:href="#LiberationSans-30" x="422.607422"/>
      </g>
     </g>
    </g>
    <g id="xtick_6">
     <g id="line2d_6"/>
     <g id="text_6">
      <!-- 3750-4500 -->
      <g style="fill: #262626" transform="translate(457.291406 360.746875)scale(0.1 -0.1)">
       <defs>
        <path id="LiberationSans-34" d="M 2753 997 
L 2753 0 
L 2222 0 
L 2222 997 
L 147 997 
L 147 1434 
L 2163 4403 
L 2753 4403 
L 2753 1441 
L 3372 1441 
L 3372 997 
L 2753 997 
z
M 2222 3769 
Q 2216 3750 2134 3603 
Q 2053 3456 2013 3397 
L 884 1734 
L 716 1503 
L 666 1441 
L 2222 1441 
L 2222 3769 
z
" transform="scale(0.015625)"/>
       </defs>
       <use xlink:href="#LiberationSans-33"/>
       <use xlink:href="#LiberationSans-37" x="55.615234"/>
       <use xlink:href="#LiberationSans-35" x="111.230469"/>
       <use xlink:href="#LiberationSans-30" x="166.845703"/>
       <use xlink:href="#LiberationSans-2d" x="222.460938"/>
       <use xlink:href="#LiberationSans-34" x="255.761719"/>
       <use xlink:href="#LiberationSans-35" x="311.376953"/>
       <use xlink:href="#LiberationSans-30" x="366.992188"/>
       <use xlink:href="#LiberationSans-30" x="422.607422"/>
      </g>
     </g>
    </g>
    <g id="text_7">
     <!-- Area (km2) -->
     <g style="fill: #262626" transform="translate(268.0025 374.793437)scale(0.11 -0.11)">
      <defs>
       <path id="LiberationSans-41" d="M 3647 0 
L 3144 1288 
L 1138 1288 
L 631 0 
L 13 0 
L 1809 4403 
L 2488 4403 
L 4256 0 
L 3647 0 
z
M 2141 3953 
L 2113 3866 
Q 2034 3606 1881 3200 
L 1319 1753 
L 2966 1753 
L 2400 3206 
Q 2313 3422 2225 3694 
L 2141 3953 
z
" transform="scale(0.015625)"/>
       <path id="LiberationSans-72" d="M 444 0 
L 444 2594 
Q 444 2950 425 3381 
L 956 3381 
Q 981 2806 981 2691 
L 994 2691 
Q 1128 3125 1303 3284 
Q 1478 3444 1797 3444 
Q 1909 3444 2025 3413 
L 2025 2897 
Q 1913 2928 1725 2928 
Q 1375 2928 1190 2626 
Q 1006 2325 1006 1763 
L 1006 0 
L 444 0 
z
" transform="scale(0.015625)"/>
       <path id="LiberationSans-65" d="M 863 1572 
Q 863 991 1103 675 
Q 1344 359 1806 359 
Q 2172 359 2392 506 
Q 2613 653 2691 878 
L 3184 738 
Q 2881 -63 1806 -63 
Q 1056 -63 664 384 
Q 272 831 272 1713 
Q 272 2550 664 2997 
Q 1056 3444 1784 3444 
Q 3275 3444 3275 1647 
L 3275 1572 
L 863 1572 
z
M 2694 2003 
Q 2647 2538 2422 2783 
Q 2197 3028 1775 3028 
Q 1366 3028 1127 2754 
Q 888 2481 869 2003 
L 2694 2003 
z
" transform="scale(0.015625)"/>
       <path id="LiberationSans-61" d="M 1294 -63 
Q 784 -63 528 206 
Q 272 475 272 944 
Q 272 1469 617 1750 
Q 963 2031 1731 2050 
L 2491 2063 
L 2491 2247 
Q 2491 2659 2316 2837 
Q 2141 3016 1766 3016 
Q 1388 3016 1216 2887 
Q 1044 2759 1009 2478 
L 422 2531 
Q 566 3444 1778 3444 
Q 2416 3444 2737 3151 
Q 3059 2859 3059 2306 
L 3059 850 
Q 3059 600 3125 473 
Q 3191 347 3375 347 
Q 3456 347 3559 369 
L 3559 19 
Q 3347 -31 3125 -31 
Q 2813 -31 2670 133 
Q 2528 297 2509 647 
L 2491 647 
Q 2275 259 1989 98 
Q 1703 -63 1294 -63 
z
M 1422 359 
Q 1731 359 1972 500 
Q 2213 641 2352 886 
Q 2491 1131 2491 1391 
L 2491 1669 
L 1875 1656 
Q 1478 1650 1273 1575 
Q 1069 1500 959 1344 
Q 850 1188 850 934 
Q 850 659 998 509 
Q 1147 359 1422 359 
z
" transform="scale(0.015625)"/>
       <path id="LiberationSans-20" transform="scale(0.015625)"/>
       <path id="LiberationSans-28" d="M 397 1663 
Q 397 2566 680 3284 
Q 963 4003 1550 4638 
L 2094 4638 
Q 1509 3988 1236 3256 
Q 963 2525 963 1656 
Q 963 791 1233 62 
Q 1503 -666 2094 -1325 
L 1550 -1325 
Q 959 -688 678 32 
Q 397 753 397 1650 
L 397 1663 
z
" transform="scale(0.015625)"/>
       <path id="LiberationSans-6b" d="M 2550 0 
L 1406 1544 
L 994 1203 
L 994 0 
L 431 0 
L 431 4638 
L 994 4638 
L 994 1741 
L 2478 3381 
L 3138 3381 
L 1766 1928 
L 3209 0 
L 2550 0 
z
" transform="scale(0.015625)"/>
       <path id="LiberationSans-6d" d="M 2400 0 
L 2400 2144 
Q 2400 2634 2265 2821 
Q 2131 3009 1781 3009 
Q 1422 3009 1212 2734 
Q 1003 2459 1003 1959 
L 1003 0 
L 444 0 
L 444 2659 
Q 444 3250 425 3381 
L 956 3381 
Q 959 3366 962 3297 
Q 966 3228 970 3139 
Q 975 3050 981 2803 
L 991 2803 
Q 1172 3163 1406 3303 
Q 1641 3444 1978 3444 
Q 2363 3444 2586 3291 
Q 2809 3138 2897 2803 
L 2906 2803 
Q 3081 3144 3329 3294 
Q 3578 3444 3931 3444 
Q 4444 3444 4676 3166 
Q 4909 2888 4909 2253 
L 4909 0 
L 4353 0 
L 4353 2144 
Q 4353 2634 4218 2821 
Q 4084 3009 3734 3009 
Q 3366 3009 3161 2736 
Q 2956 2463 2956 1959 
L 2956 0 
L 2400 0 
z
" transform="scale(0.015625)"/>
       <path id="LiberationSans-29" d="M 1734 1650 
Q 1734 747 1451 28 
Q 1169 -691 581 -1325 
L 38 -1325 
Q 625 -669 897 57 
Q 1169 784 1169 1656 
Q 1169 2528 895 3256 
Q 622 3984 38 4638 
L 581 4638 
Q 1172 4000 1453 3279 
Q 1734 2559 1734 1663 
L 1734 1650 
z
" transform="scale(0.015625)"/>
      </defs>
      <use xlink:href="#LiberationSans-41"/>
      <use xlink:href="#LiberationSans-72" x="66.699219"/>
      <use xlink:href="#LiberationSans-65" x="100"/>
      <use xlink:href="#LiberationSans-61" x="155.615234"/>
      <use xlink:href="#LiberationSans-20" x="211.230469"/>
      <use xlink:href="#LiberationSans-28" x="239.013672"/>
      <use xlink:href="#LiberationSans-6b" x="272.314453"/>
      <use xlink:href="#LiberationSans-6d" x="322.314453"/>
      <use xlink:href="#LiberationSans-32" x="405.615234"/>
      <use xlink:href="#LiberationSans-29" x="461.230469"/>
     </g>
    </g>
   </g>
   <g id="matplotlib.axis_2">
    <g id="ytick_1">
     <g id="line2d_7">
      <path d="M 72 316.928204 
L 518.4 316.928204 
" clip-path="url(#p6d568755de)" style="fill: none; stroke: #cccccc; stroke-linecap: round"/>
     </g>
     <g id="line2d_8"/>
     <g id="text_8">
      <!-- 0 -->
      <g style="fill: #262626" transform="translate(59.439062 320.551641)scale(0.1 -0.1)">
       <use xlink:href="#LiberationSans-30"/>
      </g>
     </g>
    </g>
    <g id="ytick_2">
     <g id="line2d_9">
      <path d="M 72 266.608785 
L 518.4 266.608785 
" clip-path="url(#p6d568755de)" style="fill: none; stroke: #cccccc; stroke-linecap: round"/>
     </g>
     <g id="line2d_10"/>
     <g id="text_9">
      <!-- 2 -->
      <g style="fill: #262626" transform="translate(59.439062 270.232223)scale(0.1 -0.1)">
       <use xlink:href="#LiberationSans-32"/>
      </g>
     </g>
    </g>
    <g id="ytick_3">
     <g id="line2d_11">
      <path d="M 72 216.289367 
L 518.4 216.289367 
" clip-path="url(#p6d568755de)" style="fill: none; stroke: #cccccc; stroke-linecap: round"/>
     </g>
     <g id="line2d_12"/>
     <g id="text_10">
      <!-- 4 -->
      <g style="fill: #262626" transform="translate(59.439062 219.912804)scale(0.1 -0.1)">
       <use xlink:href="#LiberationSans-34"/>
      </g>
     </g>
    </g>
    <g id="ytick_4">
     <g id="line2d_13">
      <path d="M 72 165.969948 
L 518.4 165.969948 
" clip-path="url(#p6d568755de)" style="fill: none; stroke: #cccccc; stroke-linecap: round"/>
     </g>
     <g id="line2d_14"/>
     <g id="text_11">
      <!-- 6 -->
      <g style="fill: #262626" transform="translate(59.439062 169.593386)scale(0.1 -0.1)">
       <defs>
        <path id="LiberationSans-36" d="M 3278 1441 
Q 3278 744 2900 340 
Q 2522 -63 1856 -63 
Q 1113 -63 719 490 
Q 325 1044 325 2100 
Q 325 3244 734 3856 
Q 1144 4469 1900 4469 
Q 2897 4469 3156 3572 
L 2619 3475 
Q 2453 4013 1894 4013 
Q 1413 4013 1148 3564 
Q 884 3116 884 2266 
Q 1038 2550 1316 2698 
Q 1594 2847 1953 2847 
Q 2563 2847 2920 2465 
Q 3278 2084 3278 1441 
z
M 2706 1416 
Q 2706 1894 2472 2153 
Q 2238 2413 1819 2413 
Q 1425 2413 1183 2183 
Q 941 1953 941 1550 
Q 941 1041 1192 716 
Q 1444 391 1838 391 
Q 2244 391 2475 664 
Q 2706 938 2706 1416 
z
" transform="scale(0.015625)"/>
       </defs>
       <use xlink:href="#LiberationSans-36"/>
      </g>
     </g>
    </g>
    <g id="ytick_5">
     <g id="line2d_15">
      <path d="M 72 115.65053 
L 518.4 115.65053 
" clip-path="url(#p6d568755de)" style="fill: none; stroke: #cccccc; stroke-linecap: round"/>
     </g>
     <g id="line2d_16"/>
     <g id="text_12">
      <!-- 8 -->
      <g style="fill: #262626" transform="translate(59.439062 119.273967)scale(0.1 -0.1)">
       <defs>
        <path id="LiberationSans-38" d="M 3281 1228 
Q 3281 619 2893 278 
Q 2506 -63 1781 -63 
Q 1075 -63 676 271 
Q 278 606 278 1222 
Q 278 1653 525 1947 
Q 772 2241 1156 2303 
L 1156 2316 
Q 797 2400 589 2681 
Q 381 2963 381 3341 
Q 381 3844 757 4156 
Q 1134 4469 1769 4469 
Q 2419 4469 2795 4162 
Q 3172 3856 3172 3334 
Q 3172 2956 2962 2675 
Q 2753 2394 2391 2322 
L 2391 2309 
Q 2813 2241 3047 1952 
Q 3281 1663 3281 1228 
z
M 2588 3303 
Q 2588 4050 1769 4050 
Q 1372 4050 1164 3862 
Q 956 3675 956 3303 
Q 956 2925 1170 2726 
Q 1384 2528 1775 2528 
Q 2172 2528 2380 2711 
Q 2588 2894 2588 3303 
z
M 2697 1281 
Q 2697 1691 2453 1898 
Q 2209 2106 1769 2106 
Q 1341 2106 1100 1882 
Q 859 1659 859 1269 
Q 859 359 1788 359 
Q 2247 359 2472 579 
Q 2697 800 2697 1281 
z
" transform="scale(0.015625)"/>
       </defs>
       <use xlink:href="#LiberationSans-38"/>
      </g>
     </g>
    </g>
    <g id="ytick_6">
     <g id="line2d_17">
      <path d="M 72 65.331111 
L 518.4 65.331111 
" clip-path="url(#p6d568755de)" style="fill: none; stroke: #cccccc; stroke-linecap: round"/>
     </g>
     <g id="line2d_18"/>
     <g id="text_13">
      <!-- 10 -->
      <g style="fill: #262626" transform="translate(53.878125 68.954549)scale(0.1 -0.1)">
       <use xlink:href="#LiberationSans-31"/>
       <use xlink:href="#LiberationSans-30" x="55.615234"/>
      </g>
     </g>
    </g>
    <g id="text_14">
     <!-- VE / VF -->
     <g style="fill: #262626" transform="translate(47.595625 215.959219)rotate(-90)scale(0.11 -0.11)">
      <defs>
       <path id="LiberationSans-56" d="M 2444 0 
L 1825 0 
L 28 4403 
L 656 4403 
L 1875 1303 
L 2138 525 
L 2400 1303 
L 3613 4403 
L 4241 4403 
L 2444 0 
z
" transform="scale(0.015625)"/>
       <path id="LiberationSans-45" d="M 525 0 
L 525 4403 
L 3866 4403 
L 3866 3916 
L 1122 3916 
L 1122 2503 
L 3678 2503 
L 3678 2022 
L 1122 2022 
L 1122 488 
L 3994 488 
L 3994 0 
L 525 0 
z
" transform="scale(0.015625)"/>
       <path id="LiberationSans-2f" d="M 0 -63 
L 1284 4638 
L 1778 4638 
L 506 -63 
L 0 -63 
z
" transform="scale(0.015625)"/>
       <path id="LiberationSans-46" d="M 1122 3916 
L 1122 2278 
L 3578 2278 
L 3578 1784 
L 1122 1784 
L 1122 0 
L 525 0 
L 525 4403 
L 3653 4403 
L 3653 3916 
L 1122 3916 
z
" transform="scale(0.015625)"/>
      </defs>
      <use xlink:href="#LiberationSans-56"/>
      <use xlink:href="#LiberationSans-45" x="66.699219"/>
      <use xlink:href="#LiberationSans-20" x="133.398438"/>
      <use xlink:href="#LiberationSans-2f" x="161.181641"/>
      <use xlink:href="#LiberationSans-20" x="188.964844"/>
      <use xlink:href="#LiberationSans-56" x="216.748047"/>
      <use xlink:href="#LiberationSans-46" x="283.447266"/>
     </g>
    </g>
   </g>
   <g id="PolyCollection_1">
    <defs>
     <path id="m9439a55f51" d="M 109.218052 -75.617177 
L 109.181948 -75.617177 
L 108.983545 -78.236095 
L 108.121374 -80.855012 
L 106.389484 -83.473929 
L 104.084748 -86.092847 
L 101.122925 -88.711764 
L 96.984937 -91.330682 
L 91.21043 -93.949599 
L 84.948848 -96.568516 
L 80.770356 -99.187434 
L 79.44 -101.806351 
L 79.930666 -104.425269 
L 81.266657 -107.044186 
L 82.974562 -109.663103 
L 84.726864 -112.282021 
L 86.537541 -114.900938 
L 88.301699 -117.519856 
L 89.830808 -120.138773 
L 91.205459 -122.75769 
L 92.588336 -125.376608 
L 94.107882 -127.995525 
L 95.594944 -130.614443 
L 96.941175 -133.23336 
L 98.200334 -135.852277 
L 99.374813 -138.471195 
L 100.421073 -141.090112 
L 101.412767 -143.70903 
L 102.344671 -146.327947 
L 103.191692 -148.946864 
L 103.955584 -151.565782 
L 104.600907 -154.184699 
L 105.124329 -156.803617 
L 105.664004 -159.422534 
L 106.150303 -162.041451 
L 106.521158 -164.660369 
L 106.834921 -167.279286 
L 107.100764 -169.898204 
L 107.307552 -172.517121 
L 107.476838 -175.136038 
L 107.628925 -177.754956 
L 107.80908 -180.373873 
L 107.955304 -182.992791 
L 108.042783 -185.611708 
L 108.155405 -188.230625 
L 108.274868 -190.849543 
L 108.380589 -193.46846 
L 108.448542 -196.087378 
L 108.482429 -198.706295 
L 108.526812 -201.325212 
L 108.582486 -203.94413 
L 108.630853 -206.563047 
L 108.674885 -209.181965 
L 108.742522 -211.800882 
L 108.79565 -214.419799 
L 108.821609 -217.038717 
L 108.824727 -219.657634 
L 108.823314 -222.276552 
L 108.856011 -224.895469 
L 108.885936 -227.514387 
L 108.901627 -230.133304 
L 108.920301 -232.752221 
L 108.937406 -235.371139 
L 108.958042 -237.990056 
L 108.971738 -240.608974 
L 108.984721 -243.227891 
L 109.001079 -245.846808 
L 109.009697 -248.465726 
L 109.020786 -251.084643 
L 109.03004 -253.703561 
L 109.031741 -256.322478 
L 109.045191 -258.941395 
L 109.067407 -261.560313 
L 109.07293 -264.17923 
L 109.066342 -266.798148 
L 109.07556 -269.417065 
L 109.095285 -272.035982 
L 109.097674 -274.6549 
L 109.092288 -277.273817 
L 109.09669 -279.892735 
L 109.106909 -282.511652 
L 109.114903 -285.130569 
L 109.112576 -287.749487 
L 109.117316 -290.368404 
L 109.136595 -292.987322 
L 109.146689 -295.606239 
L 109.142741 -298.225156 
L 109.145045 -300.844074 
L 109.149446 -303.462991 
L 109.149047 -306.081909 
L 109.152764 -308.700826 
L 109.16216 -311.319743 
L 109.164397 -313.938661 
L 109.160488 -316.557578 
L 109.162334 -319.176496 
L 109.166804 -321.795413 
L 109.167172 -324.41433 
L 109.170842 -327.033248 
L 109.180762 -329.652165 
L 109.193667 -332.271083 
L 109.199233 -334.89 
L 109.200767 -334.89 
L 109.200767 -334.89 
L 109.206333 -332.271083 
L 109.219238 -329.652165 
L 109.229158 -327.033248 
L 109.232828 -324.41433 
L 109.233196 -321.795413 
L 109.237666 -319.176496 
L 109.239512 -316.557578 
L 109.235603 -313.938661 
L 109.23784 -311.319743 
L 109.247236 -308.700826 
L 109.250953 -306.081909 
L 109.250554 -303.462991 
L 109.254955 -300.844074 
L 109.257259 -298.225156 
L 109.253311 -295.606239 
L 109.263405 -292.987322 
L 109.282684 -290.368404 
L 109.287424 -287.749487 
L 109.285097 -285.130569 
L 109.293091 -282.511652 
L 109.30331 -279.892735 
L 109.307712 -277.273817 
L 109.302326 -274.6549 
L 109.304715 -272.035982 
L 109.32444 -269.417065 
L 109.333658 -266.798148 
L 109.32707 -264.17923 
L 109.332593 -261.560313 
L 109.354809 -258.941395 
L 109.368259 -256.322478 
L 109.36996 -253.703561 
L 109.379214 -251.084643 
L 109.390303 -248.465726 
L 109.398921 -245.846808 
L 109.415279 -243.227891 
L 109.428262 -240.608974 
L 109.441958 -237.990056 
L 109.462594 -235.371139 
L 109.479699 -232.752221 
L 109.498373 -230.133304 
L 109.514064 -227.514387 
L 109.543989 -224.895469 
L 109.576686 -222.276552 
L 109.575273 -219.657634 
L 109.578391 -217.038717 
L 109.60435 -214.419799 
L 109.657478 -211.800882 
L 109.725115 -209.181965 
L 109.769147 -206.563047 
L 109.817514 -203.94413 
L 109.873188 -201.325212 
L 109.917571 -198.706295 
L 109.951458 -196.087378 
L 110.019411 -193.46846 
L 110.125132 -190.849543 
L 110.244595 -188.230625 
L 110.357217 -185.611708 
L 110.444696 -182.992791 
L 110.59092 -180.373873 
L 110.771075 -177.754956 
L 110.923162 -175.136038 
L 111.092448 -172.517121 
L 111.299236 -169.898204 
L 111.565079 -167.279286 
L 111.878842 -164.660369 
L 112.249697 -162.041451 
L 112.735996 -159.422534 
L 113.275671 -156.803617 
L 113.799093 -154.184699 
L 114.444416 -151.565782 
L 115.208308 -148.946864 
L 116.055329 -146.327947 
L 116.987233 -143.70903 
L 117.978927 -141.090112 
L 119.025187 -138.471195 
L 120.199666 -135.852277 
L 121.458825 -133.23336 
L 122.805056 -130.614443 
L 124.292118 -127.995525 
L 125.811664 -125.376608 
L 127.194541 -122.75769 
L 128.569192 -120.138773 
L 130.098301 -117.519856 
L 131.862459 -114.900938 
L 133.673136 -112.282021 
L 135.425438 -109.663103 
L 137.133343 -107.044186 
L 138.469334 -104.425269 
L 138.96 -101.806351 
L 137.629644 -99.187434 
L 133.451152 -96.568516 
L 127.18957 -93.949599 
L 121.415063 -91.330682 
L 117.277075 -88.711764 
L 114.315252 -86.092847 
L 112.010516 -83.473929 
L 110.278626 -80.855012 
L 109.416455 -78.236095 
L 109.218052 -75.617177 
z
" style="stroke: #313131; stroke-width: 1.75"/>
    </defs>
    <g clip-path="url(#p6d568755de)">
     <use xlink:href="#m9439a55f51" x="0" y="396" style="fill: #166a8e; stroke: #313131; stroke-width: 1.75"/>
    </g>
   </g>
   <g id="PolyCollection_2">
    <defs>
     <path id="m2d285b0fd5" d="M 183.600542 -73.441001 
L 183.599458 -73.441001 
L 183.599266 -73.929048 
L 183.599023 -74.417095 
L 183.598722 -74.905142 
L 183.598357 -75.393189 
L 183.597922 -75.881236 
L 183.597418 -76.369283 
L 183.596844 -76.85733 
L 183.596207 -77.345377 
L 183.595517 -77.833424 
L 183.594788 -78.321471 
L 183.59404 -78.809518 
L 183.593294 -79.297564 
L 183.592575 -79.785611 
L 183.591911 -80.273658 
L 183.591325 -80.761705 
L 183.590842 -81.249752 
L 183.590481 -81.737799 
L 183.590255 -82.225846 
L 183.590173 -82.713893 
L 183.590235 -83.20194 
L 183.590435 -83.689987 
L 183.59076 -84.178034 
L 183.591193 -84.666081 
L 183.591712 -85.154128 
L 183.592292 -85.642175 
L 183.592909 -86.130222 
L 183.593538 -86.618269 
L 183.594156 -87.106316 
L 183.594744 -87.594363 
L 183.595286 -88.08241 
L 183.595769 -88.570457 
L 183.596185 -89.058504 
L 183.59653 -89.546551 
L 183.596802 -90.034598 
L 183.597003 -90.522645 
L 183.597137 -91.010692 
L 183.597209 -91.498739 
L 183.597227 -91.986786 
L 183.597198 -92.474833 
L 183.597132 -92.962879 
L 183.597036 -93.450926 
L 183.596921 -93.938973 
L 183.596794 -94.42702 
L 183.596664 -94.915067 
L 183.59654 -95.403114 
L 183.596427 -95.891161 
L 183.596332 -96.379208 
L 183.596261 -96.867255 
L 183.596217 -97.355302 
L 183.596204 -97.843349 
L 183.596222 -98.331396 
L 183.596272 -98.819443 
L 183.596354 -99.30749 
L 183.596465 -99.795537 
L 183.596603 -100.283584 
L 183.596764 -100.771631 
L 183.596943 -101.259678 
L 183.597137 -101.747725 
L 183.597339 -102.235772 
L 183.597546 -102.723819 
L 183.597753 -103.211866 
L 183.597955 -103.699913 
L 183.59815 -104.18796 
L 183.598335 -104.676007 
L 183.598508 -105.164054 
L 183.598669 -105.652101 
L 183.598815 -106.140147 
L 183.598949 -106.628194 
L 183.599069 -107.116241 
L 183.599177 -107.604288 
L 183.599272 -108.092335 
L 183.599356 -108.580382 
L 183.599429 -109.068429 
L 183.599491 -109.556476 
L 183.599543 -110.044523 
L 183.599586 -110.53257 
L 183.59962 -111.020617 
L 183.599647 -111.508664 
L 183.599668 -111.996711 
L 183.599684 -112.484758 
L 183.599696 -112.972805 
L 183.599706 -113.460852 
L 183.599716 -113.948899 
L 183.599725 -114.436946 
L 183.599736 -114.924993 
L 183.599749 -115.41304 
L 183.599764 -115.901087 
L 183.59978 -116.389134 
L 183.599799 -116.877181 
L 183.599819 -117.365228 
L 183.599839 -117.853275 
L 183.59986 -118.341322 
L 183.59988 -118.829369 
L 183.599899 -119.317415 
L 183.599917 -119.805462 
L 183.599933 -120.293509 
L 183.599946 -120.781556 
L 183.599958 -121.269603 
L 183.599968 -121.75765 
L 183.600032 -121.75765 
L 183.600032 -121.75765 
L 183.600042 -121.269603 
L 183.600054 -120.781556 
L 183.600067 -120.293509 
L 183.600083 -119.805462 
L 183.600101 -119.317415 
L 183.60012 -118.829369 
L 183.60014 -118.341322 
L 183.600161 -117.853275 
L 183.600181 -117.365228 
L 183.600201 -116.877181 
L 183.60022 -116.389134 
L 183.600236 -115.901087 
L 183.600251 -115.41304 
L 183.600264 -114.924993 
L 183.600275 -114.436946 
L 183.600284 -113.948899 
L 183.600294 -113.460852 
L 183.600304 -112.972805 
L 183.600316 -112.484758 
L 183.600332 -111.996711 
L 183.600353 -111.508664 
L 183.60038 -111.020617 
L 183.600414 -110.53257 
L 183.600457 -110.044523 
L 183.600509 -109.556476 
L 183.600571 -109.068429 
L 183.600644 -108.580382 
L 183.600728 -108.092335 
L 183.600823 -107.604288 
L 183.600931 -107.116241 
L 183.601051 -106.628194 
L 183.601185 -106.140147 
L 183.601331 -105.652101 
L 183.601492 -105.164054 
L 183.601665 -104.676007 
L 183.60185 -104.18796 
L 183.602045 -103.699913 
L 183.602247 -103.211866 
L 183.602454 -102.723819 
L 183.602661 -102.235772 
L 183.602863 -101.747725 
L 183.603057 -101.259678 
L 183.603236 -100.771631 
L 183.603397 -100.283584 
L 183.603535 -99.795537 
L 183.603646 -99.30749 
L 183.603728 -98.819443 
L 183.603778 -98.331396 
L 183.603796 -97.843349 
L 183.603783 -97.355302 
L 183.603739 -96.867255 
L 183.603668 -96.379208 
L 183.603573 -95.891161 
L 183.60346 -95.403114 
L 183.603336 -94.915067 
L 183.603206 -94.42702 
L 183.603079 -93.938973 
L 183.602964 -93.450926 
L 183.602868 -92.962879 
L 183.602802 -92.474833 
L 183.602773 -91.986786 
L 183.602791 -91.498739 
L 183.602863 -91.010692 
L 183.602997 -90.522645 
L 183.603198 -90.034598 
L 183.60347 -89.546551 
L 183.603815 -89.058504 
L 183.604231 -88.570457 
L 183.604714 -88.08241 
L 183.605256 -87.594363 
L 183.605844 -87.106316 
L 183.606462 -86.618269 
L 183.607091 -86.130222 
L 183.607708 -85.642175 
L 183.608288 -85.154128 
L 183.608807 -84.666081 
L 183.60924 -84.178034 
L 183.609565 -83.689987 
L 183.609765 -83.20194 
L 183.609827 -82.713893 
L 183.609745 -82.225846 
L 183.609519 -81.737799 
L 183.609158 -81.249752 
L 183.608675 -80.761705 
L 183.608089 -80.273658 
L 183.607425 -79.785611 
L 183.606706 -79.297564 
L 183.60596 -78.809518 
L 183.605212 -78.321471 
L 183.604483 -77.833424 
L 183.603793 -77.345377 
L 183.603156 -76.85733 
L 183.602582 -76.369283 
L 183.602078 -75.881236 
L 183.601643 -75.393189 
L 183.601278 -74.905142 
L 183.600977 -74.417095 
L 183.600734 -73.929048 
L 183.600542 -73.441001 
z
" style="stroke: #313131; stroke-width: 1.75"/>
    </defs>
    <g clip-path="url(#p6d568755de)">
     <use xlink:href="#m2d285b0fd5" x="0" y="396" style="fill: #9eba81; stroke: #313131; stroke-width: 1.75"/>
    </g>
   </g>
   <g id="PolyCollection_3">
    <defs>
     <path id="mc9cdecaa48" d="M 258.000165 -70.063174 
L 257.999835 -70.063174 
L 257.999801 -70.517756 
L 257.999763 -70.972338 
L 257.999719 -71.426921 
L 257.999669 -71.881503 
L 257.999614 -72.336086 
L 257.999552 -72.790668 
L 257.999483 -73.245251 
L 257.999409 -73.699833 
L 257.999328 -74.154416 
L 257.999241 -74.608998 
L 257.999149 -75.063581 
L 257.999053 -75.518163 
L 257.998953 -75.972745 
L 257.998851 -76.427328 
L 257.998747 -76.88191 
L 257.998643 -77.336493 
L 257.998541 -77.791075 
L 257.998442 -78.245658 
L 257.998348 -78.70024 
L 257.998259 -79.154823 
L 257.998179 -79.609405 
L 257.998107 -80.063988 
L 257.998046 -80.51857 
L 257.997997 -80.973152 
L 257.99796 -81.427735 
L 257.997935 -81.882317 
L 257.997924 -82.3369 
L 257.997926 -82.791482 
L 257.99794 -83.246065 
L 257.997967 -83.700647 
L 257.998004 -84.15523 
L 257.998052 -84.609812 
L 257.998107 -85.064394 
L 257.99817 -85.518977 
L 257.998237 -85.973559 
L 257.998307 -86.428142 
L 257.998379 -86.882724 
L 257.99845 -87.337307 
L 257.998518 -87.791889 
L 257.998582 -88.246472 
L 257.998641 -88.701054 
L 257.998692 -89.155637 
L 257.998736 -89.610219 
L 257.998771 -90.064801 
L 257.998796 -90.519384 
L 257.998812 -90.973966 
L 257.998819 -91.428549 
L 257.998817 -91.883131 
L 257.998806 -92.337714 
L 257.998788 -92.792296 
L 257.998762 -93.246879 
L 257.998732 -93.701461 
L 257.998696 -94.156044 
L 257.998658 -94.610626 
L 257.998618 -95.065208 
L 257.998578 -95.519791 
L 257.99854 -95.974373 
L 257.998503 -96.428956 
L 257.99847 -96.883538 
L 257.998441 -97.338121 
L 257.998419 -97.792703 
L 257.998402 -98.247286 
L 257.998392 -98.701868 
L 257.998389 -99.15645 
L 257.998394 -99.611033 
L 257.998407 -100.065615 
L 257.998427 -100.520198 
L 257.998454 -100.97478 
L 257.998488 -101.429363 
L 257.998529 -101.883945 
L 257.998575 -102.338528 
L 257.998627 -102.79311 
L 257.998683 -103.247693 
L 257.998743 -103.702275 
L 257.998806 -104.156857 
L 257.998872 -104.61144 
L 257.998939 -105.066022 
L 257.999007 -105.520605 
L 257.999075 -105.975187 
L 257.999143 -106.42977 
L 257.99921 -106.884352 
L 257.999276 -107.338935 
L 257.999339 -107.793517 
L 257.9994 -108.2481 
L 257.999458 -108.702682 
L 257.999513 -109.157264 
L 257.999565 -109.611847 
L 257.999613 -110.066429 
L 257.999658 -110.521012 
L 257.9997 -110.975594 
L 257.999737 -111.430177 
L 257.999772 -111.884759 
L 257.999803 -112.339342 
L 257.999831 -112.793924 
L 257.999855 -113.248507 
L 257.999877 -113.703089 
L 257.999896 -114.157671 
L 257.999913 -114.612254 
L 257.999928 -115.066836 
L 258.000072 -115.066836 
L 258.000072 -115.066836 
L 258.000087 -114.612254 
L 258.000104 -114.157671 
L 258.000123 -113.703089 
L 258.000145 -113.248507 
L 258.000169 -112.793924 
L 258.000197 -112.339342 
L 258.000228 -111.884759 
L 258.000263 -111.430177 
L 258.0003 -110.975594 
L 258.000342 -110.521012 
L 258.000387 -110.066429 
L 258.000435 -109.611847 
L 258.000487 -109.157264 
L 258.000542 -108.702682 
L 258.0006 -108.2481 
L 258.000661 -107.793517 
L 258.000724 -107.338935 
L 258.00079 -106.884352 
L 258.000857 -106.42977 
L 258.000925 -105.975187 
L 258.000993 -105.520605 
L 258.001061 -105.066022 
L 258.001128 -104.61144 
L 258.001194 -104.156857 
L 258.001257 -103.702275 
L 258.001317 -103.247693 
L 258.001373 -102.79311 
L 258.001425 -102.338528 
L 258.001471 -101.883945 
L 258.001512 -101.429363 
L 258.001546 -100.97478 
L 258.001573 -100.520198 
L 258.001593 -100.065615 
L 258.001606 -99.611033 
L 258.001611 -99.15645 
L 258.001608 -98.701868 
L 258.001598 -98.247286 
L 258.001581 -97.792703 
L 258.001559 -97.338121 
L 258.00153 -96.883538 
L 258.001497 -96.428956 
L 258.00146 -95.974373 
L 258.001422 -95.519791 
L 258.001382 -95.065208 
L 258.001342 -94.610626 
L 258.001304 -94.156044 
L 258.001268 -93.701461 
L 258.001238 -93.246879 
L 258.001212 -92.792296 
L 258.001194 -92.337714 
L 258.001183 -91.883131 
L 258.001181 -91.428549 
L 258.001188 -90.973966 
L 258.001204 -90.519384 
L 258.001229 -90.064801 
L 258.001264 -89.610219 
L 258.001308 -89.155637 
L 258.001359 -88.701054 
L 258.001418 -88.246472 
L 258.001482 -87.791889 
L 258.00155 -87.337307 
L 258.001621 -86.882724 
L 258.001693 -86.428142 
L 258.001763 -85.973559 
L 258.00183 -85.518977 
L 258.001893 -85.064394 
L 258.001948 -84.609812 
L 258.001996 -84.15523 
L 258.002033 -83.700647 
L 258.00206 -83.246065 
L 258.002074 -82.791482 
L 258.002076 -82.3369 
L 258.002065 -81.882317 
L 258.00204 -81.427735 
L 258.002003 -80.973152 
L 258.001954 -80.51857 
L 258.001893 -80.063988 
L 258.001821 -79.609405 
L 258.001741 -79.154823 
L 258.001652 -78.70024 
L 258.001558 -78.245658 
L 258.001459 -77.791075 
L 258.001357 -77.336493 
L 258.001253 -76.88191 
L 258.001149 -76.427328 
L 258.001047 -75.972745 
L 258.000947 -75.518163 
L 258.000851 -75.063581 
L 258.000759 -74.608998 
L 258.000672 -74.154416 
L 258.000591 -73.699833 
L 258.000517 -73.245251 
L 258.000448 -72.790668 
L 258.000386 -72.336086 
L 258.000331 -71.881503 
L 258.000281 -71.426921 
L 258.000237 -70.972338 
L 258.000199 -70.517756 
L 258.000165 -70.063174 
z
" style="stroke: #313131; stroke-width: 1.75"/>
    </defs>
    <g clip-path="url(#p6d568755de)">
     <use xlink:href="#mc9cdecaa48" x="0" y="396" style="fill: #b1221c; stroke: #313131; stroke-width: 1.75"/>
    </g>
   </g>
   <g id="PolyCollection_4">
    <defs>
     <path id="m52974139db" d="M 332.400139 -65.427515 
L 332.399861 -65.427515 
L 332.399834 -66.122635 
L 332.399804 -66.817755 
L 332.39977 -67.512875 
L 332.399732 -68.207995 
L 332.399689 -68.903114 
L 332.399643 -69.598234 
L 332.399593 -70.293354 
L 332.399539 -70.988474 
L 332.399483 -71.683593 
L 332.399423 -72.378713 
L 332.399361 -73.073833 
L 332.399297 -73.768953 
L 332.399233 -74.464072 
L 332.399169 -75.159192 
L 332.399107 -75.854312 
L 332.399046 -76.549432 
L 332.398989 -77.244551 
L 332.398936 -77.939671 
L 332.398888 -78.634791 
L 332.398847 -79.329911 
L 332.398812 -80.025031 
L 332.398786 -80.72015 
L 332.398767 -81.41527 
L 332.398756 -82.11039 
L 332.398754 -82.80551 
L 332.398761 -83.500629 
L 332.398775 -84.195749 
L 332.398798 -84.890869 
L 332.398827 -85.585989 
L 332.398863 -86.281108 
L 332.398905 -86.976228 
L 332.39895 -87.671348 
L 332.399 -88.366468 
L 332.399052 -89.061587 
L 332.399106 -89.756707 
L 332.39916 -90.451827 
L 332.399214 -91.146947 
L 332.399268 -91.842067 
L 332.399319 -92.537186 
L 332.399369 -93.232306 
L 332.399416 -93.927426 
L 332.39946 -94.622546 
L 332.399501 -95.317665 
L 332.399539 -96.012785 
L 332.399574 -96.707905 
L 332.399606 -97.403025 
L 332.399634 -98.098144 
L 332.39966 -98.793264 
L 332.399684 -99.488384 
L 332.399705 -100.183504 
L 332.399723 -100.878623 
L 332.39974 -101.573743 
L 332.399755 -102.268863 
L 332.399767 -102.963983 
L 332.399779 -103.659103 
L 332.399789 -104.354222 
L 332.399797 -105.049342 
L 332.399804 -105.744462 
L 332.39981 -106.439582 
L 332.399814 -107.134701 
L 332.399818 -107.829821 
L 332.39982 -108.524941 
L 332.399821 -109.220061 
L 332.399822 -109.91518 
L 332.399821 -110.6103 
L 332.399821 -111.30542 
L 332.399819 -112.00054 
L 332.399818 -112.695659 
L 332.399816 -113.390779 
L 332.399814 -114.085899 
L 332.399813 -114.781019 
L 332.399812 -115.476139 
L 332.399811 -116.171258 
L 332.399812 -116.866378 
L 332.399813 -117.561498 
L 332.399815 -118.256618 
L 332.399817 -118.951737 
L 332.399821 -119.646857 
L 332.399826 -120.341977 
L 332.399832 -121.037097 
L 332.399838 -121.732216 
L 332.399845 -122.427336 
L 332.399853 -123.122456 
L 332.399862 -123.817576 
L 332.399871 -124.512695 
L 332.39988 -125.207815 
L 332.399889 -125.902935 
L 332.399899 -126.598055 
L 332.399908 -127.293175 
L 332.399917 -127.988294 
L 332.399926 -128.683414 
L 332.399934 -129.378534 
L 332.399942 -130.073654 
L 332.399949 -130.768773 
L 332.399955 -131.463893 
L 332.399961 -132.159013 
L 332.399967 -132.854133 
L 332.399972 -133.549252 
L 332.399976 -134.244372 
L 332.400024 -134.244372 
L 332.400024 -134.244372 
L 332.400028 -133.549252 
L 332.400033 -132.854133 
L 332.400039 -132.159013 
L 332.400045 -131.463893 
L 332.400051 -130.768773 
L 332.400058 -130.073654 
L 332.400066 -129.378534 
L 332.400074 -128.683414 
L 332.400083 -127.988294 
L 332.400092 -127.293175 
L 332.400101 -126.598055 
L 332.400111 -125.902935 
L 332.40012 -125.207815 
L 332.400129 -124.512695 
L 332.400138 -123.817576 
L 332.400147 -123.122456 
L 332.400155 -122.427336 
L 332.400162 -121.732216 
L 332.400168 -121.037097 
L 332.400174 -120.341977 
L 332.400179 -119.646857 
L 332.400183 -118.951737 
L 332.400185 -118.256618 
L 332.400187 -117.561498 
L 332.400188 -116.866378 
L 332.400189 -116.171258 
L 332.400188 -115.476139 
L 332.400187 -114.781019 
L 332.400186 -114.085899 
L 332.400184 -113.390779 
L 332.400182 -112.695659 
L 332.400181 -112.00054 
L 332.400179 -111.30542 
L 332.400179 -110.6103 
L 332.400178 -109.91518 
L 332.400179 -109.220061 
L 332.40018 -108.524941 
L 332.400182 -107.829821 
L 332.400186 -107.134701 
L 332.40019 -106.439582 
L 332.400196 -105.744462 
L 332.400203 -105.049342 
L 332.400211 -104.354222 
L 332.400221 -103.659103 
L 332.400233 -102.963983 
L 332.400245 -102.268863 
L 332.40026 -101.573743 
L 332.400277 -100.878623 
L 332.400295 -100.183504 
L 332.400316 -99.488384 
L 332.40034 -98.793264 
L 332.400366 -98.098144 
L 332.400394 -97.403025 
L 332.400426 -96.707905 
L 332.400461 -96.012785 
L 332.400499 -95.317665 
L 332.40054 -94.622546 
L 332.400584 -93.927426 
L 332.400631 -93.232306 
L 332.400681 -92.537186 
L 332.400732 -91.842067 
L 332.400786 -91.146947 
L 332.40084 -90.451827 
L 332.400894 -89.756707 
L 332.400948 -89.061587 
L 332.401 -88.366468 
L 332.40105 -87.671348 
L 332.401095 -86.976228 
L 332.401137 -86.281108 
L 332.401173 -85.585989 
L 332.401202 -84.890869 
L 332.401225 -84.195749 
L 332.401239 -83.500629 
L 332.401246 -82.80551 
L 332.401244 -82.11039 
L 332.401233 -81.41527 
L 332.401214 -80.72015 
L 332.401188 -80.025031 
L 332.401153 -79.329911 
L 332.401112 -78.634791 
L 332.401064 -77.939671 
L 332.401011 -77.244551 
L 332.400954 -76.549432 
L 332.400893 -75.854312 
L 332.400831 -75.159192 
L 332.400767 -74.464072 
L 332.400703 -73.768953 
L 332.400639 -73.073833 
L 332.400577 -72.378713 
L 332.400517 -71.683593 
L 332.400461 -70.988474 
L 332.400407 -70.293354 
L 332.400357 -69.598234 
L 332.400311 -68.903114 
L 332.400268 -68.207995 
L 332.40023 -67.512875 
L 332.400196 -66.817755 
L 332.400166 -66.122635 
L 332.400139 -65.427515 
z
" style="stroke: #313131; stroke-width: 1.75"/>
    </defs>
    <g clip-path="url(#p6d568755de)">
     <use xlink:href="#m52974139db" x="0" y="396" style="fill: #911657; stroke: #313131; stroke-width: 1.75"/>
    </g>
   </g>
   <g id="PolyCollection_5">
    <defs>
     <path id="mf6849ce645" d="M 406.800114 -63.09 
L 406.799886 -63.09 
L 406.799868 -63.750257 
L 406.799849 -64.410513 
L 406.799827 -65.07077 
L 406.799803 -65.731027 
L 406.799778 -66.391283 
L 406.79975 -67.05154 
L 406.79972 -67.711797 
L 406.799687 -68.372053 
L 406.799654 -69.03231 
L 406.799618 -69.692567 
L 406.79958 -70.352823 
L 406.799542 -71.01308 
L 406.799502 -71.673337 
L 406.799461 -72.333593 
L 406.799421 -72.99385 
L 406.79938 -73.654107 
L 406.799339 -74.314364 
L 406.799299 -74.97462 
L 406.799261 -75.634877 
L 406.799224 -76.295134 
L 406.79919 -76.95539 
L 406.799158 -77.615647 
L 406.799129 -78.275904 
L 406.799103 -78.93616 
L 406.799081 -79.596417 
L 406.799063 -80.256674 
L 406.799048 -80.91693 
L 406.799039 -81.577187 
L 406.799033 -82.237444 
L 406.799031 -82.8977 
L 406.799034 -83.557957 
L 406.79904 -84.218214 
L 406.79905 -84.87847 
L 406.799063 -85.538727 
L 406.79908 -86.198984 
L 406.799098 -86.85924 
L 406.799119 -87.519497 
L 406.799141 -88.179754 
L 406.799165 -88.84001 
L 406.799189 -89.500267 
L 406.799212 -90.160524 
L 406.799236 -90.82078 
L 406.799258 -91.481037 
L 406.799279 -92.141294 
L 406.799298 -92.80155 
L 406.799315 -93.461807 
L 406.79933 -94.122064 
L 406.799342 -94.78232 
L 406.799351 -95.442577 
L 406.799358 -96.102834 
L 406.799362 -96.763091 
L 406.799364 -97.423347 
L 406.799363 -98.083604 
L 406.79936 -98.743861 
L 406.799355 -99.404117 
L 406.799349 -100.064374 
L 406.799341 -100.724631 
L 406.799333 -101.384887 
L 406.799324 -102.045144 
L 406.799315 -102.705401 
L 406.799307 -103.365657 
L 406.799299 -104.025914 
L 406.799293 -104.686171 
L 406.799288 -105.346427 
L 406.799285 -106.006684 
L 406.799284 -106.666941 
L 406.799285 -107.327197 
L 406.799289 -107.987454 
L 406.799296 -108.647711 
L 406.799305 -109.307967 
L 406.799316 -109.968224 
L 406.799331 -110.628481 
L 406.799347 -111.288737 
L 406.799366 -111.948994 
L 406.799388 -112.609251 
L 406.799411 -113.269507 
L 406.799436 -113.929764 
L 406.799462 -114.590021 
L 406.799489 -115.250277 
L 406.799518 -115.910534 
L 406.799546 -116.570791 
L 406.799576 -117.231047 
L 406.799605 -117.891304 
L 406.799634 -118.551561 
L 406.799662 -119.211818 
L 406.79969 -119.872074 
L 406.799716 -120.532331 
L 406.799742 -121.192588 
L 406.799767 -121.852844 
L 406.79979 -122.513101 
L 406.799811 -123.173358 
L 406.799832 -123.833614 
L 406.799851 -124.493871 
L 406.799868 -125.154128 
L 406.799884 -125.814384 
L 406.799899 -126.474641 
L 406.799912 -127.134898 
L 406.799923 -127.795154 
L 406.799934 -128.455411 
L 406.800066 -128.455411 
L 406.800066 -128.455411 
L 406.800077 -127.795154 
L 406.800088 -127.134898 
L 406.800101 -126.474641 
L 406.800116 -125.814384 
L 406.800132 -125.154128 
L 406.800149 -124.493871 
L 406.800168 -123.833614 
L 406.800189 -123.173358 
L 406.80021 -122.513101 
L 406.800233 -121.852844 
L 406.800258 -121.192588 
L 406.800284 -120.532331 
L 406.80031 -119.872074 
L 406.800338 -119.211818 
L 406.800366 -118.551561 
L 406.800395 -117.891304 
L 406.800424 -117.231047 
L 406.800454 -116.570791 
L 406.800482 -115.910534 
L 406.800511 -115.250277 
L 406.800538 -114.590021 
L 406.800564 -113.929764 
L 406.800589 -113.269507 
L 406.800612 -112.609251 
L 406.800634 -111.948994 
L 406.800653 -111.288737 
L 406.800669 -110.628481 
L 406.800684 -109.968224 
L 406.800695 -109.307967 
L 406.800704 -108.647711 
L 406.800711 -107.987454 
L 406.800715 -107.327197 
L 406.800716 -106.666941 
L 406.800715 -106.006684 
L 406.800712 -105.346427 
L 406.800707 -104.686171 
L 406.800701 -104.025914 
L 406.800693 -103.365657 
L 406.800685 -102.705401 
L 406.800676 -102.045144 
L 406.800667 -101.384887 
L 406.800659 -100.724631 
L 406.800651 -100.064374 
L 406.800645 -99.404117 
L 406.80064 -98.743861 
L 406.800637 -98.083604 
L 406.800636 -97.423347 
L 406.800638 -96.763091 
L 406.800642 -96.102834 
L 406.800649 -95.442577 
L 406.800658 -94.78232 
L 406.80067 -94.122064 
L 406.800685 -93.461807 
L 406.800702 -92.80155 
L 406.800721 -92.141294 
L 406.800742 -91.481037 
L 406.800764 -90.82078 
L 406.800788 -90.160524 
L 406.800811 -89.500267 
L 406.800835 -88.84001 
L 406.800859 -88.179754 
L 406.800881 -87.519497 
L 406.800902 -86.85924 
L 406.80092 -86.198984 
L 406.800937 -85.538727 
L 406.80095 -84.87847 
L 406.80096 -84.218214 
L 406.800966 -83.557957 
L 406.800969 -82.8977 
L 406.800967 -82.237444 
L 406.800961 -81.577187 
L 406.800952 -80.91693 
L 406.800937 -80.256674 
L 406.800919 -79.596417 
L 406.800897 -78.93616 
L 406.800871 -78.275904 
L 406.800842 -77.615647 
L 406.80081 -76.95539 
L 406.800776 -76.295134 
L 406.800739 -75.634877 
L 406.800701 -74.97462 
L 406.800661 -74.314364 
L 406.80062 -73.654107 
L 406.800579 -72.99385 
L 406.800539 -72.333593 
L 406.800498 -71.673337 
L 406.800458 -71.01308 
L 406.80042 -70.352823 
L 406.800382 -69.692567 
L 406.800346 -69.03231 
L 406.800313 -68.372053 
L 406.80028 -67.711797 
L 406.80025 -67.05154 
L 406.800222 -66.391283 
L 406.800197 -65.731027 
L 406.800173 -65.07077 
L 406.800151 -64.410513 
L 406.800132 -63.750257 
L 406.800114 -63.09 
z
" style="stroke: #313131; stroke-width: 1.75"/>
    </defs>
    <g clip-path="url(#p6d568755de)">
     <use xlink:href="#mf6849ce645" x="0" y="396" style="fill: #bcb11d; stroke: #313131; stroke-width: 1.75"/>
    </g>
   </g>
   <g id="line2d_19">
    <path d="M 109.2 315.71038 
L 109.2 222.846759 
" clip-path="url(#p6d568755de)" style="fill: none; stroke: #313131; stroke-width: 1.75; stroke-linecap: round"/>
   </g>
   <g id="line2d_20">
    <path d="M 109.2 293.829765 
L 109.2 265.436495 
" clip-path="url(#p6d568755de)" style="fill: none; stroke: #313131; stroke-width: 5.25; stroke-linecap: round"/>
   </g>
   <g id="line2d_21">
    <path d="M 183.6 315.456035 
L 183.6 281.345313 
" clip-path="url(#p6d568755de)" style="fill: none; stroke: #313131; stroke-width: 1.75; stroke-linecap: round"/>
   </g>
   <g id="line2d_22">
    <path d="M 183.6 313.811987 
L 183.6 300.44888 
" clip-path="url(#p6d568755de)" style="fill: none; stroke: #313131; stroke-width: 5.25; stroke-linecap: round"/>
   </g>
   <g id="line2d_23">
    <path d="M 258 315.206717 
L 258 291.663273 
" clip-path="url(#p6d568755de)" style="fill: none; stroke: #313131; stroke-width: 1.75; stroke-linecap: round"/>
   </g>
   <g id="line2d_24">
    <path d="M 258 313.910546 
L 258 297.585529 
" clip-path="url(#p6d568755de)" style="fill: none; stroke: #313131; stroke-width: 5.25; stroke-linecap: round"/>
   </g>
   <g id="line2d_25">
    <path d="M 332.4 314.430771 
L 332.4 312.479463 
" clip-path="url(#p6d568755de)" style="fill: none; stroke: #313131; stroke-width: 1.75; stroke-linecap: round"/>
   </g>
   <g id="line2d_26">
    <path d="M 332.4 314.093465 
L 332.4 312.479463 
" clip-path="url(#p6d568755de)" style="fill: none; stroke: #313131; stroke-width: 5.25; stroke-linecap: round"/>
   </g>
   <g id="line2d_27">
    <path d="M 406.8 314.308005 
L 406.8 286.146584 
" clip-path="url(#p6d568755de)" style="fill: none; stroke: #313131; stroke-width: 1.75; stroke-linecap: round"/>
   </g>
   <g id="line2d_28">
    <path d="M 406.8 313.717487 
L 406.8 289.325151 
" clip-path="url(#p6d568755de)" style="fill: none; stroke: #313131; stroke-width: 5.25; stroke-linecap: round"/>
   </g>
   <g id="line2d_29">
    <path d="M 481.199862 314.891491 
L 481.200138 314.891491 
" clip-path="url(#p6d568755de)" style="fill: none; stroke: #313131; stroke-width: 1.75; stroke-linecap: round"/>
   </g>
   <g id="line2d_30">
    <path d="M 72 291.768495 
L 518.4 291.768495 
" clip-path="url(#p6d568755de)" style="fill: none; stroke-dasharray: 6.475,2.8; stroke-dashoffset: 0; stroke: #ff0000; stroke-width: 1.75"/>
   </g>
   <g id="patch_3">
    <path d="M 72 346.5 
L 72 47.52 
" style="fill: none; stroke: #cccccc; stroke-width: 1.25; stroke-linejoin: miter; stroke-linecap: square"/>
   </g>
   <g id="patch_4">
    <path d="M 518.4 346.5 
L 518.4 47.52 
" style="fill: none; stroke: #cccccc; stroke-width: 1.25; stroke-linejoin: miter; stroke-linecap: square"/>
   </g>
   <g id="patch_5">
    <path d="M 72 346.5 
L 518.4 346.5 
" style="fill: none; stroke: #cccccc; stroke-width: 1.25; stroke-linejoin: miter; stroke-linecap: square"/>
   </g>
   <g id="patch_6">
    <path d="M 72 47.52 
L 518.4 47.52 
" style="fill: none; stroke: #cccccc; stroke-width: 1.25; stroke-linejoin: miter; stroke-linecap: square"/>
   </g>
   <g id="PathCollection_1">
    <defs>
     <path id="m607ae10675" d="M 0 1.75 
C 0.464105 1.75 0.909265 1.565609 1.237437 1.237437 
C 1.565609 0.909265 1.75 0.464105 1.75 0 
C 1.75 -0.464105 1.565609 -0.909265 1.237437 -1.237437 
C 0.909265 -1.565609 0.464105 -1.75 0 -1.75 
C -0.464105 -1.75 -0.909265 -1.565609 -1.237437 -1.237437 
C -1.565609 -0.909265 -1.75 -0.464105 -1.75 0 
C -1.75 0.464105 -1.565609 0.909265 -1.237437 1.237437 
C -0.909265 1.565609 -0.464105 1.75 0 1.75 
z
" style="stroke: #313131; stroke-width: 0.3"/>
    </defs>
    <g clip-path="url(#p6d568755de)">
     <use xlink:href="#m607ae10675" x="109.2" y="282.408254" style="fill: #ffffff; stroke: #313131; stroke-width: 0.3"/>
    </g>
   </g>
   <g id="PathCollection_2">
    <g clip-path="url(#p6d568755de)">
     <use xlink:href="#m607ae10675" x="183.6" y="312.100868" style="fill: #ffffff; stroke: #313131; stroke-width: 0.3"/>
    </g>
   </g>
   <g id="PathCollection_3">
    <g clip-path="url(#p6d568755de)">
     <use xlink:href="#m607ae10675" x="258" y="311.946369" style="fill: #ffffff; stroke: #313131; stroke-width: 0.3"/>
    </g>
   </g>
   <g id="PathCollection_4">
    <g clip-path="url(#p6d568755de)">
     <use xlink:href="#m607ae10675" x="332.4" y="313.357476" style="fill: #ffffff; stroke: #313131; stroke-width: 0.3"/>
    </g>
   </g>
   <g id="PathCollection_5">
    <g clip-path="url(#p6d568755de)">
     <use xlink:href="#m607ae10675" x="406.8" y="313.311988" style="fill: #ffffff; stroke: #313131; stroke-width: 0.3"/>
    </g>
   </g>
   <g id="text_15">
    <!-- VE / VF against Area -->
    <g style="fill: #262626" transform="translate(239.505 41.52)scale(0.12 -0.12)">
     <defs>
      <path id="LiberationSans-67" d="M 1713 -1328 
Q 1159 -1328 831 -1111 
Q 503 -894 409 -494 
L 975 -413 
Q 1031 -647 1223 -773 
Q 1416 -900 1728 -900 
Q 2569 -900 2569 84 
L 2569 628 
L 2563 628 
Q 2403 303 2125 139 
Q 1847 -25 1475 -25 
Q 853 -25 561 387 
Q 269 800 269 1684 
Q 269 2581 583 3007 
Q 897 3434 1538 3434 
Q 1897 3434 2161 3270 
Q 2425 3106 2569 2803 
L 2575 2803 
Q 2575 2897 2587 3128 
Q 2600 3359 2613 3381 
L 3147 3381 
Q 3128 3213 3128 2681 
L 3128 97 
Q 3128 -1328 1713 -1328 
z
M 2569 1691 
Q 2569 2103 2456 2401 
Q 2344 2700 2139 2858 
Q 1934 3016 1675 3016 
Q 1244 3016 1047 2703 
Q 850 2391 850 1691 
Q 850 997 1034 694 
Q 1219 391 1666 391 
Q 1931 391 2137 547 
Q 2344 703 2456 995 
Q 2569 1288 2569 1691 
z
" transform="scale(0.015625)"/>
      <path id="LiberationSans-69" d="M 428 4100 
L 428 4638 
L 991 4638 
L 991 4100 
L 428 4100 
z
M 428 0 
L 428 3381 
L 991 3381 
L 991 0 
L 428 0 
z
" transform="scale(0.015625)"/>
      <path id="LiberationSans-6e" d="M 2578 0 
L 2578 2144 
Q 2578 2478 2512 2662 
Q 2447 2847 2303 2928 
Q 2159 3009 1881 3009 
Q 1475 3009 1240 2731 
Q 1006 2453 1006 1959 
L 1006 0 
L 444 0 
L 444 2659 
Q 444 3250 425 3381 
L 956 3381 
Q 959 3366 962 3297 
Q 966 3228 970 3139 
Q 975 3050 981 2803 
L 991 2803 
Q 1184 3153 1439 3298 
Q 1694 3444 2072 3444 
Q 2628 3444 2886 3167 
Q 3144 2891 3144 2253 
L 3144 0 
L 2578 0 
z
" transform="scale(0.015625)"/>
      <path id="LiberationSans-73" d="M 2969 934 
Q 2969 456 2608 196 
Q 2247 -63 1597 -63 
Q 966 -63 623 145 
Q 281 353 178 794 
L 675 891 
Q 747 619 972 492 
Q 1197 366 1597 366 
Q 2025 366 2223 497 
Q 2422 628 2422 891 
Q 2422 1091 2284 1216 
Q 2147 1341 1841 1422 
L 1438 1528 
Q 953 1653 748 1773 
Q 544 1894 428 2066 
Q 313 2238 313 2488 
Q 313 2950 642 3192 
Q 972 3434 1603 3434 
Q 2163 3434 2492 3237 
Q 2822 3041 2909 2606 
L 2403 2544 
Q 2356 2769 2151 2889 
Q 1947 3009 1603 3009 
Q 1222 3009 1040 2893 
Q 859 2778 859 2544 
Q 859 2400 934 2306 
Q 1009 2213 1156 2147 
Q 1303 2081 1775 1966 
Q 2222 1853 2419 1758 
Q 2616 1663 2730 1547 
Q 2844 1431 2906 1279 
Q 2969 1128 2969 934 
z
" transform="scale(0.015625)"/>
      <path id="LiberationSans-74" d="M 1731 25 
Q 1453 -50 1163 -50 
Q 488 -50 488 716 
L 488 2972 
L 97 2972 
L 97 3381 
L 509 3381 
L 675 4138 
L 1050 4138 
L 1050 3381 
L 1675 3381 
L 1675 2972 
L 1050 2972 
L 1050 838 
Q 1050 594 1129 495 
Q 1209 397 1406 397 
Q 1519 397 1731 441 
L 1731 25 
z
" transform="scale(0.015625)"/>
     </defs>
     <use xlink:href="#LiberationSans-56"/>
     <use xlink:href="#LiberationSans-45" x="66.699219"/>
     <use xlink:href="#LiberationSans-20" x="133.398438"/>
     <use xlink:href="#LiberationSans-2f" x="161.181641"/>
     <use xlink:href="#LiberationSans-20" x="188.964844"/>
     <use xlink:href="#LiberationSans-56" x="216.748047"/>
     <use xlink:href="#LiberationSans-46" x="283.447266"/>
     <use xlink:href="#LiberationSans-20" x="344.53125"/>
     <use xlink:href="#LiberationSans-61" x="372.314453"/>
     <use xlink:href="#LiberationSans-67" x="427.929688"/>
     <use xlink:href="#LiberationSans-61" x="483.544922"/>
     <use xlink:href="#LiberationSans-69" x="539.160156"/>
     <use xlink:href="#LiberationSans-6e" x="561.376953"/>
     <use xlink:href="#LiberationSans-73" x="616.992188"/>
     <use xlink:href="#LiberationSans-74" x="666.992188"/>
     <use xlink:href="#LiberationSans-20" x="694.775391"/>
     <use xlink:href="#LiberationSans-41" x="717.058594"/>
     <use xlink:href="#LiberationSans-72" x="783.757812"/>
     <use xlink:href="#LiberationSans-65" x="817.058594"/>
     <use xlink:href="#LiberationSans-61" x="872.673828"/>
    </g>
   </g>
  </g>
 </g>
 <defs>
  <clipPath id="p6d568755de">
   <rect x="72" y="47.52" width="446.4" height="298.98"/>
  </clipPath>
 </defs>
</svg>
