<?xml version="1.0" encoding="utf-8" standalone="no"?>
<!DOCTYPE svg PUBLIC "-//W3C//DTD SVG 1.1//EN"
  "http://www.w3.org/Graphics/SVG/1.1/DTD/svg11.dtd">
<svg xmlns:xlink="http://www.w3.org/1999/xlink" width="576pt" height="396pt" viewBox="0 0 576 396" xmlns="http://www.w3.org/2000/svg" version="1.1">
 <metadata>
  <rdf:RDF xmlns:dc="http://purl.org/dc/elements/1.1/" xmlns:cc="http://creativecommons.org/ns#" xmlns:rdf="http://www.w3.org/1999/02/22-rdf-syntax-ns#">
   <cc:Work>
    <dc:type rdf:resource="http://purl.org/dc/dcmitype/StillImage"/>
    <dc:date>2022-10-31T10:07:15.666948</dc:date>
    <dc:format>image/svg+xml</dc:format>
    <dc:creator>
     <cc:Agent>
      <dc:title>Matplotlib v3.5.0, https://matplotlib.org/</dc:title>
     </cc:Agent>
    </dc:creator>
   </cc:Work>
  </rdf:RDF>
 </metadata>
 <defs>
  <style type="text/css">*{stroke-linejoin: round; stroke-linecap: butt}</style>
 </defs>
 <g id="figure_1">
  <g id="patch_1">
   <path d="M 0 396 
L 576 396 
L 576 0 
L 0 0 
z
" style="fill: #ffffff"/>
  </g>
  <g id="axes_1">
   <g id="patch_2">
    <path d="M 72 346.5 
L 518.4 346.5 
L 518.4 47.52 
L 72 47.52 
z
" style="fill: #ffffff"/>
   </g>
   <g id="matplotlib.axis_1">
    <g id="xtick_1">
     <g id="line2d_1"/>
     <g id="text_1">
      <!-- 0-500 -->
      <g style="fill: #262626" transform="translate(87.113281 360.746875)scale(0.1 -0.1)">
       <defs>
        <path id="LiberationSans-30" d="M 3309 2203 
Q 3309 1100 2920 518 
Q 2531 -63 1772 -63 
Q 1013 -63 631 515 
Q 250 1094 250 2203 
Q 250 3338 620 3903 
Q 991 4469 1791 4469 
Q 2569 4469 2939 3897 
Q 3309 3325 3309 2203 
z
M 2738 2203 
Q 2738 3156 2517 3584 
Q 2297 4013 1791 4013 
Q 1272 4013 1045 3591 
Q 819 3169 819 2203 
Q 819 1266 1048 831 
Q 1278 397 1778 397 
Q 2275 397 2506 840 
Q 2738 1284 2738 2203 
z
" transform="scale(0.015625)"/>
        <path id="LiberationSans-2d" d="M 284 1450 
L 284 1950 
L 1847 1950 
L 1847 1450 
L 284 1450 
z
" transform="scale(0.015625)"/>
        <path id="LiberationSans-35" d="M 3291 1434 
Q 3291 738 2877 337 
Q 2463 -63 1728 -63 
Q 1113 -63 734 206 
Q 356 475 256 984 
L 825 1050 
Q 1003 397 1741 397 
Q 2194 397 2450 670 
Q 2706 944 2706 1422 
Q 2706 1838 2448 2094 
Q 2191 2350 1753 2350 
Q 1525 2350 1328 2278 
Q 1131 2206 934 2034 
L 384 2034 
L 531 4403 
L 3034 4403 
L 3034 3925 
L 1044 3925 
L 959 2528 
Q 1325 2809 1869 2809 
Q 2519 2809 2905 2428 
Q 3291 2047 3291 1434 
z
" transform="scale(0.015625)"/>
       </defs>
       <use xlink:href="#LiberationSans-30"/>
       <use xlink:href="#LiberationSans-2d" x="55.615234"/>
       <use xlink:href="#LiberationSans-35" x="88.916016"/>
       <use xlink:href="#LiberationSans-30" x="144.53125"/>
       <use xlink:href="#LiberationSans-30" x="200.146484"/>
      </g>
     </g>
    </g>
    <g id="xtick_2">
     <g id="line2d_2"/>
     <g id="text_2">
      <!-- 500-1000 -->
      <g style="fill: #262626" transform="translate(134.571875 360.746875)scale(0.1 -0.1)">
       <defs>
        <path id="LiberationSans-31" d="M 488 0 
L 488 478 
L 1609 478 
L 1609 3866 
L 616 3156 
L 616 3688 
L 1656 4403 
L 2175 4403 
L 2175 478 
L 3247 478 
L 3247 0 
L 488 0 
z
" transform="scale(0.015625)"/>
       </defs>
       <use xlink:href="#LiberationSans-35"/>
       <use xlink:href="#LiberationSans-30" x="55.615234"/>
       <use xlink:href="#LiberationSans-30" x="111.230469"/>
       <use xlink:href="#LiberationSans-2d" x="166.845703"/>
       <use xlink:href="#LiberationSans-31" x="200.146484"/>
       <use xlink:href="#LiberationSans-30" x="255.761719"/>
       <use xlink:href="#LiberationSans-30" x="311.376953"/>
       <use xlink:href="#LiberationSans-30" x="366.992188"/>
      </g>
     </g>
    </g>
    <g id="xtick_3">
     <g id="line2d_3"/>
     <g id="text_3">
      <!-- 1000-1500 -->
      <g style="fill: #262626" transform="translate(187.591406 360.746875)scale(0.1 -0.1)">
       <use xlink:href="#LiberationSans-31"/>
       <use xlink:href="#LiberationSans-30" x="55.615234"/>
       <use xlink:href="#LiberationSans-30" x="111.230469"/>
       <use xlink:href="#LiberationSans-30" x="166.845703"/>
       <use xlink:href="#LiberationSans-2d" x="222.460938"/>
       <use xlink:href="#LiberationSans-31" x="255.761719"/>
       <use xlink:href="#LiberationSans-35" x="311.376953"/>
       <use xlink:href="#LiberationSans-30" x="366.992188"/>
       <use xlink:href="#LiberationSans-30" x="422.607422"/>
      </g>
     </g>
    </g>
    <g id="xtick_4">
     <g id="line2d_4"/>
     <g id="text_4">
      <!-- 1500-2000 -->
      <g style="fill: #262626" transform="translate(243.391406 360.746875)scale(0.1 -0.1)">
       <defs>
        <path id="LiberationSans-32" d="M 322 0 
L 322 397 
Q 481 763 711 1042 
Q 941 1322 1194 1548 
Q 1447 1775 1695 1969 
Q 1944 2163 2144 2356 
Q 2344 2550 2467 2762 
Q 2591 2975 2591 3244 
Q 2591 3606 2378 3806 
Q 2166 4006 1788 4006 
Q 1428 4006 1195 3811 
Q 963 3616 922 3263 
L 347 3316 
Q 409 3844 795 4156 
Q 1181 4469 1788 4469 
Q 2453 4469 2811 4155 
Q 3169 3841 3169 3263 
Q 3169 3006 3051 2753 
Q 2934 2500 2703 2247 
Q 2472 1994 1819 1463 
Q 1459 1169 1246 933 
Q 1034 697 941 478 
L 3238 478 
L 3238 0 
L 322 0 
z
" transform="scale(0.015625)"/>
       </defs>
       <use xlink:href="#LiberationSans-31"/>
       <use xlink:href="#LiberationSans-35" x="55.615234"/>
       <use xlink:href="#LiberationSans-30" x="111.230469"/>
       <use xlink:href="#LiberationSans-30" x="166.845703"/>
       <use xlink:href="#LiberationSans-2d" x="222.460938"/>
       <use xlink:href="#LiberationSans-32" x="255.761719"/>
       <use xlink:href="#LiberationSans-30" x="311.376953"/>
       <use xlink:href="#LiberationSans-30" x="366.992188"/>
       <use xlink:href="#LiberationSans-30" x="422.607422"/>
      </g>
     </g>
    </g>
    <g id="xtick_5">
     <g id="line2d_5"/>
     <g id="text_5">
      <!-- 2000-2500 -->
      <g style="fill: #262626" transform="translate(299.191406 360.746875)scale(0.1 -0.1)">
       <use xlink:href="#LiberationSans-32"/>
       <use xlink:href="#LiberationSans-30" x="55.615234"/>
       <use xlink:href="#LiberationSans-30" x="111.230469"/>
       <use xlink:href="#LiberationSans-30" x="166.845703"/>
       <use xlink:href="#LiberationSans-2d" x="222.460938"/>
       <use xlink:href="#LiberationSans-32" x="255.761719"/>
       <use xlink:href="#LiberationSans-35" x="311.376953"/>
       <use xlink:href="#LiberationSans-30" x="366.992188"/>
       <use xlink:href="#LiberationSans-30" x="422.607422"/>
      </g>
     </g>
    </g>
    <g id="xtick_6">
     <g id="line2d_6"/>
     <g id="text_6">
      <!-- 2500-3000 -->
      <g style="fill: #262626" transform="translate(354.991406 360.746875)scale(0.1 -0.1)">
       <defs>
        <path id="LiberationSans-33" d="M 3278 1216 
Q 3278 606 2890 271 
Q 2503 -63 1784 -63 
Q 1116 -63 717 239 
Q 319 541 244 1131 
L 825 1184 
Q 938 403 1784 403 
Q 2209 403 2451 612 
Q 2694 822 2694 1234 
Q 2694 1594 2417 1795 
Q 2141 1997 1619 1997 
L 1300 1997 
L 1300 2484 
L 1606 2484 
Q 2069 2484 2323 2686 
Q 2578 2888 2578 3244 
Q 2578 3597 2370 3801 
Q 2163 4006 1753 4006 
Q 1381 4006 1151 3815 
Q 922 3625 884 3278 
L 319 3322 
Q 381 3863 767 4166 
Q 1153 4469 1759 4469 
Q 2422 4469 2789 4161 
Q 3156 3853 3156 3303 
Q 3156 2881 2920 2617 
Q 2684 2353 2234 2259 
L 2234 2247 
Q 2728 2194 3003 1916 
Q 3278 1638 3278 1216 
z
" transform="scale(0.015625)"/>
       </defs>
       <use xlink:href="#LiberationSans-32"/>
       <use xlink:href="#LiberationSans-35" x="55.615234"/>
       <use xlink:href="#LiberationSans-30" x="111.230469"/>
       <use xlink:href="#LiberationSans-30" x="166.845703"/>
       <use xlink:href="#LiberationSans-2d" x="222.460938"/>
       <use xlink:href="#LiberationSans-33" x="255.761719"/>
       <use xlink:href="#LiberationSans-30" x="311.376953"/>
       <use xlink:href="#LiberationSans-30" x="366.992188"/>
       <use xlink:href="#LiberationSans-30" x="422.607422"/>
      </g>
     </g>
    </g>
    <g id="xtick_7">
     <g id="line2d_7"/>
     <g id="text_7">
      <!-- 3000-3500 -->
      <g style="fill: #262626" transform="translate(410.791406 360.746875)scale(0.1 -0.1)">
       <use xlink:href="#LiberationSans-33"/>
       <use xlink:href="#LiberationSans-30" x="55.615234"/>
       <use xlink:href="#LiberationSans-30" x="111.230469"/>
       <use xlink:href="#LiberationSans-30" x="166.845703"/>
       <use xlink:href="#LiberationSans-2d" x="222.460938"/>
       <use xlink:href="#LiberationSans-33" x="255.761719"/>
       <use xlink:href="#LiberationSans-35" x="311.376953"/>
       <use xlink:href="#LiberationSans-30" x="366.992188"/>
       <use xlink:href="#LiberationSans-30" x="422.607422"/>
      </g>
     </g>
    </g>
    <g id="xtick_8">
     <g id="line2d_8"/>
     <g id="text_8">
      <!-- 3500-4000 -->
      <g style="fill: #262626" transform="translate(466.591406 360.746875)scale(0.1 -0.1)">
       <defs>
        <path id="LiberationSans-34" d="M 2753 997 
L 2753 0 
L 2222 0 
L 2222 997 
L 147 997 
L 147 1434 
L 2163 4403 
L 2753 4403 
L 2753 1441 
L 3372 1441 
L 3372 997 
L 2753 997 
z
M 2222 3769 
Q 2216 3750 2134 3603 
Q 2053 3456 2013 3397 
L 884 1734 
L 716 1503 
L 666 1441 
L 2222 1441 
L 2222 3769 
z
" transform="scale(0.015625)"/>
       </defs>
       <use xlink:href="#LiberationSans-33"/>
       <use xlink:href="#LiberationSans-35" x="55.615234"/>
       <use xlink:href="#LiberationSans-30" x="111.230469"/>
       <use xlink:href="#LiberationSans-30" x="166.845703"/>
       <use xlink:href="#LiberationSans-2d" x="222.460938"/>
       <use xlink:href="#LiberationSans-34" x="255.761719"/>
       <use xlink:href="#LiberationSans-30" x="311.376953"/>
       <use xlink:href="#LiberationSans-30" x="366.992188"/>
       <use xlink:href="#LiberationSans-30" x="422.607422"/>
      </g>
     </g>
    </g>
    <g id="text_9">
     <!-- Area (km2) -->
     <g style="fill: #262626" transform="translate(268.0025 374.793437)scale(0.11 -0.11)">
      <defs>
       <path id="LiberationSans-41" d="M 3647 0 
L 3144 1288 
L 1138 1288 
L 631 0 
L 13 0 
L 1809 4403 
L 2488 4403 
L 4256 0 
L 3647 0 
z
M 2141 3953 
L 2113 3866 
Q 2034 3606 1881 3200 
L 1319 1753 
L 2966 1753 
L 2400 3206 
Q 2313 3422 2225 3694 
L 2141 3953 
z
" transform="scale(0.015625)"/>
       <path id="LiberationSans-72" d="M 444 0 
L 444 2594 
Q 444 2950 425 3381 
L 956 3381 
Q 981 2806 981 2691 
L 994 2691 
Q 1128 3125 1303 3284 
Q 1478 3444 1797 3444 
Q 1909 3444 2025 3413 
L 2025 2897 
Q 1913 2928 1725 2928 
Q 1375 2928 1190 2626 
Q 1006 2325 1006 1763 
L 1006 0 
L 444 0 
z
" transform="scale(0.015625)"/>
       <path id="LiberationSans-65" d="M 863 1572 
Q 863 991 1103 675 
Q 1344 359 1806 359 
Q 2172 359 2392 506 
Q 2613 653 2691 878 
L 3184 738 
Q 2881 -63 1806 -63 
Q 1056 -63 664 384 
Q 272 831 272 1713 
Q 272 2550 664 2997 
Q 1056 3444 1784 3444 
Q 3275 3444 3275 1647 
L 3275 1572 
L 863 1572 
z
M 2694 2003 
Q 2647 2538 2422 2783 
Q 2197 3028 1775 3028 
Q 1366 3028 1127 2754 
Q 888 2481 869 2003 
L 2694 2003 
z
" transform="scale(0.015625)"/>
       <path id="LiberationSans-61" d="M 1294 -63 
Q 784 -63 528 206 
Q 272 475 272 944 
Q 272 1469 617 1750 
Q 963 2031 1731 2050 
L 2491 2063 
L 2491 2247 
Q 2491 2659 2316 2837 
Q 2141 3016 1766 3016 
Q 1388 3016 1216 2887 
Q 1044 2759 1009 2478 
L 422 2531 
Q 566 3444 1778 3444 
Q 2416 3444 2737 3151 
Q 3059 2859 3059 2306 
L 3059 850 
Q 3059 600 3125 473 
Q 3191 347 3375 347 
Q 3456 347 3559 369 
L 3559 19 
Q 3347 -31 3125 -31 
Q 2813 -31 2670 133 
Q 2528 297 2509 647 
L 2491 647 
Q 2275 259 1989 98 
Q 1703 -63 1294 -63 
z
M 1422 359 
Q 1731 359 1972 500 
Q 2213 641 2352 886 
Q 2491 1131 2491 1391 
L 2491 1669 
L 1875 1656 
Q 1478 1650 1273 1575 
Q 1069 1500 959 1344 
Q 850 1188 850 934 
Q 850 659 998 509 
Q 1147 359 1422 359 
z
" transform="scale(0.015625)"/>
       <path id="LiberationSans-20" transform="scale(0.015625)"/>
       <path id="LiberationSans-28" d="M 397 1663 
Q 397 2566 680 3284 
Q 963 4003 1550 4638 
L 2094 4638 
Q 1509 3988 1236 3256 
Q 963 2525 963 1656 
Q 963 791 1233 62 
Q 1503 -666 2094 -1325 
L 1550 -1325 
Q 959 -688 678 32 
Q 397 753 397 1650 
L 397 1663 
z
" transform="scale(0.015625)"/>
       <path id="LiberationSans-6b" d="M 2550 0 
L 1406 1544 
L 994 1203 
L 994 0 
L 431 0 
L 431 4638 
L 994 4638 
L 994 1741 
L 2478 3381 
L 3138 3381 
L 1766 1928 
L 3209 0 
L 2550 0 
z
" transform="scale(0.015625)"/>
       <path id="LiberationSans-6d" d="M 2400 0 
L 2400 2144 
Q 2400 2634 2265 2821 
Q 2131 3009 1781 3009 
Q 1422 3009 1212 2734 
Q 1003 2459 1003 1959 
L 1003 0 
L 444 0 
L 444 2659 
Q 444 3250 425 3381 
L 956 3381 
Q 959 3366 962 3297 
Q 966 3228 970 3139 
Q 975 3050 981 2803 
L 991 2803 
Q 1172 3163 1406 3303 
Q 1641 3444 1978 3444 
Q 2363 3444 2586 3291 
Q 2809 3138 2897 2803 
L 2906 2803 
Q 3081 3144 3329 3294 
Q 3578 3444 3931 3444 
Q 4444 3444 4676 3166 
Q 4909 2888 4909 2253 
L 4909 0 
L 4353 0 
L 4353 2144 
Q 4353 2634 4218 2821 
Q 4084 3009 3734 3009 
Q 3366 3009 3161 2736 
Q 2956 2463 2956 1959 
L 2956 0 
L 2400 0 
z
" transform="scale(0.015625)"/>
       <path id="LiberationSans-29" d="M 1734 1650 
Q 1734 747 1451 28 
Q 1169 -691 581 -1325 
L 38 -1325 
Q 625 -669 897 57 
Q 1169 784 1169 1656 
Q 1169 2528 895 3256 
Q 622 3984 38 4638 
L 581 4638 
Q 1172 4000 1453 3279 
Q 1734 2559 1734 1663 
L 1734 1650 
z
" transform="scale(0.015625)"/>
      </defs>
      <use xlink:href="#LiberationSans-41"/>
      <use xlink:href="#LiberationSans-72" x="66.699219"/>
      <use xlink:href="#LiberationSans-65" x="100"/>
      <use xlink:href="#LiberationSans-61" x="155.615234"/>
      <use xlink:href="#LiberationSans-20" x="211.230469"/>
      <use xlink:href="#LiberationSans-28" x="239.013672"/>
      <use xlink:href="#LiberationSans-6b" x="272.314453"/>
      <use xlink:href="#LiberationSans-6d" x="322.314453"/>
      <use xlink:href="#LiberationSans-32" x="405.615234"/>
      <use xlink:href="#LiberationSans-29" x="461.230469"/>
     </g>
    </g>
   </g>
   <g id="matplotlib.axis_2">
    <g id="ytick_1">
     <g id="line2d_9">
      <path d="M 72 331.057626 
L 518.4 331.057626 
" clip-path="url(#p1c960823bb)" style="fill: none; stroke: #cccccc; stroke-linecap: round"/>
     </g>
     <g id="line2d_10"/>
     <g id="text_10">
      <!-- 0 -->
      <g style="fill: #262626" transform="translate(59.439062 334.681063)scale(0.1 -0.1)">
       <use xlink:href="#LiberationSans-30"/>
      </g>
     </g>
    </g>
    <g id="ytick_2">
     <g id="line2d_11">
      <path d="M 72 277.543806 
L 518.4 277.543806 
" clip-path="url(#p1c960823bb)" style="fill: none; stroke: #cccccc; stroke-linecap: round"/>
     </g>
     <g id="line2d_12"/>
     <g id="text_11">
      <!-- 2 -->
      <g style="fill: #262626" transform="translate(59.439062 281.167244)scale(0.1 -0.1)">
       <use xlink:href="#LiberationSans-32"/>
      </g>
     </g>
    </g>
    <g id="ytick_3">
     <g id="line2d_13">
      <path d="M 72 224.029987 
L 518.4 224.029987 
" clip-path="url(#p1c960823bb)" style="fill: none; stroke: #cccccc; stroke-linecap: round"/>
     </g>
     <g id="line2d_14"/>
     <g id="text_12">
      <!-- 4 -->
      <g style="fill: #262626" transform="translate(59.439062 227.653425)scale(0.1 -0.1)">
       <use xlink:href="#LiberationSans-34"/>
      </g>
     </g>
    </g>
    <g id="ytick_4">
     <g id="line2d_15">
      <path d="M 72 170.516168 
L 518.4 170.516168 
" clip-path="url(#p1c960823bb)" style="fill: none; stroke: #cccccc; stroke-linecap: round"/>
     </g>
     <g id="line2d_16"/>
     <g id="text_13">
      <!-- 6 -->
      <g style="fill: #262626" transform="translate(59.439062 174.139606)scale(0.1 -0.1)">
       <defs>
        <path id="LiberationSans-36" d="M 3278 1441 
Q 3278 744 2900 340 
Q 2522 -63 1856 -63 
Q 1113 -63 719 490 
Q 325 1044 325 2100 
Q 325 3244 734 3856 
Q 1144 4469 1900 4469 
Q 2897 4469 3156 3572 
L 2619 3475 
Q 2453 4013 1894 4013 
Q 1413 4013 1148 3564 
Q 884 3116 884 2266 
Q 1038 2550 1316 2698 
Q 1594 2847 1953 2847 
Q 2563 2847 2920 2465 
Q 3278 2084 3278 1441 
z
M 2706 1416 
Q 2706 1894 2472 2153 
Q 2238 2413 1819 2413 
Q 1425 2413 1183 2183 
Q 941 1953 941 1550 
Q 941 1041 1192 716 
Q 1444 391 1838 391 
Q 2244 391 2475 664 
Q 2706 938 2706 1416 
z
" transform="scale(0.015625)"/>
       </defs>
       <use xlink:href="#LiberationSans-36"/>
      </g>
     </g>
    </g>
    <g id="ytick_5">
     <g id="line2d_17">
      <path d="M 72 117.002349 
L 518.4 117.002349 
" clip-path="url(#p1c960823bb)" style="fill: none; stroke: #cccccc; stroke-linecap: round"/>
     </g>
     <g id="line2d_18"/>
     <g id="text_14">
      <!-- 8 -->
      <g style="fill: #262626" transform="translate(59.439062 120.625786)scale(0.1 -0.1)">
       <defs>
        <path id="LiberationSans-38" d="M 3281 1228 
Q 3281 619 2893 278 
Q 2506 -63 1781 -63 
Q 1075 -63 676 271 
Q 278 606 278 1222 
Q 278 1653 525 1947 
Q 772 2241 1156 2303 
L 1156 2316 
Q 797 2400 589 2681 
Q 381 2963 381 3341 
Q 381 3844 757 4156 
Q 1134 4469 1769 4469 
Q 2419 4469 2795 4162 
Q 3172 3856 3172 3334 
Q 3172 2956 2962 2675 
Q 2753 2394 2391 2322 
L 2391 2309 
Q 2813 2241 3047 1952 
Q 3281 1663 3281 1228 
z
M 2588 3303 
Q 2588 4050 1769 4050 
Q 1372 4050 1164 3862 
Q 956 3675 956 3303 
Q 956 2925 1170 2726 
Q 1384 2528 1775 2528 
Q 2172 2528 2380 2711 
Q 2588 2894 2588 3303 
z
M 2697 1281 
Q 2697 1691 2453 1898 
Q 2209 2106 1769 2106 
Q 1341 2106 1100 1882 
Q 859 1659 859 1269 
Q 859 359 1788 359 
Q 2247 359 2472 579 
Q 2697 800 2697 1281 
z
" transform="scale(0.015625)"/>
       </defs>
       <use xlink:href="#LiberationSans-38"/>
      </g>
     </g>
    </g>
    <g id="ytick_6">
     <g id="line2d_19">
      <path d="M 72 63.48853 
L 518.4 63.48853 
" clip-path="url(#p1c960823bb)" style="fill: none; stroke: #cccccc; stroke-linecap: round"/>
     </g>
     <g id="line2d_20"/>
     <g id="text_15">
      <!-- 10 -->
      <g style="fill: #262626" transform="translate(53.878125 67.111967)scale(0.1 -0.1)">
       <use xlink:href="#LiberationSans-31"/>
       <use xlink:href="#LiberationSans-30" x="55.615234"/>
      </g>
     </g>
    </g>
    <g id="text_16">
     <!-- Vol_Edasi / Vol_Farinotti -->
     <g style="fill: #262626" transform="translate(47.595625 256.628281)rotate(-90)scale(0.11 -0.11)">
      <defs>
       <path id="LiberationSans-56" d="M 2444 0 
L 1825 0 
L 28 4403 
L 656 4403 
L 1875 1303 
L 2138 525 
L 2400 1303 
L 3613 4403 
L 4241 4403 
L 2444 0 
z
" transform="scale(0.015625)"/>
       <path id="LiberationSans-6f" d="M 3291 1694 
Q 3291 806 2900 371 
Q 2509 -63 1766 -63 
Q 1025 -63 647 389 
Q 269 841 269 1694 
Q 269 3444 1784 3444 
Q 2559 3444 2925 3017 
Q 3291 2591 3291 1694 
z
M 2700 1694 
Q 2700 2394 2492 2711 
Q 2284 3028 1794 3028 
Q 1300 3028 1079 2704 
Q 859 2381 859 1694 
Q 859 1025 1076 689 
Q 1294 353 1759 353 
Q 2266 353 2483 678 
Q 2700 1003 2700 1694 
z
" transform="scale(0.015625)"/>
       <path id="LiberationSans-6c" d="M 431 0 
L 431 4638 
L 994 4638 
L 994 0 
L 431 0 
z
" transform="scale(0.015625)"/>
       <path id="LiberationSans-5f" d="M -97 -1272 
L -97 -866 
L 3631 -866 
L 3631 -1272 
L -97 -1272 
z
" transform="scale(0.015625)"/>
       <path id="LiberationSans-45" d="M 525 0 
L 525 4403 
L 3866 4403 
L 3866 3916 
L 1122 3916 
L 1122 2503 
L 3678 2503 
L 3678 2022 
L 1122 2022 
L 1122 488 
L 3994 488 
L 3994 0 
L 525 0 
z
" transform="scale(0.015625)"/>
       <path id="LiberationSans-64" d="M 2566 544 
Q 2409 219 2151 78 
Q 1894 -63 1513 -63 
Q 872 -63 570 368 
Q 269 800 269 1675 
Q 269 3444 1513 3444 
Q 1897 3444 2153 3303 
Q 2409 3163 2566 2856 
L 2572 2856 
L 2566 3234 
L 2566 4638 
L 3128 4638 
L 3128 697 
Q 3128 169 3147 0 
L 2609 0 
Q 2600 50 2589 231 
Q 2578 413 2578 544 
L 2566 544 
z
M 859 1694 
Q 859 984 1046 678 
Q 1234 372 1656 372 
Q 2134 372 2350 703 
Q 2566 1034 2566 1731 
Q 2566 2403 2350 2715 
Q 2134 3028 1663 3028 
Q 1238 3028 1048 2714 
Q 859 2400 859 1694 
z
" transform="scale(0.015625)"/>
       <path id="LiberationSans-73" d="M 2969 934 
Q 2969 456 2608 196 
Q 2247 -63 1597 -63 
Q 966 -63 623 145 
Q 281 353 178 794 
L 675 891 
Q 747 619 972 492 
Q 1197 366 1597 366 
Q 2025 366 2223 497 
Q 2422 628 2422 891 
Q 2422 1091 2284 1216 
Q 2147 1341 1841 1422 
L 1438 1528 
Q 953 1653 748 1773 
Q 544 1894 428 2066 
Q 313 2238 313 2488 
Q 313 2950 642 3192 
Q 972 3434 1603 3434 
Q 2163 3434 2492 3237 
Q 2822 3041 2909 2606 
L 2403 2544 
Q 2356 2769 2151 2889 
Q 1947 3009 1603 3009 
Q 1222 3009 1040 2893 
Q 859 2778 859 2544 
Q 859 2400 934 2306 
Q 1009 2213 1156 2147 
Q 1303 2081 1775 1966 
Q 2222 1853 2419 1758 
Q 2616 1663 2730 1547 
Q 2844 1431 2906 1279 
Q 2969 1128 2969 934 
z
" transform="scale(0.015625)"/>
       <path id="LiberationSans-69" d="M 428 4100 
L 428 4638 
L 991 4638 
L 991 4100 
L 428 4100 
z
M 428 0 
L 428 3381 
L 991 3381 
L 991 0 
L 428 0 
z
" transform="scale(0.015625)"/>
       <path id="LiberationSans-2f" d="M 0 -63 
L 1284 4638 
L 1778 4638 
L 506 -63 
L 0 -63 
z
" transform="scale(0.015625)"/>
       <path id="LiberationSans-46" d="M 1122 3916 
L 1122 2278 
L 3578 2278 
L 3578 1784 
L 1122 1784 
L 1122 0 
L 525 0 
L 525 4403 
L 3653 4403 
L 3653 3916 
L 1122 3916 
z
" transform="scale(0.015625)"/>
       <path id="LiberationSans-6e" d="M 2578 0 
L 2578 2144 
Q 2578 2478 2512 2662 
Q 2447 2847 2303 2928 
Q 2159 3009 1881 3009 
Q 1475 3009 1240 2731 
Q 1006 2453 1006 1959 
L 1006 0 
L 444 0 
L 444 2659 
Q 444 3250 425 3381 
L 956 3381 
Q 959 3366 962 3297 
Q 966 3228 970 3139 
Q 975 3050 981 2803 
L 991 2803 
Q 1184 3153 1439 3298 
Q 1694 3444 2072 3444 
Q 2628 3444 2886 3167 
Q 3144 2891 3144 2253 
L 3144 0 
L 2578 0 
z
" transform="scale(0.015625)"/>
       <path id="LiberationSans-74" d="M 1731 25 
Q 1453 -50 1163 -50 
Q 488 -50 488 716 
L 488 2972 
L 97 2972 
L 97 3381 
L 509 3381 
L 675 4138 
L 1050 4138 
L 1050 3381 
L 1675 3381 
L 1675 2972 
L 1050 2972 
L 1050 838 
Q 1050 594 1129 495 
Q 1209 397 1406 397 
Q 1519 397 1731 441 
L 1731 25 
z
" transform="scale(0.015625)"/>
      </defs>
      <use xlink:href="#LiberationSans-56"/>
      <use xlink:href="#LiberationSans-6f" x="61.199219"/>
      <use xlink:href="#LiberationSans-6c" x="116.814453"/>
      <use xlink:href="#LiberationSans-5f" x="139.03125"/>
      <use xlink:href="#LiberationSans-45" x="194.646484"/>
      <use xlink:href="#LiberationSans-64" x="261.345703"/>
      <use xlink:href="#LiberationSans-61" x="316.960938"/>
      <use xlink:href="#LiberationSans-73" x="372.576172"/>
      <use xlink:href="#LiberationSans-69" x="422.576172"/>
      <use xlink:href="#LiberationSans-20" x="444.792969"/>
      <use xlink:href="#LiberationSans-2f" x="472.576172"/>
      <use xlink:href="#LiberationSans-20" x="500.359375"/>
      <use xlink:href="#LiberationSans-56" x="528.142578"/>
      <use xlink:href="#LiberationSans-6f" x="589.341797"/>
      <use xlink:href="#LiberationSans-6c" x="644.957031"/>
      <use xlink:href="#LiberationSans-5f" x="667.173828"/>
      <use xlink:href="#LiberationSans-46" x="722.789062"/>
      <use xlink:href="#LiberationSans-61" x="783.873047"/>
      <use xlink:href="#LiberationSans-72" x="839.488281"/>
      <use xlink:href="#LiberationSans-69" x="872.789062"/>
      <use xlink:href="#LiberationSans-6e" x="895.005859"/>
      <use xlink:href="#LiberationSans-6f" x="950.621094"/>
      <use xlink:href="#LiberationSans-74" x="1006.236328"/>
      <use xlink:href="#LiberationSans-74" x="1034.019531"/>
      <use xlink:href="#LiberationSans-69" x="1061.802734"/>
     </g>
    </g>
   </g>
   <g id="PolyCollection_1">
    <defs>
     <path id="mda9b1308b7" d="M 99.900701 -63.09 
L 99.899299 -63.09 
L 99.881409 -65.835455 
L 99.772776 -68.580909 
L 99.46689 -71.326364 
L 98.909744 -74.071818 
L 97.681579 -76.817273 
L 94.827105 -79.562727 
L 89.907229 -82.308182 
L 84.29518 -85.053636 
L 80.066213 -87.799091 
L 77.771138 -90.544545 
L 77.58 -93.29 
L 78.87623 -96.035455 
L 80.766915 -98.780909 
L 82.707136 -101.526364 
L 84.391764 -104.271818 
L 85.961617 -107.017273 
L 87.654975 -109.762727 
L 89.081288 -112.508182 
L 90.35666 -115.253636 
L 91.51987 -117.999091 
L 92.545081 -120.744545 
L 93.610167 -123.49 
L 94.555103 -126.235455 
L 95.356701 -128.980909 
L 96.101212 -131.726364 
L 96.748791 -134.471818 
L 97.262731 -137.217273 
L 97.723423 -139.962727 
L 98.162516 -142.708182 
L 98.466732 -145.453636 
L 98.702057 -148.199091 
L 98.892506 -150.944545 
L 99.074336 -153.69 
L 99.222959 -156.435455 
L 99.314937 -159.180909 
L 99.358872 -161.926364 
L 99.425139 -164.671818 
L 99.479548 -167.417273 
L 99.539002 -170.162727 
L 99.588312 -172.908182 
L 99.604639 -175.653636 
L 99.63977 -178.399091 
L 99.681127 -181.144545 
L 99.711145 -183.89 
L 99.740414 -186.635455 
L 99.755988 -189.380909 
L 99.771005 -192.126364 
L 99.791305 -194.871818 
L 99.799033 -197.617273 
L 99.819398 -200.362727 
L 99.834287 -203.108182 
L 99.855209 -205.853636 
L 99.862494 -208.599091 
L 99.863626 -211.344545 
L 99.860281 -214.09 
L 99.867311 -216.835455 
L 99.87526 -219.580909 
L 99.874208 -222.326364 
L 99.874687 -225.071818 
L 99.876083 -227.817273 
L 99.874971 -230.562727 
L 99.883438 -233.308182 
L 99.887045 -236.053636 
L 99.885728 -238.799091 
L 99.887116 -241.544545 
L 99.889881 -244.29 
L 99.888827 -247.035455 
L 99.887646 -249.780909 
L 99.888875 -252.526364 
L 99.891584 -255.271818 
L 99.891021 -258.017273 
L 99.888425 -260.762727 
L 99.886609 -263.508182 
L 99.886593 -266.253636 
L 99.887344 -268.999091 
L 99.887903 -271.744545 
L 99.890444 -274.49 
L 99.891457 -277.235455 
L 99.889328 -279.980909 
L 99.887556 -282.726364 
L 99.891769 -285.471818 
L 99.891037 -288.217273 
L 99.891827 -290.962727 
L 99.89048 -293.708182 
L 99.895022 -296.453636 
L 99.89544 -299.199091 
L 99.892838 -301.944545 
L 99.890852 -304.69 
L 99.894645 -307.435455 
L 99.896276 -310.180909 
L 99.895442 -312.926364 
L 99.893525 -315.671818 
L 99.893787 -318.417273 
L 99.894192 -321.162727 
L 99.895356 -323.908182 
L 99.896977 -326.653636 
L 99.895541 -329.399091 
L 99.898151 -332.144545 
L 99.899856 -334.89 
L 99.900144 -334.89 
L 99.900144 -334.89 
L 99.901849 -332.144545 
L 99.904459 -329.399091 
L 99.903023 -326.653636 
L 99.904644 -323.908182 
L 99.905808 -321.162727 
L 99.906213 -318.417273 
L 99.906475 -315.671818 
L 99.904558 -312.926364 
L 99.903724 -310.180909 
L 99.905355 -307.435455 
L 99.909148 -304.69 
L 99.907162 -301.944545 
L 99.90456 -299.199091 
L 99.904978 -296.453636 
L 99.90952 -293.708182 
L 99.908173 -290.962727 
L 99.908963 -288.217273 
L 99.908231 -285.471818 
L 99.912444 -282.726364 
L 99.910672 -279.980909 
L 99.908543 -277.235455 
L 99.909556 -274.49 
L 99.912097 -271.744545 
L 99.912656 -268.999091 
L 99.913407 -266.253636 
L 99.913391 -263.508182 
L 99.911575 -260.762727 
L 99.908979 -258.017273 
L 99.908416 -255.271818 
L 99.911125 -252.526364 
L 99.912354 -249.780909 
L 99.911173 -247.035455 
L 99.910119 -244.29 
L 99.912884 -241.544545 
L 99.914272 -238.799091 
L 99.912955 -236.053636 
L 99.916562 -233.308182 
L 99.925029 -230.562727 
L 99.923917 -227.817273 
L 99.925313 -225.071818 
L 99.925792 -222.326364 
L 99.92474 -219.580909 
L 99.932689 -216.835455 
L 99.939719 -214.09 
L 99.936374 -211.344545 
L 99.937506 -208.599091 
L 99.944791 -205.853636 
L 99.965713 -203.108182 
L 99.980602 -200.362727 
L 100.000967 -197.617273 
L 100.008695 -194.871818 
L 100.028995 -192.126364 
L 100.044012 -189.380909 
L 100.059586 -186.635455 
L 100.088855 -183.89 
L 100.118873 -181.144545 
L 100.16023 -178.399091 
L 100.195361 -175.653636 
L 100.211688 -172.908182 
L 100.260998 -170.162727 
L 100.320452 -167.417273 
L 100.374861 -164.671818 
L 100.441128 -161.926364 
L 100.485063 -159.180909 
L 100.577041 -156.435455 
L 100.725664 -153.69 
L 100.907494 -150.944545 
L 101.097943 -148.199091 
L 101.333268 -145.453636 
L 101.637484 -142.708182 
L 102.076577 -139.962727 
L 102.537269 -137.217273 
L 103.051209 -134.471818 
L 103.698788 -131.726364 
L 104.443299 -128.980909 
L 105.244897 -126.235455 
L 106.189833 -123.49 
L 107.254919 -120.744545 
L 108.28013 -117.999091 
L 109.44334 -115.253636 
L 110.718712 -112.508182 
L 112.145025 -109.762727 
L 113.838383 -107.017273 
L 115.408236 -104.271818 
L 117.092864 -101.526364 
L 119.033085 -98.780909 
L 120.92377 -96.035455 
L 122.22 -93.29 
L 122.028862 -90.544545 
L 119.733787 -87.799091 
L 115.50482 -85.053636 
L 109.892771 -82.308182 
L 104.972895 -79.562727 
L 102.118421 -76.817273 
L 100.890256 -74.071818 
L 100.33311 -71.326364 
L 100.027224 -68.580909 
L 99.918591 -65.835455 
L 99.900701 -63.09 
z
" style="stroke: #464646; stroke-width: 1.75"/>
    </defs>
    <g clip-path="url(#p1c960823bb)">
     <use xlink:href="#mda9b1308b7" x="0" y="396" style="fill: #ea96a3; stroke: #464646; stroke-width: 1.75"/>
    </g>
   </g>
   <g id="PolyCollection_2">
    <defs>
     <path id="m1307ed1d96" d="M 155.700248 -64.658544 
L 155.699752 -64.658544 
L 155.699613 -65.129789 
L 155.699415 -65.601035 
L 155.699143 -66.07228 
L 155.69878 -66.543525 
L 155.698314 -67.014771 
L 155.697736 -67.486016 
L 155.697044 -67.957262 
L 155.696245 -68.428507 
L 155.695358 -68.899752 
L 155.694408 -69.370998 
L 155.693433 -69.842243 
L 155.692471 -70.313488 
L 155.691567 -70.784734 
L 155.690758 -71.255979 
L 155.690076 -71.727224 
L 155.689541 -72.19847 
L 155.689159 -72.669715 
L 155.688922 -73.140961 
L 155.688807 -73.612206 
L 155.688785 -74.083451 
L 155.688821 -74.554697 
L 155.688879 -75.025942 
L 155.688931 -75.497187 
L 155.68896 -75.968433 
L 155.688961 -76.439678 
L 155.688943 -76.910923 
L 155.688926 -77.382169 
L 155.68894 -77.853414 
L 155.689016 -78.32466 
L 155.689182 -78.795905 
L 155.689457 -79.26715 
L 155.689854 -79.738396 
L 155.690368 -80.209641 
L 155.690986 -80.680886 
L 155.691687 -81.152132 
L 155.69244 -81.623377 
L 155.693215 -82.094622 
L 155.693984 -82.565868 
L 155.694721 -83.037113 
L 155.695406 -83.508359 
L 155.696027 -83.979604 
L 155.696578 -84.450849 
L 155.697057 -84.922095 
L 155.697467 -85.39334 
L 155.697813 -85.864585 
L 155.698102 -86.335831 
L 155.698342 -86.807076 
L 155.698537 -87.278321 
L 155.698694 -87.749567 
L 155.698819 -88.220812 
L 155.698917 -88.692058 
L 155.698992 -89.163303 
L 155.699048 -89.634548 
L 155.699091 -90.105794 
L 155.699122 -90.577039 
L 155.699147 -91.048284 
L 155.699167 -91.51953 
L 155.699185 -91.990775 
L 155.699203 -92.46202 
L 155.699221 -92.933266 
L 155.699239 -93.404511 
L 155.699258 -93.875757 
L 155.699275 -94.347002 
L 155.699292 -94.818247 
L 155.699307 -95.289493 
L 155.699323 -95.760738 
L 155.69934 -96.231983 
L 155.699361 -96.703229 
L 155.699388 -97.174474 
L 155.699423 -97.645719 
L 155.699466 -98.116965 
L 155.699518 -98.58821 
L 155.699575 -99.059455 
L 155.699634 -99.530701 
L 155.699692 -100.001946 
L 155.699746 -100.473192 
L 155.699792 -100.944437 
L 155.699828 -101.415682 
L 155.699851 -101.886928 
L 155.699863 -102.358173 
L 155.699864 -102.829418 
L 155.699854 -103.300664 
L 155.699838 -103.771909 
L 155.699817 -104.243154 
L 155.699794 -104.7144 
L 155.699774 -105.185645 
L 155.699758 -105.656891 
L 155.69975 -106.128136 
L 155.69975 -106.599381 
L 155.699759 -107.070627 
L 155.699776 -107.541872 
L 155.699799 -108.013117 
L 155.699826 -108.484363 
L 155.699855 -108.955608 
L 155.699883 -109.426853 
L 155.69991 -109.898099 
L 155.699932 -110.369344 
L 155.699951 -110.84059 
L 155.699966 -111.311835 
L 155.700034 -111.311835 
L 155.700034 -111.311835 
L 155.700049 -110.84059 
L 155.700068 -110.369344 
L 155.70009 -109.898099 
L 155.700117 -109.426853 
L 155.700145 -108.955608 
L 155.700174 -108.484363 
L 155.700201 -108.013117 
L 155.700224 -107.541872 
L 155.700241 -107.070627 
L 155.70025 -106.599381 
L 155.70025 -106.128136 
L 155.700242 -105.656891 
L 155.700226 -105.185645 
L 155.700206 -104.7144 
L 155.700183 -104.243154 
L 155.700162 -103.771909 
L 155.700146 -103.300664 
L 155.700136 -102.829418 
L 155.700137 -102.358173 
L 155.700149 -101.886928 
L 155.700172 -101.415682 
L 155.700208 -100.944437 
L 155.700254 -100.473192 
L 155.700308 -100.001946 
L 155.700366 -99.530701 
L 155.700425 -99.059455 
L 155.700482 -98.58821 
L 155.700534 -98.116965 
L 155.700577 -97.645719 
L 155.700612 -97.174474 
L 155.700639 -96.703229 
L 155.70066 -96.231983 
L 155.700677 -95.760738 
L 155.700693 -95.289493 
L 155.700708 -94.818247 
L 155.700725 -94.347002 
L 155.700742 -93.875757 
L 155.700761 -93.404511 
L 155.700779 -92.933266 
L 155.700797 -92.46202 
L 155.700815 -91.990775 
L 155.700833 -91.51953 
L 155.700853 -91.048284 
L 155.700878 -90.577039 
L 155.700909 -90.105794 
L 155.700952 -89.634548 
L 155.701008 -89.163303 
L 155.701083 -88.692058 
L 155.701181 -88.220812 
L 155.701306 -87.749567 
L 155.701463 -87.278321 
L 155.701658 -86.807076 
L 155.701898 -86.335831 
L 155.702187 -85.864585 
L 155.702533 -85.39334 
L 155.702943 -84.922095 
L 155.703422 -84.450849 
L 155.703973 -83.979604 
L 155.704594 -83.508359 
L 155.705279 -83.037113 
L 155.706016 -82.565868 
L 155.706785 -82.094622 
L 155.70756 -81.623377 
L 155.708313 -81.152132 
L 155.709014 -80.680886 
L 155.709632 -80.209641 
L 155.710146 -79.738396 
L 155.710543 -79.26715 
L 155.710818 -78.795905 
L 155.710984 -78.32466 
L 155.71106 -77.853414 
L 155.711074 -77.382169 
L 155.711057 -76.910923 
L 155.711039 -76.439678 
L 155.71104 -75.968433 
L 155.711069 -75.497187 
L 155.711121 -75.025942 
L 155.711179 -74.554697 
L 155.711215 -74.083451 
L 155.711193 -73.612206 
L 155.711078 -73.140961 
L 155.710841 -72.669715 
L 155.710459 -72.19847 
L 155.709924 -71.727224 
L 155.709242 -71.255979 
L 155.708433 -70.784734 
L 155.707529 -70.313488 
L 155.706567 -69.842243 
L 155.705592 -69.370998 
L 155.704642 -68.899752 
L 155.703755 -68.428507 
L 155.702956 -67.957262 
L 155.702264 -67.486016 
L 155.701686 -67.014771 
L 155.70122 -66.543525 
L 155.700857 -66.07228 
L 155.700585 -65.601035 
L 155.700387 -65.129789 
L 155.700248 -64.658544 
z
" style="stroke: #464646; stroke-width: 1.75"/>
    </defs>
    <g clip-path="url(#p1c960823bb)">
     <use xlink:href="#m1307ed1d96" x="0" y="396" style="fill: #ca984c; stroke: #464646; stroke-width: 1.75"/>
    </g>
   </g>
   <g id="PolyCollection_3">
    <defs>
     <path id="md9edd758e0" d="M 211.500109 -66.815386 
L 211.499891 -66.815386 
L 211.499854 -67.094487 
L 211.499807 -67.373589 
L 211.499747 -67.65269 
L 211.499674 -67.931791 
L 211.499585 -68.210893 
L 211.499478 -68.489994 
L 211.499352 -68.769096 
L 211.499206 -69.048197 
L 211.49904 -69.327299 
L 211.498853 -69.6064 
L 211.498647 -69.885501 
L 211.498422 -70.164603 
L 211.498183 -70.443704 
L 211.497933 -70.722806 
L 211.497676 -71.001907 
L 211.497418 -71.281009 
L 211.497163 -71.56011 
L 211.496918 -71.839212 
L 211.496688 -72.118313 
L 211.496479 -72.397414 
L 211.496295 -72.676516 
L 211.496141 -72.955617 
L 211.496017 -73.234719 
L 211.495927 -73.51382 
L 211.495871 -73.792922 
L 211.495846 -74.072023 
L 211.495853 -74.351124 
L 211.495887 -74.630226 
L 211.495944 -74.909327 
L 211.496022 -75.188429 
L 211.496115 -75.46753 
L 211.49622 -75.746632 
L 211.496332 -76.025733 
L 211.496446 -76.304835 
L 211.496561 -76.583936 
L 211.496672 -76.863037 
L 211.496778 -77.142139 
L 211.496875 -77.42124 
L 211.496963 -77.700342 
L 211.49704 -77.979443 
L 211.497106 -78.258545 
L 211.497159 -78.537646 
L 211.4972 -78.816747 
L 211.497229 -79.095849 
L 211.497248 -79.37495 
L 211.497258 -79.654052 
L 211.497261 -79.933153 
L 211.497259 -80.212255 
L 211.497256 -80.491356 
L 211.497255 -80.770457 
L 211.497259 -81.049559 
L 211.497273 -81.32866 
L 211.497299 -81.607762 
L 211.497341 -81.886863 
L 211.4974 -82.165965 
L 211.497478 -82.445066 
L 211.497574 -82.724168 
L 211.497689 -83.003269 
L 211.49782 -83.28237 
L 211.497966 -83.561472 
L 211.498122 -83.840573 
L 211.498284 -84.119675 
L 211.498449 -84.398776 
L 211.498612 -84.677878 
L 211.498769 -84.956979 
L 211.498917 -85.23608 
L 211.499052 -85.515182 
L 211.499172 -85.794283 
L 211.499276 -86.073385 
L 211.499363 -86.352486 
L 211.499432 -86.631588 
L 211.499485 -86.910689 
L 211.499523 -87.189791 
L 211.499548 -87.468892 
L 211.499562 -87.747993 
L 211.499567 -88.027095 
L 211.499566 -88.306196 
L 211.499561 -88.585298 
L 211.499555 -88.864399 
L 211.499549 -89.143501 
L 211.499546 -89.422602 
L 211.499547 -89.701703 
L 211.499552 -89.980805 
L 211.499562 -90.259906 
L 211.499578 -90.539008 
L 211.499598 -90.818109 
L 211.499623 -91.097211 
L 211.499651 -91.376312 
L 211.499682 -91.655413 
L 211.499714 -91.934515 
L 211.499747 -92.213616 
L 211.499779 -92.492718 
L 211.499811 -92.771819 
L 211.49984 -93.050921 
L 211.499866 -93.330022 
L 211.49989 -93.609124 
L 211.499911 -93.888225 
L 211.499929 -94.167326 
L 211.499945 -94.446428 
L 211.500055 -94.446428 
L 211.500055 -94.446428 
L 211.500071 -94.167326 
L 211.500089 -93.888225 
L 211.50011 -93.609124 
L 211.500134 -93.330022 
L 211.50016 -93.050921 
L 211.500189 -92.771819 
L 211.500221 -92.492718 
L 211.500253 -92.213616 
L 211.500286 -91.934515 
L 211.500318 -91.655413 
L 211.500349 -91.376312 
L 211.500377 -91.097211 
L 211.500402 -90.818109 
L 211.500422 -90.539008 
L 211.500438 -90.259906 
L 211.500448 -89.980805 
L 211.500453 -89.701703 
L 211.500454 -89.422602 
L 211.500451 -89.143501 
L 211.500445 -88.864399 
L 211.500439 -88.585298 
L 211.500434 -88.306196 
L 211.500433 -88.027095 
L 211.500438 -87.747993 
L 211.500452 -87.468892 
L 211.500477 -87.189791 
L 211.500515 -86.910689 
L 211.500568 -86.631588 
L 211.500637 -86.352486 
L 211.500724 -86.073385 
L 211.500828 -85.794283 
L 211.500948 -85.515182 
L 211.501083 -85.23608 
L 211.501231 -84.956979 
L 211.501388 -84.677878 
L 211.501551 -84.398776 
L 211.501716 -84.119675 
L 211.501878 -83.840573 
L 211.502034 -83.561472 
L 211.50218 -83.28237 
L 211.502311 -83.003269 
L 211.502426 -82.724168 
L 211.502522 -82.445066 
L 211.5026 -82.165965 
L 211.502659 -81.886863 
L 211.502701 -81.607762 
L 211.502727 -81.32866 
L 211.502741 -81.049559 
L 211.502745 -80.770457 
L 211.502744 -80.491356 
L 211.502741 -80.212255 
L 211.502739 -79.933153 
L 211.502742 -79.654052 
L 211.502752 -79.37495 
L 211.502771 -79.095849 
L 211.5028 -78.816747 
L 211.502841 -78.537646 
L 211.502894 -78.258545 
L 211.50296 -77.979443 
L 211.503037 -77.700342 
L 211.503125 -77.42124 
L 211.503222 -77.142139 
L 211.503328 -76.863037 
L 211.503439 -76.583936 
L 211.503554 -76.304835 
L 211.503668 -76.025733 
L 211.50378 -75.746632 
L 211.503885 -75.46753 
L 211.503978 -75.188429 
L 211.504056 -74.909327 
L 211.504113 -74.630226 
L 211.504147 -74.351124 
L 211.504154 -74.072023 
L 211.504129 -73.792922 
L 211.504073 -73.51382 
L 211.503983 -73.234719 
L 211.503859 -72.955617 
L 211.503705 -72.676516 
L 211.503521 -72.397414 
L 211.503312 -72.118313 
L 211.503082 -71.839212 
L 211.502837 -71.56011 
L 211.502582 -71.281009 
L 211.502324 -71.001907 
L 211.502067 -70.722806 
L 211.501817 -70.443704 
L 211.501578 -70.164603 
L 211.501353 -69.885501 
L 211.501147 -69.6064 
L 211.50096 -69.327299 
L 211.500794 -69.048197 
L 211.500648 -68.769096 
L 211.500522 -68.489994 
L 211.500415 -68.210893 
L 211.500326 -67.931791 
L 211.500253 -67.65269 
L 211.500193 -67.373589 
L 211.500146 -67.094487 
L 211.500109 -66.815386 
z
" style="stroke: #464646; stroke-width: 1.75"/>
    </defs>
    <g clip-path="url(#p1c960823bb)">
     <use xlink:href="#md9edd758e0" x="0" y="396" style="fill: #98a246; stroke: #464646; stroke-width: 1.75"/>
    </g>
   </g>
   <g id="PolyCollection_4">
    <defs>
     <path id="mdfe8e2fbf9" d="M 267.300075 -67.963887 
L 267.299925 -67.963887 
L 267.29991 -68.183887 
L 267.299893 -68.403888 
L 267.299874 -68.623889 
L 267.299852 -68.843889 
L 267.299828 -69.06389 
L 267.299801 -69.283891 
L 267.299772 -69.503891 
L 267.299741 -69.723892 
L 267.299707 -69.943893 
L 267.299671 -70.163894 
L 267.299634 -70.383894 
L 267.299595 -70.603895 
L 267.299554 -70.823896 
L 267.299513 -71.043896 
L 267.299472 -71.263897 
L 267.29943 -71.483898 
L 267.299389 -71.703898 
L 267.299349 -71.923899 
L 267.299311 -72.1439 
L 267.299274 -72.363901 
L 267.299239 -72.583901 
L 267.299206 -72.803902 
L 267.299175 -73.023903 
L 267.299147 -73.243903 
L 267.299121 -73.463904 
L 267.299098 -73.683905 
L 267.299076 -73.903906 
L 267.299057 -74.123906 
L 267.299039 -74.343907 
L 267.299023 -74.563908 
L 267.299007 -74.783908 
L 267.298993 -75.003909 
L 267.298979 -75.22391 
L 267.298965 -75.44391 
L 267.298951 -75.663911 
L 267.298937 -75.883912 
L 267.298922 -76.103913 
L 267.298908 -76.323913 
L 267.298892 -76.543914 
L 267.298877 -76.763915 
L 267.298862 -76.983915 
L 267.298847 -77.203916 
L 267.298832 -77.423917 
L 267.298817 -77.643917 
L 267.298804 -77.863918 
L 267.298791 -78.083919 
L 267.298781 -78.30392 
L 267.298771 -78.52392 
L 267.298764 -78.743921 
L 267.298758 -78.963922 
L 267.298755 -79.183922 
L 267.298754 -79.403923 
L 267.298755 -79.623924 
L 267.298759 -79.843925 
L 267.298765 -80.063925 
L 267.298773 -80.283926 
L 267.298784 -80.503927 
L 267.298796 -80.723927 
L 267.298811 -80.943928 
L 267.298827 -81.163929 
L 267.298845 -81.383929 
L 267.298865 -81.60393 
L 267.298886 -81.823931 
L 267.298909 -82.043932 
L 267.298933 -82.263932 
L 267.298959 -82.483933 
L 267.298986 -82.703934 
L 267.299014 -82.923934 
L 267.299043 -83.143935 
L 267.299074 -83.363936 
L 267.299106 -83.583936 
L 267.299139 -83.803937 
L 267.299173 -84.023938 
L 267.299209 -84.243939 
L 267.299245 -84.463939 
L 267.299283 -84.68394 
L 267.299321 -84.903941 
L 267.29936 -85.123941 
L 267.299399 -85.343942 
L 267.299439 -85.563943 
L 267.299478 -85.783944 
L 267.299517 -86.003944 
L 267.299556 -86.223945 
L 267.299593 -86.443946 
L 267.29963 -86.663946 
L 267.299665 -86.883947 
L 267.299699 -87.103948 
L 267.299731 -87.323948 
L 267.299761 -87.543949 
L 267.299789 -87.76395 
L 267.299815 -87.983951 
L 267.299838 -88.203951 
L 267.29986 -88.423952 
L 267.29988 -88.643953 
L 267.299897 -88.863953 
L 267.299913 -89.083954 
L 267.299927 -89.303955 
L 267.299939 -89.523955 
L 267.299949 -89.743956 
L 267.300051 -89.743956 
L 267.300051 -89.743956 
L 267.300061 -89.523955 
L 267.300073 -89.303955 
L 267.300087 -89.083954 
L 267.300103 -88.863953 
L 267.30012 -88.643953 
L 267.30014 -88.423952 
L 267.300162 -88.203951 
L 267.300185 -87.983951 
L 267.300211 -87.76395 
L 267.300239 -87.543949 
L 267.300269 -87.323948 
L 267.300301 -87.103948 
L 267.300335 -86.883947 
L 267.30037 -86.663946 
L 267.300407 -86.443946 
L 267.300444 -86.223945 
L 267.300483 -86.003944 
L 267.300522 -85.783944 
L 267.300561 -85.563943 
L 267.300601 -85.343942 
L 267.30064 -85.123941 
L 267.300679 -84.903941 
L 267.300717 -84.68394 
L 267.300755 -84.463939 
L 267.300791 -84.243939 
L 267.300827 -84.023938 
L 267.300861 -83.803937 
L 267.300894 -83.583936 
L 267.300926 -83.363936 
L 267.300957 -83.143935 
L 267.300986 -82.923934 
L 267.301014 -82.703934 
L 267.301041 -82.483933 
L 267.301067 -82.263932 
L 267.301091 -82.043932 
L 267.301114 -81.823931 
L 267.301135 -81.60393 
L 267.301155 -81.383929 
L 267.301173 -81.163929 
L 267.301189 -80.943928 
L 267.301204 -80.723927 
L 267.301216 -80.503927 
L 267.301227 -80.283926 
L 267.301235 -80.063925 
L 267.301241 -79.843925 
L 267.301245 -79.623924 
L 267.301246 -79.403923 
L 267.301245 -79.183922 
L 267.301242 -78.963922 
L 267.301236 -78.743921 
L 267.301229 -78.52392 
L 267.301219 -78.30392 
L 267.301209 -78.083919 
L 267.301196 -77.863918 
L 267.301183 -77.643917 
L 267.301168 -77.423917 
L 267.301153 -77.203916 
L 267.301138 -76.983915 
L 267.301123 -76.763915 
L 267.301108 -76.543914 
L 267.301092 -76.323913 
L 267.301078 -76.103913 
L 267.301063 -75.883912 
L 267.301049 -75.663911 
L 267.301035 -75.44391 
L 267.301021 -75.22391 
L 267.301007 -75.003909 
L 267.300993 -74.783908 
L 267.300977 -74.563908 
L 267.300961 -74.343907 
L 267.300943 -74.123906 
L 267.300924 -73.903906 
L 267.300902 -73.683905 
L 267.300879 -73.463904 
L 267.300853 -73.243903 
L 267.300825 -73.023903 
L 267.300794 -72.803902 
L 267.300761 -72.583901 
L 267.300726 -72.363901 
L 267.300689 -72.1439 
L 267.300651 -71.923899 
L 267.300611 -71.703898 
L 267.30057 -71.483898 
L 267.300528 -71.263897 
L 267.300487 -71.043896 
L 267.300446 -70.823896 
L 267.300405 -70.603895 
L 267.300366 -70.383894 
L 267.300329 -70.163894 
L 267.300293 -69.943893 
L 267.300259 -69.723892 
L 267.300228 -69.503891 
L 267.300199 -69.283891 
L 267.300172 -69.06389 
L 267.300148 -68.843889 
L 267.300126 -68.623889 
L 267.300107 -68.403888 
L 267.30009 -68.183887 
L 267.300075 -67.963887 
z
" style="stroke: #464646; stroke-width: 1.75"/>
    </defs>
    <g clip-path="url(#p1c960823bb)">
     <use xlink:href="#mdfe8e2fbf9" x="0" y="396" style="fill: #49af72; stroke: #464646; stroke-width: 1.75"/>
    </g>
   </g>
   <g id="PolyCollection_5">
    <defs>
     <path id="m28ba6eb9df" d="M 323.100023 -69.750191 
L 323.099977 -69.750191 
L 323.099973 -69.927226 
L 323.099968 -70.104262 
L 323.099963 -70.281297 
L 323.099957 -70.458332 
L 323.099951 -70.635367 
L 323.099944 -70.812402 
L 323.099937 -70.989437 
L 323.099929 -71.166472 
L 323.09992 -71.343507 
L 323.099911 -71.520542 
L 323.099902 -71.697577 
L 323.099892 -71.874613 
L 323.099882 -72.051648 
L 323.099872 -72.228683 
L 323.099861 -72.405718 
L 323.09985 -72.582753 
L 323.09984 -72.759788 
L 323.099829 -72.936823 
L 323.099818 -73.113858 
L 323.099807 -73.290893 
L 323.099796 -73.467928 
L 323.099785 -73.644964 
L 323.099774 -73.821999 
L 323.099763 -73.999034 
L 323.099751 -74.176069 
L 323.099739 -74.353104 
L 323.099727 -74.530139 
L 323.099715 -74.707174 
L 323.099701 -74.884209 
L 323.099687 -75.061244 
L 323.099673 -75.238279 
L 323.099657 -75.415315 
L 323.099641 -75.59235 
L 323.099624 -75.769385 
L 323.099606 -75.94642 
L 323.099588 -76.123455 
L 323.099569 -76.30049 
L 323.09955 -76.477525 
L 323.099531 -76.65456 
L 323.099512 -76.831595 
L 323.099493 -77.00863 
L 323.099475 -77.185666 
L 323.099458 -77.362701 
L 323.099442 -77.539736 
L 323.099427 -77.716771 
L 323.099414 -77.893806 
L 323.099403 -78.070841 
L 323.099393 -78.247876 
L 323.099386 -78.424911 
L 323.099381 -78.601946 
L 323.099378 -78.778981 
L 323.099377 -78.956017 
L 323.099378 -79.133052 
L 323.099382 -79.310087 
L 323.099387 -79.487122 
L 323.099394 -79.664157 
L 323.099403 -79.841192 
L 323.099413 -80.018227 
L 323.099425 -80.195262 
L 323.099438 -80.372297 
L 323.099451 -80.549332 
L 323.099466 -80.726367 
L 323.099481 -80.903403 
L 323.099497 -81.080438 
L 323.099513 -81.257473 
L 323.099529 -81.434508 
L 323.099546 -81.611543 
L 323.099563 -81.788578 
L 323.09958 -81.965613 
L 323.099597 -82.142648 
L 323.099614 -82.319683 
L 323.099631 -82.496718 
L 323.099648 -82.673754 
L 323.099665 -82.850789 
L 323.099683 -83.027824 
L 323.0997 -83.204859 
L 323.099717 -83.381894 
L 323.099734 -83.558929 
L 323.099751 -83.735964 
L 323.099767 -83.912999 
L 323.099783 -84.090034 
L 323.0998 -84.267069 
L 323.099815 -84.444105 
L 323.09983 -84.62114 
L 323.099845 -84.798175 
L 323.099859 -84.97521 
L 323.099873 -85.152245 
L 323.099885 -85.32928 
L 323.099897 -85.506315 
L 323.099909 -85.68335 
L 323.099919 -85.860385 
L 323.099929 -86.03742 
L 323.099938 -86.214456 
L 323.099946 -86.391491 
L 323.099953 -86.568526 
L 323.09996 -86.745561 
L 323.099966 -86.922596 
L 323.099971 -87.099631 
L 323.099975 -87.276666 
L 323.100025 -87.276666 
L 323.100025 -87.276666 
L 323.100029 -87.099631 
L 323.100034 -86.922596 
L 323.10004 -86.745561 
L 323.100047 -86.568526 
L 323.100054 -86.391491 
L 323.100062 -86.214456 
L 323.100071 -86.03742 
L 323.100081 -85.860385 
L 323.100091 -85.68335 
L 323.100103 -85.506315 
L 323.100115 -85.32928 
L 323.100127 -85.152245 
L 323.100141 -84.97521 
L 323.100155 -84.798175 
L 323.10017 -84.62114 
L 323.100185 -84.444105 
L 323.1002 -84.267069 
L 323.100217 -84.090034 
L 323.100233 -83.912999 
L 323.100249 -83.735964 
L 323.100266 -83.558929 
L 323.100283 -83.381894 
L 323.1003 -83.204859 
L 323.100317 -83.027824 
L 323.100335 -82.850789 
L 323.100352 -82.673754 
L 323.100369 -82.496718 
L 323.100386 -82.319683 
L 323.100403 -82.142648 
L 323.10042 -81.965613 
L 323.100437 -81.788578 
L 323.100454 -81.611543 
L 323.100471 -81.434508 
L 323.100487 -81.257473 
L 323.100503 -81.080438 
L 323.100519 -80.903403 
L 323.100534 -80.726367 
L 323.100549 -80.549332 
L 323.100562 -80.372297 
L 323.100575 -80.195262 
L 323.100587 -80.018227 
L 323.100597 -79.841192 
L 323.100606 -79.664157 
L 323.100613 -79.487122 
L 323.100618 -79.310087 
L 323.100622 -79.133052 
L 323.100623 -78.956017 
L 323.100622 -78.778981 
L 323.100619 -78.601946 
L 323.100614 -78.424911 
L 323.100607 -78.247876 
L 323.100597 -78.070841 
L 323.100586 -77.893806 
L 323.100573 -77.716771 
L 323.100558 -77.539736 
L 323.100542 -77.362701 
L 323.100525 -77.185666 
L 323.100507 -77.00863 
L 323.100488 -76.831595 
L 323.100469 -76.65456 
L 323.10045 -76.477525 
L 323.100431 -76.30049 
L 323.100412 -76.123455 
L 323.100394 -75.94642 
L 323.100376 -75.769385 
L 323.100359 -75.59235 
L 323.100343 -75.415315 
L 323.100327 -75.238279 
L 323.100313 -75.061244 
L 323.100299 -74.884209 
L 323.100285 -74.707174 
L 323.100273 -74.530139 
L 323.100261 -74.353104 
L 323.100249 -74.176069 
L 323.100237 -73.999034 
L 323.100226 -73.821999 
L 323.100215 -73.644964 
L 323.100204 -73.467928 
L 323.100193 -73.290893 
L 323.100182 -73.113858 
L 323.100171 -72.936823 
L 323.10016 -72.759788 
L 323.10015 -72.582753 
L 323.100139 -72.405718 
L 323.100128 -72.228683 
L 323.100118 -72.051648 
L 323.100108 -71.874613 
L 323.100098 -71.697577 
L 323.100089 -71.520542 
L 323.10008 -71.343507 
L 323.100071 -71.166472 
L 323.100063 -70.989437 
L 323.100056 -70.812402 
L 323.100049 -70.635367 
L 323.100043 -70.458332 
L 323.100037 -70.281297 
L 323.100032 -70.104262 
L 323.100027 -69.927226 
L 323.100023 -69.750191 
z
" style="stroke: #464646; stroke-width: 1.75"/>
    </defs>
    <g clip-path="url(#p1c960823bb)">
     <use xlink:href="#m28ba6eb9df" x="0" y="396" style="fill: #4baba4; stroke: #464646; stroke-width: 1.75"/>
    </g>
   </g>
   <g id="PolyCollection_6">
    <defs>
     <path id="mfe924e2ff9" d="M 378.900056 -68.348669 
L 378.899944 -68.348669 
L 378.899935 -68.722355 
L 378.899924 -69.096041 
L 378.899912 -69.469728 
L 378.899898 -69.843414 
L 378.899883 -70.2171 
L 378.899867 -70.590786 
L 378.899849 -70.964473 
L 378.89983 -71.338159 
L 378.899809 -71.711845 
L 378.899787 -72.085532 
L 378.899764 -72.459218 
L 378.89974 -72.832904 
L 378.899714 -73.206591 
L 378.899688 -73.580277 
L 378.899661 -73.953963 
L 378.899634 -74.32765 
L 378.899607 -74.701336 
L 378.89958 -75.075022 
L 378.899554 -75.448709 
L 378.899528 -75.822395 
L 378.899504 -76.196081 
L 378.899481 -76.569767 
L 378.89946 -76.943454 
L 378.899441 -77.31714 
L 378.899424 -77.690826 
L 378.899409 -78.064513 
L 378.899397 -78.438199 
L 378.899388 -78.811885 
L 378.899381 -79.185572 
L 378.899378 -79.559258 
L 378.899377 -79.932944 
L 378.899379 -80.306631 
L 378.899383 -80.680317 
L 378.89939 -81.054003 
L 378.899399 -81.42769 
L 378.89941 -81.801376 
L 378.899423 -82.175062 
L 378.899437 -82.548749 
L 378.899453 -82.922435 
L 378.899469 -83.296121 
L 378.899486 -83.669807 
L 378.899504 -84.043494 
L 378.899521 -84.41718 
L 378.899539 -84.790866 
L 378.899556 -85.164553 
L 378.899573 -85.538239 
L 378.899589 -85.911925 
L 378.899604 -86.285612 
L 378.899618 -86.659298 
L 378.899632 -87.032984 
L 378.899644 -87.406671 
L 378.899656 -87.780357 
L 378.899666 -88.154043 
L 378.899676 -88.52773 
L 378.899684 -88.901416 
L 378.899692 -89.275102 
L 378.8997 -89.648788 
L 378.899706 -90.022475 
L 378.899712 -90.396161 
L 378.899718 -90.769847 
L 378.899723 -91.143534 
L 378.899728 -91.51722 
L 378.899733 -91.890906 
L 378.899738 -92.264593 
L 378.899742 -92.638279 
L 378.899747 -93.011965 
L 378.899752 -93.385652 
L 378.899757 -93.759338 
L 378.899763 -94.133024 
L 378.899768 -94.506711 
L 378.899775 -94.880397 
L 378.899781 -95.254083 
L 378.899788 -95.62777 
L 378.899795 -96.001456 
L 378.899803 -96.375142 
L 378.899811 -96.748828 
L 378.899819 -97.122515 
L 378.899827 -97.496201 
L 378.899836 -97.869887 
L 378.899845 -98.243574 
L 378.899854 -98.61726 
L 378.899864 -98.990946 
L 378.899873 -99.364633 
L 378.899882 -99.738319 
L 378.899891 -100.112005 
L 378.899899 -100.485692 
L 378.899908 -100.859378 
L 378.899916 -101.233064 
L 378.899924 -101.606751 
L 378.899931 -101.980437 
L 378.899939 -102.354123 
L 378.899945 -102.727809 
L 378.899951 -103.101496 
L 378.899957 -103.475182 
L 378.899962 -103.848868 
L 378.899967 -104.222555 
L 378.899971 -104.596241 
L 378.899975 -104.969927 
L 378.899979 -105.343614 
L 378.900021 -105.343614 
L 378.900021 -105.343614 
L 378.900025 -104.969927 
L 378.900029 -104.596241 
L 378.900033 -104.222555 
L 378.900038 -103.848868 
L 378.900043 -103.475182 
L 378.900049 -103.101496 
L 378.900055 -102.727809 
L 378.900061 -102.354123 
L 378.900069 -101.980437 
L 378.900076 -101.606751 
L 378.900084 -101.233064 
L 378.900092 -100.859378 
L 378.900101 -100.485692 
L 378.900109 -100.112005 
L 378.900118 -99.738319 
L 378.900127 -99.364633 
L 378.900136 -98.990946 
L 378.900146 -98.61726 
L 378.900155 -98.243574 
L 378.900164 -97.869887 
L 378.900173 -97.496201 
L 378.900181 -97.122515 
L 378.900189 -96.748828 
L 378.900197 -96.375142 
L 378.900205 -96.001456 
L 378.900212 -95.62777 
L 378.900219 -95.254083 
L 378.900225 -94.880397 
L 378.900232 -94.506711 
L 378.900237 -94.133024 
L 378.900243 -93.759338 
L 378.900248 -93.385652 
L 378.900253 -93.011965 
L 378.900258 -92.638279 
L 378.900262 -92.264593 
L 378.900267 -91.890906 
L 378.900272 -91.51722 
L 378.900277 -91.143534 
L 378.900282 -90.769847 
L 378.900288 -90.396161 
L 378.900294 -90.022475 
L 378.9003 -89.648788 
L 378.900308 -89.275102 
L 378.900316 -88.901416 
L 378.900324 -88.52773 
L 378.900334 -88.154043 
L 378.900344 -87.780357 
L 378.900356 -87.406671 
L 378.900368 -87.032984 
L 378.900382 -86.659298 
L 378.900396 -86.285612 
L 378.900411 -85.911925 
L 378.900427 -85.538239 
L 378.900444 -85.164553 
L 378.900461 -84.790866 
L 378.900479 -84.41718 
L 378.900496 -84.043494 
L 378.900514 -83.669807 
L 378.900531 -83.296121 
L 378.900547 -82.922435 
L 378.900563 -82.548749 
L 378.900577 -82.175062 
L 378.90059 -81.801376 
L 378.900601 -81.42769 
L 378.90061 -81.054003 
L 378.900617 -80.680317 
L 378.900621 -80.306631 
L 378.900623 -79.932944 
L 378.900622 -79.559258 
L 378.900619 -79.185572 
L 378.900612 -78.811885 
L 378.900603 -78.438199 
L 378.900591 -78.064513 
L 378.900576 -77.690826 
L 378.900559 -77.31714 
L 378.90054 -76.943454 
L 378.900519 -76.569767 
L 378.900496 -76.196081 
L 378.900472 -75.822395 
L 378.900446 -75.448709 
L 378.90042 -75.075022 
L 378.900393 -74.701336 
L 378.900366 -74.32765 
L 378.900339 -73.953963 
L 378.900312 -73.580277 
L 378.900286 -73.206591 
L 378.90026 -72.832904 
L 378.900236 -72.459218 
L 378.900213 -72.085532 
L 378.900191 -71.711845 
L 378.90017 -71.338159 
L 378.900151 -70.964473 
L 378.900133 -70.590786 
L 378.900117 -70.2171 
L 378.900102 -69.843414 
L 378.900088 -69.469728 
L 378.900076 -69.096041 
L 378.900065 -68.722355 
L 378.900056 -68.348669 
z
" style="stroke: #464646; stroke-width: 1.75"/>
    </defs>
    <g clip-path="url(#p1c960823bb)">
     <use xlink:href="#mfe924e2ff9" x="0" y="396" style="fill: #53accd; stroke: #464646; stroke-width: 1.75"/>
    </g>
   </g>
   <g id="PolyCollection_7">
    <defs>
     <path id="mb02073acd0" d="M 434.700041 -73.845653 
L 434.699959 -73.845653 
L 434.699952 -74.057746 
L 434.699944 -74.269839 
L 434.699934 -74.481932 
L 434.699924 -74.694025 
L 434.699913 -74.906118 
L 434.6999 -75.118211 
L 434.699887 -75.330304 
L 434.699872 -75.542397 
L 434.699855 -75.75449 
L 434.699838 -75.966583 
L 434.699819 -76.178676 
L 434.699799 -76.390769 
L 434.699778 -76.602862 
L 434.699756 -76.814955 
L 434.699733 -77.027048 
L 434.699709 -77.239141 
L 434.699684 -77.451234 
L 434.699659 -77.663327 
L 434.699634 -77.87542 
L 434.699609 -78.087513 
L 434.699584 -78.299606 
L 434.69956 -78.511699 
L 434.699536 -78.723792 
L 434.699513 -78.935885 
L 434.699492 -79.147978 
L 434.699472 -79.360071 
L 434.699453 -79.572165 
L 434.699436 -79.784258 
L 434.699421 -79.996351 
L 434.699408 -80.208444 
L 434.699398 -80.420537 
L 434.699389 -80.63263 
L 434.699383 -80.844723 
L 434.699379 -81.056816 
L 434.699377 -81.268909 
L 434.699377 -81.481002 
L 434.69938 -81.693095 
L 434.699384 -81.905188 
L 434.69939 -82.117281 
L 434.699397 -82.329374 
L 434.699406 -82.541467 
L 434.699416 -82.75356 
L 434.699427 -82.965653 
L 434.699438 -83.177746 
L 434.69945 -83.389839 
L 434.699462 -83.601932 
L 434.699474 -83.814025 
L 434.699486 -84.026118 
L 434.699497 -84.238211 
L 434.699508 -84.450304 
L 434.699518 -84.662397 
L 434.699527 -84.87449 
L 434.699535 -85.086583 
L 434.699542 -85.298676 
L 434.699549 -85.510769 
L 434.699554 -85.722862 
L 434.699558 -85.934955 
L 434.699562 -86.147048 
L 434.699565 -86.359141 
L 434.699567 -86.571235 
L 434.699569 -86.783328 
L 434.699571 -86.995421 
L 434.699572 -87.207514 
L 434.699574 -87.419607 
L 434.699576 -87.6317 
L 434.699578 -87.843793 
L 434.699581 -88.055886 
L 434.699585 -88.267979 
L 434.69959 -88.480072 
L 434.699595 -88.692165 
L 434.699602 -88.904258 
L 434.69961 -89.116351 
L 434.699619 -89.328444 
L 434.699629 -89.540537 
L 434.69964 -89.75263 
L 434.699653 -89.964723 
L 434.699666 -90.176816 
L 434.69968 -90.388909 
L 434.699695 -90.601002 
L 434.699711 -90.813095 
L 434.699727 -91.025188 
L 434.699743 -91.237281 
L 434.69976 -91.449374 
L 434.699776 -91.661467 
L 434.699793 -91.87356 
L 434.699809 -92.085653 
L 434.699825 -92.297746 
L 434.69984 -92.509839 
L 434.699855 -92.721932 
L 434.699869 -92.934025 
L 434.699883 -93.146118 
L 434.699895 -93.358211 
L 434.699907 -93.570305 
L 434.699918 -93.782398 
L 434.699927 -93.994491 
L 434.699937 -94.206584 
L 434.699945 -94.418677 
L 434.699952 -94.63077 
L 434.699959 -94.842863 
L 434.700041 -94.842863 
L 434.700041 -94.842863 
L 434.700048 -94.63077 
L 434.700055 -94.418677 
L 434.700063 -94.206584 
L 434.700073 -93.994491 
L 434.700082 -93.782398 
L 434.700093 -93.570305 
L 434.700105 -93.358211 
L 434.700117 -93.146118 
L 434.700131 -92.934025 
L 434.700145 -92.721932 
L 434.70016 -92.509839 
L 434.700175 -92.297746 
L 434.700191 -92.085653 
L 434.700207 -91.87356 
L 434.700224 -91.661467 
L 434.70024 -91.449374 
L 434.700257 -91.237281 
L 434.700273 -91.025188 
L 434.700289 -90.813095 
L 434.700305 -90.601002 
L 434.70032 -90.388909 
L 434.700334 -90.176816 
L 434.700347 -89.964723 
L 434.70036 -89.75263 
L 434.700371 -89.540537 
L 434.700381 -89.328444 
L 434.70039 -89.116351 
L 434.700398 -88.904258 
L 434.700405 -88.692165 
L 434.70041 -88.480072 
L 434.700415 -88.267979 
L 434.700419 -88.055886 
L 434.700422 -87.843793 
L 434.700424 -87.6317 
L 434.700426 -87.419607 
L 434.700428 -87.207514 
L 434.700429 -86.995421 
L 434.700431 -86.783328 
L 434.700433 -86.571235 
L 434.700435 -86.359141 
L 434.700438 -86.147048 
L 434.700442 -85.934955 
L 434.700446 -85.722862 
L 434.700451 -85.510769 
L 434.700458 -85.298676 
L 434.700465 -85.086583 
L 434.700473 -84.87449 
L 434.700482 -84.662397 
L 434.700492 -84.450304 
L 434.700503 -84.238211 
L 434.700514 -84.026118 
L 434.700526 -83.814025 
L 434.700538 -83.601932 
L 434.70055 -83.389839 
L 434.700562 -83.177746 
L 434.700573 -82.965653 
L 434.700584 -82.75356 
L 434.700594 -82.541467 
L 434.700603 -82.329374 
L 434.70061 -82.117281 
L 434.700616 -81.905188 
L 434.70062 -81.693095 
L 434.700623 -81.481002 
L 434.700623 -81.268909 
L 434.700621 -81.056816 
L 434.700617 -80.844723 
L 434.700611 -80.63263 
L 434.700602 -80.420537 
L 434.700592 -80.208444 
L 434.700579 -79.996351 
L 434.700564 -79.784258 
L 434.700547 -79.572165 
L 434.700528 -79.360071 
L 434.700508 -79.147978 
L 434.700487 -78.935885 
L 434.700464 -78.723792 
L 434.70044 -78.511699 
L 434.700416 -78.299606 
L 434.700391 -78.087513 
L 434.700366 -77.87542 
L 434.700341 -77.663327 
L 434.700316 -77.451234 
L 434.700291 -77.239141 
L 434.700267 -77.027048 
L 434.700244 -76.814955 
L 434.700222 -76.602862 
L 434.700201 -76.390769 
L 434.700181 -76.178676 
L 434.700162 -75.966583 
L 434.700145 -75.75449 
L 434.700128 -75.542397 
L 434.700113 -75.330304 
L 434.7001 -75.118211 
L 434.700087 -74.906118 
L 434.700076 -74.694025 
L 434.700066 -74.481932 
L 434.700056 -74.269839 
L 434.700048 -74.057746 
L 434.700041 -73.845653 
z
" style="stroke: #464646; stroke-width: 1.75"/>
    </defs>
    <g clip-path="url(#p1c960823bb)">
     <use xlink:href="#mb02073acd0" x="0" y="396" style="fill: #b6a8eb; stroke: #464646; stroke-width: 1.75"/>
    </g>
   </g>
   <g id="PolyCollection_8">
    <defs>
     <path id="mc756e13003" d="M 490.50002 -78.589625 
L 490.49998 -78.589625 
L 490.499978 -78.596696 
L 490.499975 -78.603767 
L 490.499973 -78.610838 
L 490.49997 -78.617909 
L 490.499966 -78.62498 
L 490.499963 -78.632051 
L 490.499959 -78.639122 
L 490.499955 -78.646193 
L 490.499951 -78.653264 
L 490.499947 -78.660335 
L 490.499942 -78.667406 
L 490.499938 -78.674477 
L 490.499933 -78.681548 
L 490.499927 -78.688619 
L 490.499922 -78.69569 
L 490.499917 -78.702761 
L 490.499911 -78.709832 
L 490.499906 -78.716903 
L 490.4999 -78.723974 
L 490.499894 -78.731045 
L 490.499888 -78.738116 
L 490.499882 -78.745187 
L 490.499877 -78.752258 
L 490.499871 -78.759329 
L 490.499865 -78.7664 
L 490.49986 -78.773471 
L 490.499854 -78.780542 
L 490.499849 -78.787613 
L 490.499844 -78.794684 
L 490.499839 -78.801755 
L 490.499834 -78.808826 
L 490.49983 -78.815897 
L 490.499825 -78.822968 
L 490.499821 -78.830039 
L 490.499818 -78.83711 
L 490.499814 -78.844181 
L 490.499811 -78.851252 
L 490.499808 -78.858323 
L 490.499805 -78.865394 
L 490.499803 -78.872465 
L 490.499801 -78.879536 
L 490.499799 -78.886607 
L 490.499797 -78.893678 
L 490.499796 -78.900749 
L 490.499795 -78.90782 
L 490.499794 -78.914891 
L 490.499793 -78.921962 
L 490.499793 -78.929033 
L 490.499792 -78.936104 
L 490.499792 -78.943175 
L 490.499793 -78.950246 
L 490.499793 -78.957317 
L 490.499794 -78.964388 
L 490.499795 -78.971459 
L 490.499796 -78.97853 
L 490.499797 -78.985601 
L 490.499799 -78.992672 
L 490.499801 -78.999743 
L 490.499803 -79.006814 
L 490.499805 -79.013885 
L 490.499808 -79.020956 
L 490.499811 -79.028027 
L 490.499814 -79.035098 
L 490.499818 -79.042169 
L 490.499821 -79.04924 
L 490.499825 -79.056311 
L 490.49983 -79.063382 
L 490.499834 -79.070453 
L 490.499839 -79.077524 
L 490.499844 -79.084595 
L 490.499849 -79.091666 
L 490.499854 -79.098737 
L 490.49986 -79.105808 
L 490.499865 -79.112879 
L 490.499871 -79.11995 
L 490.499877 -79.127021 
L 490.499882 -79.134092 
L 490.499888 -79.141163 
L 490.499894 -79.148234 
L 490.4999 -79.155305 
L 490.499906 -79.162376 
L 490.499911 -79.169447 
L 490.499917 -79.176518 
L 490.499922 -79.183589 
L 490.499927 -79.19066 
L 490.499933 -79.197731 
L 490.499938 -79.204802 
L 490.499942 -79.211873 
L 490.499947 -79.218944 
L 490.499951 -79.226015 
L 490.499955 -79.233086 
L 490.499959 -79.240157 
L 490.499963 -79.247228 
L 490.499966 -79.254299 
L 490.49997 -79.26137 
L 490.499973 -79.268441 
L 490.499975 -79.275512 
L 490.499978 -79.282583 
L 490.49998 -79.289654 
L 490.50002 -79.289654 
L 490.50002 -79.289654 
L 490.500022 -79.282583 
L 490.500025 -79.275512 
L 490.500027 -79.268441 
L 490.50003 -79.26137 
L 490.500034 -79.254299 
L 490.500037 -79.247228 
L 490.500041 -79.240157 
L 490.500045 -79.233086 
L 490.500049 -79.226015 
L 490.500053 -79.218944 
L 490.500058 -79.211873 
L 490.500062 -79.204802 
L 490.500067 -79.197731 
L 490.500073 -79.19066 
L 490.500078 -79.183589 
L 490.500083 -79.176518 
L 490.500089 -79.169447 
L 490.500094 -79.162376 
L 490.5001 -79.155305 
L 490.500106 -79.148234 
L 490.500112 -79.141163 
L 490.500118 -79.134092 
L 490.500123 -79.127021 
L 490.500129 -79.11995 
L 490.500135 -79.112879 
L 490.50014 -79.105808 
L 490.500146 -79.098737 
L 490.500151 -79.091666 
L 490.500156 -79.084595 
L 490.500161 -79.077524 
L 490.500166 -79.070453 
L 490.50017 -79.063382 
L 490.500175 -79.056311 
L 490.500179 -79.04924 
L 490.500182 -79.042169 
L 490.500186 -79.035098 
L 490.500189 -79.028027 
L 490.500192 -79.020956 
L 490.500195 -79.013885 
L 490.500197 -79.006814 
L 490.500199 -78.999743 
L 490.500201 -78.992672 
L 490.500203 -78.985601 
L 490.500204 -78.97853 
L 490.500205 -78.971459 
L 490.500206 -78.964388 
L 490.500207 -78.957317 
L 490.500207 -78.950246 
L 490.500208 -78.943175 
L 490.500208 -78.936104 
L 490.500207 -78.929033 
L 490.500207 -78.921962 
L 490.500206 -78.914891 
L 490.500205 -78.90782 
L 490.500204 -78.900749 
L 490.500203 -78.893678 
L 490.500201 -78.886607 
L 490.500199 -78.879536 
L 490.500197 -78.872465 
L 490.500195 -78.865394 
L 490.500192 -78.858323 
L 490.500189 -78.851252 
L 490.500186 -78.844181 
L 490.500182 -78.83711 
L 490.500179 -78.830039 
L 490.500175 -78.822968 
L 490.50017 -78.815897 
L 490.500166 -78.808826 
L 490.500161 -78.801755 
L 490.500156 -78.794684 
L 490.500151 -78.787613 
L 490.500146 -78.780542 
L 490.50014 -78.773471 
L 490.500135 -78.7664 
L 490.500129 -78.759329 
L 490.500123 -78.752258 
L 490.500118 -78.745187 
L 490.500112 -78.738116 
L 490.500106 -78.731045 
L 490.5001 -78.723974 
L 490.500094 -78.716903 
L 490.500089 -78.709832 
L 490.500083 -78.702761 
L 490.500078 -78.69569 
L 490.500073 -78.688619 
L 490.500067 -78.681548 
L 490.500062 -78.674477 
L 490.500058 -78.667406 
L 490.500053 -78.660335 
L 490.500049 -78.653264 
L 490.500045 -78.646193 
L 490.500041 -78.639122 
L 490.500037 -78.632051 
L 490.500034 -78.62498 
L 490.50003 -78.617909 
L 490.500027 -78.610838 
L 490.500025 -78.603767 
L 490.500022 -78.596696 
L 490.50002 -78.589625 
z
" style="stroke: #464646; stroke-width: 1.75"/>
    </defs>
    <g clip-path="url(#p1c960823bb)">
     <use xlink:href="#mc756e13003" x="0" y="396" style="fill: #e78cd7; stroke: #464646; stroke-width: 1.75"/>
    </g>
   </g>
   <g id="line2d_21">
    <path d="M 99.9 329.562446 
L 99.9 250.029472 
" clip-path="url(#p1c960823bb)" style="fill: none; stroke: #464646; stroke-width: 1.75; stroke-linecap: round"/>
   </g>
   <g id="line2d_22">
    <path d="M 99.9 305.047714 
L 99.9 283.039025 
" clip-path="url(#p1c960823bb)" style="fill: none; stroke: #464646; stroke-width: 5.25; stroke-linecap: round"/>
   </g>
   <g id="line2d_23">
    <path d="M 155.7 326.415116 
L 155.7 306.157724 
" clip-path="url(#p1c960823bb)" style="fill: none; stroke: #464646; stroke-width: 1.75; stroke-linecap: round"/>
   </g>
   <g id="line2d_24">
    <path d="M 155.7 322.929004 
L 155.7 315.979918 
" clip-path="url(#p1c960823bb)" style="fill: none; stroke: #464646; stroke-width: 5.25; stroke-linecap: round"/>
   </g>
   <g id="line2d_25">
    <path d="M 211.5 324.644645 
L 211.5 306.093541 
" clip-path="url(#p1c960823bb)" style="fill: none; stroke: #464646; stroke-width: 1.75; stroke-linecap: round"/>
   </g>
   <g id="line2d_26">
    <path d="M 211.5 322.250793 
L 211.5 314.292262 
" clip-path="url(#p1c960823bb)" style="fill: none; stroke: #464646; stroke-width: 5.25; stroke-linecap: round"/>
   </g>
   <g id="line2d_27">
    <path d="M 267.3 323.026698 
L 267.3 311.265459 
" clip-path="url(#p1c960823bb)" style="fill: none; stroke: #464646; stroke-width: 1.75; stroke-linecap: round"/>
   </g>
   <g id="line2d_28">
    <path d="M 267.3 320.506788 
L 267.3 314.612414 
" clip-path="url(#p1c960823bb)" style="fill: none; stroke: #464646; stroke-width: 5.25; stroke-linecap: round"/>
   </g>
   <g id="line2d_29">
    <path d="M 323.1 318.027968 
L 323.1 312.979296 
" clip-path="url(#p1c960823bb)" style="fill: none; stroke: #464646; stroke-width: 1.75; stroke-linecap: round"/>
   </g>
   <g id="line2d_30">
    <path d="M 323.1 318.022828 
L 323.1 315.602784 
" clip-path="url(#p1c960823bb)" style="fill: none; stroke: #464646; stroke-width: 5.25; stroke-linecap: round"/>
   </g>
   <g id="line2d_31">
    <path d="M 378.9 317.847708 
L 378.9 300.460009 
" clip-path="url(#p1c960823bb)" style="fill: none; stroke: #464646; stroke-width: 1.75; stroke-linecap: round"/>
   </g>
   <g id="line2d_32">
    <path d="M 378.9 317.36489 
L 378.9 309.236964 
" clip-path="url(#p1c960823bb)" style="fill: none; stroke: #464646; stroke-width: 5.25; stroke-linecap: round"/>
   </g>
   <g id="line2d_33">
    <path d="M 434.7 316.386659 
L 434.7 306.924826 
" clip-path="url(#p1c960823bb)" style="fill: none; stroke: #464646; stroke-width: 1.75; stroke-linecap: round"/>
   </g>
   <g id="line2d_34">
    <path d="M 434.7 315.121786 
L 434.7 308.543381 
" clip-path="url(#p1c960823bb)" style="fill: none; stroke: #464646; stroke-width: 5.25; stroke-linecap: round"/>
   </g>
   <g id="line2d_35">
    <path d="M 490.5 317.161454 
L 490.5 316.959267 
" clip-path="url(#p1c960823bb)" style="fill: none; stroke: #464646; stroke-width: 1.75; stroke-linecap: round"/>
   </g>
   <g id="line2d_36">
    <path d="M 490.5 317.110907 
L 490.5 317.009814 
" clip-path="url(#p1c960823bb)" style="fill: none; stroke: #464646; stroke-width: 5.25; stroke-linecap: round"/>
   </g>
   <g id="line2d_37">
    <path d="M 72 304.300716 
L 518.4 304.300716 
" clip-path="url(#p1c960823bb)" style="fill: none; stroke-dasharray: 6.475,2.8; stroke-dashoffset: 0; stroke: #ff0000; stroke-width: 1.75"/>
   </g>
   <g id="patch_3">
    <path d="M 72 346.5 
L 72 47.52 
" style="fill: none; stroke: #cccccc; stroke-width: 1.25; stroke-linejoin: miter; stroke-linecap: square"/>
   </g>
   <g id="patch_4">
    <path d="M 518.4 346.5 
L 518.4 47.52 
" style="fill: none; stroke: #cccccc; stroke-width: 1.25; stroke-linejoin: miter; stroke-linecap: square"/>
   </g>
   <g id="patch_5">
    <path d="M 72 346.5 
L 518.4 346.5 
" style="fill: none; stroke: #cccccc; stroke-width: 1.25; stroke-linejoin: miter; stroke-linecap: square"/>
   </g>
   <g id="patch_6">
    <path d="M 72 47.52 
L 518.4 47.52 
" style="fill: none; stroke: #cccccc; stroke-width: 1.25; stroke-linejoin: miter; stroke-linecap: square"/>
   </g>
   <g id="PathCollection_1">
    <defs>
     <path id="m87305e7b69" d="M 0 1.75 
C 0.464105 1.75 0.909265 1.565609 1.237437 1.237437 
C 1.565609 0.909265 1.75 0.464105 1.75 0 
C 1.75 -0.464105 1.565609 -0.909265 1.237437 -1.237437 
C 0.909265 -1.565609 0.464105 -1.75 0 -1.75 
C -0.464105 -1.75 -0.909265 -1.565609 -1.237437 -1.237437 
C -1.565609 -0.909265 -1.75 -0.464105 -1.75 0 
C -1.75 0.464105 -1.565609 0.909265 -1.237437 1.237437 
C -0.909265 1.565609 -0.464105 1.75 0 1.75 
z
" style="stroke: #464646; stroke-width: 0.3"/>
    </defs>
    <g clip-path="url(#p1c960823bb)">
     <use xlink:href="#m87305e7b69" x="99.9" y="296.196618" style="fill: #ffffff; stroke: #464646; stroke-width: 0.3"/>
    </g>
   </g>
   <g id="PathCollection_2">
    <g clip-path="url(#p1c960823bb)">
     <use xlink:href="#m87305e7b69" x="155.7" y="318.948747" style="fill: #ffffff; stroke: #464646; stroke-width: 0.3"/>
    </g>
   </g>
   <g id="PathCollection_3">
    <g clip-path="url(#p1c960823bb)">
     <use xlink:href="#m87305e7b69" x="211.5" y="319.390616" style="fill: #ffffff; stroke: #464646; stroke-width: 0.3"/>
    </g>
   </g>
   <g id="PathCollection_4">
    <g clip-path="url(#p1c960823bb)">
     <use xlink:href="#m87305e7b69" x="267.3" y="317.156665" style="fill: #ffffff; stroke: #464646; stroke-width: 0.3"/>
    </g>
   </g>
   <g id="PathCollection_5">
    <g clip-path="url(#p1c960823bb)">
     <use xlink:href="#m87305e7b69" x="323.1" y="317.467754" style="fill: #ffffff; stroke: #464646; stroke-width: 0.3"/>
    </g>
   </g>
   <g id="PathCollection_6">
    <g clip-path="url(#p1c960823bb)">
     <use xlink:href="#m87305e7b69" x="378.9" y="315.465844" style="fill: #ffffff; stroke: #464646; stroke-width: 0.3"/>
    </g>
   </g>
   <g id="PathCollection_7">
    <g clip-path="url(#p1c960823bb)">
     <use xlink:href="#m87305e7b69" x="434.7" y="313.511417" style="fill: #ffffff; stroke: #464646; stroke-width: 0.3"/>
    </g>
   </g>
   <g id="PathCollection_8">
    <g clip-path="url(#p1c960823bb)">
     <use xlink:href="#m87305e7b69" x="490.5" y="317.060361" style="fill: #ffffff; stroke: #464646; stroke-width: 0.3"/>
    </g>
   </g>
   <g id="text_17">
    <!-- Volume Comparison Vol_Edasi / Vol_Farinotti against Area -->
    <g style="fill: #262626" transform="translate(139.4475 41.52)scale(0.12 -0.12)">
     <defs>
      <path id="LiberationSans-75" d="M 981 3381 
L 981 1238 
Q 981 903 1047 718 
Q 1113 534 1256 453 
Q 1400 372 1678 372 
Q 2084 372 2318 650 
Q 2553 928 2553 1422 
L 2553 3381 
L 3116 3381 
L 3116 722 
Q 3116 131 3134 0 
L 2603 0 
Q 2600 16 2597 84 
Q 2594 153 2589 242 
Q 2584 331 2578 578 
L 2569 578 
Q 2375 228 2120 82 
Q 1866 -63 1488 -63 
Q 931 -63 673 214 
Q 416 491 416 1128 
L 416 3381 
L 981 3381 
z
" transform="scale(0.015625)"/>
      <path id="LiberationSans-43" d="M 2475 3981 
Q 1744 3981 1337 3511 
Q 931 3041 931 2222 
Q 931 1413 1354 920 
Q 1778 428 2500 428 
Q 3425 428 3891 1344 
L 4378 1100 
Q 4106 531 3614 234 
Q 3122 -63 2472 -63 
Q 1806 -63 1320 214 
Q 834 491 579 1005 
Q 325 1519 325 2222 
Q 325 3275 894 3872 
Q 1463 4469 2469 4469 
Q 3172 4469 3644 4194 
Q 4116 3919 4338 3378 
L 3772 3191 
Q 3619 3575 3280 3778 
Q 2941 3981 2475 3981 
z
" transform="scale(0.015625)"/>
      <path id="LiberationSans-70" d="M 3291 1706 
Q 3291 -63 2047 -63 
Q 1266 -63 997 525 
L 981 525 
Q 994 500 994 -6 
L 994 -1328 
L 431 -1328 
L 431 2691 
Q 431 3213 413 3381 
L 956 3381 
Q 959 3369 965 3292 
Q 972 3216 980 3056 
Q 988 2897 988 2838 
L 1000 2838 
Q 1150 3150 1397 3295 
Q 1644 3441 2047 3441 
Q 2672 3441 2981 3022 
Q 3291 2603 3291 1706 
z
M 2700 1694 
Q 2700 2400 2509 2703 
Q 2319 3006 1903 3006 
Q 1569 3006 1380 2865 
Q 1191 2725 1092 2426 
Q 994 2128 994 1650 
Q 994 984 1206 668 
Q 1419 353 1897 353 
Q 2316 353 2508 661 
Q 2700 969 2700 1694 
z
" transform="scale(0.015625)"/>
      <path id="LiberationSans-67" d="M 1713 -1328 
Q 1159 -1328 831 -1111 
Q 503 -894 409 -494 
L 975 -413 
Q 1031 -647 1223 -773 
Q 1416 -900 1728 -900 
Q 2569 -900 2569 84 
L 2569 628 
L 2563 628 
Q 2403 303 2125 139 
Q 1847 -25 1475 -25 
Q 853 -25 561 387 
Q 269 800 269 1684 
Q 269 2581 583 3007 
Q 897 3434 1538 3434 
Q 1897 3434 2161 3270 
Q 2425 3106 2569 2803 
L 2575 2803 
Q 2575 2897 2587 3128 
Q 2600 3359 2613 3381 
L 3147 3381 
Q 3128 3213 3128 2681 
L 3128 97 
Q 3128 -1328 1713 -1328 
z
M 2569 1691 
Q 2569 2103 2456 2401 
Q 2344 2700 2139 2858 
Q 1934 3016 1675 3016 
Q 1244 3016 1047 2703 
Q 850 2391 850 1691 
Q 850 997 1034 694 
Q 1219 391 1666 391 
Q 1931 391 2137 547 
Q 2344 703 2456 995 
Q 2569 1288 2569 1691 
z
" transform="scale(0.015625)"/>
     </defs>
     <use xlink:href="#LiberationSans-56"/>
     <use xlink:href="#LiberationSans-6f" x="61.199219"/>
     <use xlink:href="#LiberationSans-6c" x="116.814453"/>
     <use xlink:href="#LiberationSans-75" x="139.03125"/>
     <use xlink:href="#LiberationSans-6d" x="194.646484"/>
     <use xlink:href="#LiberationSans-65" x="277.947266"/>
     <use xlink:href="#LiberationSans-20" x="333.5625"/>
     <use xlink:href="#LiberationSans-43" x="361.345703"/>
     <use xlink:href="#LiberationSans-6f" x="433.5625"/>
     <use xlink:href="#LiberationSans-6d" x="489.177734"/>
     <use xlink:href="#LiberationSans-70" x="572.478516"/>
     <use xlink:href="#LiberationSans-61" x="628.09375"/>
     <use xlink:href="#LiberationSans-72" x="683.708984"/>
     <use xlink:href="#LiberationSans-69" x="717.009766"/>
     <use xlink:href="#LiberationSans-73" x="739.226562"/>
     <use xlink:href="#LiberationSans-6f" x="789.226562"/>
     <use xlink:href="#LiberationSans-6e" x="844.841797"/>
     <use xlink:href="#LiberationSans-20" x="900.457031"/>
     <use xlink:href="#LiberationSans-56" x="928.240234"/>
     <use xlink:href="#LiberationSans-6f" x="989.439453"/>
     <use xlink:href="#LiberationSans-6c" x="1045.054688"/>
     <use xlink:href="#LiberationSans-5f" x="1067.271484"/>
     <use xlink:href="#LiberationSans-45" x="1122.886719"/>
     <use xlink:href="#LiberationSans-64" x="1189.585938"/>
     <use xlink:href="#LiberationSans-61" x="1245.201172"/>
     <use xlink:href="#LiberationSans-73" x="1300.816406"/>
     <use xlink:href="#LiberationSans-69" x="1350.816406"/>
     <use xlink:href="#LiberationSans-20" x="1373.033203"/>
     <use xlink:href="#LiberationSans-2f" x="1400.816406"/>
     <use xlink:href="#LiberationSans-20" x="1428.599609"/>
     <use xlink:href="#LiberationSans-56" x="1456.382812"/>
     <use xlink:href="#LiberationSans-6f" x="1517.582031"/>
     <use xlink:href="#LiberationSans-6c" x="1573.197266"/>
     <use xlink:href="#LiberationSans-5f" x="1595.414062"/>
     <use xlink:href="#LiberationSans-46" x="1651.029297"/>
     <use xlink:href="#LiberationSans-61" x="1712.113281"/>
     <use xlink:href="#LiberationSans-72" x="1767.728516"/>
     <use xlink:href="#LiberationSans-69" x="1801.029297"/>
     <use xlink:href="#LiberationSans-6e" x="1823.246094"/>
     <use xlink:href="#LiberationSans-6f" x="1878.861328"/>
     <use xlink:href="#LiberationSans-74" x="1934.476562"/>
     <use xlink:href="#LiberationSans-74" x="1962.259766"/>
     <use xlink:href="#LiberationSans-69" x="1990.042969"/>
     <use xlink:href="#LiberationSans-20" x="2012.259766"/>
     <use xlink:href="#LiberationSans-61" x="2040.042969"/>
     <use xlink:href="#LiberationSans-67" x="2095.658203"/>
     <use xlink:href="#LiberationSans-61" x="2151.273438"/>
     <use xlink:href="#LiberationSans-69" x="2206.888672"/>
     <use xlink:href="#LiberationSans-6e" x="2229.105469"/>
     <use xlink:href="#LiberationSans-73" x="2284.720703"/>
     <use xlink:href="#LiberationSans-74" x="2334.720703"/>
     <use xlink:href="#LiberationSans-20" x="2362.503906"/>
     <use xlink:href="#LiberationSans-41" x="2384.787109"/>
     <use xlink:href="#LiberationSans-72" x="2451.486328"/>
     <use xlink:href="#LiberationSans-65" x="2484.787109"/>
     <use xlink:href="#LiberationSans-61" x="2540.402344"/>
    </g>
   </g>
  </g>
 </g>
 <defs>
  <clipPath id="p1c960823bb">
   <rect x="72" y="47.52" width="446.4" height="298.98"/>
  </clipPath>
 </defs>
</svg>
