<?xml version="1.0" encoding="utf-8" standalone="no"?>
<!DOCTYPE svg PUBLIC "-//W3C//DTD SVG 1.1//EN"
  "http://www.w3.org/Graphics/SVG/1.1/DTD/svg11.dtd">
<svg xmlns:xlink="http://www.w3.org/1999/xlink" width="576pt" height="396pt" viewBox="0 0 576 396" xmlns="http://www.w3.org/2000/svg" version="1.1">
 <metadata>
  <rdf:RDF xmlns:dc="http://purl.org/dc/elements/1.1/" xmlns:cc="http://creativecommons.org/ns#" xmlns:rdf="http://www.w3.org/1999/02/22-rdf-syntax-ns#">
   <cc:Work>
    <dc:type rdf:resource="http://purl.org/dc/dcmitype/StillImage"/>
    <dc:date>2022-10-31T10:08:28.379233</dc:date>
    <dc:format>image/svg+xml</dc:format>
    <dc:creator>
     <cc:Agent>
      <dc:title>Matplotlib v3.5.0, https://matplotlib.org/</dc:title>
     </cc:Agent>
    </dc:creator>
   </cc:Work>
  </rdf:RDF>
 </metadata>
 <defs>
  <style type="text/css">*{stroke-linejoin: round; stroke-linecap: butt}</style>
 </defs>
 <g id="figure_1">
  <g id="patch_1">
   <path d="M 0 396 
L 576 396 
L 576 0 
L 0 0 
z
" style="fill: #ffffff"/>
  </g>
  <g id="axes_1">
   <g id="patch_2">
    <path d="M 72 346.5 
L 518.4 346.5 
L 518.4 47.52 
L 72 47.52 
z
" style="fill: #ffffff"/>
   </g>
   <g id="matplotlib.axis_1">
    <g id="xtick_1">
     <g id="line2d_1"/>
     <g id="text_1">
      <!-- -180- -130 -->
      <g style="fill: #262626" transform="translate(78.222656 360.746875)scale(0.1 -0.1)">
       <defs>
        <path id="LiberationSans-2d" d="M 284 1450 
L 284 1950 
L 1847 1950 
L 1847 1450 
L 284 1450 
z
" transform="scale(0.015625)"/>
        <path id="LiberationSans-31" d="M 488 0 
L 488 478 
L 1609 478 
L 1609 3866 
L 616 3156 
L 616 3688 
L 1656 4403 
L 2175 4403 
L 2175 478 
L 3247 478 
L 3247 0 
L 488 0 
z
" transform="scale(0.015625)"/>
        <path id="LiberationSans-38" d="M 3281 1228 
Q 3281 619 2893 278 
Q 2506 -63 1781 -63 
Q 1075 -63 676 271 
Q 278 606 278 1222 
Q 278 1653 525 1947 
Q 772 2241 1156 2303 
L 1156 2316 
Q 797 2400 589 2681 
Q 381 2963 381 3341 
Q 381 3844 757 4156 
Q 1134 4469 1769 4469 
Q 2419 4469 2795 4162 
Q 3172 3856 3172 3334 
Q 3172 2956 2962 2675 
Q 2753 2394 2391 2322 
L 2391 2309 
Q 2813 2241 3047 1952 
Q 3281 1663 3281 1228 
z
M 2588 3303 
Q 2588 4050 1769 4050 
Q 1372 4050 1164 3862 
Q 956 3675 956 3303 
Q 956 2925 1170 2726 
Q 1384 2528 1775 2528 
Q 2172 2528 2380 2711 
Q 2588 2894 2588 3303 
z
M 2697 1281 
Q 2697 1691 2453 1898 
Q 2209 2106 1769 2106 
Q 1341 2106 1100 1882 
Q 859 1659 859 1269 
Q 859 359 1788 359 
Q 2247 359 2472 579 
Q 2697 800 2697 1281 
z
" transform="scale(0.015625)"/>
        <path id="LiberationSans-30" d="M 3309 2203 
Q 3309 1100 2920 518 
Q 2531 -63 1772 -63 
Q 1013 -63 631 515 
Q 250 1094 250 2203 
Q 250 3338 620 3903 
Q 991 4469 1791 4469 
Q 2569 4469 2939 3897 
Q 3309 3325 3309 2203 
z
M 2738 2203 
Q 2738 3156 2517 3584 
Q 2297 4013 1791 4013 
Q 1272 4013 1045 3591 
Q 819 3169 819 2203 
Q 819 1266 1048 831 
Q 1278 397 1778 397 
Q 2275 397 2506 840 
Q 2738 1284 2738 2203 
z
" transform="scale(0.015625)"/>
        <path id="LiberationSans-33" d="M 3278 1216 
Q 3278 606 2890 271 
Q 2503 -63 1784 -63 
Q 1116 -63 717 239 
Q 319 541 244 1131 
L 825 1184 
Q 938 403 1784 403 
Q 2209 403 2451 612 
Q 2694 822 2694 1234 
Q 2694 1594 2417 1795 
Q 2141 1997 1619 1997 
L 1300 1997 
L 1300 2484 
L 1606 2484 
Q 2069 2484 2323 2686 
Q 2578 2888 2578 3244 
Q 2578 3597 2370 3801 
Q 2163 4006 1753 4006 
Q 1381 4006 1151 3815 
Q 922 3625 884 3278 
L 319 3322 
Q 381 3863 767 4166 
Q 1153 4469 1759 4469 
Q 2422 4469 2789 4161 
Q 3156 3853 3156 3303 
Q 3156 2881 2920 2617 
Q 2684 2353 2234 2259 
L 2234 2247 
Q 2728 2194 3003 1916 
Q 3278 1638 3278 1216 
z
" transform="scale(0.015625)"/>
       </defs>
       <use xlink:href="#LiberationSans-2d"/>
       <use xlink:href="#LiberationSans-31" x="33.300781"/>
       <use xlink:href="#LiberationSans-38" x="88.916016"/>
       <use xlink:href="#LiberationSans-30" x="144.53125"/>
       <use xlink:href="#LiberationSans-2d" x="200.146484"/>
       <use xlink:href="#LiberationSans-2d" x="233.447266"/>
       <use xlink:href="#LiberationSans-31" x="266.748047"/>
       <use xlink:href="#LiberationSans-33" x="322.363281"/>
       <use xlink:href="#LiberationSans-30" x="377.978516"/>
      </g>
     </g>
    </g>
    <g id="xtick_2">
     <g id="line2d_2"/>
     <g id="text_2">
      <!-- -130- -80 -->
      <g style="fill: #262626" transform="translate(136.803125 360.746875)scale(0.1 -0.1)">
       <use xlink:href="#LiberationSans-2d"/>
       <use xlink:href="#LiberationSans-31" x="33.300781"/>
       <use xlink:href="#LiberationSans-33" x="88.916016"/>
       <use xlink:href="#LiberationSans-30" x="144.53125"/>
       <use xlink:href="#LiberationSans-2d" x="200.146484"/>
       <use xlink:href="#LiberationSans-2d" x="233.447266"/>
       <use xlink:href="#LiberationSans-38" x="266.748047"/>
       <use xlink:href="#LiberationSans-30" x="322.363281"/>
      </g>
     </g>
    </g>
    <g id="xtick_3">
     <g id="line2d_3"/>
     <g id="text_3">
      <!-- -80- -30 -->
      <g style="fill: #262626" transform="translate(195.383594 360.746875)scale(0.1 -0.1)">
       <use xlink:href="#LiberationSans-2d"/>
       <use xlink:href="#LiberationSans-38" x="33.300781"/>
       <use xlink:href="#LiberationSans-30" x="88.916016"/>
       <use xlink:href="#LiberationSans-2d" x="144.53125"/>
       <use xlink:href="#LiberationSans-2d" x="177.832031"/>
       <use xlink:href="#LiberationSans-33" x="211.132812"/>
       <use xlink:href="#LiberationSans-30" x="266.748047"/>
      </g>
     </g>
    </g>
    <g id="xtick_4">
     <g id="line2d_4"/>
     <g id="text_4">
      <!-- -30-20 -->
      <g style="fill: #262626" transform="translate(252.848437 360.746875)scale(0.1 -0.1)">
       <defs>
        <path id="LiberationSans-32" d="M 322 0 
L 322 397 
Q 481 763 711 1042 
Q 941 1322 1194 1548 
Q 1447 1775 1695 1969 
Q 1944 2163 2144 2356 
Q 2344 2550 2467 2762 
Q 2591 2975 2591 3244 
Q 2591 3606 2378 3806 
Q 2166 4006 1788 4006 
Q 1428 4006 1195 3811 
Q 963 3616 922 3263 
L 347 3316 
Q 409 3844 795 4156 
Q 1181 4469 1788 4469 
Q 2453 4469 2811 4155 
Q 3169 3841 3169 3263 
Q 3169 3006 3051 2753 
Q 2934 2500 2703 2247 
Q 2472 1994 1819 1463 
Q 1459 1169 1246 933 
Q 1034 697 941 478 
L 3238 478 
L 3238 0 
L 322 0 
z
" transform="scale(0.015625)"/>
       </defs>
       <use xlink:href="#LiberationSans-2d"/>
       <use xlink:href="#LiberationSans-33" x="33.300781"/>
       <use xlink:href="#LiberationSans-30" x="88.916016"/>
       <use xlink:href="#LiberationSans-2d" x="144.53125"/>
       <use xlink:href="#LiberationSans-32" x="177.832031"/>
       <use xlink:href="#LiberationSans-30" x="233.447266"/>
      </g>
     </g>
    </g>
    <g id="xtick_5">
     <g id="line2d_5"/>
     <g id="text_5">
      <!-- 20-70 -->
      <g style="fill: #262626" transform="translate(310.313281 360.746875)scale(0.1 -0.1)">
       <defs>
        <path id="LiberationSans-37" d="M 3238 3947 
Q 2563 2916 2284 2331 
Q 2006 1747 1867 1178 
Q 1728 609 1728 0 
L 1141 0 
Q 1141 844 1498 1776 
Q 1856 2709 2694 3925 
L 328 3925 
L 328 4403 
L 3238 4403 
L 3238 3947 
z
" transform="scale(0.015625)"/>
       </defs>
       <use xlink:href="#LiberationSans-32"/>
       <use xlink:href="#LiberationSans-30" x="55.615234"/>
       <use xlink:href="#LiberationSans-2d" x="111.230469"/>
       <use xlink:href="#LiberationSans-37" x="144.53125"/>
       <use xlink:href="#LiberationSans-30" x="200.146484"/>
      </g>
     </g>
    </g>
    <g id="xtick_6">
     <g id="line2d_6"/>
     <g id="text_6">
      <!-- 70-120 -->
      <g style="fill: #262626" transform="translate(363.332812 360.746875)scale(0.1 -0.1)">
       <use xlink:href="#LiberationSans-37"/>
       <use xlink:href="#LiberationSans-30" x="55.615234"/>
       <use xlink:href="#LiberationSans-2d" x="111.230469"/>
       <use xlink:href="#LiberationSans-31" x="144.53125"/>
       <use xlink:href="#LiberationSans-32" x="200.146484"/>
       <use xlink:href="#LiberationSans-30" x="255.761719"/>
      </g>
     </g>
    </g>
    <g id="xtick_7">
     <g id="line2d_7"/>
     <g id="text_7">
      <!-- 120-170 -->
      <g style="fill: #262626" transform="translate(416.352344 360.746875)scale(0.1 -0.1)">
       <use xlink:href="#LiberationSans-31"/>
       <use xlink:href="#LiberationSans-32" x="55.615234"/>
       <use xlink:href="#LiberationSans-30" x="111.230469"/>
       <use xlink:href="#LiberationSans-2d" x="166.845703"/>
       <use xlink:href="#LiberationSans-31" x="200.146484"/>
       <use xlink:href="#LiberationSans-37" x="255.761719"/>
       <use xlink:href="#LiberationSans-30" x="311.376953"/>
      </g>
     </g>
    </g>
    <g id="xtick_8">
     <g id="line2d_8"/>
     <g id="text_8">
      <!-- 170-220 -->
      <g style="fill: #262626" transform="translate(472.152344 360.746875)scale(0.1 -0.1)">
       <use xlink:href="#LiberationSans-31"/>
       <use xlink:href="#LiberationSans-37" x="55.615234"/>
       <use xlink:href="#LiberationSans-30" x="111.230469"/>
       <use xlink:href="#LiberationSans-2d" x="166.845703"/>
       <use xlink:href="#LiberationSans-32" x="200.146484"/>
       <use xlink:href="#LiberationSans-32" x="255.761719"/>
       <use xlink:href="#LiberationSans-30" x="311.376953"/>
      </g>
     </g>
    </g>
    <g id="text_9">
     <!-- Longitude (degrees) -->
     <g style="fill: #262626" transform="translate(245.975859 374.793437)scale(0.11 -0.11)">
      <defs>
       <path id="LiberationSans-4c" d="M 525 0 
L 525 4403 
L 1122 4403 
L 1122 488 
L 3347 488 
L 3347 0 
L 525 0 
z
" transform="scale(0.015625)"/>
       <path id="LiberationSans-6f" d="M 3291 1694 
Q 3291 806 2900 371 
Q 2509 -63 1766 -63 
Q 1025 -63 647 389 
Q 269 841 269 1694 
Q 269 3444 1784 3444 
Q 2559 3444 2925 3017 
Q 3291 2591 3291 1694 
z
M 2700 1694 
Q 2700 2394 2492 2711 
Q 2284 3028 1794 3028 
Q 1300 3028 1079 2704 
Q 859 2381 859 1694 
Q 859 1025 1076 689 
Q 1294 353 1759 353 
Q 2266 353 2483 678 
Q 2700 1003 2700 1694 
z
" transform="scale(0.015625)"/>
       <path id="LiberationSans-6e" d="M 2578 0 
L 2578 2144 
Q 2578 2478 2512 2662 
Q 2447 2847 2303 2928 
Q 2159 3009 1881 3009 
Q 1475 3009 1240 2731 
Q 1006 2453 1006 1959 
L 1006 0 
L 444 0 
L 444 2659 
Q 444 3250 425 3381 
L 956 3381 
Q 959 3366 962 3297 
Q 966 3228 970 3139 
Q 975 3050 981 2803 
L 991 2803 
Q 1184 3153 1439 3298 
Q 1694 3444 2072 3444 
Q 2628 3444 2886 3167 
Q 3144 2891 3144 2253 
L 3144 0 
L 2578 0 
z
" transform="scale(0.015625)"/>
       <path id="LiberationSans-67" d="M 1713 -1328 
Q 1159 -1328 831 -1111 
Q 503 -894 409 -494 
L 975 -413 
Q 1031 -647 1223 -773 
Q 1416 -900 1728 -900 
Q 2569 -900 2569 84 
L 2569 628 
L 2563 628 
Q 2403 303 2125 139 
Q 1847 -25 1475 -25 
Q 853 -25 561 387 
Q 269 800 269 1684 
Q 269 2581 583 3007 
Q 897 3434 1538 3434 
Q 1897 3434 2161 3270 
Q 2425 3106 2569 2803 
L 2575 2803 
Q 2575 2897 2587 3128 
Q 2600 3359 2613 3381 
L 3147 3381 
Q 3128 3213 3128 2681 
L 3128 97 
Q 3128 -1328 1713 -1328 
z
M 2569 1691 
Q 2569 2103 2456 2401 
Q 2344 2700 2139 2858 
Q 1934 3016 1675 3016 
Q 1244 3016 1047 2703 
Q 850 2391 850 1691 
Q 850 997 1034 694 
Q 1219 391 1666 391 
Q 1931 391 2137 547 
Q 2344 703 2456 995 
Q 2569 1288 2569 1691 
z
" transform="scale(0.015625)"/>
       <path id="LiberationSans-69" d="M 428 4100 
L 428 4638 
L 991 4638 
L 991 4100 
L 428 4100 
z
M 428 0 
L 428 3381 
L 991 3381 
L 991 0 
L 428 0 
z
" transform="scale(0.015625)"/>
       <path id="LiberationSans-74" d="M 1731 25 
Q 1453 -50 1163 -50 
Q 488 -50 488 716 
L 488 2972 
L 97 2972 
L 97 3381 
L 509 3381 
L 675 4138 
L 1050 4138 
L 1050 3381 
L 1675 3381 
L 1675 2972 
L 1050 2972 
L 1050 838 
Q 1050 594 1129 495 
Q 1209 397 1406 397 
Q 1519 397 1731 441 
L 1731 25 
z
" transform="scale(0.015625)"/>
       <path id="LiberationSans-75" d="M 981 3381 
L 981 1238 
Q 981 903 1047 718 
Q 1113 534 1256 453 
Q 1400 372 1678 372 
Q 2084 372 2318 650 
Q 2553 928 2553 1422 
L 2553 3381 
L 3116 3381 
L 3116 722 
Q 3116 131 3134 0 
L 2603 0 
Q 2600 16 2597 84 
Q 2594 153 2589 242 
Q 2584 331 2578 578 
L 2569 578 
Q 2375 228 2120 82 
Q 1866 -63 1488 -63 
Q 931 -63 673 214 
Q 416 491 416 1128 
L 416 3381 
L 981 3381 
z
" transform="scale(0.015625)"/>
       <path id="LiberationSans-64" d="M 2566 544 
Q 2409 219 2151 78 
Q 1894 -63 1513 -63 
Q 872 -63 570 368 
Q 269 800 269 1675 
Q 269 3444 1513 3444 
Q 1897 3444 2153 3303 
Q 2409 3163 2566 2856 
L 2572 2856 
L 2566 3234 
L 2566 4638 
L 3128 4638 
L 3128 697 
Q 3128 169 3147 0 
L 2609 0 
Q 2600 50 2589 231 
Q 2578 413 2578 544 
L 2566 544 
z
M 859 1694 
Q 859 984 1046 678 
Q 1234 372 1656 372 
Q 2134 372 2350 703 
Q 2566 1034 2566 1731 
Q 2566 2403 2350 2715 
Q 2134 3028 1663 3028 
Q 1238 3028 1048 2714 
Q 859 2400 859 1694 
z
" transform="scale(0.015625)"/>
       <path id="LiberationSans-65" d="M 863 1572 
Q 863 991 1103 675 
Q 1344 359 1806 359 
Q 2172 359 2392 506 
Q 2613 653 2691 878 
L 3184 738 
Q 2881 -63 1806 -63 
Q 1056 -63 664 384 
Q 272 831 272 1713 
Q 272 2550 664 2997 
Q 1056 3444 1784 3444 
Q 3275 3444 3275 1647 
L 3275 1572 
L 863 1572 
z
M 2694 2003 
Q 2647 2538 2422 2783 
Q 2197 3028 1775 3028 
Q 1366 3028 1127 2754 
Q 888 2481 869 2003 
L 2694 2003 
z
" transform="scale(0.015625)"/>
       <path id="LiberationSans-20" transform="scale(0.015625)"/>
       <path id="LiberationSans-28" d="M 397 1663 
Q 397 2566 680 3284 
Q 963 4003 1550 4638 
L 2094 4638 
Q 1509 3988 1236 3256 
Q 963 2525 963 1656 
Q 963 791 1233 62 
Q 1503 -666 2094 -1325 
L 1550 -1325 
Q 959 -688 678 32 
Q 397 753 397 1650 
L 397 1663 
z
" transform="scale(0.015625)"/>
       <path id="LiberationSans-72" d="M 444 0 
L 444 2594 
Q 444 2950 425 3381 
L 956 3381 
Q 981 2806 981 2691 
L 994 2691 
Q 1128 3125 1303 3284 
Q 1478 3444 1797 3444 
Q 1909 3444 2025 3413 
L 2025 2897 
Q 1913 2928 1725 2928 
Q 1375 2928 1190 2626 
Q 1006 2325 1006 1763 
L 1006 0 
L 444 0 
z
" transform="scale(0.015625)"/>
       <path id="LiberationSans-73" d="M 2969 934 
Q 2969 456 2608 196 
Q 2247 -63 1597 -63 
Q 966 -63 623 145 
Q 281 353 178 794 
L 675 891 
Q 747 619 972 492 
Q 1197 366 1597 366 
Q 2025 366 2223 497 
Q 2422 628 2422 891 
Q 2422 1091 2284 1216 
Q 2147 1341 1841 1422 
L 1438 1528 
Q 953 1653 748 1773 
Q 544 1894 428 2066 
Q 313 2238 313 2488 
Q 313 2950 642 3192 
Q 972 3434 1603 3434 
Q 2163 3434 2492 3237 
Q 2822 3041 2909 2606 
L 2403 2544 
Q 2356 2769 2151 2889 
Q 1947 3009 1603 3009 
Q 1222 3009 1040 2893 
Q 859 2778 859 2544 
Q 859 2400 934 2306 
Q 1009 2213 1156 2147 
Q 1303 2081 1775 1966 
Q 2222 1853 2419 1758 
Q 2616 1663 2730 1547 
Q 2844 1431 2906 1279 
Q 2969 1128 2969 934 
z
" transform="scale(0.015625)"/>
       <path id="LiberationSans-29" d="M 1734 1650 
Q 1734 747 1451 28 
Q 1169 -691 581 -1325 
L 38 -1325 
Q 625 -669 897 57 
Q 1169 784 1169 1656 
Q 1169 2528 895 3256 
Q 622 3984 38 4638 
L 581 4638 
Q 1172 4000 1453 3279 
Q 1734 2559 1734 1663 
L 1734 1650 
z
" transform="scale(0.015625)"/>
      </defs>
      <use xlink:href="#LiberationSans-4c"/>
      <use xlink:href="#LiberationSans-6f" x="55.615234"/>
      <use xlink:href="#LiberationSans-6e" x="111.230469"/>
      <use xlink:href="#LiberationSans-67" x="166.845703"/>
      <use xlink:href="#LiberationSans-69" x="222.460938"/>
      <use xlink:href="#LiberationSans-74" x="244.677734"/>
      <use xlink:href="#LiberationSans-75" x="272.460938"/>
      <use xlink:href="#LiberationSans-64" x="328.076172"/>
      <use xlink:href="#LiberationSans-65" x="383.691406"/>
      <use xlink:href="#LiberationSans-20" x="439.306641"/>
      <use xlink:href="#LiberationSans-28" x="467.089844"/>
      <use xlink:href="#LiberationSans-64" x="500.390625"/>
      <use xlink:href="#LiberationSans-65" x="556.005859"/>
      <use xlink:href="#LiberationSans-67" x="611.621094"/>
      <use xlink:href="#LiberationSans-72" x="667.236328"/>
      <use xlink:href="#LiberationSans-65" x="700.537109"/>
      <use xlink:href="#LiberationSans-65" x="756.152344"/>
      <use xlink:href="#LiberationSans-73" x="811.767578"/>
      <use xlink:href="#LiberationSans-29" x="861.767578"/>
     </g>
    </g>
   </g>
   <g id="matplotlib.axis_2">
    <g id="ytick_1">
     <g id="line2d_9">
      <path d="M 72 328.94235 
L 518.4 328.94235 
" clip-path="url(#pde1c13c5c7)" style="fill: none; stroke: #cccccc; stroke-linecap: round"/>
     </g>
     <g id="line2d_10"/>
     <g id="text_10">
      <!-- 0 -->
      <g style="fill: #262626" transform="translate(59.439062 332.565788)scale(0.1 -0.1)">
       <use xlink:href="#LiberationSans-30"/>
      </g>
     </g>
    </g>
    <g id="ytick_2">
     <g id="line2d_11">
      <path d="M 72 276.773851 
L 518.4 276.773851 
" clip-path="url(#pde1c13c5c7)" style="fill: none; stroke: #cccccc; stroke-linecap: round"/>
     </g>
     <g id="line2d_12"/>
     <g id="text_11">
      <!-- 2 -->
      <g style="fill: #262626" transform="translate(59.439062 280.397288)scale(0.1 -0.1)">
       <use xlink:href="#LiberationSans-32"/>
      </g>
     </g>
    </g>
    <g id="ytick_3">
     <g id="line2d_13">
      <path d="M 72 224.605352 
L 518.4 224.605352 
" clip-path="url(#pde1c13c5c7)" style="fill: none; stroke: #cccccc; stroke-linecap: round"/>
     </g>
     <g id="line2d_14"/>
     <g id="text_12">
      <!-- 4 -->
      <g style="fill: #262626" transform="translate(59.439062 228.228789)scale(0.1 -0.1)">
       <defs>
        <path id="LiberationSans-34" d="M 2753 997 
L 2753 0 
L 2222 0 
L 2222 997 
L 147 997 
L 147 1434 
L 2163 4403 
L 2753 4403 
L 2753 1441 
L 3372 1441 
L 3372 997 
L 2753 997 
z
M 2222 3769 
Q 2216 3750 2134 3603 
Q 2053 3456 2013 3397 
L 884 1734 
L 716 1503 
L 666 1441 
L 2222 1441 
L 2222 3769 
z
" transform="scale(0.015625)"/>
       </defs>
       <use xlink:href="#LiberationSans-34"/>
      </g>
     </g>
    </g>
    <g id="ytick_4">
     <g id="line2d_15">
      <path d="M 72 172.436852 
L 518.4 172.436852 
" clip-path="url(#pde1c13c5c7)" style="fill: none; stroke: #cccccc; stroke-linecap: round"/>
     </g>
     <g id="line2d_16"/>
     <g id="text_13">
      <!-- 6 -->
      <g style="fill: #262626" transform="translate(59.439062 176.06029)scale(0.1 -0.1)">
       <defs>
        <path id="LiberationSans-36" d="M 3278 1441 
Q 3278 744 2900 340 
Q 2522 -63 1856 -63 
Q 1113 -63 719 490 
Q 325 1044 325 2100 
Q 325 3244 734 3856 
Q 1144 4469 1900 4469 
Q 2897 4469 3156 3572 
L 2619 3475 
Q 2453 4013 1894 4013 
Q 1413 4013 1148 3564 
Q 884 3116 884 2266 
Q 1038 2550 1316 2698 
Q 1594 2847 1953 2847 
Q 2563 2847 2920 2465 
Q 3278 2084 3278 1441 
z
M 2706 1416 
Q 2706 1894 2472 2153 
Q 2238 2413 1819 2413 
Q 1425 2413 1183 2183 
Q 941 1953 941 1550 
Q 941 1041 1192 716 
Q 1444 391 1838 391 
Q 2244 391 2475 664 
Q 2706 938 2706 1416 
z
" transform="scale(0.015625)"/>
       </defs>
       <use xlink:href="#LiberationSans-36"/>
      </g>
     </g>
    </g>
    <g id="ytick_5">
     <g id="line2d_17">
      <path d="M 72 120.268353 
L 518.4 120.268353 
" clip-path="url(#pde1c13c5c7)" style="fill: none; stroke: #cccccc; stroke-linecap: round"/>
     </g>
     <g id="line2d_18"/>
     <g id="text_14">
      <!-- 8 -->
      <g style="fill: #262626" transform="translate(59.439062 123.891791)scale(0.1 -0.1)">
       <use xlink:href="#LiberationSans-38"/>
      </g>
     </g>
    </g>
    <g id="ytick_6">
     <g id="line2d_19">
      <path d="M 72 68.099854 
L 518.4 68.099854 
" clip-path="url(#pde1c13c5c7)" style="fill: none; stroke: #cccccc; stroke-linecap: round"/>
     </g>
     <g id="line2d_20"/>
     <g id="text_15">
      <!-- 10 -->
      <g style="fill: #262626" transform="translate(53.878125 71.723291)scale(0.1 -0.1)">
       <use xlink:href="#LiberationSans-31"/>
       <use xlink:href="#LiberationSans-30" x="55.615234"/>
      </g>
     </g>
    </g>
    <g id="text_16">
     <!-- Vol_Edasi / Vol_Farinotti -->
     <g style="fill: #262626" transform="translate(47.595625 256.628281)rotate(-90)scale(0.11 -0.11)">
      <defs>
       <path id="LiberationSans-56" d="M 2444 0 
L 1825 0 
L 28 4403 
L 656 4403 
L 1875 1303 
L 2138 525 
L 2400 1303 
L 3613 4403 
L 4241 4403 
L 2444 0 
z
" transform="scale(0.015625)"/>
       <path id="LiberationSans-6c" d="M 431 0 
L 431 4638 
L 994 4638 
L 994 0 
L 431 0 
z
" transform="scale(0.015625)"/>
       <path id="LiberationSans-5f" d="M -97 -1272 
L -97 -866 
L 3631 -866 
L 3631 -1272 
L -97 -1272 
z
" transform="scale(0.015625)"/>
       <path id="LiberationSans-45" d="M 525 0 
L 525 4403 
L 3866 4403 
L 3866 3916 
L 1122 3916 
L 1122 2503 
L 3678 2503 
L 3678 2022 
L 1122 2022 
L 1122 488 
L 3994 488 
L 3994 0 
L 525 0 
z
" transform="scale(0.015625)"/>
       <path id="LiberationSans-61" d="M 1294 -63 
Q 784 -63 528 206 
Q 272 475 272 944 
Q 272 1469 617 1750 
Q 963 2031 1731 2050 
L 2491 2063 
L 2491 2247 
Q 2491 2659 2316 2837 
Q 2141 3016 1766 3016 
Q 1388 3016 1216 2887 
Q 1044 2759 1009 2478 
L 422 2531 
Q 566 3444 1778 3444 
Q 2416 3444 2737 3151 
Q 3059 2859 3059 2306 
L 3059 850 
Q 3059 600 3125 473 
Q 3191 347 3375 347 
Q 3456 347 3559 369 
L 3559 19 
Q 3347 -31 3125 -31 
Q 2813 -31 2670 133 
Q 2528 297 2509 647 
L 2491 647 
Q 2275 259 1989 98 
Q 1703 -63 1294 -63 
z
M 1422 359 
Q 1731 359 1972 500 
Q 2213 641 2352 886 
Q 2491 1131 2491 1391 
L 2491 1669 
L 1875 1656 
Q 1478 1650 1273 1575 
Q 1069 1500 959 1344 
Q 850 1188 850 934 
Q 850 659 998 509 
Q 1147 359 1422 359 
z
" transform="scale(0.015625)"/>
       <path id="LiberationSans-2f" d="M 0 -63 
L 1284 4638 
L 1778 4638 
L 506 -63 
L 0 -63 
z
" transform="scale(0.015625)"/>
       <path id="LiberationSans-46" d="M 1122 3916 
L 1122 2278 
L 3578 2278 
L 3578 1784 
L 1122 1784 
L 1122 0 
L 525 0 
L 525 4403 
L 3653 4403 
L 3653 3916 
L 1122 3916 
z
" transform="scale(0.015625)"/>
      </defs>
      <use xlink:href="#LiberationSans-56"/>
      <use xlink:href="#LiberationSans-6f" x="61.199219"/>
      <use xlink:href="#LiberationSans-6c" x="116.814453"/>
      <use xlink:href="#LiberationSans-5f" x="139.03125"/>
      <use xlink:href="#LiberationSans-45" x="194.646484"/>
      <use xlink:href="#LiberationSans-64" x="261.345703"/>
      <use xlink:href="#LiberationSans-61" x="316.960938"/>
      <use xlink:href="#LiberationSans-73" x="372.576172"/>
      <use xlink:href="#LiberationSans-69" x="422.576172"/>
      <use xlink:href="#LiberationSans-20" x="444.792969"/>
      <use xlink:href="#LiberationSans-2f" x="472.576172"/>
      <use xlink:href="#LiberationSans-20" x="500.359375"/>
      <use xlink:href="#LiberationSans-56" x="528.142578"/>
      <use xlink:href="#LiberationSans-6f" x="589.341797"/>
      <use xlink:href="#LiberationSans-6c" x="644.957031"/>
      <use xlink:href="#LiberationSans-5f" x="667.173828"/>
      <use xlink:href="#LiberationSans-46" x="722.789062"/>
      <use xlink:href="#LiberationSans-61" x="783.873047"/>
      <use xlink:href="#LiberationSans-72" x="839.488281"/>
      <use xlink:href="#LiberationSans-69" x="872.789062"/>
      <use xlink:href="#LiberationSans-6e" x="895.005859"/>
      <use xlink:href="#LiberationSans-6f" x="950.621094"/>
      <use xlink:href="#LiberationSans-74" x="1006.236328"/>
      <use xlink:href="#LiberationSans-74" x="1034.019531"/>
      <use xlink:href="#LiberationSans-69" x="1061.802734"/>
     </g>
    </g>
   </g>
   <g id="PolyCollection_1">
    <defs>
     <path id="m4d3cb356da" d="M 99.900262 -68.556705 
L 99.899738 -68.556705 
L 99.895564 -70.800687 
L 99.882315 -73.044668 
L 99.843364 -75.288649 
L 99.722699 -77.53263 
L 99.329212 -79.776611 
L 98.245792 -82.020592 
L 96.314456 -84.264573 
L 94.555491 -86.508554 
L 93.920645 -88.752535 
L 94.031108 -90.996516 
L 94.571908 -93.240497 
L 95.289889 -95.484478 
L 96.157227 -97.728459 
L 96.933241 -99.97244 
L 97.579285 -102.216421 
L 98.094663 -104.460402 
L 98.455031 -106.704384 
L 98.809024 -108.948365 
L 99.052745 -111.192346 
L 99.249858 -113.436327 
L 99.415771 -115.680308 
L 99.512732 -117.924289 
L 99.581741 -120.16827 
L 99.641332 -122.412251 
L 99.714925 -124.656232 
L 99.746521 -126.900213 
L 99.774326 -129.144194 
L 99.805954 -131.388175 
L 99.807236 -133.632156 
L 99.816769 -135.876137 
L 99.840021 -138.120118 
L 99.849868 -140.3641 
L 99.864167 -142.608081 
L 99.869019 -144.852062 
L 99.871922 -147.096043 
L 99.873953 -149.340024 
L 99.879657 -151.584005 
L 99.882263 -153.827986 
L 99.889917 -156.071967 
L 99.891797 -158.315948 
L 99.893271 -160.559929 
L 99.894258 -162.80391 
L 99.894429 -165.047891 
L 99.893108 -167.291872 
L 99.894932 -169.535853 
L 99.8952 -171.779834 
L 99.895062 -174.023816 
L 99.897786 -176.267797 
L 99.898924 -178.511778 
L 99.899898 -180.755759 
L 99.899699 -182.99974 
L 99.898471 -185.243721 
L 99.898211 -187.487702 
L 99.898355 -189.731683 
L 99.898549 -191.975664 
L 99.899016 -194.219645 
L 99.899798 -196.463626 
L 99.898889 -198.707607 
L 99.899323 -200.951588 
L 99.899971 -203.195569 
L 99.9 -205.43955 
L 99.9 -207.683532 
L 99.9 -209.927513 
L 99.9 -212.171494 
L 99.9 -214.415475 
L 99.9 -216.659456 
L 99.9 -218.903437 
L 99.9 -221.147418 
L 99.9 -223.391399 
L 99.9 -225.63538 
L 99.9 -227.879361 
L 99.9 -230.123342 
L 99.9 -232.367323 
L 99.9 -234.611304 
L 99.9 -236.855285 
L 99.9 -239.099266 
L 99.9 -241.343248 
L 99.9 -243.587229 
L 99.9 -245.83121 
L 99.9 -248.075191 
L 99.9 -250.319172 
L 99.9 -252.563153 
L 99.9 -254.807134 
L 99.9 -257.051115 
L 99.9 -259.295096 
L 99.9 -261.539077 
L 99.9 -263.783058 
L 99.9 -266.027039 
L 99.9 -268.27102 
L 99.9 -270.515001 
L 99.9 -272.758982 
L 99.9 -275.002964 
L 99.9 -277.246945 
L 99.9 -279.490926 
L 99.9 -281.734907 
L 99.899981 -283.978888 
L 99.899433 -286.222869 
L 99.898815 -288.46685 
L 99.899829 -290.710831 
L 99.900171 -290.710831 
L 99.900171 -290.710831 
L 99.901185 -288.46685 
L 99.900567 -286.222869 
L 99.900019 -283.978888 
L 99.9 -281.734907 
L 99.9 -279.490926 
L 99.9 -277.246945 
L 99.9 -275.002964 
L 99.9 -272.758982 
L 99.9 -270.515001 
L 99.9 -268.27102 
L 99.9 -266.027039 
L 99.9 -263.783058 
L 99.9 -261.539077 
L 99.9 -259.295096 
L 99.9 -257.051115 
L 99.9 -254.807134 
L 99.9 -252.563153 
L 99.9 -250.319172 
L 99.9 -248.075191 
L 99.9 -245.83121 
L 99.9 -243.587229 
L 99.9 -241.343248 
L 99.9 -239.099266 
L 99.9 -236.855285 
L 99.9 -234.611304 
L 99.9 -232.367323 
L 99.9 -230.123342 
L 99.9 -227.879361 
L 99.9 -225.63538 
L 99.9 -223.391399 
L 99.9 -221.147418 
L 99.9 -218.903437 
L 99.9 -216.659456 
L 99.9 -214.415475 
L 99.9 -212.171494 
L 99.9 -209.927513 
L 99.9 -207.683532 
L 99.9 -205.43955 
L 99.900029 -203.195569 
L 99.900677 -200.951588 
L 99.901111 -198.707607 
L 99.900202 -196.463626 
L 99.900984 -194.219645 
L 99.901451 -191.975664 
L 99.901645 -189.731683 
L 99.901789 -187.487702 
L 99.901529 -185.243721 
L 99.900301 -182.99974 
L 99.900102 -180.755759 
L 99.901076 -178.511778 
L 99.902214 -176.267797 
L 99.904938 -174.023816 
L 99.9048 -171.779834 
L 99.905068 -169.535853 
L 99.906892 -167.291872 
L 99.905571 -165.047891 
L 99.905742 -162.80391 
L 99.906729 -160.559929 
L 99.908203 -158.315948 
L 99.910083 -156.071967 
L 99.917737 -153.827986 
L 99.920343 -151.584005 
L 99.926047 -149.340024 
L 99.928078 -147.096043 
L 99.930981 -144.852062 
L 99.935833 -142.608081 
L 99.950132 -140.3641 
L 99.959979 -138.120118 
L 99.983231 -135.876137 
L 99.992764 -133.632156 
L 99.994046 -131.388175 
L 100.025674 -129.144194 
L 100.053479 -126.900213 
L 100.085075 -124.656232 
L 100.158668 -122.412251 
L 100.218259 -120.16827 
L 100.287268 -117.924289 
L 100.384229 -115.680308 
L 100.550142 -113.436327 
L 100.747255 -111.192346 
L 100.990976 -108.948365 
L 101.344969 -106.704384 
L 101.705337 -104.460402 
L 102.220715 -102.216421 
L 102.866759 -99.97244 
L 103.642773 -97.728459 
L 104.510111 -95.484478 
L 105.228092 -93.240497 
L 105.768892 -90.996516 
L 105.879355 -88.752535 
L 105.244509 -86.508554 
L 103.485544 -84.264573 
L 101.554208 -82.020592 
L 100.470788 -79.776611 
L 100.077301 -77.53263 
L 99.956636 -75.288649 
L 99.917685 -73.044668 
L 99.904436 -70.800687 
L 99.900262 -68.556705 
z
" style="stroke: #464646; stroke-width: 1.75"/>
    </defs>
    <g clip-path="url(#pde1c13c5c7)">
     <use xlink:href="#m4d3cb356da" x="0" y="396" style="fill: #ea96a3; stroke: #464646; stroke-width: 1.75"/>
    </g>
   </g>
   <g id="PolyCollection_2">
    <defs>
     <path id="m3c0a74de37" d="M 155.700911 -65.377144 
L 155.699089 -65.377144 
L 155.690351 -67.813338 
L 155.658542 -70.249532 
L 155.583721 -72.685726 
L 155.440195 -75.12192 
L 155.072883 -77.558114 
L 154.175815 -79.994308 
L 152.71036 -82.430502 
L 151.261662 -84.866696 
L 150.517197 -87.30289 
L 150.403219 -89.739084 
L 150.712937 -92.175278 
L 151.220468 -94.611472 
L 151.650476 -97.047666 
L 152.207665 -99.48386 
L 152.824459 -101.920054 
L 153.357209 -104.356248 
L 153.758364 -106.792442 
L 154.076926 -109.228636 
L 154.323103 -111.66483 
L 154.508563 -114.101025 
L 154.636691 -116.537219 
L 154.771664 -118.973413 
L 154.936803 -121.409607 
L 155.075043 -123.845801 
L 155.193685 -126.281995 
L 155.313435 -128.718189 
L 155.424048 -131.154383 
L 155.486003 -133.590577 
L 155.529782 -136.026771 
L 155.571164 -138.462965 
L 155.596943 -140.899159 
L 155.621466 -143.335353 
L 155.638234 -145.771547 
L 155.652192 -148.207741 
L 155.655374 -150.643935 
L 155.665821 -153.080129 
L 155.67466 -155.516323 
L 155.676799 -157.952517 
L 155.678799 -160.388711 
L 155.682414 -162.824905 
L 155.684084 -165.261099 
L 155.687275 -167.697293 
L 155.68956 -170.133487 
L 155.689508 -172.569681 
L 155.689424 -175.005875 
L 155.688432 -177.442069 
L 155.687049 -179.878263 
L 155.687694 -182.314457 
L 155.691192 -184.750651 
L 155.69531 -187.186845 
L 155.696136 -189.623039 
L 155.696655 -192.059233 
L 155.696422 -194.495427 
L 155.695515 -196.931621 
L 155.69633 -199.367815 
L 155.697311 -201.804009 
L 155.698377 -204.240203 
L 155.699183 -206.676397 
L 155.699882 -209.112591 
L 155.699723 -211.548785 
L 155.698893 -213.984979 
L 155.699154 -216.421173 
L 155.699817 -218.857367 
L 155.699374 -221.293561 
L 155.698793 -223.729755 
L 155.699512 -226.165949 
L 155.699364 -228.602143 
L 155.697762 -231.038337 
L 155.696463 -233.474531 
L 155.697312 -235.910725 
L 155.698238 -238.346919 
L 155.69841 -240.783113 
L 155.698686 -243.219307 
L 155.699612 -245.655501 
L 155.699972 -248.091695 
L 155.699854 -250.527889 
L 155.699094 -252.964083 
L 155.698937 -255.400277 
L 155.699764 -257.836471 
L 155.69999 -260.272665 
L 155.7 -262.708859 
L 155.7 -265.145053 
L 155.69997 -267.581247 
L 155.699561 -270.017441 
L 155.698786 -272.453635 
L 155.699166 -274.889829 
L 155.698849 -277.326023 
L 155.698378 -279.762217 
L 155.698634 -282.198411 
L 155.699578 -284.634605 
L 155.699753 -287.070799 
L 155.698958 -289.506993 
L 155.699069 -291.943187 
L 155.699842 -294.379381 
L 155.699987 -296.815575 
L 155.699788 -299.251769 
L 155.698971 -301.687963 
L 155.699054 -304.124157 
L 155.699835 -306.560351 
L 155.700165 -306.560351 
L 155.700165 -306.560351 
L 155.700946 -304.124157 
L 155.701029 -301.687963 
L 155.700212 -299.251769 
L 155.700013 -296.815575 
L 155.700158 -294.379381 
L 155.700931 -291.943187 
L 155.701042 -289.506993 
L 155.700247 -287.070799 
L 155.700422 -284.634605 
L 155.701366 -282.198411 
L 155.701622 -279.762217 
L 155.701151 -277.326023 
L 155.700834 -274.889829 
L 155.701214 -272.453635 
L 155.700439 -270.017441 
L 155.70003 -267.581247 
L 155.7 -265.145053 
L 155.7 -262.708859 
L 155.70001 -260.272665 
L 155.700236 -257.836471 
L 155.701063 -255.400277 
L 155.700906 -252.964083 
L 155.700146 -250.527889 
L 155.700028 -248.091695 
L 155.700388 -245.655501 
L 155.701314 -243.219307 
L 155.70159 -240.783113 
L 155.701762 -238.346919 
L 155.702688 -235.910725 
L 155.703537 -233.474531 
L 155.702238 -231.038337 
L 155.700636 -228.602143 
L 155.700488 -226.165949 
L 155.701207 -223.729755 
L 155.700626 -221.293561 
L 155.700183 -218.857367 
L 155.700846 -216.421173 
L 155.701107 -213.984979 
L 155.700277 -211.548785 
L 155.700118 -209.112591 
L 155.700817 -206.676397 
L 155.701623 -204.240203 
L 155.702689 -201.804009 
L 155.70367 -199.367815 
L 155.704485 -196.931621 
L 155.703578 -194.495427 
L 155.703345 -192.059233 
L 155.703864 -189.623039 
L 155.70469 -187.186845 
L 155.708808 -184.750651 
L 155.712306 -182.314457 
L 155.712951 -179.878263 
L 155.711568 -177.442069 
L 155.710576 -175.005875 
L 155.710492 -172.569681 
L 155.71044 -170.133487 
L 155.712725 -167.697293 
L 155.715916 -165.261099 
L 155.717586 -162.824905 
L 155.721201 -160.388711 
L 155.723201 -157.952517 
L 155.72534 -155.516323 
L 155.734179 -153.080129 
L 155.744626 -150.643935 
L 155.747808 -148.207741 
L 155.761766 -145.771547 
L 155.778534 -143.335353 
L 155.803057 -140.899159 
L 155.828836 -138.462965 
L 155.870218 -136.026771 
L 155.913997 -133.590577 
L 155.975952 -131.154383 
L 156.086565 -128.718189 
L 156.206315 -126.281995 
L 156.324957 -123.845801 
L 156.463197 -121.409607 
L 156.628336 -118.973413 
L 156.763309 -116.537219 
L 156.891437 -114.101025 
L 157.076897 -111.66483 
L 157.323074 -109.228636 
L 157.641636 -106.792442 
L 158.042791 -104.356248 
L 158.575541 -101.920054 
L 159.192335 -99.48386 
L 159.749524 -97.047666 
L 160.179532 -94.611472 
L 160.687063 -92.175278 
L 160.996781 -89.739084 
L 160.882803 -87.30289 
L 160.138338 -84.866696 
L 158.68964 -82.430502 
L 157.224185 -79.994308 
L 156.327117 -77.558114 
L 155.959805 -75.12192 
L 155.816279 -72.685726 
L 155.741458 -70.249532 
L 155.709649 -67.813338 
L 155.700911 -65.377144 
z
" style="stroke: #464646; stroke-width: 1.75"/>
    </defs>
    <g clip-path="url(#pde1c13c5c7)">
     <use xlink:href="#m3c0a74de37" x="0" y="396" style="fill: #ca984c; stroke: #464646; stroke-width: 1.75"/>
    </g>
   </g>
   <g id="PolyCollection_3">
    <defs>
     <path id="m968e43d306" d="M 211.50143 -63.466009 
L 211.49857 -63.466009 
L 211.483721 -66.178521 
L 211.408497 -68.891033 
L 211.19055 -71.603546 
L 210.749562 -74.316058 
L 209.971963 -77.02857 
L 208.699059 -79.741082 
L 206.892375 -82.453594 
L 204.799096 -85.166107 
L 203.020681 -87.878619 
L 202.152806 -90.591131 
L 202.302308 -93.303643 
L 203.16592 -96.016155 
L 204.25188 -98.728667 
L 205.263869 -101.44118 
L 206.108544 -104.153692 
L 206.753935 -106.866204 
L 207.352961 -109.578716 
L 207.909302 -112.291228 
L 208.335277 -115.003741 
L 208.669916 -117.716253 
L 208.958349 -120.428765 
L 209.258464 -123.141277 
L 209.555992 -125.853789 
L 209.830793 -128.566301 
L 210.079014 -131.278814 
L 210.30587 -133.991326 
L 210.521107 -136.703838 
L 210.707058 -139.41635 
L 210.854941 -142.128862 
L 210.960514 -144.841375 
L 211.045288 -147.553887 
L 211.124827 -150.266399 
L 211.199761 -152.978911 
L 211.254802 -155.691423 
L 211.287185 -158.403935 
L 211.311087 -161.116448 
L 211.337778 -163.82896 
L 211.364032 -166.541472 
L 211.387716 -169.253984 
L 211.406191 -171.966496 
L 211.412231 -174.679009 
L 211.417772 -177.391521 
L 211.429947 -180.104033 
L 211.438104 -182.816545 
L 211.442677 -185.529057 
L 211.449608 -188.241569 
L 211.455961 -190.954082 
L 211.458211 -193.666594 
L 211.46148 -196.379106 
L 211.470034 -199.091618 
L 211.478253 -201.80413 
L 211.483467 -204.516643 
L 211.482747 -207.229155 
L 211.476542 -209.941667 
L 211.473001 -212.654179 
L 211.477506 -215.366691 
L 211.47955 -218.079203 
L 211.475665 -220.791716 
L 211.475846 -223.504228 
L 211.481214 -226.21674 
L 211.486253 -228.929252 
L 211.489201 -231.641764 
L 211.490414 -234.354277 
L 211.4908 -237.066789 
L 211.490323 -239.779301 
L 211.488551 -242.491813 
L 211.486142 -245.204325 
L 211.484805 -247.916837 
L 211.485202 -250.62935 
L 211.489619 -253.341862 
L 211.491007 -256.054374 
L 211.485652 -258.766886 
L 211.483673 -261.479398 
L 211.486688 -264.19191 
L 211.486527 -266.904423 
L 211.485271 -269.616935 
L 211.485246 -272.329447 
L 211.486492 -275.041959 
L 211.487915 -277.754471 
L 211.488936 -280.466984 
L 211.488433 -283.179496 
L 211.488017 -285.892008 
L 211.489141 -288.60452 
L 211.491438 -291.317032 
L 211.493716 -294.029544 
L 211.492567 -296.742057 
L 211.490572 -299.454569 
L 211.491893 -302.167081 
L 211.494021 -304.879593 
L 211.49487 -307.592105 
L 211.493472 -310.304618 
L 211.492099 -313.01713 
L 211.491939 -315.729642 
L 211.493467 -318.442154 
L 211.49547 -321.154666 
L 211.495878 -323.867178 
L 211.496962 -326.579691 
L 211.498869 -329.292203 
L 211.49982 -332.004715 
L 211.50018 -332.004715 
L 211.50018 -332.004715 
L 211.501131 -329.292203 
L 211.503038 -326.579691 
L 211.504122 -323.867178 
L 211.50453 -321.154666 
L 211.506533 -318.442154 
L 211.508061 -315.729642 
L 211.507901 -313.01713 
L 211.506528 -310.304618 
L 211.50513 -307.592105 
L 211.505979 -304.879593 
L 211.508107 -302.167081 
L 211.509428 -299.454569 
L 211.507433 -296.742057 
L 211.506284 -294.029544 
L 211.508562 -291.317032 
L 211.510859 -288.60452 
L 211.511983 -285.892008 
L 211.511567 -283.179496 
L 211.511064 -280.466984 
L 211.512085 -277.754471 
L 211.513508 -275.041959 
L 211.514754 -272.329447 
L 211.514729 -269.616935 
L 211.513473 -266.904423 
L 211.513312 -264.19191 
L 211.516327 -261.479398 
L 211.514348 -258.766886 
L 211.508993 -256.054374 
L 211.510381 -253.341862 
L 211.514798 -250.62935 
L 211.515195 -247.916837 
L 211.513858 -245.204325 
L 211.511449 -242.491813 
L 211.509677 -239.779301 
L 211.5092 -237.066789 
L 211.509586 -234.354277 
L 211.510799 -231.641764 
L 211.513747 -228.929252 
L 211.518786 -226.21674 
L 211.524154 -223.504228 
L 211.524335 -220.791716 
L 211.52045 -218.079203 
L 211.522494 -215.366691 
L 211.526999 -212.654179 
L 211.523458 -209.941667 
L 211.517253 -207.229155 
L 211.516533 -204.516643 
L 211.521747 -201.80413 
L 211.529966 -199.091618 
L 211.53852 -196.379106 
L 211.541789 -193.666594 
L 211.544039 -190.954082 
L 211.550392 -188.241569 
L 211.557323 -185.529057 
L 211.561896 -182.816545 
L 211.570053 -180.104033 
L 211.582228 -177.391521 
L 211.587769 -174.679009 
L 211.593809 -171.966496 
L 211.612284 -169.253984 
L 211.635968 -166.541472 
L 211.662222 -163.82896 
L 211.688913 -161.116448 
L 211.712815 -158.403935 
L 211.745198 -155.691423 
L 211.800239 -152.978911 
L 211.875173 -150.266399 
L 211.954712 -147.553887 
L 212.039486 -144.841375 
L 212.145059 -142.128862 
L 212.292942 -139.41635 
L 212.478893 -136.703838 
L 212.69413 -133.991326 
L 212.920986 -131.278814 
L 213.169207 -128.566301 
L 213.444008 -125.853789 
L 213.741536 -123.141277 
L 214.041651 -120.428765 
L 214.330084 -117.716253 
L 214.664723 -115.003741 
L 215.090698 -112.291228 
L 215.647039 -109.578716 
L 216.246065 -106.866204 
L 216.891456 -104.153692 
L 217.736131 -101.44118 
L 218.74812 -98.728667 
L 219.83408 -96.016155 
L 220.697692 -93.303643 
L 220.847194 -90.591131 
L 219.979319 -87.878619 
L 218.200904 -85.166107 
L 216.107625 -82.453594 
L 214.300941 -79.741082 
L 213.028037 -77.02857 
L 212.250438 -74.316058 
L 211.80945 -71.603546 
L 211.591503 -68.891033 
L 211.516279 -66.178521 
L 211.50143 -63.466009 
z
" style="stroke: #464646; stroke-width: 1.75"/>
    </defs>
    <g clip-path="url(#pde1c13c5c7)">
     <use xlink:href="#m968e43d306" x="0" y="396" style="fill: #98a246; stroke: #464646; stroke-width: 1.75"/>
    </g>
   </g>
   <g id="PolyCollection_4">
    <defs>
     <path id="m51cddfa8ca" d="M 267.300673 -67.491343 
L 267.299327 -67.491343 
L 267.295589 -69.542841 
L 267.283039 -71.594339 
L 267.248882 -73.645837 
L 267.170639 -75.697336 
L 267.004409 -77.748834 
L 266.663138 -79.800332 
L 266.097615 -81.85183 
L 265.331234 -83.903328 
L 264.483523 -85.954826 
L 263.785134 -88.006325 
L 263.379097 -90.057823 
L 263.318741 -92.109321 
L 263.57708 -94.160819 
L 264.010974 -96.212317 
L 264.449267 -98.263815 
L 264.837926 -100.315313 
L 265.164257 -102.366812 
L 265.417717 -104.41831 
L 265.614301 -106.469808 
L 265.783126 -108.521306 
L 265.949523 -110.572804 
L 266.111 -112.624302 
L 266.244826 -114.675801 
L 266.36893 -116.727299 
L 266.493785 -118.778797 
L 266.602444 -120.830295 
L 266.690984 -122.881793 
L 266.76153 -124.933291 
L 266.811067 -126.984789 
L 266.872429 -129.036288 
L 266.953381 -131.087786 
L 267.021758 -133.139284 
L 267.063134 -135.190782 
L 267.092447 -137.24228 
L 267.131177 -139.293778 
L 267.17529 -141.345277 
L 267.203277 -143.396775 
L 267.216952 -145.448273 
L 267.224992 -147.499771 
L 267.230906 -149.551269 
L 267.240063 -151.602767 
L 267.252038 -153.654265 
L 267.261609 -155.705764 
L 267.270393 -157.757262 
L 267.274535 -159.80876 
L 267.276211 -161.860258 
L 267.280893 -163.911756 
L 267.286165 -165.963254 
L 267.28737 -168.014753 
L 267.288379 -170.066251 
L 267.289481 -172.117749 
L 267.287588 -174.169247 
L 267.287648 -176.220745 
L 267.290526 -178.272243 
L 267.293796 -180.323741 
L 267.296464 -182.37524 
L 267.297722 -184.426738 
L 267.29686 -186.478236 
L 267.295741 -188.529734 
L 267.296423 -190.581232 
L 267.298553 -192.63273 
L 267.299699 -194.684228 
L 267.299479 -196.735727 
L 267.298246 -198.787225 
L 267.297205 -200.838723 
L 267.297564 -202.890221 
L 267.298288 -204.941719 
L 267.298744 -206.993217 
L 267.299256 -209.044716 
L 267.299122 -211.096214 
L 267.298909 -213.147712 
L 267.299437 -215.19921 
L 267.29989 -217.250708 
L 267.299992 -219.302206 
L 267.3 -221.353704 
L 267.3 -223.405203 
L 267.3 -225.456701 
L 267.3 -227.508199 
L 267.3 -229.559697 
L 267.3 -231.611195 
L 267.3 -233.662693 
L 267.3 -235.714192 
L 267.3 -237.76569 
L 267.3 -239.817188 
L 267.299989 -241.868686 
L 267.299863 -243.920184 
L 267.299366 -245.971682 
L 267.298902 -248.02318 
L 267.299287 -250.074679 
L 267.299826 -252.126177 
L 267.299984 -254.177675 
L 267.299991 -256.229173 
L 267.299887 -258.280671 
L 267.299414 -260.332169 
L 267.298752 -262.383668 
L 267.298539 -264.435166 
L 267.298693 -266.486664 
L 267.299319 -268.538162 
L 267.29985 -270.58966 
L 267.30015 -270.58966 
L 267.30015 -270.58966 
L 267.300681 -268.538162 
L 267.301307 -266.486664 
L 267.301461 -264.435166 
L 267.301248 -262.383668 
L 267.300586 -260.332169 
L 267.300113 -258.280671 
L 267.300009 -256.229173 
L 267.300016 -254.177675 
L 267.300174 -252.126177 
L 267.300713 -250.074679 
L 267.301098 -248.02318 
L 267.300634 -245.971682 
L 267.300137 -243.920184 
L 267.300011 -241.868686 
L 267.3 -239.817188 
L 267.3 -237.76569 
L 267.3 -235.714192 
L 267.3 -233.662693 
L 267.3 -231.611195 
L 267.3 -229.559697 
L 267.3 -227.508199 
L 267.3 -225.456701 
L 267.3 -223.405203 
L 267.3 -221.353704 
L 267.300008 -219.302206 
L 267.30011 -217.250708 
L 267.300563 -215.19921 
L 267.301091 -213.147712 
L 267.300878 -211.096214 
L 267.300744 -209.044716 
L 267.301256 -206.993217 
L 267.301712 -204.941719 
L 267.302436 -202.890221 
L 267.302795 -200.838723 
L 267.301754 -198.787225 
L 267.300521 -196.735727 
L 267.300301 -194.684228 
L 267.301447 -192.63273 
L 267.303577 -190.581232 
L 267.304259 -188.529734 
L 267.30314 -186.478236 
L 267.302278 -184.426738 
L 267.303536 -182.37524 
L 267.306204 -180.323741 
L 267.309474 -178.272243 
L 267.312352 -176.220745 
L 267.312412 -174.169247 
L 267.310519 -172.117749 
L 267.311621 -170.066251 
L 267.31263 -168.014753 
L 267.313835 -165.963254 
L 267.319107 -163.911756 
L 267.323789 -161.860258 
L 267.325465 -159.80876 
L 267.329607 -157.757262 
L 267.338391 -155.705764 
L 267.347962 -153.654265 
L 267.359937 -151.602767 
L 267.369094 -149.551269 
L 267.375008 -147.499771 
L 267.383048 -145.448273 
L 267.396723 -143.396775 
L 267.42471 -141.345277 
L 267.468823 -139.293778 
L 267.507553 -137.24228 
L 267.536866 -135.190782 
L 267.578242 -133.139284 
L 267.646619 -131.087786 
L 267.727571 -129.036288 
L 267.788933 -126.984789 
L 267.83847 -124.933291 
L 267.909016 -122.881793 
L 267.997556 -120.830295 
L 268.106215 -118.778797 
L 268.23107 -116.727299 
L 268.355174 -114.675801 
L 268.489 -112.624302 
L 268.650477 -110.572804 
L 268.816874 -108.521306 
L 268.985699 -106.469808 
L 269.182283 -104.41831 
L 269.435743 -102.366812 
L 269.762074 -100.315313 
L 270.150733 -98.263815 
L 270.589026 -96.212317 
L 271.02292 -94.160819 
L 271.281259 -92.109321 
L 271.220903 -90.057823 
L 270.814866 -88.006325 
L 270.116477 -85.954826 
L 269.268766 -83.903328 
L 268.502385 -81.85183 
L 267.936862 -79.800332 
L 267.595591 -77.748834 
L 267.429361 -75.697336 
L 267.351118 -73.645837 
L 267.316961 -71.594339 
L 267.304411 -69.542841 
L 267.300673 -67.491343 
z
" style="stroke: #464646; stroke-width: 1.75"/>
    </defs>
    <g clip-path="url(#pde1c13c5c7)">
     <use xlink:href="#m51cddfa8ca" x="0" y="396" style="fill: #49af72; stroke: #464646; stroke-width: 1.75"/>
    </g>
   </g>
   <g id="PolyCollection_5">
    <defs>
     <path id="m1af686aaf5" d="M 323.102349 -64.665955 
L 323.097651 -64.665955 
L 323.086269 -67.284992 
L 323.049262 -69.904028 
L 322.975871 -72.523064 
L 322.887233 -75.142101 
L 322.824098 -77.761137 
L 322.797397 -80.380173 
L 322.773129 -82.99921 
L 322.698872 -85.618246 
L 322.536011 -88.237282 
L 322.302861 -90.856318 
L 322.089117 -93.475355 
L 321.970455 -96.094391 
L 321.936569 -98.713427 
L 321.952186 -101.332464 
L 322.021158 -103.9515 
L 322.147383 -106.570536 
L 322.295237 -109.189573 
L 322.427124 -111.808609 
L 322.534235 -114.427645 
L 322.628562 -117.046682 
L 322.715704 -119.665718 
L 322.785351 -122.284754 
L 322.835895 -124.903791 
L 322.880216 -127.522827 
L 322.925802 -130.141863 
L 322.968753 -132.760899 
L 323.001621 -135.379936 
L 323.023178 -137.998972 
L 323.04019 -140.618008 
L 323.055434 -143.237045 
L 323.06548 -145.856081 
L 323.069964 -148.475117 
L 323.073281 -151.094154 
L 323.078826 -153.71319 
L 323.085125 -156.332226 
L 323.089109 -158.951263 
L 323.091184 -161.570299 
L 323.09333 -164.189335 
L 323.095612 -166.808371 
L 323.09701 -169.427408 
L 323.097359 -172.046444 
L 323.097468 -174.66548 
L 323.09757 -177.284517 
L 323.09718 -179.903553 
L 323.096327 -182.522589 
L 323.095676 -185.141626 
L 323.09591 -187.760662 
L 323.096877 -190.379698 
L 323.097549 -192.998735 
L 323.097603 -195.617771 
L 323.097549 -198.236807 
L 323.097423 -200.855844 
L 323.096989 -203.47488 
L 323.096293 -206.093916 
L 323.095561 -208.712952 
L 323.095289 -211.331989 
L 323.09589 -213.951025 
L 323.096892 -216.570061 
L 323.097404 -219.189098 
L 323.097235 -221.808134 
L 323.096859 -224.42717 
L 323.096908 -227.046207 
L 323.097639 -229.665243 
L 323.098484 -232.284279 
L 323.098878 -234.903316 
L 323.09915 -237.522352 
L 323.099466 -240.141388 
L 323.099449 -242.760425 
L 323.099173 -245.379461 
L 323.099194 -247.998497 
L 323.099563 -250.617533 
L 323.099823 -253.23657 
L 323.099657 -255.855606 
L 323.09881 -258.474642 
L 323.097339 -261.093679 
L 323.096183 -263.712715 
L 323.096218 -266.331751 
L 323.097221 -268.950788 
L 323.098407 -271.569824 
L 323.099051 -274.18886 
L 323.099086 -276.807897 
L 323.09917 -279.426933 
L 323.099549 -282.045969 
L 323.099866 -284.665005 
L 323.099977 -287.284042 
L 323.099977 -289.903078 
L 323.099842 -292.522114 
L 323.099361 -295.141151 
L 323.098572 -297.760187 
L 323.098175 -300.379223 
L 323.098455 -302.99826 
L 323.098796 -305.617296 
L 323.099074 -308.236332 
L 323.099393 -310.855369 
L 323.099403 -313.474405 
L 323.099158 -316.093441 
L 323.099203 -318.712478 
L 323.099583 -321.331514 
L 323.099882 -323.95055 
L 323.100118 -323.95055 
L 323.100118 -323.95055 
L 323.100417 -321.331514 
L 323.100797 -318.712478 
L 323.100842 -316.093441 
L 323.100597 -313.474405 
L 323.100607 -310.855369 
L 323.100926 -308.236332 
L 323.101204 -305.617296 
L 323.101545 -302.99826 
L 323.101825 -300.379223 
L 323.101428 -297.760187 
L 323.100639 -295.141151 
L 323.100158 -292.522114 
L 323.100023 -289.903078 
L 323.100023 -287.284042 
L 323.100134 -284.665005 
L 323.100451 -282.045969 
L 323.10083 -279.426933 
L 323.100914 -276.807897 
L 323.100949 -274.18886 
L 323.101593 -271.569824 
L 323.102779 -268.950788 
L 323.103782 -266.331751 
L 323.103817 -263.712715 
L 323.102661 -261.093679 
L 323.10119 -258.474642 
L 323.100343 -255.855606 
L 323.100177 -253.23657 
L 323.100437 -250.617533 
L 323.100806 -247.998497 
L 323.100827 -245.379461 
L 323.100551 -242.760425 
L 323.100534 -240.141388 
L 323.10085 -237.522352 
L 323.101122 -234.903316 
L 323.101516 -232.284279 
L 323.102361 -229.665243 
L 323.103092 -227.046207 
L 323.103141 -224.42717 
L 323.102765 -221.808134 
L 323.102596 -219.189098 
L 323.103108 -216.570061 
L 323.10411 -213.951025 
L 323.104711 -211.331989 
L 323.104439 -208.712952 
L 323.103707 -206.093916 
L 323.103011 -203.47488 
L 323.102577 -200.855844 
L 323.102451 -198.236807 
L 323.102397 -195.617771 
L 323.102451 -192.998735 
L 323.103123 -190.379698 
L 323.10409 -187.760662 
L 323.104324 -185.141626 
L 323.103673 -182.522589 
L 323.10282 -179.903553 
L 323.10243 -177.284517 
L 323.102532 -174.66548 
L 323.102641 -172.046444 
L 323.10299 -169.427408 
L 323.104388 -166.808371 
L 323.10667 -164.189335 
L 323.108816 -161.570299 
L 323.110891 -158.951263 
L 323.114875 -156.332226 
L 323.121174 -153.71319 
L 323.126719 -151.094154 
L 323.130036 -148.475117 
L 323.13452 -145.856081 
L 323.144566 -143.237045 
L 323.15981 -140.618008 
L 323.176822 -137.998972 
L 323.198379 -135.379936 
L 323.231247 -132.760899 
L 323.274198 -130.141863 
L 323.319784 -127.522827 
L 323.364105 -124.903791 
L 323.414649 -122.284754 
L 323.484296 -119.665718 
L 323.571438 -117.046682 
L 323.665765 -114.427645 
L 323.772876 -111.808609 
L 323.904763 -109.189573 
L 324.052617 -106.570536 
L 324.178842 -103.9515 
L 324.247814 -101.332464 
L 324.263431 -98.713427 
L 324.229545 -96.094391 
L 324.110883 -93.475355 
L 323.897139 -90.856318 
L 323.663989 -88.237282 
L 323.501128 -85.618246 
L 323.426871 -82.99921 
L 323.402603 -80.380173 
L 323.375902 -77.761137 
L 323.312767 -75.142101 
L 323.224129 -72.523064 
L 323.150738 -69.904028 
L 323.113731 -67.284992 
L 323.102349 -64.665955 
z
" style="stroke: #464646; stroke-width: 1.75"/>
    </defs>
    <g clip-path="url(#pde1c13c5c7)">
     <use xlink:href="#m1af686aaf5" x="0" y="396" style="fill: #4baba4; stroke: #464646; stroke-width: 1.75"/>
    </g>
   </g>
   <g id="PolyCollection_6">
    <defs>
     <path id="mfe73e1f4a1" d="M 378.900899 -67.914415 
L 378.899101 -67.914415 
L 378.874821 -70.551442 
L 378.796711 -73.188469 
L 378.773511 -75.825496 
L 378.709565 -78.462523 
L 378.2725 -81.09955 
L 376.940285 -83.736577 
L 373.491528 -86.373604 
L 368.117993 -89.010631 
L 362.639218 -91.647658 
L 358.60652 -94.284686 
L 356.812284 -96.921713 
L 356.58 -99.55874 
L 357.09964 -102.195767 
L 357.875807 -104.832794 
L 359.058393 -107.469821 
L 360.796386 -110.106848 
L 362.46607 -112.743875 
L 364.163103 -115.380902 
L 365.923395 -118.017929 
L 367.369228 -120.654956 
L 368.929998 -123.291983 
L 370.501932 -125.92901 
L 371.772804 -128.566038 
L 372.796425 -131.203065 
L 373.879748 -133.840092 
L 374.748162 -136.477119 
L 375.449335 -139.114146 
L 376.22604 -141.751173 
L 376.808652 -144.3882 
L 377.257047 -147.025227 
L 377.620042 -149.662254 
L 377.909741 -152.299281 
L 378.151013 -154.936308 
L 378.371877 -157.573335 
L 378.464986 -160.210362 
L 378.539903 -162.84739 
L 378.619528 -165.484417 
L 378.696388 -168.121444 
L 378.739657 -170.758471 
L 378.777932 -173.395498 
L 378.821663 -176.032525 
L 378.8534 -178.669552 
L 378.853921 -181.306579 
L 378.870473 -183.943606 
L 378.876076 -186.580633 
L 378.873426 -189.21766 
L 378.877507 -191.854687 
L 378.891221 -194.491714 
L 378.896838 -197.128742 
L 378.892099 -199.765769 
L 378.88887 -202.402796 
L 378.896138 -205.039823 
L 378.896645 -207.67685 
L 378.896799 -210.313877 
L 378.896195 -212.950904 
L 378.897953 -215.587931 
L 378.897925 -218.224958 
L 378.899498 -220.861985 
L 378.899993 -223.499012 
L 378.899997 -226.136039 
L 378.89971 -228.773066 
L 378.898036 -231.410094 
L 378.898307 -234.047121 
L 378.896778 -236.684148 
L 378.898238 -239.321175 
L 378.899895 -241.958202 
L 378.9 -244.595229 
L 378.9 -247.232256 
L 378.9 -249.869283 
L 378.899967 -252.50631 
L 378.898993 -255.143337 
L 378.898214 -257.780364 
L 378.899533 -260.417391 
L 378.896804 -263.054419 
L 378.89557 -265.691446 
L 378.898898 -268.328473 
L 378.899972 -270.9655 
L 378.899961 -273.602527 
L 378.898596 -276.239554 
L 378.896204 -278.876581 
L 378.898133 -281.513608 
L 378.896206 -284.150635 
L 378.898031 -286.787662 
L 378.896491 -289.424689 
L 378.898037 -292.061716 
L 378.896756 -294.698743 
L 378.896493 -297.335771 
L 378.896616 -299.972798 
L 378.898427 -302.609825 
L 378.899918 -305.246852 
L 378.899564 -307.883879 
L 378.896316 -310.520906 
L 378.898151 -313.157933 
L 378.899865 -315.79496 
L 378.898601 -318.431987 
L 378.898446 -321.069014 
L 378.897646 -323.706041 
L 378.896707 -326.343068 
L 378.899651 -328.980095 
L 378.900349 -328.980095 
L 378.900349 -328.980095 
L 378.903293 -326.343068 
L 378.902354 -323.706041 
L 378.901554 -321.069014 
L 378.901399 -318.431987 
L 378.900135 -315.79496 
L 378.901849 -313.157933 
L 378.903684 -310.520906 
L 378.900436 -307.883879 
L 378.900082 -305.246852 
L 378.901573 -302.609825 
L 378.903384 -299.972798 
L 378.903507 -297.335771 
L 378.903244 -294.698743 
L 378.901963 -292.061716 
L 378.903509 -289.424689 
L 378.901969 -286.787662 
L 378.903794 -284.150635 
L 378.901867 -281.513608 
L 378.903796 -278.876581 
L 378.901404 -276.239554 
L 378.900039 -273.602527 
L 378.900028 -270.9655 
L 378.901102 -268.328473 
L 378.90443 -265.691446 
L 378.903196 -263.054419 
L 378.900467 -260.417391 
L 378.901786 -257.780364 
L 378.901007 -255.143337 
L 378.900033 -252.50631 
L 378.9 -249.869283 
L 378.9 -247.232256 
L 378.9 -244.595229 
L 378.900105 -241.958202 
L 378.901762 -239.321175 
L 378.903222 -236.684148 
L 378.901693 -234.047121 
L 378.901964 -231.410094 
L 378.90029 -228.773066 
L 378.900003 -226.136039 
L 378.900007 -223.499012 
L 378.900502 -220.861985 
L 378.902075 -218.224958 
L 378.902047 -215.587931 
L 378.903805 -212.950904 
L 378.903201 -210.313877 
L 378.903355 -207.67685 
L 378.903862 -205.039823 
L 378.91113 -202.402796 
L 378.907901 -199.765769 
L 378.903162 -197.128742 
L 378.908779 -194.491714 
L 378.922493 -191.854687 
L 378.926574 -189.21766 
L 378.923924 -186.580633 
L 378.929527 -183.943606 
L 378.946079 -181.306579 
L 378.9466 -178.669552 
L 378.978337 -176.032525 
L 379.022068 -173.395498 
L 379.060343 -170.758471 
L 379.103612 -168.121444 
L 379.180472 -165.484417 
L 379.260097 -162.84739 
L 379.335014 -160.210362 
L 379.428123 -157.573335 
L 379.648987 -154.936308 
L 379.890259 -152.299281 
L 380.179958 -149.662254 
L 380.542953 -147.025227 
L 380.991348 -144.3882 
L 381.57396 -141.751173 
L 382.350665 -139.114146 
L 383.051838 -136.477119 
L 383.920252 -133.840092 
L 385.003575 -131.203065 
L 386.027196 -128.566038 
L 387.298068 -125.92901 
L 388.870002 -123.291983 
L 390.430772 -120.654956 
L 391.876605 -118.017929 
L 393.636897 -115.380902 
L 395.33393 -112.743875 
L 397.003614 -110.106848 
L 398.741607 -107.469821 
L 399.924193 -104.832794 
L 400.70036 -102.195767 
L 401.22 -99.55874 
L 400.987716 -96.921713 
L 399.19348 -94.284686 
L 395.160782 -91.647658 
L 389.682007 -89.010631 
L 384.308472 -86.373604 
L 380.859715 -83.736577 
L 379.5275 -81.09955 
L 379.090435 -78.462523 
L 379.026489 -75.825496 
L 379.003289 -73.188469 
L 378.925179 -70.551442 
L 378.900899 -67.914415 
z
" style="stroke: #464646; stroke-width: 1.75"/>
    </defs>
    <g clip-path="url(#pde1c13c5c7)">
     <use xlink:href="#mfe73e1f4a1" x="0" y="396" style="fill: #53accd; stroke: #464646; stroke-width: 1.75"/>
    </g>
   </g>
   <g id="PolyCollection_7">
    <defs>
     <path id="m22ecb15a76" d="M 434.701138 -63.09 
L 434.698862 -63.09 
L 434.696666 -65.835455 
L 434.692039 -68.580909 
L 434.684332 -71.326364 
L 434.674186 -74.071818 
L 434.663597 -76.817273 
L 434.654652 -79.562727 
L 434.647912 -82.308182 
L 434.641947 -85.053636 
L 434.634107 -87.799091 
L 434.621437 -90.544545 
L 434.601104 -93.29 
L 434.570564 -96.035455 
L 434.527427 -98.780909 
L 434.46922 -101.526364 
L 434.394433 -104.271818 
L 434.305216 -107.017273 
L 434.208776 -109.762727 
L 434.114591 -112.508182 
L 434.029874 -115.253636 
L 433.958263 -117.999091 
L 433.901724 -120.744545 
L 433.861241 -123.49 
L 433.835569 -126.235455 
L 433.821524 -128.980909 
L 433.815839 -131.726364 
L 433.81548 -134.471818 
L 433.817295 -137.217273 
L 433.81962 -139.962727 
L 433.823428 -142.708182 
L 433.829978 -145.453636 
L 433.838417 -148.199091 
L 433.847442 -150.944545 
L 433.858265 -153.69 
L 433.874143 -156.435455 
L 433.897041 -159.180909 
L 433.92571 -161.926364 
L 433.957203 -164.671818 
L 433.989648 -167.417273 
L 434.023518 -170.162727 
L 434.061107 -172.908182 
L 434.104828 -175.653636 
L 434.154954 -178.399091 
L 434.208662 -181.144545 
L 434.261741 -183.89 
L 434.311291 -186.635455 
L 434.35687 -189.380909 
L 434.399738 -192.126364 
L 434.441444 -194.871818 
L 434.48271 -197.617273 
L 434.522884 -200.362727 
L 434.560123 -203.108182 
L 434.592293 -205.853636 
L 434.617979 -208.599091 
L 434.636934 -211.344545 
L 434.649889 -214.09 
L 434.658091 -216.835455 
L 434.662919 -219.580909 
L 434.66579 -222.326364 
L 434.668164 -225.071818 
L 434.671194 -227.817273 
L 434.67506 -230.562727 
L 434.678929 -233.308182 
L 434.681967 -236.053636 
L 434.684273 -238.799091 
L 434.686588 -241.544545 
L 434.689289 -244.29 
L 434.691961 -247.035455 
L 434.693895 -249.780909 
L 434.694812 -252.526364 
L 434.695052 -255.271818 
L 434.695119 -258.017273 
L 434.695191 -260.762727 
L 434.695122 -263.508182 
L 434.694764 -266.253636 
L 434.694098 -268.999091 
L 434.693182 -271.744545 
L 434.69224 -274.49 
L 434.691768 -277.235455 
L 434.692224 -279.980909 
L 434.693505 -282.726364 
L 434.694961 -285.471818 
L 434.69603 -288.217273 
L 434.696679 -290.962727 
L 434.697151 -293.708182 
L 434.697519 -296.453636 
L 434.697661 -299.199091 
L 434.697528 -301.944545 
L 434.697274 -304.69 
L 434.697109 -307.435455 
L 434.69714 -310.180909 
L 434.697349 -312.926364 
L 434.69764 -315.671818 
L 434.697909 -318.417273 
L 434.698135 -321.162727 
L 434.698397 -323.908182 
L 434.698769 -326.653636 
L 434.699204 -329.399091 
L 434.699583 -332.144545 
L 434.699825 -334.89 
L 434.700175 -334.89 
L 434.700175 -334.89 
L 434.700417 -332.144545 
L 434.700796 -329.399091 
L 434.701231 -326.653636 
L 434.701603 -323.908182 
L 434.701865 -321.162727 
L 434.702091 -318.417273 
L 434.70236 -315.671818 
L 434.702651 -312.926364 
L 434.70286 -310.180909 
L 434.702891 -307.435455 
L 434.702726 -304.69 
L 434.702472 -301.944545 
L 434.702339 -299.199091 
L 434.702481 -296.453636 
L 434.702849 -293.708182 
L 434.703321 -290.962727 
L 434.70397 -288.217273 
L 434.705039 -285.471818 
L 434.706495 -282.726364 
L 434.707776 -279.980909 
L 434.708232 -277.235455 
L 434.70776 -274.49 
L 434.706818 -271.744545 
L 434.705902 -268.999091 
L 434.705236 -266.253636 
L 434.704878 -263.508182 
L 434.704809 -260.762727 
L 434.704881 -258.017273 
L 434.704948 -255.271818 
L 434.705188 -252.526364 
L 434.706105 -249.780909 
L 434.708039 -247.035455 
L 434.710711 -244.29 
L 434.713412 -241.544545 
L 434.715727 -238.799091 
L 434.718033 -236.053636 
L 434.721071 -233.308182 
L 434.72494 -230.562727 
L 434.728806 -227.817273 
L 434.731836 -225.071818 
L 434.73421 -222.326364 
L 434.737081 -219.580909 
L 434.741909 -216.835455 
L 434.750111 -214.09 
L 434.763066 -211.344545 
L 434.782021 -208.599091 
L 434.807707 -205.853636 
L 434.839877 -203.108182 
L 434.877116 -200.362727 
L 434.91729 -197.617273 
L 434.958556 -194.871818 
L 435.000262 -192.126364 
L 435.04313 -189.380909 
L 435.088709 -186.635455 
L 435.138259 -183.89 
L 435.191338 -181.144545 
L 435.245046 -178.399091 
L 435.295172 -175.653636 
L 435.338893 -172.908182 
L 435.376482 -170.162727 
L 435.410352 -167.417273 
L 435.442797 -164.671818 
L 435.47429 -161.926364 
L 435.502959 -159.180909 
L 435.525857 -156.435455 
L 435.541735 -153.69 
L 435.552558 -150.944545 
L 435.561583 -148.199091 
L 435.570022 -145.453636 
L 435.576572 -142.708182 
L 435.58038 -139.962727 
L 435.582705 -137.217273 
L 435.58452 -134.471818 
L 435.584161 -131.726364 
L 435.578476 -128.980909 
L 435.564431 -126.235455 
L 435.538759 -123.49 
L 435.498276 -120.744545 
L 435.441737 -117.999091 
L 435.370126 -115.253636 
L 435.285409 -112.508182 
L 435.191224 -109.762727 
L 435.094784 -107.017273 
L 435.005567 -104.271818 
L 434.93078 -101.526364 
L 434.872573 -98.780909 
L 434.829436 -96.035455 
L 434.798896 -93.29 
L 434.778563 -90.544545 
L 434.765893 -87.799091 
L 434.758053 -85.053636 
L 434.752088 -82.308182 
L 434.745348 -79.562727 
L 434.736403 -76.817273 
L 434.725814 -74.071818 
L 434.715668 -71.326364 
L 434.707961 -68.580909 
L 434.703334 -65.835455 
L 434.701138 -63.09 
z
" style="stroke: #464646; stroke-width: 1.75"/>
    </defs>
    <g clip-path="url(#pde1c13c5c7)">
     <use xlink:href="#m22ecb15a76" x="0" y="396" style="fill: #b6a8eb; stroke: #464646; stroke-width: 1.75"/>
    </g>
   </g>
   <g id="PolyCollection_8">
    <defs>
     <path id="m5091377c5f" d="M 490.500173 -67.815531 
L 490.499827 -67.815531 
L 490.499605 -70.488937 
L 490.499213 -73.162343 
L 490.4986 -75.835749 
L 490.497715 -78.509154 
L 490.496451 -81.18256 
L 490.494554 -83.855966 
L 490.491542 -86.529372 
L 490.486722 -89.202778 
L 490.479372 -91.876184 
L 490.46906 -94.549589 
L 490.455886 -97.222995 
L 490.440372 -99.896401 
L 490.422947 -102.569807 
L 490.403418 -105.243213 
L 490.380911 -107.916618 
L 490.354328 -110.590024 
L 490.322945 -113.26343 
L 490.286839 -115.936836 
L 490.247234 -118.610242 
L 490.206769 -121.283647 
L 490.169219 -123.957053 
L 490.138183 -126.630459 
L 490.115263 -129.303865 
L 490.099229 -131.977271 
L 490.08712 -134.650676 
L 490.076416 -137.324082 
L 490.066438 -139.997488 
L 490.058097 -142.670894 
L 490.052611 -145.3443 
L 490.050303 -148.017706 
L 490.050094 -150.691111 
L 490.049999 -153.364517 
L 490.048517 -156.037923 
L 490.046116 -158.711329 
L 490.045564 -161.384735 
L 490.050537 -164.05814 
L 490.063464 -166.731546 
L 490.084253 -169.404952 
L 490.110868 -172.078358 
L 490.141052 -174.751764 
L 490.173516 -177.425169 
L 490.207612 -180.098575 
L 490.242205 -182.771981 
L 490.275277 -185.445387 
L 490.304761 -188.118793 
L 490.329759 -190.792199 
L 490.350923 -193.465604 
L 490.369744 -196.13901 
L 490.387393 -198.812416 
L 490.403997 -201.485822 
L 490.418803 -204.159228 
L 490.430962 -206.832633 
L 490.440282 -209.506039 
L 490.447369 -212.179445 
L 490.453135 -214.852851 
L 490.458176 -217.526257 
L 490.462556 -220.199662 
L 490.466143 -222.873068 
L 490.469063 -225.546474 
L 490.471794 -228.21988 
L 490.474827 -230.893286 
L 490.478272 -233.566691 
L 490.481791 -236.240097 
L 490.48484 -238.913503 
L 490.486993 -241.586909 
L 490.488119 -244.260315 
L 490.488388 -246.933721 
L 490.488156 -249.607126 
L 490.487832 -252.280532 
L 490.487789 -254.953938 
L 490.488278 -257.627344 
L 490.489365 -260.30075 
L 490.490912 -262.974155 
L 490.492653 -265.647561 
L 490.4943 -268.320967 
L 490.495637 -270.994373 
L 490.496551 -273.667779 
L 490.497047 -276.341184 
L 490.497227 -279.01459 
L 490.497255 -281.687996 
L 490.497294 -284.361402 
L 490.497445 -287.034808 
L 490.497708 -289.708213 
L 490.498001 -292.381619 
L 490.498226 -295.055025 
L 490.498334 -297.728431 
L 490.49833 -300.401837 
L 490.498224 -303.075243 
L 490.498009 -305.748648 
L 490.497701 -308.422054 
L 490.497384 -311.09546 
L 490.497194 -313.768866 
L 490.497252 -316.442272 
L 490.497588 -319.115677 
L 490.498123 -321.789083 
L 490.498717 -324.462489 
L 490.499235 -327.135895 
L 490.499605 -329.809301 
L 490.499824 -332.482706 
L 490.500176 -332.482706 
L 490.500176 -332.482706 
L 490.500395 -329.809301 
L 490.500765 -327.135895 
L 490.501283 -324.462489 
L 490.501877 -321.789083 
L 490.502412 -319.115677 
L 490.502748 -316.442272 
L 490.502806 -313.768866 
L 490.502616 -311.09546 
L 490.502299 -308.422054 
L 490.501991 -305.748648 
L 490.501776 -303.075243 
L 490.50167 -300.401837 
L 490.501666 -297.728431 
L 490.501774 -295.055025 
L 490.501999 -292.381619 
L 490.502292 -289.708213 
L 490.502555 -287.034808 
L 490.502706 -284.361402 
L 490.502745 -281.687996 
L 490.502773 -279.01459 
L 490.502953 -276.341184 
L 490.503449 -273.667779 
L 490.504363 -270.994373 
L 490.5057 -268.320967 
L 490.507347 -265.647561 
L 490.509088 -262.974155 
L 490.510635 -260.30075 
L 490.511722 -257.627344 
L 490.512211 -254.953938 
L 490.512168 -252.280532 
L 490.511844 -249.607126 
L 490.511612 -246.933721 
L 490.511881 -244.260315 
L 490.513007 -241.586909 
L 490.51516 -238.913503 
L 490.518209 -236.240097 
L 490.521728 -233.566691 
L 490.525173 -230.893286 
L 490.528206 -228.21988 
L 490.530937 -225.546474 
L 490.533857 -222.873068 
L 490.537444 -220.199662 
L 490.541824 -217.526257 
L 490.546865 -214.852851 
L 490.552631 -212.179445 
L 490.559718 -209.506039 
L 490.569038 -206.832633 
L 490.581197 -204.159228 
L 490.596003 -201.485822 
L 490.612607 -198.812416 
L 490.630256 -196.13901 
L 490.649077 -193.465604 
L 490.670241 -190.792199 
L 490.695239 -188.118793 
L 490.724723 -185.445387 
L 490.757795 -182.771981 
L 490.792388 -180.098575 
L 490.826484 -177.425169 
L 490.858948 -174.751764 
L 490.889132 -172.078358 
L 490.915747 -169.404952 
L 490.936536 -166.731546 
L 490.949463 -164.05814 
L 490.954436 -161.384735 
L 490.953884 -158.711329 
L 490.951483 -156.037923 
L 490.950001 -153.364517 
L 490.949906 -150.691111 
L 490.949697 -148.017706 
L 490.947389 -145.3443 
L 490.941903 -142.670894 
L 490.933562 -139.997488 
L 490.923584 -137.324082 
L 490.91288 -134.650676 
L 490.900771 -131.977271 
L 490.884737 -129.303865 
L 490.861817 -126.630459 
L 490.830781 -123.957053 
L 490.793231 -121.283647 
L 490.752766 -118.610242 
L 490.713161 -115.936836 
L 490.677055 -113.26343 
L 490.645672 -110.590024 
L 490.619089 -107.916618 
L 490.596582 -105.243213 
L 490.577053 -102.569807 
L 490.559628 -99.896401 
L 490.544114 -97.222995 
L 490.53094 -94.549589 
L 490.520628 -91.876184 
L 490.513278 -89.202778 
L 490.508458 -86.529372 
L 490.505446 -83.855966 
L 490.503549 -81.18256 
L 490.502285 -78.509154 
L 490.5014 -75.835749 
L 490.500787 -73.162343 
L 490.500395 -70.488937 
L 490.500173 -67.815531 
z
" style="stroke: #464646; stroke-width: 1.75"/>
    </defs>
    <g clip-path="url(#pde1c13c5c7)">
     <use xlink:href="#m5091377c5f" x="0" y="396" style="fill: #e78cd7; stroke: #464646; stroke-width: 1.75"/>
    </g>
   </g>
   <g id="line2d_21">
    <path d="M 99.9 324.696182 
L 99.9 279.473767 
" clip-path="url(#pde1c13c5c7)" style="fill: none; stroke: #464646; stroke-width: 1.75; stroke-linecap: round"/>
   </g>
   <g id="line2d_22">
    <path d="M 99.9 307.889883 
L 99.9 296.522861 
" clip-path="url(#pde1c13c5c7)" style="fill: none; stroke: #464646; stroke-width: 5.25; stroke-linecap: round"/>
   </g>
   <g id="line2d_23">
    <path d="M 155.7 326.845527 
L 155.7 268.954319 
" clip-path="url(#pde1c13c5c7)" style="fill: none; stroke: #464646; stroke-width: 1.75; stroke-linecap: round"/>
   </g>
   <g id="line2d_24">
    <path d="M 155.7 308.187053 
L 155.7 292.493683 
" clip-path="url(#pde1c13c5c7)" style="fill: none; stroke: #464646; stroke-width: 5.25; stroke-linecap: round"/>
   </g>
   <g id="line2d_25">
    <path d="M 211.5 327.484758 
L 211.5 253.243551 
" clip-path="url(#pde1c13c5c7)" style="fill: none; stroke: #464646; stroke-width: 1.75; stroke-linecap: round"/>
   </g>
   <g id="line2d_26">
    <path d="M 211.5 306.281918 
L 211.5 285.063507 
" clip-path="url(#pde1c13c5c7)" style="fill: none; stroke: #464646; stroke-width: 5.25; stroke-linecap: round"/>
   </g>
   <g id="line2d_27">
    <path d="M 267.3 324.365457 
L 267.3 263.664364 
" clip-path="url(#pde1c13c5c7)" style="fill: none; stroke: #464646; stroke-width: 1.75; stroke-linecap: round"/>
   </g>
   <g id="line2d_28">
    <path d="M 267.3 306.111042 
L 267.3 289.111979 
" clip-path="url(#pde1c13c5c7)" style="fill: none; stroke: #464646; stroke-width: 5.25; stroke-linecap: round"/>
   </g>
   <g id="line2d_29">
    <path d="M 323.1 324.656757 
L 323.1 259.560392 
" clip-path="url(#pde1c13c5c7)" style="fill: none; stroke: #464646; stroke-width: 1.75; stroke-linecap: round"/>
   </g>
   <g id="line2d_30">
    <path d="M 323.1 302.263128 
L 323.1 285.142693 
" clip-path="url(#pde1c13c5c7)" style="fill: none; stroke: #464646; stroke-width: 5.25; stroke-linecap: round"/>
   </g>
   <g id="line2d_31">
    <path d="M 378.9 324.951788 
L 378.9 247.217716 
" clip-path="url(#pde1c13c5c7)" style="fill: none; stroke: #464646; stroke-width: 1.75; stroke-linecap: round"/>
   </g>
   <g id="line2d_32">
    <path d="M 378.9 298.313515 
L 378.9 277.87277 
" clip-path="url(#pde1c13c5c7)" style="fill: none; stroke: #464646; stroke-width: 5.25; stroke-linecap: round"/>
   </g>
   <g id="line2d_33">
    <path d="M 434.7 321.702401 
L 434.7 168.122051 
" clip-path="url(#pde1c13c5c7)" style="fill: none; stroke: #464646; stroke-width: 1.75; stroke-linecap: round"/>
   </g>
   <g id="line2d_34">
    <path d="M 434.7 269.599073 
L 434.7 228.959207 
" clip-path="url(#pde1c13c5c7)" style="fill: none; stroke: #464646; stroke-width: 5.25; stroke-linecap: round"/>
   </g>
   <g id="line2d_35">
    <path d="M 490.5 315.260176 
L 490.5 168.319763 
" clip-path="url(#pde1c13c5c7)" style="fill: none; stroke: #464646; stroke-width: 1.75; stroke-linecap: round"/>
   </g>
   <g id="line2d_36">
    <path d="M 490.5 261.717345 
L 490.5 224.215109 
" clip-path="url(#pde1c13c5c7)" style="fill: none; stroke: #464646; stroke-width: 5.25; stroke-linecap: round"/>
   </g>
   <g id="line2d_37">
    <path d="M 72 302.8581 
L 518.4 302.8581 
" clip-path="url(#pde1c13c5c7)" style="fill: none; stroke-dasharray: 6.475,2.8; stroke-dashoffset: 0; stroke: #ff0000; stroke-width: 1.75"/>
   </g>
   <g id="patch_3">
    <path d="M 72 346.5 
L 72 47.52 
" style="fill: none; stroke: #cccccc; stroke-width: 1.25; stroke-linejoin: miter; stroke-linecap: square"/>
   </g>
   <g id="patch_4">
    <path d="M 518.4 346.5 
L 518.4 47.52 
" style="fill: none; stroke: #cccccc; stroke-width: 1.25; stroke-linejoin: miter; stroke-linecap: square"/>
   </g>
   <g id="patch_5">
    <path d="M 72 346.5 
L 518.4 346.5 
" style="fill: none; stroke: #cccccc; stroke-width: 1.25; stroke-linejoin: miter; stroke-linecap: square"/>
   </g>
   <g id="patch_6">
    <path d="M 72 47.52 
L 518.4 47.52 
" style="fill: none; stroke: #cccccc; stroke-width: 1.25; stroke-linejoin: miter; stroke-linecap: square"/>
   </g>
   <g id="PathCollection_1">
    <defs>
     <path id="m21742935ac" d="M 0 1.75 
C 0.464105 1.75 0.909265 1.565609 1.237437 1.237437 
C 1.565609 0.909265 1.75 0.464105 1.75 0 
C 1.75 -0.464105 1.565609 -0.909265 1.237437 -1.237437 
C 0.909265 -1.565609 0.464105 -1.75 0 -1.75 
C -0.464105 -1.75 -0.909265 -1.565609 -1.237437 -1.237437 
C -1.565609 -0.909265 -1.75 -0.464105 -1.75 0 
C -1.75 0.464105 -1.565609 0.909265 -1.237437 1.237437 
C -0.909265 1.565609 -0.464105 1.75 0 1.75 
z
" style="stroke: #464646; stroke-width: 0.3"/>
    </defs>
    <g clip-path="url(#pde1c13c5c7)">
     <use xlink:href="#m21742935ac" x="99.9" y="303.112017" style="fill: #ffffff; stroke: #464646; stroke-width: 0.3"/>
    </g>
   </g>
   <g id="PathCollection_2">
    <g clip-path="url(#pde1c13c5c7)">
     <use xlink:href="#m21742935ac" x="155.7" y="301.738412" style="fill: #ffffff; stroke: #464646; stroke-width: 0.3"/>
    </g>
   </g>
   <g id="PathCollection_3">
    <g clip-path="url(#pde1c13c5c7)">
     <use xlink:href="#m21742935ac" x="211.5" y="298.345237" style="fill: #ffffff; stroke: #464646; stroke-width: 0.3"/>
    </g>
   </g>
   <g id="PathCollection_4">
    <g clip-path="url(#pde1c13c5c7)">
     <use xlink:href="#m21742935ac" x="267.3" y="299.87337" style="fill: #ffffff; stroke: #464646; stroke-width: 0.3"/>
    </g>
   </g>
   <g id="PathCollection_5">
    <g clip-path="url(#pde1c13c5c7)">
     <use xlink:href="#m21742935ac" x="323.1" y="294.37626" style="fill: #ffffff; stroke: #464646; stroke-width: 0.3"/>
    </g>
   </g>
   <g id="PathCollection_6">
    <g clip-path="url(#pde1c13c5c7)">
     <use xlink:href="#m21742935ac" x="378.9" y="289.435495" style="fill: #ffffff; stroke: #464646; stroke-width: 0.3"/>
    </g>
   </g>
   <g id="PathCollection_7">
    <g clip-path="url(#pde1c13c5c7)">
     <use xlink:href="#m21742935ac" x="434.7" y="250.29462" style="fill: #ffffff; stroke: #464646; stroke-width: 0.3"/>
    </g>
   </g>
   <g id="PathCollection_8">
    <g clip-path="url(#pde1c13c5c7)">
     <use xlink:href="#m21742935ac" x="490.5" y="242.863546" style="fill: #ffffff; stroke: #464646; stroke-width: 0.3"/>
    </g>
   </g>
   <g id="text_17">
    <!-- Volume Comparison Vol_Edasi / Vol_Farinotti against Cent Lon -->
    <g style="fill: #262626" transform="translate(127.440937 41.52)scale(0.12 -0.12)">
     <defs>
      <path id="LiberationSans-6d" d="M 2400 0 
L 2400 2144 
Q 2400 2634 2265 2821 
Q 2131 3009 1781 3009 
Q 1422 3009 1212 2734 
Q 1003 2459 1003 1959 
L 1003 0 
L 444 0 
L 444 2659 
Q 444 3250 425 3381 
L 956 3381 
Q 959 3366 962 3297 
Q 966 3228 970 3139 
Q 975 3050 981 2803 
L 991 2803 
Q 1172 3163 1406 3303 
Q 1641 3444 1978 3444 
Q 2363 3444 2586 3291 
Q 2809 3138 2897 2803 
L 2906 2803 
Q 3081 3144 3329 3294 
Q 3578 3444 3931 3444 
Q 4444 3444 4676 3166 
Q 4909 2888 4909 2253 
L 4909 0 
L 4353 0 
L 4353 2144 
Q 4353 2634 4218 2821 
Q 4084 3009 3734 3009 
Q 3366 3009 3161 2736 
Q 2956 2463 2956 1959 
L 2956 0 
L 2400 0 
z
" transform="scale(0.015625)"/>
      <path id="LiberationSans-43" d="M 2475 3981 
Q 1744 3981 1337 3511 
Q 931 3041 931 2222 
Q 931 1413 1354 920 
Q 1778 428 2500 428 
Q 3425 428 3891 1344 
L 4378 1100 
Q 4106 531 3614 234 
Q 3122 -63 2472 -63 
Q 1806 -63 1320 214 
Q 834 491 579 1005 
Q 325 1519 325 2222 
Q 325 3275 894 3872 
Q 1463 4469 2469 4469 
Q 3172 4469 3644 4194 
Q 4116 3919 4338 3378 
L 3772 3191 
Q 3619 3575 3280 3778 
Q 2941 3981 2475 3981 
z
" transform="scale(0.015625)"/>
      <path id="LiberationSans-70" d="M 3291 1706 
Q 3291 -63 2047 -63 
Q 1266 -63 997 525 
L 981 525 
Q 994 500 994 -6 
L 994 -1328 
L 431 -1328 
L 431 2691 
Q 431 3213 413 3381 
L 956 3381 
Q 959 3369 965 3292 
Q 972 3216 980 3056 
Q 988 2897 988 2838 
L 1000 2838 
Q 1150 3150 1397 3295 
Q 1644 3441 2047 3441 
Q 2672 3441 2981 3022 
Q 3291 2603 3291 1706 
z
M 2700 1694 
Q 2700 2400 2509 2703 
Q 2319 3006 1903 3006 
Q 1569 3006 1380 2865 
Q 1191 2725 1092 2426 
Q 994 2128 994 1650 
Q 994 984 1206 668 
Q 1419 353 1897 353 
Q 2316 353 2508 661 
Q 2700 969 2700 1694 
z
" transform="scale(0.015625)"/>
     </defs>
     <use xlink:href="#LiberationSans-56"/>
     <use xlink:href="#LiberationSans-6f" x="61.199219"/>
     <use xlink:href="#LiberationSans-6c" x="116.814453"/>
     <use xlink:href="#LiberationSans-75" x="139.03125"/>
     <use xlink:href="#LiberationSans-6d" x="194.646484"/>
     <use xlink:href="#LiberationSans-65" x="277.947266"/>
     <use xlink:href="#LiberationSans-20" x="333.5625"/>
     <use xlink:href="#LiberationSans-43" x="361.345703"/>
     <use xlink:href="#LiberationSans-6f" x="433.5625"/>
     <use xlink:href="#LiberationSans-6d" x="489.177734"/>
     <use xlink:href="#LiberationSans-70" x="572.478516"/>
     <use xlink:href="#LiberationSans-61" x="628.09375"/>
     <use xlink:href="#LiberationSans-72" x="683.708984"/>
     <use xlink:href="#LiberationSans-69" x="717.009766"/>
     <use xlink:href="#LiberationSans-73" x="739.226562"/>
     <use xlink:href="#LiberationSans-6f" x="789.226562"/>
     <use xlink:href="#LiberationSans-6e" x="844.841797"/>
     <use xlink:href="#LiberationSans-20" x="900.457031"/>
     <use xlink:href="#LiberationSans-56" x="928.240234"/>
     <use xlink:href="#LiberationSans-6f" x="989.439453"/>
     <use xlink:href="#LiberationSans-6c" x="1045.054688"/>
     <use xlink:href="#LiberationSans-5f" x="1067.271484"/>
     <use xlink:href="#LiberationSans-45" x="1122.886719"/>
     <use xlink:href="#LiberationSans-64" x="1189.585938"/>
     <use xlink:href="#LiberationSans-61" x="1245.201172"/>
     <use xlink:href="#LiberationSans-73" x="1300.816406"/>
     <use xlink:href="#LiberationSans-69" x="1350.816406"/>
     <use xlink:href="#LiberationSans-20" x="1373.033203"/>
     <use xlink:href="#LiberationSans-2f" x="1400.816406"/>
     <use xlink:href="#LiberationSans-20" x="1428.599609"/>
     <use xlink:href="#LiberationSans-56" x="1456.382812"/>
     <use xlink:href="#LiberationSans-6f" x="1517.582031"/>
     <use xlink:href="#LiberationSans-6c" x="1573.197266"/>
     <use xlink:href="#LiberationSans-5f" x="1595.414062"/>
     <use xlink:href="#LiberationSans-46" x="1651.029297"/>
     <use xlink:href="#LiberationSans-61" x="1712.113281"/>
     <use xlink:href="#LiberationSans-72" x="1767.728516"/>
     <use xlink:href="#LiberationSans-69" x="1801.029297"/>
     <use xlink:href="#LiberationSans-6e" x="1823.246094"/>
     <use xlink:href="#LiberationSans-6f" x="1878.861328"/>
     <use xlink:href="#LiberationSans-74" x="1934.476562"/>
     <use xlink:href="#LiberationSans-74" x="1962.259766"/>
     <use xlink:href="#LiberationSans-69" x="1990.042969"/>
     <use xlink:href="#LiberationSans-20" x="2012.259766"/>
     <use xlink:href="#LiberationSans-61" x="2040.042969"/>
     <use xlink:href="#LiberationSans-67" x="2095.658203"/>
     <use xlink:href="#LiberationSans-61" x="2151.273438"/>
     <use xlink:href="#LiberationSans-69" x="2206.888672"/>
     <use xlink:href="#LiberationSans-6e" x="2229.105469"/>
     <use xlink:href="#LiberationSans-73" x="2284.720703"/>
     <use xlink:href="#LiberationSans-74" x="2334.720703"/>
     <use xlink:href="#LiberationSans-20" x="2362.503906"/>
     <use xlink:href="#LiberationSans-43" x="2390.287109"/>
     <use xlink:href="#LiberationSans-65" x="2462.503906"/>
     <use xlink:href="#LiberationSans-6e" x="2518.119141"/>
     <use xlink:href="#LiberationSans-74" x="2573.734375"/>
     <use xlink:href="#LiberationSans-20" x="2601.517578"/>
     <use xlink:href="#LiberationSans-4c" x="2629.300781"/>
     <use xlink:href="#LiberationSans-6f" x="2684.916016"/>
     <use xlink:href="#LiberationSans-6e" x="2740.53125"/>
    </g>
   </g>
  </g>
 </g>
 <defs>
  <clipPath id="pde1c13c5c7">
   <rect x="72" y="47.52" width="446.4" height="298.98"/>
  </clipPath>
 </defs>
</svg>
