<?xml version="1.0" encoding="utf-8" standalone="no"?>
<!DOCTYPE svg PUBLIC "-//W3C//DTD SVG 1.1//EN"
  "http://www.w3.org/Graphics/SVG/1.1/DTD/svg11.dtd">
<svg xmlns:xlink="http://www.w3.org/1999/xlink" width="576pt" height="396pt" viewBox="0 0 576 396" xmlns="http://www.w3.org/2000/svg" version="1.1">
 <metadata>
  <rdf:RDF xmlns:dc="http://purl.org/dc/elements/1.1/" xmlns:cc="http://creativecommons.org/ns#" xmlns:rdf="http://www.w3.org/1999/02/22-rdf-syntax-ns#">
   <cc:Work>
    <dc:type rdf:resource="http://purl.org/dc/dcmitype/StillImage"/>
    <dc:date>2022-10-31T10:07:33.024375</dc:date>
    <dc:format>image/svg+xml</dc:format>
    <dc:creator>
     <cc:Agent>
      <dc:title>Matplotlib v3.5.0, https://matplotlib.org/</dc:title>
     </cc:Agent>
    </dc:creator>
   </cc:Work>
  </rdf:RDF>
 </metadata>
 <defs>
  <style type="text/css">*{stroke-linejoin: round; stroke-linecap: butt}</style>
 </defs>
 <g id="figure_1">
  <g id="patch_1">
   <path d="M 0 396 
L 576 396 
L 576 0 
L 0 0 
z
" style="fill: #ffffff"/>
  </g>
  <g id="axes_1">
   <g id="patch_2">
    <path d="M 72 346.5 
L 518.4 346.5 
L 518.4 47.52 
L 72 47.52 
z
" style="fill: #ffffff"/>
   </g>
   <g id="matplotlib.axis_1">
    <g id="xtick_1">
     <g id="line2d_1"/>
     <g id="text_1">
      <!-- 0-1000 -->
      <g style="fill: #262626" transform="translate(78.752812 360.746875)scale(0.1 -0.1)">
       <defs>
        <path id="LiberationSans-30" d="M 3309 2203 
Q 3309 1100 2920 518 
Q 2531 -63 1772 -63 
Q 1013 -63 631 515 
Q 250 1094 250 2203 
Q 250 3338 620 3903 
Q 991 4469 1791 4469 
Q 2569 4469 2939 3897 
Q 3309 3325 3309 2203 
z
M 2738 2203 
Q 2738 3156 2517 3584 
Q 2297 4013 1791 4013 
Q 1272 4013 1045 3591 
Q 819 3169 819 2203 
Q 819 1266 1048 831 
Q 1278 397 1778 397 
Q 2275 397 2506 840 
Q 2738 1284 2738 2203 
z
" transform="scale(0.015625)"/>
        <path id="LiberationSans-2d" d="M 284 1450 
L 284 1950 
L 1847 1950 
L 1847 1450 
L 284 1450 
z
" transform="scale(0.015625)"/>
        <path id="LiberationSans-31" d="M 488 0 
L 488 478 
L 1609 478 
L 1609 3866 
L 616 3156 
L 616 3688 
L 1656 4403 
L 2175 4403 
L 2175 478 
L 3247 478 
L 3247 0 
L 488 0 
z
" transform="scale(0.015625)"/>
       </defs>
       <use xlink:href="#LiberationSans-30"/>
       <use xlink:href="#LiberationSans-2d" x="55.615234"/>
       <use xlink:href="#LiberationSans-31" x="88.916016"/>
       <use xlink:href="#LiberationSans-30" x="144.53125"/>
       <use xlink:href="#LiberationSans-30" x="200.146484"/>
       <use xlink:href="#LiberationSans-30" x="255.761719"/>
      </g>
     </g>
    </g>
    <g id="xtick_2">
     <g id="line2d_2"/>
     <g id="text_2">
      <!-- 1000-2000 -->
      <g style="fill: #262626" transform="translate(115.051406 360.746875)scale(0.1 -0.1)">
       <defs>
        <path id="LiberationSans-32" d="M 322 0 
L 322 397 
Q 481 763 711 1042 
Q 941 1322 1194 1548 
Q 1447 1775 1695 1969 
Q 1944 2163 2144 2356 
Q 2344 2550 2467 2762 
Q 2591 2975 2591 3244 
Q 2591 3606 2378 3806 
Q 2166 4006 1788 4006 
Q 1428 4006 1195 3811 
Q 963 3616 922 3263 
L 347 3316 
Q 409 3844 795 4156 
Q 1181 4469 1788 4469 
Q 2453 4469 2811 4155 
Q 3169 3841 3169 3263 
Q 3169 3006 3051 2753 
Q 2934 2500 2703 2247 
Q 2472 1994 1819 1463 
Q 1459 1169 1246 933 
Q 1034 697 941 478 
L 3238 478 
L 3238 0 
L 322 0 
z
" transform="scale(0.015625)"/>
       </defs>
       <use xlink:href="#LiberationSans-31"/>
       <use xlink:href="#LiberationSans-30" x="55.615234"/>
       <use xlink:href="#LiberationSans-30" x="111.230469"/>
       <use xlink:href="#LiberationSans-30" x="166.845703"/>
       <use xlink:href="#LiberationSans-2d" x="222.460938"/>
       <use xlink:href="#LiberationSans-32" x="255.761719"/>
       <use xlink:href="#LiberationSans-30" x="311.376953"/>
       <use xlink:href="#LiberationSans-30" x="366.992188"/>
       <use xlink:href="#LiberationSans-30" x="422.607422"/>
      </g>
     </g>
    </g>
    <g id="xtick_3">
     <g id="line2d_3"/>
     <g id="text_3">
      <!-- 2000-3000 -->
      <g style="fill: #262626" transform="translate(159.691406 360.746875)scale(0.1 -0.1)">
       <defs>
        <path id="LiberationSans-33" d="M 3278 1216 
Q 3278 606 2890 271 
Q 2503 -63 1784 -63 
Q 1116 -63 717 239 
Q 319 541 244 1131 
L 825 1184 
Q 938 403 1784 403 
Q 2209 403 2451 612 
Q 2694 822 2694 1234 
Q 2694 1594 2417 1795 
Q 2141 1997 1619 1997 
L 1300 1997 
L 1300 2484 
L 1606 2484 
Q 2069 2484 2323 2686 
Q 2578 2888 2578 3244 
Q 2578 3597 2370 3801 
Q 2163 4006 1753 4006 
Q 1381 4006 1151 3815 
Q 922 3625 884 3278 
L 319 3322 
Q 381 3863 767 4166 
Q 1153 4469 1759 4469 
Q 2422 4469 2789 4161 
Q 3156 3853 3156 3303 
Q 3156 2881 2920 2617 
Q 2684 2353 2234 2259 
L 2234 2247 
Q 2728 2194 3003 1916 
Q 3278 1638 3278 1216 
z
" transform="scale(0.015625)"/>
       </defs>
       <use xlink:href="#LiberationSans-32"/>
       <use xlink:href="#LiberationSans-30" x="55.615234"/>
       <use xlink:href="#LiberationSans-30" x="111.230469"/>
       <use xlink:href="#LiberationSans-30" x="166.845703"/>
       <use xlink:href="#LiberationSans-2d" x="222.460938"/>
       <use xlink:href="#LiberationSans-33" x="255.761719"/>
       <use xlink:href="#LiberationSans-30" x="311.376953"/>
       <use xlink:href="#LiberationSans-30" x="366.992188"/>
       <use xlink:href="#LiberationSans-30" x="422.607422"/>
      </g>
     </g>
    </g>
    <g id="xtick_4">
     <g id="line2d_4"/>
     <g id="text_4">
      <!-- 3000-4000 -->
      <g style="fill: #262626" transform="translate(204.331406 360.746875)scale(0.1 -0.1)">
       <defs>
        <path id="LiberationSans-34" d="M 2753 997 
L 2753 0 
L 2222 0 
L 2222 997 
L 147 997 
L 147 1434 
L 2163 4403 
L 2753 4403 
L 2753 1441 
L 3372 1441 
L 3372 997 
L 2753 997 
z
M 2222 3769 
Q 2216 3750 2134 3603 
Q 2053 3456 2013 3397 
L 884 1734 
L 716 1503 
L 666 1441 
L 2222 1441 
L 2222 3769 
z
" transform="scale(0.015625)"/>
       </defs>
       <use xlink:href="#LiberationSans-33"/>
       <use xlink:href="#LiberationSans-30" x="55.615234"/>
       <use xlink:href="#LiberationSans-30" x="111.230469"/>
       <use xlink:href="#LiberationSans-30" x="166.845703"/>
       <use xlink:href="#LiberationSans-2d" x="222.460938"/>
       <use xlink:href="#LiberationSans-34" x="255.761719"/>
       <use xlink:href="#LiberationSans-30" x="311.376953"/>
       <use xlink:href="#LiberationSans-30" x="366.992188"/>
       <use xlink:href="#LiberationSans-30" x="422.607422"/>
      </g>
     </g>
    </g>
    <g id="xtick_5">
     <g id="line2d_5"/>
     <g id="text_5">
      <!-- 4000-5000 -->
      <g style="fill: #262626" transform="translate(248.971406 360.746875)scale(0.1 -0.1)">
       <defs>
        <path id="LiberationSans-35" d="M 3291 1434 
Q 3291 738 2877 337 
Q 2463 -63 1728 -63 
Q 1113 -63 734 206 
Q 356 475 256 984 
L 825 1050 
Q 1003 397 1741 397 
Q 2194 397 2450 670 
Q 2706 944 2706 1422 
Q 2706 1838 2448 2094 
Q 2191 2350 1753 2350 
Q 1525 2350 1328 2278 
Q 1131 2206 934 2034 
L 384 2034 
L 531 4403 
L 3034 4403 
L 3034 3925 
L 1044 3925 
L 959 2528 
Q 1325 2809 1869 2809 
Q 2519 2809 2905 2428 
Q 3291 2047 3291 1434 
z
" transform="scale(0.015625)"/>
       </defs>
       <use xlink:href="#LiberationSans-34"/>
       <use xlink:href="#LiberationSans-30" x="55.615234"/>
       <use xlink:href="#LiberationSans-30" x="111.230469"/>
       <use xlink:href="#LiberationSans-30" x="166.845703"/>
       <use xlink:href="#LiberationSans-2d" x="222.460938"/>
       <use xlink:href="#LiberationSans-35" x="255.761719"/>
       <use xlink:href="#LiberationSans-30" x="311.376953"/>
       <use xlink:href="#LiberationSans-30" x="366.992188"/>
       <use xlink:href="#LiberationSans-30" x="422.607422"/>
      </g>
     </g>
    </g>
    <g id="xtick_6">
     <g id="line2d_6"/>
     <g id="text_6">
      <!-- 5000-6000 -->
      <g style="fill: #262626" transform="translate(293.611406 360.746875)scale(0.1 -0.1)">
       <defs>
        <path id="LiberationSans-36" d="M 3278 1441 
Q 3278 744 2900 340 
Q 2522 -63 1856 -63 
Q 1113 -63 719 490 
Q 325 1044 325 2100 
Q 325 3244 734 3856 
Q 1144 4469 1900 4469 
Q 2897 4469 3156 3572 
L 2619 3475 
Q 2453 4013 1894 4013 
Q 1413 4013 1148 3564 
Q 884 3116 884 2266 
Q 1038 2550 1316 2698 
Q 1594 2847 1953 2847 
Q 2563 2847 2920 2465 
Q 3278 2084 3278 1441 
z
M 2706 1416 
Q 2706 1894 2472 2153 
Q 2238 2413 1819 2413 
Q 1425 2413 1183 2183 
Q 941 1953 941 1550 
Q 941 1041 1192 716 
Q 1444 391 1838 391 
Q 2244 391 2475 664 
Q 2706 938 2706 1416 
z
" transform="scale(0.015625)"/>
       </defs>
       <use xlink:href="#LiberationSans-35"/>
       <use xlink:href="#LiberationSans-30" x="55.615234"/>
       <use xlink:href="#LiberationSans-30" x="111.230469"/>
       <use xlink:href="#LiberationSans-30" x="166.845703"/>
       <use xlink:href="#LiberationSans-2d" x="222.460938"/>
       <use xlink:href="#LiberationSans-36" x="255.761719"/>
       <use xlink:href="#LiberationSans-30" x="311.376953"/>
       <use xlink:href="#LiberationSans-30" x="366.992188"/>
       <use xlink:href="#LiberationSans-30" x="422.607422"/>
      </g>
     </g>
    </g>
    <g id="xtick_7">
     <g id="line2d_7"/>
     <g id="text_7">
      <!-- 6000-7000 -->
      <g style="fill: #262626" transform="translate(338.251406 360.746875)scale(0.1 -0.1)">
       <defs>
        <path id="LiberationSans-37" d="M 3238 3947 
Q 2563 2916 2284 2331 
Q 2006 1747 1867 1178 
Q 1728 609 1728 0 
L 1141 0 
Q 1141 844 1498 1776 
Q 1856 2709 2694 3925 
L 328 3925 
L 328 4403 
L 3238 4403 
L 3238 3947 
z
" transform="scale(0.015625)"/>
       </defs>
       <use xlink:href="#LiberationSans-36"/>
       <use xlink:href="#LiberationSans-30" x="55.615234"/>
       <use xlink:href="#LiberationSans-30" x="111.230469"/>
       <use xlink:href="#LiberationSans-30" x="166.845703"/>
       <use xlink:href="#LiberationSans-2d" x="222.460938"/>
       <use xlink:href="#LiberationSans-37" x="255.761719"/>
       <use xlink:href="#LiberationSans-30" x="311.376953"/>
       <use xlink:href="#LiberationSans-30" x="366.992188"/>
       <use xlink:href="#LiberationSans-30" x="422.607422"/>
      </g>
     </g>
    </g>
    <g id="xtick_8">
     <g id="line2d_8"/>
     <g id="text_8">
      <!-- 7000-8000 -->
      <g style="fill: #262626" transform="translate(382.891406 360.746875)scale(0.1 -0.1)">
       <defs>
        <path id="LiberationSans-38" d="M 3281 1228 
Q 3281 619 2893 278 
Q 2506 -63 1781 -63 
Q 1075 -63 676 271 
Q 278 606 278 1222 
Q 278 1653 525 1947 
Q 772 2241 1156 2303 
L 1156 2316 
Q 797 2400 589 2681 
Q 381 2963 381 3341 
Q 381 3844 757 4156 
Q 1134 4469 1769 4469 
Q 2419 4469 2795 4162 
Q 3172 3856 3172 3334 
Q 3172 2956 2962 2675 
Q 2753 2394 2391 2322 
L 2391 2309 
Q 2813 2241 3047 1952 
Q 3281 1663 3281 1228 
z
M 2588 3303 
Q 2588 4050 1769 4050 
Q 1372 4050 1164 3862 
Q 956 3675 956 3303 
Q 956 2925 1170 2726 
Q 1384 2528 1775 2528 
Q 2172 2528 2380 2711 
Q 2588 2894 2588 3303 
z
M 2697 1281 
Q 2697 1691 2453 1898 
Q 2209 2106 1769 2106 
Q 1341 2106 1100 1882 
Q 859 1659 859 1269 
Q 859 359 1788 359 
Q 2247 359 2472 579 
Q 2697 800 2697 1281 
z
" transform="scale(0.015625)"/>
       </defs>
       <use xlink:href="#LiberationSans-37"/>
       <use xlink:href="#LiberationSans-30" x="55.615234"/>
       <use xlink:href="#LiberationSans-30" x="111.230469"/>
       <use xlink:href="#LiberationSans-30" x="166.845703"/>
       <use xlink:href="#LiberationSans-2d" x="222.460938"/>
       <use xlink:href="#LiberationSans-38" x="255.761719"/>
       <use xlink:href="#LiberationSans-30" x="311.376953"/>
       <use xlink:href="#LiberationSans-30" x="366.992188"/>
       <use xlink:href="#LiberationSans-30" x="422.607422"/>
      </g>
     </g>
    </g>
    <g id="xtick_9">
     <g id="line2d_9"/>
     <g id="text_9">
      <!-- 8000-9000 -->
      <g style="fill: #262626" transform="translate(427.531406 360.746875)scale(0.1 -0.1)">
       <defs>
        <path id="LiberationSans-39" d="M 3256 2291 
Q 3256 1156 2842 546 
Q 2428 -63 1663 -63 
Q 1147 -63 836 154 
Q 525 372 391 856 
L 928 941 
Q 1097 391 1672 391 
Q 2156 391 2422 841 
Q 2688 1291 2700 2125 
Q 2575 1844 2272 1673 
Q 1969 1503 1606 1503 
Q 1013 1503 656 1909 
Q 300 2316 300 2988 
Q 300 3678 687 4073 
Q 1075 4469 1766 4469 
Q 2500 4469 2878 3925 
Q 3256 3381 3256 2291 
z
M 2644 2834 
Q 2644 3366 2400 3689 
Q 2156 4013 1747 4013 
Q 1341 4013 1106 3736 
Q 872 3459 872 2988 
Q 872 2506 1106 2226 
Q 1341 1947 1741 1947 
Q 1984 1947 2193 2058 
Q 2403 2169 2523 2372 
Q 2644 2575 2644 2834 
z
" transform="scale(0.015625)"/>
       </defs>
       <use xlink:href="#LiberationSans-38"/>
       <use xlink:href="#LiberationSans-30" x="55.615234"/>
       <use xlink:href="#LiberationSans-30" x="111.230469"/>
       <use xlink:href="#LiberationSans-30" x="166.845703"/>
       <use xlink:href="#LiberationSans-2d" x="222.460938"/>
       <use xlink:href="#LiberationSans-39" x="255.761719"/>
       <use xlink:href="#LiberationSans-30" x="311.376953"/>
       <use xlink:href="#LiberationSans-30" x="366.992188"/>
       <use xlink:href="#LiberationSans-30" x="422.607422"/>
      </g>
     </g>
    </g>
    <g id="xtick_10">
     <g id="line2d_10"/>
     <g id="text_10">
      <!-- 9000-10000 -->
      <g style="fill: #262626" transform="translate(469.390938 360.746875)scale(0.1 -0.1)">
       <use xlink:href="#LiberationSans-39"/>
       <use xlink:href="#LiberationSans-30" x="55.615234"/>
       <use xlink:href="#LiberationSans-30" x="111.230469"/>
       <use xlink:href="#LiberationSans-30" x="166.845703"/>
       <use xlink:href="#LiberationSans-2d" x="222.460938"/>
       <use xlink:href="#LiberationSans-31" x="255.761719"/>
       <use xlink:href="#LiberationSans-30" x="311.376953"/>
       <use xlink:href="#LiberationSans-30" x="366.992188"/>
       <use xlink:href="#LiberationSans-30" x="422.607422"/>
       <use xlink:href="#LiberationSans-30" x="478.222656"/>
      </g>
     </g>
    </g>
    <g id="text_11">
     <!-- Lmax (m) -->
     <g style="fill: #262626" transform="translate(271.979688 374.793437)scale(0.11 -0.11)">
      <defs>
       <path id="LiberationSans-4c" d="M 525 0 
L 525 4403 
L 1122 4403 
L 1122 488 
L 3347 488 
L 3347 0 
L 525 0 
z
" transform="scale(0.015625)"/>
       <path id="LiberationSans-6d" d="M 2400 0 
L 2400 2144 
Q 2400 2634 2265 2821 
Q 2131 3009 1781 3009 
Q 1422 3009 1212 2734 
Q 1003 2459 1003 1959 
L 1003 0 
L 444 0 
L 444 2659 
Q 444 3250 425 3381 
L 956 3381 
Q 959 3366 962 3297 
Q 966 3228 970 3139 
Q 975 3050 981 2803 
L 991 2803 
Q 1172 3163 1406 3303 
Q 1641 3444 1978 3444 
Q 2363 3444 2586 3291 
Q 2809 3138 2897 2803 
L 2906 2803 
Q 3081 3144 3329 3294 
Q 3578 3444 3931 3444 
Q 4444 3444 4676 3166 
Q 4909 2888 4909 2253 
L 4909 0 
L 4353 0 
L 4353 2144 
Q 4353 2634 4218 2821 
Q 4084 3009 3734 3009 
Q 3366 3009 3161 2736 
Q 2956 2463 2956 1959 
L 2956 0 
L 2400 0 
z
" transform="scale(0.015625)"/>
       <path id="LiberationSans-61" d="M 1294 -63 
Q 784 -63 528 206 
Q 272 475 272 944 
Q 272 1469 617 1750 
Q 963 2031 1731 2050 
L 2491 2063 
L 2491 2247 
Q 2491 2659 2316 2837 
Q 2141 3016 1766 3016 
Q 1388 3016 1216 2887 
Q 1044 2759 1009 2478 
L 422 2531 
Q 566 3444 1778 3444 
Q 2416 3444 2737 3151 
Q 3059 2859 3059 2306 
L 3059 850 
Q 3059 600 3125 473 
Q 3191 347 3375 347 
Q 3456 347 3559 369 
L 3559 19 
Q 3347 -31 3125 -31 
Q 2813 -31 2670 133 
Q 2528 297 2509 647 
L 2491 647 
Q 2275 259 1989 98 
Q 1703 -63 1294 -63 
z
M 1422 359 
Q 1731 359 1972 500 
Q 2213 641 2352 886 
Q 2491 1131 2491 1391 
L 2491 1669 
L 1875 1656 
Q 1478 1650 1273 1575 
Q 1069 1500 959 1344 
Q 850 1188 850 934 
Q 850 659 998 509 
Q 1147 359 1422 359 
z
" transform="scale(0.015625)"/>
       <path id="LiberationSans-78" d="M 2503 0 
L 1594 1388 
L 678 0 
L 72 0 
L 1275 1738 
L 128 3381 
L 750 3381 
L 1594 2066 
L 2431 3381 
L 3059 3381 
L 1913 1744 
L 3131 0 
L 2503 0 
z
" transform="scale(0.015625)"/>
       <path id="LiberationSans-20" transform="scale(0.015625)"/>
       <path id="LiberationSans-28" d="M 397 1663 
Q 397 2566 680 3284 
Q 963 4003 1550 4638 
L 2094 4638 
Q 1509 3988 1236 3256 
Q 963 2525 963 1656 
Q 963 791 1233 62 
Q 1503 -666 2094 -1325 
L 1550 -1325 
Q 959 -688 678 32 
Q 397 753 397 1650 
L 397 1663 
z
" transform="scale(0.015625)"/>
       <path id="LiberationSans-29" d="M 1734 1650 
Q 1734 747 1451 28 
Q 1169 -691 581 -1325 
L 38 -1325 
Q 625 -669 897 57 
Q 1169 784 1169 1656 
Q 1169 2528 895 3256 
Q 622 3984 38 4638 
L 581 4638 
Q 1172 4000 1453 3279 
Q 1734 2559 1734 1663 
L 1734 1650 
z
" transform="scale(0.015625)"/>
      </defs>
      <use xlink:href="#LiberationSans-4c"/>
      <use xlink:href="#LiberationSans-6d" x="55.615234"/>
      <use xlink:href="#LiberationSans-61" x="138.916016"/>
      <use xlink:href="#LiberationSans-78" x="194.53125"/>
      <use xlink:href="#LiberationSans-20" x="244.53125"/>
      <use xlink:href="#LiberationSans-28" x="272.314453"/>
      <use xlink:href="#LiberationSans-6d" x="305.615234"/>
      <use xlink:href="#LiberationSans-29" x="388.916016"/>
     </g>
    </g>
   </g>
   <g id="matplotlib.axis_2">
    <g id="ytick_1">
     <g id="line2d_11">
      <path d="M 72 330.230769 
L 518.4 330.230769 
" clip-path="url(#p256c4f7651)" style="fill: none; stroke: #cccccc; stroke-linecap: round"/>
     </g>
     <g id="line2d_12"/>
     <g id="text_12">
      <!-- 0 -->
      <g style="fill: #262626" transform="translate(59.439062 333.854206)scale(0.1 -0.1)">
       <use xlink:href="#LiberationSans-30"/>
      </g>
     </g>
    </g>
    <g id="ytick_2">
     <g id="line2d_13">
      <path d="M 72 276.990355 
L 518.4 276.990355 
" clip-path="url(#p256c4f7651)" style="fill: none; stroke: #cccccc; stroke-linecap: round"/>
     </g>
     <g id="line2d_14"/>
     <g id="text_13">
      <!-- 2 -->
      <g style="fill: #262626" transform="translate(59.439062 280.613792)scale(0.1 -0.1)">
       <use xlink:href="#LiberationSans-32"/>
      </g>
     </g>
    </g>
    <g id="ytick_3">
     <g id="line2d_15">
      <path d="M 72 223.74994 
L 518.4 223.74994 
" clip-path="url(#p256c4f7651)" style="fill: none; stroke: #cccccc; stroke-linecap: round"/>
     </g>
     <g id="line2d_16"/>
     <g id="text_14">
      <!-- 4 -->
      <g style="fill: #262626" transform="translate(59.439062 227.373378)scale(0.1 -0.1)">
       <use xlink:href="#LiberationSans-34"/>
      </g>
     </g>
    </g>
    <g id="ytick_4">
     <g id="line2d_17">
      <path d="M 72 170.509526 
L 518.4 170.509526 
" clip-path="url(#p256c4f7651)" style="fill: none; stroke: #cccccc; stroke-linecap: round"/>
     </g>
     <g id="line2d_18"/>
     <g id="text_15">
      <!-- 6 -->
      <g style="fill: #262626" transform="translate(59.439062 174.132964)scale(0.1 -0.1)">
       <use xlink:href="#LiberationSans-36"/>
      </g>
     </g>
    </g>
    <g id="ytick_5">
     <g id="line2d_19">
      <path d="M 72 117.269112 
L 518.4 117.269112 
" clip-path="url(#p256c4f7651)" style="fill: none; stroke: #cccccc; stroke-linecap: round"/>
     </g>
     <g id="line2d_20"/>
     <g id="text_16">
      <!-- 8 -->
      <g style="fill: #262626" transform="translate(59.439062 120.89255)scale(0.1 -0.1)">
       <use xlink:href="#LiberationSans-38"/>
      </g>
     </g>
    </g>
    <g id="ytick_6">
     <g id="line2d_21">
      <path d="M 72 64.028698 
L 518.4 64.028698 
" clip-path="url(#p256c4f7651)" style="fill: none; stroke: #cccccc; stroke-linecap: round"/>
     </g>
     <g id="line2d_22"/>
     <g id="text_17">
      <!-- 10 -->
      <g style="fill: #262626" transform="translate(53.878125 67.652136)scale(0.1 -0.1)">
       <use xlink:href="#LiberationSans-31"/>
       <use xlink:href="#LiberationSans-30" x="55.615234"/>
      </g>
     </g>
    </g>
    <g id="text_18">
     <!-- Vol_Edasi / Vol_Farinotti -->
     <g style="fill: #262626" transform="translate(47.595625 256.628281)rotate(-90)scale(0.11 -0.11)">
      <defs>
       <path id="LiberationSans-56" d="M 2444 0 
L 1825 0 
L 28 4403 
L 656 4403 
L 1875 1303 
L 2138 525 
L 2400 1303 
L 3613 4403 
L 4241 4403 
L 2444 0 
z
" transform="scale(0.015625)"/>
       <path id="LiberationSans-6f" d="M 3291 1694 
Q 3291 806 2900 371 
Q 2509 -63 1766 -63 
Q 1025 -63 647 389 
Q 269 841 269 1694 
Q 269 3444 1784 3444 
Q 2559 3444 2925 3017 
Q 3291 2591 3291 1694 
z
M 2700 1694 
Q 2700 2394 2492 2711 
Q 2284 3028 1794 3028 
Q 1300 3028 1079 2704 
Q 859 2381 859 1694 
Q 859 1025 1076 689 
Q 1294 353 1759 353 
Q 2266 353 2483 678 
Q 2700 1003 2700 1694 
z
" transform="scale(0.015625)"/>
       <path id="LiberationSans-6c" d="M 431 0 
L 431 4638 
L 994 4638 
L 994 0 
L 431 0 
z
" transform="scale(0.015625)"/>
       <path id="LiberationSans-5f" d="M -97 -1272 
L -97 -866 
L 3631 -866 
L 3631 -1272 
L -97 -1272 
z
" transform="scale(0.015625)"/>
       <path id="LiberationSans-45" d="M 525 0 
L 525 4403 
L 3866 4403 
L 3866 3916 
L 1122 3916 
L 1122 2503 
L 3678 2503 
L 3678 2022 
L 1122 2022 
L 1122 488 
L 3994 488 
L 3994 0 
L 525 0 
z
" transform="scale(0.015625)"/>
       <path id="LiberationSans-64" d="M 2566 544 
Q 2409 219 2151 78 
Q 1894 -63 1513 -63 
Q 872 -63 570 368 
Q 269 800 269 1675 
Q 269 3444 1513 3444 
Q 1897 3444 2153 3303 
Q 2409 3163 2566 2856 
L 2572 2856 
L 2566 3234 
L 2566 4638 
L 3128 4638 
L 3128 697 
Q 3128 169 3147 0 
L 2609 0 
Q 2600 50 2589 231 
Q 2578 413 2578 544 
L 2566 544 
z
M 859 1694 
Q 859 984 1046 678 
Q 1234 372 1656 372 
Q 2134 372 2350 703 
Q 2566 1034 2566 1731 
Q 2566 2403 2350 2715 
Q 2134 3028 1663 3028 
Q 1238 3028 1048 2714 
Q 859 2400 859 1694 
z
" transform="scale(0.015625)"/>
       <path id="LiberationSans-73" d="M 2969 934 
Q 2969 456 2608 196 
Q 2247 -63 1597 -63 
Q 966 -63 623 145 
Q 281 353 178 794 
L 675 891 
Q 747 619 972 492 
Q 1197 366 1597 366 
Q 2025 366 2223 497 
Q 2422 628 2422 891 
Q 2422 1091 2284 1216 
Q 2147 1341 1841 1422 
L 1438 1528 
Q 953 1653 748 1773 
Q 544 1894 428 2066 
Q 313 2238 313 2488 
Q 313 2950 642 3192 
Q 972 3434 1603 3434 
Q 2163 3434 2492 3237 
Q 2822 3041 2909 2606 
L 2403 2544 
Q 2356 2769 2151 2889 
Q 1947 3009 1603 3009 
Q 1222 3009 1040 2893 
Q 859 2778 859 2544 
Q 859 2400 934 2306 
Q 1009 2213 1156 2147 
Q 1303 2081 1775 1966 
Q 2222 1853 2419 1758 
Q 2616 1663 2730 1547 
Q 2844 1431 2906 1279 
Q 2969 1128 2969 934 
z
" transform="scale(0.015625)"/>
       <path id="LiberationSans-69" d="M 428 4100 
L 428 4638 
L 991 4638 
L 991 4100 
L 428 4100 
z
M 428 0 
L 428 3381 
L 991 3381 
L 991 0 
L 428 0 
z
" transform="scale(0.015625)"/>
       <path id="LiberationSans-2f" d="M 0 -63 
L 1284 4638 
L 1778 4638 
L 506 -63 
L 0 -63 
z
" transform="scale(0.015625)"/>
       <path id="LiberationSans-46" d="M 1122 3916 
L 1122 2278 
L 3578 2278 
L 3578 1784 
L 1122 1784 
L 1122 0 
L 525 0 
L 525 4403 
L 3653 4403 
L 3653 3916 
L 1122 3916 
z
" transform="scale(0.015625)"/>
       <path id="LiberationSans-72" d="M 444 0 
L 444 2594 
Q 444 2950 425 3381 
L 956 3381 
Q 981 2806 981 2691 
L 994 2691 
Q 1128 3125 1303 3284 
Q 1478 3444 1797 3444 
Q 1909 3444 2025 3413 
L 2025 2897 
Q 1913 2928 1725 2928 
Q 1375 2928 1190 2626 
Q 1006 2325 1006 1763 
L 1006 0 
L 444 0 
z
" transform="scale(0.015625)"/>
       <path id="LiberationSans-6e" d="M 2578 0 
L 2578 2144 
Q 2578 2478 2512 2662 
Q 2447 2847 2303 2928 
Q 2159 3009 1881 3009 
Q 1475 3009 1240 2731 
Q 1006 2453 1006 1959 
L 1006 0 
L 444 0 
L 444 2659 
Q 444 3250 425 3381 
L 956 3381 
Q 959 3366 962 3297 
Q 966 3228 970 3139 
Q 975 3050 981 2803 
L 991 2803 
Q 1184 3153 1439 3298 
Q 1694 3444 2072 3444 
Q 2628 3444 2886 3167 
Q 3144 2891 3144 2253 
L 3144 0 
L 2578 0 
z
" transform="scale(0.015625)"/>
       <path id="LiberationSans-74" d="M 1731 25 
Q 1453 -50 1163 -50 
Q 488 -50 488 716 
L 488 2972 
L 97 2972 
L 97 3381 
L 509 3381 
L 675 4138 
L 1050 4138 
L 1050 3381 
L 1675 3381 
L 1675 2972 
L 1050 2972 
L 1050 838 
Q 1050 594 1129 495 
Q 1209 397 1406 397 
Q 1519 397 1731 441 
L 1731 25 
z
" transform="scale(0.015625)"/>
      </defs>
      <use xlink:href="#LiberationSans-56"/>
      <use xlink:href="#LiberationSans-6f" x="61.199219"/>
      <use xlink:href="#LiberationSans-6c" x="116.814453"/>
      <use xlink:href="#LiberationSans-5f" x="139.03125"/>
      <use xlink:href="#LiberationSans-45" x="194.646484"/>
      <use xlink:href="#LiberationSans-64" x="261.345703"/>
      <use xlink:href="#LiberationSans-61" x="316.960938"/>
      <use xlink:href="#LiberationSans-73" x="372.576172"/>
      <use xlink:href="#LiberationSans-69" x="422.576172"/>
      <use xlink:href="#LiberationSans-20" x="444.792969"/>
      <use xlink:href="#LiberationSans-2f" x="472.576172"/>
      <use xlink:href="#LiberationSans-20" x="500.359375"/>
      <use xlink:href="#LiberationSans-56" x="528.142578"/>
      <use xlink:href="#LiberationSans-6f" x="589.341797"/>
      <use xlink:href="#LiberationSans-6c" x="644.957031"/>
      <use xlink:href="#LiberationSans-5f" x="667.173828"/>
      <use xlink:href="#LiberationSans-46" x="722.789062"/>
      <use xlink:href="#LiberationSans-61" x="783.873047"/>
      <use xlink:href="#LiberationSans-72" x="839.488281"/>
      <use xlink:href="#LiberationSans-69" x="872.789062"/>
      <use xlink:href="#LiberationSans-6e" x="895.005859"/>
      <use xlink:href="#LiberationSans-6f" x="950.621094"/>
      <use xlink:href="#LiberationSans-74" x="1006.236328"/>
      <use xlink:href="#LiberationSans-74" x="1034.019531"/>
      <use xlink:href="#LiberationSans-69" x="1061.802734"/>
     </g>
    </g>
   </g>
   <g id="PolyCollection_1">
    <defs>
     <path id="m38ee09298a" d="M 94.320703 -63.658784 
L 94.319297 -63.658784 
L 94.30993 -66.398493 
L 94.278044 -69.138202 
L 94.222121 -71.877911 
L 94.096555 -74.617621 
L 93.771674 -77.35733 
L 92.903572 -80.097039 
L 90.81962 -82.836749 
L 87.56715 -85.576458 
L 84.376083 -88.316167 
L 81.814939 -91.055876 
L 79.731057 -93.795586 
L 77.934467 -96.535295 
L 76.797869 -99.275004 
L 76.464 -102.014713 
L 76.64169 -104.754423 
L 77.26979 -107.494132 
L 78.480002 -110.233841 
L 79.769004 -112.97355 
L 81.099303 -115.71326 
L 82.445658 -118.452969 
L 83.766941 -121.192678 
L 85.164443 -123.932387 
L 86.486688 -126.672097 
L 87.626619 -129.411806 
L 88.687366 -132.151515 
L 89.620423 -134.891224 
L 90.377632 -137.630934 
L 91.060621 -140.370643 
L 91.688702 -143.110352 
L 92.1485 -145.850061 
L 92.50775 -148.589771 
L 92.79961 -151.32948 
L 93.065116 -154.069189 
L 93.281937 -156.808898 
L 93.421958 -159.548608 
L 93.500604 -162.288317 
L 93.594797 -165.028026 
L 93.678342 -167.767735 
L 93.770758 -170.507445 
L 93.84721 -173.247154 
L 93.877746 -175.986863 
L 93.927904 -178.726572 
L 93.987191 -181.466282 
L 94.032861 -184.205991 
L 94.077393 -186.9457 
L 94.102265 -189.685409 
L 94.127158 -192.425119 
L 94.154862 -195.164828 
L 94.169504 -197.904537 
L 94.198229 -200.644246 
L 94.22339 -203.383956 
L 94.252227 -206.123665 
L 94.263422 -208.863374 
L 94.263878 -211.603084 
L 94.261315 -214.342793 
L 94.272064 -217.082502 
L 94.283554 -219.822211 
L 94.282717 -222.561921 
L 94.28269 -225.30163 
L 94.282361 -228.041339 
L 94.283453 -230.781048 
L 94.295402 -233.520758 
L 94.30015 -236.260467 
L 94.299114 -239.000176 
L 94.301628 -241.739885 
L 94.305312 -244.479595 
L 94.303738 -247.219304 
L 94.302152 -249.959013 
L 94.303186 -252.698722 
L 94.307065 -255.438432 
L 94.306414 -258.178141 
L 94.303666 -260.91785 
L 94.299777 -263.657559 
L 94.299533 -266.397269 
L 94.300541 -269.136978 
L 94.302923 -271.876687 
L 94.305902 -274.616396 
L 94.306382 -277.356106 
L 94.302729 -280.095815 
L 94.30335 -282.835524 
L 94.308461 -285.575233 
L 94.307225 -288.314943 
L 94.306678 -291.054652 
L 94.306657 -293.794361 
L 94.312913 -296.53407 
L 94.313472 -299.27378 
L 94.308057 -302.013489 
L 94.307207 -304.753198 
L 94.312005 -307.492907 
L 94.314215 -310.232617 
L 94.312669 -312.972326 
L 94.311402 -315.712035 
L 94.311535 -318.451744 
L 94.311995 -321.191454 
L 94.313705 -323.931163 
L 94.314555 -326.670872 
L 94.313937 -329.410581 
L 94.317749 -332.150291 
L 94.319788 -334.89 
L 94.320212 -334.89 
L 94.320212 -334.89 
L 94.322251 -332.150291 
L 94.326063 -329.410581 
L 94.325445 -326.670872 
L 94.326295 -323.931163 
L 94.328005 -321.191454 
L 94.328465 -318.451744 
L 94.328598 -315.712035 
L 94.327331 -312.972326 
L 94.325785 -310.232617 
L 94.327995 -307.492907 
L 94.332793 -304.753198 
L 94.331943 -302.013489 
L 94.326528 -299.27378 
L 94.327087 -296.53407 
L 94.333343 -293.794361 
L 94.333322 -291.054652 
L 94.332775 -288.314943 
L 94.331539 -285.575233 
L 94.33665 -282.835524 
L 94.337271 -280.095815 
L 94.333618 -277.356106 
L 94.334098 -274.616396 
L 94.337077 -271.876687 
L 94.339459 -269.136978 
L 94.340467 -266.397269 
L 94.340223 -263.657559 
L 94.336334 -260.91785 
L 94.333586 -258.178141 
L 94.332935 -255.438432 
L 94.336814 -252.698722 
L 94.337848 -249.959013 
L 94.336262 -247.219304 
L 94.334688 -244.479595 
L 94.338372 -241.739885 
L 94.340886 -239.000176 
L 94.33985 -236.260467 
L 94.344598 -233.520758 
L 94.356547 -230.781048 
L 94.357639 -228.041339 
L 94.35731 -225.30163 
L 94.357283 -222.561921 
L 94.356446 -219.822211 
L 94.367936 -217.082502 
L 94.378685 -214.342793 
L 94.376122 -211.603084 
L 94.376578 -208.863374 
L 94.387773 -206.123665 
L 94.41661 -203.383956 
L 94.441771 -200.644246 
L 94.470496 -197.904537 
L 94.485138 -195.164828 
L 94.512842 -192.425119 
L 94.537735 -189.685409 
L 94.562607 -186.9457 
L 94.607139 -184.205991 
L 94.652809 -181.466282 
L 94.712096 -178.726572 
L 94.762254 -175.986863 
L 94.79279 -173.247154 
L 94.869242 -170.507445 
L 94.961658 -167.767735 
L 95.045203 -165.028026 
L 95.139396 -162.288317 
L 95.218042 -159.548608 
L 95.358063 -156.808898 
L 95.574884 -154.069189 
L 95.84039 -151.32948 
L 96.13225 -148.589771 
L 96.4915 -145.850061 
L 96.951298 -143.110352 
L 97.579379 -140.370643 
L 98.262368 -137.630934 
L 99.019577 -134.891224 
L 99.952634 -132.151515 
L 101.013381 -129.411806 
L 102.153312 -126.672097 
L 103.475557 -123.932387 
L 104.873059 -121.192678 
L 106.194342 -118.452969 
L 107.540697 -115.71326 
L 108.870996 -112.97355 
L 110.159998 -110.233841 
L 111.37021 -107.494132 
L 111.99831 -104.754423 
L 112.176 -102.014713 
L 111.842131 -99.275004 
L 110.705533 -96.535295 
L 108.908943 -93.795586 
L 106.825061 -91.055876 
L 104.263917 -88.316167 
L 101.07285 -85.576458 
L 97.82038 -82.836749 
L 95.736428 -80.097039 
L 94.868326 -77.35733 
L 94.543445 -74.617621 
L 94.417879 -71.877911 
L 94.361956 -69.138202 
L 94.33007 -66.398493 
L 94.320703 -63.658784 
z
" style="stroke: #484848; stroke-width: 1.75"/>
    </defs>
    <g clip-path="url(#p256c4f7651)">
     <use xlink:href="#m38ee09298a" x="0" y="396" style="fill: #ea96a3; stroke: #484848; stroke-width: 1.75"/>
    </g>
   </g>
   <g id="PolyCollection_2">
    <defs>
     <path id="me3b6aa3515" d="M 138.960537 -65.823188 
L 138.959463 -65.823188 
L 138.951585 -67.656037 
L 138.938835 -69.488886 
L 138.930884 -71.321734 
L 138.911738 -73.154583 
L 138.861878 -74.987432 
L 138.760337 -76.820281 
L 138.481687 -78.653129 
L 137.914513 -80.485978 
L 137.097172 -82.318827 
L 136.240083 -84.151676 
L 135.587135 -85.984524 
L 134.869915 -87.817373 
L 134.162299 -89.650222 
L 133.578534 -91.483071 
L 133.233719 -93.315919 
L 133.338205 -95.148768 
L 133.92207 -96.981617 
L 134.649823 -98.814466 
L 135.413656 -100.647314 
L 136.069613 -102.480163 
L 136.674753 -104.313012 
L 137.186467 -106.145861 
L 137.5826 -107.978709 
L 137.927337 -109.811558 
L 138.189425 -111.644407 
L 138.361841 -113.477256 
L 138.481389 -115.310105 
L 138.61443 -117.142953 
L 138.697904 -118.975802 
L 138.744695 -120.808651 
L 138.796878 -122.6415 
L 138.831504 -124.474348 
L 138.85095 -126.307197 
L 138.874832 -128.140046 
L 138.890289 -129.972895 
L 138.893699 -131.805743 
L 138.914911 -133.638592 
L 138.936605 -135.471441 
L 138.938411 -137.30429 
L 138.940536 -139.137138 
L 138.944618 -140.969987 
L 138.947594 -142.802836 
L 138.953702 -144.635685 
L 138.955179 -146.468533 
L 138.959002 -148.301382 
L 138.959112 -150.134231 
L 138.958542 -151.96708 
L 138.959521 -153.799929 
L 138.959983 -155.632777 
L 138.959737 -157.465626 
L 138.958894 -159.298475 
L 138.958862 -161.131324 
L 138.95963 -162.964172 
L 138.959934 -164.797021 
L 138.959229 -166.62987 
L 138.959415 -168.462719 
L 138.959975 -170.295567 
L 138.96 -172.128416 
L 138.96 -173.961265 
L 138.96 -175.794114 
L 138.96 -177.626962 
L 138.959991 -179.459811 
L 138.959621 -181.29266 
L 138.959074 -183.125509 
L 138.959871 -184.958357 
L 138.959999 -186.791206 
L 138.959987 -188.624055 
L 138.959557 -190.456904 
L 138.959115 -192.289753 
L 138.959899 -194.122601 
L 138.959999 -195.95545 
L 138.96 -197.788299 
L 138.96 -199.621148 
L 138.96 -201.453996 
L 138.96 -203.286845 
L 138.959921 -205.119694 
L 138.959162 -206.952543 
L 138.959494 -208.785391 
L 138.959983 -210.61824 
L 138.96 -212.451089 
L 138.96 -214.283938 
L 138.96 -216.116786 
L 138.96 -217.949635 
L 138.96 -219.782484 
L 138.96 -221.615333 
L 138.96 -223.448181 
L 138.96 -225.28103 
L 138.96 -227.113879 
L 138.96 -228.946728 
L 138.959998 -230.779577 
L 138.959815 -232.612425 
L 138.959034 -234.445274 
L 138.959714 -236.278123 
L 138.959995 -238.110972 
L 138.96 -239.94382 
L 138.959992 -241.776669 
L 138.959628 -243.609518 
L 138.95907 -245.442367 
L 138.959868 -247.275215 
L 138.960132 -247.275215 
L 138.960132 -247.275215 
L 138.96093 -245.442367 
L 138.960372 -243.609518 
L 138.960008 -241.776669 
L 138.96 -239.94382 
L 138.960005 -238.110972 
L 138.960286 -236.278123 
L 138.960966 -234.445274 
L 138.960185 -232.612425 
L 138.960002 -230.779577 
L 138.96 -228.946728 
L 138.96 -227.113879 
L 138.96 -225.28103 
L 138.96 -223.448181 
L 138.96 -221.615333 
L 138.96 -219.782484 
L 138.96 -217.949635 
L 138.96 -216.116786 
L 138.96 -214.283938 
L 138.96 -212.451089 
L 138.960017 -210.61824 
L 138.960506 -208.785391 
L 138.960838 -206.952543 
L 138.960079 -205.119694 
L 138.96 -203.286845 
L 138.96 -201.453996 
L 138.96 -199.621148 
L 138.96 -197.788299 
L 138.960001 -195.95545 
L 138.960101 -194.122601 
L 138.960885 -192.289753 
L 138.960443 -190.456904 
L 138.960013 -188.624055 
L 138.960001 -186.791206 
L 138.960129 -184.958357 
L 138.960926 -183.125509 
L 138.960379 -181.29266 
L 138.960009 -179.459811 
L 138.96 -177.626962 
L 138.96 -175.794114 
L 138.96 -173.961265 
L 138.96 -172.128416 
L 138.960025 -170.295567 
L 138.960585 -168.462719 
L 138.960771 -166.62987 
L 138.960066 -164.797021 
L 138.96037 -162.964172 
L 138.961138 -161.131324 
L 138.961106 -159.298475 
L 138.960263 -157.465626 
L 138.960017 -155.632777 
L 138.960479 -153.799929 
L 138.961458 -151.96708 
L 138.960888 -150.134231 
L 138.960998 -148.301382 
L 138.964821 -146.468533 
L 138.966298 -144.635685 
L 138.972406 -142.802836 
L 138.975382 -140.969987 
L 138.979464 -139.137138 
L 138.981589 -137.30429 
L 138.983395 -135.471441 
L 139.005089 -133.638592 
L 139.026301 -131.805743 
L 139.029711 -129.972895 
L 139.045168 -128.140046 
L 139.06905 -126.307197 
L 139.088496 -124.474348 
L 139.123122 -122.6415 
L 139.175305 -120.808651 
L 139.222096 -118.975802 
L 139.30557 -117.142953 
L 139.438611 -115.310105 
L 139.558159 -113.477256 
L 139.730575 -111.644407 
L 139.992663 -109.811558 
L 140.3374 -107.978709 
L 140.733533 -106.145861 
L 141.245247 -104.313012 
L 141.850387 -102.480163 
L 142.506344 -100.647314 
L 143.270177 -98.814466 
L 143.99793 -96.981617 
L 144.581795 -95.148768 
L 144.686281 -93.315919 
L 144.341466 -91.483071 
L 143.757701 -89.650222 
L 143.050085 -87.817373 
L 142.332865 -85.984524 
L 141.679917 -84.151676 
L 140.822828 -82.318827 
L 140.005487 -80.485978 
L 139.438313 -78.653129 
L 139.159663 -76.820281 
L 139.058122 -74.987432 
L 139.008262 -73.154583 
L 138.989116 -71.321734 
L 138.981165 -69.488886 
L 138.968415 -67.656037 
L 138.960537 -65.823188 
z
" style="stroke: #484848; stroke-width: 1.75"/>
    </defs>
    <g clip-path="url(#p256c4f7651)">
     <use xlink:href="#me3b6aa3515" x="0" y="396" style="fill: #d7944e; stroke: #484848; stroke-width: 1.75"/>
    </g>
   </g>
   <g id="PolyCollection_3">
    <defs>
     <path id="mb22e4a9b60" d="M 183.600096 -64.906892 
L 183.599904 -64.906892 
L 183.598392 -67.167771 
L 183.590107 -69.428651 
L 183.576024 -71.68953 
L 183.556514 -73.950409 
L 183.507105 -76.211289 
L 183.377154 -78.472168 
L 183.105689 -80.733047 
L 182.722063 -82.993927 
L 182.225003 -85.254806 
L 181.802521 -87.515685 
L 181.602931 -89.776564 
L 181.760018 -92.037444 
L 182.188099 -94.298323 
L 182.645468 -96.559202 
L 183.012412 -98.820082 
L 183.237238 -101.080961 
L 183.372534 -103.34184 
L 183.44192 -105.60272 
L 183.485488 -107.863599 
L 183.513758 -110.124478 
L 183.539895 -112.385358 
L 183.552856 -114.646237 
L 183.560379 -116.907116 
L 183.567108 -119.167996 
L 183.573854 -121.428875 
L 183.581329 -123.689754 
L 183.583686 -125.950634 
L 183.586765 -128.211513 
L 183.593273 -130.472392 
L 183.596356 -132.733272 
L 183.598506 -134.994151 
L 183.597125 -137.25503 
L 183.598394 -139.51591 
L 183.599105 -141.776789 
L 183.599497 -144.037668 
L 183.599448 -146.298547 
L 183.599914 -148.559427 
L 183.599353 -150.820306 
L 183.599828 -153.081185 
L 183.599999 -155.342065 
L 183.6 -157.602944 
L 183.6 -159.863823 
L 183.6 -162.124703 
L 183.6 -164.385582 
L 183.6 -166.646461 
L 183.6 -168.907341 
L 183.6 -171.16822 
L 183.6 -173.429099 
L 183.599923 -175.689979 
L 183.599336 -177.950858 
L 183.599859 -180.211737 
L 183.599999 -182.472617 
L 183.6 -184.733496 
L 183.6 -186.994375 
L 183.6 -189.255255 
L 183.6 -191.516134 
L 183.6 -193.777013 
L 183.6 -196.037892 
L 183.6 -198.298772 
L 183.6 -200.559651 
L 183.6 -202.82053 
L 183.6 -205.08141 
L 183.6 -207.342289 
L 183.599996 -209.603168 
L 183.599701 -211.864048 
L 183.599456 -214.124927 
L 183.599976 -216.385806 
L 183.6 -218.646686 
L 183.6 -220.907565 
L 183.6 -223.168444 
L 183.6 -225.429324 
L 183.6 -227.690203 
L 183.6 -229.951082 
L 183.6 -232.211962 
L 183.6 -234.472841 
L 183.6 -236.73372 
L 183.6 -238.9946 
L 183.6 -241.255479 
L 183.6 -243.516358 
L 183.6 -245.777238 
L 183.6 -248.038117 
L 183.6 -250.298996 
L 183.6 -252.559875 
L 183.6 -254.820755 
L 183.6 -257.081634 
L 183.599898 -259.342513 
L 183.599328 -261.603393 
L 183.599891 -263.864272 
L 183.6 -266.125151 
L 183.6 -268.386031 
L 183.6 -270.64691 
L 183.6 -272.907789 
L 183.6 -275.168669 
L 183.6 -277.429548 
L 183.599999 -279.690427 
L 183.599829 -281.951307 
L 183.59923 -284.212186 
L 183.599269 -286.473065 
L 183.599909 -288.733945 
L 183.600091 -288.733945 
L 183.600091 -288.733945 
L 183.600731 -286.473065 
L 183.60077 -284.212186 
L 183.600171 -281.951307 
L 183.600001 -279.690427 
L 183.6 -277.429548 
L 183.6 -275.168669 
L 183.6 -272.907789 
L 183.6 -270.64691 
L 183.6 -268.386031 
L 183.6 -266.125151 
L 183.600109 -263.864272 
L 183.600672 -261.603393 
L 183.600102 -259.342513 
L 183.6 -257.081634 
L 183.6 -254.820755 
L 183.6 -252.559875 
L 183.6 -250.298996 
L 183.6 -248.038117 
L 183.6 -245.777238 
L 183.6 -243.516358 
L 183.6 -241.255479 
L 183.6 -238.9946 
L 183.6 -236.73372 
L 183.6 -234.472841 
L 183.6 -232.211962 
L 183.6 -229.951082 
L 183.6 -227.690203 
L 183.6 -225.429324 
L 183.6 -223.168444 
L 183.6 -220.907565 
L 183.6 -218.646686 
L 183.600024 -216.385806 
L 183.600544 -214.124927 
L 183.600299 -211.864048 
L 183.600004 -209.603168 
L 183.6 -207.342289 
L 183.6 -205.08141 
L 183.6 -202.82053 
L 183.6 -200.559651 
L 183.6 -198.298772 
L 183.6 -196.037892 
L 183.6 -193.777013 
L 183.6 -191.516134 
L 183.6 -189.255255 
L 183.6 -186.994375 
L 183.6 -184.733496 
L 183.600001 -182.472617 
L 183.600141 -180.211737 
L 183.600664 -177.950858 
L 183.600077 -175.689979 
L 183.6 -173.429099 
L 183.6 -171.16822 
L 183.6 -168.907341 
L 183.6 -166.646461 
L 183.6 -164.385582 
L 183.6 -162.124703 
L 183.6 -159.863823 
L 183.6 -157.602944 
L 183.600001 -155.342065 
L 183.600172 -153.081185 
L 183.600647 -150.820306 
L 183.600086 -148.559427 
L 183.600552 -146.298547 
L 183.600503 -144.037668 
L 183.600895 -141.776789 
L 183.601606 -139.51591 
L 183.602875 -137.25503 
L 183.601494 -134.994151 
L 183.603644 -132.733272 
L 183.606727 -130.472392 
L 183.613235 -128.211513 
L 183.616314 -125.950634 
L 183.618671 -123.689754 
L 183.626146 -121.428875 
L 183.632892 -119.167996 
L 183.639621 -116.907116 
L 183.647144 -114.646237 
L 183.660105 -112.385358 
L 183.686242 -110.124478 
L 183.714512 -107.863599 
L 183.75808 -105.60272 
L 183.827466 -103.34184 
L 183.962762 -101.080961 
L 184.187588 -98.820082 
L 184.554532 -96.559202 
L 185.011901 -94.298323 
L 185.439982 -92.037444 
L 185.597069 -89.776564 
L 185.397479 -87.515685 
L 184.974997 -85.254806 
L 184.477937 -82.993927 
L 184.094311 -80.733047 
L 183.822846 -78.472168 
L 183.692895 -76.211289 
L 183.643486 -73.950409 
L 183.623976 -71.68953 
L 183.609893 -69.428651 
L 183.601608 -67.167771 
L 183.600096 -64.906892 
z
" style="stroke: #484848; stroke-width: 1.75"/>
    </defs>
    <g clip-path="url(#p256c4f7651)">
     <use xlink:href="#mb22e4a9b60" x="0" y="396" style="fill: #ab9e47; stroke: #484848; stroke-width: 1.75"/>
    </g>
   </g>
   <g id="PolyCollection_4">
    <defs>
     <path id="m18243ffc4f" d="M 228.240316 -68.250333 
L 228.239684 -68.250333 
L 228.235309 -70.339312 
L 228.223384 -72.428292 
L 228.203184 -74.517272 
L 228.175654 -76.606252 
L 228.105584 -78.695231 
L 227.984595 -80.784211 
L 227.746856 -82.873191 
L 227.45193 -84.962171 
L 227.301425 -87.05115 
L 227.313239 -89.14013 
L 227.413803 -91.22911 
L 227.616339 -93.31809 
L 227.845528 -95.407069 
L 227.985728 -97.496049 
L 228.071776 -99.585029 
L 228.127492 -101.674009 
L 228.164721 -103.762988 
L 228.194259 -105.851968 
L 228.203135 -107.940948 
L 228.206351 -110.029928 
L 228.21341 -112.118907 
L 228.213941 -114.207887 
L 228.221273 -116.296867 
L 228.228173 -118.385847 
L 228.228221 -120.474826 
L 228.228997 -122.563806 
L 228.23401 -124.652786 
L 228.236067 -126.741766 
L 228.238021 -128.830745 
L 228.238454 -130.919725 
L 228.238943 -133.008705 
L 228.239328 -135.097685 
L 228.23934 -137.186664 
L 228.238624 -139.275644 
L 228.239288 -141.364624 
L 228.239919 -143.453604 
L 228.239999 -145.542583 
L 228.24 -147.631563 
L 228.24 -149.720543 
L 228.24 -151.809522 
L 228.24 -153.898502 
L 228.24 -155.987482 
L 228.24 -158.076462 
L 228.24 -160.165441 
L 228.24 -162.254421 
L 228.24 -164.343401 
L 228.24 -166.432381 
L 228.24 -168.52136 
L 228.24 -170.61034 
L 228.24 -172.69932 
L 228.24 -174.7883 
L 228.24 -176.877279 
L 228.24 -178.966259 
L 228.24 -181.055239 
L 228.24 -183.144219 
L 228.24 -185.233198 
L 228.24 -187.322178 
L 228.24 -189.411158 
L 228.24 -191.500138 
L 228.24 -193.589117 
L 228.24 -195.678097 
L 228.24 -197.767077 
L 228.24 -199.856057 
L 228.24 -201.945036 
L 228.24 -204.034016 
L 228.24 -206.122996 
L 228.24 -208.211976 
L 228.24 -210.300955 
L 228.24 -212.389935 
L 228.24 -214.478915 
L 228.24 -216.567895 
L 228.24 -218.656874 
L 228.24 -220.745854 
L 228.24 -222.834834 
L 228.24 -224.923814 
L 228.24 -227.012793 
L 228.24 -229.101773 
L 228.24 -231.190753 
L 228.24 -233.279733 
L 228.24 -235.368712 
L 228.24 -237.457692 
L 228.24 -239.546672 
L 228.24 -241.635652 
L 228.24 -243.724631 
L 228.24 -245.813611 
L 228.24 -247.902591 
L 228.24 -249.991571 
L 228.24 -252.08055 
L 228.24 -254.16953 
L 228.24 -256.25851 
L 228.24 -258.347489 
L 228.24 -260.436469 
L 228.24 -262.525449 
L 228.24 -264.614429 
L 228.24 -266.703408 
L 228.239991 -268.792388 
L 228.239733 -270.881368 
L 228.239443 -272.970348 
L 228.239919 -275.059327 
L 228.240081 -275.059327 
L 228.240081 -275.059327 
L 228.240557 -272.970348 
L 228.240267 -270.881368 
L 228.240009 -268.792388 
L 228.24 -266.703408 
L 228.24 -264.614429 
L 228.24 -262.525449 
L 228.24 -260.436469 
L 228.24 -258.347489 
L 228.24 -256.25851 
L 228.24 -254.16953 
L 228.24 -252.08055 
L 228.24 -249.991571 
L 228.24 -247.902591 
L 228.24 -245.813611 
L 228.24 -243.724631 
L 228.24 -241.635652 
L 228.24 -239.546672 
L 228.24 -237.457692 
L 228.24 -235.368712 
L 228.24 -233.279733 
L 228.24 -231.190753 
L 228.24 -229.101773 
L 228.24 -227.012793 
L 228.24 -224.923814 
L 228.24 -222.834834 
L 228.24 -220.745854 
L 228.24 -218.656874 
L 228.24 -216.567895 
L 228.24 -214.478915 
L 228.24 -212.389935 
L 228.24 -210.300955 
L 228.24 -208.211976 
L 228.24 -206.122996 
L 228.24 -204.034016 
L 228.24 -201.945036 
L 228.24 -199.856057 
L 228.24 -197.767077 
L 228.24 -195.678097 
L 228.24 -193.589117 
L 228.24 -191.500138 
L 228.24 -189.411158 
L 228.24 -187.322178 
L 228.24 -185.233198 
L 228.24 -183.144219 
L 228.24 -181.055239 
L 228.24 -178.966259 
L 228.24 -176.877279 
L 228.24 -174.7883 
L 228.24 -172.69932 
L 228.24 -170.61034 
L 228.24 -168.52136 
L 228.24 -166.432381 
L 228.24 -164.343401 
L 228.24 -162.254421 
L 228.24 -160.165441 
L 228.24 -158.076462 
L 228.24 -155.987482 
L 228.24 -153.898502 
L 228.24 -151.809522 
L 228.24 -149.720543 
L 228.24 -147.631563 
L 228.240001 -145.542583 
L 228.240081 -143.453604 
L 228.240712 -141.364624 
L 228.241376 -139.275644 
L 228.24066 -137.186664 
L 228.240672 -135.097685 
L 228.241057 -133.008705 
L 228.241546 -130.919725 
L 228.241979 -128.830745 
L 228.243933 -126.741766 
L 228.24599 -124.652786 
L 228.251003 -122.563806 
L 228.251779 -120.474826 
L 228.251827 -118.385847 
L 228.258727 -116.296867 
L 228.266059 -114.207887 
L 228.26659 -112.118907 
L 228.273649 -110.029928 
L 228.276865 -107.940948 
L 228.285741 -105.851968 
L 228.315279 -103.762988 
L 228.352508 -101.674009 
L 228.408224 -99.585029 
L 228.494272 -97.496049 
L 228.634472 -95.407069 
L 228.863661 -93.31809 
L 229.066197 -91.22911 
L 229.166761 -89.14013 
L 229.178575 -87.05115 
L 229.02807 -84.962171 
L 228.733144 -82.873191 
L 228.495405 -80.784211 
L 228.374416 -78.695231 
L 228.304346 -76.606252 
L 228.276816 -74.517272 
L 228.256616 -72.428292 
L 228.244691 -70.339312 
L 228.240316 -68.250333 
z
" style="stroke: #484848; stroke-width: 1.75"/>
    </defs>
    <g clip-path="url(#p256c4f7651)">
     <use xlink:href="#m18243ffc4f" x="0" y="396" style="fill: #7fa946; stroke: #484848; stroke-width: 1.75"/>
    </g>
   </g>
   <g id="PolyCollection_5">
    <defs>
     <path id="m79539dfd4a" d="M 272.880276 -66.401359 
L 272.879724 -66.401359 
L 272.876565 -68.784268 
L 272.865849 -71.167177 
L 272.850934 -73.550085 
L 272.832599 -75.932994 
L 272.791062 -78.315903 
L 272.697037 -80.698812 
L 272.561101 -83.08172 
L 272.428147 -85.464629 
L 272.372943 -87.847538 
L 272.42718 -90.230446 
L 272.536364 -92.613355 
L 272.639943 -94.996264 
L 272.735121 -97.379173 
L 272.796226 -99.762081 
L 272.823643 -102.14499 
L 272.834288 -104.527899 
L 272.844973 -106.910808 
L 272.853706 -109.293716 
L 272.861153 -111.676625 
L 272.867006 -114.059534 
L 272.868946 -116.442442 
L 272.872347 -118.825351 
L 272.875192 -121.20826 
L 272.875872 -123.591169 
L 272.875922 -125.974077 
L 272.876328 -128.356986 
L 272.876865 -130.739895 
L 272.877209 -133.122804 
L 272.877172 -135.505712 
L 272.877478 -137.888621 
L 272.878972 -140.27153 
L 272.87984 -142.654438 
L 272.879993 -145.037347 
L 272.88 -147.420256 
L 272.88 -149.803165 
L 272.88 -152.186073 
L 272.88 -154.568982 
L 272.88 -156.951891 
L 272.88 -159.334799 
L 272.88 -161.717708 
L 272.88 -164.100617 
L 272.88 -166.483526 
L 272.88 -168.866434 
L 272.88 -171.249343 
L 272.88 -173.632252 
L 272.88 -176.015161 
L 272.88 -178.398069 
L 272.88 -180.780978 
L 272.88 -183.163887 
L 272.88 -185.546795 
L 272.88 -187.929704 
L 272.88 -190.312613 
L 272.88 -192.695522 
L 272.88 -195.07843 
L 272.88 -197.461339 
L 272.88 -199.844248 
L 272.88 -202.227157 
L 272.88 -204.610065 
L 272.88 -206.992974 
L 272.88 -209.375883 
L 272.88 -211.758791 
L 272.88 -214.1417 
L 272.88 -216.524609 
L 272.88 -218.907518 
L 272.88 -221.290426 
L 272.88 -223.673335 
L 272.88 -226.056244 
L 272.88 -228.439152 
L 272.88 -230.822061 
L 272.88 -233.20497 
L 272.88 -235.587879 
L 272.88 -237.970787 
L 272.88 -240.353696 
L 272.88 -242.736605 
L 272.88 -245.119514 
L 272.88 -247.502422 
L 272.88 -249.885331 
L 272.88 -252.26824 
L 272.879986 -254.651148 
L 272.879804 -257.034057 
L 272.879551 -259.416966 
L 272.879831 -261.799875 
L 272.87999 -264.182783 
L 272.88 -266.565692 
L 272.88 -268.948601 
L 272.88 -271.33151 
L 272.88 -273.714418 
L 272.88 -276.097327 
L 272.88 -278.480236 
L 272.88 -280.863144 
L 272.88 -283.246053 
L 272.88 -285.628962 
L 272.88 -288.011871 
L 272.88 -290.394779 
L 272.879998 -292.777688 
L 272.879943 -295.160597 
L 272.879645 -297.543505 
L 272.879638 -299.926414 
L 272.879939 -302.309323 
L 272.880061 -302.309323 
L 272.880061 -302.309323 
L 272.880362 -299.926414 
L 272.880355 -297.543505 
L 272.880057 -295.160597 
L 272.880002 -292.777688 
L 272.88 -290.394779 
L 272.88 -288.011871 
L 272.88 -285.628962 
L 272.88 -283.246053 
L 272.88 -280.863144 
L 272.88 -278.480236 
L 272.88 -276.097327 
L 272.88 -273.714418 
L 272.88 -271.33151 
L 272.88 -268.948601 
L 272.88 -266.565692 
L 272.88001 -264.182783 
L 272.880169 -261.799875 
L 272.880449 -259.416966 
L 272.880196 -257.034057 
L 272.880014 -254.651148 
L 272.88 -252.26824 
L 272.88 -249.885331 
L 272.88 -247.502422 
L 272.88 -245.119514 
L 272.88 -242.736605 
L 272.88 -240.353696 
L 272.88 -237.970787 
L 272.88 -235.587879 
L 272.88 -233.20497 
L 272.88 -230.822061 
L 272.88 -228.439152 
L 272.88 -226.056244 
L 272.88 -223.673335 
L 272.88 -221.290426 
L 272.88 -218.907518 
L 272.88 -216.524609 
L 272.88 -214.1417 
L 272.88 -211.758791 
L 272.88 -209.375883 
L 272.88 -206.992974 
L 272.88 -204.610065 
L 272.88 -202.227157 
L 272.88 -199.844248 
L 272.88 -197.461339 
L 272.88 -195.07843 
L 272.88 -192.695522 
L 272.88 -190.312613 
L 272.88 -187.929704 
L 272.88 -185.546795 
L 272.88 -183.163887 
L 272.88 -180.780978 
L 272.88 -178.398069 
L 272.88 -176.015161 
L 272.88 -173.632252 
L 272.88 -171.249343 
L 272.88 -168.866434 
L 272.88 -166.483526 
L 272.88 -164.100617 
L 272.88 -161.717708 
L 272.88 -159.334799 
L 272.88 -156.951891 
L 272.88 -154.568982 
L 272.88 -152.186073 
L 272.88 -149.803165 
L 272.88 -147.420256 
L 272.880007 -145.037347 
L 272.88016 -142.654438 
L 272.881028 -140.27153 
L 272.882522 -137.888621 
L 272.882828 -135.505712 
L 272.882791 -133.122804 
L 272.883135 -130.739895 
L 272.883672 -128.356986 
L 272.884078 -125.974077 
L 272.884128 -123.591169 
L 272.884808 -121.20826 
L 272.887653 -118.825351 
L 272.891054 -116.442442 
L 272.892994 -114.059534 
L 272.898847 -111.676625 
L 272.906294 -109.293716 
L 272.915027 -106.910808 
L 272.925712 -104.527899 
L 272.936357 -102.14499 
L 272.963774 -99.762081 
L 273.024879 -97.379173 
L 273.120057 -94.996264 
L 273.223636 -92.613355 
L 273.33282 -90.230446 
L 273.387057 -87.847538 
L 273.331853 -85.464629 
L 273.198899 -83.08172 
L 273.062963 -80.698812 
L 272.968938 -78.315903 
L 272.927401 -75.932994 
L 272.909066 -73.550085 
L 272.894151 -71.167177 
L 272.883435 -68.784268 
L 272.880276 -66.401359 
z
" style="stroke: #484848; stroke-width: 1.75"/>
    </defs>
    <g clip-path="url(#p256c4f7651)">
     <use xlink:href="#m79539dfd4a" x="0" y="396" style="fill: #49ae83; stroke: #484848; stroke-width: 1.75"/>
    </g>
   </g>
   <g id="PolyCollection_6">
    <defs>
     <path id="m6016a5af27" d="M 317.520446 -67.192227 
L 317.519554 -67.192227 
L 317.518626 -68.176129 
L 317.516641 -69.16003 
L 317.513344 -70.143931 
L 317.508969 -71.127832 
L 317.503999 -72.111734 
L 317.498556 -73.095635 
L 317.492188 -74.079536 
L 317.484265 -75.063437 
L 317.474338 -76.047338 
L 317.461798 -77.03124 
L 317.44503 -78.015141 
L 317.421373 -78.999042 
L 317.389124 -79.982943 
L 317.35005 -80.966844 
L 317.309108 -81.950746 
L 317.271517 -82.934647 
L 317.240812 -83.918548 
L 317.218968 -84.902449 
L 317.206615 -85.886351 
L 317.20314 -86.870252 
L 317.207466 -87.854153 
L 317.218499 -88.838054 
L 317.234928 -89.821955 
L 317.255501 -90.805857 
L 317.279645 -91.789758 
L 317.307163 -92.773659 
L 317.336997 -93.75756 
L 317.366589 -94.741461 
L 317.392985 -95.725363 
L 317.414448 -96.709264 
L 317.430725 -97.693165 
L 317.442454 -98.677066 
L 317.450937 -99.660968 
L 317.457977 -100.644869 
L 317.465031 -101.62877 
L 317.472299 -102.612671 
L 317.47887 -103.596572 
L 317.483827 -104.580474 
L 317.487186 -105.564375 
L 317.489792 -106.548276 
L 317.492381 -107.532177 
L 317.494907 -108.516078 
L 317.496925 -109.49998 
L 317.498452 -110.483881 
L 317.500101 -111.467782 
L 317.502417 -112.451683 
L 317.505391 -113.435585 
L 317.508562 -114.419486 
L 317.511306 -115.403387 
L 317.51306 -116.387288 
L 317.513656 -117.371189 
L 317.513555 -118.355091 
L 317.513484 -119.338992 
L 317.513751 -120.322893 
L 317.514166 -121.306794 
L 317.514535 -122.290695 
L 317.514888 -123.274597 
L 317.51531 -124.258498 
L 317.51584 -125.242399 
L 317.516507 -126.2263 
L 317.517306 -127.210202 
L 317.518084 -128.194103 
L 317.518591 -129.178004 
L 317.518696 -130.161905 
L 317.518531 -131.145806 
L 317.51835 -132.129708 
L 317.518274 -133.113609 
L 317.518258 -134.09751 
L 317.518287 -135.081411 
L 317.518461 -136.065312 
L 317.518817 -137.049214 
L 317.51921 -138.033115 
L 317.519454 -139.017016 
L 317.51951 -140.000917 
L 317.519494 -140.984819 
L 317.519539 -141.96872 
L 317.51967 -142.952621 
L 317.51982 -143.936522 
L 317.519926 -144.920423 
L 317.519977 -145.904325 
L 317.519995 -146.888226 
L 317.519999 -147.872127 
L 317.52 -148.856028 
L 317.52 -149.839929 
L 317.52 -150.823831 
L 317.52 -151.807732 
L 317.52 -152.791633 
L 317.52 -153.775534 
L 317.519998 -154.759436 
L 317.51999 -155.743337 
L 317.519961 -156.727238 
L 317.519888 -157.711139 
L 317.519759 -158.69504 
L 317.51961 -159.678942 
L 317.519522 -160.662843 
L 317.519557 -161.646744 
L 317.519691 -162.630645 
L 317.519837 -163.614546 
L 317.519935 -164.598448 
L 317.520065 -164.598448 
L 317.520065 -164.598448 
L 317.520163 -163.614546 
L 317.520309 -162.630645 
L 317.520443 -161.646744 
L 317.520478 -160.662843 
L 317.52039 -159.678942 
L 317.520241 -158.69504 
L 317.520112 -157.711139 
L 317.520039 -156.727238 
L 317.52001 -155.743337 
L 317.520002 -154.759436 
L 317.52 -153.775534 
L 317.52 -152.791633 
L 317.52 -151.807732 
L 317.52 -150.823831 
L 317.52 -149.839929 
L 317.52 -148.856028 
L 317.520001 -147.872127 
L 317.520005 -146.888226 
L 317.520023 -145.904325 
L 317.520074 -144.920423 
L 317.52018 -143.936522 
L 317.52033 -142.952621 
L 317.520461 -141.96872 
L 317.520506 -140.984819 
L 317.52049 -140.000917 
L 317.520546 -139.017016 
L 317.52079 -138.033115 
L 317.521183 -137.049214 
L 317.521539 -136.065312 
L 317.521713 -135.081411 
L 317.521742 -134.09751 
L 317.521726 -133.113609 
L 317.52165 -132.129708 
L 317.521469 -131.145806 
L 317.521304 -130.161905 
L 317.521409 -129.178004 
L 317.521916 -128.194103 
L 317.522694 -127.210202 
L 317.523493 -126.2263 
L 317.52416 -125.242399 
L 317.52469 -124.258498 
L 317.525112 -123.274597 
L 317.525465 -122.290695 
L 317.525834 -121.306794 
L 317.526249 -120.322893 
L 317.526516 -119.338992 
L 317.526445 -118.355091 
L 317.526344 -117.371189 
L 317.52694 -116.387288 
L 317.528694 -115.403387 
L 317.531438 -114.419486 
L 317.534609 -113.435585 
L 317.537583 -112.451683 
L 317.539899 -111.467782 
L 317.541548 -110.483881 
L 317.543075 -109.49998 
L 317.545093 -108.516078 
L 317.547619 -107.532177 
L 317.550208 -106.548276 
L 317.552814 -105.564375 
L 317.556173 -104.580474 
L 317.56113 -103.596572 
L 317.567701 -102.612671 
L 317.574969 -101.62877 
L 317.582023 -100.644869 
L 317.589063 -99.660968 
L 317.597546 -98.677066 
L 317.609275 -97.693165 
L 317.625552 -96.709264 
L 317.647015 -95.725363 
L 317.673411 -94.741461 
L 317.703003 -93.75756 
L 317.732837 -92.773659 
L 317.760355 -91.789758 
L 317.784499 -90.805857 
L 317.805072 -89.821955 
L 317.821501 -88.838054 
L 317.832534 -87.854153 
L 317.83686 -86.870252 
L 317.833385 -85.886351 
L 317.821032 -84.902449 
L 317.799188 -83.918548 
L 317.768483 -82.934647 
L 317.730892 -81.950746 
L 317.68995 -80.966844 
L 317.650876 -79.982943 
L 317.618627 -78.999042 
L 317.59497 -78.015141 
L 317.578202 -77.03124 
L 317.565662 -76.047338 
L 317.555735 -75.063437 
L 317.547812 -74.079536 
L 317.541444 -73.095635 
L 317.536001 -72.111734 
L 317.531031 -71.127832 
L 317.526656 -70.143931 
L 317.523359 -69.16003 
L 317.521374 -68.176129 
L 317.520446 -67.192227 
z
" style="stroke: #484848; stroke-width: 1.75"/>
    </defs>
    <g clip-path="url(#p256c4f7651)">
     <use xlink:href="#m6016a5af27" x="0" y="396" style="fill: #4baba4; stroke: #484848; stroke-width: 1.75"/>
    </g>
   </g>
   <g id="PolyCollection_7">
    <defs>
     <path id="m450f7529a0" d="M 362.160079 -63.09 
L 362.159921 -63.09 
L 362.15933 -65.73365 
L 362.156898 -68.3773 
L 362.150528 -71.02095 
L 362.138013 -73.6646 
L 362.116687 -76.30825 
L 362.081063 -78.9519 
L 362.026293 -81.59555 
L 361.971351 -84.2392 
L 361.953886 -86.88285 
L 361.978954 -89.5265 
L 362.023008 -92.17015 
L 362.067502 -94.8138 
L 362.101268 -97.45745 
L 362.120532 -100.1011 
L 362.130853 -102.744749 
L 362.137958 -105.388399 
L 362.144088 -108.032049 
L 362.148355 -110.675699 
L 362.150152 -113.319349 
L 362.151915 -115.962999 
L 362.153897 -118.606649 
L 362.154784 -121.250299 
L 362.155526 -123.893949 
L 362.156967 -126.537599 
L 362.158436 -129.181249 
L 362.159296 -131.824899 
L 362.159336 -134.468549 
L 362.159181 -137.112199 
L 362.159408 -139.755849 
L 362.159828 -142.399499 
L 362.159982 -145.043149 
L 362.159992 -147.686799 
L 362.159921 -150.330449 
L 362.159716 -152.974099 
L 362.159661 -155.617749 
L 362.159866 -158.261399 
L 362.159982 -160.905049 
L 362.159999 -163.548699 
L 362.16 -166.192349 
L 362.16 -168.835999 
L 362.16 -171.479649 
L 362.16 -174.123299 
L 362.16 -176.766948 
L 362.16 -179.410598 
L 362.16 -182.054248 
L 362.16 -184.697898 
L 362.16 -187.341548 
L 362.16 -189.985198 
L 362.16 -192.628848 
L 362.16 -195.272498 
L 362.16 -197.916148 
L 362.16 -200.559798 
L 362.16 -203.203448 
L 362.16 -205.847098 
L 362.16 -208.490748 
L 362.16 -211.134398 
L 362.16 -213.778048 
L 362.16 -216.421698 
L 362.16 -219.065348 
L 362.16 -221.708998 
L 362.16 -224.352648 
L 362.16 -226.996298 
L 362.16 -229.639948 
L 362.16 -232.283598 
L 362.16 -234.927248 
L 362.16 -237.570898 
L 362.16 -240.214548 
L 362.16 -242.858198 
L 362.16 -245.501848 
L 362.16 -248.145498 
L 362.16 -250.789147 
L 362.16 -253.432797 
L 362.16 -256.076447 
L 362.16 -258.720097 
L 362.16 -261.363747 
L 362.16 -264.007397 
L 362.16 -266.651047 
L 362.16 -269.294697 
L 362.16 -271.938347 
L 362.16 -274.581997 
L 362.16 -277.225647 
L 362.16 -279.869297 
L 362.16 -282.512947 
L 362.16 -285.156597 
L 362.16 -287.800247 
L 362.16 -290.443897 
L 362.16 -293.087547 
L 362.16 -295.731197 
L 362.16 -298.374847 
L 362.16 -301.018497 
L 362.16 -303.662147 
L 362.16 -306.305797 
L 362.16 -308.949447 
L 362.159998 -311.593097 
L 362.159968 -314.236747 
L 362.159814 -316.880397 
L 362.15964 -319.524047 
L 362.159769 -322.167697 
L 362.159951 -324.811346 
L 362.160049 -324.811346 
L 362.160049 -324.811346 
L 362.160231 -322.167697 
L 362.16036 -319.524047 
L 362.160186 -316.880397 
L 362.160032 -314.236747 
L 362.160002 -311.593097 
L 362.16 -308.949447 
L 362.16 -306.305797 
L 362.16 -303.662147 
L 362.16 -301.018497 
L 362.16 -298.374847 
L 362.16 -295.731197 
L 362.16 -293.087547 
L 362.16 -290.443897 
L 362.16 -287.800247 
L 362.16 -285.156597 
L 362.16 -282.512947 
L 362.16 -279.869297 
L 362.16 -277.225647 
L 362.16 -274.581997 
L 362.16 -271.938347 
L 362.16 -269.294697 
L 362.16 -266.651047 
L 362.16 -264.007397 
L 362.16 -261.363747 
L 362.16 -258.720097 
L 362.16 -256.076447 
L 362.16 -253.432797 
L 362.16 -250.789147 
L 362.16 -248.145498 
L 362.16 -245.501848 
L 362.16 -242.858198 
L 362.16 -240.214548 
L 362.16 -237.570898 
L 362.16 -234.927248 
L 362.16 -232.283598 
L 362.16 -229.639948 
L 362.16 -226.996298 
L 362.16 -224.352648 
L 362.16 -221.708998 
L 362.16 -219.065348 
L 362.16 -216.421698 
L 362.16 -213.778048 
L 362.16 -211.134398 
L 362.16 -208.490748 
L 362.16 -205.847098 
L 362.16 -203.203448 
L 362.16 -200.559798 
L 362.16 -197.916148 
L 362.16 -195.272498 
L 362.16 -192.628848 
L 362.16 -189.985198 
L 362.16 -187.341548 
L 362.16 -184.697898 
L 362.16 -182.054248 
L 362.16 -179.410598 
L 362.16 -176.766948 
L 362.16 -174.123299 
L 362.16 -171.479649 
L 362.16 -168.835999 
L 362.16 -166.192349 
L 362.160001 -163.548699 
L 362.160018 -160.905049 
L 362.160134 -158.261399 
L 362.160339 -155.617749 
L 362.160284 -152.974099 
L 362.160079 -150.330449 
L 362.160008 -147.686799 
L 362.160018 -145.043149 
L 362.160172 -142.399499 
L 362.160592 -139.755849 
L 362.160819 -137.112199 
L 362.160664 -134.468549 
L 362.160704 -131.824899 
L 362.161564 -129.181249 
L 362.163033 -126.537599 
L 362.164474 -123.893949 
L 362.165216 -121.250299 
L 362.166103 -118.606649 
L 362.168085 -115.962999 
L 362.169848 -113.319349 
L 362.171645 -110.675699 
L 362.175912 -108.032049 
L 362.182042 -105.388399 
L 362.189147 -102.744749 
L 362.199468 -100.1011 
L 362.218732 -97.45745 
L 362.252498 -94.8138 
L 362.296992 -92.17015 
L 362.341046 -89.5265 
L 362.366114 -86.88285 
L 362.348649 -84.2392 
L 362.293707 -81.59555 
L 362.238937 -78.9519 
L 362.203313 -76.30825 
L 362.181987 -73.6646 
L 362.169472 -71.02095 
L 362.163102 -68.3773 
L 362.16067 -65.73365 
L 362.160079 -63.09 
z
" style="stroke: #484848; stroke-width: 1.75"/>
    </defs>
    <g clip-path="url(#p256c4f7651)">
     <use xlink:href="#m450f7529a0" x="0" y="396" style="fill: #50acc3; stroke: #484848; stroke-width: 1.75"/>
    </g>
   </g>
   <g id="PolyCollection_8">
    <defs>
     <path id="m22480fbf10" d="M 406.800205 -64.999326 
L 406.799795 -64.999326 
L 406.799338 -66.391022 
L 406.798246 -67.782718 
L 406.796108 -69.174414 
L 406.792552 -70.56611 
L 406.787248 -71.957806 
L 406.779733 -73.349502 
L 406.769372 -74.741198 
L 406.755673 -76.132894 
L 406.738669 -77.52459 
L 406.718998 -78.916286 
L 406.697921 -80.307982 
L 406.677418 -81.699678 
L 406.660013 -83.091374 
L 406.648301 -84.48307 
L 406.644335 -85.874766 
L 406.648695 -87.266462 
L 406.65976 -88.658158 
L 406.674504 -90.049854 
L 406.69033 -91.44155 
L 406.705861 -92.833246 
L 406.720265 -94.224942 
L 406.732776 -95.616638 
L 406.743106 -97.008334 
L 406.751659 -98.40003 
L 406.759001 -99.791726 
L 406.765312 -101.183422 
L 406.770516 -102.575118 
L 406.774676 -103.966814 
L 406.778049 -105.35851 
L 406.780855 -106.750206 
L 406.783185 -108.141902 
L 406.785137 -109.533598 
L 406.786893 -110.925294 
L 406.788586 -112.31699 
L 406.7902 -113.708686 
L 406.791658 -115.100382 
L 406.792932 -116.492078 
L 406.794005 -117.883774 
L 406.794828 -119.27547 
L 406.795392 -120.667166 
L 406.795809 -122.058862 
L 406.79623 -123.450558 
L 406.796689 -124.842254 
L 406.797079 -126.23395 
L 406.797299 -127.625646 
L 406.797398 -129.017342 
L 406.797538 -130.409038 
L 406.79784 -131.800734 
L 406.798295 -133.19243 
L 406.798804 -134.584126 
L 406.799247 -135.975822 
L 406.799539 -137.367518 
L 406.799653 -138.759214 
L 406.799645 -140.15091 
L 406.799615 -141.542606 
L 406.79964 -142.934302 
L 406.799714 -144.325998 
L 406.799771 -145.717694 
L 406.799757 -147.10939 
L 406.799687 -148.501086 
L 406.799628 -149.892782 
L 406.799639 -151.284478 
L 406.799711 -152.676174 
L 406.799776 -154.06787 
L 406.799774 -155.459566 
L 406.799707 -156.851262 
L 406.799638 -158.242958 
L 406.799635 -159.634654 
L 406.799713 -161.02635 
L 406.799825 -162.418046 
L 406.799915 -163.809742 
L 406.799959 -165.201438 
L 406.799952 -166.593134 
L 406.799885 -167.98483 
L 406.799744 -169.376526 
L 406.799545 -170.768222 
L 406.79936 -172.159918 
L 406.799289 -173.551614 
L 406.799376 -174.94331 
L 406.799567 -176.335006 
L 406.799763 -177.726702 
L 406.799898 -179.118398 
L 406.799965 -180.510094 
L 406.799991 -181.90179 
L 406.799998 -183.293486 
L 406.8 -184.685182 
L 406.8 -186.076878 
L 406.799999 -187.468574 
L 406.799997 -188.860271 
L 406.799986 -190.251967 
L 406.799956 -191.643663 
L 406.799889 -193.035359 
L 406.799785 -194.427055 
L 406.799679 -195.818751 
L 406.799628 -197.210447 
L 406.799668 -198.602143 
L 406.799771 -199.993839 
L 406.799878 -201.385535 
L 406.79995 -202.777231 
L 406.80005 -202.777231 
L 406.80005 -202.777231 
L 406.800122 -201.385535 
L 406.800229 -199.993839 
L 406.800332 -198.602143 
L 406.800372 -197.210447 
L 406.800321 -195.818751 
L 406.800215 -194.427055 
L 406.800111 -193.035359 
L 406.800044 -191.643663 
L 406.800014 -190.251967 
L 406.800003 -188.860271 
L 406.800001 -187.468574 
L 406.8 -186.076878 
L 406.8 -184.685182 
L 406.800002 -183.293486 
L 406.800009 -181.90179 
L 406.800035 -180.510094 
L 406.800102 -179.118398 
L 406.800237 -177.726702 
L 406.800433 -176.335006 
L 406.800624 -174.94331 
L 406.800711 -173.551614 
L 406.80064 -172.159918 
L 406.800455 -170.768222 
L 406.800256 -169.376526 
L 406.800115 -167.98483 
L 406.800048 -166.593134 
L 406.800041 -165.201438 
L 406.800085 -163.809742 
L 406.800175 -162.418046 
L 406.800287 -161.02635 
L 406.800365 -159.634654 
L 406.800362 -158.242958 
L 406.800293 -156.851262 
L 406.800226 -155.459566 
L 406.800224 -154.06787 
L 406.800289 -152.676174 
L 406.800361 -151.284478 
L 406.800372 -149.892782 
L 406.800313 -148.501086 
L 406.800243 -147.10939 
L 406.800229 -145.717694 
L 406.800286 -144.325998 
L 406.80036 -142.934302 
L 406.800385 -141.542606 
L 406.800355 -140.15091 
L 406.800347 -138.759214 
L 406.800461 -137.367518 
L 406.800753 -135.975822 
L 406.801196 -134.584126 
L 406.801705 -133.19243 
L 406.80216 -131.800734 
L 406.802462 -130.409038 
L 406.802602 -129.017342 
L 406.802701 -127.625646 
L 406.802921 -126.23395 
L 406.803311 -124.842254 
L 406.80377 -123.450558 
L 406.804191 -122.058862 
L 406.804608 -120.667166 
L 406.805172 -119.27547 
L 406.805995 -117.883774 
L 406.807068 -116.492078 
L 406.808342 -115.100382 
L 406.8098 -113.708686 
L 406.811414 -112.31699 
L 406.813107 -110.925294 
L 406.814863 -109.533598 
L 406.816815 -108.141902 
L 406.819145 -106.750206 
L 406.821951 -105.35851 
L 406.825324 -103.966814 
L 406.829484 -102.575118 
L 406.834688 -101.183422 
L 406.840999 -99.791726 
L 406.848341 -98.40003 
L 406.856894 -97.008334 
L 406.867224 -95.616638 
L 406.879735 -94.224942 
L 406.894139 -92.833246 
L 406.90967 -91.44155 
L 406.925496 -90.049854 
L 406.94024 -88.658158 
L 406.951305 -87.266462 
L 406.955665 -85.874766 
L 406.951699 -84.48307 
L 406.939987 -83.091374 
L 406.922582 -81.699678 
L 406.902079 -80.307982 
L 406.881002 -78.916286 
L 406.861331 -77.52459 
L 406.844327 -76.132894 
L 406.830628 -74.741198 
L 406.820267 -73.349502 
L 406.812752 -71.957806 
L 406.807448 -70.56611 
L 406.803892 -69.174414 
L 406.801754 -67.782718 
L 406.800662 -66.391022 
L 406.800205 -64.999326 
z
" style="stroke: #484848; stroke-width: 1.75"/>
    </defs>
    <g clip-path="url(#p256c4f7651)">
     <use xlink:href="#m22480fbf10" x="0" y="396" style="fill: #94aee8; stroke: #484848; stroke-width: 1.75"/>
    </g>
   </g>
   <g id="PolyCollection_9">
    <defs>
     <path id="md83561b4a8" d="M 451.440217 -64.583785 
L 451.439783 -64.583785 
L 451.439511 -65.537383 
L 451.438993 -66.490982 
L 451.438103 -67.44458 
L 451.436721 -68.398178 
L 451.434764 -69.351776 
L 451.432223 -70.305375 
L 451.429152 -71.258973 
L 451.425629 -72.212571 
L 451.421684 -73.166169 
L 451.417238 -74.119768 
L 451.412088 -75.073366 
L 451.405958 -76.026964 
L 451.398596 -76.980562 
L 451.389909 -77.93416 
L 451.380068 -78.887759 
L 451.369553 -79.841357 
L 451.359105 -80.794955 
L 451.34958 -81.748553 
L 451.341757 -82.702152 
L 451.336175 -83.65575 
L 451.333082 -84.609348 
L 451.332491 -85.562946 
L 451.334313 -86.516545 
L 451.338423 -87.470143 
L 451.34464 -88.423741 
L 451.352605 -89.377339 
L 451.3617 -90.330938 
L 451.371082 -91.284536 
L 451.379868 -92.238134 
L 451.3874 -93.191732 
L 451.393424 -94.14533 
L 451.398108 -95.098929 
L 451.401891 -96.052527 
L 451.405247 -97.006125 
L 451.408504 -97.959723 
L 451.41176 -98.913322 
L 451.414923 -99.86692 
L 451.417817 -100.820518 
L 451.420295 -101.774116 
L 451.422309 -102.727715 
L 451.42391 -103.681313 
L 451.425209 -104.634911 
L 451.426324 -105.588509 
L 451.427339 -106.542108 
L 451.428304 -107.495706 
L 451.429241 -108.449304 
L 451.43016 -109.402902 
L 451.431058 -110.356501 
L 451.431912 -111.310099 
L 451.432683 -112.263697 
L 451.43333 -113.217295 
L 451.433833 -114.170893 
L 451.434212 -115.124492 
L 451.434512 -116.07809 
L 451.434788 -117.031688 
L 451.435081 -117.985286 
L 451.435411 -118.938885 
L 451.435778 -119.892483 
L 451.436165 -120.846081 
L 451.436544 -121.799679 
L 451.436885 -122.753278 
L 451.437169 -123.706876 
L 451.437404 -124.660474 
L 451.437622 -125.614072 
L 451.437862 -126.567671 
L 451.438141 -127.521269 
L 451.438442 -128.474867 
L 451.438723 -129.428465 
L 451.43894 -130.382063 
L 451.439072 -131.335662 
L 451.439121 -132.28926 
L 451.439114 -133.242858 
L 451.439088 -134.196456 
L 451.439079 -135.150055 
L 451.439106 -136.103653 
L 451.439172 -137.057251 
L 451.439259 -138.010849 
L 451.439343 -138.964448 
L 451.43941 -139.918046 
L 451.439455 -140.871644 
L 451.439484 -141.825242 
L 451.439504 -142.778841 
L 451.439517 -143.732439 
L 451.439526 -144.686037 
L 451.439538 -145.639635 
L 451.43956 -146.593233 
L 451.439594 -147.546832 
L 451.43963 -148.50043 
L 451.439655 -149.454028 
L 451.439659 -150.407626 
L 451.439643 -151.361225 
L 451.439624 -152.314823 
L 451.439621 -153.268421 
L 451.439648 -154.222019 
L 451.439703 -155.175618 
L 451.439776 -156.129216 
L 451.439849 -157.082814 
L 451.439909 -158.036412 
L 451.439951 -158.990011 
L 451.440049 -158.990011 
L 451.440049 -158.990011 
L 451.440091 -158.036412 
L 451.440151 -157.082814 
L 451.440224 -156.129216 
L 451.440297 -155.175618 
L 451.440352 -154.222019 
L 451.440379 -153.268421 
L 451.440376 -152.314823 
L 451.440357 -151.361225 
L 451.440341 -150.407626 
L 451.440345 -149.454028 
L 451.44037 -148.50043 
L 451.440406 -147.546832 
L 451.44044 -146.593233 
L 451.440462 -145.639635 
L 451.440474 -144.686037 
L 451.440483 -143.732439 
L 451.440496 -142.778841 
L 451.440516 -141.825242 
L 451.440545 -140.871644 
L 451.44059 -139.918046 
L 451.440657 -138.964448 
L 451.440741 -138.010849 
L 451.440828 -137.057251 
L 451.440894 -136.103653 
L 451.440921 -135.150055 
L 451.440912 -134.196456 
L 451.440886 -133.242858 
L 451.440879 -132.28926 
L 451.440928 -131.335662 
L 451.44106 -130.382063 
L 451.441277 -129.428465 
L 451.441558 -128.474867 
L 451.441859 -127.521269 
L 451.442138 -126.567671 
L 451.442378 -125.614072 
L 451.442596 -124.660474 
L 451.442831 -123.706876 
L 451.443115 -122.753278 
L 451.443456 -121.799679 
L 451.443835 -120.846081 
L 451.444222 -119.892483 
L 451.444589 -118.938885 
L 451.444919 -117.985286 
L 451.445212 -117.031688 
L 451.445488 -116.07809 
L 451.445788 -115.124492 
L 451.446167 -114.170893 
L 451.44667 -113.217295 
L 451.447317 -112.263697 
L 451.448088 -111.310099 
L 451.448942 -110.356501 
L 451.44984 -109.402902 
L 451.450759 -108.449304 
L 451.451696 -107.495706 
L 451.452661 -106.542108 
L 451.453676 -105.588509 
L 451.454791 -104.634911 
L 451.45609 -103.681313 
L 451.457691 -102.727715 
L 451.459705 -101.774116 
L 451.462183 -100.820518 
L 451.465077 -99.86692 
L 451.46824 -98.913322 
L 451.471496 -97.959723 
L 451.474753 -97.006125 
L 451.478109 -96.052527 
L 451.481892 -95.098929 
L 451.486576 -94.14533 
L 451.4926 -93.191732 
L 451.500132 -92.238134 
L 451.508918 -91.284536 
L 451.5183 -90.330938 
L 451.527395 -89.377339 
L 451.53536 -88.423741 
L 451.541577 -87.470143 
L 451.545687 -86.516545 
L 451.547509 -85.562946 
L 451.546918 -84.609348 
L 451.543825 -83.65575 
L 451.538243 -82.702152 
L 451.53042 -81.748553 
L 451.520895 -80.794955 
L 451.510447 -79.841357 
L 451.499932 -78.887759 
L 451.490091 -77.93416 
L 451.481404 -76.980562 
L 451.474042 -76.026964 
L 451.467912 -75.073366 
L 451.462762 -74.119768 
L 451.458316 -73.166169 
L 451.454371 -72.212571 
L 451.450848 -71.258973 
L 451.447777 -70.305375 
L 451.445236 -69.351776 
L 451.443279 -68.398178 
L 451.441897 -67.44458 
L 451.441007 -66.490982 
L 451.440489 -65.537383 
L 451.440217 -64.583785 
z
" style="stroke: #484848; stroke-width: 1.75"/>
    </defs>
    <g clip-path="url(#p256c4f7651)">
     <use xlink:href="#md83561b4a8" x="0" y="396" style="fill: #ce9be9; stroke: #484848; stroke-width: 1.75"/>
    </g>
   </g>
   <g id="PolyCollection_10">
    <defs>
     <path id="mae4e45f621" d="M 496.080331 -64.086261 
L 496.079669 -64.086261 
L 496.079264 -65.274671 
L 496.078514 -66.46308 
L 496.077249 -67.65149 
L 496.075295 -68.8399 
L 496.072495 -70.02831 
L 496.068722 -71.21672 
L 496.063875 -72.405129 
L 496.057879 -73.593539 
L 496.050709 -74.781949 
L 496.04245 -75.970359 
L 496.033382 -77.158768 
L 496.024024 -78.347178 
L 496.015112 -79.535588 
L 496.007486 -80.723998 
L 496.001896 -81.912407 
L 495.998824 -83.100817 
L 495.998391 -84.289227 
L 496.00038 -85.477637 
L 496.004343 -86.666047 
L 496.009707 -87.854456 
L 496.015862 -89.042866 
L 496.022248 -90.231276 
L 496.028447 -91.419686 
L 496.034242 -92.608095 
L 496.039576 -93.796505 
L 496.044455 -94.984915 
L 496.048849 -96.173325 
L 496.052683 -97.361734 
L 496.055911 -98.550144 
L 496.058591 -99.738554 
L 496.060874 -100.926964 
L 496.062922 -102.115374 
L 496.064806 -103.303783 
L 496.066497 -104.492193 
L 496.067928 -105.680603 
L 496.069085 -106.869013 
L 496.070029 -108.057422 
L 496.070856 -109.245832 
L 496.071642 -110.434242 
L 496.072426 -111.622652 
L 496.073225 -112.811061 
L 496.074057 -113.999471 
L 496.074928 -115.187881 
L 496.075811 -116.376291 
L 496.076629 -117.564701 
L 496.077285 -118.75311 
L 496.077712 -119.94152 
L 496.07791 -121.12993 
L 496.077943 -122.31834 
L 496.077914 -123.506749 
L 496.077923 -124.695159 
L 496.078032 -125.883569 
L 496.078251 -127.071979 
L 496.078535 -128.260388 
L 496.078814 -129.448798 
L 496.079027 -130.637208 
L 496.079145 -131.825618 
L 496.07918 -133.014027 
L 496.079168 -134.202437 
L 496.079147 -135.390847 
L 496.07914 -136.579257 
L 496.079156 -137.767667 
L 496.079191 -138.956076 
L 496.079244 -140.144486 
L 496.079316 -141.332896 
L 496.079408 -142.521306 
L 496.079518 -143.709715 
L 496.079637 -144.898125 
L 496.07975 -146.086535 
L 496.079844 -147.274945 
L 496.07991 -148.463354 
L 496.079949 -149.651764 
L 496.079962 -150.840174 
L 496.07995 -152.028584 
L 496.079915 -153.216994 
L 496.079858 -154.405403 
L 496.079786 -155.593813 
L 496.079712 -156.782223 
L 496.079653 -157.970633 
L 496.07962 -159.159042 
L 496.07961 -160.347452 
L 496.079611 -161.535862 
L 496.079611 -162.724272 
L 496.079608 -163.912681 
L 496.079611 -165.101091 
L 496.079631 -166.289501 
L 496.07967 -167.477911 
L 496.079714 -168.666321 
L 496.079743 -169.85473 
L 496.079744 -171.04314 
L 496.079717 -172.23155 
L 496.07968 -173.41996 
L 496.079658 -174.608369 
L 496.079668 -175.796779 
L 496.079713 -176.985189 
L 496.079781 -178.173599 
L 496.079853 -179.362008 
L 496.079913 -180.550418 
L 496.079955 -181.738828 
L 496.080045 -181.738828 
L 496.080045 -181.738828 
L 496.080087 -180.550418 
L 496.080147 -179.362008 
L 496.080219 -178.173599 
L 496.080287 -176.985189 
L 496.080332 -175.796779 
L 496.080342 -174.608369 
L 496.08032 -173.41996 
L 496.080283 -172.23155 
L 496.080256 -171.04314 
L 496.080257 -169.85473 
L 496.080286 -168.666321 
L 496.08033 -167.477911 
L 496.080369 -166.289501 
L 496.080389 -165.101091 
L 496.080392 -163.912681 
L 496.080389 -162.724272 
L 496.080389 -161.535862 
L 496.08039 -160.347452 
L 496.08038 -159.159042 
L 496.080347 -157.970633 
L 496.080288 -156.782223 
L 496.080214 -155.593813 
L 496.080142 -154.405403 
L 496.080085 -153.216994 
L 496.08005 -152.028584 
L 496.080038 -150.840174 
L 496.080051 -149.651764 
L 496.08009 -148.463354 
L 496.080156 -147.274945 
L 496.08025 -146.086535 
L 496.080363 -144.898125 
L 496.080482 -143.709715 
L 496.080592 -142.521306 
L 496.080684 -141.332896 
L 496.080756 -140.144486 
L 496.080809 -138.956076 
L 496.080844 -137.767667 
L 496.08086 -136.579257 
L 496.080853 -135.390847 
L 496.080832 -134.202437 
L 496.08082 -133.014027 
L 496.080855 -131.825618 
L 496.080973 -130.637208 
L 496.081186 -129.448798 
L 496.081465 -128.260388 
L 496.081749 -127.071979 
L 496.081968 -125.883569 
L 496.082077 -124.695159 
L 496.082086 -123.506749 
L 496.082057 -122.31834 
L 496.08209 -121.12993 
L 496.082288 -119.94152 
L 496.082715 -118.75311 
L 496.083371 -117.564701 
L 496.084189 -116.376291 
L 496.085072 -115.187881 
L 496.085943 -113.999471 
L 496.086775 -112.811061 
L 496.087574 -111.622652 
L 496.088358 -110.434242 
L 496.089144 -109.245832 
L 496.089971 -108.057422 
L 496.090915 -106.869013 
L 496.092072 -105.680603 
L 496.093503 -104.492193 
L 496.095194 -103.303783 
L 496.097078 -102.115374 
L 496.099126 -100.926964 
L 496.101409 -99.738554 
L 496.104089 -98.550144 
L 496.107317 -97.361734 
L 496.111151 -96.173325 
L 496.115545 -94.984915 
L 496.120424 -93.796505 
L 496.125758 -92.608095 
L 496.131553 -91.419686 
L 496.137752 -90.231276 
L 496.144138 -89.042866 
L 496.150293 -87.854456 
L 496.155657 -86.666047 
L 496.15962 -85.477637 
L 496.161609 -84.289227 
L 496.161176 -83.100817 
L 496.158104 -81.912407 
L 496.152514 -80.723998 
L 496.144888 -79.535588 
L 496.135976 -78.347178 
L 496.126618 -77.158768 
L 496.11755 -75.970359 
L 496.109291 -74.781949 
L 496.102121 -73.593539 
L 496.096125 -72.405129 
L 496.091278 -71.21672 
L 496.087505 -70.02831 
L 496.084705 -68.8399 
L 496.082751 -67.65149 
L 496.081486 -66.46308 
L 496.080736 -65.274671 
L 496.080331 -64.086261 
z
" style="stroke: #484848; stroke-width: 1.75"/>
    </defs>
    <g clip-path="url(#p256c4f7651)">
     <use xlink:href="#mae4e45f621" x="0" y="396" style="fill: #e88fcc; stroke: #484848; stroke-width: 1.75"/>
    </g>
   </g>
   <g id="line2d_23">
    <path d="M 94.32 328.458444 
L 94.32 240.521324 
" clip-path="url(#p256c4f7651)" style="fill: none; stroke: #484848; stroke-width: 1.75; stroke-linecap: round"/>
   </g>
   <g id="line2d_24">
    <path d="M 94.32 298.166874 
L 94.32 275.102601 
" clip-path="url(#p256c4f7651)" style="fill: none; stroke: #484848; stroke-width: 5.25; stroke-linecap: round"/>
   </g>
   <g id="line2d_25">
    <path d="M 138.96 322.905765 
L 138.96 279.507637 
" clip-path="url(#p256c4f7651)" style="fill: none; stroke: #484848; stroke-width: 1.75; stroke-linecap: round"/>
   </g>
   <g id="line2d_26">
    <path d="M 138.96 306.702123 
L 138.96 295.822113 
" clip-path="url(#p256c4f7651)" style="fill: none; stroke: #484848; stroke-width: 5.25; stroke-linecap: round"/>
   </g>
   <g id="line2d_27">
    <path d="M 183.6 321.360225 
L 183.6 289.5575 
" clip-path="url(#p256c4f7651)" style="fill: none; stroke: #484848; stroke-width: 1.75; stroke-linecap: round"/>
   </g>
   <g id="line2d_28">
    <path d="M 183.6 309.443943 
L 183.6 301.482365 
" clip-path="url(#p256c4f7651)" style="fill: none; stroke: #484848; stroke-width: 5.25; stroke-linecap: round"/>
   </g>
   <g id="line2d_29">
    <path d="M 228.24 321.488203 
L 228.24 291.912586 
" clip-path="url(#p256c4f7651)" style="fill: none; stroke: #484848; stroke-width: 1.75; stroke-linecap: round"/>
   </g>
   <g id="line2d_30">
    <path d="M 228.24 310.400083 
L 228.24 303.002388 
" clip-path="url(#p256c4f7651)" style="fill: none; stroke: #484848; stroke-width: 5.25; stroke-linecap: round"/>
   </g>
   <g id="line2d_31">
    <path d="M 272.88 322.746774 
L 272.88 291.159698 
" clip-path="url(#p256c4f7651)" style="fill: none; stroke: #484848; stroke-width: 1.75; stroke-linecap: round"/>
   </g>
   <g id="line2d_32">
    <path d="M 272.88 310.950863 
L 272.88 303.020563 
" clip-path="url(#p256c4f7651)" style="fill: none; stroke: #484848; stroke-width: 5.25; stroke-linecap: round"/>
   </g>
   <g id="line2d_33">
    <path d="M 317.52 324.772937 
L 317.52 289.775639 
" clip-path="url(#p256c4f7651)" style="fill: none; stroke: #484848; stroke-width: 1.75; stroke-linecap: round"/>
   </g>
   <g id="line2d_34">
    <path d="M 317.52 311.711259 
L 317.52 302.872027 
" clip-path="url(#p256c4f7651)" style="fill: none; stroke: #484848; stroke-width: 5.25; stroke-linecap: round"/>
   </g>
   <g id="line2d_35">
    <path d="M 362.16 325.100562 
L 362.16 290.323378 
" clip-path="url(#p256c4f7651)" style="fill: none; stroke: #484848; stroke-width: 1.75; stroke-linecap: round"/>
   </g>
   <g id="line2d_36">
    <path d="M 362.16 312.032459 
L 362.16 303.280772 
" clip-path="url(#p256c4f7651)" style="fill: none; stroke: #484848; stroke-width: 5.25; stroke-linecap: round"/>
   </g>
   <g id="line2d_37">
    <path d="M 406.8 325.519288 
L 406.8 286.782062 
" clip-path="url(#p256c4f7651)" style="fill: none; stroke: #484848; stroke-width: 1.75; stroke-linecap: round"/>
   </g>
   <g id="line2d_38">
    <path d="M 406.8 312.943997 
L 406.8 302.460547 
" clip-path="url(#p256c4f7651)" style="fill: none; stroke: #484848; stroke-width: 5.25; stroke-linecap: round"/>
   </g>
   <g id="line2d_39">
    <path d="M 451.44 325.816368 
L 451.44 288.912589 
" clip-path="url(#p256c4f7651)" style="fill: none; stroke: #484848; stroke-width: 1.75; stroke-linecap: round"/>
   </g>
   <g id="line2d_40">
    <path d="M 451.44 313.51946 
L 451.44 303.538604 
" clip-path="url(#p256c4f7651)" style="fill: none; stroke: #484848; stroke-width: 5.25; stroke-linecap: round"/>
   </g>
   <g id="line2d_41">
    <path d="M 496.08 325.263052 
L 496.08 285.957192 
" clip-path="url(#p256c4f7651)" style="fill: none; stroke: #484848; stroke-width: 1.75; stroke-linecap: round"/>
   </g>
   <g id="line2d_42">
    <path d="M 496.08 314.54113 
L 496.08 302.847955 
" clip-path="url(#p256c4f7651)" style="fill: none; stroke: #484848; stroke-width: 5.25; stroke-linecap: round"/>
   </g>
   <g id="line2d_43">
    <path d="M 72 303.610562 
L 518.4 303.610562 
" clip-path="url(#p256c4f7651)" style="fill: none; stroke-dasharray: 6.475,2.8; stroke-dashoffset: 0; stroke: #ff0000; stroke-width: 1.75"/>
   </g>
   <g id="patch_3">
    <path d="M 72 346.5 
L 72 47.52 
" style="fill: none; stroke: #cccccc; stroke-width: 1.25; stroke-linejoin: miter; stroke-linecap: square"/>
   </g>
   <g id="patch_4">
    <path d="M 518.4 346.5 
L 518.4 47.52 
" style="fill: none; stroke: #cccccc; stroke-width: 1.25; stroke-linejoin: miter; stroke-linecap: square"/>
   </g>
   <g id="patch_5">
    <path d="M 72 346.5 
L 518.4 346.5 
" style="fill: none; stroke: #cccccc; stroke-width: 1.25; stroke-linejoin: miter; stroke-linecap: square"/>
   </g>
   <g id="patch_6">
    <path d="M 72 47.52 
L 518.4 47.52 
" style="fill: none; stroke: #cccccc; stroke-width: 1.25; stroke-linejoin: miter; stroke-linecap: square"/>
   </g>
   <g id="PathCollection_1">
    <defs>
     <path id="m52daf1f42c" d="M 0 1.75 
C 0.464105 1.75 0.909265 1.565609 1.237437 1.237437 
C 1.565609 0.909265 1.75 0.464105 1.75 0 
C 1.75 -0.464105 1.565609 -0.909265 1.237437 -1.237437 
C 0.909265 -1.565609 0.464105 -1.75 0 -1.75 
C -0.464105 -1.75 -0.909265 -1.565609 -1.237437 -1.237437 
C -1.565609 -0.909265 -1.75 -0.464105 -1.75 0 
C -1.75 0.464105 -1.565609 0.909265 -1.237437 1.237437 
C -0.909265 1.565609 -0.464105 1.75 0 1.75 
z
" style="stroke: #484848; stroke-width: 0.3"/>
    </defs>
    <g clip-path="url(#p256c4f7651)">
     <use xlink:href="#m52daf1f42c" x="94.32" y="288.053272" style="fill: #ffffff; stroke: #484848; stroke-width: 0.3"/>
    </g>
   </g>
   <g id="PathCollection_2">
    <g clip-path="url(#p256c4f7651)">
     <use xlink:href="#m52daf1f42c" x="138.96" y="301.525073" style="fill: #ffffff; stroke: #484848; stroke-width: 0.3"/>
    </g>
   </g>
   <g id="PathCollection_3">
    <g clip-path="url(#p256c4f7651)">
     <use xlink:href="#m52daf1f42c" x="183.6" y="305.623334" style="fill: #ffffff; stroke: #484848; stroke-width: 0.3"/>
    </g>
   </g>
   <g id="PathCollection_4">
    <g clip-path="url(#p256c4f7651)">
     <use xlink:href="#m52daf1f42c" x="228.24" y="306.885773" style="fill: #ffffff; stroke: #484848; stroke-width: 0.3"/>
    </g>
   </g>
   <g id="PathCollection_5">
    <g clip-path="url(#p256c4f7651)">
     <use xlink:href="#m52daf1f42c" x="272.88" y="307.355828" style="fill: #ffffff; stroke: #484848; stroke-width: 0.3"/>
    </g>
   </g>
   <g id="PathCollection_6">
    <g clip-path="url(#p256c4f7651)">
     <use xlink:href="#m52daf1f42c" x="317.52" y="307.762201" style="fill: #ffffff; stroke: #484848; stroke-width: 0.3"/>
    </g>
   </g>
   <g id="PathCollection_7">
    <g clip-path="url(#p256c4f7651)">
     <use xlink:href="#m52daf1f42c" x="362.16" y="308.354499" style="fill: #ffffff; stroke: #484848; stroke-width: 0.3"/>
    </g>
   </g>
   <g id="PathCollection_8">
    <g clip-path="url(#p256c4f7651)">
     <use xlink:href="#m52daf1f42c" x="406.8" y="308.57925" style="fill: #ffffff; stroke: #484848; stroke-width: 0.3"/>
    </g>
   </g>
   <g id="PathCollection_9">
    <g clip-path="url(#p256c4f7651)">
     <use xlink:href="#m52daf1f42c" x="451.44" y="309.068938" style="fill: #ffffff; stroke: #484848; stroke-width: 0.3"/>
    </g>
   </g>
   <g id="PathCollection_10">
    <g clip-path="url(#p256c4f7651)">
     <use xlink:href="#m52daf1f42c" x="496.08" y="309.748256" style="fill: #ffffff; stroke: #484848; stroke-width: 0.3"/>
    </g>
   </g>
   <g id="text_19">
    <!-- Volume Comparison Vol_Edasi / Vol_Farinotti against Lmax -->
    <g style="fill: #262626" transform="translate(137.119687 41.52)scale(0.12 -0.12)">
     <defs>
      <path id="LiberationSans-75" d="M 981 3381 
L 981 1238 
Q 981 903 1047 718 
Q 1113 534 1256 453 
Q 1400 372 1678 372 
Q 2084 372 2318 650 
Q 2553 928 2553 1422 
L 2553 3381 
L 3116 3381 
L 3116 722 
Q 3116 131 3134 0 
L 2603 0 
Q 2600 16 2597 84 
Q 2594 153 2589 242 
Q 2584 331 2578 578 
L 2569 578 
Q 2375 228 2120 82 
Q 1866 -63 1488 -63 
Q 931 -63 673 214 
Q 416 491 416 1128 
L 416 3381 
L 981 3381 
z
" transform="scale(0.015625)"/>
      <path id="LiberationSans-65" d="M 863 1572 
Q 863 991 1103 675 
Q 1344 359 1806 359 
Q 2172 359 2392 506 
Q 2613 653 2691 878 
L 3184 738 
Q 2881 -63 1806 -63 
Q 1056 -63 664 384 
Q 272 831 272 1713 
Q 272 2550 664 2997 
Q 1056 3444 1784 3444 
Q 3275 3444 3275 1647 
L 3275 1572 
L 863 1572 
z
M 2694 2003 
Q 2647 2538 2422 2783 
Q 2197 3028 1775 3028 
Q 1366 3028 1127 2754 
Q 888 2481 869 2003 
L 2694 2003 
z
" transform="scale(0.015625)"/>
      <path id="LiberationSans-43" d="M 2475 3981 
Q 1744 3981 1337 3511 
Q 931 3041 931 2222 
Q 931 1413 1354 920 
Q 1778 428 2500 428 
Q 3425 428 3891 1344 
L 4378 1100 
Q 4106 531 3614 234 
Q 3122 -63 2472 -63 
Q 1806 -63 1320 214 
Q 834 491 579 1005 
Q 325 1519 325 2222 
Q 325 3275 894 3872 
Q 1463 4469 2469 4469 
Q 3172 4469 3644 4194 
Q 4116 3919 4338 3378 
L 3772 3191 
Q 3619 3575 3280 3778 
Q 2941 3981 2475 3981 
z
" transform="scale(0.015625)"/>
      <path id="LiberationSans-70" d="M 3291 1706 
Q 3291 -63 2047 -63 
Q 1266 -63 997 525 
L 981 525 
Q 994 500 994 -6 
L 994 -1328 
L 431 -1328 
L 431 2691 
Q 431 3213 413 3381 
L 956 3381 
Q 959 3369 965 3292 
Q 972 3216 980 3056 
Q 988 2897 988 2838 
L 1000 2838 
Q 1150 3150 1397 3295 
Q 1644 3441 2047 3441 
Q 2672 3441 2981 3022 
Q 3291 2603 3291 1706 
z
M 2700 1694 
Q 2700 2400 2509 2703 
Q 2319 3006 1903 3006 
Q 1569 3006 1380 2865 
Q 1191 2725 1092 2426 
Q 994 2128 994 1650 
Q 994 984 1206 668 
Q 1419 353 1897 353 
Q 2316 353 2508 661 
Q 2700 969 2700 1694 
z
" transform="scale(0.015625)"/>
      <path id="LiberationSans-67" d="M 1713 -1328 
Q 1159 -1328 831 -1111 
Q 503 -894 409 -494 
L 975 -413 
Q 1031 -647 1223 -773 
Q 1416 -900 1728 -900 
Q 2569 -900 2569 84 
L 2569 628 
L 2563 628 
Q 2403 303 2125 139 
Q 1847 -25 1475 -25 
Q 853 -25 561 387 
Q 269 800 269 1684 
Q 269 2581 583 3007 
Q 897 3434 1538 3434 
Q 1897 3434 2161 3270 
Q 2425 3106 2569 2803 
L 2575 2803 
Q 2575 2897 2587 3128 
Q 2600 3359 2613 3381 
L 3147 3381 
Q 3128 3213 3128 2681 
L 3128 97 
Q 3128 -1328 1713 -1328 
z
M 2569 1691 
Q 2569 2103 2456 2401 
Q 2344 2700 2139 2858 
Q 1934 3016 1675 3016 
Q 1244 3016 1047 2703 
Q 850 2391 850 1691 
Q 850 997 1034 694 
Q 1219 391 1666 391 
Q 1931 391 2137 547 
Q 2344 703 2456 995 
Q 2569 1288 2569 1691 
z
" transform="scale(0.015625)"/>
     </defs>
     <use xlink:href="#LiberationSans-56"/>
     <use xlink:href="#LiberationSans-6f" x="61.199219"/>
     <use xlink:href="#LiberationSans-6c" x="116.814453"/>
     <use xlink:href="#LiberationSans-75" x="139.03125"/>
     <use xlink:href="#LiberationSans-6d" x="194.646484"/>
     <use xlink:href="#LiberationSans-65" x="277.947266"/>
     <use xlink:href="#LiberationSans-20" x="333.5625"/>
     <use xlink:href="#LiberationSans-43" x="361.345703"/>
     <use xlink:href="#LiberationSans-6f" x="433.5625"/>
     <use xlink:href="#LiberationSans-6d" x="489.177734"/>
     <use xlink:href="#LiberationSans-70" x="572.478516"/>
     <use xlink:href="#LiberationSans-61" x="628.09375"/>
     <use xlink:href="#LiberationSans-72" x="683.708984"/>
     <use xlink:href="#LiberationSans-69" x="717.009766"/>
     <use xlink:href="#LiberationSans-73" x="739.226562"/>
     <use xlink:href="#LiberationSans-6f" x="789.226562"/>
     <use xlink:href="#LiberationSans-6e" x="844.841797"/>
     <use xlink:href="#LiberationSans-20" x="900.457031"/>
     <use xlink:href="#LiberationSans-56" x="928.240234"/>
     <use xlink:href="#LiberationSans-6f" x="989.439453"/>
     <use xlink:href="#LiberationSans-6c" x="1045.054688"/>
     <use xlink:href="#LiberationSans-5f" x="1067.271484"/>
     <use xlink:href="#LiberationSans-45" x="1122.886719"/>
     <use xlink:href="#LiberationSans-64" x="1189.585938"/>
     <use xlink:href="#LiberationSans-61" x="1245.201172"/>
     <use xlink:href="#LiberationSans-73" x="1300.816406"/>
     <use xlink:href="#LiberationSans-69" x="1350.816406"/>
     <use xlink:href="#LiberationSans-20" x="1373.033203"/>
     <use xlink:href="#LiberationSans-2f" x="1400.816406"/>
     <use xlink:href="#LiberationSans-20" x="1428.599609"/>
     <use xlink:href="#LiberationSans-56" x="1456.382812"/>
     <use xlink:href="#LiberationSans-6f" x="1517.582031"/>
     <use xlink:href="#LiberationSans-6c" x="1573.197266"/>
     <use xlink:href="#LiberationSans-5f" x="1595.414062"/>
     <use xlink:href="#LiberationSans-46" x="1651.029297"/>
     <use xlink:href="#LiberationSans-61" x="1712.113281"/>
     <use xlink:href="#LiberationSans-72" x="1767.728516"/>
     <use xlink:href="#LiberationSans-69" x="1801.029297"/>
     <use xlink:href="#LiberationSans-6e" x="1823.246094"/>
     <use xlink:href="#LiberationSans-6f" x="1878.861328"/>
     <use xlink:href="#LiberationSans-74" x="1934.476562"/>
     <use xlink:href="#LiberationSans-74" x="1962.259766"/>
     <use xlink:href="#LiberationSans-69" x="1990.042969"/>
     <use xlink:href="#LiberationSans-20" x="2012.259766"/>
     <use xlink:href="#LiberationSans-61" x="2040.042969"/>
     <use xlink:href="#LiberationSans-67" x="2095.658203"/>
     <use xlink:href="#LiberationSans-61" x="2151.273438"/>
     <use xlink:href="#LiberationSans-69" x="2206.888672"/>
     <use xlink:href="#LiberationSans-6e" x="2229.105469"/>
     <use xlink:href="#LiberationSans-73" x="2284.720703"/>
     <use xlink:href="#LiberationSans-74" x="2334.720703"/>
     <use xlink:href="#LiberationSans-20" x="2362.503906"/>
     <use xlink:href="#LiberationSans-4c" x="2390.287109"/>
     <use xlink:href="#LiberationSans-6d" x="2445.902344"/>
     <use xlink:href="#LiberationSans-61" x="2529.203125"/>
     <use xlink:href="#LiberationSans-78" x="2584.818359"/>
    </g>
   </g>
  </g>
 </g>
 <defs>
  <clipPath id="p256c4f7651">
   <rect x="72" y="47.52" width="446.4" height="298.98"/>
  </clipPath>
 </defs>
</svg>
