<?xml version="1.0" encoding="utf-8" standalone="no"?>
<!DOCTYPE svg PUBLIC "-//W3C//DTD SVG 1.1//EN"
  "http://www.w3.org/Graphics/SVG/1.1/DTD/svg11.dtd">
<svg xmlns:xlink="http://www.w3.org/1999/xlink" width="576pt" height="396pt" viewBox="0 0 576 396" xmlns="http://www.w3.org/2000/svg" version="1.1">
 <metadata>
  <rdf:RDF xmlns:dc="http://purl.org/dc/elements/1.1/" xmlns:cc="http://creativecommons.org/ns#" xmlns:rdf="http://www.w3.org/1999/02/22-rdf-syntax-ns#">
   <cc:Work>
    <dc:type rdf:resource="http://purl.org/dc/dcmitype/StillImage"/>
    <dc:date>2022-10-17T09:12:59.744061</dc:date>
    <dc:format>image/svg+xml</dc:format>
    <dc:creator>
     <cc:Agent>
      <dc:title>Matplotlib v3.5.0, https://matplotlib.org/</dc:title>
     </cc:Agent>
    </dc:creator>
   </cc:Work>
  </rdf:RDF>
 </metadata>
 <defs>
  <style type="text/css">*{stroke-linejoin: round; stroke-linecap: butt}</style>
 </defs>
 <g id="figure_1">
  <g id="patch_1">
   <path d="M 0 396 
L 576 396 
L 576 0 
L 0 0 
z
" style="fill: #ffffff"/>
  </g>
  <g id="axes_1">
   <g id="patch_2">
    <path d="M 72 346.5 
L 518.4 346.5 
L 518.4 47.52 
L 72 47.52 
z
" style="fill: #ffffff"/>
   </g>
   <g id="matplotlib.axis_1">
    <g id="xtick_1">
     <g id="line2d_1"/>
     <g id="text_1">
      <!-- 0-10 -->
      <g style="fill: #262626" transform="translate(86.79375 360.746875)scale(0.1 -0.1)">
       <defs>
        <path id="LiberationSans-30" d="M 3309 2203 
Q 3309 1100 2920 518 
Q 2531 -63 1772 -63 
Q 1013 -63 631 515 
Q 250 1094 250 2203 
Q 250 3338 620 3903 
Q 991 4469 1791 4469 
Q 2569 4469 2939 3897 
Q 3309 3325 3309 2203 
z
M 2738 2203 
Q 2738 3156 2517 3584 
Q 2297 4013 1791 4013 
Q 1272 4013 1045 3591 
Q 819 3169 819 2203 
Q 819 1266 1048 831 
Q 1278 397 1778 397 
Q 2275 397 2506 840 
Q 2738 1284 2738 2203 
z
" transform="scale(0.015625)"/>
        <path id="LiberationSans-2d" d="M 284 1450 
L 284 1950 
L 1847 1950 
L 1847 1450 
L 284 1450 
z
" transform="scale(0.015625)"/>
        <path id="LiberationSans-31" d="M 488 0 
L 488 478 
L 1609 478 
L 1609 3866 
L 616 3156 
L 616 3688 
L 1656 4403 
L 2175 4403 
L 2175 478 
L 3247 478 
L 3247 0 
L 488 0 
z
" transform="scale(0.015625)"/>
       </defs>
       <use xlink:href="#LiberationSans-30"/>
       <use xlink:href="#LiberationSans-2d" x="55.615234"/>
       <use xlink:href="#LiberationSans-31" x="88.916016"/>
       <use xlink:href="#LiberationSans-30" x="144.53125"/>
      </g>
     </g>
    </g>
    <g id="xtick_2">
     <g id="line2d_2"/>
     <g id="text_2">
      <!-- 10-20 -->
      <g style="fill: #262626" transform="translate(133.613281 360.746875)scale(0.1 -0.1)">
       <defs>
        <path id="LiberationSans-32" d="M 322 0 
L 322 397 
Q 481 763 711 1042 
Q 941 1322 1194 1548 
Q 1447 1775 1695 1969 
Q 1944 2163 2144 2356 
Q 2344 2550 2467 2762 
Q 2591 2975 2591 3244 
Q 2591 3606 2378 3806 
Q 2166 4006 1788 4006 
Q 1428 4006 1195 3811 
Q 963 3616 922 3263 
L 347 3316 
Q 409 3844 795 4156 
Q 1181 4469 1788 4469 
Q 2453 4469 2811 4155 
Q 3169 3841 3169 3263 
Q 3169 3006 3051 2753 
Q 2934 2500 2703 2247 
Q 2472 1994 1819 1463 
Q 1459 1169 1246 933 
Q 1034 697 941 478 
L 3238 478 
L 3238 0 
L 322 0 
z
" transform="scale(0.015625)"/>
       </defs>
       <use xlink:href="#LiberationSans-31"/>
       <use xlink:href="#LiberationSans-30" x="55.615234"/>
       <use xlink:href="#LiberationSans-2d" x="111.230469"/>
       <use xlink:href="#LiberationSans-32" x="144.53125"/>
       <use xlink:href="#LiberationSans-30" x="200.146484"/>
      </g>
     </g>
    </g>
    <g id="xtick_3">
     <g id="line2d_3"/>
     <g id="text_3">
      <!-- 20-30 -->
      <g style="fill: #262626" transform="translate(183.213281 360.746875)scale(0.1 -0.1)">
       <defs>
        <path id="LiberationSans-33" d="M 3278 1216 
Q 3278 606 2890 271 
Q 2503 -63 1784 -63 
Q 1116 -63 717 239 
Q 319 541 244 1131 
L 825 1184 
Q 938 403 1784 403 
Q 2209 403 2451 612 
Q 2694 822 2694 1234 
Q 2694 1594 2417 1795 
Q 2141 1997 1619 1997 
L 1300 1997 
L 1300 2484 
L 1606 2484 
Q 2069 2484 2323 2686 
Q 2578 2888 2578 3244 
Q 2578 3597 2370 3801 
Q 2163 4006 1753 4006 
Q 1381 4006 1151 3815 
Q 922 3625 884 3278 
L 319 3322 
Q 381 3863 767 4166 
Q 1153 4469 1759 4469 
Q 2422 4469 2789 4161 
Q 3156 3853 3156 3303 
Q 3156 2881 2920 2617 
Q 2684 2353 2234 2259 
L 2234 2247 
Q 2728 2194 3003 1916 
Q 3278 1638 3278 1216 
z
" transform="scale(0.015625)"/>
       </defs>
       <use xlink:href="#LiberationSans-32"/>
       <use xlink:href="#LiberationSans-30" x="55.615234"/>
       <use xlink:href="#LiberationSans-2d" x="111.230469"/>
       <use xlink:href="#LiberationSans-33" x="144.53125"/>
       <use xlink:href="#LiberationSans-30" x="200.146484"/>
      </g>
     </g>
    </g>
    <g id="xtick_4">
     <g id="line2d_4"/>
     <g id="text_4">
      <!-- 30-40 -->
      <g style="fill: #262626" transform="translate(232.813281 360.746875)scale(0.1 -0.1)">
       <defs>
        <path id="LiberationSans-34" d="M 2753 997 
L 2753 0 
L 2222 0 
L 2222 997 
L 147 997 
L 147 1434 
L 2163 4403 
L 2753 4403 
L 2753 1441 
L 3372 1441 
L 3372 997 
L 2753 997 
z
M 2222 3769 
Q 2216 3750 2134 3603 
Q 2053 3456 2013 3397 
L 884 1734 
L 716 1503 
L 666 1441 
L 2222 1441 
L 2222 3769 
z
" transform="scale(0.015625)"/>
       </defs>
       <use xlink:href="#LiberationSans-33"/>
       <use xlink:href="#LiberationSans-30" x="55.615234"/>
       <use xlink:href="#LiberationSans-2d" x="111.230469"/>
       <use xlink:href="#LiberationSans-34" x="144.53125"/>
       <use xlink:href="#LiberationSans-30" x="200.146484"/>
      </g>
     </g>
    </g>
    <g id="xtick_5">
     <g id="line2d_5"/>
     <g id="text_5">
      <!-- 40-50 -->
      <g style="fill: #262626" transform="translate(282.413281 360.746875)scale(0.1 -0.1)">
       <defs>
        <path id="LiberationSans-35" d="M 3291 1434 
Q 3291 738 2877 337 
Q 2463 -63 1728 -63 
Q 1113 -63 734 206 
Q 356 475 256 984 
L 825 1050 
Q 1003 397 1741 397 
Q 2194 397 2450 670 
Q 2706 944 2706 1422 
Q 2706 1838 2448 2094 
Q 2191 2350 1753 2350 
Q 1525 2350 1328 2278 
Q 1131 2206 934 2034 
L 384 2034 
L 531 4403 
L 3034 4403 
L 3034 3925 
L 1044 3925 
L 959 2528 
Q 1325 2809 1869 2809 
Q 2519 2809 2905 2428 
Q 3291 2047 3291 1434 
z
" transform="scale(0.015625)"/>
       </defs>
       <use xlink:href="#LiberationSans-34"/>
       <use xlink:href="#LiberationSans-30" x="55.615234"/>
       <use xlink:href="#LiberationSans-2d" x="111.230469"/>
       <use xlink:href="#LiberationSans-35" x="144.53125"/>
       <use xlink:href="#LiberationSans-30" x="200.146484"/>
      </g>
     </g>
    </g>
    <g id="xtick_6">
     <g id="line2d_6"/>
     <g id="text_6">
      <!-- 50-60 -->
      <g style="fill: #262626" transform="translate(332.013281 360.746875)scale(0.1 -0.1)">
       <defs>
        <path id="LiberationSans-36" d="M 3278 1441 
Q 3278 744 2900 340 
Q 2522 -63 1856 -63 
Q 1113 -63 719 490 
Q 325 1044 325 2100 
Q 325 3244 734 3856 
Q 1144 4469 1900 4469 
Q 2897 4469 3156 3572 
L 2619 3475 
Q 2453 4013 1894 4013 
Q 1413 4013 1148 3564 
Q 884 3116 884 2266 
Q 1038 2550 1316 2698 
Q 1594 2847 1953 2847 
Q 2563 2847 2920 2465 
Q 3278 2084 3278 1441 
z
M 2706 1416 
Q 2706 1894 2472 2153 
Q 2238 2413 1819 2413 
Q 1425 2413 1183 2183 
Q 941 1953 941 1550 
Q 941 1041 1192 716 
Q 1444 391 1838 391 
Q 2244 391 2475 664 
Q 2706 938 2706 1416 
z
" transform="scale(0.015625)"/>
       </defs>
       <use xlink:href="#LiberationSans-35"/>
       <use xlink:href="#LiberationSans-30" x="55.615234"/>
       <use xlink:href="#LiberationSans-2d" x="111.230469"/>
       <use xlink:href="#LiberationSans-36" x="144.53125"/>
       <use xlink:href="#LiberationSans-30" x="200.146484"/>
      </g>
     </g>
    </g>
    <g id="xtick_7">
     <g id="line2d_7"/>
     <g id="text_7">
      <!-- 60-70 -->
      <g style="fill: #262626" transform="translate(381.613281 360.746875)scale(0.1 -0.1)">
       <defs>
        <path id="LiberationSans-37" d="M 3238 3947 
Q 2563 2916 2284 2331 
Q 2006 1747 1867 1178 
Q 1728 609 1728 0 
L 1141 0 
Q 1141 844 1498 1776 
Q 1856 2709 2694 3925 
L 328 3925 
L 328 4403 
L 3238 4403 
L 3238 3947 
z
" transform="scale(0.015625)"/>
       </defs>
       <use xlink:href="#LiberationSans-36"/>
       <use xlink:href="#LiberationSans-30" x="55.615234"/>
       <use xlink:href="#LiberationSans-2d" x="111.230469"/>
       <use xlink:href="#LiberationSans-37" x="144.53125"/>
       <use xlink:href="#LiberationSans-30" x="200.146484"/>
      </g>
     </g>
    </g>
    <g id="xtick_8">
     <g id="line2d_8"/>
     <g id="text_8">
      <!-- 70-80 -->
      <g style="fill: #262626" transform="translate(431.213281 360.746875)scale(0.1 -0.1)">
       <defs>
        <path id="LiberationSans-38" d="M 3281 1228 
Q 3281 619 2893 278 
Q 2506 -63 1781 -63 
Q 1075 -63 676 271 
Q 278 606 278 1222 
Q 278 1653 525 1947 
Q 772 2241 1156 2303 
L 1156 2316 
Q 797 2400 589 2681 
Q 381 2963 381 3341 
Q 381 3844 757 4156 
Q 1134 4469 1769 4469 
Q 2419 4469 2795 4162 
Q 3172 3856 3172 3334 
Q 3172 2956 2962 2675 
Q 2753 2394 2391 2322 
L 2391 2309 
Q 2813 2241 3047 1952 
Q 3281 1663 3281 1228 
z
M 2588 3303 
Q 2588 4050 1769 4050 
Q 1372 4050 1164 3862 
Q 956 3675 956 3303 
Q 956 2925 1170 2726 
Q 1384 2528 1775 2528 
Q 2172 2528 2380 2711 
Q 2588 2894 2588 3303 
z
M 2697 1281 
Q 2697 1691 2453 1898 
Q 2209 2106 1769 2106 
Q 1341 2106 1100 1882 
Q 859 1659 859 1269 
Q 859 359 1788 359 
Q 2247 359 2472 579 
Q 2697 800 2697 1281 
z
" transform="scale(0.015625)"/>
       </defs>
       <use xlink:href="#LiberationSans-37"/>
       <use xlink:href="#LiberationSans-30" x="55.615234"/>
       <use xlink:href="#LiberationSans-2d" x="111.230469"/>
       <use xlink:href="#LiberationSans-38" x="144.53125"/>
       <use xlink:href="#LiberationSans-30" x="200.146484"/>
      </g>
     </g>
    </g>
    <g id="xtick_9">
     <g id="line2d_9"/>
     <g id="text_9">
      <!-- 80-90 -->
      <g style="fill: #262626" transform="translate(480.813281 360.746875)scale(0.1 -0.1)">
       <defs>
        <path id="LiberationSans-39" d="M 3256 2291 
Q 3256 1156 2842 546 
Q 2428 -63 1663 -63 
Q 1147 -63 836 154 
Q 525 372 391 856 
L 928 941 
Q 1097 391 1672 391 
Q 2156 391 2422 841 
Q 2688 1291 2700 2125 
Q 2575 1844 2272 1673 
Q 1969 1503 1606 1503 
Q 1013 1503 656 1909 
Q 300 2316 300 2988 
Q 300 3678 687 4073 
Q 1075 4469 1766 4469 
Q 2500 4469 2878 3925 
Q 3256 3381 3256 2291 
z
M 2644 2834 
Q 2644 3366 2400 3689 
Q 2156 4013 1747 4013 
Q 1341 4013 1106 3736 
Q 872 3459 872 2988 
Q 872 2506 1106 2226 
Q 1341 1947 1741 1947 
Q 1984 1947 2193 2058 
Q 2403 2169 2523 2372 
Q 2644 2575 2644 2834 
z
" transform="scale(0.015625)"/>
       </defs>
       <use xlink:href="#LiberationSans-38"/>
       <use xlink:href="#LiberationSans-30" x="55.615234"/>
       <use xlink:href="#LiberationSans-2d" x="111.230469"/>
       <use xlink:href="#LiberationSans-39" x="144.53125"/>
       <use xlink:href="#LiberationSans-30" x="200.146484"/>
      </g>
     </g>
    </g>
    <g id="text_10">
     <!-- Slope (degrees) -->
     <g style="fill: #262626" transform="translate(256.069219 374.793437)scale(0.11 -0.11)">
      <defs>
       <path id="LiberationSans-53" d="M 3975 1216 
Q 3975 606 3498 271 
Q 3022 -63 2156 -63 
Q 547 -63 291 1056 
L 869 1172 
Q 969 775 1294 589 
Q 1619 403 2178 403 
Q 2756 403 3070 601 
Q 3384 800 3384 1184 
Q 3384 1400 3286 1534 
Q 3188 1669 3009 1756 
Q 2831 1844 2584 1903 
Q 2338 1963 2038 2031 
Q 1516 2147 1245 2262 
Q 975 2378 819 2520 
Q 663 2663 580 2853 
Q 497 3044 497 3291 
Q 497 3856 930 4162 
Q 1363 4469 2169 4469 
Q 2919 4469 3316 4239 
Q 3713 4009 3872 3456 
L 3284 3353 
Q 3188 3703 2916 3861 
Q 2644 4019 2163 4019 
Q 1634 4019 1356 3844 
Q 1078 3669 1078 3322 
Q 1078 3119 1186 2986 
Q 1294 2853 1497 2761 
Q 1700 2669 2306 2534 
Q 2509 2488 2711 2439 
Q 2913 2391 3097 2323 
Q 3281 2256 3442 2165 
Q 3603 2075 3722 1944 
Q 3841 1813 3908 1634 
Q 3975 1456 3975 1216 
z
" transform="scale(0.015625)"/>
       <path id="LiberationSans-6c" d="M 431 0 
L 431 4638 
L 994 4638 
L 994 0 
L 431 0 
z
" transform="scale(0.015625)"/>
       <path id="LiberationSans-6f" d="M 3291 1694 
Q 3291 806 2900 371 
Q 2509 -63 1766 -63 
Q 1025 -63 647 389 
Q 269 841 269 1694 
Q 269 3444 1784 3444 
Q 2559 3444 2925 3017 
Q 3291 2591 3291 1694 
z
M 2700 1694 
Q 2700 2394 2492 2711 
Q 2284 3028 1794 3028 
Q 1300 3028 1079 2704 
Q 859 2381 859 1694 
Q 859 1025 1076 689 
Q 1294 353 1759 353 
Q 2266 353 2483 678 
Q 2700 1003 2700 1694 
z
" transform="scale(0.015625)"/>
       <path id="LiberationSans-70" d="M 3291 1706 
Q 3291 -63 2047 -63 
Q 1266 -63 997 525 
L 981 525 
Q 994 500 994 -6 
L 994 -1328 
L 431 -1328 
L 431 2691 
Q 431 3213 413 3381 
L 956 3381 
Q 959 3369 965 3292 
Q 972 3216 980 3056 
Q 988 2897 988 2838 
L 1000 2838 
Q 1150 3150 1397 3295 
Q 1644 3441 2047 3441 
Q 2672 3441 2981 3022 
Q 3291 2603 3291 1706 
z
M 2700 1694 
Q 2700 2400 2509 2703 
Q 2319 3006 1903 3006 
Q 1569 3006 1380 2865 
Q 1191 2725 1092 2426 
Q 994 2128 994 1650 
Q 994 984 1206 668 
Q 1419 353 1897 353 
Q 2316 353 2508 661 
Q 2700 969 2700 1694 
z
" transform="scale(0.015625)"/>
       <path id="LiberationSans-65" d="M 863 1572 
Q 863 991 1103 675 
Q 1344 359 1806 359 
Q 2172 359 2392 506 
Q 2613 653 2691 878 
L 3184 738 
Q 2881 -63 1806 -63 
Q 1056 -63 664 384 
Q 272 831 272 1713 
Q 272 2550 664 2997 
Q 1056 3444 1784 3444 
Q 3275 3444 3275 1647 
L 3275 1572 
L 863 1572 
z
M 2694 2003 
Q 2647 2538 2422 2783 
Q 2197 3028 1775 3028 
Q 1366 3028 1127 2754 
Q 888 2481 869 2003 
L 2694 2003 
z
" transform="scale(0.015625)"/>
       <path id="LiberationSans-20" transform="scale(0.015625)"/>
       <path id="LiberationSans-28" d="M 397 1663 
Q 397 2566 680 3284 
Q 963 4003 1550 4638 
L 2094 4638 
Q 1509 3988 1236 3256 
Q 963 2525 963 1656 
Q 963 791 1233 62 
Q 1503 -666 2094 -1325 
L 1550 -1325 
Q 959 -688 678 32 
Q 397 753 397 1650 
L 397 1663 
z
" transform="scale(0.015625)"/>
       <path id="LiberationSans-64" d="M 2566 544 
Q 2409 219 2151 78 
Q 1894 -63 1513 -63 
Q 872 -63 570 368 
Q 269 800 269 1675 
Q 269 3444 1513 3444 
Q 1897 3444 2153 3303 
Q 2409 3163 2566 2856 
L 2572 2856 
L 2566 3234 
L 2566 4638 
L 3128 4638 
L 3128 697 
Q 3128 169 3147 0 
L 2609 0 
Q 2600 50 2589 231 
Q 2578 413 2578 544 
L 2566 544 
z
M 859 1694 
Q 859 984 1046 678 
Q 1234 372 1656 372 
Q 2134 372 2350 703 
Q 2566 1034 2566 1731 
Q 2566 2403 2350 2715 
Q 2134 3028 1663 3028 
Q 1238 3028 1048 2714 
Q 859 2400 859 1694 
z
" transform="scale(0.015625)"/>
       <path id="LiberationSans-67" d="M 1713 -1328 
Q 1159 -1328 831 -1111 
Q 503 -894 409 -494 
L 975 -413 
Q 1031 -647 1223 -773 
Q 1416 -900 1728 -900 
Q 2569 -900 2569 84 
L 2569 628 
L 2563 628 
Q 2403 303 2125 139 
Q 1847 -25 1475 -25 
Q 853 -25 561 387 
Q 269 800 269 1684 
Q 269 2581 583 3007 
Q 897 3434 1538 3434 
Q 1897 3434 2161 3270 
Q 2425 3106 2569 2803 
L 2575 2803 
Q 2575 2897 2587 3128 
Q 2600 3359 2613 3381 
L 3147 3381 
Q 3128 3213 3128 2681 
L 3128 97 
Q 3128 -1328 1713 -1328 
z
M 2569 1691 
Q 2569 2103 2456 2401 
Q 2344 2700 2139 2858 
Q 1934 3016 1675 3016 
Q 1244 3016 1047 2703 
Q 850 2391 850 1691 
Q 850 997 1034 694 
Q 1219 391 1666 391 
Q 1931 391 2137 547 
Q 2344 703 2456 995 
Q 2569 1288 2569 1691 
z
" transform="scale(0.015625)"/>
       <path id="LiberationSans-72" d="M 444 0 
L 444 2594 
Q 444 2950 425 3381 
L 956 3381 
Q 981 2806 981 2691 
L 994 2691 
Q 1128 3125 1303 3284 
Q 1478 3444 1797 3444 
Q 1909 3444 2025 3413 
L 2025 2897 
Q 1913 2928 1725 2928 
Q 1375 2928 1190 2626 
Q 1006 2325 1006 1763 
L 1006 0 
L 444 0 
z
" transform="scale(0.015625)"/>
       <path id="LiberationSans-73" d="M 2969 934 
Q 2969 456 2608 196 
Q 2247 -63 1597 -63 
Q 966 -63 623 145 
Q 281 353 178 794 
L 675 891 
Q 747 619 972 492 
Q 1197 366 1597 366 
Q 2025 366 2223 497 
Q 2422 628 2422 891 
Q 2422 1091 2284 1216 
Q 2147 1341 1841 1422 
L 1438 1528 
Q 953 1653 748 1773 
Q 544 1894 428 2066 
Q 313 2238 313 2488 
Q 313 2950 642 3192 
Q 972 3434 1603 3434 
Q 2163 3434 2492 3237 
Q 2822 3041 2909 2606 
L 2403 2544 
Q 2356 2769 2151 2889 
Q 1947 3009 1603 3009 
Q 1222 3009 1040 2893 
Q 859 2778 859 2544 
Q 859 2400 934 2306 
Q 1009 2213 1156 2147 
Q 1303 2081 1775 1966 
Q 2222 1853 2419 1758 
Q 2616 1663 2730 1547 
Q 2844 1431 2906 1279 
Q 2969 1128 2969 934 
z
" transform="scale(0.015625)"/>
       <path id="LiberationSans-29" d="M 1734 1650 
Q 1734 747 1451 28 
Q 1169 -691 581 -1325 
L 38 -1325 
Q 625 -669 897 57 
Q 1169 784 1169 1656 
Q 1169 2528 895 3256 
Q 622 3984 38 4638 
L 581 4638 
Q 1172 4000 1453 3279 
Q 1734 2559 1734 1663 
L 1734 1650 
z
" transform="scale(0.015625)"/>
      </defs>
      <use xlink:href="#LiberationSans-53"/>
      <use xlink:href="#LiberationSans-6c" x="66.699219"/>
      <use xlink:href="#LiberationSans-6f" x="88.916016"/>
      <use xlink:href="#LiberationSans-70" x="144.53125"/>
      <use xlink:href="#LiberationSans-65" x="200.146484"/>
      <use xlink:href="#LiberationSans-20" x="255.761719"/>
      <use xlink:href="#LiberationSans-28" x="283.544922"/>
      <use xlink:href="#LiberationSans-64" x="316.845703"/>
      <use xlink:href="#LiberationSans-65" x="372.460938"/>
      <use xlink:href="#LiberationSans-67" x="428.076172"/>
      <use xlink:href="#LiberationSans-72" x="483.691406"/>
      <use xlink:href="#LiberationSans-65" x="516.992188"/>
      <use xlink:href="#LiberationSans-65" x="572.607422"/>
      <use xlink:href="#LiberationSans-73" x="628.222656"/>
      <use xlink:href="#LiberationSans-29" x="678.222656"/>
     </g>
    </g>
   </g>
   <g id="matplotlib.axis_2">
    <g id="ytick_1">
     <g id="line2d_10">
      <path d="M 72 323.830625 
L 518.4 323.830625 
" clip-path="url(#p25c15838a0)" style="fill: none; stroke: #cccccc; stroke-linecap: round"/>
     </g>
     <g id="line2d_11"/>
     <g id="text_11">
      <!-- 0 -->
      <g style="fill: #262626" transform="translate(59.439062 327.454063)scale(0.1 -0.1)">
       <use xlink:href="#LiberationSans-30"/>
      </g>
     </g>
    </g>
    <g id="ytick_2">
     <g id="line2d_12">
      <path d="M 72 273.707901 
L 518.4 273.707901 
" clip-path="url(#p25c15838a0)" style="fill: none; stroke: #cccccc; stroke-linecap: round"/>
     </g>
     <g id="line2d_13"/>
     <g id="text_12">
      <!-- 2 -->
      <g style="fill: #262626" transform="translate(59.439062 277.331338)scale(0.1 -0.1)">
       <use xlink:href="#LiberationSans-32"/>
      </g>
     </g>
    </g>
    <g id="ytick_3">
     <g id="line2d_14">
      <path d="M 72 223.585176 
L 518.4 223.585176 
" clip-path="url(#p25c15838a0)" style="fill: none; stroke: #cccccc; stroke-linecap: round"/>
     </g>
     <g id="line2d_15"/>
     <g id="text_13">
      <!-- 4 -->
      <g style="fill: #262626" transform="translate(59.439062 227.208613)scale(0.1 -0.1)">
       <use xlink:href="#LiberationSans-34"/>
      </g>
     </g>
    </g>
    <g id="ytick_4">
     <g id="line2d_16">
      <path d="M 72 173.462451 
L 518.4 173.462451 
" clip-path="url(#p25c15838a0)" style="fill: none; stroke: #cccccc; stroke-linecap: round"/>
     </g>
     <g id="line2d_17"/>
     <g id="text_14">
      <!-- 6 -->
      <g style="fill: #262626" transform="translate(59.439062 177.085889)scale(0.1 -0.1)">
       <use xlink:href="#LiberationSans-36"/>
      </g>
     </g>
    </g>
    <g id="ytick_5">
     <g id="line2d_18">
      <path d="M 72 123.339726 
L 518.4 123.339726 
" clip-path="url(#p25c15838a0)" style="fill: none; stroke: #cccccc; stroke-linecap: round"/>
     </g>
     <g id="line2d_19"/>
     <g id="text_15">
      <!-- 8 -->
      <g style="fill: #262626" transform="translate(59.439062 126.963164)scale(0.1 -0.1)">
       <use xlink:href="#LiberationSans-38"/>
      </g>
     </g>
    </g>
    <g id="ytick_6">
     <g id="line2d_20">
      <path d="M 72 73.217002 
L 518.4 73.217002 
" clip-path="url(#p25c15838a0)" style="fill: none; stroke: #cccccc; stroke-linecap: round"/>
     </g>
     <g id="line2d_21"/>
     <g id="text_16">
      <!-- 10 -->
      <g style="fill: #262626" transform="translate(53.878125 76.840439)scale(0.1 -0.1)">
       <use xlink:href="#LiberationSans-31"/>
       <use xlink:href="#LiberationSans-30" x="55.615234"/>
      </g>
     </g>
    </g>
    <g id="text_17">
     <!-- VE / VF -->
     <g style="fill: #262626" transform="translate(47.595625 215.959219)rotate(-90)scale(0.11 -0.11)">
      <defs>
       <path id="LiberationSans-56" d="M 2444 0 
L 1825 0 
L 28 4403 
L 656 4403 
L 1875 1303 
L 2138 525 
L 2400 1303 
L 3613 4403 
L 4241 4403 
L 2444 0 
z
" transform="scale(0.015625)"/>
       <path id="LiberationSans-45" d="M 525 0 
L 525 4403 
L 3866 4403 
L 3866 3916 
L 1122 3916 
L 1122 2503 
L 3678 2503 
L 3678 2022 
L 1122 2022 
L 1122 488 
L 3994 488 
L 3994 0 
L 525 0 
z
" transform="scale(0.015625)"/>
       <path id="LiberationSans-2f" d="M 0 -63 
L 1284 4638 
L 1778 4638 
L 506 -63 
L 0 -63 
z
" transform="scale(0.015625)"/>
       <path id="LiberationSans-46" d="M 1122 3916 
L 1122 2278 
L 3578 2278 
L 3578 1784 
L 1122 1784 
L 1122 0 
L 525 0 
L 525 4403 
L 3653 4403 
L 3653 3916 
L 1122 3916 
z
" transform="scale(0.015625)"/>
      </defs>
      <use xlink:href="#LiberationSans-56"/>
      <use xlink:href="#LiberationSans-45" x="66.699219"/>
      <use xlink:href="#LiberationSans-20" x="133.398438"/>
      <use xlink:href="#LiberationSans-2f" x="161.181641"/>
      <use xlink:href="#LiberationSans-20" x="188.964844"/>
      <use xlink:href="#LiberationSans-56" x="216.748047"/>
      <use xlink:href="#LiberationSans-46" x="283.447266"/>
     </g>
    </g>
   </g>
   <g id="PolyCollection_1">
    <defs>
     <path id="m2311249933" d="M 96.810149 -63.09 
L 96.789851 -63.09 
L 96.770268 -65.835455 
L 96.724391 -68.580909 
L 96.632279 -71.326364 
L 96.473782 -74.071818 
L 96.240661 -76.817273 
L 95.9497 -79.562727 
L 95.646643 -82.308182 
L 95.393506 -85.053636 
L 95.243183 -87.799091 
L 95.216438 -90.544545 
L 95.296023 -93.29 
L 95.439876 -96.035455 
L 95.60233 -98.780909 
L 95.750163 -101.526364 
L 95.867958 -104.271818 
L 95.955162 -107.017273 
L 96.019653 -109.762727 
L 96.071196 -112.508182 
L 96.116836 -115.253636 
L 96.159495 -117.999091 
L 96.199528 -120.744545 
L 96.237138 -123.49 
L 96.273384 -126.235455 
L 96.309415 -128.980909 
L 96.345393 -131.726364 
L 96.380432 -134.471818 
L 96.41329 -137.217273 
L 96.44286 -139.962727 
L 96.468428 -142.708182 
L 96.490188 -145.453636 
L 96.509746 -148.199091 
L 96.529647 -150.944545 
L 96.551829 -153.69 
L 96.576305 -156.435455 
L 96.6013 -159.180909 
L 96.624556 -161.926364 
L 96.64451 -164.671818 
L 96.660587 -167.417273 
L 96.672982 -170.162727 
L 96.682466 -172.908182 
L 96.69018 -175.653636 
L 96.697233 -178.399091 
L 96.704279 -181.144545 
L 96.711425 -183.89 
L 96.718494 -186.635455 
L 96.725314 -189.380909 
L 96.731846 -192.126364 
L 96.73813 -194.871818 
L 96.744163 -197.617273 
L 96.749746 -200.362727 
L 96.75445 -203.108182 
L 96.757821 -205.853636 
L 96.759732 -208.599091 
L 96.760542 -211.344545 
L 96.760899 -214.09 
L 96.761372 -216.835455 
L 96.762287 -219.580909 
L 96.763765 -222.326364 
L 96.765794 -225.071818 
L 96.768222 -227.817273 
L 96.770764 -230.562727 
L 96.7731 -233.308182 
L 96.77499 -236.053636 
L 96.776338 -238.799091 
L 96.777184 -241.544545 
L 96.777641 -244.29 
L 96.777757 -247.035455 
L 96.777419 -249.780909 
L 96.77643 -252.526364 
L 96.774779 -255.271818 
L 96.772822 -258.017273 
L 96.771172 -260.762727 
L 96.770324 -263.508182 
L 96.77038 -266.253636 
L 96.771089 -268.999091 
L 96.772122 -271.744545 
L 96.773304 -274.49 
L 96.77462 -277.235455 
L 96.776094 -279.980909 
L 96.77769 -282.726364 
L 96.779301 -285.471818 
L 96.780767 -288.217273 
L 96.781966 -290.962727 
L 96.782908 -293.708182 
L 96.78371 -296.453636 
L 96.784458 -299.199091 
L 96.785121 -301.944545 
L 96.785662 -304.69 
L 96.786185 -307.435455 
L 96.786927 -310.180909 
L 96.788086 -312.926364 
L 96.789701 -315.671818 
L 96.791654 -318.417273 
L 96.793735 -321.162727 
L 96.795709 -323.908182 
L 96.797363 -326.653636 
L 96.798569 -329.399091 
L 96.799324 -332.144545 
L 96.799724 -334.89 
L 96.800276 -334.89 
L 96.800276 -334.89 
L 96.800676 -332.144545 
L 96.801431 -329.399091 
L 96.802637 -326.653636 
L 96.804291 -323.908182 
L 96.806265 -321.162727 
L 96.808346 -318.417273 
L 96.810299 -315.671818 
L 96.811914 -312.926364 
L 96.813073 -310.180909 
L 96.813815 -307.435455 
L 96.814338 -304.69 
L 96.814879 -301.944545 
L 96.815542 -299.199091 
L 96.81629 -296.453636 
L 96.817092 -293.708182 
L 96.818034 -290.962727 
L 96.819233 -288.217273 
L 96.820699 -285.471818 
L 96.82231 -282.726364 
L 96.823906 -279.980909 
L 96.82538 -277.235455 
L 96.826696 -274.49 
L 96.827878 -271.744545 
L 96.828911 -268.999091 
L 96.82962 -266.253636 
L 96.829676 -263.508182 
L 96.828828 -260.762727 
L 96.827178 -258.017273 
L 96.825221 -255.271818 
L 96.82357 -252.526364 
L 96.822581 -249.780909 
L 96.822243 -247.035455 
L 96.822359 -244.29 
L 96.822816 -241.544545 
L 96.823662 -238.799091 
L 96.82501 -236.053636 
L 96.8269 -233.308182 
L 96.829236 -230.562727 
L 96.831778 -227.817273 
L 96.834206 -225.071818 
L 96.836235 -222.326364 
L 96.837713 -219.580909 
L 96.838628 -216.835455 
L 96.839101 -214.09 
L 96.839458 -211.344545 
L 96.840268 -208.599091 
L 96.842179 -205.853636 
L 96.84555 -203.108182 
L 96.850254 -200.362727 
L 96.855837 -197.617273 
L 96.86187 -194.871818 
L 96.868154 -192.126364 
L 96.874686 -189.380909 
L 96.881506 -186.635455 
L 96.888575 -183.89 
L 96.895721 -181.144545 
L 96.902767 -178.399091 
L 96.90982 -175.653636 
L 96.917534 -172.908182 
L 96.927018 -170.162727 
L 96.939413 -167.417273 
L 96.95549 -164.671818 
L 96.975444 -161.926364 
L 96.9987 -159.180909 
L 97.023695 -156.435455 
L 97.048171 -153.69 
L 97.070353 -150.944545 
L 97.090254 -148.199091 
L 97.109812 -145.453636 
L 97.131572 -142.708182 
L 97.15714 -139.962727 
L 97.18671 -137.217273 
L 97.219568 -134.471818 
L 97.254607 -131.726364 
L 97.290585 -128.980909 
L 97.326616 -126.235455 
L 97.362862 -123.49 
L 97.400472 -120.744545 
L 97.440505 -117.999091 
L 97.483164 -115.253636 
L 97.528804 -112.508182 
L 97.580347 -109.762727 
L 97.644838 -107.017273 
L 97.732042 -104.271818 
L 97.849837 -101.526364 
L 97.99767 -98.780909 
L 98.160124 -96.035455 
L 98.303977 -93.29 
L 98.383562 -90.544545 
L 98.356817 -87.799091 
L 98.206494 -85.053636 
L 97.953357 -82.308182 
L 97.6503 -79.562727 
L 97.359339 -76.817273 
L 97.126218 -74.071818 
L 96.967721 -71.326364 
L 96.875609 -68.580909 
L 96.829732 -65.835455 
L 96.810149 -63.09 
z
" style="stroke: #464646; stroke-width: 1.75"/>
    </defs>
    <g clip-path="url(#p25c15838a0)">
     <use xlink:href="#m2311249933" x="0" y="396" style="fill: #ea96a3; stroke: #464646; stroke-width: 1.75"/>
    </g>
   </g>
   <g id="PolyCollection_2">
    <defs>
     <path id="mb4c2285db3" d="M 146.400499 -70.936873 
L 146.399501 -70.936873 
L 146.38882 -73.476061 
L 146.308356 -76.01525 
L 146.080748 -78.554438 
L 145.695398 -81.093627 
L 144.930339 -83.632816 
L 143.282553 -86.172004 
L 140.338822 -88.711193 
L 136.814196 -91.250381 
L 134.274743 -93.78957 
L 133.6132 -96.328758 
L 134.774815 -98.867947 
L 136.740938 -101.407136 
L 138.630005 -103.946324 
L 140.068907 -106.485513 
L 141.162661 -109.024701 
L 142.121275 -111.56389 
L 142.906503 -114.103078 
L 143.410042 -116.642267 
L 143.773016 -119.181456 
L 144.14057 -121.720644 
L 144.531284 -124.259833 
L 144.883877 -126.799021 
L 145.083139 -129.33821 
L 145.245934 -131.877398 
L 145.433675 -134.416587 
L 145.561501 -136.955776 
L 145.697526 -139.494964 
L 145.815347 -142.034153 
L 145.924488 -144.573341 
L 146.005538 -147.11253 
L 146.060144 -149.651718 
L 146.103663 -152.190907 
L 146.157615 -154.730096 
L 146.202362 -157.269284 
L 146.22672 -159.808473 
L 146.242526 -162.347661 
L 146.273318 -164.88685 
L 146.280437 -167.426038 
L 146.293068 -169.965227 
L 146.315051 -172.504416 
L 146.321194 -175.043604 
L 146.336314 -177.582793 
L 146.347037 -180.121981 
L 146.343734 -182.66117 
L 146.354458 -185.200358 
L 146.358231 -187.739547 
L 146.356103 -190.278736 
L 146.361183 -192.817924 
L 146.361513 -195.357113 
L 146.362843 -197.896301 
L 146.375747 -200.43549 
L 146.382735 -202.974678 
L 146.381166 -205.513867 
L 146.378442 -208.053056 
L 146.378866 -210.592244 
L 146.383789 -213.131433 
L 146.389465 -215.670621 
L 146.393017 -218.20981 
L 146.391342 -220.748998 
L 146.388201 -223.288187 
L 146.382812 -225.827376 
L 146.385557 -228.366564 
L 146.391029 -230.905753 
L 146.394096 -233.444941 
L 146.393134 -235.98413 
L 146.393382 -238.523318 
L 146.395993 -241.062507 
L 146.395334 -243.601696 
L 146.395423 -246.140884 
L 146.397148 -248.680073 
L 146.397915 -251.219261 
L 146.394084 -253.75845 
L 146.394611 -256.297638 
L 146.397387 -258.836827 
L 146.398894 -261.376016 
L 146.39987 -263.915204 
L 146.399998 -266.454393 
L 146.4 -268.993581 
L 146.399996 -271.53277 
L 146.399838 -274.071958 
L 146.399044 -276.611147 
L 146.398714 -279.150336 
L 146.398975 -281.689524 
L 146.399795 -284.228713 
L 146.399963 -286.767901 
L 146.399519 -289.30709 
L 146.398988 -291.846278 
L 146.399712 -294.385467 
L 146.3999 -296.924656 
L 146.399251 -299.463844 
L 146.39915 -302.003033 
L 146.39987 -304.542221 
L 146.399934 -307.08141 
L 146.39934 -309.620598 
L 146.399079 -312.159787 
L 146.399746 -314.698976 
L 146.399268 -317.238164 
L 146.399132 -319.777353 
L 146.399861 -322.316541 
L 146.400139 -322.316541 
L 146.400139 -322.316541 
L 146.400868 -319.777353 
L 146.400732 -317.238164 
L 146.400254 -314.698976 
L 146.400921 -312.159787 
L 146.40066 -309.620598 
L 146.400066 -307.08141 
L 146.40013 -304.542221 
L 146.40085 -302.003033 
L 146.400749 -299.463844 
L 146.4001 -296.924656 
L 146.400288 -294.385467 
L 146.401012 -291.846278 
L 146.400481 -289.30709 
L 146.400037 -286.767901 
L 146.400205 -284.228713 
L 146.401025 -281.689524 
L 146.401286 -279.150336 
L 146.400956 -276.611147 
L 146.400162 -274.071958 
L 146.400004 -271.53277 
L 146.4 -268.993581 
L 146.400002 -266.454393 
L 146.40013 -263.915204 
L 146.401106 -261.376016 
L 146.402613 -258.836827 
L 146.405389 -256.297638 
L 146.405916 -253.75845 
L 146.402085 -251.219261 
L 146.402852 -248.680073 
L 146.404577 -246.140884 
L 146.404666 -243.601696 
L 146.404007 -241.062507 
L 146.406618 -238.523318 
L 146.406866 -235.98413 
L 146.405904 -233.444941 
L 146.408971 -230.905753 
L 146.414443 -228.366564 
L 146.417188 -225.827376 
L 146.411799 -223.288187 
L 146.408658 -220.748998 
L 146.406983 -218.20981 
L 146.410535 -215.670621 
L 146.416211 -213.131433 
L 146.421134 -210.592244 
L 146.421558 -208.053056 
L 146.418834 -205.513867 
L 146.417265 -202.974678 
L 146.424253 -200.43549 
L 146.437157 -197.896301 
L 146.438487 -195.357113 
L 146.438817 -192.817924 
L 146.443897 -190.278736 
L 146.441769 -187.739547 
L 146.445542 -185.200358 
L 146.456266 -182.66117 
L 146.452963 -180.121981 
L 146.463686 -177.582793 
L 146.478806 -175.043604 
L 146.484949 -172.504416 
L 146.506932 -169.965227 
L 146.519563 -167.426038 
L 146.526682 -164.88685 
L 146.557474 -162.347661 
L 146.57328 -159.808473 
L 146.597638 -157.269284 
L 146.642385 -154.730096 
L 146.696337 -152.190907 
L 146.739856 -149.651718 
L 146.794462 -147.11253 
L 146.875512 -144.573341 
L 146.984653 -142.034153 
L 147.102474 -139.494964 
L 147.238499 -136.955776 
L 147.366325 -134.416587 
L 147.554066 -131.877398 
L 147.716861 -129.33821 
L 147.916123 -126.799021 
L 148.268716 -124.259833 
L 148.65943 -121.720644 
L 149.026984 -119.181456 
L 149.389958 -116.642267 
L 149.893497 -114.103078 
L 150.678725 -111.56389 
L 151.637339 -109.024701 
L 152.731093 -106.485513 
L 154.169995 -103.946324 
L 156.059062 -101.407136 
L 158.025185 -98.867947 
L 159.1868 -96.328758 
L 158.525257 -93.78957 
L 155.985804 -91.250381 
L 152.461178 -88.711193 
L 149.517447 -86.172004 
L 147.869661 -83.632816 
L 147.104602 -81.093627 
L 146.719252 -78.554438 
L 146.491644 -76.01525 
L 146.41118 -73.476061 
L 146.400499 -70.936873 
z
" style="stroke: #464646; stroke-width: 1.75"/>
    </defs>
    <g clip-path="url(#p25c15838a0)">
     <use xlink:href="#mb4c2285db3" x="0" y="396" style="fill: #d1964d; stroke: #464646; stroke-width: 1.75"/>
    </g>
   </g>
   <g id="PolyCollection_3">
    <defs>
     <path id="m14139dc69b" d="M 196.0008 -70.523779 
L 195.9992 -70.523779 
L 195.992169 -72.140959 
L 195.964421 -73.758138 
L 195.908091 -75.375318 
L 195.83935 -76.992498 
L 195.778399 -78.609677 
L 195.670957 -80.226857 
L 195.380095 -81.844037 
L 194.678041 -83.461216 
L 193.28236 -85.078396 
L 191.081584 -86.695575 
L 188.252894 -88.312755 
L 185.323451 -89.929935 
L 182.763434 -91.547114 
L 180.641209 -93.164294 
L 178.899239 -94.781473 
L 177.488752 -96.398653 
L 176.517826 -98.015833 
L 176.16 -99.633012 
L 176.429353 -101.250192 
L 177.103263 -102.867372 
L 178.168625 -104.484551 
L 179.505387 -106.101731 
L 180.806427 -107.71891 
L 181.995054 -109.33609 
L 183.166023 -110.95327 
L 184.38521 -112.570449 
L 185.529415 -114.187629 
L 186.550945 -115.804808 
L 187.559228 -117.421988 
L 188.504554 -119.039168 
L 189.313255 -120.656347 
L 189.977217 -122.273527 
L 190.540563 -123.890707 
L 191.10186 -125.507886 
L 191.726488 -127.125066 
L 192.299903 -128.742245 
L 192.739514 -130.359425 
L 193.112863 -131.976605 
L 193.455958 -133.593784 
L 193.785972 -135.210964 
L 194.082449 -136.828143 
L 194.319407 -138.445323 
L 194.485063 -140.062503 
L 194.653647 -141.679682 
L 194.844263 -143.296862 
L 195.022175 -144.914042 
L 195.167467 -146.531221 
L 195.298969 -148.148401 
L 195.401753 -149.76558 
L 195.463605 -151.38276 
L 195.525591 -152.99994 
L 195.583508 -154.617119 
L 195.624978 -156.234299 
L 195.651769 -157.851478 
L 195.680867 -159.468658 
L 195.710939 -161.085838 
L 195.736948 -162.703017 
L 195.755687 -164.320197 
L 195.766767 -165.937376 
L 195.774982 -167.554556 
L 195.783503 -169.171736 
L 195.814568 -170.788915 
L 195.845319 -172.406095 
L 195.846994 -174.023275 
L 195.842556 -175.640454 
L 195.844967 -177.257634 
L 195.859596 -178.874813 
L 195.873785 -180.491993 
L 195.882644 -182.109173 
L 195.8993 -183.726352 
L 195.918742 -185.343532 
L 195.927899 -186.960711 
L 195.931232 -188.577891 
L 195.934217 -190.195071 
L 195.938828 -191.81225 
L 195.944885 -193.42943 
L 195.94506 -195.04661 
L 195.952042 -196.663789 
L 195.962775 -198.280969 
L 195.967781 -199.898148 
L 195.972135 -201.515328 
L 195.97717 -203.132508 
L 195.98285 -204.749687 
L 195.987484 -206.366867 
L 195.988749 -207.984046 
L 195.990864 -209.601226 
L 195.98871 -211.218406 
L 195.985865 -212.835585 
L 195.986498 -214.452765 
L 195.987881 -216.069945 
L 195.989008 -217.687124 
L 195.988391 -219.304304 
L 195.990801 -220.921483 
L 195.996091 -222.538663 
L 195.999052 -224.155843 
L 195.999166 -225.773022 
L 195.998481 -227.390202 
L 195.999016 -229.007381 
L 195.999793 -230.624561 
L 196.000207 -230.624561 
L 196.000207 -230.624561 
L 196.000984 -229.007381 
L 196.001519 -227.390202 
L 196.000834 -225.773022 
L 196.000948 -224.155843 
L 196.003909 -222.538663 
L 196.009199 -220.921483 
L 196.011609 -219.304304 
L 196.010992 -217.687124 
L 196.012119 -216.069945 
L 196.013502 -214.452765 
L 196.014135 -212.835585 
L 196.01129 -211.218406 
L 196.009136 -209.601226 
L 196.011251 -207.984046 
L 196.012516 -206.366867 
L 196.01715 -204.749687 
L 196.02283 -203.132508 
L 196.027865 -201.515328 
L 196.032219 -199.898148 
L 196.037225 -198.280969 
L 196.047958 -196.663789 
L 196.05494 -195.04661 
L 196.055115 -193.42943 
L 196.061172 -191.81225 
L 196.065783 -190.195071 
L 196.068768 -188.577891 
L 196.072101 -186.960711 
L 196.081258 -185.343532 
L 196.1007 -183.726352 
L 196.117356 -182.109173 
L 196.126215 -180.491993 
L 196.140404 -178.874813 
L 196.155033 -177.257634 
L 196.157444 -175.640454 
L 196.153006 -174.023275 
L 196.154681 -172.406095 
L 196.185432 -170.788915 
L 196.216497 -169.171736 
L 196.225018 -167.554556 
L 196.233233 -165.937376 
L 196.244313 -164.320197 
L 196.263052 -162.703017 
L 196.289061 -161.085838 
L 196.319133 -159.468658 
L 196.348231 -157.851478 
L 196.375022 -156.234299 
L 196.416492 -154.617119 
L 196.474409 -152.99994 
L 196.536395 -151.38276 
L 196.598247 -149.76558 
L 196.701031 -148.148401 
L 196.832533 -146.531221 
L 196.977825 -144.914042 
L 197.155737 -143.296862 
L 197.346353 -141.679682 
L 197.514937 -140.062503 
L 197.680593 -138.445323 
L 197.917551 -136.828143 
L 198.214028 -135.210964 
L 198.544042 -133.593784 
L 198.887137 -131.976605 
L 199.260486 -130.359425 
L 199.700097 -128.742245 
L 200.273512 -127.125066 
L 200.89814 -125.507886 
L 201.459437 -123.890707 
L 202.022783 -122.273527 
L 202.686745 -120.656347 
L 203.495446 -119.039168 
L 204.440772 -117.421988 
L 205.449055 -115.804808 
L 206.470585 -114.187629 
L 207.61479 -112.570449 
L 208.833977 -110.95327 
L 210.004946 -109.33609 
L 211.193573 -107.71891 
L 212.494613 -106.101731 
L 213.831375 -104.484551 
L 214.896737 -102.867372 
L 215.570647 -101.250192 
L 215.84 -99.633012 
L 215.482174 -98.015833 
L 214.511248 -96.398653 
L 213.100761 -94.781473 
L 211.358791 -93.164294 
L 209.236566 -91.547114 
L 206.676549 -89.929935 
L 203.747106 -88.312755 
L 200.918416 -86.695575 
L 198.71764 -85.078396 
L 197.321959 -83.461216 
L 196.619905 -81.844037 
L 196.329043 -80.226857 
L 196.221601 -78.609677 
L 196.16065 -76.992498 
L 196.091909 -75.375318 
L 196.035579 -73.758138 
L 196.007831 -72.140959 
L 196.0008 -70.523779 
z
" style="stroke: #464646; stroke-width: 1.75"/>
    </defs>
    <g clip-path="url(#p25c15838a0)">
     <use xlink:href="#m14139dc69b" x="0" y="396" style="fill: #a29f46; stroke: #464646; stroke-width: 1.75"/>
    </g>
   </g>
   <g id="PolyCollection_4">
    <defs>
     <path id="m551daaff55" d="M 245.6007 -69.761782 
L 245.5993 -69.761782 
L 245.596849 -71.205615 
L 245.59026 -72.649447 
L 245.577935 -74.09328 
L 245.560201 -75.537112 
L 245.538387 -76.980945 
L 245.51264 -78.424777 
L 245.476333 -79.86861 
L 245.411324 -81.312442 
L 245.284455 -82.756275 
L 245.032291 -84.200107 
L 244.565455 -85.64394 
L 243.834793 -87.087773 
L 242.905858 -88.531605 
L 241.945201 -89.975438 
L 241.10364 -91.41927 
L 240.424916 -92.863103 
L 239.87758 -94.306935 
L 239.431192 -95.750768 
L 239.083788 -97.1946 
L 238.819181 -98.638433 
L 238.585982 -100.082265 
L 238.356478 -101.526098 
L 238.128789 -102.969931 
L 237.888993 -104.413763 
L 237.637208 -105.857596 
L 237.389523 -107.301428 
L 237.157151 -108.745261 
L 236.976835 -110.189093 
L 236.921709 -111.632926 
L 237.029264 -113.076758 
L 237.262084 -114.520591 
L 237.554648 -115.964423 
L 237.854238 -117.408256 
L 238.151816 -118.852089 
L 238.472426 -120.295921 
L 238.821256 -121.739754 
L 239.190078 -123.183586 
L 239.585388 -124.627419 
L 240.009115 -126.071251 
L 240.440118 -127.515084 
L 240.8608 -128.958916 
L 241.270223 -130.402749 
L 241.661388 -131.846581 
L 242.029531 -133.290414 
L 242.385476 -134.734246 
L 242.733316 -136.178079 
L 243.061067 -137.621912 
L 243.351077 -139.065744 
L 243.59842 -140.509577 
L 243.817677 -141.953409 
L 244.0176 -143.397242 
L 244.19182 -144.841074 
L 244.339763 -146.284907 
L 244.469728 -147.728739 
L 244.586587 -149.172572 
L 244.69226 -150.616404 
L 244.789929 -152.060237 
L 244.878834 -153.50407 
L 244.956855 -154.947902 
L 245.028612 -156.391735 
L 245.094268 -157.835567 
L 245.145502 -159.2794 
L 245.178894 -160.723232 
L 245.201917 -162.167065 
L 245.22837 -163.610897 
L 245.261945 -165.05473 
L 245.293985 -166.498562 
L 245.318408 -167.942395 
L 245.333518 -169.386228 
L 245.341582 -170.83006 
L 245.353273 -172.273893 
L 245.376052 -173.717725 
L 245.40356 -175.161558 
L 245.426603 -176.60539 
L 245.443684 -178.049223 
L 245.459006 -179.493055 
L 245.477108 -180.936888 
L 245.495719 -182.38072 
L 245.50839 -183.824553 
L 245.516248 -185.268385 
L 245.525402 -186.712218 
L 245.536228 -188.156051 
L 245.545961 -189.599883 
L 245.554173 -191.043716 
L 245.560866 -192.487548 
L 245.565652 -193.931381 
L 245.569602 -195.375213 
L 245.57421 -196.819046 
L 245.579063 -198.262878 
L 245.583098 -199.706711 
L 245.586413 -201.150543 
L 245.589445 -202.594376 
L 245.591951 -204.038209 
L 245.593229 -205.482041 
L 245.593612 -206.925874 
L 245.594598 -208.369706 
L 245.596626 -209.813539 
L 245.598577 -211.257371 
L 245.599612 -212.701204 
L 245.600388 -212.701204 
L 245.600388 -212.701204 
L 245.601423 -211.257371 
L 245.603374 -209.813539 
L 245.605402 -208.369706 
L 245.606388 -206.925874 
L 245.606771 -205.482041 
L 245.608049 -204.038209 
L 245.610555 -202.594376 
L 245.613587 -201.150543 
L 245.616902 -199.706711 
L 245.620937 -198.262878 
L 245.62579 -196.819046 
L 245.630398 -195.375213 
L 245.634348 -193.931381 
L 245.639134 -192.487548 
L 245.645827 -191.043716 
L 245.654039 -189.599883 
L 245.663772 -188.156051 
L 245.674598 -186.712218 
L 245.683752 -185.268385 
L 245.69161 -183.824553 
L 245.704281 -182.38072 
L 245.722892 -180.936888 
L 245.740994 -179.493055 
L 245.756316 -178.049223 
L 245.773397 -176.60539 
L 245.79644 -175.161558 
L 245.823948 -173.717725 
L 245.846727 -172.273893 
L 245.858418 -170.83006 
L 245.866482 -169.386228 
L 245.881592 -167.942395 
L 245.906015 -166.498562 
L 245.938055 -165.05473 
L 245.97163 -163.610897 
L 245.998083 -162.167065 
L 246.021106 -160.723232 
L 246.054498 -159.2794 
L 246.105732 -157.835567 
L 246.171388 -156.391735 
L 246.243145 -154.947902 
L 246.321166 -153.50407 
L 246.410071 -152.060237 
L 246.50774 -150.616404 
L 246.613413 -149.172572 
L 246.730272 -147.728739 
L 246.860237 -146.284907 
L 247.00818 -144.841074 
L 247.1824 -143.397242 
L 247.382323 -141.953409 
L 247.60158 -140.509577 
L 247.848923 -139.065744 
L 248.138933 -137.621912 
L 248.466684 -136.178079 
L 248.814524 -134.734246 
L 249.170469 -133.290414 
L 249.538612 -131.846581 
L 249.929777 -130.402749 
L 250.3392 -128.958916 
L 250.759882 -127.515084 
L 251.190885 -126.071251 
L 251.614612 -124.627419 
L 252.009922 -123.183586 
L 252.378744 -121.739754 
L 252.727574 -120.295921 
L 253.048184 -118.852089 
L 253.345762 -117.408256 
L 253.645352 -115.964423 
L 253.937916 -114.520591 
L 254.170736 -113.076758 
L 254.278291 -111.632926 
L 254.223165 -110.189093 
L 254.042849 -108.745261 
L 253.810477 -107.301428 
L 253.562792 -105.857596 
L 253.311007 -104.413763 
L 253.071211 -102.969931 
L 252.843522 -101.526098 
L 252.614018 -100.082265 
L 252.380819 -98.638433 
L 252.116212 -97.1946 
L 251.768808 -95.750768 
L 251.32242 -94.306935 
L 250.775084 -92.863103 
L 250.09636 -91.41927 
L 249.254799 -89.975438 
L 248.294142 -88.531605 
L 247.365207 -87.087773 
L 246.634545 -85.64394 
L 246.167709 -84.200107 
L 245.915545 -82.756275 
L 245.788676 -81.312442 
L 245.723667 -79.86861 
L 245.68736 -78.424777 
L 245.661613 -76.980945 
L 245.639799 -75.537112 
L 245.622065 -74.09328 
L 245.60974 -72.649447 
L 245.603151 -71.205615 
L 245.6007 -69.761782 
z
" style="stroke: #464646; stroke-width: 1.75"/>
    </defs>
    <g clip-path="url(#p25c15838a0)">
     <use xlink:href="#m551daaff55" x="0" y="396" style="fill: #60ae47; stroke: #464646; stroke-width: 1.75"/>
    </g>
   </g>
   <g id="PolyCollection_5">
    <defs>
     <path id="m7faf609d7e" d="M 295.200242 -71.346553 
L 295.199758 -71.346553 
L 295.199357 -72.892254 
L 295.198499 -74.437954 
L 295.196844 -75.983655 
L 295.193848 -77.529355 
L 295.18854 -79.075056 
L 295.179069 -80.620756 
L 295.162154 -82.166457 
L 295.132873 -83.712157 
L 295.085543 -85.257858 
L 295.016017 -86.803558 
L 294.924486 -88.349259 
L 294.816757 -89.894959 
L 294.702574 -91.44066 
L 294.592004 -92.98636 
L 294.492614 -94.532061 
L 294.408928 -96.077761 
L 294.343004 -97.623462 
L 294.29441 -99.169162 
L 294.259912 -100.714863 
L 294.23452 -102.260563 
L 294.213942 -103.806264 
L 294.196078 -105.351964 
L 294.179815 -106.897665 
L 294.162676 -108.443365 
L 294.140325 -109.989066 
L 294.108692 -111.534766 
L 294.066648 -113.080467 
L 294.0169 -114.626167 
L 293.964608 -116.171868 
L 293.914889 -117.717568 
L 293.870803 -119.263269 
L 293.833044 -120.808969 
L 293.801574 -122.35467 
L 293.778087 -123.90037 
L 293.767157 -125.446071 
L 293.774769 -126.991771 
L 293.80512 -128.537472 
L 293.85821 -130.083172 
L 293.929818 -131.628873 
L 294.013249 -133.174574 
L 294.101305 -134.720274 
L 294.188085 -136.265975 
L 294.270773 -137.811675 
L 294.350196 -139.357376 
L 294.428802 -140.903076 
L 294.50742 -142.448777 
L 294.583979 -143.994477 
L 294.655083 -145.540178 
L 294.718369 -147.085878 
L 294.773609 -148.631579 
L 294.822264 -150.177279 
L 294.866168 -151.72298 
L 294.906324 -153.26868 
L 294.942604 -154.814381 
L 294.974221 -156.360081 
L 295.000212 -157.905782 
L 295.019743 -159.451482 
L 295.032651 -160.997183 
L 295.04016 -162.542883 
L 295.044951 -164.088584 
L 295.050149 -165.634284 
L 295.057902 -167.179985 
L 295.068506 -168.725685 
L 295.080454 -170.271386 
L 295.09133 -171.817086 
L 295.09922 -173.362787 
L 295.103875 -174.908487 
L 295.10677 -176.454188 
L 295.10994 -177.999888 
L 295.11454 -179.545589 
L 295.12028 -181.091289 
L 295.126106 -182.63699 
L 295.131275 -184.18269 
L 295.135829 -185.728391 
L 295.140311 -187.274091 
L 295.145295 -188.819792 
L 295.151062 -190.365492 
L 295.157383 -191.911193 
L 295.163502 -193.456893 
L 295.16851 -195.002594 
L 295.171926 -196.548294 
L 295.173994 -198.093995 
L 295.175498 -199.639695 
L 295.177337 -201.185396 
L 295.180092 -202.731097 
L 295.183756 -204.276797 
L 295.187769 -205.822498 
L 295.191411 -207.368198 
L 295.194231 -208.913899 
L 295.196168 -210.459599 
L 295.197381 -212.0053 
L 295.198068 -213.551 
L 295.198412 -215.096701 
L 295.1986 -216.642401 
L 295.198798 -218.188102 
L 295.199077 -219.733802 
L 295.199396 -221.279503 
L 295.19967 -222.825203 
L 295.199851 -224.370904 
L 295.200149 -224.370904 
L 295.200149 -224.370904 
L 295.20033 -222.825203 
L 295.200604 -221.279503 
L 295.200923 -219.733802 
L 295.201202 -218.188102 
L 295.2014 -216.642401 
L 295.201588 -215.096701 
L 295.201932 -213.551 
L 295.202619 -212.0053 
L 295.203832 -210.459599 
L 295.205769 -208.913899 
L 295.208589 -207.368198 
L 295.212231 -205.822498 
L 295.216244 -204.276797 
L 295.219908 -202.731097 
L 295.222663 -201.185396 
L 295.224502 -199.639695 
L 295.226006 -198.093995 
L 295.228074 -196.548294 
L 295.23149 -195.002594 
L 295.236498 -193.456893 
L 295.242617 -191.911193 
L 295.248938 -190.365492 
L 295.254705 -188.819792 
L 295.259689 -187.274091 
L 295.264171 -185.728391 
L 295.268725 -184.18269 
L 295.273894 -182.63699 
L 295.27972 -181.091289 
L 295.28546 -179.545589 
L 295.29006 -177.999888 
L 295.29323 -176.454188 
L 295.296125 -174.908487 
L 295.30078 -173.362787 
L 295.30867 -171.817086 
L 295.319546 -170.271386 
L 295.331494 -168.725685 
L 295.342098 -167.179985 
L 295.349851 -165.634284 
L 295.355049 -164.088584 
L 295.35984 -162.542883 
L 295.367349 -160.997183 
L 295.380257 -159.451482 
L 295.399788 -157.905782 
L 295.425779 -156.360081 
L 295.457396 -154.814381 
L 295.493676 -153.26868 
L 295.533832 -151.72298 
L 295.577736 -150.177279 
L 295.626391 -148.631579 
L 295.681631 -147.085878 
L 295.744917 -145.540178 
L 295.816021 -143.994477 
L 295.89258 -142.448777 
L 295.971198 -140.903076 
L 296.049804 -139.357376 
L 296.129227 -137.811675 
L 296.211915 -136.265975 
L 296.298695 -134.720274 
L 296.386751 -133.174574 
L 296.470182 -131.628873 
L 296.54179 -130.083172 
L 296.59488 -128.537472 
L 296.625231 -126.991771 
L 296.632843 -125.446071 
L 296.621913 -123.90037 
L 296.598426 -122.35467 
L 296.566956 -120.808969 
L 296.529197 -119.263269 
L 296.485111 -117.717568 
L 296.435392 -116.171868 
L 296.3831 -114.626167 
L 296.333352 -113.080467 
L 296.291308 -111.534766 
L 296.259675 -109.989066 
L 296.237324 -108.443365 
L 296.220185 -106.897665 
L 296.203922 -105.351964 
L 296.186058 -103.806264 
L 296.16548 -102.260563 
L 296.140088 -100.714863 
L 296.10559 -99.169162 
L 296.056996 -97.623462 
L 295.991072 -96.077761 
L 295.907386 -94.532061 
L 295.807996 -92.98636 
L 295.697426 -91.44066 
L 295.583243 -89.894959 
L 295.475514 -88.349259 
L 295.383983 -86.803558 
L 295.314457 -85.257858 
L 295.267127 -83.712157 
L 295.237846 -82.166457 
L 295.220931 -80.620756 
L 295.21146 -79.075056 
L 295.206152 -77.529355 
L 295.203156 -75.983655 
L 295.201501 -74.437954 
L 295.200643 -72.892254 
L 295.200242 -71.346553 
z
" style="stroke: #464646; stroke-width: 1.75"/>
    </defs>
    <g clip-path="url(#p25c15838a0)">
     <use xlink:href="#m7faf609d7e" x="0" y="396" style="fill: #4aad95; stroke: #464646; stroke-width: 1.75"/>
    </g>
   </g>
   <g id="PolyCollection_6">
    <defs>
     <path id="m61915e2eef" d="M 344.800105 -66.78361 
L 344.799895 -66.78361 
L 344.799822 -68.368178 
L 344.799711 -69.952746 
L 344.799551 -71.537314 
L 344.799323 -73.121882 
L 344.799001 -74.70645 
L 344.798545 -76.291018 
L 344.797893 -77.875586 
L 344.79696 -79.460154 
L 344.795632 -81.044723 
L 344.79378 -82.629291 
L 344.791269 -84.213859 
L 344.787979 -85.798427 
L 344.783823 -87.382995 
L 344.778766 -88.967563 
L 344.77284 -90.552131 
L 344.766152 -92.136699 
L 344.758879 -93.721267 
L 344.751255 -95.305835 
L 344.743556 -96.890403 
L 344.736067 -98.474972 
L 344.729045 -100.05954 
L 344.722692 -101.644108 
L 344.717123 -103.228676 
L 344.712365 -104.813244 
L 344.708376 -106.397812 
L 344.70509 -107.98238 
L 344.702456 -109.566948 
L 344.700464 -111.151516 
L 344.699121 -112.736084 
L 344.698395 -114.320652 
L 344.698139 -115.90522 
L 344.698049 -117.489789 
L 344.69768 -119.074357 
L 344.69652 -120.658925 
L 344.694109 -122.243493 
L 344.690152 -123.828061 
L 344.684591 -125.412629 
L 344.67763 -126.997197 
L 344.669694 -128.581765 
L 344.661364 -130.166333 
L 344.6533 -131.750901 
L 344.646165 -133.335469 
L 344.640571 -134.920037 
L 344.637031 -136.504606 
L 344.635911 -138.089174 
L 344.63739 -139.673742 
L 344.641431 -141.25831 
L 344.647776 -142.842878 
L 344.655974 -144.427446 
L 344.665446 -146.012014 
L 344.675565 -147.596582 
L 344.685737 -149.18115 
L 344.695463 -150.765718 
L 344.704378 -152.350286 
L 344.712268 -153.934854 
L 344.719073 -155.519423 
L 344.724872 -157.103991 
L 344.729862 -158.688559 
L 344.734317 -160.273127 
L 344.738537 -161.857695 
L 344.742786 -163.442263 
L 344.747239 -165.026831 
L 344.751953 -166.611399 
L 344.756859 -168.195967 
L 344.761802 -169.780535 
L 344.766582 -171.365103 
L 344.771013 -172.949672 
L 344.77495 -174.53424 
L 344.778302 -176.118808 
L 344.781029 -177.703376 
L 344.783124 -179.287944 
L 344.784611 -180.872512 
L 344.785545 -182.45708 
L 344.786015 -184.041648 
L 344.786139 -185.626216 
L 344.786059 -187.210784 
L 344.785914 -188.795352 
L 344.785828 -190.37992 
L 344.785888 -191.964489 
L 344.786146 -193.549057 
L 344.786621 -195.133625 
L 344.787308 -196.718193 
L 344.788186 -198.302761 
L 344.789225 -199.887329 
L 344.790382 -201.471897 
L 344.791606 -203.056465 
L 344.792839 -204.641033 
L 344.794027 -206.225601 
L 344.795127 -207.810169 
L 344.796108 -209.394737 
L 344.796959 -210.979306 
L 344.79768 -212.563874 
L 344.798276 -214.148442 
L 344.798758 -215.73301 
L 344.799137 -217.317578 
L 344.799424 -218.902146 
L 344.799633 -220.486714 
L 344.799777 -222.071282 
L 344.799872 -223.65585 
L 344.800128 -223.65585 
L 344.800128 -223.65585 
L 344.800223 -222.071282 
L 344.800367 -220.486714 
L 344.800576 -218.902146 
L 344.800863 -217.317578 
L 344.801242 -215.73301 
L 344.801724 -214.148442 
L 344.80232 -212.563874 
L 344.803041 -210.979306 
L 344.803892 -209.394737 
L 344.804873 -207.810169 
L 344.805973 -206.225601 
L 344.807161 -204.641033 
L 344.808394 -203.056465 
L 344.809618 -201.471897 
L 344.810775 -199.887329 
L 344.811814 -198.302761 
L 344.812692 -196.718193 
L 344.813379 -195.133625 
L 344.813854 -193.549057 
L 344.814112 -191.964489 
L 344.814172 -190.37992 
L 344.814086 -188.795352 
L 344.813941 -187.210784 
L 344.813861 -185.626216 
L 344.813985 -184.041648 
L 344.814455 -182.45708 
L 344.815389 -180.872512 
L 344.816876 -179.287944 
L 344.818971 -177.703376 
L 344.821698 -176.118808 
L 344.82505 -174.53424 
L 344.828987 -172.949672 
L 344.833418 -171.365103 
L 344.838198 -169.780535 
L 344.843141 -168.195967 
L 344.848047 -166.611399 
L 344.852761 -165.026831 
L 344.857214 -163.442263 
L 344.861463 -161.857695 
L 344.865683 -160.273127 
L 344.870138 -158.688559 
L 344.875128 -157.103991 
L 344.880927 -155.519423 
L 344.887732 -153.934854 
L 344.895622 -152.350286 
L 344.904537 -150.765718 
L 344.914263 -149.18115 
L 344.924435 -147.596582 
L 344.934554 -146.012014 
L 344.944026 -144.427446 
L 344.952224 -142.842878 
L 344.958569 -141.25831 
L 344.96261 -139.673742 
L 344.964089 -138.089174 
L 344.962969 -136.504606 
L 344.959429 -134.920037 
L 344.953835 -133.335469 
L 344.9467 -131.750901 
L 344.938636 -130.166333 
L 344.930306 -128.581765 
L 344.92237 -126.997197 
L 344.915409 -125.412629 
L 344.909848 -123.828061 
L 344.905891 -122.243493 
L 344.90348 -120.658925 
L 344.90232 -119.074357 
L 344.901951 -117.489789 
L 344.901861 -115.90522 
L 344.901605 -114.320652 
L 344.900879 -112.736084 
L 344.899536 -111.151516 
L 344.897544 -109.566948 
L 344.89491 -107.98238 
L 344.891624 -106.397812 
L 344.887635 -104.813244 
L 344.882877 -103.228676 
L 344.877308 -101.644108 
L 344.870955 -100.05954 
L 344.863933 -98.474972 
L 344.856444 -96.890403 
L 344.848745 -95.305835 
L 344.841121 -93.721267 
L 344.833848 -92.136699 
L 344.82716 -90.552131 
L 344.821234 -88.967563 
L 344.816177 -87.382995 
L 344.812021 -85.798427 
L 344.808731 -84.213859 
L 344.80622 -82.629291 
L 344.804368 -81.044723 
L 344.80304 -79.460154 
L 344.802107 -77.875586 
L 344.801455 -76.291018 
L 344.800999 -74.70645 
L 344.800677 -73.121882 
L 344.800449 -71.537314 
L 344.800289 -69.952746 
L 344.800178 -68.368178 
L 344.800105 -66.78361 
z
" style="stroke: #464646; stroke-width: 1.75"/>
    </defs>
    <g clip-path="url(#p25c15838a0)">
     <use xlink:href="#m61915e2eef" x="0" y="396" style="fill: #4dabb3; stroke: #464646; stroke-width: 1.75"/>
    </g>
   </g>
   <g id="PolyCollection_7">
    <defs>
     <path id="m761ef5a15b" d="M 394.400093 -82.702555 
L 394.399907 -82.702555 
L 394.39987 -84.074187 
L 394.399819 -85.445819 
L 394.399754 -86.817451 
L 394.399669 -88.189083 
L 394.399561 -89.560715 
L 394.399426 -90.932347 
L 394.39926 -92.303979 
L 394.399058 -93.675611 
L 394.398816 -95.047243 
L 394.398532 -96.418875 
L 394.398203 -97.790507 
L 394.397828 -99.162139 
L 394.39741 -100.533771 
L 394.396951 -101.905403 
L 394.396457 -103.277035 
L 394.395937 -104.648667 
L 394.395401 -106.020299 
L 394.394862 -107.391931 
L 394.394332 -108.763563 
L 394.393823 -110.135195 
L 394.393349 -111.506827 
L 394.392918 -112.878459 
L 394.392537 -114.250091 
L 394.392209 -115.621723 
L 394.391934 -116.993355 
L 394.391706 -118.364987 
L 394.391517 -119.736619 
L 394.391355 -121.108251 
L 394.391207 -122.479883 
L 394.391058 -123.851515 
L 394.390896 -125.223147 
L 394.390709 -126.594779 
L 394.390488 -127.966411 
L 394.390228 -129.338043 
L 394.38993 -130.709675 
L 394.389597 -132.081307 
L 394.389237 -133.452939 
L 394.388862 -134.824571 
L 394.388485 -136.196203 
L 394.388122 -137.567835 
L 394.387788 -138.939467 
L 394.3875 -140.311099 
L 394.387271 -141.682731 
L 394.387113 -143.054363 
L 394.387035 -144.425995 
L 394.387041 -145.797627 
L 394.387133 -147.169259 
L 394.387308 -148.540891 
L 394.387557 -149.912523 
L 394.387873 -151.284155 
L 394.388244 -152.655787 
L 394.388656 -154.027419 
L 394.389097 -155.399051 
L 394.389558 -156.770683 
L 394.390029 -158.142315 
L 394.390505 -159.513947 
L 394.390982 -160.885579 
L 394.39146 -162.257211 
L 394.39194 -163.628843 
L 394.392424 -165.000475 
L 394.392913 -166.372107 
L 394.393408 -167.743739 
L 394.393909 -169.115371 
L 394.394413 -170.487003 
L 394.394915 -171.858635 
L 394.395409 -173.230267 
L 394.39589 -174.601899 
L 394.396348 -175.973531 
L 394.396777 -177.345163 
L 394.397171 -178.716795 
L 394.397524 -180.088427 
L 394.397833 -181.460059 
L 394.398097 -182.831691 
L 394.398317 -184.203323 
L 394.398495 -185.574955 
L 394.398635 -186.946587 
L 394.398744 -188.318219 
L 394.398826 -189.689851 
L 394.398889 -191.061483 
L 394.398938 -192.433115 
L 394.398979 -193.804747 
L 394.399017 -195.176379 
L 394.399056 -196.548011 
L 394.399099 -197.919643 
L 394.399148 -199.291275 
L 394.399203 -200.662907 
L 394.399264 -202.034539 
L 394.399331 -203.406171 
L 394.3994 -204.777803 
L 394.399472 -206.149435 
L 394.399543 -207.521067 
L 394.399611 -208.892699 
L 394.399676 -210.264331 
L 394.399735 -211.635963 
L 394.399787 -213.007595 
L 394.399832 -214.379227 
L 394.399871 -215.750859 
L 394.399903 -217.122491 
L 394.399928 -218.494123 
L 394.400072 -218.494123 
L 394.400072 -218.494123 
L 394.400097 -217.122491 
L 394.400129 -215.750859 
L 394.400168 -214.379227 
L 394.400213 -213.007595 
L 394.400265 -211.635963 
L 394.400324 -210.264331 
L 394.400389 -208.892699 
L 394.400457 -207.521067 
L 394.400528 -206.149435 
L 394.4006 -204.777803 
L 394.400669 -203.406171 
L 394.400736 -202.034539 
L 394.400797 -200.662907 
L 394.400852 -199.291275 
L 394.400901 -197.919643 
L 394.400944 -196.548011 
L 394.400983 -195.176379 
L 394.401021 -193.804747 
L 394.401062 -192.433115 
L 394.401111 -191.061483 
L 394.401174 -189.689851 
L 394.401256 -188.318219 
L 394.401365 -186.946587 
L 394.401505 -185.574955 
L 394.401683 -184.203323 
L 394.401903 -182.831691 
L 394.402167 -181.460059 
L 394.402476 -180.088427 
L 394.402829 -178.716795 
L 394.403223 -177.345163 
L 394.403652 -175.973531 
L 394.40411 -174.601899 
L 394.404591 -173.230267 
L 394.405085 -171.858635 
L 394.405587 -170.487003 
L 394.406091 -169.115371 
L 394.406592 -167.743739 
L 394.407087 -166.372107 
L 394.407576 -165.000475 
L 394.40806 -163.628843 
L 394.40854 -162.257211 
L 394.409018 -160.885579 
L 394.409495 -159.513947 
L 394.409971 -158.142315 
L 394.410442 -156.770683 
L 394.410903 -155.399051 
L 394.411344 -154.027419 
L 394.411756 -152.655787 
L 394.412127 -151.284155 
L 394.412443 -149.912523 
L 394.412692 -148.540891 
L 394.412867 -147.169259 
L 394.412959 -145.797627 
L 394.412965 -144.425995 
L 394.412887 -143.054363 
L 394.412729 -141.682731 
L 394.4125 -140.311099 
L 394.412212 -138.939467 
L 394.411878 -137.567835 
L 394.411515 -136.196203 
L 394.411138 -134.824571 
L 394.410763 -133.452939 
L 394.410403 -132.081307 
L 394.41007 -130.709675 
L 394.409772 -129.338043 
L 394.409512 -127.966411 
L 394.409291 -126.594779 
L 394.409104 -125.223147 
L 394.408942 -123.851515 
L 394.408793 -122.479883 
L 394.408645 -121.108251 
L 394.408483 -119.736619 
L 394.408294 -118.364987 
L 394.408066 -116.993355 
L 394.407791 -115.621723 
L 394.407463 -114.250091 
L 394.407082 -112.878459 
L 394.406651 -111.506827 
L 394.406177 -110.135195 
L 394.405668 -108.763563 
L 394.405138 -107.391931 
L 394.404599 -106.020299 
L 394.404063 -104.648667 
L 394.403543 -103.277035 
L 394.403049 -101.905403 
L 394.40259 -100.533771 
L 394.402172 -99.162139 
L 394.401797 -97.790507 
L 394.401468 -96.418875 
L 394.401184 -95.047243 
L 394.400942 -93.675611 
L 394.40074 -92.303979 
L 394.400574 -90.932347 
L 394.400439 -89.560715 
L 394.400331 -88.189083 
L 394.400246 -86.817451 
L 394.400181 -85.445819 
L 394.40013 -84.074187 
L 394.400093 -82.702555 
z
" style="stroke: #464646; stroke-width: 1.75"/>
    </defs>
    <g clip-path="url(#p25c15838a0)">
     <use xlink:href="#m761ef5a15b" x="0" y="396" style="fill: #6daee2; stroke: #464646; stroke-width: 1.75"/>
    </g>
   </g>
   <g id="PolyCollection_8">
    <defs>
     <path id="me2eb65f120" d="M 444.000108 -80.270293 
L 443.999892 -80.270293 
L 443.999872 -81.788274 
L 443.999848 -83.306255 
L 443.999821 -84.824236 
L 443.999791 -86.342217 
L 443.999758 -87.860198 
L 443.999721 -89.37818 
L 443.99968 -90.896161 
L 443.999635 -92.414142 
L 443.999587 -93.932123 
L 443.999536 -95.450104 
L 443.999481 -96.968085 
L 443.999424 -98.486066 
L 443.999364 -100.004047 
L 443.999302 -101.522028 
L 443.999238 -103.040009 
L 443.999174 -104.55799 
L 443.99911 -106.075971 
L 443.999047 -107.593952 
L 443.998984 -109.111933 
L 443.998924 -110.629914 
L 443.998867 -112.147895 
L 443.998814 -113.665876 
L 443.998765 -115.183857 
L 443.99872 -116.701838 
L 443.998682 -118.219819 
L 443.998649 -119.7378 
L 443.998622 -121.255781 
L 443.998602 -122.773763 
L 443.998589 -124.291744 
L 443.998582 -125.809725 
L 443.998582 -127.327706 
L 443.998588 -128.845687 
L 443.9986 -130.363668 
L 443.998618 -131.881649 
L 443.998641 -133.39963 
L 443.998669 -134.917611 
L 443.998701 -136.435592 
L 443.998736 -137.953573 
L 443.998775 -139.471554 
L 443.998817 -140.989535 
L 443.998861 -142.507516 
L 443.998906 -144.025497 
L 443.998952 -145.543478 
L 443.998999 -147.061459 
L 443.999046 -148.57944 
L 443.999093 -150.097421 
L 443.999139 -151.615402 
L 443.999184 -153.133383 
L 443.999228 -154.651365 
L 443.999271 -156.169346 
L 443.999311 -157.687327 
L 443.99935 -159.205308 
L 443.999386 -160.723289 
L 443.999421 -162.24127 
L 443.999452 -163.759251 
L 443.999481 -165.277232 
L 443.999508 -166.795213 
L 443.999532 -168.313194 
L 443.999553 -169.831175 
L 443.999571 -171.349156 
L 443.999588 -172.867137 
L 443.999601 -174.385118 
L 443.999613 -175.903099 
L 443.999623 -177.42108 
L 443.999631 -178.939061 
L 443.999637 -180.457042 
L 443.999643 -181.975023 
L 443.999647 -183.493004 
L 443.999651 -185.010985 
L 443.999655 -186.528966 
L 443.999659 -188.046948 
L 443.999663 -189.564929 
L 443.999667 -191.08291 
L 443.999673 -192.600891 
L 443.999679 -194.118872 
L 443.999686 -195.636853 
L 443.999695 -197.154834 
L 443.999704 -198.672815 
L 443.999715 -200.190796 
L 443.999726 -201.708777 
L 443.999739 -203.226758 
L 443.999752 -204.744739 
L 443.999766 -206.26272 
L 443.99978 -207.780701 
L 443.999795 -209.298682 
L 443.99981 -210.816663 
L 443.999825 -212.334644 
L 443.99984 -213.852625 
L 443.999854 -215.370606 
L 443.999868 -216.888587 
L 443.999882 -218.406568 
L 443.999895 -219.92455 
L 443.999907 -221.442531 
L 443.999918 -222.960512 
L 443.999928 -224.478493 
L 443.999938 -225.996474 
L 443.999946 -227.514455 
L 443.999954 -229.032436 
L 443.999961 -230.550417 
L 444.000039 -230.550417 
L 444.000039 -230.550417 
L 444.000046 -229.032436 
L 444.000054 -227.514455 
L 444.000062 -225.996474 
L 444.000072 -224.478493 
L 444.000082 -222.960512 
L 444.000093 -221.442531 
L 444.000105 -219.92455 
L 444.000118 -218.406568 
L 444.000132 -216.888587 
L 444.000146 -215.370606 
L 444.00016 -213.852625 
L 444.000175 -212.334644 
L 444.00019 -210.816663 
L 444.000205 -209.298682 
L 444.00022 -207.780701 
L 444.000234 -206.26272 
L 444.000248 -204.744739 
L 444.000261 -203.226758 
L 444.000274 -201.708777 
L 444.000285 -200.190796 
L 444.000296 -198.672815 
L 444.000305 -197.154834 
L 444.000314 -195.636853 
L 444.000321 -194.118872 
L 444.000327 -192.600891 
L 444.000333 -191.08291 
L 444.000337 -189.564929 
L 444.000341 -188.046948 
L 444.000345 -186.528966 
L 444.000349 -185.010985 
L 444.000353 -183.493004 
L 444.000357 -181.975023 
L 444.000363 -180.457042 
L 444.000369 -178.939061 
L 444.000377 -177.42108 
L 444.000387 -175.903099 
L 444.000399 -174.385118 
L 444.000412 -172.867137 
L 444.000429 -171.349156 
L 444.000447 -169.831175 
L 444.000468 -168.313194 
L 444.000492 -166.795213 
L 444.000519 -165.277232 
L 444.000548 -163.759251 
L 444.000579 -162.24127 
L 444.000614 -160.723289 
L 444.00065 -159.205308 
L 444.000689 -157.687327 
L 444.000729 -156.169346 
L 444.000772 -154.651365 
L 444.000816 -153.133383 
L 444.000861 -151.615402 
L 444.000907 -150.097421 
L 444.000954 -148.57944 
L 444.001001 -147.061459 
L 444.001048 -145.543478 
L 444.001094 -144.025497 
L 444.001139 -142.507516 
L 444.001183 -140.989535 
L 444.001225 -139.471554 
L 444.001264 -137.953573 
L 444.001299 -136.435592 
L 444.001331 -134.917611 
L 444.001359 -133.39963 
L 444.001382 -131.881649 
L 444.0014 -130.363668 
L 444.001412 -128.845687 
L 444.001418 -127.327706 
L 444.001418 -125.809725 
L 444.001411 -124.291744 
L 444.001398 -122.773763 
L 444.001378 -121.255781 
L 444.001351 -119.7378 
L 444.001318 -118.219819 
L 444.00128 -116.701838 
L 444.001235 -115.183857 
L 444.001186 -113.665876 
L 444.001133 -112.147895 
L 444.001076 -110.629914 
L 444.001016 -109.111933 
L 444.000953 -107.593952 
L 444.00089 -106.075971 
L 444.000826 -104.55799 
L 444.000762 -103.040009 
L 444.000698 -101.522028 
L 444.000636 -100.004047 
L 444.000576 -98.486066 
L 444.000519 -96.968085 
L 444.000464 -95.450104 
L 444.000413 -93.932123 
L 444.000365 -92.414142 
L 444.00032 -90.896161 
L 444.000279 -89.37818 
L 444.000242 -87.860198 
L 444.000209 -86.342217 
L 444.000179 -84.824236 
L 444.000152 -83.306255 
L 444.000128 -81.788274 
L 444.000108 -80.270293 
z
" style="stroke: #464646; stroke-width: 1.75"/>
    </defs>
    <g clip-path="url(#p25c15838a0)">
     <use xlink:href="#me2eb65f120" x="0" y="396" style="fill: #c4a1ea; stroke: #464646; stroke-width: 1.75"/>
    </g>
   </g>
   <g id="PolyCollection_9">
    <defs>
     <path id="m4dcbe01bf0" d="M 493.600045 -124.325475 
L 493.599955 -124.325475 
L 493.599947 -124.717229 
L 493.599939 -125.108983 
L 493.599931 -125.500737 
L 493.599921 -125.89249 
L 493.59991 -126.284244 
L 493.599899 -126.675998 
L 493.599886 -127.067752 
L 493.599872 -127.459505 
L 493.599858 -127.851259 
L 493.599843 -128.243013 
L 493.599826 -128.634767 
L 493.599809 -129.02652 
L 493.599791 -129.418274 
L 493.599772 -129.810028 
L 493.599753 -130.201782 
L 493.599733 -130.593535 
L 493.599712 -130.985289 
L 493.599691 -131.377043 
L 493.59967 -131.768797 
L 493.599649 -132.16055 
L 493.599627 -132.552304 
L 493.599605 -132.944058 
L 493.599583 -133.335812 
L 493.599562 -133.727565 
L 493.59954 -134.119319 
L 493.599519 -134.511073 
L 493.599498 -134.902827 
L 493.599477 -135.29458 
L 493.599456 -135.686334 
L 493.599436 -136.078088 
L 493.599417 -136.469842 
L 493.599398 -136.861595 
L 493.599379 -137.253349 
L 493.599361 -137.645103 
L 493.599343 -138.036857 
L 493.599326 -138.42861 
L 493.59931 -138.820364 
L 493.599294 -139.212118 
L 493.599279 -139.603872 
L 493.599265 -139.995625 
L 493.599252 -140.387379 
L 493.59924 -140.779133 
L 493.599229 -141.170886 
L 493.599219 -141.56264 
L 493.599211 -141.954394 
L 493.599204 -142.346148 
L 493.599198 -142.737901 
L 493.599194 -143.129655 
L 493.599191 -143.521409 
L 493.59919 -143.913163 
L 493.59919 -144.304916 
L 493.599192 -144.69667 
L 493.599195 -145.088424 
L 493.5992 -145.480178 
L 493.599207 -145.871931 
L 493.599215 -146.263685 
L 493.599224 -146.655439 
L 493.599234 -147.047193 
L 493.599246 -147.438946 
L 493.599259 -147.8307 
L 493.599273 -148.222454 
L 493.599288 -148.614208 
L 493.599304 -149.005961 
L 493.599321 -149.397715 
L 493.599339 -149.789469 
L 493.599358 -150.181223 
L 493.599377 -150.572976 
L 493.599397 -150.96473 
L 493.599417 -151.356484 
L 493.599438 -151.748238 
L 493.599459 -152.139991 
L 493.599481 -152.531745 
L 493.599503 -152.923499 
L 493.599526 -153.315253 
L 493.599548 -153.707006 
L 493.599571 -154.09876 
L 493.599594 -154.490514 
L 493.599617 -154.882268 
L 493.59964 -155.274021 
L 493.599662 -155.665775 
L 493.599684 -156.057529 
L 493.599706 -156.449283 
L 493.599727 -156.841036 
L 493.599748 -157.23279 
L 493.599768 -157.624544 
L 493.599787 -158.016298 
L 493.599806 -158.408051 
L 493.599824 -158.799805 
L 493.59984 -159.191559 
L 493.599856 -159.583313 
L 493.599871 -159.975066 
L 493.599885 -160.36682 
L 493.599898 -160.758574 
L 493.599909 -161.150327 
L 493.59992 -161.542081 
L 493.59993 -161.933835 
L 493.599939 -162.325589 
L 493.599947 -162.717342 
L 493.599954 -163.109096 
L 493.600046 -163.109096 
L 493.600046 -163.109096 
L 493.600053 -162.717342 
L 493.600061 -162.325589 
L 493.60007 -161.933835 
L 493.60008 -161.542081 
L 493.600091 -161.150327 
L 493.600102 -160.758574 
L 493.600115 -160.36682 
L 493.600129 -159.975066 
L 493.600144 -159.583313 
L 493.60016 -159.191559 
L 493.600176 -158.799805 
L 493.600194 -158.408051 
L 493.600213 -158.016298 
L 493.600232 -157.624544 
L 493.600252 -157.23279 
L 493.600273 -156.841036 
L 493.600294 -156.449283 
L 493.600316 -156.057529 
L 493.600338 -155.665775 
L 493.60036 -155.274021 
L 493.600383 -154.882268 
L 493.600406 -154.490514 
L 493.600429 -154.09876 
L 493.600452 -153.707006 
L 493.600474 -153.315253 
L 493.600497 -152.923499 
L 493.600519 -152.531745 
L 493.600541 -152.139991 
L 493.600562 -151.748238 
L 493.600583 -151.356484 
L 493.600603 -150.96473 
L 493.600623 -150.572976 
L 493.600642 -150.181223 
L 493.600661 -149.789469 
L 493.600679 -149.397715 
L 493.600696 -149.005961 
L 493.600712 -148.614208 
L 493.600727 -148.222454 
L 493.600741 -147.8307 
L 493.600754 -147.438946 
L 493.600766 -147.047193 
L 493.600776 -146.655439 
L 493.600785 -146.263685 
L 493.600793 -145.871931 
L 493.6008 -145.480178 
L 493.600805 -145.088424 
L 493.600808 -144.69667 
L 493.60081 -144.304916 
L 493.60081 -143.913163 
L 493.600809 -143.521409 
L 493.600806 -143.129655 
L 493.600802 -142.737901 
L 493.600796 -142.346148 
L 493.600789 -141.954394 
L 493.600781 -141.56264 
L 493.600771 -141.170886 
L 493.60076 -140.779133 
L 493.600748 -140.387379 
L 493.600735 -139.995625 
L 493.600721 -139.603872 
L 493.600706 -139.212118 
L 493.60069 -138.820364 
L 493.600674 -138.42861 
L 493.600657 -138.036857 
L 493.600639 -137.645103 
L 493.600621 -137.253349 
L 493.600602 -136.861595 
L 493.600583 -136.469842 
L 493.600564 -136.078088 
L 493.600544 -135.686334 
L 493.600523 -135.29458 
L 493.600502 -134.902827 
L 493.600481 -134.511073 
L 493.60046 -134.119319 
L 493.600438 -133.727565 
L 493.600417 -133.335812 
L 493.600395 -132.944058 
L 493.600373 -132.552304 
L 493.600351 -132.16055 
L 493.60033 -131.768797 
L 493.600309 -131.377043 
L 493.600288 -130.985289 
L 493.600267 -130.593535 
L 493.600247 -130.201782 
L 493.600228 -129.810028 
L 493.600209 -129.418274 
L 493.600191 -129.02652 
L 493.600174 -128.634767 
L 493.600157 -128.243013 
L 493.600142 -127.851259 
L 493.600128 -127.459505 
L 493.600114 -127.067752 
L 493.600101 -126.675998 
L 493.60009 -126.284244 
L 493.600079 -125.89249 
L 493.600069 -125.500737 
L 493.600061 -125.108983 
L 493.600053 -124.717229 
L 493.600045 -124.325475 
z
" style="stroke: #464646; stroke-width: 1.75"/>
    </defs>
    <g clip-path="url(#p25c15838a0)">
     <use xlink:href="#m4dcbe01bf0" x="0" y="396" style="fill: #e88ed1; stroke: #464646; stroke-width: 1.75"/>
    </g>
   </g>
   <g id="line2d_22">
    <path d="M 96.8 319.895379 
L 96.8 210.537748 
" clip-path="url(#p25c15838a0)" style="fill: none; stroke: #464646; stroke-width: 1.75; stroke-linecap: round"/>
   </g>
   <g id="line2d_23">
    <path d="M 96.8 306.749978 
L 96.8 268.255989 
" clip-path="url(#p25c15838a0)" style="fill: none; stroke: #464646; stroke-width: 5.25; stroke-linecap: round"/>
   </g>
   <g id="line2d_24">
    <path d="M 146.4 321.477237 
L 146.4 262.715848 
" clip-path="url(#p25c15838a0)" style="fill: none; stroke: #464646; stroke-width: 1.75; stroke-linecap: round"/>
   </g>
   <g id="line2d_25">
    <path d="M 146.4 301.813362 
L 146.4 286.167059 
" clip-path="url(#p25c15838a0)" style="fill: none; stroke: #464646; stroke-width: 5.25; stroke-linecap: round"/>
   </g>
   <g id="line2d_26">
    <path d="M 196 322.430193 
L 196 255.635826 
" clip-path="url(#p25c15838a0)" style="fill: none; stroke: #464646; stroke-width: 1.75; stroke-linecap: round"/>
   </g>
   <g id="line2d_27">
    <path d="M 196 299.160934 
L 196 281.748817 
" clip-path="url(#p25c15838a0)" style="fill: none; stroke: #464646; stroke-width: 5.25; stroke-linecap: round"/>
   </g>
   <g id="line2d_28">
    <path d="M 245.6 322.162086 
L 245.6 238.022537 
" clip-path="url(#p25c15838a0)" style="fill: none; stroke: #464646; stroke-width: 1.75; stroke-linecap: round"/>
   </g>
   <g id="line2d_29">
    <path d="M 245.6 293.617778 
L 245.6 271.36643 
" clip-path="url(#p25c15838a0)" style="fill: none; stroke: #464646; stroke-width: 5.25; stroke-linecap: round"/>
   </g>
   <g id="line2d_30">
    <path d="M 295.2 317.71121 
L 295.2 222.189217 
" clip-path="url(#p25c15838a0)" style="fill: none; stroke: #464646; stroke-width: 1.75; stroke-linecap: round"/>
   </g>
   <g id="line2d_31">
    <path d="M 295.2 287.567363 
L 295.2 261.411263 
" clip-path="url(#p25c15838a0)" style="fill: none; stroke: #464646; stroke-width: 5.25; stroke-linecap: round"/>
   </g>
   <g id="line2d_32">
    <path d="M 344.8 317.019582 
L 344.8 202.45446 
" clip-path="url(#p25c15838a0)" style="fill: none; stroke: #464646; stroke-width: 1.75; stroke-linecap: round"/>
   </g>
   <g id="line2d_33">
    <path d="M 344.8 279.854546 
L 344.8 248.721037 
" clip-path="url(#p25c15838a0)" style="fill: none; stroke: #464646; stroke-width: 5.25; stroke-linecap: round"/>
   </g>
   <g id="line2d_34">
    <path d="M 394.4 295.151102 
L 394.4 195.652219 
" clip-path="url(#p25c15838a0)" style="fill: none; stroke: #464646; stroke-width: 1.75; stroke-linecap: round"/>
   </g>
   <g id="line2d_35">
    <path d="M 394.4 272.732045 
L 394.4 241.659315 
" clip-path="url(#p25c15838a0)" style="fill: none; stroke: #464646; stroke-width: 5.25; stroke-linecap: round"/>
   </g>
   <g id="line2d_36">
    <path d="M 444 278.675054 
L 444 242.494371 
" clip-path="url(#p25c15838a0)" style="fill: none; stroke: #464646; stroke-width: 1.75; stroke-linecap: round"/>
   </g>
   <g id="line2d_37">
    <path d="M 444 275.064463 
L 444 249.058322 
" clip-path="url(#p25c15838a0)" style="fill: none; stroke: #464646; stroke-width: 5.25; stroke-linecap: round"/>
   </g>
   <g id="line2d_38">
    <path d="M 493.6 260.874932 
L 493.6 243.690497 
" clip-path="url(#p25c15838a0)" style="fill: none; stroke: #464646; stroke-width: 1.75; stroke-linecap: round"/>
   </g>
   <g id="line2d_39">
    <path d="M 493.6 255.450384 
L 493.6 248.874025 
" clip-path="url(#p25c15838a0)" style="fill: none; stroke: #464646; stroke-width: 5.25; stroke-linecap: round"/>
   </g>
   <g id="line2d_40">
    <path d="M 72 298.769263 
L 518.4 298.769263 
" clip-path="url(#p25c15838a0)" style="fill: none; stroke-dasharray: 6.475,2.8; stroke-dashoffset: 0; stroke: #ff0000; stroke-width: 1.75"/>
   </g>
   <g id="patch_3">
    <path d="M 72 346.5 
L 72 47.52 
" style="fill: none; stroke: #cccccc; stroke-width: 1.25; stroke-linejoin: miter; stroke-linecap: square"/>
   </g>
   <g id="patch_4">
    <path d="M 518.4 346.5 
L 518.4 47.52 
" style="fill: none; stroke: #cccccc; stroke-width: 1.25; stroke-linejoin: miter; stroke-linecap: square"/>
   </g>
   <g id="patch_5">
    <path d="M 72 346.5 
L 518.4 346.5 
" style="fill: none; stroke: #cccccc; stroke-width: 1.25; stroke-linejoin: miter; stroke-linecap: square"/>
   </g>
   <g id="patch_6">
    <path d="M 72 47.52 
L 518.4 47.52 
" style="fill: none; stroke: #cccccc; stroke-width: 1.25; stroke-linejoin: miter; stroke-linecap: square"/>
   </g>
   <g id="PathCollection_1">
    <defs>
     <path id="m4e0a452e40" d="M 0 1.75 
C 0.464105 1.75 0.909265 1.565609 1.237437 1.237437 
C 1.565609 0.909265 1.75 0.464105 1.75 0 
C 1.75 -0.464105 1.565609 -0.909265 1.237437 -1.237437 
C 0.909265 -1.565609 0.464105 -1.75 0 -1.75 
C -0.464105 -1.75 -0.909265 -1.565609 -1.237437 -1.237437 
C -1.565609 -0.909265 -1.75 -0.464105 -1.75 0 
C -1.75 0.464105 -1.565609 0.909265 -1.237437 1.237437 
C -0.909265 1.565609 -0.464105 1.75 0 1.75 
z
" style="stroke: #464646; stroke-width: 0.3"/>
    </defs>
    <g clip-path="url(#p25c15838a0)">
     <use xlink:href="#m4e0a452e40" x="96.8" y="294.052219" style="fill: #ffffff; stroke: #464646; stroke-width: 0.3"/>
    </g>
   </g>
   <g id="PathCollection_2">
    <g clip-path="url(#p25c15838a0)">
     <use xlink:href="#m4e0a452e40" x="146.4" y="296.062573" style="fill: #ffffff; stroke: #464646; stroke-width: 0.3"/>
    </g>
   </g>
   <g id="PathCollection_3">
    <g clip-path="url(#p25c15838a0)">
     <use xlink:href="#m4e0a452e40" x="196" y="291.856942" style="fill: #ffffff; stroke: #464646; stroke-width: 0.3"/>
    </g>
   </g>
   <g id="PathCollection_4">
    <g clip-path="url(#p25c15838a0)">
     <use xlink:href="#m4e0a452e40" x="245.6" y="283.056513" style="fill: #ffffff; stroke: #464646; stroke-width: 0.3"/>
    </g>
   </g>
   <g id="PathCollection_5">
    <g clip-path="url(#p25c15838a0)">
     <use xlink:href="#m4e0a452e40" x="295.2" y="273.547513" style="fill: #ffffff; stroke: #464646; stroke-width: 0.3"/>
    </g>
   </g>
   <g id="PathCollection_6">
    <g clip-path="url(#p25c15838a0)">
     <use xlink:href="#m4e0a452e40" x="344.8" y="261.39848" style="fill: #ffffff; stroke: #464646; stroke-width: 0.3"/>
    </g>
   </g>
   <g id="PathCollection_7">
    <g clip-path="url(#p25c15838a0)">
     <use xlink:href="#m4e0a452e40" x="394.4" y="252.388736" style="fill: #ffffff; stroke: #464646; stroke-width: 0.3"/>
    </g>
   </g>
   <g id="PathCollection_8">
    <g clip-path="url(#p25c15838a0)">
     <use xlink:href="#m4e0a452e40" x="444" y="270.317175" style="fill: #ffffff; stroke: #464646; stroke-width: 0.3"/>
    </g>
   </g>
   <g id="PathCollection_9">
    <g clip-path="url(#p25c15838a0)">
     <use xlink:href="#m4e0a452e40" x="493.6" y="252.122035" style="fill: #ffffff; stroke: #464646; stroke-width: 0.3"/>
    </g>
   </g>
   <g id="text_18">
    <!-- VE / VF against Slope -->
    <g style="fill: #262626" transform="translate(236.503125 41.52)scale(0.12 -0.12)">
     <defs>
      <path id="LiberationSans-61" d="M 1294 -63 
Q 784 -63 528 206 
Q 272 475 272 944 
Q 272 1469 617 1750 
Q 963 2031 1731 2050 
L 2491 2063 
L 2491 2247 
Q 2491 2659 2316 2837 
Q 2141 3016 1766 3016 
Q 1388 3016 1216 2887 
Q 1044 2759 1009 2478 
L 422 2531 
Q 566 3444 1778 3444 
Q 2416 3444 2737 3151 
Q 3059 2859 3059 2306 
L 3059 850 
Q 3059 600 3125 473 
Q 3191 347 3375 347 
Q 3456 347 3559 369 
L 3559 19 
Q 3347 -31 3125 -31 
Q 2813 -31 2670 133 
Q 2528 297 2509 647 
L 2491 647 
Q 2275 259 1989 98 
Q 1703 -63 1294 -63 
z
M 1422 359 
Q 1731 359 1972 500 
Q 2213 641 2352 886 
Q 2491 1131 2491 1391 
L 2491 1669 
L 1875 1656 
Q 1478 1650 1273 1575 
Q 1069 1500 959 1344 
Q 850 1188 850 934 
Q 850 659 998 509 
Q 1147 359 1422 359 
z
" transform="scale(0.015625)"/>
      <path id="LiberationSans-69" d="M 428 4100 
L 428 4638 
L 991 4638 
L 991 4100 
L 428 4100 
z
M 428 0 
L 428 3381 
L 991 3381 
L 991 0 
L 428 0 
z
" transform="scale(0.015625)"/>
      <path id="LiberationSans-6e" d="M 2578 0 
L 2578 2144 
Q 2578 2478 2512 2662 
Q 2447 2847 2303 2928 
Q 2159 3009 1881 3009 
Q 1475 3009 1240 2731 
Q 1006 2453 1006 1959 
L 1006 0 
L 444 0 
L 444 2659 
Q 444 3250 425 3381 
L 956 3381 
Q 959 3366 962 3297 
Q 966 3228 970 3139 
Q 975 3050 981 2803 
L 991 2803 
Q 1184 3153 1439 3298 
Q 1694 3444 2072 3444 
Q 2628 3444 2886 3167 
Q 3144 2891 3144 2253 
L 3144 0 
L 2578 0 
z
" transform="scale(0.015625)"/>
      <path id="LiberationSans-74" d="M 1731 25 
Q 1453 -50 1163 -50 
Q 488 -50 488 716 
L 488 2972 
L 97 2972 
L 97 3381 
L 509 3381 
L 675 4138 
L 1050 4138 
L 1050 3381 
L 1675 3381 
L 1675 2972 
L 1050 2972 
L 1050 838 
Q 1050 594 1129 495 
Q 1209 397 1406 397 
Q 1519 397 1731 441 
L 1731 25 
z
" transform="scale(0.015625)"/>
     </defs>
     <use xlink:href="#LiberationSans-56"/>
     <use xlink:href="#LiberationSans-45" x="66.699219"/>
     <use xlink:href="#LiberationSans-20" x="133.398438"/>
     <use xlink:href="#LiberationSans-2f" x="161.181641"/>
     <use xlink:href="#LiberationSans-20" x="188.964844"/>
     <use xlink:href="#LiberationSans-56" x="216.748047"/>
     <use xlink:href="#LiberationSans-46" x="283.447266"/>
     <use xlink:href="#LiberationSans-20" x="344.53125"/>
     <use xlink:href="#LiberationSans-61" x="372.314453"/>
     <use xlink:href="#LiberationSans-67" x="427.929688"/>
     <use xlink:href="#LiberationSans-61" x="483.544922"/>
     <use xlink:href="#LiberationSans-69" x="539.160156"/>
     <use xlink:href="#LiberationSans-6e" x="561.376953"/>
     <use xlink:href="#LiberationSans-73" x="616.992188"/>
     <use xlink:href="#LiberationSans-74" x="666.992188"/>
     <use xlink:href="#LiberationSans-20" x="694.775391"/>
     <use xlink:href="#LiberationSans-53" x="722.558594"/>
     <use xlink:href="#LiberationSans-6c" x="789.257812"/>
     <use xlink:href="#LiberationSans-6f" x="811.474609"/>
     <use xlink:href="#LiberationSans-70" x="867.089844"/>
     <use xlink:href="#LiberationSans-65" x="922.705078"/>
    </g>
   </g>
  </g>
 </g>
 <defs>
  <clipPath id="p25c15838a0">
   <rect x="72" y="47.52" width="446.4" height="298.98"/>
  </clipPath>
 </defs>
</svg>
