<?xml version="1.0" encoding="utf-8" standalone="no"?>
<!DOCTYPE svg PUBLIC "-//W3C//DTD SVG 1.1//EN"
  "http://www.w3.org/Graphics/SVG/1.1/DTD/svg11.dtd">
<svg xmlns:xlink="http://www.w3.org/1999/xlink" width="576pt" height="396pt" viewBox="0 0 576 396" xmlns="http://www.w3.org/2000/svg" version="1.1">
 <metadata>
  <rdf:RDF xmlns:dc="http://purl.org/dc/elements/1.1/" xmlns:cc="http://creativecommons.org/ns#" xmlns:rdf="http://www.w3.org/1999/02/22-rdf-syntax-ns#">
   <cc:Work>
    <dc:type rdf:resource="http://purl.org/dc/dcmitype/StillImage"/>
    <dc:date>2023-01-03T17:19:02.295310</dc:date>
    <dc:format>image/svg+xml</dc:format>
    <dc:creator>
     <cc:Agent>
      <dc:title>Matplotlib v3.5.0, https://matplotlib.org/</dc:title>
     </cc:Agent>
    </dc:creator>
   </cc:Work>
  </rdf:RDF>
 </metadata>
 <defs>
  <style type="text/css">*{stroke-linejoin: round; stroke-linecap: butt}</style>
 </defs>
 <g id="figure_1">
  <g id="patch_1">
   <path d="M 0 396 
L 576 396 
L 576 0 
L 0 0 
z
" style="fill: #ffffff"/>
  </g>
  <g id="axes_1">
   <g id="patch_2">
    <path d="M 72 346.5 
L 518.4 346.5 
L 518.4 47.52 
L 72 47.52 
z
" style="fill: #ffffff"/>
   </g>
   <g id="matplotlib.axis_1">
    <g id="xtick_1">
     <g id="line2d_1"/>
     <g id="text_1">
      <!-- 0-10 -->
      <g style="fill: #262626" transform="translate(86.79375 360.746875)scale(0.1 -0.1)">
       <defs>
        <path id="LiberationSans-30" d="M 3309 2203 
Q 3309 1100 2920 518 
Q 2531 -63 1772 -63 
Q 1013 -63 631 515 
Q 250 1094 250 2203 
Q 250 3338 620 3903 
Q 991 4469 1791 4469 
Q 2569 4469 2939 3897 
Q 3309 3325 3309 2203 
z
M 2738 2203 
Q 2738 3156 2517 3584 
Q 2297 4013 1791 4013 
Q 1272 4013 1045 3591 
Q 819 3169 819 2203 
Q 819 1266 1048 831 
Q 1278 397 1778 397 
Q 2275 397 2506 840 
Q 2738 1284 2738 2203 
z
" transform="scale(0.015625)"/>
        <path id="LiberationSans-2d" d="M 284 1450 
L 284 1950 
L 1847 1950 
L 1847 1450 
L 284 1450 
z
" transform="scale(0.015625)"/>
        <path id="LiberationSans-31" d="M 488 0 
L 488 478 
L 1609 478 
L 1609 3866 
L 616 3156 
L 616 3688 
L 1656 4403 
L 2175 4403 
L 2175 478 
L 3247 478 
L 3247 0 
L 488 0 
z
" transform="scale(0.015625)"/>
       </defs>
       <use xlink:href="#LiberationSans-30"/>
       <use xlink:href="#LiberationSans-2d" x="55.615234"/>
       <use xlink:href="#LiberationSans-31" x="88.916016"/>
       <use xlink:href="#LiberationSans-30" x="144.53125"/>
      </g>
     </g>
    </g>
    <g id="xtick_2">
     <g id="line2d_2"/>
     <g id="text_2">
      <!-- 10-20 -->
      <g style="fill: #262626" transform="translate(133.613281 360.746875)scale(0.1 -0.1)">
       <defs>
        <path id="LiberationSans-32" d="M 322 0 
L 322 397 
Q 481 763 711 1042 
Q 941 1322 1194 1548 
Q 1447 1775 1695 1969 
Q 1944 2163 2144 2356 
Q 2344 2550 2467 2762 
Q 2591 2975 2591 3244 
Q 2591 3606 2378 3806 
Q 2166 4006 1788 4006 
Q 1428 4006 1195 3811 
Q 963 3616 922 3263 
L 347 3316 
Q 409 3844 795 4156 
Q 1181 4469 1788 4469 
Q 2453 4469 2811 4155 
Q 3169 3841 3169 3263 
Q 3169 3006 3051 2753 
Q 2934 2500 2703 2247 
Q 2472 1994 1819 1463 
Q 1459 1169 1246 933 
Q 1034 697 941 478 
L 3238 478 
L 3238 0 
L 322 0 
z
" transform="scale(0.015625)"/>
       </defs>
       <use xlink:href="#LiberationSans-31"/>
       <use xlink:href="#LiberationSans-30" x="55.615234"/>
       <use xlink:href="#LiberationSans-2d" x="111.230469"/>
       <use xlink:href="#LiberationSans-32" x="144.53125"/>
       <use xlink:href="#LiberationSans-30" x="200.146484"/>
      </g>
     </g>
    </g>
    <g id="xtick_3">
     <g id="line2d_3"/>
     <g id="text_3">
      <!-- 20-30 -->
      <g style="fill: #262626" transform="translate(183.213281 360.746875)scale(0.1 -0.1)">
       <defs>
        <path id="LiberationSans-33" d="M 3278 1216 
Q 3278 606 2890 271 
Q 2503 -63 1784 -63 
Q 1116 -63 717 239 
Q 319 541 244 1131 
L 825 1184 
Q 938 403 1784 403 
Q 2209 403 2451 612 
Q 2694 822 2694 1234 
Q 2694 1594 2417 1795 
Q 2141 1997 1619 1997 
L 1300 1997 
L 1300 2484 
L 1606 2484 
Q 2069 2484 2323 2686 
Q 2578 2888 2578 3244 
Q 2578 3597 2370 3801 
Q 2163 4006 1753 4006 
Q 1381 4006 1151 3815 
Q 922 3625 884 3278 
L 319 3322 
Q 381 3863 767 4166 
Q 1153 4469 1759 4469 
Q 2422 4469 2789 4161 
Q 3156 3853 3156 3303 
Q 3156 2881 2920 2617 
Q 2684 2353 2234 2259 
L 2234 2247 
Q 2728 2194 3003 1916 
Q 3278 1638 3278 1216 
z
" transform="scale(0.015625)"/>
       </defs>
       <use xlink:href="#LiberationSans-32"/>
       <use xlink:href="#LiberationSans-30" x="55.615234"/>
       <use xlink:href="#LiberationSans-2d" x="111.230469"/>
       <use xlink:href="#LiberationSans-33" x="144.53125"/>
       <use xlink:href="#LiberationSans-30" x="200.146484"/>
      </g>
     </g>
    </g>
    <g id="xtick_4">
     <g id="line2d_4"/>
     <g id="text_4">
      <!-- 30-40 -->
      <g style="fill: #262626" transform="translate(232.813281 360.746875)scale(0.1 -0.1)">
       <defs>
        <path id="LiberationSans-34" d="M 2753 997 
L 2753 0 
L 2222 0 
L 2222 997 
L 147 997 
L 147 1434 
L 2163 4403 
L 2753 4403 
L 2753 1441 
L 3372 1441 
L 3372 997 
L 2753 997 
z
M 2222 3769 
Q 2216 3750 2134 3603 
Q 2053 3456 2013 3397 
L 884 1734 
L 716 1503 
L 666 1441 
L 2222 1441 
L 2222 3769 
z
" transform="scale(0.015625)"/>
       </defs>
       <use xlink:href="#LiberationSans-33"/>
       <use xlink:href="#LiberationSans-30" x="55.615234"/>
       <use xlink:href="#LiberationSans-2d" x="111.230469"/>
       <use xlink:href="#LiberationSans-34" x="144.53125"/>
       <use xlink:href="#LiberationSans-30" x="200.146484"/>
      </g>
     </g>
    </g>
    <g id="xtick_5">
     <g id="line2d_5"/>
     <g id="text_5">
      <!-- 40-50 -->
      <g style="fill: #262626" transform="translate(282.413281 360.746875)scale(0.1 -0.1)">
       <defs>
        <path id="LiberationSans-35" d="M 3291 1434 
Q 3291 738 2877 337 
Q 2463 -63 1728 -63 
Q 1113 -63 734 206 
Q 356 475 256 984 
L 825 1050 
Q 1003 397 1741 397 
Q 2194 397 2450 670 
Q 2706 944 2706 1422 
Q 2706 1838 2448 2094 
Q 2191 2350 1753 2350 
Q 1525 2350 1328 2278 
Q 1131 2206 934 2034 
L 384 2034 
L 531 4403 
L 3034 4403 
L 3034 3925 
L 1044 3925 
L 959 2528 
Q 1325 2809 1869 2809 
Q 2519 2809 2905 2428 
Q 3291 2047 3291 1434 
z
" transform="scale(0.015625)"/>
       </defs>
       <use xlink:href="#LiberationSans-34"/>
       <use xlink:href="#LiberationSans-30" x="55.615234"/>
       <use xlink:href="#LiberationSans-2d" x="111.230469"/>
       <use xlink:href="#LiberationSans-35" x="144.53125"/>
       <use xlink:href="#LiberationSans-30" x="200.146484"/>
      </g>
     </g>
    </g>
    <g id="xtick_6">
     <g id="line2d_6"/>
     <g id="text_6">
      <!-- 50-60 -->
      <g style="fill: #262626" transform="translate(332.013281 360.746875)scale(0.1 -0.1)">
       <defs>
        <path id="LiberationSans-36" d="M 3278 1441 
Q 3278 744 2900 340 
Q 2522 -63 1856 -63 
Q 1113 -63 719 490 
Q 325 1044 325 2100 
Q 325 3244 734 3856 
Q 1144 4469 1900 4469 
Q 2897 4469 3156 3572 
L 2619 3475 
Q 2453 4013 1894 4013 
Q 1413 4013 1148 3564 
Q 884 3116 884 2266 
Q 1038 2550 1316 2698 
Q 1594 2847 1953 2847 
Q 2563 2847 2920 2465 
Q 3278 2084 3278 1441 
z
M 2706 1416 
Q 2706 1894 2472 2153 
Q 2238 2413 1819 2413 
Q 1425 2413 1183 2183 
Q 941 1953 941 1550 
Q 941 1041 1192 716 
Q 1444 391 1838 391 
Q 2244 391 2475 664 
Q 2706 938 2706 1416 
z
" transform="scale(0.015625)"/>
       </defs>
       <use xlink:href="#LiberationSans-35"/>
       <use xlink:href="#LiberationSans-30" x="55.615234"/>
       <use xlink:href="#LiberationSans-2d" x="111.230469"/>
       <use xlink:href="#LiberationSans-36" x="144.53125"/>
       <use xlink:href="#LiberationSans-30" x="200.146484"/>
      </g>
     </g>
    </g>
    <g id="xtick_7">
     <g id="line2d_7"/>
     <g id="text_7">
      <!-- 60-70 -->
      <g style="fill: #262626" transform="translate(381.613281 360.746875)scale(0.1 -0.1)">
       <defs>
        <path id="LiberationSans-37" d="M 3238 3947 
Q 2563 2916 2284 2331 
Q 2006 1747 1867 1178 
Q 1728 609 1728 0 
L 1141 0 
Q 1141 844 1498 1776 
Q 1856 2709 2694 3925 
L 328 3925 
L 328 4403 
L 3238 4403 
L 3238 3947 
z
" transform="scale(0.015625)"/>
       </defs>
       <use xlink:href="#LiberationSans-36"/>
       <use xlink:href="#LiberationSans-30" x="55.615234"/>
       <use xlink:href="#LiberationSans-2d" x="111.230469"/>
       <use xlink:href="#LiberationSans-37" x="144.53125"/>
       <use xlink:href="#LiberationSans-30" x="200.146484"/>
      </g>
     </g>
    </g>
    <g id="xtick_8">
     <g id="line2d_8"/>
     <g id="text_8">
      <!-- 70-80 -->
      <g style="fill: #262626" transform="translate(431.213281 360.746875)scale(0.1 -0.1)">
       <defs>
        <path id="LiberationSans-38" d="M 3281 1228 
Q 3281 619 2893 278 
Q 2506 -63 1781 -63 
Q 1075 -63 676 271 
Q 278 606 278 1222 
Q 278 1653 525 1947 
Q 772 2241 1156 2303 
L 1156 2316 
Q 797 2400 589 2681 
Q 381 2963 381 3341 
Q 381 3844 757 4156 
Q 1134 4469 1769 4469 
Q 2419 4469 2795 4162 
Q 3172 3856 3172 3334 
Q 3172 2956 2962 2675 
Q 2753 2394 2391 2322 
L 2391 2309 
Q 2813 2241 3047 1952 
Q 3281 1663 3281 1228 
z
M 2588 3303 
Q 2588 4050 1769 4050 
Q 1372 4050 1164 3862 
Q 956 3675 956 3303 
Q 956 2925 1170 2726 
Q 1384 2528 1775 2528 
Q 2172 2528 2380 2711 
Q 2588 2894 2588 3303 
z
M 2697 1281 
Q 2697 1691 2453 1898 
Q 2209 2106 1769 2106 
Q 1341 2106 1100 1882 
Q 859 1659 859 1269 
Q 859 359 1788 359 
Q 2247 359 2472 579 
Q 2697 800 2697 1281 
z
" transform="scale(0.015625)"/>
       </defs>
       <use xlink:href="#LiberationSans-37"/>
       <use xlink:href="#LiberationSans-30" x="55.615234"/>
       <use xlink:href="#LiberationSans-2d" x="111.230469"/>
       <use xlink:href="#LiberationSans-38" x="144.53125"/>
       <use xlink:href="#LiberationSans-30" x="200.146484"/>
      </g>
     </g>
    </g>
    <g id="xtick_9">
     <g id="line2d_9"/>
     <g id="text_9">
      <!-- 80-90 -->
      <g style="fill: #262626" transform="translate(480.813281 360.746875)scale(0.1 -0.1)">
       <defs>
        <path id="LiberationSans-39" d="M 3256 2291 
Q 3256 1156 2842 546 
Q 2428 -63 1663 -63 
Q 1147 -63 836 154 
Q 525 372 391 856 
L 928 941 
Q 1097 391 1672 391 
Q 2156 391 2422 841 
Q 2688 1291 2700 2125 
Q 2575 1844 2272 1673 
Q 1969 1503 1606 1503 
Q 1013 1503 656 1909 
Q 300 2316 300 2988 
Q 300 3678 687 4073 
Q 1075 4469 1766 4469 
Q 2500 4469 2878 3925 
Q 3256 3381 3256 2291 
z
M 2644 2834 
Q 2644 3366 2400 3689 
Q 2156 4013 1747 4013 
Q 1341 4013 1106 3736 
Q 872 3459 872 2988 
Q 872 2506 1106 2226 
Q 1341 1947 1741 1947 
Q 1984 1947 2193 2058 
Q 2403 2169 2523 2372 
Q 2644 2575 2644 2834 
z
" transform="scale(0.015625)"/>
       </defs>
       <use xlink:href="#LiberationSans-38"/>
       <use xlink:href="#LiberationSans-30" x="55.615234"/>
       <use xlink:href="#LiberationSans-2d" x="111.230469"/>
       <use xlink:href="#LiberationSans-39" x="144.53125"/>
       <use xlink:href="#LiberationSans-30" x="200.146484"/>
      </g>
     </g>
    </g>
    <g id="text_10">
     <!-- Slope (degrees) -->
     <g style="fill: #262626" transform="translate(256.069219 374.793437)scale(0.11 -0.11)">
      <defs>
       <path id="LiberationSans-53" d="M 3975 1216 
Q 3975 606 3498 271 
Q 3022 -63 2156 -63 
Q 547 -63 291 1056 
L 869 1172 
Q 969 775 1294 589 
Q 1619 403 2178 403 
Q 2756 403 3070 601 
Q 3384 800 3384 1184 
Q 3384 1400 3286 1534 
Q 3188 1669 3009 1756 
Q 2831 1844 2584 1903 
Q 2338 1963 2038 2031 
Q 1516 2147 1245 2262 
Q 975 2378 819 2520 
Q 663 2663 580 2853 
Q 497 3044 497 3291 
Q 497 3856 930 4162 
Q 1363 4469 2169 4469 
Q 2919 4469 3316 4239 
Q 3713 4009 3872 3456 
L 3284 3353 
Q 3188 3703 2916 3861 
Q 2644 4019 2163 4019 
Q 1634 4019 1356 3844 
Q 1078 3669 1078 3322 
Q 1078 3119 1186 2986 
Q 1294 2853 1497 2761 
Q 1700 2669 2306 2534 
Q 2509 2488 2711 2439 
Q 2913 2391 3097 2323 
Q 3281 2256 3442 2165 
Q 3603 2075 3722 1944 
Q 3841 1813 3908 1634 
Q 3975 1456 3975 1216 
z
" transform="scale(0.015625)"/>
       <path id="LiberationSans-6c" d="M 431 0 
L 431 4638 
L 994 4638 
L 994 0 
L 431 0 
z
" transform="scale(0.015625)"/>
       <path id="LiberationSans-6f" d="M 3291 1694 
Q 3291 806 2900 371 
Q 2509 -63 1766 -63 
Q 1025 -63 647 389 
Q 269 841 269 1694 
Q 269 3444 1784 3444 
Q 2559 3444 2925 3017 
Q 3291 2591 3291 1694 
z
M 2700 1694 
Q 2700 2394 2492 2711 
Q 2284 3028 1794 3028 
Q 1300 3028 1079 2704 
Q 859 2381 859 1694 
Q 859 1025 1076 689 
Q 1294 353 1759 353 
Q 2266 353 2483 678 
Q 2700 1003 2700 1694 
z
" transform="scale(0.015625)"/>
       <path id="LiberationSans-70" d="M 3291 1706 
Q 3291 -63 2047 -63 
Q 1266 -63 997 525 
L 981 525 
Q 994 500 994 -6 
L 994 -1328 
L 431 -1328 
L 431 2691 
Q 431 3213 413 3381 
L 956 3381 
Q 959 3369 965 3292 
Q 972 3216 980 3056 
Q 988 2897 988 2838 
L 1000 2838 
Q 1150 3150 1397 3295 
Q 1644 3441 2047 3441 
Q 2672 3441 2981 3022 
Q 3291 2603 3291 1706 
z
M 2700 1694 
Q 2700 2400 2509 2703 
Q 2319 3006 1903 3006 
Q 1569 3006 1380 2865 
Q 1191 2725 1092 2426 
Q 994 2128 994 1650 
Q 994 984 1206 668 
Q 1419 353 1897 353 
Q 2316 353 2508 661 
Q 2700 969 2700 1694 
z
" transform="scale(0.015625)"/>
       <path id="LiberationSans-65" d="M 863 1572 
Q 863 991 1103 675 
Q 1344 359 1806 359 
Q 2172 359 2392 506 
Q 2613 653 2691 878 
L 3184 738 
Q 2881 -63 1806 -63 
Q 1056 -63 664 384 
Q 272 831 272 1713 
Q 272 2550 664 2997 
Q 1056 3444 1784 3444 
Q 3275 3444 3275 1647 
L 3275 1572 
L 863 1572 
z
M 2694 2003 
Q 2647 2538 2422 2783 
Q 2197 3028 1775 3028 
Q 1366 3028 1127 2754 
Q 888 2481 869 2003 
L 2694 2003 
z
" transform="scale(0.015625)"/>
       <path id="LiberationSans-20" transform="scale(0.015625)"/>
       <path id="LiberationSans-28" d="M 397 1663 
Q 397 2566 680 3284 
Q 963 4003 1550 4638 
L 2094 4638 
Q 1509 3988 1236 3256 
Q 963 2525 963 1656 
Q 963 791 1233 62 
Q 1503 -666 2094 -1325 
L 1550 -1325 
Q 959 -688 678 32 
Q 397 753 397 1650 
L 397 1663 
z
" transform="scale(0.015625)"/>
       <path id="LiberationSans-64" d="M 2566 544 
Q 2409 219 2151 78 
Q 1894 -63 1513 -63 
Q 872 -63 570 368 
Q 269 800 269 1675 
Q 269 3444 1513 3444 
Q 1897 3444 2153 3303 
Q 2409 3163 2566 2856 
L 2572 2856 
L 2566 3234 
L 2566 4638 
L 3128 4638 
L 3128 697 
Q 3128 169 3147 0 
L 2609 0 
Q 2600 50 2589 231 
Q 2578 413 2578 544 
L 2566 544 
z
M 859 1694 
Q 859 984 1046 678 
Q 1234 372 1656 372 
Q 2134 372 2350 703 
Q 2566 1034 2566 1731 
Q 2566 2403 2350 2715 
Q 2134 3028 1663 3028 
Q 1238 3028 1048 2714 
Q 859 2400 859 1694 
z
" transform="scale(0.015625)"/>
       <path id="LiberationSans-67" d="M 1713 -1328 
Q 1159 -1328 831 -1111 
Q 503 -894 409 -494 
L 975 -413 
Q 1031 -647 1223 -773 
Q 1416 -900 1728 -900 
Q 2569 -900 2569 84 
L 2569 628 
L 2563 628 
Q 2403 303 2125 139 
Q 1847 -25 1475 -25 
Q 853 -25 561 387 
Q 269 800 269 1684 
Q 269 2581 583 3007 
Q 897 3434 1538 3434 
Q 1897 3434 2161 3270 
Q 2425 3106 2569 2803 
L 2575 2803 
Q 2575 2897 2587 3128 
Q 2600 3359 2613 3381 
L 3147 3381 
Q 3128 3213 3128 2681 
L 3128 97 
Q 3128 -1328 1713 -1328 
z
M 2569 1691 
Q 2569 2103 2456 2401 
Q 2344 2700 2139 2858 
Q 1934 3016 1675 3016 
Q 1244 3016 1047 2703 
Q 850 2391 850 1691 
Q 850 997 1034 694 
Q 1219 391 1666 391 
Q 1931 391 2137 547 
Q 2344 703 2456 995 
Q 2569 1288 2569 1691 
z
" transform="scale(0.015625)"/>
       <path id="LiberationSans-72" d="M 444 0 
L 444 2594 
Q 444 2950 425 3381 
L 956 3381 
Q 981 2806 981 2691 
L 994 2691 
Q 1128 3125 1303 3284 
Q 1478 3444 1797 3444 
Q 1909 3444 2025 3413 
L 2025 2897 
Q 1913 2928 1725 2928 
Q 1375 2928 1190 2626 
Q 1006 2325 1006 1763 
L 1006 0 
L 444 0 
z
" transform="scale(0.015625)"/>
       <path id="LiberationSans-73" d="M 2969 934 
Q 2969 456 2608 196 
Q 2247 -63 1597 -63 
Q 966 -63 623 145 
Q 281 353 178 794 
L 675 891 
Q 747 619 972 492 
Q 1197 366 1597 366 
Q 2025 366 2223 497 
Q 2422 628 2422 891 
Q 2422 1091 2284 1216 
Q 2147 1341 1841 1422 
L 1438 1528 
Q 953 1653 748 1773 
Q 544 1894 428 2066 
Q 313 2238 313 2488 
Q 313 2950 642 3192 
Q 972 3434 1603 3434 
Q 2163 3434 2492 3237 
Q 2822 3041 2909 2606 
L 2403 2544 
Q 2356 2769 2151 2889 
Q 1947 3009 1603 3009 
Q 1222 3009 1040 2893 
Q 859 2778 859 2544 
Q 859 2400 934 2306 
Q 1009 2213 1156 2147 
Q 1303 2081 1775 1966 
Q 2222 1853 2419 1758 
Q 2616 1663 2730 1547 
Q 2844 1431 2906 1279 
Q 2969 1128 2969 934 
z
" transform="scale(0.015625)"/>
       <path id="LiberationSans-29" d="M 1734 1650 
Q 1734 747 1451 28 
Q 1169 -691 581 -1325 
L 38 -1325 
Q 625 -669 897 57 
Q 1169 784 1169 1656 
Q 1169 2528 895 3256 
Q 622 3984 38 4638 
L 581 4638 
Q 1172 4000 1453 3279 
Q 1734 2559 1734 1663 
L 1734 1650 
z
" transform="scale(0.015625)"/>
      </defs>
      <use xlink:href="#LiberationSans-53"/>
      <use xlink:href="#LiberationSans-6c" x="66.699219"/>
      <use xlink:href="#LiberationSans-6f" x="88.916016"/>
      <use xlink:href="#LiberationSans-70" x="144.53125"/>
      <use xlink:href="#LiberationSans-65" x="200.146484"/>
      <use xlink:href="#LiberationSans-20" x="255.761719"/>
      <use xlink:href="#LiberationSans-28" x="283.544922"/>
      <use xlink:href="#LiberationSans-64" x="316.845703"/>
      <use xlink:href="#LiberationSans-65" x="372.460938"/>
      <use xlink:href="#LiberationSans-67" x="428.076172"/>
      <use xlink:href="#LiberationSans-72" x="483.691406"/>
      <use xlink:href="#LiberationSans-65" x="516.992188"/>
      <use xlink:href="#LiberationSans-65" x="572.607422"/>
      <use xlink:href="#LiberationSans-73" x="628.222656"/>
      <use xlink:href="#LiberationSans-29" x="678.222656"/>
     </g>
    </g>
   </g>
   <g id="matplotlib.axis_2">
    <g id="ytick_1">
     <g id="line2d_10">
      <path d="M 72 323.919357 
L 518.4 323.919357 
" clip-path="url(#pabcc1e193d)" style="fill: none; stroke: #cccccc; stroke-linecap: round"/>
     </g>
     <g id="line2d_11"/>
     <g id="text_11">
      <!-- 0 -->
      <g style="fill: #262626" transform="translate(59.439062 327.542795)scale(0.1 -0.1)">
       <use xlink:href="#LiberationSans-30"/>
      </g>
     </g>
    </g>
    <g id="ytick_2">
     <g id="line2d_12">
      <path d="M 72 273.956708 
L 518.4 273.956708 
" clip-path="url(#pabcc1e193d)" style="fill: none; stroke: #cccccc; stroke-linecap: round"/>
     </g>
     <g id="line2d_13"/>
     <g id="text_12">
      <!-- 2 -->
      <g style="fill: #262626" transform="translate(59.439062 277.580146)scale(0.1 -0.1)">
       <use xlink:href="#LiberationSans-32"/>
      </g>
     </g>
    </g>
    <g id="ytick_3">
     <g id="line2d_14">
      <path d="M 72 223.994059 
L 518.4 223.994059 
" clip-path="url(#pabcc1e193d)" style="fill: none; stroke: #cccccc; stroke-linecap: round"/>
     </g>
     <g id="line2d_15"/>
     <g id="text_13">
      <!-- 4 -->
      <g style="fill: #262626" transform="translate(59.439062 227.617496)scale(0.1 -0.1)">
       <use xlink:href="#LiberationSans-34"/>
      </g>
     </g>
    </g>
    <g id="ytick_4">
     <g id="line2d_16">
      <path d="M 72 174.03141 
L 518.4 174.03141 
" clip-path="url(#pabcc1e193d)" style="fill: none; stroke: #cccccc; stroke-linecap: round"/>
     </g>
     <g id="line2d_17"/>
     <g id="text_14">
      <!-- 6 -->
      <g style="fill: #262626" transform="translate(59.439062 177.654847)scale(0.1 -0.1)">
       <use xlink:href="#LiberationSans-36"/>
      </g>
     </g>
    </g>
    <g id="ytick_5">
     <g id="line2d_18">
      <path d="M 72 124.068761 
L 518.4 124.068761 
" clip-path="url(#pabcc1e193d)" style="fill: none; stroke: #cccccc; stroke-linecap: round"/>
     </g>
     <g id="line2d_19"/>
     <g id="text_15">
      <!-- 8 -->
      <g style="fill: #262626" transform="translate(59.439062 127.692198)scale(0.1 -0.1)">
       <use xlink:href="#LiberationSans-38"/>
      </g>
     </g>
    </g>
    <g id="ytick_6">
     <g id="line2d_20">
      <path d="M 72 74.106111 
L 518.4 74.106111 
" clip-path="url(#pabcc1e193d)" style="fill: none; stroke: #cccccc; stroke-linecap: round"/>
     </g>
     <g id="line2d_21"/>
     <g id="text_16">
      <!-- 10 -->
      <g style="fill: #262626" transform="translate(53.878125 77.729549)scale(0.1 -0.1)">
       <use xlink:href="#LiberationSans-31"/>
       <use xlink:href="#LiberationSans-30" x="55.615234"/>
      </g>
     </g>
    </g>
    <g id="text_17">
     <!-- VE / VF -->
     <g style="fill: #262626" transform="translate(47.595625 215.959219)rotate(-90)scale(0.11 -0.11)">
      <defs>
       <path id="LiberationSans-56" d="M 2444 0 
L 1825 0 
L 28 4403 
L 656 4403 
L 1875 1303 
L 2138 525 
L 2400 1303 
L 3613 4403 
L 4241 4403 
L 2444 0 
z
" transform="scale(0.015625)"/>
       <path id="LiberationSans-45" d="M 525 0 
L 525 4403 
L 3866 4403 
L 3866 3916 
L 1122 3916 
L 1122 2503 
L 3678 2503 
L 3678 2022 
L 1122 2022 
L 1122 488 
L 3994 488 
L 3994 0 
L 525 0 
z
" transform="scale(0.015625)"/>
       <path id="LiberationSans-2f" d="M 0 -63 
L 1284 4638 
L 1778 4638 
L 506 -63 
L 0 -63 
z
" transform="scale(0.015625)"/>
       <path id="LiberationSans-46" d="M 1122 3916 
L 1122 2278 
L 3578 2278 
L 3578 1784 
L 1122 1784 
L 1122 0 
L 525 0 
L 525 4403 
L 3653 4403 
L 3653 3916 
L 1122 3916 
z
" transform="scale(0.015625)"/>
      </defs>
      <use xlink:href="#LiberationSans-56"/>
      <use xlink:href="#LiberationSans-45" x="66.699219"/>
      <use xlink:href="#LiberationSans-20" x="133.398438"/>
      <use xlink:href="#LiberationSans-2f" x="161.181641"/>
      <use xlink:href="#LiberationSans-20" x="188.964844"/>
      <use xlink:href="#LiberationSans-56" x="216.748047"/>
      <use xlink:href="#LiberationSans-46" x="283.447266"/>
     </g>
    </g>
   </g>
   <g id="PolyCollection_1">
    <defs>
     <path id="m15860a63c5" d="M 96.811139 -63.09 
L 96.788861 -63.09 
L 96.768274 -65.835455 
L 96.721346 -68.580909 
L 96.62934 -71.326364 
L 96.473985 -74.071818 
L 96.24827 -76.817273 
L 95.96753 -79.562727 
L 95.672625 -82.308182 
L 95.419534 -85.053636 
L 95.258279 -87.799091 
L 95.212589 -90.544545 
L 95.272308 -93.29 
L 95.401959 -96.035455 
L 95.558496 -98.780909 
L 95.707303 -101.526364 
L 95.829544 -104.271818 
L 95.920964 -107.017273 
L 95.98647 -109.762727 
L 96.034632 -112.508182 
L 96.073821 -115.253636 
L 96.110123 -117.999091 
L 96.146775 -120.744545 
L 96.184717 -123.49 
L 96.223594 -126.235455 
L 96.262612 -128.980909 
L 96.301058 -131.726364 
L 96.338481 -134.471818 
L 96.374522 -137.217273 
L 96.408553 -139.962727 
L 96.439568 -142.708182 
L 96.466665 -145.453636 
L 96.489755 -148.199091 
L 96.50982 -150.944545 
L 96.528432 -153.69 
L 96.546992 -156.435455 
L 96.566216 -159.180909 
L 96.586037 -161.926364 
L 96.605814 -164.671818 
L 96.624623 -167.417273 
L 96.64146 -170.162727 
L 96.655451 -172.908182 
L 96.666216 -175.653636 
L 96.674229 -178.399091 
L 96.680788 -181.144545 
L 96.687461 -183.89 
L 96.695384 -186.635455 
L 96.704849 -189.380909 
L 96.715342 -192.126364 
L 96.725838 -194.871818 
L 96.735198 -197.617273 
L 96.742548 -200.362727 
L 96.747567 -203.108182 
L 96.750546 -205.853636 
L 96.752204 -208.599091 
L 96.753401 -211.344545 
L 96.754952 -214.09 
L 96.757491 -216.835455 
L 96.761256 -219.580909 
L 96.765869 -222.326364 
L 96.770429 -225.071818 
L 96.773947 -227.817273 
L 96.775798 -230.562727 
L 96.775879 -233.308182 
L 96.77454 -236.053636 
L 96.772467 -238.799091 
L 96.770471 -241.544545 
L 96.76914 -244.29 
L 96.768564 -247.035455 
L 96.768432 -249.780909 
L 96.768411 -252.526364 
L 96.768434 -255.271818 
L 96.768676 -258.017273 
L 96.769286 -260.762727 
L 96.770191 -263.508182 
L 96.77115 -266.253636 
L 96.772004 -268.999091 
L 96.772871 -271.744545 
L 96.774063 -274.49 
L 96.775784 -277.235455 
L 96.777894 -279.980909 
L 96.779958 -282.726364 
L 96.781523 -285.471818 
L 96.782393 -288.217273 
L 96.78271 -290.962727 
L 96.782828 -293.708182 
L 96.783103 -296.453636 
L 96.783734 -299.199091 
L 96.784704 -301.944545 
L 96.785823 -304.69 
L 96.786838 -307.435455 
L 96.787589 -310.180909 
L 96.788153 -312.926364 
L 96.788855 -315.671818 
L 96.790065 -318.417273 
L 96.791913 -321.162727 
L 96.794149 -323.908182 
L 96.796305 -326.653636 
L 96.797984 -329.399091 
L 96.799057 -332.144545 
L 96.799623 -334.89 
L 96.800377 -334.89 
L 96.800377 -334.89 
L 96.800943 -332.144545 
L 96.802016 -329.399091 
L 96.803695 -326.653636 
L 96.805851 -323.908182 
L 96.808087 -321.162727 
L 96.809935 -318.417273 
L 96.811145 -315.671818 
L 96.811847 -312.926364 
L 96.812411 -310.180909 
L 96.813162 -307.435455 
L 96.814177 -304.69 
L 96.815296 -301.944545 
L 96.816266 -299.199091 
L 96.816897 -296.453636 
L 96.817172 -293.708182 
L 96.81729 -290.962727 
L 96.817607 -288.217273 
L 96.818477 -285.471818 
L 96.820042 -282.726364 
L 96.822106 -279.980909 
L 96.824216 -277.235455 
L 96.825937 -274.49 
L 96.827129 -271.744545 
L 96.827996 -268.999091 
L 96.82885 -266.253636 
L 96.829809 -263.508182 
L 96.830714 -260.762727 
L 96.831324 -258.017273 
L 96.831566 -255.271818 
L 96.831589 -252.526364 
L 96.831568 -249.780909 
L 96.831436 -247.035455 
L 96.83086 -244.29 
L 96.829529 -241.544545 
L 96.827533 -238.799091 
L 96.82546 -236.053636 
L 96.824121 -233.308182 
L 96.824202 -230.562727 
L 96.826053 -227.817273 
L 96.829571 -225.071818 
L 96.834131 -222.326364 
L 96.838744 -219.580909 
L 96.842509 -216.835455 
L 96.845048 -214.09 
L 96.846599 -211.344545 
L 96.847796 -208.599091 
L 96.849454 -205.853636 
L 96.852433 -203.108182 
L 96.857452 -200.362727 
L 96.864802 -197.617273 
L 96.874162 -194.871818 
L 96.884658 -192.126364 
L 96.895151 -189.380909 
L 96.904616 -186.635455 
L 96.912539 -183.89 
L 96.919212 -181.144545 
L 96.925771 -178.399091 
L 96.933784 -175.653636 
L 96.944549 -172.908182 
L 96.95854 -170.162727 
L 96.975377 -167.417273 
L 96.994186 -164.671818 
L 97.013963 -161.926364 
L 97.033784 -159.180909 
L 97.053008 -156.435455 
L 97.071568 -153.69 
L 97.09018 -150.944545 
L 97.110245 -148.199091 
L 97.133335 -145.453636 
L 97.160432 -142.708182 
L 97.191447 -139.962727 
L 97.225478 -137.217273 
L 97.261519 -134.471818 
L 97.298942 -131.726364 
L 97.337388 -128.980909 
L 97.376406 -126.235455 
L 97.415283 -123.49 
L 97.453225 -120.744545 
L 97.489877 -117.999091 
L 97.526179 -115.253636 
L 97.565368 -112.508182 
L 97.61353 -109.762727 
L 97.679036 -107.017273 
L 97.770456 -104.271818 
L 97.892697 -101.526364 
L 98.041504 -98.780909 
L 98.198041 -96.035455 
L 98.327692 -93.29 
L 98.387411 -90.544545 
L 98.341721 -87.799091 
L 98.180466 -85.053636 
L 97.927375 -82.308182 
L 97.63247 -79.562727 
L 97.35173 -76.817273 
L 97.126015 -74.071818 
L 96.97066 -71.326364 
L 96.878654 -68.580909 
L 96.831726 -65.835455 
L 96.811139 -63.09 
z
" style="stroke: #464646; stroke-width: 1.75"/>
    </defs>
    <g clip-path="url(#pabcc1e193d)">
     <use xlink:href="#m15860a63c5" x="0" y="396" style="fill: #ea96a3; stroke: #464646; stroke-width: 1.75"/>
    </g>
   </g>
   <g id="PolyCollection_2">
    <defs>
     <path id="m35056109c1" d="M 146.400534 -71.197154 
L 146.399466 -71.197154 
L 146.386901 -73.725934 
L 146.298705 -76.254715 
L 146.086119 -78.783495 
L 145.785748 -81.312276 
L 145.251402 -83.841056 
L 144.193668 -86.369837 
L 141.957642 -88.898617 
L 138.444451 -91.427398 
L 135.173049 -93.956179 
L 133.6132 -96.484959 
L 134.333234 -99.01374 
L 136.259812 -101.54252 
L 138.061622 -104.071301 
L 139.530371 -106.600081 
L 140.795909 -109.128862 
L 141.750138 -111.657642 
L 142.447828 -114.186423 
L 143.103163 -116.715203 
L 143.581378 -119.243984 
L 143.970671 -121.772764 
L 144.305036 -124.301545 
L 144.601113 -126.830325 
L 144.899038 -129.359106 
L 145.152129 -131.887886 
L 145.334875 -134.416667 
L 145.496935 -136.945447 
L 145.622494 -139.474228 
L 145.742341 -142.003009 
L 145.851861 -144.531789 
L 145.943165 -147.06057 
L 146.025747 -149.58935 
L 146.091127 -152.118131 
L 146.137421 -154.646911 
L 146.175345 -157.175692 
L 146.209949 -159.704472 
L 146.229961 -162.233253 
L 146.252748 -164.762033 
L 146.267078 -167.290814 
L 146.302146 -169.819594 
L 146.333012 -172.348375 
L 146.339716 -174.877155 
L 146.334935 -177.405936 
L 146.341738 -179.934716 
L 146.349143 -182.463497 
L 146.353849 -184.992277 
L 146.359808 -187.521058 
L 146.361321 -190.049839 
L 146.36382 -192.578619 
L 146.374797 -195.1074 
L 146.375224 -197.63618 
L 146.374951 -200.164961 
L 146.377175 -202.693741 
L 146.384078 -205.222522 
L 146.389373 -207.751302 
L 146.389467 -210.280083 
L 146.389592 -212.808863 
L 146.382637 -215.337644 
L 146.381951 -217.866424 
L 146.388321 -220.395205 
L 146.390938 -222.923985 
L 146.39543 -225.452766 
L 146.392233 -227.981546 
L 146.395023 -230.510327 
L 146.395753 -233.039107 
L 146.396652 -235.567888 
L 146.396863 -238.096669 
L 146.395545 -240.625449 
L 146.394506 -243.15423 
L 146.396085 -245.68301 
L 146.39843 -248.211791 
L 146.399549 -250.740571 
L 146.399276 -253.269352 
L 146.399108 -255.798132 
L 146.399858 -258.326913 
L 146.399992 -260.855693 
L 146.399744 -263.384474 
L 146.398274 -265.913254 
L 146.398215 -268.442035 
L 146.398802 -270.970815 
L 146.399546 -273.499596 
L 146.399975 -276.028376 
L 146.399972 -278.557157 
L 146.399522 -281.085937 
L 146.398976 -283.614718 
L 146.399715 -286.143499 
L 146.399694 -288.672279 
L 146.398324 -291.20106 
L 146.398544 -293.72984 
L 146.399807 -296.258621 
L 146.399996 -298.787401 
L 146.39998 -301.316182 
L 146.399599 -303.844962 
L 146.398959 -306.373743 
L 146.399659 -308.902523 
L 146.399985 -311.431304 
L 146.399928 -313.960084 
L 146.39929 -316.488865 
L 146.39911 -319.017645 
L 146.399859 -321.546426 
L 146.400141 -321.546426 
L 146.400141 -321.546426 
L 146.40089 -319.017645 
L 146.40071 -316.488865 
L 146.400072 -313.960084 
L 146.400015 -311.431304 
L 146.400341 -308.902523 
L 146.401041 -306.373743 
L 146.400401 -303.844962 
L 146.40002 -301.316182 
L 146.400004 -298.787401 
L 146.400193 -296.258621 
L 146.401456 -293.72984 
L 146.401676 -291.20106 
L 146.400306 -288.672279 
L 146.400285 -286.143499 
L 146.401024 -283.614718 
L 146.400478 -281.085937 
L 146.400028 -278.557157 
L 146.400025 -276.028376 
L 146.400454 -273.499596 
L 146.401198 -270.970815 
L 146.401785 -268.442035 
L 146.401726 -265.913254 
L 146.400256 -263.384474 
L 146.400008 -260.855693 
L 146.400142 -258.326913 
L 146.400892 -255.798132 
L 146.400724 -253.269352 
L 146.400451 -250.740571 
L 146.40157 -248.211791 
L 146.403915 -245.68301 
L 146.405494 -243.15423 
L 146.404455 -240.625449 
L 146.403137 -238.096669 
L 146.403348 -235.567888 
L 146.404247 -233.039107 
L 146.404977 -230.510327 
L 146.407767 -227.981546 
L 146.40457 -225.452766 
L 146.409062 -222.923985 
L 146.411679 -220.395205 
L 146.418049 -217.866424 
L 146.417363 -215.337644 
L 146.410408 -212.808863 
L 146.410533 -210.280083 
L 146.410627 -207.751302 
L 146.415922 -205.222522 
L 146.422825 -202.693741 
L 146.425049 -200.164961 
L 146.424776 -197.63618 
L 146.425203 -195.1074 
L 146.43618 -192.578619 
L 146.438679 -190.049839 
L 146.440192 -187.521058 
L 146.446151 -184.992277 
L 146.450857 -182.463497 
L 146.458262 -179.934716 
L 146.465065 -177.405936 
L 146.460284 -174.877155 
L 146.466988 -172.348375 
L 146.497854 -169.819594 
L 146.532922 -167.290814 
L 146.547252 -164.762033 
L 146.570039 -162.233253 
L 146.590051 -159.704472 
L 146.624655 -157.175692 
L 146.662579 -154.646911 
L 146.708873 -152.118131 
L 146.774253 -149.58935 
L 146.856835 -147.06057 
L 146.948139 -144.531789 
L 147.057659 -142.003009 
L 147.177506 -139.474228 
L 147.303065 -136.945447 
L 147.465125 -134.416667 
L 147.647871 -131.887886 
L 147.900962 -129.359106 
L 148.198887 -126.830325 
L 148.494964 -124.301545 
L 148.829329 -121.772764 
L 149.218622 -119.243984 
L 149.696837 -116.715203 
L 150.352172 -114.186423 
L 151.049862 -111.657642 
L 152.004091 -109.128862 
L 153.269629 -106.600081 
L 154.738378 -104.071301 
L 156.540188 -101.54252 
L 158.466766 -99.01374 
L 159.1868 -96.484959 
L 157.626951 -93.956179 
L 154.355549 -91.427398 
L 150.842358 -88.898617 
L 148.606332 -86.369837 
L 147.548598 -83.841056 
L 147.014252 -81.312276 
L 146.713881 -78.783495 
L 146.501295 -76.254715 
L 146.413099 -73.725934 
L 146.400534 -71.197154 
z
" style="stroke: #464646; stroke-width: 1.75"/>
    </defs>
    <g clip-path="url(#pabcc1e193d)">
     <use xlink:href="#m35056109c1" x="0" y="396" style="fill: #d1964d; stroke: #464646; stroke-width: 1.75"/>
    </g>
   </g>
   <g id="PolyCollection_3">
    <defs>
     <path id="mc78e561a07" d="M 196.000941 -70.542593 
L 195.999059 -70.542593 
L 195.991029 -72.185045 
L 195.959357 -73.827497 
L 195.893657 -75.469949 
L 195.816239 -77.112401 
L 195.749684 -78.754853 
L 195.616255 -80.397305 
L 195.247018 -82.039757 
L 194.388957 -83.68221 
L 192.848818 -85.324662 
L 190.561499 -86.967114 
L 187.666102 -88.609566 
L 184.558591 -90.252018 
L 181.60495 -91.89447 
L 179.268378 -93.536922 
L 177.775143 -95.179374 
L 176.84619 -96.821826 
L 176.30112 -98.464278 
L 176.16 -100.10673 
L 176.50038 -101.749183 
L 177.343614 -103.391635 
L 178.398978 -105.034087 
L 179.465886 -106.676539 
L 180.54404 -108.318991 
L 181.638966 -109.961443 
L 182.755487 -111.603895 
L 183.899845 -113.246347 
L 184.994016 -114.888799 
L 185.98598 -116.531251 
L 186.944427 -118.173704 
L 187.904502 -119.816156 
L 188.809623 -121.458608 
L 189.592966 -123.10106 
L 190.215725 -124.743512 
L 190.810168 -126.385964 
L 191.407069 -128.028416 
L 191.953948 -129.670868 
L 192.449651 -131.31332 
L 192.890456 -132.955772 
L 193.275194 -134.598225 
L 193.604763 -136.240677 
L 193.872754 -137.883129 
L 194.108272 -139.525581 
L 194.331205 -141.168033 
L 194.514395 -142.810485 
L 194.652195 -144.452937 
L 194.799605 -146.095389 
L 194.975819 -147.737841 
L 195.130149 -149.380293 
L 195.251559 -151.022746 
L 195.342282 -152.665198 
L 195.407262 -154.30765 
L 195.476614 -155.950102 
L 195.549497 -157.592554 
L 195.579591 -159.235006 
L 195.602241 -160.877458 
L 195.64887 -162.51991 
L 195.698865 -164.162362 
L 195.737094 -165.804814 
L 195.752945 -167.447266 
L 195.759596 -169.089719 
L 195.775866 -170.732171 
L 195.79247 -172.374623 
L 195.796844 -174.017075 
L 195.799027 -175.659527 
L 195.82092 -177.301979 
L 195.846787 -178.944431 
L 195.869385 -180.586883 
L 195.89246 -182.229335 
L 195.898881 -183.871787 
L 195.901784 -185.51424 
L 195.913458 -187.156692 
L 195.9224 -188.799144 
L 195.924954 -190.441596 
L 195.935584 -192.084048 
L 195.943807 -193.7265 
L 195.94641 -195.368952 
L 195.951291 -197.011404 
L 195.960155 -198.653856 
L 195.971038 -200.296308 
L 195.973934 -201.938761 
L 195.977365 -203.581213 
L 195.985401 -205.223665 
L 195.986823 -206.866117 
L 195.985015 -208.508569 
L 195.986405 -210.151021 
L 195.988656 -211.793473 
L 195.990021 -213.435925 
L 195.989432 -215.078377 
L 195.989922 -216.720829 
L 195.993282 -218.363282 
L 195.997282 -220.005734 
L 195.999482 -221.648186 
L 195.99996 -223.290638 
L 195.99999 -224.93309 
L 195.999851 -226.575542 
L 195.99917 -228.217994 
L 195.998436 -229.860446 
L 195.999007 -231.502898 
L 195.999788 -233.14535 
L 196.000212 -233.14535 
L 196.000212 -233.14535 
L 196.000993 -231.502898 
L 196.001564 -229.860446 
L 196.00083 -228.217994 
L 196.000149 -226.575542 
L 196.00001 -224.93309 
L 196.00004 -223.290638 
L 196.000518 -221.648186 
L 196.002718 -220.005734 
L 196.006718 -218.363282 
L 196.010078 -216.720829 
L 196.010568 -215.078377 
L 196.009979 -213.435925 
L 196.011344 -211.793473 
L 196.013595 -210.151021 
L 196.014985 -208.508569 
L 196.013177 -206.866117 
L 196.014599 -205.223665 
L 196.022635 -203.581213 
L 196.026066 -201.938761 
L 196.028962 -200.296308 
L 196.039845 -198.653856 
L 196.048709 -197.011404 
L 196.05359 -195.368952 
L 196.056193 -193.7265 
L 196.064416 -192.084048 
L 196.075046 -190.441596 
L 196.0776 -188.799144 
L 196.086542 -187.156692 
L 196.098216 -185.51424 
L 196.101119 -183.871787 
L 196.10754 -182.229335 
L 196.130615 -180.586883 
L 196.153213 -178.944431 
L 196.17908 -177.301979 
L 196.200973 -175.659527 
L 196.203156 -174.017075 
L 196.20753 -172.374623 
L 196.224134 -170.732171 
L 196.240404 -169.089719 
L 196.247055 -167.447266 
L 196.262906 -165.804814 
L 196.301135 -164.162362 
L 196.35113 -162.51991 
L 196.397759 -160.877458 
L 196.420409 -159.235006 
L 196.450503 -157.592554 
L 196.523386 -155.950102 
L 196.592738 -154.30765 
L 196.657718 -152.665198 
L 196.748441 -151.022746 
L 196.869851 -149.380293 
L 197.024181 -147.737841 
L 197.200395 -146.095389 
L 197.347805 -144.452937 
L 197.485605 -142.810485 
L 197.668795 -141.168033 
L 197.891728 -139.525581 
L 198.127246 -137.883129 
L 198.395237 -136.240677 
L 198.724806 -134.598225 
L 199.109544 -132.955772 
L 199.550349 -131.31332 
L 200.046052 -129.670868 
L 200.592931 -128.028416 
L 201.189832 -126.385964 
L 201.784275 -124.743512 
L 202.407034 -123.10106 
L 203.190377 -121.458608 
L 204.095498 -119.816156 
L 205.055573 -118.173704 
L 206.01402 -116.531251 
L 207.005984 -114.888799 
L 208.100155 -113.246347 
L 209.244513 -111.603895 
L 210.361034 -109.961443 
L 211.45596 -108.318991 
L 212.534114 -106.676539 
L 213.601022 -105.034087 
L 214.656386 -103.391635 
L 215.49962 -101.749183 
L 215.84 -100.10673 
L 215.69888 -98.464278 
L 215.15381 -96.821826 
L 214.224857 -95.179374 
L 212.731622 -93.536922 
L 210.39505 -91.89447 
L 207.441409 -90.252018 
L 204.333898 -88.609566 
L 201.438501 -86.967114 
L 199.151182 -85.324662 
L 197.611043 -83.68221 
L 196.752982 -82.039757 
L 196.383745 -80.397305 
L 196.250316 -78.754853 
L 196.183761 -77.112401 
L 196.106343 -75.469949 
L 196.040643 -73.827497 
L 196.008971 -72.185045 
L 196.000941 -70.542593 
z
" style="stroke: #464646; stroke-width: 1.75"/>
    </defs>
    <g clip-path="url(#pabcc1e193d)">
     <use xlink:href="#mc78e561a07" x="0" y="396" style="fill: #a29f46; stroke: #464646; stroke-width: 1.75"/>
    </g>
   </g>
   <g id="PolyCollection_4">
    <defs>
     <path id="m41c5af5554" d="M 245.601057 -69.473069 
L 245.598943 -69.473069 
L 245.595629 -70.971244 
L 245.587078 -72.46942 
L 245.571006 -73.967595 
L 245.547019 -75.465771 
L 245.51496 -76.963946 
L 245.468564 -78.462122 
L 245.385017 -79.960297 
L 245.214645 -81.458472 
L 244.874361 -82.956648 
L 244.267561 -84.454823 
L 243.353582 -85.952999 
L 242.215652 -87.451174 
L 241.039923 -88.94935 
L 240.004556 -90.447525 
L 239.19628 -91.9457 
L 238.626004 -93.443876 
L 238.27218 -94.942051 
L 238.110227 -96.440227 
L 238.121167 -97.938402 
L 238.254267 -99.436578 
L 238.416277 -100.934753 
L 238.520185 -102.432928 
L 238.505137 -103.931104 
L 238.353538 -105.429279 
L 238.111262 -106.927455 
L 237.829333 -108.42563 
L 237.517269 -109.923806 
L 237.199014 -111.421981 
L 236.966773 -112.920156 
L 236.921709 -114.418332 
L 237.053 -115.916507 
L 237.238042 -117.414683 
L 237.416066 -118.912858 
L 237.660221 -120.411033 
L 238.016928 -121.909209 
L 238.417126 -123.407384 
L 238.797349 -124.90556 
L 239.174407 -126.403735 
L 239.577824 -127.901911 
L 240.001087 -129.400086 
L 240.4112 -130.898261 
L 240.791085 -132.396437 
L 241.172142 -133.894612 
L 241.58404 -135.392788 
L 242.005306 -136.890963 
L 242.395064 -138.389139 
L 242.735559 -139.887314 
L 243.032243 -141.385489 
L 243.293459 -142.883665 
L 243.526498 -144.38184 
L 243.743689 -145.880016 
L 243.949031 -147.378191 
L 244.133418 -148.876367 
L 244.290589 -150.374542 
L 244.420702 -151.872717 
L 244.528965 -153.370893 
L 244.628244 -154.869068 
L 244.729011 -156.367244 
L 244.826387 -157.865419 
L 244.911666 -159.363595 
L 244.986564 -160.86177 
L 245.051784 -162.359945 
L 245.10038 -163.858121 
L 245.131834 -165.356296 
L 245.157807 -166.854472 
L 245.190829 -168.352647 
L 245.231858 -169.850823 
L 245.270543 -171.348998 
L 245.298834 -172.847173 
L 245.318301 -174.345349 
L 245.333201 -175.843524 
L 245.347727 -177.3417 
L 245.367362 -178.839875 
L 245.393372 -180.338051 
L 245.420714 -181.836226 
L 245.445723 -183.334401 
L 245.468223 -184.832577 
L 245.485879 -186.330752 
L 245.497344 -187.828928 
L 245.506137 -189.327103 
L 245.515278 -190.825279 
L 245.525834 -192.323454 
L 245.537665 -193.821629 
L 245.548209 -195.319805 
L 245.555896 -196.81798 
L 245.561927 -198.316156 
L 245.567293 -199.814331 
L 245.572086 -201.312507 
L 245.577189 -202.810682 
L 245.583324 -204.308857 
L 245.588998 -205.807033 
L 245.592377 -207.305208 
L 245.593605 -208.803384 
L 245.593892 -210.301559 
L 245.594389 -211.799735 
L 245.595731 -213.29791 
L 245.597554 -214.796085 
L 245.599 -216.294261 
L 245.599718 -217.792436 
L 245.600282 -217.792436 
L 245.600282 -217.792436 
L 245.601 -216.294261 
L 245.602446 -214.796085 
L 245.604269 -213.29791 
L 245.605611 -211.799735 
L 245.606108 -210.301559 
L 245.606395 -208.803384 
L 245.607623 -207.305208 
L 245.611002 -205.807033 
L 245.616676 -204.308857 
L 245.622811 -202.810682 
L 245.627914 -201.312507 
L 245.632707 -199.814331 
L 245.638073 -198.316156 
L 245.644104 -196.81798 
L 245.651791 -195.319805 
L 245.662335 -193.821629 
L 245.674166 -192.323454 
L 245.684722 -190.825279 
L 245.693863 -189.327103 
L 245.702656 -187.828928 
L 245.714121 -186.330752 
L 245.731777 -184.832577 
L 245.754277 -183.334401 
L 245.779286 -181.836226 
L 245.806628 -180.338051 
L 245.832638 -178.839875 
L 245.852273 -177.3417 
L 245.866799 -175.843524 
L 245.881699 -174.345349 
L 245.901166 -172.847173 
L 245.929457 -171.348998 
L 245.968142 -169.850823 
L 246.009171 -168.352647 
L 246.042193 -166.854472 
L 246.068166 -165.356296 
L 246.09962 -163.858121 
L 246.148216 -162.359945 
L 246.213436 -160.86177 
L 246.288334 -159.363595 
L 246.373613 -157.865419 
L 246.470989 -156.367244 
L 246.571756 -154.869068 
L 246.671035 -153.370893 
L 246.779298 -151.872717 
L 246.909411 -150.374542 
L 247.066582 -148.876367 
L 247.250969 -147.378191 
L 247.456311 -145.880016 
L 247.673502 -144.38184 
L 247.906541 -142.883665 
L 248.167757 -141.385489 
L 248.464441 -139.887314 
L 248.804936 -138.389139 
L 249.194694 -136.890963 
L 249.61596 -135.392788 
L 250.027858 -133.894612 
L 250.408915 -132.396437 
L 250.7888 -130.898261 
L 251.198913 -129.400086 
L 251.622176 -127.901911 
L 252.025593 -126.403735 
L 252.402651 -124.90556 
L 252.782874 -123.407384 
L 253.183072 -121.909209 
L 253.539779 -120.411033 
L 253.783934 -118.912858 
L 253.961958 -117.414683 
L 254.147 -115.916507 
L 254.278291 -114.418332 
L 254.233227 -112.920156 
L 254.000986 -111.421981 
L 253.682731 -109.923806 
L 253.370667 -108.42563 
L 253.088738 -106.927455 
L 252.846462 -105.429279 
L 252.694863 -103.931104 
L 252.679815 -102.432928 
L 252.783723 -100.934753 
L 252.945733 -99.436578 
L 253.078833 -97.938402 
L 253.089773 -96.440227 
L 252.92782 -94.942051 
L 252.573996 -93.443876 
L 252.00372 -91.9457 
L 251.195444 -90.447525 
L 250.160077 -88.94935 
L 248.984348 -87.451174 
L 247.846418 -85.952999 
L 246.932439 -84.454823 
L 246.325639 -82.956648 
L 245.985355 -81.458472 
L 245.814983 -79.960297 
L 245.731436 -78.462122 
L 245.68504 -76.963946 
L 245.652981 -75.465771 
L 245.628994 -73.967595 
L 245.612922 -72.46942 
L 245.604371 -70.971244 
L 245.601057 -69.473069 
z
" style="stroke: #464646; stroke-width: 1.75"/>
    </defs>
    <g clip-path="url(#pabcc1e193d)">
     <use xlink:href="#m41c5af5554" x="0" y="396" style="fill: #60ae47; stroke: #464646; stroke-width: 1.75"/>
    </g>
   </g>
   <g id="PolyCollection_5">
    <defs>
     <path id="md192358621" d="M 295.200325 -70.32109 
L 295.199675 -70.32109 
L 295.199096 -71.954086 
L 295.197728 -73.587082 
L 295.194735 -75.220078 
L 295.188508 -76.853074 
L 295.176099 -78.48607 
L 295.152675 -80.119066 
L 295.111736 -81.752062 
L 295.047007 -83.385058 
L 294.955879 -85.018054 
L 294.842338 -86.65105 
L 294.716545 -88.284046 
L 294.590684 -89.917042 
L 294.474442 -91.550038 
L 294.373884 -93.183034 
L 294.293302 -94.81603 
L 294.236235 -96.449026 
L 294.203823 -98.082022 
L 294.192952 -99.715018 
L 294.197099 -101.348014 
L 294.209211 -102.98101 
L 294.223574 -104.614007 
L 294.235327 -106.247003 
L 294.239188 -107.879999 
L 294.229535 -109.512995 
L 294.202268 -111.145991 
L 294.156973 -112.778987 
L 294.097449 -114.411983 
L 294.029991 -116.044979 
L 293.961026 -117.677975 
L 293.896207 -119.310971 
L 293.840891 -120.943967 
L 293.799802 -122.576963 
L 293.775346 -124.209959 
L 293.767157 -125.842955 
L 293.774566 -127.475951 
L 293.799134 -129.108947 
L 293.843424 -130.741943 
L 293.907092 -132.374939 
L 293.985135 -134.007935 
L 294.070133 -135.640931 
L 294.155465 -137.273927 
L 294.236636 -138.906923 
L 294.311453 -140.539919 
L 294.38049 -142.172915 
L 294.446786 -143.805911 
L 294.513446 -145.438907 
L 294.580871 -147.071903 
L 294.646574 -148.704899 
L 294.707743 -150.337895 
L 294.763581 -151.970891 
L 294.815077 -153.603888 
L 294.863039 -155.236884 
L 294.906755 -156.86988 
L 294.944348 -158.502876 
L 294.974086 -160.135872 
L 294.995509 -161.768868 
L 295.009838 -163.401864 
L 295.019592 -165.03486 
L 295.027644 -166.667856 
L 295.036191 -168.300852 
L 295.046211 -169.933848 
L 295.057551 -171.566844 
L 295.069304 -173.19984 
L 295.080186 -174.832836 
L 295.089018 -176.465832 
L 295.095367 -178.098828 
L 295.099867 -179.731824 
L 295.10383 -181.36482 
L 295.108383 -182.997816 
L 295.113828 -184.630812 
L 295.119701 -186.263808 
L 295.125389 -187.896804 
L 295.130685 -189.5298 
L 295.135881 -191.162796 
L 295.141409 -192.795792 
L 295.147405 -194.428788 
L 295.153538 -196.061784 
L 295.159199 -197.69478 
L 295.163888 -199.327776 
L 295.167494 -200.960772 
L 295.170304 -202.593768 
L 295.172853 -204.226765 
L 295.175719 -205.859761 
L 295.179259 -207.492757 
L 295.183399 -209.125753 
L 295.187665 -210.758749 
L 295.191472 -212.391745 
L 295.19444 -214.024741 
L 295.196501 -215.657737 
L 295.197788 -217.290733 
L 295.198486 -218.923729 
L 295.198768 -220.556725 
L 295.198812 -222.189721 
L 295.198811 -223.822717 
L 295.198908 -225.455713 
L 295.199135 -227.088709 
L 295.199423 -228.721705 
L 295.199679 -230.354701 
L 295.199851 -231.987697 
L 295.200149 -231.987697 
L 295.200149 -231.987697 
L 295.200321 -230.354701 
L 295.200577 -228.721705 
L 295.200865 -227.088709 
L 295.201092 -225.455713 
L 295.201189 -223.822717 
L 295.201188 -222.189721 
L 295.201232 -220.556725 
L 295.201514 -218.923729 
L 295.202212 -217.290733 
L 295.203499 -215.657737 
L 295.20556 -214.024741 
L 295.208528 -212.391745 
L 295.212335 -210.758749 
L 295.216601 -209.125753 
L 295.220741 -207.492757 
L 295.224281 -205.859761 
L 295.227147 -204.226765 
L 295.229696 -202.593768 
L 295.232506 -200.960772 
L 295.236112 -199.327776 
L 295.240801 -197.69478 
L 295.246462 -196.061784 
L 295.252595 -194.428788 
L 295.258591 -192.795792 
L 295.264119 -191.162796 
L 295.269315 -189.5298 
L 295.274611 -187.896804 
L 295.280299 -186.263808 
L 295.286172 -184.630812 
L 295.291617 -182.997816 
L 295.29617 -181.36482 
L 295.300133 -179.731824 
L 295.304633 -178.098828 
L 295.310982 -176.465832 
L 295.319814 -174.832836 
L 295.330696 -173.19984 
L 295.342449 -171.566844 
L 295.353789 -169.933848 
L 295.363809 -168.300852 
L 295.372356 -166.667856 
L 295.380408 -165.03486 
L 295.390162 -163.401864 
L 295.404491 -161.768868 
L 295.425914 -160.135872 
L 295.455652 -158.502876 
L 295.493245 -156.86988 
L 295.536961 -155.236884 
L 295.584923 -153.603888 
L 295.636419 -151.970891 
L 295.692257 -150.337895 
L 295.753426 -148.704899 
L 295.819129 -147.071903 
L 295.886554 -145.438907 
L 295.953214 -143.805911 
L 296.01951 -142.172915 
L 296.088547 -140.539919 
L 296.163364 -138.906923 
L 296.244535 -137.273927 
L 296.329867 -135.640931 
L 296.414865 -134.007935 
L 296.492908 -132.374939 
L 296.556576 -130.741943 
L 296.600866 -129.108947 
L 296.625434 -127.475951 
L 296.632843 -125.842955 
L 296.624654 -124.209959 
L 296.600198 -122.576963 
L 296.559109 -120.943967 
L 296.503793 -119.310971 
L 296.438974 -117.677975 
L 296.370009 -116.044979 
L 296.302551 -114.411983 
L 296.243027 -112.778987 
L 296.197732 -111.145991 
L 296.170465 -109.512995 
L 296.160812 -107.879999 
L 296.164673 -106.247003 
L 296.176426 -104.614007 
L 296.190789 -102.98101 
L 296.202901 -101.348014 
L 296.207048 -99.715018 
L 296.196177 -98.082022 
L 296.163765 -96.449026 
L 296.106698 -94.81603 
L 296.026116 -93.183034 
L 295.925558 -91.550038 
L 295.809316 -89.917042 
L 295.683455 -88.284046 
L 295.557662 -86.65105 
L 295.444121 -85.018054 
L 295.352993 -83.385058 
L 295.288264 -81.752062 
L 295.247325 -80.119066 
L 295.223901 -78.48607 
L 295.211492 -76.853074 
L 295.205265 -75.220078 
L 295.202272 -73.587082 
L 295.200904 -71.954086 
L 295.200325 -70.32109 
z
" style="stroke: #464646; stroke-width: 1.75"/>
    </defs>
    <g clip-path="url(#pabcc1e193d)">
     <use xlink:href="#md192358621" x="0" y="396" style="fill: #4aad95; stroke: #464646; stroke-width: 1.75"/>
    </g>
   </g>
   <g id="PolyCollection_6">
    <defs>
     <path id="m44236214ea" d="M 344.800119 -65.12212 
L 344.799881 -65.12212 
L 344.799796 -66.761371 
L 344.799662 -68.400622 
L 344.799455 -70.039873 
L 344.799139 -71.679124 
L 344.798658 -73.318376 
L 344.797932 -74.957627 
L 344.79685 -76.596878 
L 344.795272 -78.236129 
L 344.793041 -79.87538 
L 344.789996 -81.514632 
L 344.786007 -83.153883 
L 344.780995 -84.793134 
L 344.774958 -86.432385 
L 344.767973 -88.071637 
L 344.760192 -89.710888 
L 344.751822 -91.350139 
L 344.7431 -92.98939 
L 344.734281 -94.628641 
L 344.725616 -96.267893 
L 344.717358 -97.907144 
L 344.709749 -99.546395 
L 344.703016 -101.185646 
L 344.697359 -102.824898 
L 344.692931 -104.464149 
L 344.68982 -106.1034 
L 344.68803 -107.742651 
L 344.687464 -109.381902 
L 344.687913 -111.021154 
L 344.689055 -112.660405 
L 344.690475 -114.299656 
L 344.691707 -115.938907 
L 344.692289 -117.578159 
L 344.691841 -119.21741 
L 344.690116 -120.856661 
L 344.68704 -122.495912 
L 344.682711 -124.135163 
L 344.677363 -125.774415 
L 344.671314 -127.413666 
L 344.664906 -129.052917 
L 344.658464 -130.692168 
L 344.652286 -132.331419 
L 344.646659 -133.970671 
L 344.64188 -135.609922 
L 344.638276 -137.249173 
L 344.636185 -138.888424 
L 344.635911 -140.527676 
L 344.637651 -142.166927 
L 344.641441 -143.806178 
L 344.647124 -145.445429 
L 344.654368 -147.08468 
L 344.662725 -148.723932 
L 344.671702 -150.363183 
L 344.680832 -152.002434 
L 344.689724 -153.641685 
L 344.69809 -155.280937 
L 344.705754 -156.920188 
L 344.712654 -158.559439 
L 344.718834 -160.19869 
L 344.72442 -161.837941 
L 344.729593 -163.477193 
L 344.734543 -165.116444 
L 344.739427 -166.755695 
L 344.74434 -168.394946 
L 344.749296 -170.034198 
L 344.754245 -171.673449 
L 344.759093 -173.3127 
L 344.763731 -174.951951 
L 344.768056 -176.591202 
L 344.771977 -178.230454 
L 344.775419 -179.869705 
L 344.778324 -181.508956 
L 344.780649 -183.148207 
L 344.782381 -184.787458 
L 344.783548 -186.42671 
L 344.784217 -188.065961 
L 344.784499 -189.705212 
L 344.78453 -191.344463 
L 344.784456 -192.983715 
L 344.78441 -194.622966 
L 344.784501 -196.262217 
L 344.784801 -197.901468 
L 344.785345 -199.540719 
L 344.786134 -201.179971 
L 344.787139 -202.819222 
L 344.788313 -204.458473 
L 344.789595 -206.097724 
L 344.790923 -207.736976 
L 344.792239 -209.376227 
L 344.793497 -211.015478 
L 344.794662 -212.654729 
L 344.795716 -214.29398 
L 344.796647 -215.933232 
L 344.79745 -217.572483 
L 344.798123 -219.211734 
L 344.798669 -220.850985 
L 344.799095 -222.490237 
L 344.799412 -224.129488 
L 344.799636 -225.768739 
L 344.799786 -227.40799 
L 344.800214 -227.40799 
L 344.800214 -227.40799 
L 344.800364 -225.768739 
L 344.800588 -224.129488 
L 344.800905 -222.490237 
L 344.801331 -220.850985 
L 344.801877 -219.211734 
L 344.80255 -217.572483 
L 344.803353 -215.933232 
L 344.804284 -214.29398 
L 344.805338 -212.654729 
L 344.806503 -211.015478 
L 344.807761 -209.376227 
L 344.809077 -207.736976 
L 344.810405 -206.097724 
L 344.811687 -204.458473 
L 344.812861 -202.819222 
L 344.813866 -201.179971 
L 344.814655 -199.540719 
L 344.815199 -197.901468 
L 344.815499 -196.262217 
L 344.81559 -194.622966 
L 344.815544 -192.983715 
L 344.81547 -191.344463 
L 344.815501 -189.705212 
L 344.815783 -188.065961 
L 344.816452 -186.42671 
L 344.817619 -184.787458 
L 344.819351 -183.148207 
L 344.821676 -181.508956 
L 344.824581 -179.869705 
L 344.828023 -178.230454 
L 344.831944 -176.591202 
L 344.836269 -174.951951 
L 344.840907 -173.3127 
L 344.845755 -171.673449 
L 344.850704 -170.034198 
L 344.85566 -168.394946 
L 344.860573 -166.755695 
L 344.865457 -165.116444 
L 344.870407 -163.477193 
L 344.87558 -161.837941 
L 344.881166 -160.19869 
L 344.887346 -158.559439 
L 344.894246 -156.920188 
L 344.90191 -155.280937 
L 344.910276 -153.641685 
L 344.919168 -152.002434 
L 344.928298 -150.363183 
L 344.937275 -148.723932 
L 344.945632 -147.08468 
L 344.952876 -145.445429 
L 344.958559 -143.806178 
L 344.962349 -142.166927 
L 344.964089 -140.527676 
L 344.963815 -138.888424 
L 344.961724 -137.249173 
L 344.95812 -135.609922 
L 344.953341 -133.970671 
L 344.947714 -132.331419 
L 344.941536 -130.692168 
L 344.935094 -129.052917 
L 344.928686 -127.413666 
L 344.922637 -125.774415 
L 344.917289 -124.135163 
L 344.91296 -122.495912 
L 344.909884 -120.856661 
L 344.908159 -119.21741 
L 344.907711 -117.578159 
L 344.908293 -115.938907 
L 344.909525 -114.299656 
L 344.910945 -112.660405 
L 344.912087 -111.021154 
L 344.912536 -109.381902 
L 344.91197 -107.742651 
L 344.91018 -106.1034 
L 344.907069 -104.464149 
L 344.902641 -102.824898 
L 344.896984 -101.185646 
L 344.890251 -99.546395 
L 344.882642 -97.907144 
L 344.874384 -96.267893 
L 344.865719 -94.628641 
L 344.8569 -92.98939 
L 344.848178 -91.350139 
L 344.839808 -89.710888 
L 344.832027 -88.071637 
L 344.825042 -86.432385 
L 344.819005 -84.793134 
L 344.813993 -83.153883 
L 344.810004 -81.514632 
L 344.806959 -79.87538 
L 344.804728 -78.236129 
L 344.80315 -76.596878 
L 344.802068 -74.957627 
L 344.801342 -73.318376 
L 344.800861 -71.679124 
L 344.800545 -70.039873 
L 344.800338 -68.400622 
L 344.800204 -66.761371 
L 344.800119 -65.12212 
z
" style="stroke: #464646; stroke-width: 1.75"/>
    </defs>
    <g clip-path="url(#pabcc1e193d)">
     <use xlink:href="#m44236214ea" x="0" y="396" style="fill: #4dabb3; stroke: #464646; stroke-width: 1.75"/>
    </g>
   </g>
   <g id="PolyCollection_7">
    <defs>
     <path id="m8b112acd70" d="M 394.400099 -77.681938 
L 394.399901 -77.681938 
L 394.399862 -79.14337 
L 394.39981 -80.604801 
L 394.399742 -82.066232 
L 394.399655 -83.527663 
L 394.399543 -84.989094 
L 394.399404 -86.450525 
L 394.399232 -87.911956 
L 394.399023 -89.373388 
L 394.39877 -90.834819 
L 394.398471 -92.29625 
L 394.398122 -93.757681 
L 394.39772 -95.219112 
L 394.397266 -96.680543 
L 394.396761 -98.141975 
L 394.396209 -99.603406 
L 394.395618 -101.064837 
L 394.394998 -102.526268 
L 394.394361 -103.987699 
L 394.39372 -105.44913 
L 394.393091 -106.910561 
L 394.392488 -108.371993 
L 394.391925 -109.833424 
L 394.391413 -111.294855 
L 394.390959 -112.756286 
L 394.390569 -114.217717 
L 394.390244 -115.679148 
L 394.389982 -117.140579 
L 394.389776 -118.602011 
L 394.389619 -120.063442 
L 394.389503 -121.524873 
L 394.389416 -122.986304 
L 394.389348 -124.447735 
L 394.38929 -125.909166 
L 394.389233 -127.370597 
L 394.389169 -128.832029 
L 394.38909 -130.29346 
L 394.388992 -131.754891 
L 394.388871 -133.216322 
L 394.388724 -134.677753 
L 394.388552 -136.139184 
L 394.388357 -137.600615 
L 394.388144 -139.062047 
L 394.387921 -140.523478 
L 394.387698 -141.984909 
L 394.387488 -143.44634 
L 394.387303 -144.907771 
L 394.387158 -146.369202 
L 394.387065 -147.830633 
L 394.387035 -149.292065 
L 394.387075 -150.753496 
L 394.38719 -152.214927 
L 394.387382 -153.676358 
L 394.387647 -155.137789 
L 394.387982 -156.59922 
L 394.388378 -158.060651 
L 394.388827 -159.522083 
L 394.389321 -160.983514 
L 394.389851 -162.444945 
L 394.390409 -163.906376 
L 394.390987 -165.367807 
L 394.39158 -166.829238 
L 394.39218 -168.29067 
L 394.392782 -169.752101 
L 394.393381 -171.213532 
L 394.393971 -172.674963 
L 394.394544 -174.136394 
L 394.395096 -175.597825 
L 394.395618 -177.059256 
L 394.396107 -178.520688 
L 394.396557 -179.982119 
L 394.396963 -181.44355 
L 394.397323 -182.904981 
L 394.397637 -184.366412 
L 394.397905 -185.827843 
L 394.39813 -187.289274 
L 394.398316 -188.750706 
L 394.398466 -190.212137 
L 394.398588 -191.673568 
L 394.398686 -193.134999 
L 394.398768 -194.59643 
L 394.398837 -196.057861 
L 394.3989 -197.519292 
L 394.398961 -198.980724 
L 394.399021 -200.442155 
L 394.399084 -201.903586 
L 394.399151 -203.365017 
L 394.399222 -204.826448 
L 394.399296 -206.287879 
L 394.399371 -207.74931 
L 394.399448 -209.210742 
L 394.399522 -210.672173 
L 394.399594 -212.133604 
L 394.399661 -213.595035 
L 394.399722 -215.056466 
L 394.399776 -216.517897 
L 394.399823 -217.979328 
L 394.399863 -219.44076 
L 394.399896 -220.902191 
L 394.399923 -222.363622 
L 394.400077 -222.363622 
L 394.400077 -222.363622 
L 394.400104 -220.902191 
L 394.400137 -219.44076 
L 394.400177 -217.979328 
L 394.400224 -216.517897 
L 394.400278 -215.056466 
L 394.400339 -213.595035 
L 394.400406 -212.133604 
L 394.400478 -210.672173 
L 394.400552 -209.210742 
L 394.400629 -207.74931 
L 394.400704 -206.287879 
L 394.400778 -204.826448 
L 394.400849 -203.365017 
L 394.400916 -201.903586 
L 394.400979 -200.442155 
L 394.401039 -198.980724 
L 394.4011 -197.519292 
L 394.401163 -196.057861 
L 394.401232 -194.59643 
L 394.401314 -193.134999 
L 394.401412 -191.673568 
L 394.401534 -190.212137 
L 394.401684 -188.750706 
L 394.40187 -187.289274 
L 394.402095 -185.827843 
L 394.402363 -184.366412 
L 394.402677 -182.904981 
L 394.403037 -181.44355 
L 394.403443 -179.982119 
L 394.403893 -178.520688 
L 394.404382 -177.059256 
L 394.404904 -175.597825 
L 394.405456 -174.136394 
L 394.406029 -172.674963 
L 394.406619 -171.213532 
L 394.407218 -169.752101 
L 394.40782 -168.29067 
L 394.40842 -166.829238 
L 394.409013 -165.367807 
L 394.409591 -163.906376 
L 394.410149 -162.444945 
L 394.410679 -160.983514 
L 394.411173 -159.522083 
L 394.411622 -158.060651 
L 394.412018 -156.59922 
L 394.412353 -155.137789 
L 394.412618 -153.676358 
L 394.41281 -152.214927 
L 394.412925 -150.753496 
L 394.412965 -149.292065 
L 394.412935 -147.830633 
L 394.412842 -146.369202 
L 394.412697 -144.907771 
L 394.412512 -143.44634 
L 394.412302 -141.984909 
L 394.412079 -140.523478 
L 394.411856 -139.062047 
L 394.411643 -137.600615 
L 394.411448 -136.139184 
L 394.411276 -134.677753 
L 394.411129 -133.216322 
L 394.411008 -131.754891 
L 394.41091 -130.29346 
L 394.410831 -128.832029 
L 394.410767 -127.370597 
L 394.41071 -125.909166 
L 394.410652 -124.447735 
L 394.410584 -122.986304 
L 394.410497 -121.524873 
L 394.410381 -120.063442 
L 394.410224 -118.602011 
L 394.410018 -117.140579 
L 394.409756 -115.679148 
L 394.409431 -114.217717 
L 394.409041 -112.756286 
L 394.408587 -111.294855 
L 394.408075 -109.833424 
L 394.407512 -108.371993 
L 394.406909 -106.910561 
L 394.40628 -105.44913 
L 394.405639 -103.987699 
L 394.405002 -102.526268 
L 394.404382 -101.064837 
L 394.403791 -99.603406 
L 394.403239 -98.141975 
L 394.402734 -96.680543 
L 394.40228 -95.219112 
L 394.401878 -93.757681 
L 394.401529 -92.29625 
L 394.40123 -90.834819 
L 394.400977 -89.373388 
L 394.400768 -87.911956 
L 394.400596 -86.450525 
L 394.400457 -84.989094 
L 394.400345 -83.527663 
L 394.400258 -82.066232 
L 394.40019 -80.604801 
L 394.400138 -79.14337 
L 394.400099 -77.681938 
z
" style="stroke: #464646; stroke-width: 1.75"/>
    </defs>
    <g clip-path="url(#pabcc1e193d)">
     <use xlink:href="#m8b112acd70" x="0" y="396" style="fill: #6daee2; stroke: #464646; stroke-width: 1.75"/>
    </g>
   </g>
   <g id="PolyCollection_8">
    <defs>
     <path id="mfd76825e03" d="M 444.000103 -74.561072 
L 443.999897 -74.561072 
L 443.999877 -76.224215 
L 443.999853 -77.887358 
L 443.999827 -79.550501 
L 443.999797 -81.213644 
L 443.999764 -82.876787 
L 443.999727 -84.53993 
L 443.999686 -86.203073 
L 443.999641 -87.866216 
L 443.999592 -89.529359 
L 443.99954 -91.192502 
L 443.999484 -92.855645 
L 443.999425 -94.518788 
L 443.999363 -96.181931 
L 443.9993 -97.845074 
L 443.999234 -99.508217 
L 443.999168 -101.17136 
L 443.999102 -102.834503 
L 443.999036 -104.497646 
L 443.998972 -106.160789 
L 443.99891 -107.823932 
L 443.998851 -109.487075 
L 443.998797 -111.150218 
L 443.998747 -112.813361 
L 443.998702 -114.476504 
L 443.998664 -116.139647 
L 443.998633 -117.80279 
L 443.998609 -119.465933 
L 443.998592 -121.129076 
L 443.998583 -122.792219 
L 443.998582 -124.455362 
L 443.998588 -126.118505 
L 443.998602 -127.781648 
L 443.998623 -129.444791 
L 443.99865 -131.107934 
L 443.998684 -132.771077 
L 443.998723 -134.43422 
L 443.998767 -136.097363 
L 443.998815 -137.760506 
L 443.998867 -139.423649 
L 443.998921 -141.086792 
L 443.998977 -142.749935 
L 443.999034 -144.413078 
L 443.999091 -146.076221 
L 443.999149 -147.739364 
L 443.999205 -149.402508 
L 443.99926 -151.065651 
L 443.999314 -152.728794 
L 443.999365 -154.391937 
L 443.999413 -156.05508 
L 443.999459 -157.718223 
L 443.999501 -159.381366 
L 443.99954 -161.044509 
L 443.999575 -162.707652 
L 443.999606 -164.370795 
L 443.999634 -166.033938 
L 443.999658 -167.697081 
L 443.999679 -169.360224 
L 443.999696 -171.023367 
L 443.99971 -172.68651 
L 443.999721 -174.349653 
L 443.999728 -176.012796 
L 443.999734 -177.675939 
L 443.999737 -179.339082 
L 443.999738 -181.002225 
L 443.999738 -182.665368 
L 443.999736 -184.328511 
L 443.999734 -185.991654 
L 443.999731 -187.654797 
L 443.999728 -189.31794 
L 443.999726 -190.981083 
L 443.999723 -192.644226 
L 443.999722 -194.307369 
L 443.999721 -195.970512 
L 443.999722 -197.633655 
L 443.999724 -199.296798 
L 443.999727 -200.959941 
L 443.999732 -202.623084 
L 443.999738 -204.286227 
L 443.999745 -205.94937 
L 443.999754 -207.612513 
L 443.999764 -209.275656 
L 443.999775 -210.938799 
L 443.999787 -212.601942 
L 443.999799 -214.265085 
L 443.999812 -215.928228 
L 443.999826 -217.591371 
L 443.999839 -219.254514 
L 443.999853 -220.917657 
L 443.999866 -222.5808 
L 443.999879 -224.243943 
L 443.999891 -225.907086 
L 443.999903 -227.570229 
L 443.999914 -229.233373 
L 443.999924 -230.896516 
L 443.999934 -232.559659 
L 443.999943 -234.222802 
L 443.99995 -235.885945 
L 443.999958 -237.549088 
L 443.999964 -239.212231 
L 444.000036 -239.212231 
L 444.000036 -239.212231 
L 444.000042 -237.549088 
L 444.00005 -235.885945 
L 444.000057 -234.222802 
L 444.000066 -232.559659 
L 444.000076 -230.896516 
L 444.000086 -229.233373 
L 444.000097 -227.570229 
L 444.000109 -225.907086 
L 444.000121 -224.243943 
L 444.000134 -222.5808 
L 444.000147 -220.917657 
L 444.000161 -219.254514 
L 444.000174 -217.591371 
L 444.000188 -215.928228 
L 444.000201 -214.265085 
L 444.000213 -212.601942 
L 444.000225 -210.938799 
L 444.000236 -209.275656 
L 444.000246 -207.612513 
L 444.000255 -205.94937 
L 444.000262 -204.286227 
L 444.000268 -202.623084 
L 444.000273 -200.959941 
L 444.000276 -199.296798 
L 444.000278 -197.633655 
L 444.000279 -195.970512 
L 444.000278 -194.307369 
L 444.000277 -192.644226 
L 444.000274 -190.981083 
L 444.000272 -189.31794 
L 444.000269 -187.654797 
L 444.000266 -185.991654 
L 444.000264 -184.328511 
L 444.000262 -182.665368 
L 444.000262 -181.002225 
L 444.000263 -179.339082 
L 444.000266 -177.675939 
L 444.000272 -176.012796 
L 444.000279 -174.349653 
L 444.00029 -172.68651 
L 444.000304 -171.023367 
L 444.000321 -169.360224 
L 444.000342 -167.697081 
L 444.000366 -166.033938 
L 444.000394 -164.370795 
L 444.000425 -162.707652 
L 444.00046 -161.044509 
L 444.000499 -159.381366 
L 444.000541 -157.718223 
L 444.000587 -156.05508 
L 444.000635 -154.391937 
L 444.000686 -152.728794 
L 444.00074 -151.065651 
L 444.000795 -149.402508 
L 444.000851 -147.739364 
L 444.000909 -146.076221 
L 444.000966 -144.413078 
L 444.001023 -142.749935 
L 444.001079 -141.086792 
L 444.001133 -139.423649 
L 444.001185 -137.760506 
L 444.001233 -136.097363 
L 444.001277 -134.43422 
L 444.001316 -132.771077 
L 444.00135 -131.107934 
L 444.001377 -129.444791 
L 444.001398 -127.781648 
L 444.001412 -126.118505 
L 444.001418 -124.455362 
L 444.001417 -122.792219 
L 444.001408 -121.129076 
L 444.001391 -119.465933 
L 444.001367 -117.80279 
L 444.001336 -116.139647 
L 444.001298 -114.476504 
L 444.001253 -112.813361 
L 444.001203 -111.150218 
L 444.001149 -109.487075 
L 444.00109 -107.823932 
L 444.001028 -106.160789 
L 444.000964 -104.497646 
L 444.000898 -102.834503 
L 444.000832 -101.17136 
L 444.000766 -99.508217 
L 444.0007 -97.845074 
L 444.000637 -96.181931 
L 444.000575 -94.518788 
L 444.000516 -92.855645 
L 444.00046 -91.192502 
L 444.000408 -89.529359 
L 444.000359 -87.866216 
L 444.000314 -86.203073 
L 444.000273 -84.53993 
L 444.000236 -82.876787 
L 444.000203 -81.213644 
L 444.000173 -79.550501 
L 444.000147 -77.887358 
L 444.000123 -76.224215 
L 444.000103 -74.561072 
z
" style="stroke: #464646; stroke-width: 1.75"/>
    </defs>
    <g clip-path="url(#pabcc1e193d)">
     <use xlink:href="#mfd76825e03" x="0" y="396" style="fill: #c4a1ea; stroke: #464646; stroke-width: 1.75"/>
    </g>
   </g>
   <g id="PolyCollection_9">
    <defs>
     <path id="mb2b2b38cec" d="M 493.600048 -120.360451 
L 493.599952 -120.360451 
L 493.599944 -120.716994 
L 493.599936 -121.073537 
L 493.599926 -121.43008 
L 493.599916 -121.786623 
L 493.599905 -122.143166 
L 493.599892 -122.499708 
L 493.599879 -122.856251 
L 493.599864 -123.212794 
L 493.599848 -123.569337 
L 493.599831 -123.92588 
L 493.599813 -124.282423 
L 493.599794 -124.638966 
L 493.599774 -124.995508 
L 493.599754 -125.352051 
L 493.599732 -125.708594 
L 493.599709 -126.065137 
L 493.599686 -126.42168 
L 493.599663 -126.778223 
L 493.599639 -127.134766 
L 493.599614 -127.491308 
L 493.59959 -127.847851 
L 493.599565 -128.204394 
L 493.599541 -128.560937 
L 493.599516 -128.91748 
L 493.599492 -129.274023 
L 493.599469 -129.630566 
L 493.599445 -129.987109 
L 493.599423 -130.343651 
L 493.599401 -130.700194 
L 493.59938 -131.056737 
L 493.59936 -131.41328 
L 493.599341 -131.769823 
L 493.599323 -132.126366 
L 493.599305 -132.482909 
L 493.599289 -132.839451 
L 493.599274 -133.195994 
L 493.59926 -133.552537 
L 493.599248 -133.90908 
L 493.599236 -134.265623 
L 493.599226 -134.622166 
L 493.599217 -134.978709 
L 493.59921 -135.335251 
L 493.599203 -135.691794 
L 493.599198 -136.048337 
L 493.599194 -136.40488 
L 493.599191 -136.761423 
L 493.59919 -137.117966 
L 493.59919 -137.474509 
L 493.599191 -137.831052 
L 493.599193 -138.187594 
L 493.599196 -138.544137 
L 493.5992 -138.90068 
L 493.599206 -139.257223 
L 493.599212 -139.613766 
L 493.59922 -139.970309 
L 493.599228 -140.326852 
L 493.599238 -140.683394 
L 493.599248 -141.039937 
L 493.599259 -141.39648 
L 493.599272 -141.753023 
L 493.599285 -142.109566 
L 493.599298 -142.466109 
L 493.599313 -142.822652 
L 493.599328 -143.179194 
L 493.599345 -143.535737 
L 493.599362 -143.89228 
L 493.599379 -144.248823 
L 493.599398 -144.605366 
L 493.599417 -144.961909 
L 493.599437 -145.318452 
L 493.599457 -145.674995 
L 493.599478 -146.031537 
L 493.599499 -146.38808 
L 493.599521 -146.744623 
L 493.599543 -147.101166 
L 493.599566 -147.457709 
L 493.599588 -147.814252 
L 493.599611 -148.170795 
L 493.599634 -148.527337 
L 493.599656 -148.88388 
L 493.599678 -149.240423 
L 493.5997 -149.596966 
L 493.599722 -149.953509 
L 493.599743 -150.310052 
L 493.599763 -150.666595 
L 493.599783 -151.023137 
L 493.599802 -151.37968 
L 493.59982 -151.736223 
L 493.599837 -152.092766 
L 493.599853 -152.449309 
L 493.599868 -152.805852 
L 493.599882 -153.162395 
L 493.599895 -153.518938 
L 493.599907 -153.87548 
L 493.599918 -154.232023 
L 493.599928 -154.588566 
L 493.599937 -154.945109 
L 493.599945 -155.301652 
L 493.599953 -155.658195 
L 493.600047 -155.658195 
L 493.600047 -155.658195 
L 493.600055 -155.301652 
L 493.600063 -154.945109 
L 493.600072 -154.588566 
L 493.600082 -154.232023 
L 493.600093 -153.87548 
L 493.600105 -153.518938 
L 493.600118 -153.162395 
L 493.600132 -152.805852 
L 493.600147 -152.449309 
L 493.600163 -152.092766 
L 493.60018 -151.736223 
L 493.600198 -151.37968 
L 493.600217 -151.023137 
L 493.600237 -150.666595 
L 493.600257 -150.310052 
L 493.600278 -149.953509 
L 493.6003 -149.596966 
L 493.600322 -149.240423 
L 493.600344 -148.88388 
L 493.600366 -148.527337 
L 493.600389 -148.170795 
L 493.600412 -147.814252 
L 493.600434 -147.457709 
L 493.600457 -147.101166 
L 493.600479 -146.744623 
L 493.600501 -146.38808 
L 493.600522 -146.031537 
L 493.600543 -145.674995 
L 493.600563 -145.318452 
L 493.600583 -144.961909 
L 493.600602 -144.605366 
L 493.600621 -144.248823 
L 493.600638 -143.89228 
L 493.600655 -143.535737 
L 493.600672 -143.179194 
L 493.600687 -142.822652 
L 493.600702 -142.466109 
L 493.600715 -142.109566 
L 493.600728 -141.753023 
L 493.600741 -141.39648 
L 493.600752 -141.039937 
L 493.600762 -140.683394 
L 493.600772 -140.326852 
L 493.60078 -139.970309 
L 493.600788 -139.613766 
L 493.600794 -139.257223 
L 493.6008 -138.90068 
L 493.600804 -138.544137 
L 493.600807 -138.187594 
L 493.600809 -137.831052 
L 493.60081 -137.474509 
L 493.60081 -137.117966 
L 493.600809 -136.761423 
L 493.600806 -136.40488 
L 493.600802 -136.048337 
L 493.600797 -135.691794 
L 493.60079 -135.335251 
L 493.600783 -134.978709 
L 493.600774 -134.622166 
L 493.600764 -134.265623 
L 493.600752 -133.90908 
L 493.60074 -133.552537 
L 493.600726 -133.195994 
L 493.600711 -132.839451 
L 493.600695 -132.482909 
L 493.600677 -132.126366 
L 493.600659 -131.769823 
L 493.60064 -131.41328 
L 493.60062 -131.056737 
L 493.600599 -130.700194 
L 493.600577 -130.343651 
L 493.600555 -129.987109 
L 493.600531 -129.630566 
L 493.600508 -129.274023 
L 493.600484 -128.91748 
L 493.600459 -128.560937 
L 493.600435 -128.204394 
L 493.60041 -127.847851 
L 493.600386 -127.491308 
L 493.600361 -127.134766 
L 493.600337 -126.778223 
L 493.600314 -126.42168 
L 493.600291 -126.065137 
L 493.600268 -125.708594 
L 493.600246 -125.352051 
L 493.600226 -124.995508 
L 493.600206 -124.638966 
L 493.600187 -124.282423 
L 493.600169 -123.92588 
L 493.600152 -123.569337 
L 493.600136 -123.212794 
L 493.600121 -122.856251 
L 493.600108 -122.499708 
L 493.600095 -122.143166 
L 493.600084 -121.786623 
L 493.600074 -121.43008 
L 493.600064 -121.073537 
L 493.600056 -120.716994 
L 493.600048 -120.360451 
z
" style="stroke: #464646; stroke-width: 1.75"/>
    </defs>
    <g clip-path="url(#pabcc1e193d)">
     <use xlink:href="#mb2b2b38cec" x="0" y="396" style="fill: #e88ed1; stroke: #464646; stroke-width: 1.75"/>
    </g>
   </g>
   <g id="line2d_22">
    <path d="M 96.8 319.790316 
L 96.8 205.273584 
" clip-path="url(#pabcc1e193d)" style="fill: none; stroke: #464646; stroke-width: 1.75; stroke-linecap: round"/>
   </g>
   <g id="line2d_23">
    <path d="M 96.8 305.946401 
L 96.8 265.673846 
" clip-path="url(#pabcc1e193d)" style="fill: none; stroke: #464646; stroke-width: 5.25; stroke-linecap: round"/>
   </g>
   <g id="line2d_24">
    <path d="M 146.4 321.286897 
L 146.4 260.492007 
" clip-path="url(#pabcc1e193d)" style="fill: none; stroke: #464646; stroke-width: 1.75; stroke-linecap: round"/>
   </g>
   <g id="line2d_25">
    <path d="M 146.4 300.59563 
L 146.4 284.551793 
" clip-path="url(#pabcc1e193d)" style="fill: none; stroke: #464646; stroke-width: 5.25; stroke-linecap: round"/>
   </g>
   <g id="line2d_26">
    <path d="M 196 322.307365 
L 196 252.869159 
" clip-path="url(#pabcc1e193d)" style="fill: none; stroke: #464646; stroke-width: 1.75; stroke-linecap: round"/>
   </g>
   <g id="line2d_27">
    <path d="M 196 298.993662 
L 196 280.541477 
" clip-path="url(#pabcc1e193d)" style="fill: none; stroke: #464646; stroke-width: 5.25; stroke-linecap: round"/>
   </g>
   <g id="line2d_28">
    <path d="M 245.6 322.073093 
L 245.6 230.917043 
" clip-path="url(#pabcc1e193d)" style="fill: none; stroke: #464646; stroke-width: 1.75; stroke-linecap: round"/>
   </g>
   <g id="line2d_29">
    <path d="M 245.6 294.864947 
L 245.6 269.281772 
" clip-path="url(#pabcc1e193d)" style="fill: none; stroke: #464646; stroke-width: 5.25; stroke-linecap: round"/>
   </g>
   <g id="line2d_30">
    <path d="M 295.2 318.103273 
L 295.2 214.727176 
" clip-path="url(#pabcc1e193d)" style="fill: none; stroke: #464646; stroke-width: 1.75; stroke-linecap: round"/>
   </g>
   <g id="line2d_31">
    <path d="M 295.2 289.283222 
L 295.2 259.450361 
" clip-path="url(#pabcc1e193d)" style="fill: none; stroke: #464646; stroke-width: 5.25; stroke-linecap: round"/>
   </g>
   <g id="line2d_32">
    <path d="M 344.8 317.63835 
L 344.8 192.572079 
" clip-path="url(#pabcc1e193d)" style="fill: none; stroke: #464646; stroke-width: 1.75; stroke-linecap: round"/>
   </g>
   <g id="line2d_33">
    <path d="M 344.8 282.167894 
L 344.8 246.225211 
" clip-path="url(#pabcc1e193d)" style="fill: none; stroke: #464646; stroke-width: 5.25; stroke-linecap: round"/>
   </g>
   <g id="line2d_34">
    <path d="M 394.4 298.63673 
L 394.4 193.31771 
" clip-path="url(#pabcc1e193d)" style="fill: none; stroke: #464646; stroke-width: 1.75; stroke-linecap: round"/>
   </g>
   <g id="line2d_35">
    <path d="M 394.4 274.696999 
L 394.4 239.626971 
" clip-path="url(#pabcc1e193d)" style="fill: none; stroke: #464646; stroke-width: 5.25; stroke-linecap: round"/>
   </g>
   <g id="line2d_36">
    <path d="M 444 281.183152 
L 444 249.686053 
" clip-path="url(#pabcc1e193d)" style="fill: none; stroke: #464646; stroke-width: 1.75; stroke-linecap: round"/>
   </g>
   <g id="line2d_37">
    <path d="M 444 276.411478 
L 444 257.183585 
" clip-path="url(#pabcc1e193d)" style="fill: none; stroke: #464646; stroke-width: 5.25; stroke-linecap: round"/>
   </g>
   <g id="line2d_38">
    <path d="M 493.6 265.730852 
L 493.6 250.250502 
" clip-path="url(#pabcc1e193d)" style="fill: none; stroke: #464646; stroke-width: 1.75; stroke-linecap: round"/>
   </g>
   <g id="line2d_39">
    <path d="M 493.6 261.668294 
L 493.6 254.741211 
" clip-path="url(#pabcc1e193d)" style="fill: none; stroke: #464646; stroke-width: 5.25; stroke-linecap: round"/>
   </g>
   <g id="line2d_40">
    <path d="M 72 298.938033 
L 518.4 298.938033 
" clip-path="url(#pabcc1e193d)" style="fill: none; stroke-dasharray: 6.475,2.8; stroke-dashoffset: 0; stroke: #ff0000; stroke-width: 1.75"/>
   </g>
   <g id="patch_3">
    <path d="M 72 346.5 
L 72 47.52 
" style="fill: none; stroke: #cccccc; stroke-width: 1.25; stroke-linejoin: miter; stroke-linecap: square"/>
   </g>
   <g id="patch_4">
    <path d="M 518.4 346.5 
L 518.4 47.52 
" style="fill: none; stroke: #cccccc; stroke-width: 1.25; stroke-linejoin: miter; stroke-linecap: square"/>
   </g>
   <g id="patch_5">
    <path d="M 72 346.5 
L 518.4 346.5 
" style="fill: none; stroke: #cccccc; stroke-width: 1.25; stroke-linejoin: miter; stroke-linecap: square"/>
   </g>
   <g id="patch_6">
    <path d="M 72 47.52 
L 518.4 47.52 
" style="fill: none; stroke: #cccccc; stroke-width: 1.25; stroke-linejoin: miter; stroke-linecap: square"/>
   </g>
   <g id="PathCollection_1">
    <defs>
     <path id="m1dd48ab50e" d="M 0 1.75 
C 0.464105 1.75 0.909265 1.565609 1.237437 1.237437 
C 1.565609 0.909265 1.75 0.464105 1.75 0 
C 1.75 -0.464105 1.565609 -0.909265 1.237437 -1.237437 
C 0.909265 -1.565609 0.464105 -1.75 0 -1.75 
C -0.464105 -1.75 -0.909265 -1.565609 -1.237437 -1.237437 
C -1.565609 -0.909265 -1.75 -0.464105 -1.75 0 
C -1.75 0.464105 -1.565609 0.909265 -1.237437 1.237437 
C -0.909265 1.565609 -0.464105 1.75 0 1.75 
z
" style="stroke: #464646; stroke-width: 0.3"/>
    </defs>
    <g clip-path="url(#pabcc1e193d)">
     <use xlink:href="#m1dd48ab50e" x="96.8" y="292.308785" style="fill: #ffffff; stroke: #464646; stroke-width: 0.3"/>
    </g>
   </g>
   <g id="PathCollection_2">
    <g clip-path="url(#pabcc1e193d)">
     <use xlink:href="#m1dd48ab50e" x="146.4" y="294.781951" style="fill: #ffffff; stroke: #464646; stroke-width: 0.3"/>
    </g>
   </g>
   <g id="PathCollection_3">
    <g clip-path="url(#pabcc1e193d)">
     <use xlink:href="#m1dd48ab50e" x="196" y="291.20407" style="fill: #ffffff; stroke: #464646; stroke-width: 0.3"/>
    </g>
   </g>
   <g id="PathCollection_4">
    <g clip-path="url(#pabcc1e193d)">
     <use xlink:href="#m1dd48ab50e" x="245.6" y="281.958572" style="fill: #ffffff; stroke: #464646; stroke-width: 0.3"/>
    </g>
   </g>
   <g id="PathCollection_5">
    <g clip-path="url(#pabcc1e193d)">
     <use xlink:href="#m1dd48ab50e" x="295.2" y="272.996853" style="fill: #ffffff; stroke: #464646; stroke-width: 0.3"/>
    </g>
   </g>
   <g id="PathCollection_6">
    <g clip-path="url(#pabcc1e193d)">
     <use xlink:href="#m1dd48ab50e" x="344.8" y="260.84177" style="fill: #ffffff; stroke: #464646; stroke-width: 0.3"/>
    </g>
   </g>
   <g id="PathCollection_7">
    <g clip-path="url(#pabcc1e193d)">
     <use xlink:href="#m1dd48ab50e" x="394.4" y="252.402585" style="fill: #ffffff; stroke: #464646; stroke-width: 0.3"/>
    </g>
   </g>
   <g id="PathCollection_8">
    <g clip-path="url(#pabcc1e193d)">
     <use xlink:href="#m1dd48ab50e" x="444" y="274.596579" style="fill: #ffffff; stroke: #464646; stroke-width: 0.3"/>
    </g>
   </g>
   <g id="PathCollection_9">
    <g clip-path="url(#pabcc1e193d)">
     <use xlink:href="#m1dd48ab50e" x="493.6" y="258.276111" style="fill: #ffffff; stroke: #464646; stroke-width: 0.3"/>
    </g>
   </g>
   <g id="text_18">
    <!-- V_Edasi / V_Farinotti against Slope -->
    <g style="fill: #262626" transform="translate(200.81625 41.52)scale(0.12 -0.12)">
     <defs>
      <path id="LiberationSans-5f" d="M -97 -1272 
L -97 -866 
L 3631 -866 
L 3631 -1272 
L -97 -1272 
z
" transform="scale(0.015625)"/>
      <path id="LiberationSans-61" d="M 1294 -63 
Q 784 -63 528 206 
Q 272 475 272 944 
Q 272 1469 617 1750 
Q 963 2031 1731 2050 
L 2491 2063 
L 2491 2247 
Q 2491 2659 2316 2837 
Q 2141 3016 1766 3016 
Q 1388 3016 1216 2887 
Q 1044 2759 1009 2478 
L 422 2531 
Q 566 3444 1778 3444 
Q 2416 3444 2737 3151 
Q 3059 2859 3059 2306 
L 3059 850 
Q 3059 600 3125 473 
Q 3191 347 3375 347 
Q 3456 347 3559 369 
L 3559 19 
Q 3347 -31 3125 -31 
Q 2813 -31 2670 133 
Q 2528 297 2509 647 
L 2491 647 
Q 2275 259 1989 98 
Q 1703 -63 1294 -63 
z
M 1422 359 
Q 1731 359 1972 500 
Q 2213 641 2352 886 
Q 2491 1131 2491 1391 
L 2491 1669 
L 1875 1656 
Q 1478 1650 1273 1575 
Q 1069 1500 959 1344 
Q 850 1188 850 934 
Q 850 659 998 509 
Q 1147 359 1422 359 
z
" transform="scale(0.015625)"/>
      <path id="LiberationSans-69" d="M 428 4100 
L 428 4638 
L 991 4638 
L 991 4100 
L 428 4100 
z
M 428 0 
L 428 3381 
L 991 3381 
L 991 0 
L 428 0 
z
" transform="scale(0.015625)"/>
      <path id="LiberationSans-6e" d="M 2578 0 
L 2578 2144 
Q 2578 2478 2512 2662 
Q 2447 2847 2303 2928 
Q 2159 3009 1881 3009 
Q 1475 3009 1240 2731 
Q 1006 2453 1006 1959 
L 1006 0 
L 444 0 
L 444 2659 
Q 444 3250 425 3381 
L 956 3381 
Q 959 3366 962 3297 
Q 966 3228 970 3139 
Q 975 3050 981 2803 
L 991 2803 
Q 1184 3153 1439 3298 
Q 1694 3444 2072 3444 
Q 2628 3444 2886 3167 
Q 3144 2891 3144 2253 
L 3144 0 
L 2578 0 
z
" transform="scale(0.015625)"/>
      <path id="LiberationSans-74" d="M 1731 25 
Q 1453 -50 1163 -50 
Q 488 -50 488 716 
L 488 2972 
L 97 2972 
L 97 3381 
L 509 3381 
L 675 4138 
L 1050 4138 
L 1050 3381 
L 1675 3381 
L 1675 2972 
L 1050 2972 
L 1050 838 
Q 1050 594 1129 495 
Q 1209 397 1406 397 
Q 1519 397 1731 441 
L 1731 25 
z
" transform="scale(0.015625)"/>
     </defs>
     <use xlink:href="#LiberationSans-56"/>
     <use xlink:href="#LiberationSans-5f" x="66.699219"/>
     <use xlink:href="#LiberationSans-45" x="122.314453"/>
     <use xlink:href="#LiberationSans-64" x="189.013672"/>
     <use xlink:href="#LiberationSans-61" x="244.628906"/>
     <use xlink:href="#LiberationSans-73" x="300.244141"/>
     <use xlink:href="#LiberationSans-69" x="350.244141"/>
     <use xlink:href="#LiberationSans-20" x="372.460938"/>
     <use xlink:href="#LiberationSans-2f" x="400.244141"/>
     <use xlink:href="#LiberationSans-20" x="428.027344"/>
     <use xlink:href="#LiberationSans-56" x="455.810547"/>
     <use xlink:href="#LiberationSans-5f" x="522.509766"/>
     <use xlink:href="#LiberationSans-46" x="578.125"/>
     <use xlink:href="#LiberationSans-61" x="639.208984"/>
     <use xlink:href="#LiberationSans-72" x="694.824219"/>
     <use xlink:href="#LiberationSans-69" x="728.125"/>
     <use xlink:href="#LiberationSans-6e" x="750.341797"/>
     <use xlink:href="#LiberationSans-6f" x="805.957031"/>
     <use xlink:href="#LiberationSans-74" x="861.572266"/>
     <use xlink:href="#LiberationSans-74" x="889.355469"/>
     <use xlink:href="#LiberationSans-69" x="917.138672"/>
     <use xlink:href="#LiberationSans-20" x="939.355469"/>
     <use xlink:href="#LiberationSans-61" x="967.138672"/>
     <use xlink:href="#LiberationSans-67" x="1022.753906"/>
     <use xlink:href="#LiberationSans-61" x="1078.369141"/>
     <use xlink:href="#LiberationSans-69" x="1133.984375"/>
     <use xlink:href="#LiberationSans-6e" x="1156.201172"/>
     <use xlink:href="#LiberationSans-73" x="1211.816406"/>
     <use xlink:href="#LiberationSans-74" x="1261.816406"/>
     <use xlink:href="#LiberationSans-20" x="1289.599609"/>
     <use xlink:href="#LiberationSans-53" x="1317.382812"/>
     <use xlink:href="#LiberationSans-6c" x="1384.082031"/>
     <use xlink:href="#LiberationSans-6f" x="1406.298828"/>
     <use xlink:href="#LiberationSans-70" x="1461.914062"/>
     <use xlink:href="#LiberationSans-65" x="1517.529297"/>
    </g>
   </g>
  </g>
 </g>
 <defs>
  <clipPath id="pabcc1e193d">
   <rect x="72" y="47.52" width="446.4" height="298.98"/>
  </clipPath>
 </defs>
</svg>
