<?xml version="1.0" encoding="utf-8" standalone="no"?>
<!DOCTYPE svg PUBLIC "-//W3C//DTD SVG 1.1//EN"
  "http://www.w3.org/Graphics/SVG/1.1/DTD/svg11.dtd">
<svg xmlns:xlink="http://www.w3.org/1999/xlink" width="576pt" height="396pt" viewBox="0 0 576 396" xmlns="http://www.w3.org/2000/svg" version="1.1">
 <metadata>
  <rdf:RDF xmlns:dc="http://purl.org/dc/elements/1.1/" xmlns:cc="http://creativecommons.org/ns#" xmlns:rdf="http://www.w3.org/1999/02/22-rdf-syntax-ns#">
   <cc:Work>
    <dc:type rdf:resource="http://purl.org/dc/dcmitype/StillImage"/>
    <dc:date>2022-10-13T17:46:12.554117</dc:date>
    <dc:format>image/svg+xml</dc:format>
    <dc:creator>
     <cc:Agent>
      <dc:title>Matplotlib v3.5.0, https://matplotlib.org/</dc:title>
     </cc:Agent>
    </dc:creator>
   </cc:Work>
  </rdf:RDF>
 </metadata>
 <defs>
  <style type="text/css">*{stroke-linejoin: round; stroke-linecap: butt}</style>
 </defs>
 <g id="figure_1">
  <g id="patch_1">
   <path d="M 0 396 
L 576 396 
L 576 0 
L 0 0 
z
" style="fill: #ffffff"/>
  </g>
  <g id="axes_1">
   <g id="patch_2">
    <path d="M 72 346.5 
L 518.4 346.5 
L 518.4 47.52 
L 72 47.52 
z
" style="fill: #ffffff"/>
   </g>
   <g id="matplotlib.axis_1">
    <g id="xtick_1">
     <g id="line2d_1"/>
     <g id="text_1">
      <!-- 0-10 -->
      <g style="fill: #262626" transform="translate(86.79375 360.746875)scale(0.1 -0.1)">
       <defs>
        <path id="LiberationSans-30" d="M 3309 2203 
Q 3309 1100 2920 518 
Q 2531 -63 1772 -63 
Q 1013 -63 631 515 
Q 250 1094 250 2203 
Q 250 3338 620 3903 
Q 991 4469 1791 4469 
Q 2569 4469 2939 3897 
Q 3309 3325 3309 2203 
z
M 2738 2203 
Q 2738 3156 2517 3584 
Q 2297 4013 1791 4013 
Q 1272 4013 1045 3591 
Q 819 3169 819 2203 
Q 819 1266 1048 831 
Q 1278 397 1778 397 
Q 2275 397 2506 840 
Q 2738 1284 2738 2203 
z
" transform="scale(0.015625)"/>
        <path id="LiberationSans-2d" d="M 284 1450 
L 284 1950 
L 1847 1950 
L 1847 1450 
L 284 1450 
z
" transform="scale(0.015625)"/>
        <path id="LiberationSans-31" d="M 488 0 
L 488 478 
L 1609 478 
L 1609 3866 
L 616 3156 
L 616 3688 
L 1656 4403 
L 2175 4403 
L 2175 478 
L 3247 478 
L 3247 0 
L 488 0 
z
" transform="scale(0.015625)"/>
       </defs>
       <use xlink:href="#LiberationSans-30"/>
       <use xlink:href="#LiberationSans-2d" x="55.615234"/>
       <use xlink:href="#LiberationSans-31" x="88.916016"/>
       <use xlink:href="#LiberationSans-30" x="144.53125"/>
      </g>
     </g>
    </g>
    <g id="xtick_2">
     <g id="line2d_2"/>
     <g id="text_2">
      <!-- 10-20 -->
      <g style="fill: #262626" transform="translate(133.613281 360.746875)scale(0.1 -0.1)">
       <defs>
        <path id="LiberationSans-32" d="M 322 0 
L 322 397 
Q 481 763 711 1042 
Q 941 1322 1194 1548 
Q 1447 1775 1695 1969 
Q 1944 2163 2144 2356 
Q 2344 2550 2467 2762 
Q 2591 2975 2591 3244 
Q 2591 3606 2378 3806 
Q 2166 4006 1788 4006 
Q 1428 4006 1195 3811 
Q 963 3616 922 3263 
L 347 3316 
Q 409 3844 795 4156 
Q 1181 4469 1788 4469 
Q 2453 4469 2811 4155 
Q 3169 3841 3169 3263 
Q 3169 3006 3051 2753 
Q 2934 2500 2703 2247 
Q 2472 1994 1819 1463 
Q 1459 1169 1246 933 
Q 1034 697 941 478 
L 3238 478 
L 3238 0 
L 322 0 
z
" transform="scale(0.015625)"/>
       </defs>
       <use xlink:href="#LiberationSans-31"/>
       <use xlink:href="#LiberationSans-30" x="55.615234"/>
       <use xlink:href="#LiberationSans-2d" x="111.230469"/>
       <use xlink:href="#LiberationSans-32" x="144.53125"/>
       <use xlink:href="#LiberationSans-30" x="200.146484"/>
      </g>
     </g>
    </g>
    <g id="xtick_3">
     <g id="line2d_3"/>
     <g id="text_3">
      <!-- 20-30 -->
      <g style="fill: #262626" transform="translate(183.213281 360.746875)scale(0.1 -0.1)">
       <defs>
        <path id="LiberationSans-33" d="M 3278 1216 
Q 3278 606 2890 271 
Q 2503 -63 1784 -63 
Q 1116 -63 717 239 
Q 319 541 244 1131 
L 825 1184 
Q 938 403 1784 403 
Q 2209 403 2451 612 
Q 2694 822 2694 1234 
Q 2694 1594 2417 1795 
Q 2141 1997 1619 1997 
L 1300 1997 
L 1300 2484 
L 1606 2484 
Q 2069 2484 2323 2686 
Q 2578 2888 2578 3244 
Q 2578 3597 2370 3801 
Q 2163 4006 1753 4006 
Q 1381 4006 1151 3815 
Q 922 3625 884 3278 
L 319 3322 
Q 381 3863 767 4166 
Q 1153 4469 1759 4469 
Q 2422 4469 2789 4161 
Q 3156 3853 3156 3303 
Q 3156 2881 2920 2617 
Q 2684 2353 2234 2259 
L 2234 2247 
Q 2728 2194 3003 1916 
Q 3278 1638 3278 1216 
z
" transform="scale(0.015625)"/>
       </defs>
       <use xlink:href="#LiberationSans-32"/>
       <use xlink:href="#LiberationSans-30" x="55.615234"/>
       <use xlink:href="#LiberationSans-2d" x="111.230469"/>
       <use xlink:href="#LiberationSans-33" x="144.53125"/>
       <use xlink:href="#LiberationSans-30" x="200.146484"/>
      </g>
     </g>
    </g>
    <g id="xtick_4">
     <g id="line2d_4"/>
     <g id="text_4">
      <!-- 30-40 -->
      <g style="fill: #262626" transform="translate(232.813281 360.746875)scale(0.1 -0.1)">
       <defs>
        <path id="LiberationSans-34" d="M 2753 997 
L 2753 0 
L 2222 0 
L 2222 997 
L 147 997 
L 147 1434 
L 2163 4403 
L 2753 4403 
L 2753 1441 
L 3372 1441 
L 3372 997 
L 2753 997 
z
M 2222 3769 
Q 2216 3750 2134 3603 
Q 2053 3456 2013 3397 
L 884 1734 
L 716 1503 
L 666 1441 
L 2222 1441 
L 2222 3769 
z
" transform="scale(0.015625)"/>
       </defs>
       <use xlink:href="#LiberationSans-33"/>
       <use xlink:href="#LiberationSans-30" x="55.615234"/>
       <use xlink:href="#LiberationSans-2d" x="111.230469"/>
       <use xlink:href="#LiberationSans-34" x="144.53125"/>
       <use xlink:href="#LiberationSans-30" x="200.146484"/>
      </g>
     </g>
    </g>
    <g id="xtick_5">
     <g id="line2d_5"/>
     <g id="text_5">
      <!-- 40-50 -->
      <g style="fill: #262626" transform="translate(282.413281 360.746875)scale(0.1 -0.1)">
       <defs>
        <path id="LiberationSans-35" d="M 3291 1434 
Q 3291 738 2877 337 
Q 2463 -63 1728 -63 
Q 1113 -63 734 206 
Q 356 475 256 984 
L 825 1050 
Q 1003 397 1741 397 
Q 2194 397 2450 670 
Q 2706 944 2706 1422 
Q 2706 1838 2448 2094 
Q 2191 2350 1753 2350 
Q 1525 2350 1328 2278 
Q 1131 2206 934 2034 
L 384 2034 
L 531 4403 
L 3034 4403 
L 3034 3925 
L 1044 3925 
L 959 2528 
Q 1325 2809 1869 2809 
Q 2519 2809 2905 2428 
Q 3291 2047 3291 1434 
z
" transform="scale(0.015625)"/>
       </defs>
       <use xlink:href="#LiberationSans-34"/>
       <use xlink:href="#LiberationSans-30" x="55.615234"/>
       <use xlink:href="#LiberationSans-2d" x="111.230469"/>
       <use xlink:href="#LiberationSans-35" x="144.53125"/>
       <use xlink:href="#LiberationSans-30" x="200.146484"/>
      </g>
     </g>
    </g>
    <g id="xtick_6">
     <g id="line2d_6"/>
     <g id="text_6">
      <!-- 50-60 -->
      <g style="fill: #262626" transform="translate(332.013281 360.746875)scale(0.1 -0.1)">
       <defs>
        <path id="LiberationSans-36" d="M 3278 1441 
Q 3278 744 2900 340 
Q 2522 -63 1856 -63 
Q 1113 -63 719 490 
Q 325 1044 325 2100 
Q 325 3244 734 3856 
Q 1144 4469 1900 4469 
Q 2897 4469 3156 3572 
L 2619 3475 
Q 2453 4013 1894 4013 
Q 1413 4013 1148 3564 
Q 884 3116 884 2266 
Q 1038 2550 1316 2698 
Q 1594 2847 1953 2847 
Q 2563 2847 2920 2465 
Q 3278 2084 3278 1441 
z
M 2706 1416 
Q 2706 1894 2472 2153 
Q 2238 2413 1819 2413 
Q 1425 2413 1183 2183 
Q 941 1953 941 1550 
Q 941 1041 1192 716 
Q 1444 391 1838 391 
Q 2244 391 2475 664 
Q 2706 938 2706 1416 
z
" transform="scale(0.015625)"/>
       </defs>
       <use xlink:href="#LiberationSans-35"/>
       <use xlink:href="#LiberationSans-30" x="55.615234"/>
       <use xlink:href="#LiberationSans-2d" x="111.230469"/>
       <use xlink:href="#LiberationSans-36" x="144.53125"/>
       <use xlink:href="#LiberationSans-30" x="200.146484"/>
      </g>
     </g>
    </g>
    <g id="xtick_7">
     <g id="line2d_7"/>
     <g id="text_7">
      <!-- 60-70 -->
      <g style="fill: #262626" transform="translate(381.613281 360.746875)scale(0.1 -0.1)">
       <defs>
        <path id="LiberationSans-37" d="M 3238 3947 
Q 2563 2916 2284 2331 
Q 2006 1747 1867 1178 
Q 1728 609 1728 0 
L 1141 0 
Q 1141 844 1498 1776 
Q 1856 2709 2694 3925 
L 328 3925 
L 328 4403 
L 3238 4403 
L 3238 3947 
z
" transform="scale(0.015625)"/>
       </defs>
       <use xlink:href="#LiberationSans-36"/>
       <use xlink:href="#LiberationSans-30" x="55.615234"/>
       <use xlink:href="#LiberationSans-2d" x="111.230469"/>
       <use xlink:href="#LiberationSans-37" x="144.53125"/>
       <use xlink:href="#LiberationSans-30" x="200.146484"/>
      </g>
     </g>
    </g>
    <g id="xtick_8">
     <g id="line2d_8"/>
     <g id="text_8">
      <!-- 70-80 -->
      <g style="fill: #262626" transform="translate(431.213281 360.746875)scale(0.1 -0.1)">
       <defs>
        <path id="LiberationSans-38" d="M 3281 1228 
Q 3281 619 2893 278 
Q 2506 -63 1781 -63 
Q 1075 -63 676 271 
Q 278 606 278 1222 
Q 278 1653 525 1947 
Q 772 2241 1156 2303 
L 1156 2316 
Q 797 2400 589 2681 
Q 381 2963 381 3341 
Q 381 3844 757 4156 
Q 1134 4469 1769 4469 
Q 2419 4469 2795 4162 
Q 3172 3856 3172 3334 
Q 3172 2956 2962 2675 
Q 2753 2394 2391 2322 
L 2391 2309 
Q 2813 2241 3047 1952 
Q 3281 1663 3281 1228 
z
M 2588 3303 
Q 2588 4050 1769 4050 
Q 1372 4050 1164 3862 
Q 956 3675 956 3303 
Q 956 2925 1170 2726 
Q 1384 2528 1775 2528 
Q 2172 2528 2380 2711 
Q 2588 2894 2588 3303 
z
M 2697 1281 
Q 2697 1691 2453 1898 
Q 2209 2106 1769 2106 
Q 1341 2106 1100 1882 
Q 859 1659 859 1269 
Q 859 359 1788 359 
Q 2247 359 2472 579 
Q 2697 800 2697 1281 
z
" transform="scale(0.015625)"/>
       </defs>
       <use xlink:href="#LiberationSans-37"/>
       <use xlink:href="#LiberationSans-30" x="55.615234"/>
       <use xlink:href="#LiberationSans-2d" x="111.230469"/>
       <use xlink:href="#LiberationSans-38" x="144.53125"/>
       <use xlink:href="#LiberationSans-30" x="200.146484"/>
      </g>
     </g>
    </g>
    <g id="xtick_9">
     <g id="line2d_9"/>
     <g id="text_9">
      <!-- 80-90 -->
      <g style="fill: #262626" transform="translate(480.813281 360.746875)scale(0.1 -0.1)">
       <defs>
        <path id="LiberationSans-39" d="M 3256 2291 
Q 3256 1156 2842 546 
Q 2428 -63 1663 -63 
Q 1147 -63 836 154 
Q 525 372 391 856 
L 928 941 
Q 1097 391 1672 391 
Q 2156 391 2422 841 
Q 2688 1291 2700 2125 
Q 2575 1844 2272 1673 
Q 1969 1503 1606 1503 
Q 1013 1503 656 1909 
Q 300 2316 300 2988 
Q 300 3678 687 4073 
Q 1075 4469 1766 4469 
Q 2500 4469 2878 3925 
Q 3256 3381 3256 2291 
z
M 2644 2834 
Q 2644 3366 2400 3689 
Q 2156 4013 1747 4013 
Q 1341 4013 1106 3736 
Q 872 3459 872 2988 
Q 872 2506 1106 2226 
Q 1341 1947 1741 1947 
Q 1984 1947 2193 2058 
Q 2403 2169 2523 2372 
Q 2644 2575 2644 2834 
z
" transform="scale(0.015625)"/>
       </defs>
       <use xlink:href="#LiberationSans-38"/>
       <use xlink:href="#LiberationSans-30" x="55.615234"/>
       <use xlink:href="#LiberationSans-2d" x="111.230469"/>
       <use xlink:href="#LiberationSans-39" x="144.53125"/>
       <use xlink:href="#LiberationSans-30" x="200.146484"/>
      </g>
     </g>
    </g>
    <g id="text_10">
     <!-- Slope (degrees) -->
     <g style="fill: #262626" transform="translate(256.069219 374.793437)scale(0.11 -0.11)">
      <defs>
       <path id="LiberationSans-53" d="M 3975 1216 
Q 3975 606 3498 271 
Q 3022 -63 2156 -63 
Q 547 -63 291 1056 
L 869 1172 
Q 969 775 1294 589 
Q 1619 403 2178 403 
Q 2756 403 3070 601 
Q 3384 800 3384 1184 
Q 3384 1400 3286 1534 
Q 3188 1669 3009 1756 
Q 2831 1844 2584 1903 
Q 2338 1963 2038 2031 
Q 1516 2147 1245 2262 
Q 975 2378 819 2520 
Q 663 2663 580 2853 
Q 497 3044 497 3291 
Q 497 3856 930 4162 
Q 1363 4469 2169 4469 
Q 2919 4469 3316 4239 
Q 3713 4009 3872 3456 
L 3284 3353 
Q 3188 3703 2916 3861 
Q 2644 4019 2163 4019 
Q 1634 4019 1356 3844 
Q 1078 3669 1078 3322 
Q 1078 3119 1186 2986 
Q 1294 2853 1497 2761 
Q 1700 2669 2306 2534 
Q 2509 2488 2711 2439 
Q 2913 2391 3097 2323 
Q 3281 2256 3442 2165 
Q 3603 2075 3722 1944 
Q 3841 1813 3908 1634 
Q 3975 1456 3975 1216 
z
" transform="scale(0.015625)"/>
       <path id="LiberationSans-6c" d="M 431 0 
L 431 4638 
L 994 4638 
L 994 0 
L 431 0 
z
" transform="scale(0.015625)"/>
       <path id="LiberationSans-6f" d="M 3291 1694 
Q 3291 806 2900 371 
Q 2509 -63 1766 -63 
Q 1025 -63 647 389 
Q 269 841 269 1694 
Q 269 3444 1784 3444 
Q 2559 3444 2925 3017 
Q 3291 2591 3291 1694 
z
M 2700 1694 
Q 2700 2394 2492 2711 
Q 2284 3028 1794 3028 
Q 1300 3028 1079 2704 
Q 859 2381 859 1694 
Q 859 1025 1076 689 
Q 1294 353 1759 353 
Q 2266 353 2483 678 
Q 2700 1003 2700 1694 
z
" transform="scale(0.015625)"/>
       <path id="LiberationSans-70" d="M 3291 1706 
Q 3291 -63 2047 -63 
Q 1266 -63 997 525 
L 981 525 
Q 994 500 994 -6 
L 994 -1328 
L 431 -1328 
L 431 2691 
Q 431 3213 413 3381 
L 956 3381 
Q 959 3369 965 3292 
Q 972 3216 980 3056 
Q 988 2897 988 2838 
L 1000 2838 
Q 1150 3150 1397 3295 
Q 1644 3441 2047 3441 
Q 2672 3441 2981 3022 
Q 3291 2603 3291 1706 
z
M 2700 1694 
Q 2700 2400 2509 2703 
Q 2319 3006 1903 3006 
Q 1569 3006 1380 2865 
Q 1191 2725 1092 2426 
Q 994 2128 994 1650 
Q 994 984 1206 668 
Q 1419 353 1897 353 
Q 2316 353 2508 661 
Q 2700 969 2700 1694 
z
" transform="scale(0.015625)"/>
       <path id="LiberationSans-65" d="M 863 1572 
Q 863 991 1103 675 
Q 1344 359 1806 359 
Q 2172 359 2392 506 
Q 2613 653 2691 878 
L 3184 738 
Q 2881 -63 1806 -63 
Q 1056 -63 664 384 
Q 272 831 272 1713 
Q 272 2550 664 2997 
Q 1056 3444 1784 3444 
Q 3275 3444 3275 1647 
L 3275 1572 
L 863 1572 
z
M 2694 2003 
Q 2647 2538 2422 2783 
Q 2197 3028 1775 3028 
Q 1366 3028 1127 2754 
Q 888 2481 869 2003 
L 2694 2003 
z
" transform="scale(0.015625)"/>
       <path id="LiberationSans-20" transform="scale(0.015625)"/>
       <path id="LiberationSans-28" d="M 397 1663 
Q 397 2566 680 3284 
Q 963 4003 1550 4638 
L 2094 4638 
Q 1509 3988 1236 3256 
Q 963 2525 963 1656 
Q 963 791 1233 62 
Q 1503 -666 2094 -1325 
L 1550 -1325 
Q 959 -688 678 32 
Q 397 753 397 1650 
L 397 1663 
z
" transform="scale(0.015625)"/>
       <path id="LiberationSans-64" d="M 2566 544 
Q 2409 219 2151 78 
Q 1894 -63 1513 -63 
Q 872 -63 570 368 
Q 269 800 269 1675 
Q 269 3444 1513 3444 
Q 1897 3444 2153 3303 
Q 2409 3163 2566 2856 
L 2572 2856 
L 2566 3234 
L 2566 4638 
L 3128 4638 
L 3128 697 
Q 3128 169 3147 0 
L 2609 0 
Q 2600 50 2589 231 
Q 2578 413 2578 544 
L 2566 544 
z
M 859 1694 
Q 859 984 1046 678 
Q 1234 372 1656 372 
Q 2134 372 2350 703 
Q 2566 1034 2566 1731 
Q 2566 2403 2350 2715 
Q 2134 3028 1663 3028 
Q 1238 3028 1048 2714 
Q 859 2400 859 1694 
z
" transform="scale(0.015625)"/>
       <path id="LiberationSans-67" d="M 1713 -1328 
Q 1159 -1328 831 -1111 
Q 503 -894 409 -494 
L 975 -413 
Q 1031 -647 1223 -773 
Q 1416 -900 1728 -900 
Q 2569 -900 2569 84 
L 2569 628 
L 2563 628 
Q 2403 303 2125 139 
Q 1847 -25 1475 -25 
Q 853 -25 561 387 
Q 269 800 269 1684 
Q 269 2581 583 3007 
Q 897 3434 1538 3434 
Q 1897 3434 2161 3270 
Q 2425 3106 2569 2803 
L 2575 2803 
Q 2575 2897 2587 3128 
Q 2600 3359 2613 3381 
L 3147 3381 
Q 3128 3213 3128 2681 
L 3128 97 
Q 3128 -1328 1713 -1328 
z
M 2569 1691 
Q 2569 2103 2456 2401 
Q 2344 2700 2139 2858 
Q 1934 3016 1675 3016 
Q 1244 3016 1047 2703 
Q 850 2391 850 1691 
Q 850 997 1034 694 
Q 1219 391 1666 391 
Q 1931 391 2137 547 
Q 2344 703 2456 995 
Q 2569 1288 2569 1691 
z
" transform="scale(0.015625)"/>
       <path id="LiberationSans-72" d="M 444 0 
L 444 2594 
Q 444 2950 425 3381 
L 956 3381 
Q 981 2806 981 2691 
L 994 2691 
Q 1128 3125 1303 3284 
Q 1478 3444 1797 3444 
Q 1909 3444 2025 3413 
L 2025 2897 
Q 1913 2928 1725 2928 
Q 1375 2928 1190 2626 
Q 1006 2325 1006 1763 
L 1006 0 
L 444 0 
z
" transform="scale(0.015625)"/>
       <path id="LiberationSans-73" d="M 2969 934 
Q 2969 456 2608 196 
Q 2247 -63 1597 -63 
Q 966 -63 623 145 
Q 281 353 178 794 
L 675 891 
Q 747 619 972 492 
Q 1197 366 1597 366 
Q 2025 366 2223 497 
Q 2422 628 2422 891 
Q 2422 1091 2284 1216 
Q 2147 1341 1841 1422 
L 1438 1528 
Q 953 1653 748 1773 
Q 544 1894 428 2066 
Q 313 2238 313 2488 
Q 313 2950 642 3192 
Q 972 3434 1603 3434 
Q 2163 3434 2492 3237 
Q 2822 3041 2909 2606 
L 2403 2544 
Q 2356 2769 2151 2889 
Q 1947 3009 1603 3009 
Q 1222 3009 1040 2893 
Q 859 2778 859 2544 
Q 859 2400 934 2306 
Q 1009 2213 1156 2147 
Q 1303 2081 1775 1966 
Q 2222 1853 2419 1758 
Q 2616 1663 2730 1547 
Q 2844 1431 2906 1279 
Q 2969 1128 2969 934 
z
" transform="scale(0.015625)"/>
       <path id="LiberationSans-29" d="M 1734 1650 
Q 1734 747 1451 28 
Q 1169 -691 581 -1325 
L 38 -1325 
Q 625 -669 897 57 
Q 1169 784 1169 1656 
Q 1169 2528 895 3256 
Q 622 3984 38 4638 
L 581 4638 
Q 1172 4000 1453 3279 
Q 1734 2559 1734 1663 
L 1734 1650 
z
" transform="scale(0.015625)"/>
      </defs>
      <use xlink:href="#LiberationSans-53"/>
      <use xlink:href="#LiberationSans-6c" x="66.699219"/>
      <use xlink:href="#LiberationSans-6f" x="88.916016"/>
      <use xlink:href="#LiberationSans-70" x="144.53125"/>
      <use xlink:href="#LiberationSans-65" x="200.146484"/>
      <use xlink:href="#LiberationSans-20" x="255.761719"/>
      <use xlink:href="#LiberationSans-28" x="283.544922"/>
      <use xlink:href="#LiberationSans-64" x="316.845703"/>
      <use xlink:href="#LiberationSans-65" x="372.460938"/>
      <use xlink:href="#LiberationSans-67" x="428.076172"/>
      <use xlink:href="#LiberationSans-72" x="483.691406"/>
      <use xlink:href="#LiberationSans-65" x="516.992188"/>
      <use xlink:href="#LiberationSans-65" x="572.607422"/>
      <use xlink:href="#LiberationSans-73" x="628.222656"/>
      <use xlink:href="#LiberationSans-29" x="678.222656"/>
     </g>
    </g>
   </g>
   <g id="matplotlib.axis_2">
    <g id="ytick_1">
     <g id="line2d_10">
      <path d="M 72 320.513501 
L 518.4 320.513501 
" clip-path="url(#p1a418bc392)" style="fill: none; stroke: #cccccc; stroke-linecap: round"/>
     </g>
     <g id="line2d_11"/>
     <g id="text_11">
      <!-- 0 -->
      <g style="fill: #262626" transform="translate(59.439062 324.136939)scale(0.1 -0.1)">
       <use xlink:href="#LiberationSans-30"/>
      </g>
     </g>
    </g>
    <g id="ytick_2">
     <g id="line2d_12">
      <path d="M 72 271.065103 
L 518.4 271.065103 
" clip-path="url(#p1a418bc392)" style="fill: none; stroke: #cccccc; stroke-linecap: round"/>
     </g>
     <g id="line2d_13"/>
     <g id="text_12">
      <!-- 2 -->
      <g style="fill: #262626" transform="translate(59.439062 274.68854)scale(0.1 -0.1)">
       <use xlink:href="#LiberationSans-32"/>
      </g>
     </g>
    </g>
    <g id="ytick_3">
     <g id="line2d_14">
      <path d="M 72 221.616704 
L 518.4 221.616704 
" clip-path="url(#p1a418bc392)" style="fill: none; stroke: #cccccc; stroke-linecap: round"/>
     </g>
     <g id="line2d_15"/>
     <g id="text_13">
      <!-- 4 -->
      <g style="fill: #262626" transform="translate(59.439062 225.240142)scale(0.1 -0.1)">
       <use xlink:href="#LiberationSans-34"/>
      </g>
     </g>
    </g>
    <g id="ytick_4">
     <g id="line2d_16">
      <path d="M 72 172.168306 
L 518.4 172.168306 
" clip-path="url(#p1a418bc392)" style="fill: none; stroke: #cccccc; stroke-linecap: round"/>
     </g>
     <g id="line2d_17"/>
     <g id="text_14">
      <!-- 6 -->
      <g style="fill: #262626" transform="translate(59.439062 175.791744)scale(0.1 -0.1)">
       <use xlink:href="#LiberationSans-36"/>
      </g>
     </g>
    </g>
    <g id="ytick_5">
     <g id="line2d_18">
      <path d="M 72 122.719908 
L 518.4 122.719908 
" clip-path="url(#p1a418bc392)" style="fill: none; stroke: #cccccc; stroke-linecap: round"/>
     </g>
     <g id="line2d_19"/>
     <g id="text_15">
      <!-- 8 -->
      <g style="fill: #262626" transform="translate(59.439062 126.343345)scale(0.1 -0.1)">
       <use xlink:href="#LiberationSans-38"/>
      </g>
     </g>
    </g>
    <g id="ytick_6">
     <g id="line2d_20">
      <path d="M 72 73.271509 
L 518.4 73.271509 
" clip-path="url(#p1a418bc392)" style="fill: none; stroke: #cccccc; stroke-linecap: round"/>
     </g>
     <g id="line2d_21"/>
     <g id="text_16">
      <!-- 10 -->
      <g style="fill: #262626" transform="translate(53.878125 76.894947)scale(0.1 -0.1)">
       <use xlink:href="#LiberationSans-31"/>
       <use xlink:href="#LiberationSans-30" x="55.615234"/>
      </g>
     </g>
    </g>
    <g id="text_17">
     <!-- VE / VF -->
     <g style="fill: #262626" transform="translate(47.595625 215.959219)rotate(-90)scale(0.11 -0.11)">
      <defs>
       <path id="LiberationSans-56" d="M 2444 0 
L 1825 0 
L 28 4403 
L 656 4403 
L 1875 1303 
L 2138 525 
L 2400 1303 
L 3613 4403 
L 4241 4403 
L 2444 0 
z
" transform="scale(0.015625)"/>
       <path id="LiberationSans-45" d="M 525 0 
L 525 4403 
L 3866 4403 
L 3866 3916 
L 1122 3916 
L 1122 2503 
L 3678 2503 
L 3678 2022 
L 1122 2022 
L 1122 488 
L 3994 488 
L 3994 0 
L 525 0 
z
" transform="scale(0.015625)"/>
       <path id="LiberationSans-2f" d="M 0 -63 
L 1284 4638 
L 1778 4638 
L 506 -63 
L 0 -63 
z
" transform="scale(0.015625)"/>
       <path id="LiberationSans-46" d="M 1122 3916 
L 1122 2278 
L 3578 2278 
L 3578 1784 
L 1122 1784 
L 1122 0 
L 525 0 
L 525 4403 
L 3653 4403 
L 3653 3916 
L 1122 3916 
z
" transform="scale(0.015625)"/>
      </defs>
      <use xlink:href="#LiberationSans-56"/>
      <use xlink:href="#LiberationSans-45" x="66.699219"/>
      <use xlink:href="#LiberationSans-20" x="133.398438"/>
      <use xlink:href="#LiberationSans-2f" x="161.181641"/>
      <use xlink:href="#LiberationSans-20" x="188.964844"/>
      <use xlink:href="#LiberationSans-56" x="216.748047"/>
      <use xlink:href="#LiberationSans-46" x="283.447266"/>
     </g>
    </g>
   </g>
   <g id="PolyCollection_1">
    <defs>
     <path id="mbde36db3c2" d="M 96.827209 -63.09 
L 96.772791 -63.09 
L 96.729075 -65.835455 
L 96.639979 -68.580909 
L 96.485806 -71.326364 
L 96.259402 -74.071818 
L 95.977793 -76.817273 
L 95.682823 -79.562727 
L 95.426936 -82.308182 
L 95.252281 -85.053636 
L 95.176523 -87.799091 
L 95.192047 -90.544545 
L 95.275015 -93.29 
L 95.396742 -96.035455 
L 95.532239 -98.780909 
L 95.664296 -101.526364 
L 95.783677 -104.271818 
L 95.887156 -107.017273 
L 95.975323 -109.762727 
L 96.051027 -112.508182 
L 96.118096 -115.253636 
L 96.179938 -117.999091 
L 96.238454 -120.744545 
L 96.293896 -123.49 
L 96.345664 -126.235455 
L 96.393226 -128.980909 
L 96.436495 -131.726364 
L 96.475644 -134.471818 
L 96.510809 -137.217273 
L 96.541934 -139.962727 
L 96.568745 -142.708182 
L 96.590855 -145.453636 
L 96.608137 -148.199091 
L 96.621198 -150.944545 
L 96.631515 -153.69 
L 96.64096 -156.435455 
L 96.651017 -159.180909 
L 96.662263 -161.926364 
L 96.674398 -164.671818 
L 96.686632 -167.417273 
L 96.698107 -170.162727 
L 96.708158 -172.908182 
L 96.716465 -175.653636 
L 96.72308 -178.399091 
L 96.728319 -181.144545 
L 96.732566 -183.89 
L 96.736167 -186.635455 
L 96.739482 -189.380909 
L 96.742944 -192.126364 
L 96.746937 -194.871818 
L 96.751563 -197.617273 
L 96.756515 -200.362727 
L 96.761191 -203.108182 
L 96.764956 -205.853636 
L 96.767413 -208.599091 
L 96.76859 -211.344545 
L 96.768912 -214.09 
L 96.76895 -216.835455 
L 96.769087 -219.580909 
L 96.769378 -222.326364 
L 96.769655 -225.071818 
L 96.769712 -227.817273 
L 96.769374 -230.562727 
L 96.7685 -233.308182 
L 96.766989 -236.053636 
L 96.764823 -238.799091 
L 96.762122 -241.544545 
L 96.7592 -244.29 
L 96.75658 -247.035455 
L 96.754852 -249.780909 
L 96.754401 -252.526364 
L 96.755207 -255.271818 
L 96.756902 -258.017273 
L 96.759001 -260.762727 
L 96.761087 -263.508182 
L 96.762881 -266.253636 
L 96.76429 -268.999091 
L 96.765463 -271.744545 
L 96.766776 -274.49 
L 96.768638 -277.235455 
L 96.771228 -279.980909 
L 96.774318 -282.726364 
L 96.777353 -285.471818 
L 96.779788 -288.217273 
L 96.781412 -290.962727 
L 96.782403 -293.708182 
L 96.783064 -296.453636 
L 96.783573 -299.199091 
L 96.783968 -301.944545 
L 96.784345 -304.69 
L 96.784969 -307.435455 
L 96.786162 -310.180909 
L 96.788051 -312.926364 
L 96.790448 -315.671818 
L 96.79296 -318.417273 
L 96.795212 -321.162727 
L 96.796994 -323.908182 
L 96.798266 -326.653636 
L 96.799091 -329.399091 
L 96.799573 -332.144545 
L 96.799823 -334.89 
L 96.800177 -334.89 
L 96.800177 -334.89 
L 96.800427 -332.144545 
L 96.800909 -329.399091 
L 96.801734 -326.653636 
L 96.803006 -323.908182 
L 96.804788 -321.162727 
L 96.80704 -318.417273 
L 96.809552 -315.671818 
L 96.811949 -312.926364 
L 96.813838 -310.180909 
L 96.815031 -307.435455 
L 96.815655 -304.69 
L 96.816032 -301.944545 
L 96.816427 -299.199091 
L 96.816936 -296.453636 
L 96.817597 -293.708182 
L 96.818588 -290.962727 
L 96.820212 -288.217273 
L 96.822647 -285.471818 
L 96.825682 -282.726364 
L 96.828772 -279.980909 
L 96.831362 -277.235455 
L 96.833224 -274.49 
L 96.834537 -271.744545 
L 96.83571 -268.999091 
L 96.837119 -266.253636 
L 96.838913 -263.508182 
L 96.840999 -260.762727 
L 96.843098 -258.017273 
L 96.844793 -255.271818 
L 96.845599 -252.526364 
L 96.845148 -249.780909 
L 96.84342 -247.035455 
L 96.8408 -244.29 
L 96.837878 -241.544545 
L 96.835177 -238.799091 
L 96.833011 -236.053636 
L 96.8315 -233.308182 
L 96.830626 -230.562727 
L 96.830288 -227.817273 
L 96.830345 -225.071818 
L 96.830622 -222.326364 
L 96.830913 -219.580909 
L 96.83105 -216.835455 
L 96.831088 -214.09 
L 96.83141 -211.344545 
L 96.832587 -208.599091 
L 96.835044 -205.853636 
L 96.838809 -203.108182 
L 96.843485 -200.362727 
L 96.848437 -197.617273 
L 96.853063 -194.871818 
L 96.857056 -192.126364 
L 96.860518 -189.380909 
L 96.863833 -186.635455 
L 96.867434 -183.89 
L 96.871681 -181.144545 
L 96.87692 -178.399091 
L 96.883535 -175.653636 
L 96.891842 -172.908182 
L 96.901893 -170.162727 
L 96.913368 -167.417273 
L 96.925602 -164.671818 
L 96.937737 -161.926364 
L 96.948983 -159.180909 
L 96.95904 -156.435455 
L 96.968485 -153.69 
L 96.978802 -150.944545 
L 96.991863 -148.199091 
L 97.009145 -145.453636 
L 97.031255 -142.708182 
L 97.058066 -139.962727 
L 97.089191 -137.217273 
L 97.124356 -134.471818 
L 97.163505 -131.726364 
L 97.206774 -128.980909 
L 97.254336 -126.235455 
L 97.306104 -123.49 
L 97.361546 -120.744545 
L 97.420062 -117.999091 
L 97.481904 -115.253636 
L 97.548973 -112.508182 
L 97.624677 -109.762727 
L 97.712844 -107.017273 
L 97.816323 -104.271818 
L 97.935704 -101.526364 
L 98.067761 -98.780909 
L 98.203258 -96.035455 
L 98.324985 -93.29 
L 98.407953 -90.544545 
L 98.423477 -87.799091 
L 98.347719 -85.053636 
L 98.173064 -82.308182 
L 97.917177 -79.562727 
L 97.622207 -76.817273 
L 97.340598 -74.071818 
L 97.114194 -71.326364 
L 96.960021 -68.580909 
L 96.870925 -65.835455 
L 96.827209 -63.09 
z
" style="stroke: #464646; stroke-width: 1.75"/>
    </defs>
    <g clip-path="url(#p1a418bc392)">
     <use xlink:href="#mbde36db3c2" x="0" y="396" style="fill: #ea96a3; stroke: #464646; stroke-width: 1.75"/>
    </g>
   </g>
   <g id="PolyCollection_2">
    <defs>
     <path id="m6e9788c7e6" d="M 146.409356 -71.784189 
L 146.390644 -71.784189 
L 146.295292 -74.359879 
L 145.839962 -76.935569 
L 144.729642 -79.511259 
L 143.074834 -82.086949 
L 141.217819 -84.662639 
L 139.264896 -87.238329 
L 136.993766 -89.814019 
L 134.745363 -92.389709 
L 133.607842 -94.965399 
L 133.959533 -97.541089 
L 135.144339 -100.116779 
L 136.491775 -102.692469 
L 137.787887 -105.268159 
L 138.920333 -107.843849 
L 139.907222 -110.419539 
L 140.77972 -112.995229 
L 141.48719 -115.570919 
L 142.09868 -118.146609 
L 142.65453 -120.722299 
L 143.15104 -123.297989 
L 143.607355 -125.873679 
L 143.993591 -128.449369 
L 144.285969 -131.025059 
L 144.559625 -133.600749 
L 144.806474 -136.176439 
L 144.983553 -138.752129 
L 145.148861 -141.327819 
L 145.331567 -143.903509 
L 145.502411 -146.479199 
L 145.625329 -149.054889 
L 145.705753 -151.630579 
L 145.804168 -154.206269 
L 145.895734 -156.781959 
L 145.962919 -159.357649 
L 146.006198 -161.933339 
L 146.027916 -164.509029 
L 146.056353 -167.084719 
L 146.090964 -169.660408 
L 146.127461 -172.236098 
L 146.165141 -174.811788 
L 146.185231 -177.387478 
L 146.194516 -179.963168 
L 146.216537 -182.538858 
L 146.236852 -185.114548 
L 146.250384 -187.690238 
L 146.26432 -190.265928 
L 146.278577 -192.841618 
L 146.290263 -195.417308 
L 146.294345 -197.992998 
L 146.29181 -200.568688 
L 146.299685 -203.144378 
L 146.318246 -205.720068 
L 146.330692 -208.295758 
L 146.335236 -210.871448 
L 146.335707 -213.447138 
L 146.338769 -216.022828 
L 146.344218 -218.598518 
L 146.343022 -221.174208 
L 146.341141 -223.749898 
L 146.347939 -226.325588 
L 146.361459 -228.901278 
L 146.365765 -231.476968 
L 146.361045 -234.052658 
L 146.362178 -236.628348 
L 146.367403 -239.204038 
L 146.371754 -241.779728 
L 146.379769 -244.355418 
L 146.383454 -246.931108 
L 146.378782 -249.506798 
L 146.37688 -252.082488 
L 146.380185 -254.658178 
L 146.384252 -257.233868 
L 146.38607 -259.809558 
L 146.387723 -262.385248 
L 146.388899 -264.960938 
L 146.389122 -267.536628 
L 146.388296 -270.112318 
L 146.385128 -272.688008 
L 146.383885 -275.263698 
L 146.384801 -277.839388 
L 146.384749 -280.415078 
L 146.38502 -282.990768 
L 146.38816 -285.566458 
L 146.392135 -288.142148 
L 146.39261 -290.717838 
L 146.39005 -293.293528 
L 146.38856 -295.869218 
L 146.389319 -298.444908 
L 146.391928 -301.020598 
L 146.394373 -303.596288 
L 146.394598 -306.171978 
L 146.393909 -308.747668 
L 146.395751 -311.323358 
L 146.396797 -313.899048 
L 146.395496 -316.474738 
L 146.395298 -319.050428 
L 146.396563 -321.626118 
L 146.398579 -324.201808 
L 146.399757 -326.777498 
L 146.400243 -326.777498 
L 146.400243 -326.777498 
L 146.401421 -324.201808 
L 146.403437 -321.626118 
L 146.404702 -319.050428 
L 146.404504 -316.474738 
L 146.403203 -313.899048 
L 146.404249 -311.323358 
L 146.406091 -308.747668 
L 146.405402 -306.171978 
L 146.405627 -303.596288 
L 146.408072 -301.020598 
L 146.410681 -298.444908 
L 146.41144 -295.869218 
L 146.40995 -293.293528 
L 146.40739 -290.717838 
L 146.407865 -288.142148 
L 146.41184 -285.566458 
L 146.41498 -282.990768 
L 146.415251 -280.415078 
L 146.415199 -277.839388 
L 146.416115 -275.263698 
L 146.414872 -272.688008 
L 146.411704 -270.112318 
L 146.410878 -267.536628 
L 146.411101 -264.960938 
L 146.412277 -262.385248 
L 146.41393 -259.809558 
L 146.415748 -257.233868 
L 146.419815 -254.658178 
L 146.42312 -252.082488 
L 146.421218 -249.506798 
L 146.416546 -246.931108 
L 146.420231 -244.355418 
L 146.428246 -241.779728 
L 146.432597 -239.204038 
L 146.437822 -236.628348 
L 146.438955 -234.052658 
L 146.434235 -231.476968 
L 146.438541 -228.901278 
L 146.452061 -226.325588 
L 146.458859 -223.749898 
L 146.456978 -221.174208 
L 146.455782 -218.598518 
L 146.461231 -216.022828 
L 146.464293 -213.447138 
L 146.464764 -210.871448 
L 146.469308 -208.295758 
L 146.481754 -205.720068 
L 146.500315 -203.144378 
L 146.50819 -200.568688 
L 146.505655 -197.992998 
L 146.509737 -195.417308 
L 146.521423 -192.841618 
L 146.53568 -190.265928 
L 146.549616 -187.690238 
L 146.563148 -185.114548 
L 146.583463 -182.538858 
L 146.605484 -179.963168 
L 146.614769 -177.387478 
L 146.634859 -174.811788 
L 146.672539 -172.236098 
L 146.709036 -169.660408 
L 146.743647 -167.084719 
L 146.772084 -164.509029 
L 146.793802 -161.933339 
L 146.837081 -159.357649 
L 146.904266 -156.781959 
L 146.995832 -154.206269 
L 147.094247 -151.630579 
L 147.174671 -149.054889 
L 147.297589 -146.479199 
L 147.468433 -143.903509 
L 147.651139 -141.327819 
L 147.816447 -138.752129 
L 147.993526 -136.176439 
L 148.240375 -133.600749 
L 148.514031 -131.025059 
L 148.806409 -128.449369 
L 149.192645 -125.873679 
L 149.64896 -123.297989 
L 150.14547 -120.722299 
L 150.70132 -118.146609 
L 151.31281 -115.570919 
L 152.02028 -112.995229 
L 152.892778 -110.419539 
L 153.879667 -107.843849 
L 155.012113 -105.268159 
L 156.308225 -102.692469 
L 157.655661 -100.116779 
L 158.840467 -97.541089 
L 159.192158 -94.965399 
L 158.054637 -92.389709 
L 155.806234 -89.814019 
L 153.535104 -87.238329 
L 151.582181 -84.662639 
L 149.725166 -82.086949 
L 148.070358 -79.511259 
L 146.960038 -76.935569 
L 146.504708 -74.359879 
L 146.409356 -71.784189 
z
" style="stroke: #464646; stroke-width: 1.75"/>
    </defs>
    <g clip-path="url(#p1a418bc392)">
     <use xlink:href="#m6e9788c7e6" x="0" y="396" style="fill: #d1964d; stroke: #464646; stroke-width: 1.75"/>
    </g>
   </g>
   <g id="PolyCollection_3">
    <defs>
     <path id="m1183991b0d" d="M 196.002692 -72.182432 
L 195.997308 -72.182432 
L 195.974923 -74.755647 
L 195.874952 -77.328861 
L 195.581311 -79.902076 
L 194.861872 -82.47529 
L 193.280222 -85.048505 
L 190.320402 -87.621719 
L 185.969767 -90.194934 
L 181.32158 -92.768149 
L 177.97961 -95.341363 
L 176.383149 -97.914578 
L 176.16 -100.487792 
L 176.775281 -103.061007 
L 177.767031 -105.634221 
L 178.992596 -108.207436 
L 180.385152 -110.780651 
L 181.714746 -113.353865 
L 182.891798 -115.92708 
L 184.048953 -118.500294 
L 185.181141 -121.073509 
L 186.323091 -123.646724 
L 187.386189 -126.219938 
L 188.302145 -128.793153 
L 189.228732 -131.366367 
L 190.119115 -133.939582 
L 190.844688 -136.512796 
L 191.506905 -139.086011 
L 192.09631 -141.659226 
L 192.562509 -144.23244 
L 192.950544 -146.805655 
L 193.333022 -149.378869 
L 193.695791 -151.952084 
L 194.026932 -154.525298 
L 194.302351 -157.098513 
L 194.510602 -159.671728 
L 194.697321 -162.244942 
L 194.858484 -164.818157 
L 194.975835 -167.391371 
L 195.072464 -169.964586 
L 195.152033 -172.5378 
L 195.228662 -175.111015 
L 195.295056 -177.68423 
L 195.338308 -180.257444 
L 195.39789 -182.830659 
L 195.47127 -185.403873 
L 195.531955 -187.977088 
L 195.578361 -190.550303 
L 195.611314 -193.123517 
L 195.632285 -195.696732 
L 195.65142 -198.269946 
L 195.687171 -200.843161 
L 195.728752 -203.416375 
L 195.766628 -205.98959 
L 195.790991 -208.562805 
L 195.795682 -211.136019 
L 195.795485 -213.709234 
L 195.801208 -216.282448 
L 195.821634 -218.855663 
L 195.841114 -221.428877 
L 195.846369 -224.002092 
L 195.847206 -226.575307 
L 195.858101 -229.148521 
L 195.871512 -231.721736 
L 195.870968 -234.29495 
L 195.874801 -236.868165 
L 195.889229 -239.44138 
L 195.902201 -242.014594 
L 195.910155 -244.587809 
L 195.915793 -247.161023 
L 195.918666 -249.734238 
L 195.928119 -252.307452 
L 195.939889 -254.880667 
L 195.937672 -257.453882 
L 195.929265 -260.027096 
L 195.935352 -262.600311 
L 195.952984 -265.173525 
L 195.957091 -267.74674 
L 195.952654 -270.319954 
L 195.952924 -272.893169 
L 195.957808 -275.466384 
L 195.962214 -278.039598 
L 195.963168 -280.612813 
L 195.962241 -283.186027 
L 195.969232 -285.759242 
L 195.976186 -288.332456 
L 195.975766 -290.905671 
L 195.975932 -293.478886 
L 195.978837 -296.0521 
L 195.978738 -298.625315 
L 195.979064 -301.198529 
L 195.983218 -303.771744 
L 195.984358 -306.344959 
L 195.981939 -308.918173 
L 195.982044 -311.491388 
L 195.984438 -314.064602 
L 195.98406 -316.637817 
L 195.984219 -319.211031 
L 195.989248 -321.784246 
L 195.996314 -324.357461 
L 195.999477 -326.930675 
L 196.000523 -326.930675 
L 196.000523 -326.930675 
L 196.003686 -324.357461 
L 196.010752 -321.784246 
L 196.015781 -319.211031 
L 196.01594 -316.637817 
L 196.015562 -314.064602 
L 196.017956 -311.491388 
L 196.018061 -308.918173 
L 196.015642 -306.344959 
L 196.016782 -303.771744 
L 196.020936 -301.198529 
L 196.021262 -298.625315 
L 196.021163 -296.0521 
L 196.024068 -293.478886 
L 196.024234 -290.905671 
L 196.023814 -288.332456 
L 196.030768 -285.759242 
L 196.037759 -283.186027 
L 196.036832 -280.612813 
L 196.037786 -278.039598 
L 196.042192 -275.466384 
L 196.047076 -272.893169 
L 196.047346 -270.319954 
L 196.042909 -267.74674 
L 196.047016 -265.173525 
L 196.064648 -262.600311 
L 196.070735 -260.027096 
L 196.062328 -257.453882 
L 196.060111 -254.880667 
L 196.071881 -252.307452 
L 196.081334 -249.734238 
L 196.084207 -247.161023 
L 196.089845 -244.587809 
L 196.097799 -242.014594 
L 196.110771 -239.44138 
L 196.125199 -236.868165 
L 196.129032 -234.29495 
L 196.128488 -231.721736 
L 196.141899 -229.148521 
L 196.152794 -226.575307 
L 196.153631 -224.002092 
L 196.158886 -221.428877 
L 196.178366 -218.855663 
L 196.198792 -216.282448 
L 196.204515 -213.709234 
L 196.204318 -211.136019 
L 196.209009 -208.562805 
L 196.233372 -205.98959 
L 196.271248 -203.416375 
L 196.312829 -200.843161 
L 196.34858 -198.269946 
L 196.367715 -195.696732 
L 196.388686 -193.123517 
L 196.421639 -190.550303 
L 196.468045 -187.977088 
L 196.52873 -185.403873 
L 196.60211 -182.830659 
L 196.661692 -180.257444 
L 196.704944 -177.68423 
L 196.771338 -175.111015 
L 196.847967 -172.5378 
L 196.927536 -169.964586 
L 197.024165 -167.391371 
L 197.141516 -164.818157 
L 197.302679 -162.244942 
L 197.489398 -159.671728 
L 197.697649 -157.098513 
L 197.973068 -154.525298 
L 198.304209 -151.952084 
L 198.666978 -149.378869 
L 199.049456 -146.805655 
L 199.437491 -144.23244 
L 199.90369 -141.659226 
L 200.493095 -139.086011 
L 201.155312 -136.512796 
L 201.880885 -133.939582 
L 202.771268 -131.366367 
L 203.697855 -128.793153 
L 204.613811 -126.219938 
L 205.676909 -123.646724 
L 206.818859 -121.073509 
L 207.951047 -118.500294 
L 209.108202 -115.92708 
L 210.285254 -113.353865 
L 211.614848 -110.780651 
L 213.007404 -108.207436 
L 214.232969 -105.634221 
L 215.224719 -103.061007 
L 215.84 -100.487792 
L 215.616851 -97.914578 
L 214.02039 -95.341363 
L 210.67842 -92.768149 
L 206.030233 -90.194934 
L 201.679598 -87.621719 
L 198.719778 -85.048505 
L 197.138128 -82.47529 
L 196.418689 -79.902076 
L 196.125048 -77.328861 
L 196.025077 -74.755647 
L 196.002692 -72.182432 
z
" style="stroke: #464646; stroke-width: 1.75"/>
    </defs>
    <g clip-path="url(#p1a418bc392)">
     <use xlink:href="#m1183991b0d" x="0" y="396" style="fill: #a29f46; stroke: #464646; stroke-width: 1.75"/>
    </g>
   </g>
   <g id="PolyCollection_4">
    <defs>
     <path id="md9aaa8f124" d="M 245.601562 -71.159695 
L 245.598438 -71.159695 
L 245.59264 -73.762291 
L 245.577624 -76.364886 
L 245.545804 -78.967482 
L 245.466663 -81.570078 
L 245.246945 -84.172674 
L 244.694973 -86.775269 
L 243.591353 -89.377865 
L 241.964118 -91.980461 
L 240.228625 -94.583056 
L 238.829626 -97.185652 
L 237.903222 -99.788248 
L 237.376298 -102.390844 
L 237.110377 -104.993439 
L 236.975029 -107.596035 
L 236.927058 -110.198631 
L 236.971791 -112.801227 
L 237.057491 -115.403822 
L 237.116652 -118.006418 
L 237.241776 -120.609014 
L 237.5651 -123.211609 
L 238.05226 -125.814205 
L 238.61203 -128.416801 
L 239.169861 -131.019397 
L 239.677832 -133.621992 
L 240.179644 -136.224588 
L 240.72372 -138.827184 
L 241.280557 -141.42978 
L 241.810424 -144.032375 
L 242.293676 -146.634971 
L 242.696327 -149.237567 
L 243.021367 -151.840162 
L 243.325247 -154.442758 
L 243.623918 -157.045354 
L 243.893528 -159.64795 
L 244.124368 -162.250545 
L 244.307954 -164.853141 
L 244.438017 -167.455737 
L 244.537754 -170.058333 
L 244.640674 -172.660928 
L 244.753685 -175.263524 
L 244.859472 -177.86612 
L 244.949075 -180.468715 
L 245.024169 -183.071311 
L 245.089875 -185.673907 
L 245.146959 -188.276503 
L 245.184427 -190.879098 
L 245.205802 -193.481694 
L 245.229264 -196.08429 
L 245.257186 -198.686886 
L 245.279417 -201.289481 
L 245.297309 -203.892077 
L 245.320349 -206.494673 
L 245.348085 -209.097268 
L 245.371311 -211.699864 
L 245.383831 -214.30246 
L 245.393532 -216.905056 
L 245.409991 -219.507651 
L 245.429167 -222.110247 
L 245.445565 -224.712843 
L 245.455986 -227.315439 
L 245.462066 -229.918034 
L 245.472667 -232.52063 
L 245.486622 -235.123226 
L 245.495872 -237.725822 
L 245.49987 -240.328417 
L 245.503835 -242.931013 
L 245.511128 -245.533609 
L 245.51945 -248.136204 
L 245.526065 -250.7388 
L 245.531266 -253.341396 
L 245.535407 -255.943992 
L 245.539561 -258.546587 
L 245.543965 -261.149183 
L 245.545055 -263.751779 
L 245.5422 -266.354375 
L 245.541377 -268.95697 
L 245.546386 -271.559566 
L 245.554271 -274.162162 
L 245.560849 -276.764757 
L 245.563445 -279.367353 
L 245.564231 -281.969949 
L 245.565762 -284.572545 
L 245.566331 -287.17514 
L 245.567323 -289.777736 
L 245.571953 -292.380332 
L 245.577139 -294.982928 
L 245.579176 -297.585523 
L 245.579929 -300.188119 
L 245.582047 -302.790715 
L 245.58531 -305.39331 
L 245.587571 -307.995906 
L 245.58737 -310.598502 
L 245.585369 -313.201098 
L 245.584274 -315.803693 
L 245.586374 -318.406289 
L 245.590797 -321.008885 
L 245.595311 -323.611481 
L 245.598362 -326.214076 
L 245.599647 -328.816672 
L 245.600353 -328.816672 
L 245.600353 -328.816672 
L 245.601638 -326.214076 
L 245.604689 -323.611481 
L 245.609203 -321.008885 
L 245.613626 -318.406289 
L 245.615726 -315.803693 
L 245.614631 -313.201098 
L 245.61263 -310.598502 
L 245.612429 -307.995906 
L 245.61469 -305.39331 
L 245.617953 -302.790715 
L 245.620071 -300.188119 
L 245.620824 -297.585523 
L 245.622861 -294.982928 
L 245.628047 -292.380332 
L 245.632677 -289.777736 
L 245.633669 -287.17514 
L 245.634238 -284.572545 
L 245.635769 -281.969949 
L 245.636555 -279.367353 
L 245.639151 -276.764757 
L 245.645729 -274.162162 
L 245.653614 -271.559566 
L 245.658623 -268.95697 
L 245.6578 -266.354375 
L 245.654945 -263.751779 
L 245.656035 -261.149183 
L 245.660439 -258.546587 
L 245.664593 -255.943992 
L 245.668734 -253.341396 
L 245.673935 -250.7388 
L 245.68055 -248.136204 
L 245.688872 -245.533609 
L 245.696165 -242.931013 
L 245.70013 -240.328417 
L 245.704128 -237.725822 
L 245.713378 -235.123226 
L 245.727333 -232.52063 
L 245.737934 -229.918034 
L 245.744014 -227.315439 
L 245.754435 -224.712843 
L 245.770833 -222.110247 
L 245.790009 -219.507651 
L 245.806468 -216.905056 
L 245.816169 -214.30246 
L 245.828689 -211.699864 
L 245.851915 -209.097268 
L 245.879651 -206.494673 
L 245.902691 -203.892077 
L 245.920583 -201.289481 
L 245.942814 -198.686886 
L 245.970736 -196.08429 
L 245.994198 -193.481694 
L 246.015573 -190.879098 
L 246.053041 -188.276503 
L 246.110125 -185.673907 
L 246.175831 -183.071311 
L 246.250925 -180.468715 
L 246.340528 -177.86612 
L 246.446315 -175.263524 
L 246.559326 -172.660928 
L 246.662246 -170.058333 
L 246.761983 -167.455737 
L 246.892046 -164.853141 
L 247.075632 -162.250545 
L 247.306472 -159.64795 
L 247.576082 -157.045354 
L 247.874753 -154.442758 
L 248.178633 -151.840162 
L 248.503673 -149.237567 
L 248.906324 -146.634971 
L 249.389576 -144.032375 
L 249.919443 -141.42978 
L 250.47628 -138.827184 
L 251.020356 -136.224588 
L 251.522168 -133.621992 
L 252.030139 -131.019397 
L 252.58797 -128.416801 
L 253.14774 -125.814205 
L 253.6349 -123.211609 
L 253.958224 -120.609014 
L 254.083348 -118.006418 
L 254.142509 -115.403822 
L 254.228209 -112.801227 
L 254.272942 -110.198631 
L 254.224971 -107.596035 
L 254.089623 -104.993439 
L 253.823702 -102.390844 
L 253.296778 -99.788248 
L 252.370374 -97.185652 
L 250.971375 -94.583056 
L 249.235882 -91.980461 
L 247.608647 -89.377865 
L 246.505027 -86.775269 
L 245.953055 -84.172674 
L 245.733337 -81.570078 
L 245.654196 -78.967482 
L 245.622376 -76.364886 
L 245.60736 -73.762291 
L 245.601562 -71.159695 
z
" style="stroke: #464646; stroke-width: 1.75"/>
    </defs>
    <g clip-path="url(#p1a418bc392)">
     <use xlink:href="#md9aaa8f124" x="0" y="396" style="fill: #60ae47; stroke: #464646; stroke-width: 1.75"/>
    </g>
   </g>
   <g id="PolyCollection_5">
    <defs>
     <path id="m0a8333cc92" d="M 295.200974 -73.69914 
L 295.199026 -73.69914 
L 295.196804 -76.305769 
L 295.190824 -78.912397 
L 295.176348 -81.519025 
L 295.144604 -84.125653 
L 295.082568 -86.732281 
L 294.977335 -89.33891 
L 294.825447 -91.945538 
L 294.639816 -94.552166 
L 294.445141 -97.158794 
L 294.264515 -99.765422 
L 294.110592 -102.372051 
L 293.987275 -104.978679 
L 293.894495 -107.585307 
L 293.829886 -110.191935 
L 293.789673 -112.798563 
L 293.770764 -115.405192 
L 293.77129 -118.01182 
L 293.788606 -120.618448 
L 293.817921 -123.225076 
L 293.853879 -125.831704 
L 293.893727 -128.438333 
L 293.939098 -131.044961 
L 293.994275 -133.651589 
L 294.06191 -136.258217 
L 294.140399 -138.864845 
L 294.225602 -141.471474 
L 294.314223 -144.078102 
L 294.404632 -146.68473 
L 294.494986 -149.291358 
L 294.581703 -151.897986 
L 294.660056 -154.504615 
L 294.726295 -157.111243 
L 294.779731 -159.717871 
L 294.822986 -162.324499 
L 294.85972 -164.931127 
L 294.892061 -167.537756 
L 294.920511 -170.144384 
L 294.945494 -172.751012 
L 294.967766 -175.35764 
L 294.987766 -177.964268 
L 295.005645 -180.570897 
L 295.021667 -183.177525 
L 295.035833 -185.784153 
L 295.047688 -188.390781 
L 295.057402 -190.997409 
L 295.066588 -193.604037 
L 295.077002 -196.210666 
L 295.088674 -198.817294 
L 295.100115 -201.423922 
L 295.110068 -204.03055 
L 295.118224 -206.637178 
L 295.124481 -209.243807 
L 295.128428 -211.850435 
L 295.129929 -214.457063 
L 295.129937 -217.063691 
L 295.130322 -219.670319 
L 295.132633 -222.276948 
L 295.137059 -224.883576 
L 295.142752 -227.490204 
L 295.148909 -230.096832 
L 295.154974 -232.70346 
L 295.159996 -235.310089 
L 295.162794 -237.916717 
L 295.163248 -240.523345 
L 295.162984 -243.129973 
L 295.164202 -245.736601 
L 295.167779 -248.34323 
L 295.172665 -250.949858 
L 295.17706 -253.556486 
L 295.179913 -256.163114 
L 295.181337 -258.769742 
L 295.181991 -261.376371 
L 295.182442 -263.982999 
L 295.183105 -266.589627 
L 295.184337 -269.196255 
L 295.186231 -271.802883 
L 295.188413 -274.409512 
L 295.19032 -277.01614 
L 295.191662 -279.622768 
L 295.192502 -282.229396 
L 295.193075 -284.836024 
L 295.193615 -287.442653 
L 295.194201 -290.049281 
L 295.194681 -292.655909 
L 295.194823 -295.262537 
L 295.194619 -297.869165 
L 295.194357 -300.475794 
L 295.194369 -303.082422 
L 295.194701 -305.68905 
L 295.195065 -308.295678 
L 295.195138 -310.902306 
L 295.194937 -313.508934 
L 295.194848 -316.115563 
L 295.195284 -318.722191 
L 295.196298 -321.328819 
L 295.197568 -323.935447 
L 295.198678 -326.542075 
L 295.199411 -329.148704 
L 295.199786 -331.755332 
L 295.200214 -331.755332 
L 295.200214 -331.755332 
L 295.200589 -329.148704 
L 295.201322 -326.542075 
L 295.202432 -323.935447 
L 295.203702 -321.328819 
L 295.204716 -318.722191 
L 295.205152 -316.115563 
L 295.205063 -313.508934 
L 295.204862 -310.902306 
L 295.204935 -308.295678 
L 295.205299 -305.68905 
L 295.205631 -303.082422 
L 295.205643 -300.475794 
L 295.205381 -297.869165 
L 295.205177 -295.262537 
L 295.205319 -292.655909 
L 295.205799 -290.049281 
L 295.206385 -287.442653 
L 295.206925 -284.836024 
L 295.207498 -282.229396 
L 295.208338 -279.622768 
L 295.20968 -277.01614 
L 295.211587 -274.409512 
L 295.213769 -271.802883 
L 295.215663 -269.196255 
L 295.216895 -266.589627 
L 295.217558 -263.982999 
L 295.218009 -261.376371 
L 295.218663 -258.769742 
L 295.220087 -256.163114 
L 295.22294 -253.556486 
L 295.227335 -250.949858 
L 295.232221 -248.34323 
L 295.235798 -245.736601 
L 295.237016 -243.129973 
L 295.236752 -240.523345 
L 295.237206 -237.916717 
L 295.240004 -235.310089 
L 295.245026 -232.70346 
L 295.251091 -230.096832 
L 295.257248 -227.490204 
L 295.262941 -224.883576 
L 295.267367 -222.276948 
L 295.269678 -219.670319 
L 295.270063 -217.063691 
L 295.270071 -214.457063 
L 295.271572 -211.850435 
L 295.275519 -209.243807 
L 295.281776 -206.637178 
L 295.289932 -204.03055 
L 295.299885 -201.423922 
L 295.311326 -198.817294 
L 295.322998 -196.210666 
L 295.333412 -193.604037 
L 295.342598 -190.997409 
L 295.352312 -188.390781 
L 295.364167 -185.784153 
L 295.378333 -183.177525 
L 295.394355 -180.570897 
L 295.412234 -177.964268 
L 295.432234 -175.35764 
L 295.454506 -172.751012 
L 295.479489 -170.144384 
L 295.507939 -167.537756 
L 295.54028 -164.931127 
L 295.577014 -162.324499 
L 295.620269 -159.717871 
L 295.673705 -157.111243 
L 295.739944 -154.504615 
L 295.818297 -151.897986 
L 295.905014 -149.291358 
L 295.995368 -146.68473 
L 296.085777 -144.078102 
L 296.174398 -141.471474 
L 296.259601 -138.864845 
L 296.33809 -136.258217 
L 296.405725 -133.651589 
L 296.460902 -131.044961 
L 296.506273 -128.438333 
L 296.546121 -125.831704 
L 296.582079 -123.225076 
L 296.611394 -120.618448 
L 296.62871 -118.01182 
L 296.629236 -115.405192 
L 296.610327 -112.798563 
L 296.570114 -110.191935 
L 296.505505 -107.585307 
L 296.412725 -104.978679 
L 296.289408 -102.372051 
L 296.135485 -99.765422 
L 295.954859 -97.158794 
L 295.760184 -94.552166 
L 295.574553 -91.945538 
L 295.422665 -89.33891 
L 295.317432 -86.732281 
L 295.255396 -84.125653 
L 295.223652 -81.519025 
L 295.209176 -78.912397 
L 295.203196 -76.305769 
L 295.200974 -73.69914 
z
" style="stroke: #464646; stroke-width: 1.75"/>
    </defs>
    <g clip-path="url(#p1a418bc392)">
     <use xlink:href="#m0a8333cc92" x="0" y="396" style="fill: #4aad95; stroke: #464646; stroke-width: 1.75"/>
    </g>
   </g>
   <g id="PolyCollection_6">
    <defs>
     <path id="mbf09fe494c" d="M 344.800519 -72.087658 
L 344.799481 -72.087658 
L 344.798889 -74.695533 
L 344.797791 -77.303407 
L 344.795906 -79.911281 
L 344.79291 -82.519156 
L 344.78849 -85.12703 
L 344.782418 -87.734905 
L 344.774635 -90.342779 
L 344.765293 -92.950653 
L 344.754746 -95.558528 
L 344.743472 -98.166402 
L 344.731942 -100.774277 
L 344.720496 -103.382151 
L 344.709274 -105.990026 
L 344.698231 -108.5979 
L 344.687254 -111.205774 
L 344.676319 -113.813649 
L 344.665634 -116.421523 
L 344.655691 -119.029398 
L 344.647177 -121.637272 
L 344.640792 -124.245147 
L 344.637051 -126.853021 
L 344.636172 -129.460895 
L 344.638094 -132.06877 
L 344.642567 -134.676644 
L 344.649231 -137.284519 
L 344.657619 -139.892393 
L 344.667136 -142.500267 
L 344.677079 -145.108142 
L 344.686743 -147.716016 
L 344.695587 -150.323891 
L 344.703358 -152.931765 
L 344.710126 -155.53964 
L 344.716203 -158.147514 
L 344.721998 -160.755388 
L 344.727868 -163.363263 
L 344.734017 -165.971137 
L 344.740468 -168.579012 
L 344.747086 -171.186886 
L 344.753647 -173.794761 
L 344.759901 -176.402635 
L 344.765619 -179.010509 
L 344.770621 -181.618384 
L 344.774798 -184.226258 
L 344.778113 -186.834133 
L 344.780611 -189.442007 
L 344.782413 -192.049881 
L 344.783699 -194.657756 
L 344.784676 -197.26563 
L 344.785529 -199.873505 
L 344.786381 -202.481379 
L 344.787269 -205.089254 
L 344.788167 -207.697128 
L 344.78901 -210.305002 
L 344.789745 -212.912877 
L 344.790345 -215.520751 
L 344.790824 -218.128626 
L 344.791222 -220.7365 
L 344.791606 -223.344374 
L 344.792056 -225.952249 
L 344.792648 -228.560123 
L 344.793429 -231.167998 
L 344.794387 -233.775872 
L 344.795448 -236.383747 
L 344.796493 -238.991621 
L 344.79739 -241.599495 
L 344.798041 -244.20737 
L 344.798396 -246.815244 
L 344.798464 -249.423119 
L 344.798299 -252.030993 
L 344.797987 -254.638868 
L 344.797624 -257.246742 
L 344.797302 -259.854616 
L 344.79708 -262.462491 
L 344.796978 -265.070365 
L 344.796974 -267.67824 
L 344.797019 -270.286114 
L 344.797071 -272.893988 
L 344.797115 -275.501863 
L 344.797167 -278.109737 
L 344.797258 -280.717612 
L 344.797406 -283.325486 
L 344.797602 -285.933361 
L 344.797813 -288.541235 
L 344.798005 -291.149109 
L 344.798158 -293.756984 
L 344.798282 -296.364858 
L 344.798397 -298.972733 
L 344.798521 -301.580607 
L 344.798659 -304.188482 
L 344.798803 -306.796356 
L 344.798944 -309.40423 
L 344.799081 -312.012105 
L 344.799218 -314.619979 
L 344.79936 -317.227854 
L 344.799504 -319.835728 
L 344.799642 -322.443602 
L 344.799761 -325.051477 
L 344.799854 -327.659351 
L 344.799919 -330.267226 
L 344.800081 -330.267226 
L 344.800081 -330.267226 
L 344.800146 -327.659351 
L 344.800239 -325.051477 
L 344.800358 -322.443602 
L 344.800496 -319.835728 
L 344.80064 -317.227854 
L 344.800782 -314.619979 
L 344.800919 -312.012105 
L 344.801056 -309.40423 
L 344.801197 -306.796356 
L 344.801341 -304.188482 
L 344.801479 -301.580607 
L 344.801603 -298.972733 
L 344.801718 -296.364858 
L 344.801842 -293.756984 
L 344.801995 -291.149109 
L 344.802187 -288.541235 
L 344.802398 -285.933361 
L 344.802594 -283.325486 
L 344.802742 -280.717612 
L 344.802833 -278.109737 
L 344.802885 -275.501863 
L 344.802929 -272.893988 
L 344.802981 -270.286114 
L 344.803026 -267.67824 
L 344.803022 -265.070365 
L 344.80292 -262.462491 
L 344.802698 -259.854616 
L 344.802376 -257.246742 
L 344.802013 -254.638868 
L 344.801701 -252.030993 
L 344.801536 -249.423119 
L 344.801604 -246.815244 
L 344.801959 -244.20737 
L 344.80261 -241.599495 
L 344.803507 -238.991621 
L 344.804552 -236.383747 
L 344.805613 -233.775872 
L 344.806571 -231.167998 
L 344.807352 -228.560123 
L 344.807944 -225.952249 
L 344.808394 -223.344374 
L 344.808778 -220.7365 
L 344.809176 -218.128626 
L 344.809655 -215.520751 
L 344.810255 -212.912877 
L 344.81099 -210.305002 
L 344.811833 -207.697128 
L 344.812731 -205.089254 
L 344.813619 -202.481379 
L 344.814471 -199.873505 
L 344.815324 -197.26563 
L 344.816301 -194.657756 
L 344.817587 -192.049881 
L 344.819389 -189.442007 
L 344.821887 -186.834133 
L 344.825202 -184.226258 
L 344.829379 -181.618384 
L 344.834381 -179.010509 
L 344.840099 -176.402635 
L 344.846353 -173.794761 
L 344.852914 -171.186886 
L 344.859532 -168.579012 
L 344.865983 -165.971137 
L 344.872132 -163.363263 
L 344.878002 -160.755388 
L 344.883797 -158.147514 
L 344.889874 -155.53964 
L 344.896642 -152.931765 
L 344.904413 -150.323891 
L 344.913257 -147.716016 
L 344.922921 -145.108142 
L 344.932864 -142.500267 
L 344.942381 -139.892393 
L 344.950769 -137.284519 
L 344.957433 -134.676644 
L 344.961906 -132.06877 
L 344.963828 -129.460895 
L 344.962949 -126.853021 
L 344.959208 -124.245147 
L 344.952823 -121.637272 
L 344.944309 -119.029398 
L 344.934366 -116.421523 
L 344.923681 -113.813649 
L 344.912746 -111.205774 
L 344.901769 -108.5979 
L 344.890726 -105.990026 
L 344.879504 -103.382151 
L 344.868058 -100.774277 
L 344.856528 -98.166402 
L 344.845254 -95.558528 
L 344.834707 -92.950653 
L 344.825365 -90.342779 
L 344.817582 -87.734905 
L 344.81151 -85.12703 
L 344.80709 -82.519156 
L 344.804094 -79.911281 
L 344.802209 -77.303407 
L 344.801111 -74.695533 
L 344.800519 -72.087658 
z
" style="stroke: #464646; stroke-width: 1.75"/>
    </defs>
    <g clip-path="url(#p1a418bc392)">
     <use xlink:href="#mbf09fe494c" x="0" y="396" style="fill: #4dabb3; stroke: #464646; stroke-width: 1.75"/>
    </g>
   </g>
   <g id="PolyCollection_7">
    <defs>
     <path id="mbebbe898bd" d="M 394.400071 -68.217675 
L 394.399929 -68.217675 
L 394.399897 -70.428655 
L 394.399855 -72.639635 
L 394.399797 -74.850615 
L 394.399723 -77.061595 
L 394.399626 -79.272575 
L 394.399503 -81.483555 
L 394.399349 -83.694535 
L 394.399159 -85.905514 
L 394.398927 -88.116494 
L 394.398649 -90.327474 
L 394.398319 -92.538454 
L 394.397933 -94.749434 
L 394.397489 -96.960414 
L 394.396985 -99.171394 
L 394.396422 -101.382374 
L 394.395804 -103.593354 
L 394.395137 -105.804334 
L 394.394427 -108.015313 
L 394.393687 -110.226293 
L 394.392927 -112.437273 
L 394.392162 -114.648253 
L 394.391405 -116.859233 
L 394.390671 -119.070213 
L 394.389974 -121.281193 
L 394.389326 -123.492173 
L 394.388741 -125.703153 
L 394.388229 -127.914132 
L 394.387798 -130.125112 
L 394.387457 -132.336092 
L 394.387212 -134.547072 
L 394.387066 -136.758052 
L 394.387024 -138.969032 
L 394.387085 -141.180012 
L 394.387252 -143.390992 
L 394.387521 -145.601972 
L 394.387889 -147.812952 
L 394.388351 -150.023931 
L 394.388899 -152.234911 
L 394.389522 -154.445891 
L 394.390207 -156.656871 
L 394.39094 -158.867851 
L 394.391705 -161.078831 
L 394.392484 -163.289811 
L 394.393261 -165.500791 
L 394.394019 -167.711771 
L 394.394745 -169.922751 
L 394.395425 -172.13373 
L 394.396049 -174.34471 
L 394.396611 -176.55569 
L 394.397106 -178.76667 
L 394.397532 -180.97765 
L 394.397892 -183.18863 
L 394.398187 -185.39961 
L 394.398426 -187.61059 
L 394.398614 -189.82157 
L 394.398761 -192.03255 
L 394.398876 -194.243529 
L 394.398967 -196.454509 
L 394.399043 -198.665489 
L 394.399111 -200.876469 
L 394.399174 -203.087449 
L 394.399237 -205.298429 
L 394.3993 -207.509409 
L 394.399363 -209.720389 
L 394.399424 -211.931369 
L 394.39948 -214.142348 
L 394.399528 -216.353328 
L 394.399563 -218.564308 
L 394.399585 -220.775288 
L 394.399589 -222.986268 
L 394.399577 -225.197248 
L 394.399547 -227.408228 
L 394.399501 -229.619208 
L 394.399442 -231.830188 
L 394.399373 -234.041168 
L 394.3993 -236.252147 
L 394.399228 -238.463127 
L 394.39916 -240.674107 
L 394.399102 -242.885087 
L 394.399057 -245.096067 
L 394.399029 -247.307047 
L 394.399019 -249.518027 
L 394.399027 -251.729007 
L 394.399054 -253.939987 
L 394.399098 -256.150967 
L 394.399155 -258.361946 
L 394.399224 -260.572926 
L 394.3993 -262.783906 
L 394.399381 -264.994886 
L 394.399463 -267.205866 
L 394.399543 -269.416846 
L 394.399619 -271.627826 
L 394.399689 -273.838806 
L 394.399751 -276.049786 
L 394.399805 -278.260765 
L 394.399851 -280.471745 
L 394.399888 -282.682725 
L 394.399918 -284.893705 
L 394.399942 -287.104685 
L 394.400058 -287.104685 
L 394.400058 -287.104685 
L 394.400082 -284.893705 
L 394.400112 -282.682725 
L 394.400149 -280.471745 
L 394.400195 -278.260765 
L 394.400249 -276.049786 
L 394.400311 -273.838806 
L 394.400381 -271.627826 
L 394.400457 -269.416846 
L 394.400537 -267.205866 
L 394.400619 -264.994886 
L 394.4007 -262.783906 
L 394.400776 -260.572926 
L 394.400845 -258.361946 
L 394.400902 -256.150967 
L 394.400946 -253.939987 
L 394.400973 -251.729007 
L 394.400981 -249.518027 
L 394.400971 -247.307047 
L 394.400943 -245.096067 
L 394.400898 -242.885087 
L 394.40084 -240.674107 
L 394.400772 -238.463127 
L 394.4007 -236.252147 
L 394.400627 -234.041168 
L 394.400558 -231.830188 
L 394.400499 -229.619208 
L 394.400453 -227.408228 
L 394.400423 -225.197248 
L 394.400411 -222.986268 
L 394.400415 -220.775288 
L 394.400437 -218.564308 
L 394.400472 -216.353328 
L 394.40052 -214.142348 
L 394.400576 -211.931369 
L 394.400637 -209.720389 
L 394.4007 -207.509409 
L 394.400763 -205.298429 
L 394.400826 -203.087449 
L 394.400889 -200.876469 
L 394.400957 -198.665489 
L 394.401033 -196.454509 
L 394.401124 -194.243529 
L 394.401239 -192.03255 
L 394.401386 -189.82157 
L 394.401574 -187.61059 
L 394.401813 -185.39961 
L 394.402108 -183.18863 
L 394.402468 -180.97765 
L 394.402894 -178.76667 
L 394.403389 -176.55569 
L 394.403951 -174.34471 
L 394.404575 -172.13373 
L 394.405255 -169.922751 
L 394.405981 -167.711771 
L 394.406739 -165.500791 
L 394.407516 -163.289811 
L 394.408295 -161.078831 
L 394.40906 -158.867851 
L 394.409793 -156.656871 
L 394.410478 -154.445891 
L 394.411101 -152.234911 
L 394.411649 -150.023931 
L 394.412111 -147.812952 
L 394.412479 -145.601972 
L 394.412748 -143.390992 
L 394.412915 -141.180012 
L 394.412976 -138.969032 
L 394.412934 -136.758052 
L 394.412788 -134.547072 
L 394.412543 -132.336092 
L 394.412202 -130.125112 
L 394.411771 -127.914132 
L 394.411259 -125.703153 
L 394.410674 -123.492173 
L 394.410026 -121.281193 
L 394.409329 -119.070213 
L 394.408595 -116.859233 
L 394.407838 -114.648253 
L 394.407073 -112.437273 
L 394.406313 -110.226293 
L 394.405573 -108.015313 
L 394.404863 -105.804334 
L 394.404196 -103.593354 
L 394.403578 -101.382374 
L 394.403015 -99.171394 
L 394.402511 -96.960414 
L 394.402067 -94.749434 
L 394.401681 -92.538454 
L 394.401351 -90.327474 
L 394.401073 -88.116494 
L 394.400841 -85.905514 
L 394.400651 -83.694535 
L 394.400497 -81.483555 
L 394.400374 -79.272575 
L 394.400277 -77.061595 
L 394.400203 -74.850615 
L 394.400145 -72.639635 
L 394.400103 -70.428655 
L 394.400071 -68.217675 
z
" style="stroke: #464646; stroke-width: 1.75"/>
    </defs>
    <g clip-path="url(#p1a418bc392)">
     <use xlink:href="#mbebbe898bd" x="0" y="396" style="fill: #6daee2; stroke: #464646; stroke-width: 1.75"/>
    </g>
   </g>
   <g id="PolyCollection_8">
    <defs>
     <path id="mf12b4eb268" d="M 444.000058 -73.91819 
L 443.999942 -73.91819 
L 443.999931 -75.068168 
L 443.999919 -76.218146 
L 443.999906 -77.368124 
L 443.999891 -78.518102 
L 443.999874 -79.668079 
L 443.999855 -80.818057 
L 443.999834 -81.968035 
L 443.999811 -83.118013 
L 443.999787 -84.26799 
L 443.99976 -85.417968 
L 443.999732 -86.567946 
L 443.999701 -87.717924 
L 443.999669 -88.867902 
L 443.999635 -90.017879 
L 443.9996 -91.167857 
L 443.999563 -92.317835 
L 443.999525 -93.467813 
L 443.999485 -94.61779 
L 443.999445 -95.767768 
L 443.999404 -96.917746 
L 443.999362 -98.067724 
L 443.999319 -99.217702 
L 443.999277 -100.367679 
L 443.999235 -101.517657 
L 443.999192 -102.667635 
L 443.99915 -103.817613 
L 443.999108 -104.96759 
L 443.999067 -106.117568 
L 443.999027 -107.267546 
L 443.998987 -108.417524 
L 443.998949 -109.567502 
L 443.998911 -110.717479 
L 443.998875 -111.867457 
L 443.99884 -113.017435 
L 443.998807 -114.167413 
L 443.998775 -115.31739 
L 443.998745 -116.467368 
L 443.998718 -117.617346 
L 443.998692 -118.767324 
L 443.998669 -119.917302 
L 443.998648 -121.067279 
L 443.99863 -122.217257 
L 443.998614 -123.367235 
L 443.998602 -124.517213 
L 443.998592 -125.66719 
L 443.998585 -126.817168 
L 443.998582 -127.967146 
L 443.998581 -129.117124 
L 443.998583 -130.267102 
L 443.998587 -131.417079 
L 443.998594 -132.567057 
L 443.998603 -133.717035 
L 443.998614 -134.867013 
L 443.998627 -136.01699 
L 443.998642 -137.166968 
L 443.998657 -138.316946 
L 443.998674 -139.466924 
L 443.998691 -140.616902 
L 443.998709 -141.766879 
L 443.998727 -142.916857 
L 443.998745 -144.066835 
L 443.998763 -145.216813 
L 443.998781 -146.366791 
L 443.9988 -147.516768 
L 443.998818 -148.666746 
L 443.998837 -149.816724 
L 443.998857 -150.966702 
L 443.998877 -152.116679 
L 443.998899 -153.266657 
L 443.998921 -154.416635 
L 443.998945 -155.566613 
L 443.998971 -156.716591 
L 443.998998 -157.866568 
L 443.999027 -159.016546 
L 443.999059 -160.166524 
L 443.999092 -161.316502 
L 443.999128 -162.466479 
L 443.999165 -163.616457 
L 443.999204 -164.766435 
L 443.999245 -165.916413 
L 443.999286 -167.066391 
L 443.999329 -168.216368 
L 443.999372 -169.366346 
L 443.999416 -170.516324 
L 443.999459 -171.666302 
L 443.999502 -172.816279 
L 443.999544 -173.966257 
L 443.999585 -175.116235 
L 443.999624 -176.266213 
L 443.999661 -177.416191 
L 443.999697 -178.566168 
L 443.99973 -179.716146 
L 443.999762 -180.866124 
L 443.99979 -182.016102 
L 443.999817 -183.166079 
L 443.999841 -184.316057 
L 443.999863 -185.466035 
L 443.999882 -186.616013 
L 443.9999 -187.765991 
L 444.0001 -187.765991 
L 444.0001 -187.765991 
L 444.000118 -186.616013 
L 444.000137 -185.466035 
L 444.000159 -184.316057 
L 444.000183 -183.166079 
L 444.00021 -182.016102 
L 444.000238 -180.866124 
L 444.00027 -179.716146 
L 444.000303 -178.566168 
L 444.000339 -177.416191 
L 444.000376 -176.266213 
L 444.000415 -175.116235 
L 444.000456 -173.966257 
L 444.000498 -172.816279 
L 444.000541 -171.666302 
L 444.000584 -170.516324 
L 444.000628 -169.366346 
L 444.000671 -168.216368 
L 444.000714 -167.066391 
L 444.000755 -165.916413 
L 444.000796 -164.766435 
L 444.000835 -163.616457 
L 444.000872 -162.466479 
L 444.000908 -161.316502 
L 444.000941 -160.166524 
L 444.000973 -159.016546 
L 444.001002 -157.866568 
L 444.001029 -156.716591 
L 444.001055 -155.566613 
L 444.001079 -154.416635 
L 444.001101 -153.266657 
L 444.001123 -152.116679 
L 444.001143 -150.966702 
L 444.001163 -149.816724 
L 444.001182 -148.666746 
L 444.0012 -147.516768 
L 444.001219 -146.366791 
L 444.001237 -145.216813 
L 444.001255 -144.066835 
L 444.001273 -142.916857 
L 444.001291 -141.766879 
L 444.001309 -140.616902 
L 444.001326 -139.466924 
L 444.001343 -138.316946 
L 444.001358 -137.166968 
L 444.001373 -136.01699 
L 444.001386 -134.867013 
L 444.001397 -133.717035 
L 444.001406 -132.567057 
L 444.001413 -131.417079 
L 444.001417 -130.267102 
L 444.001419 -129.117124 
L 444.001418 -127.967146 
L 444.001415 -126.817168 
L 444.001408 -125.66719 
L 444.001398 -124.517213 
L 444.001386 -123.367235 
L 444.00137 -122.217257 
L 444.001352 -121.067279 
L 444.001331 -119.917302 
L 444.001308 -118.767324 
L 444.001282 -117.617346 
L 444.001255 -116.467368 
L 444.001225 -115.31739 
L 444.001193 -114.167413 
L 444.00116 -113.017435 
L 444.001125 -111.867457 
L 444.001089 -110.717479 
L 444.001051 -109.567502 
L 444.001013 -108.417524 
L 444.000973 -107.267546 
L 444.000933 -106.117568 
L 444.000892 -104.96759 
L 444.00085 -103.817613 
L 444.000808 -102.667635 
L 444.000765 -101.517657 
L 444.000723 -100.367679 
L 444.000681 -99.217702 
L 444.000638 -98.067724 
L 444.000596 -96.917746 
L 444.000555 -95.767768 
L 444.000515 -94.61779 
L 444.000475 -93.467813 
L 444.000437 -92.317835 
L 444.0004 -91.167857 
L 444.000365 -90.017879 
L 444.000331 -88.867902 
L 444.000299 -87.717924 
L 444.000268 -86.567946 
L 444.00024 -85.417968 
L 444.000213 -84.26799 
L 444.000189 -83.118013 
L 444.000166 -81.968035 
L 444.000145 -80.818057 
L 444.000126 -79.668079 
L 444.000109 -78.518102 
L 444.000094 -77.368124 
L 444.000081 -76.218146 
L 444.000069 -75.068168 
L 444.000058 -73.91819 
z
" style="stroke: #464646; stroke-width: 1.75"/>
    </defs>
    <g clip-path="url(#p1a418bc392)">
     <use xlink:href="#mf12b4eb268" x="0" y="396" style="fill: #c4a1ea; stroke: #464646; stroke-width: 1.75"/>
    </g>
   </g>
   <g id="PolyCollection_9">
    <defs>
     <path id="m72e4c97a7b" d="M 493.60004 -74.234319 
L 493.59996 -74.234319 
L 493.599954 -75.395061 
L 493.599948 -76.555803 
L 493.59994 -77.716545 
L 493.599932 -78.877287 
L 493.599924 -80.038029 
L 493.599915 -81.198771 
L 493.599905 -82.359513 
L 493.599894 -83.520255 
L 493.599883 -84.680996 
L 493.599871 -85.841738 
L 493.599859 -87.00248 
L 493.599846 -88.163222 
L 493.599833 -89.323964 
L 493.59982 -90.484706 
L 493.599806 -91.645448 
L 493.599792 -92.80619 
L 493.599778 -93.966932 
L 493.599764 -95.127674 
L 493.599751 -96.288415 
L 493.599738 -97.449157 
L 493.599725 -98.609899 
L 493.599712 -99.770641 
L 493.5997 -100.931383 
L 493.599688 -102.092125 
L 493.599677 -103.252867 
L 493.599666 -104.413609 
L 493.599656 -105.574351 
L 493.599647 -106.735093 
L 493.599638 -107.895834 
L 493.599629 -109.056576 
L 493.59962 -110.217318 
L 493.599612 -111.37806 
L 493.599603 -112.538802 
L 493.599595 -113.699544 
L 493.599586 -114.860286 
L 493.599577 -116.021028 
L 493.599567 -117.18177 
L 493.599557 -118.342511 
L 493.599545 -119.503253 
L 493.599533 -120.663995 
L 493.59952 -121.824737 
L 493.599506 -122.985479 
L 493.599491 -124.146221 
L 493.599475 -125.306963 
L 493.599458 -126.467705 
L 493.59944 -127.628447 
L 493.599422 -128.789189 
L 493.599402 -129.94993 
L 493.599383 -131.110672 
L 493.599363 -132.271414 
L 493.599342 -133.432156 
L 493.599322 -134.592898 
L 493.599303 -135.75364 
L 493.599284 -136.914382 
L 493.599266 -138.075124 
L 493.59925 -139.235866 
L 493.599235 -140.396608 
L 493.599221 -141.557349 
L 493.59921 -142.718091 
L 493.599201 -143.878833 
L 493.599194 -145.039575 
L 493.59919 -146.200317 
L 493.599189 -147.361059 
L 493.59919 -148.521801 
L 493.599195 -149.682543 
L 493.599202 -150.843285 
L 493.599212 -152.004027 
L 493.599225 -153.164768 
L 493.599241 -154.32551 
L 493.599259 -155.486252 
L 493.59928 -156.646994 
L 493.599303 -157.807736 
L 493.599327 -158.968478 
L 493.599354 -160.12922 
L 493.599382 -161.289962 
L 493.599411 -162.450704 
L 493.599442 -163.611445 
L 493.599472 -164.772187 
L 493.599504 -165.932929 
L 493.599535 -167.093671 
L 493.599566 -168.254413 
L 493.599597 -169.415155 
L 493.599628 -170.575897 
L 493.599657 -171.736639 
L 493.599686 -172.897381 
L 493.599713 -174.058123 
L 493.599739 -175.218864 
L 493.599764 -176.379606 
L 493.599788 -177.540348 
L 493.599809 -178.70109 
L 493.59983 -179.861832 
L 493.599849 -181.022574 
L 493.599866 -182.183316 
L 493.599882 -183.344058 
L 493.599897 -184.5048 
L 493.59991 -185.665542 
L 493.599922 -186.826283 
L 493.599932 -187.987025 
L 493.599942 -189.147767 
L 493.600058 -189.147767 
L 493.600058 -189.147767 
L 493.600068 -187.987025 
L 493.600078 -186.826283 
L 493.60009 -185.665542 
L 493.600103 -184.5048 
L 493.600118 -183.344058 
L 493.600134 -182.183316 
L 493.600151 -181.022574 
L 493.60017 -179.861832 
L 493.600191 -178.70109 
L 493.600212 -177.540348 
L 493.600236 -176.379606 
L 493.600261 -175.218864 
L 493.600287 -174.058123 
L 493.600314 -172.897381 
L 493.600343 -171.736639 
L 493.600372 -170.575897 
L 493.600403 -169.415155 
L 493.600434 -168.254413 
L 493.600465 -167.093671 
L 493.600496 -165.932929 
L 493.600528 -164.772187 
L 493.600558 -163.611445 
L 493.600589 -162.450704 
L 493.600618 -161.289962 
L 493.600646 -160.12922 
L 493.600673 -158.968478 
L 493.600697 -157.807736 
L 493.60072 -156.646994 
L 493.600741 -155.486252 
L 493.600759 -154.32551 
L 493.600775 -153.164768 
L 493.600788 -152.004027 
L 493.600798 -150.843285 
L 493.600805 -149.682543 
L 493.60081 -148.521801 
L 493.600811 -147.361059 
L 493.60081 -146.200317 
L 493.600806 -145.039575 
L 493.600799 -143.878833 
L 493.60079 -142.718091 
L 493.600779 -141.557349 
L 493.600765 -140.396608 
L 493.60075 -139.235866 
L 493.600734 -138.075124 
L 493.600716 -136.914382 
L 493.600697 -135.75364 
L 493.600678 -134.592898 
L 493.600658 -133.432156 
L 493.600637 -132.271414 
L 493.600617 -131.110672 
L 493.600598 -129.94993 
L 493.600578 -128.789189 
L 493.60056 -127.628447 
L 493.600542 -126.467705 
L 493.600525 -125.306963 
L 493.600509 -124.146221 
L 493.600494 -122.985479 
L 493.60048 -121.824737 
L 493.600467 -120.663995 
L 493.600455 -119.503253 
L 493.600443 -118.342511 
L 493.600433 -117.18177 
L 493.600423 -116.021028 
L 493.600414 -114.860286 
L 493.600405 -113.699544 
L 493.600397 -112.538802 
L 493.600388 -111.37806 
L 493.60038 -110.217318 
L 493.600371 -109.056576 
L 493.600362 -107.895834 
L 493.600353 -106.735093 
L 493.600344 -105.574351 
L 493.600334 -104.413609 
L 493.600323 -103.252867 
L 493.600312 -102.092125 
L 493.6003 -100.931383 
L 493.600288 -99.770641 
L 493.600275 -98.609899 
L 493.600262 -97.449157 
L 493.600249 -96.288415 
L 493.600236 -95.127674 
L 493.600222 -93.966932 
L 493.600208 -92.80619 
L 493.600194 -91.645448 
L 493.60018 -90.484706 
L 493.600167 -89.323964 
L 493.600154 -88.163222 
L 493.600141 -87.00248 
L 493.600129 -85.841738 
L 493.600117 -84.680996 
L 493.600106 -83.520255 
L 493.600095 -82.359513 
L 493.600085 -81.198771 
L 493.600076 -80.038029 
L 493.600068 -78.877287 
L 493.60006 -77.716545 
L 493.600052 -76.555803 
L 493.600046 -75.395061 
L 493.60004 -74.234319 
z
" style="stroke: #464646; stroke-width: 1.75"/>
    </defs>
    <g clip-path="url(#p1a418bc392)">
     <use xlink:href="#m72e4c97a7b" x="0" y="396" style="fill: #e88ed1; stroke: #464646; stroke-width: 1.75"/>
    </g>
   </g>
   <g id="line2d_22">
    <path d="M 96.8 319.521617 
L 96.8 226.978443 
" clip-path="url(#p1a418bc392)" style="fill: none; stroke: #464646; stroke-width: 1.75; stroke-linecap: round"/>
   </g>
   <g id="line2d_23">
    <path d="M 96.8 308.543218 
L 96.8 275.912761 
" clip-path="url(#p1a418bc392)" style="fill: none; stroke: #464646; stroke-width: 5.25; stroke-linecap: round"/>
   </g>
   <g id="line2d_24">
    <path d="M 146.4 319.316758 
L 146.4 249.729626 
" clip-path="url(#p1a418bc392)" style="fill: none; stroke: #464646; stroke-width: 1.75; stroke-linecap: round"/>
   </g>
   <g id="line2d_25">
    <path d="M 146.4 302.404143 
L 146.4 281.33353 
" clip-path="url(#p1a418bc392)" style="fill: none; stroke: #464646; stroke-width: 5.25; stroke-linecap: round"/>
   </g>
   <g id="line2d_26">
    <path d="M 196 318.844178 
L 196 233.231887 
" clip-path="url(#p1a418bc392)" style="fill: none; stroke: #464646; stroke-width: 1.75; stroke-linecap: round"/>
   </g>
   <g id="line2d_27">
    <path d="M 196 296.604151 
L 196 271.254914 
" clip-path="url(#p1a418bc392)" style="fill: none; stroke: #464646; stroke-width: 5.25; stroke-linecap: round"/>
   </g>
   <g id="line2d_28">
    <path d="M 245.6 318.308605 
L 245.6 214.342066 
" clip-path="url(#p1a418bc392)" style="fill: none; stroke: #464646; stroke-width: 1.75; stroke-linecap: round"/>
   </g>
   <g id="line2d_29">
    <path d="M 245.6 289.331324 
L 245.6 259.332501 
" clip-path="url(#p1a418bc392)" style="fill: none; stroke: #464646; stroke-width: 5.25; stroke-linecap: round"/>
   </g>
   <g id="line2d_30">
    <path d="M 295.2 311.683625 
L 295.2 201.241409 
" clip-path="url(#p1a418bc392)" style="fill: none; stroke: #464646; stroke-width: 1.75; stroke-linecap: round"/>
   </g>
   <g id="line2d_31">
    <path d="M 295.2 284.189217 
L 295.2 251.004372 
" clip-path="url(#p1a418bc392)" style="fill: none; stroke: #464646; stroke-width: 5.25; stroke-linecap: round"/>
   </g>
   <g id="line2d_32">
    <path d="M 344.8 307.188218 
L 344.8 190.670716 
" clip-path="url(#p1a418bc392)" style="fill: none; stroke: #464646; stroke-width: 1.75; stroke-linecap: round"/>
   </g>
   <g id="line2d_33">
    <path d="M 344.8 276.263275 
L 344.8 241.928997 
" clip-path="url(#p1a418bc392)" style="fill: none; stroke: #464646; stroke-width: 5.25; stroke-linecap: round"/>
   </g>
   <g id="line2d_34">
    <path d="M 394.4 300.773034 
L 394.4 199.98321 
" clip-path="url(#p1a418bc392)" style="fill: none; stroke: #464646; stroke-width: 1.75; stroke-linecap: round"/>
   </g>
   <g id="line2d_35">
    <path d="M 394.4 269.73692 
L 394.4 241.054599 
" clip-path="url(#p1a418bc392)" style="fill: none; stroke: #464646; stroke-width: 5.25; stroke-linecap: round"/>
   </g>
   <g id="line2d_36">
    <path d="M 444 293.393074 
L 444 236.922745 
" clip-path="url(#p1a418bc392)" style="fill: none; stroke: #464646; stroke-width: 1.75; stroke-linecap: round"/>
   </g>
   <g id="line2d_37">
    <path d="M 444 275.143307 
L 444 247.117557 
" clip-path="url(#p1a418bc392)" style="fill: none; stroke: #464646; stroke-width: 5.25; stroke-linecap: round"/>
   </g>
   <g id="line2d_38">
    <path d="M 493.6 288.844029 
L 493.6 239.773884 
" clip-path="url(#p1a418bc392)" style="fill: none; stroke: #464646; stroke-width: 1.75; stroke-linecap: round"/>
   </g>
   <g id="line2d_39">
    <path d="M 493.6 265.510425 
L 493.6 244.830842 
" clip-path="url(#p1a418bc392)" style="fill: none; stroke: #464646; stroke-width: 5.25; stroke-linecap: round"/>
   </g>
   <g id="line2d_40">
    <path d="M 72 295.789302 
L 518.4 295.789302 
" clip-path="url(#p1a418bc392)" style="fill: none; stroke-dasharray: 6.475,2.8; stroke-dashoffset: 0; stroke: #ff0000; stroke-width: 1.75"/>
   </g>
   <g id="patch_3">
    <path d="M 72 346.5 
L 72 47.52 
" style="fill: none; stroke: #cccccc; stroke-width: 1.25; stroke-linejoin: miter; stroke-linecap: square"/>
   </g>
   <g id="patch_4">
    <path d="M 518.4 346.5 
L 518.4 47.52 
" style="fill: none; stroke: #cccccc; stroke-width: 1.25; stroke-linejoin: miter; stroke-linecap: square"/>
   </g>
   <g id="patch_5">
    <path d="M 72 346.5 
L 518.4 346.5 
" style="fill: none; stroke: #cccccc; stroke-width: 1.25; stroke-linejoin: miter; stroke-linecap: square"/>
   </g>
   <g id="patch_6">
    <path d="M 72 47.52 
L 518.4 47.52 
" style="fill: none; stroke: #cccccc; stroke-width: 1.25; stroke-linejoin: miter; stroke-linecap: square"/>
   </g>
   <g id="PathCollection_1">
    <defs>
     <path id="m50f7cb1e16" d="M 0 1.75 
C 0.464105 1.75 0.909265 1.565609 1.237437 1.237437 
C 1.565609 0.909265 1.75 0.464105 1.75 0 
C 1.75 -0.464105 1.565609 -0.909265 1.237437 -1.237437 
C 0.909265 -1.565609 0.464105 -1.75 0 -1.75 
C -0.464105 -1.75 -0.909265 -1.565609 -1.237437 -1.237437 
C -1.565609 -0.909265 -1.75 -0.464105 -1.75 0 
C -1.75 0.464105 -1.565609 0.909265 -1.237437 1.237437 
C -0.909265 1.565609 -0.464105 1.75 0 1.75 
z
" style="stroke: #464646; stroke-width: 0.3"/>
    </defs>
    <g clip-path="url(#p1a418bc392)">
     <use xlink:href="#m50f7cb1e16" x="96.8" y="297.410002" style="fill: #ffffff; stroke: #464646; stroke-width: 0.3"/>
    </g>
   </g>
   <g id="PathCollection_2">
    <g clip-path="url(#p1a418bc392)">
     <use xlink:href="#m50f7cb1e16" x="146.4" y="294.517321" style="fill: #ffffff; stroke: #464646; stroke-width: 0.3"/>
    </g>
   </g>
   <g id="PathCollection_3">
    <g clip-path="url(#p1a418bc392)">
     <use xlink:href="#m50f7cb1e16" x="196" y="286.419685" style="fill: #ffffff; stroke: #464646; stroke-width: 0.3"/>
    </g>
   </g>
   <g id="PathCollection_4">
    <g clip-path="url(#p1a418bc392)">
     <use xlink:href="#m50f7cb1e16" x="245.6" y="275.891195" style="fill: #ffffff; stroke: #464646; stroke-width: 0.3"/>
    </g>
   </g>
   <g id="PathCollection_5">
    <g clip-path="url(#p1a418bc392)">
     <use xlink:href="#m50f7cb1e16" x="295.2" y="269.530448" style="fill: #ffffff; stroke: #464646; stroke-width: 0.3"/>
    </g>
   </g>
   <g id="PathCollection_6">
    <g clip-path="url(#p1a418bc392)">
     <use xlink:href="#m50f7cb1e16" x="344.8" y="261.855648" style="fill: #ffffff; stroke: #464646; stroke-width: 0.3"/>
    </g>
   </g>
   <g id="PathCollection_7">
    <g clip-path="url(#p1a418bc392)">
     <use xlink:href="#m50f7cb1e16" x="394.4" y="255.222536" style="fill: #ffffff; stroke: #464646; stroke-width: 0.3"/>
    </g>
   </g>
   <g id="PathCollection_8">
    <g clip-path="url(#p1a418bc392)">
     <use xlink:href="#m50f7cb1e16" x="444" y="266.410845" style="fill: #ffffff; stroke: #464646; stroke-width: 0.3"/>
    </g>
   </g>
   <g id="PathCollection_9">
    <g clip-path="url(#p1a418bc392)">
     <use xlink:href="#m50f7cb1e16" x="493.6" y="252.124526" style="fill: #ffffff; stroke: #464646; stroke-width: 0.3"/>
    </g>
   </g>
   <g id="text_18">
    <!-- VE / VF against Slope -->
    <g style="fill: #262626" transform="translate(236.503125 41.52)scale(0.12 -0.12)">
     <defs>
      <path id="LiberationSans-61" d="M 1294 -63 
Q 784 -63 528 206 
Q 272 475 272 944 
Q 272 1469 617 1750 
Q 963 2031 1731 2050 
L 2491 2063 
L 2491 2247 
Q 2491 2659 2316 2837 
Q 2141 3016 1766 3016 
Q 1388 3016 1216 2887 
Q 1044 2759 1009 2478 
L 422 2531 
Q 566 3444 1778 3444 
Q 2416 3444 2737 3151 
Q 3059 2859 3059 2306 
L 3059 850 
Q 3059 600 3125 473 
Q 3191 347 3375 347 
Q 3456 347 3559 369 
L 3559 19 
Q 3347 -31 3125 -31 
Q 2813 -31 2670 133 
Q 2528 297 2509 647 
L 2491 647 
Q 2275 259 1989 98 
Q 1703 -63 1294 -63 
z
M 1422 359 
Q 1731 359 1972 500 
Q 2213 641 2352 886 
Q 2491 1131 2491 1391 
L 2491 1669 
L 1875 1656 
Q 1478 1650 1273 1575 
Q 1069 1500 959 1344 
Q 850 1188 850 934 
Q 850 659 998 509 
Q 1147 359 1422 359 
z
" transform="scale(0.015625)"/>
      <path id="LiberationSans-69" d="M 428 4100 
L 428 4638 
L 991 4638 
L 991 4100 
L 428 4100 
z
M 428 0 
L 428 3381 
L 991 3381 
L 991 0 
L 428 0 
z
" transform="scale(0.015625)"/>
      <path id="LiberationSans-6e" d="M 2578 0 
L 2578 2144 
Q 2578 2478 2512 2662 
Q 2447 2847 2303 2928 
Q 2159 3009 1881 3009 
Q 1475 3009 1240 2731 
Q 1006 2453 1006 1959 
L 1006 0 
L 444 0 
L 444 2659 
Q 444 3250 425 3381 
L 956 3381 
Q 959 3366 962 3297 
Q 966 3228 970 3139 
Q 975 3050 981 2803 
L 991 2803 
Q 1184 3153 1439 3298 
Q 1694 3444 2072 3444 
Q 2628 3444 2886 3167 
Q 3144 2891 3144 2253 
L 3144 0 
L 2578 0 
z
" transform="scale(0.015625)"/>
      <path id="LiberationSans-74" d="M 1731 25 
Q 1453 -50 1163 -50 
Q 488 -50 488 716 
L 488 2972 
L 97 2972 
L 97 3381 
L 509 3381 
L 675 4138 
L 1050 4138 
L 1050 3381 
L 1675 3381 
L 1675 2972 
L 1050 2972 
L 1050 838 
Q 1050 594 1129 495 
Q 1209 397 1406 397 
Q 1519 397 1731 441 
L 1731 25 
z
" transform="scale(0.015625)"/>
     </defs>
     <use xlink:href="#LiberationSans-56"/>
     <use xlink:href="#LiberationSans-45" x="66.699219"/>
     <use xlink:href="#LiberationSans-20" x="133.398438"/>
     <use xlink:href="#LiberationSans-2f" x="161.181641"/>
     <use xlink:href="#LiberationSans-20" x="188.964844"/>
     <use xlink:href="#LiberationSans-56" x="216.748047"/>
     <use xlink:href="#LiberationSans-46" x="283.447266"/>
     <use xlink:href="#LiberationSans-20" x="344.53125"/>
     <use xlink:href="#LiberationSans-61" x="372.314453"/>
     <use xlink:href="#LiberationSans-67" x="427.929688"/>
     <use xlink:href="#LiberationSans-61" x="483.544922"/>
     <use xlink:href="#LiberationSans-69" x="539.160156"/>
     <use xlink:href="#LiberationSans-6e" x="561.376953"/>
     <use xlink:href="#LiberationSans-73" x="616.992188"/>
     <use xlink:href="#LiberationSans-74" x="666.992188"/>
     <use xlink:href="#LiberationSans-20" x="694.775391"/>
     <use xlink:href="#LiberationSans-53" x="722.558594"/>
     <use xlink:href="#LiberationSans-6c" x="789.257812"/>
     <use xlink:href="#LiberationSans-6f" x="811.474609"/>
     <use xlink:href="#LiberationSans-70" x="867.089844"/>
     <use xlink:href="#LiberationSans-65" x="922.705078"/>
    </g>
   </g>
  </g>
 </g>
 <defs>
  <clipPath id="p1a418bc392">
   <rect x="72" y="47.52" width="446.4" height="298.98"/>
  </clipPath>
 </defs>
</svg>
