<?xml version="1.0" encoding="utf-8" standalone="no"?>
<!DOCTYPE svg PUBLIC "-//W3C//DTD SVG 1.1//EN"
  "http://www.w3.org/Graphics/SVG/1.1/DTD/svg11.dtd">
<svg xmlns:xlink="http://www.w3.org/1999/xlink" width="576pt" height="396pt" viewBox="0 0 576 396" xmlns="http://www.w3.org/2000/svg" version="1.1">
 <metadata>
  <rdf:RDF xmlns:dc="http://purl.org/dc/elements/1.1/" xmlns:cc="http://creativecommons.org/ns#" xmlns:rdf="http://www.w3.org/1999/02/22-rdf-syntax-ns#">
   <cc:Work>
    <dc:type rdf:resource="http://purl.org/dc/dcmitype/StillImage"/>
    <dc:date>2022-10-31T10:07:59.147742</dc:date>
    <dc:format>image/svg+xml</dc:format>
    <dc:creator>
     <cc:Agent>
      <dc:title>Matplotlib v3.5.0, https://matplotlib.org/</dc:title>
     </cc:Agent>
    </dc:creator>
   </cc:Work>
  </rdf:RDF>
 </metadata>
 <defs>
  <style type="text/css">*{stroke-linejoin: round; stroke-linecap: butt}</style>
 </defs>
 <g id="figure_1">
  <g id="patch_1">
   <path d="M 0 396 
L 576 396 
L 576 0 
L 0 0 
z
" style="fill: #ffffff"/>
  </g>
  <g id="axes_1">
   <g id="patch_2">
    <path d="M 72 346.5 
L 518.4 346.5 
L 518.4 47.52 
L 72 47.52 
z
" style="fill: #ffffff"/>
   </g>
   <g id="matplotlib.axis_1">
    <g id="xtick_1">
     <g id="line2d_1"/>
     <g id="text_1">
      <!-- 0-1000 -->
      <g style="fill: #262626" transform="translate(93.632812 360.746875)scale(0.1 -0.1)">
       <defs>
        <path id="LiberationSans-30" d="M 3309 2203 
Q 3309 1100 2920 518 
Q 2531 -63 1772 -63 
Q 1013 -63 631 515 
Q 250 1094 250 2203 
Q 250 3338 620 3903 
Q 991 4469 1791 4469 
Q 2569 4469 2939 3897 
Q 3309 3325 3309 2203 
z
M 2738 2203 
Q 2738 3156 2517 3584 
Q 2297 4013 1791 4013 
Q 1272 4013 1045 3591 
Q 819 3169 819 2203 
Q 819 1266 1048 831 
Q 1278 397 1778 397 
Q 2275 397 2506 840 
Q 2738 1284 2738 2203 
z
" transform="scale(0.015625)"/>
        <path id="LiberationSans-2d" d="M 284 1450 
L 284 1950 
L 1847 1950 
L 1847 1450 
L 284 1450 
z
" transform="scale(0.015625)"/>
        <path id="LiberationSans-31" d="M 488 0 
L 488 478 
L 1609 478 
L 1609 3866 
L 616 3156 
L 616 3688 
L 1656 4403 
L 2175 4403 
L 2175 478 
L 3247 478 
L 3247 0 
L 488 0 
z
" transform="scale(0.015625)"/>
       </defs>
       <use xlink:href="#LiberationSans-30"/>
       <use xlink:href="#LiberationSans-2d" x="55.615234"/>
       <use xlink:href="#LiberationSans-31" x="88.916016"/>
       <use xlink:href="#LiberationSans-30" x="144.53125"/>
       <use xlink:href="#LiberationSans-30" x="200.146484"/>
       <use xlink:href="#LiberationSans-30" x="255.761719"/>
      </g>
     </g>
    </g>
    <g id="xtick_2">
     <g id="line2d_2"/>
     <g id="text_2">
      <!-- 1000-2000 -->
      <g style="fill: #262626" transform="translate(159.691406 360.746875)scale(0.1 -0.1)">
       <defs>
        <path id="LiberationSans-32" d="M 322 0 
L 322 397 
Q 481 763 711 1042 
Q 941 1322 1194 1548 
Q 1447 1775 1695 1969 
Q 1944 2163 2144 2356 
Q 2344 2550 2467 2762 
Q 2591 2975 2591 3244 
Q 2591 3606 2378 3806 
Q 2166 4006 1788 4006 
Q 1428 4006 1195 3811 
Q 963 3616 922 3263 
L 347 3316 
Q 409 3844 795 4156 
Q 1181 4469 1788 4469 
Q 2453 4469 2811 4155 
Q 3169 3841 3169 3263 
Q 3169 3006 3051 2753 
Q 2934 2500 2703 2247 
Q 2472 1994 1819 1463 
Q 1459 1169 1246 933 
Q 1034 697 941 478 
L 3238 478 
L 3238 0 
L 322 0 
z
" transform="scale(0.015625)"/>
       </defs>
       <use xlink:href="#LiberationSans-31"/>
       <use xlink:href="#LiberationSans-30" x="55.615234"/>
       <use xlink:href="#LiberationSans-30" x="111.230469"/>
       <use xlink:href="#LiberationSans-30" x="166.845703"/>
       <use xlink:href="#LiberationSans-2d" x="222.460938"/>
       <use xlink:href="#LiberationSans-32" x="255.761719"/>
       <use xlink:href="#LiberationSans-30" x="311.376953"/>
       <use xlink:href="#LiberationSans-30" x="366.992188"/>
       <use xlink:href="#LiberationSans-30" x="422.607422"/>
      </g>
     </g>
    </g>
    <g id="xtick_3">
     <g id="line2d_3"/>
     <g id="text_3">
      <!-- 2000-3000 -->
      <g style="fill: #262626" transform="translate(234.091406 360.746875)scale(0.1 -0.1)">
       <defs>
        <path id="LiberationSans-33" d="M 3278 1216 
Q 3278 606 2890 271 
Q 2503 -63 1784 -63 
Q 1116 -63 717 239 
Q 319 541 244 1131 
L 825 1184 
Q 938 403 1784 403 
Q 2209 403 2451 612 
Q 2694 822 2694 1234 
Q 2694 1594 2417 1795 
Q 2141 1997 1619 1997 
L 1300 1997 
L 1300 2484 
L 1606 2484 
Q 2069 2484 2323 2686 
Q 2578 2888 2578 3244 
Q 2578 3597 2370 3801 
Q 2163 4006 1753 4006 
Q 1381 4006 1151 3815 
Q 922 3625 884 3278 
L 319 3322 
Q 381 3863 767 4166 
Q 1153 4469 1759 4469 
Q 2422 4469 2789 4161 
Q 3156 3853 3156 3303 
Q 3156 2881 2920 2617 
Q 2684 2353 2234 2259 
L 2234 2247 
Q 2728 2194 3003 1916 
Q 3278 1638 3278 1216 
z
" transform="scale(0.015625)"/>
       </defs>
       <use xlink:href="#LiberationSans-32"/>
       <use xlink:href="#LiberationSans-30" x="55.615234"/>
       <use xlink:href="#LiberationSans-30" x="111.230469"/>
       <use xlink:href="#LiberationSans-30" x="166.845703"/>
       <use xlink:href="#LiberationSans-2d" x="222.460938"/>
       <use xlink:href="#LiberationSans-33" x="255.761719"/>
       <use xlink:href="#LiberationSans-30" x="311.376953"/>
       <use xlink:href="#LiberationSans-30" x="366.992188"/>
       <use xlink:href="#LiberationSans-30" x="422.607422"/>
      </g>
     </g>
    </g>
    <g id="xtick_4">
     <g id="line2d_4"/>
     <g id="text_4">
      <!-- 3000-4000 -->
      <g style="fill: #262626" transform="translate(308.491406 360.746875)scale(0.1 -0.1)">
       <defs>
        <path id="LiberationSans-34" d="M 2753 997 
L 2753 0 
L 2222 0 
L 2222 997 
L 147 997 
L 147 1434 
L 2163 4403 
L 2753 4403 
L 2753 1441 
L 3372 1441 
L 3372 997 
L 2753 997 
z
M 2222 3769 
Q 2216 3750 2134 3603 
Q 2053 3456 2013 3397 
L 884 1734 
L 716 1503 
L 666 1441 
L 2222 1441 
L 2222 3769 
z
" transform="scale(0.015625)"/>
       </defs>
       <use xlink:href="#LiberationSans-33"/>
       <use xlink:href="#LiberationSans-30" x="55.615234"/>
       <use xlink:href="#LiberationSans-30" x="111.230469"/>
       <use xlink:href="#LiberationSans-30" x="166.845703"/>
       <use xlink:href="#LiberationSans-2d" x="222.460938"/>
       <use xlink:href="#LiberationSans-34" x="255.761719"/>
       <use xlink:href="#LiberationSans-30" x="311.376953"/>
       <use xlink:href="#LiberationSans-30" x="366.992188"/>
       <use xlink:href="#LiberationSans-30" x="422.607422"/>
      </g>
     </g>
    </g>
    <g id="xtick_5">
     <g id="line2d_5"/>
     <g id="text_5">
      <!-- 4000-5000 -->
      <g style="fill: #262626" transform="translate(382.891406 360.746875)scale(0.1 -0.1)">
       <defs>
        <path id="LiberationSans-35" d="M 3291 1434 
Q 3291 738 2877 337 
Q 2463 -63 1728 -63 
Q 1113 -63 734 206 
Q 356 475 256 984 
L 825 1050 
Q 1003 397 1741 397 
Q 2194 397 2450 670 
Q 2706 944 2706 1422 
Q 2706 1838 2448 2094 
Q 2191 2350 1753 2350 
Q 1525 2350 1328 2278 
Q 1131 2206 934 2034 
L 384 2034 
L 531 4403 
L 3034 4403 
L 3034 3925 
L 1044 3925 
L 959 2528 
Q 1325 2809 1869 2809 
Q 2519 2809 2905 2428 
Q 3291 2047 3291 1434 
z
" transform="scale(0.015625)"/>
       </defs>
       <use xlink:href="#LiberationSans-34"/>
       <use xlink:href="#LiberationSans-30" x="55.615234"/>
       <use xlink:href="#LiberationSans-30" x="111.230469"/>
       <use xlink:href="#LiberationSans-30" x="166.845703"/>
       <use xlink:href="#LiberationSans-2d" x="222.460938"/>
       <use xlink:href="#LiberationSans-35" x="255.761719"/>
       <use xlink:href="#LiberationSans-30" x="311.376953"/>
       <use xlink:href="#LiberationSans-30" x="366.992188"/>
       <use xlink:href="#LiberationSans-30" x="422.607422"/>
      </g>
     </g>
    </g>
    <g id="xtick_6">
     <g id="line2d_6"/>
     <g id="text_6">
      <!-- 5000-6000 -->
      <g style="fill: #262626" transform="translate(457.291406 360.746875)scale(0.1 -0.1)">
       <defs>
        <path id="LiberationSans-36" d="M 3278 1441 
Q 3278 744 2900 340 
Q 2522 -63 1856 -63 
Q 1113 -63 719 490 
Q 325 1044 325 2100 
Q 325 3244 734 3856 
Q 1144 4469 1900 4469 
Q 2897 4469 3156 3572 
L 2619 3475 
Q 2453 4013 1894 4013 
Q 1413 4013 1148 3564 
Q 884 3116 884 2266 
Q 1038 2550 1316 2698 
Q 1594 2847 1953 2847 
Q 2563 2847 2920 2465 
Q 3278 2084 3278 1441 
z
M 2706 1416 
Q 2706 1894 2472 2153 
Q 2238 2413 1819 2413 
Q 1425 2413 1183 2183 
Q 941 1953 941 1550 
Q 941 1041 1192 716 
Q 1444 391 1838 391 
Q 2244 391 2475 664 
Q 2706 938 2706 1416 
z
" transform="scale(0.015625)"/>
       </defs>
       <use xlink:href="#LiberationSans-35"/>
       <use xlink:href="#LiberationSans-30" x="55.615234"/>
       <use xlink:href="#LiberationSans-30" x="111.230469"/>
       <use xlink:href="#LiberationSans-30" x="166.845703"/>
       <use xlink:href="#LiberationSans-2d" x="222.460938"/>
       <use xlink:href="#LiberationSans-36" x="255.761719"/>
       <use xlink:href="#LiberationSans-30" x="311.376953"/>
       <use xlink:href="#LiberationSans-30" x="366.992188"/>
       <use xlink:href="#LiberationSans-30" x="422.607422"/>
      </g>
     </g>
    </g>
    <g id="text_7">
     <!-- Zmax (m) -->
     <g style="fill: #262626" transform="translate(271.678906 374.793437)scale(0.11 -0.11)">
      <defs>
       <path id="LiberationSans-5a" d="M 3709 0 
L 203 0 
L 203 447 
L 2884 3916 
L 431 3916 
L 431 4403 
L 3563 4403 
L 3563 3969 
L 881 488 
L 3709 488 
L 3709 0 
z
" transform="scale(0.015625)"/>
       <path id="LiberationSans-6d" d="M 2400 0 
L 2400 2144 
Q 2400 2634 2265 2821 
Q 2131 3009 1781 3009 
Q 1422 3009 1212 2734 
Q 1003 2459 1003 1959 
L 1003 0 
L 444 0 
L 444 2659 
Q 444 3250 425 3381 
L 956 3381 
Q 959 3366 962 3297 
Q 966 3228 970 3139 
Q 975 3050 981 2803 
L 991 2803 
Q 1172 3163 1406 3303 
Q 1641 3444 1978 3444 
Q 2363 3444 2586 3291 
Q 2809 3138 2897 2803 
L 2906 2803 
Q 3081 3144 3329 3294 
Q 3578 3444 3931 3444 
Q 4444 3444 4676 3166 
Q 4909 2888 4909 2253 
L 4909 0 
L 4353 0 
L 4353 2144 
Q 4353 2634 4218 2821 
Q 4084 3009 3734 3009 
Q 3366 3009 3161 2736 
Q 2956 2463 2956 1959 
L 2956 0 
L 2400 0 
z
" transform="scale(0.015625)"/>
       <path id="LiberationSans-61" d="M 1294 -63 
Q 784 -63 528 206 
Q 272 475 272 944 
Q 272 1469 617 1750 
Q 963 2031 1731 2050 
L 2491 2063 
L 2491 2247 
Q 2491 2659 2316 2837 
Q 2141 3016 1766 3016 
Q 1388 3016 1216 2887 
Q 1044 2759 1009 2478 
L 422 2531 
Q 566 3444 1778 3444 
Q 2416 3444 2737 3151 
Q 3059 2859 3059 2306 
L 3059 850 
Q 3059 600 3125 473 
Q 3191 347 3375 347 
Q 3456 347 3559 369 
L 3559 19 
Q 3347 -31 3125 -31 
Q 2813 -31 2670 133 
Q 2528 297 2509 647 
L 2491 647 
Q 2275 259 1989 98 
Q 1703 -63 1294 -63 
z
M 1422 359 
Q 1731 359 1972 500 
Q 2213 641 2352 886 
Q 2491 1131 2491 1391 
L 2491 1669 
L 1875 1656 
Q 1478 1650 1273 1575 
Q 1069 1500 959 1344 
Q 850 1188 850 934 
Q 850 659 998 509 
Q 1147 359 1422 359 
z
" transform="scale(0.015625)"/>
       <path id="LiberationSans-78" d="M 2503 0 
L 1594 1388 
L 678 0 
L 72 0 
L 1275 1738 
L 128 3381 
L 750 3381 
L 1594 2066 
L 2431 3381 
L 3059 3381 
L 1913 1744 
L 3131 0 
L 2503 0 
z
" transform="scale(0.015625)"/>
       <path id="LiberationSans-20" transform="scale(0.015625)"/>
       <path id="LiberationSans-28" d="M 397 1663 
Q 397 2566 680 3284 
Q 963 4003 1550 4638 
L 2094 4638 
Q 1509 3988 1236 3256 
Q 963 2525 963 1656 
Q 963 791 1233 62 
Q 1503 -666 2094 -1325 
L 1550 -1325 
Q 959 -688 678 32 
Q 397 753 397 1650 
L 397 1663 
z
" transform="scale(0.015625)"/>
       <path id="LiberationSans-29" d="M 1734 1650 
Q 1734 747 1451 28 
Q 1169 -691 581 -1325 
L 38 -1325 
Q 625 -669 897 57 
Q 1169 784 1169 1656 
Q 1169 2528 895 3256 
Q 622 3984 38 4638 
L 581 4638 
Q 1172 4000 1453 3279 
Q 1734 2559 1734 1663 
L 1734 1650 
z
" transform="scale(0.015625)"/>
      </defs>
      <use xlink:href="#LiberationSans-5a"/>
      <use xlink:href="#LiberationSans-6d" x="61.083984"/>
      <use xlink:href="#LiberationSans-61" x="144.384766"/>
      <use xlink:href="#LiberationSans-78" x="200"/>
      <use xlink:href="#LiberationSans-20" x="250"/>
      <use xlink:href="#LiberationSans-28" x="277.783203"/>
      <use xlink:href="#LiberationSans-6d" x="311.083984"/>
      <use xlink:href="#LiberationSans-29" x="394.384766"/>
     </g>
    </g>
   </g>
   <g id="matplotlib.axis_2">
    <g id="ytick_1">
     <g id="line2d_7">
      <path d="M 72 326.47692 
L 518.4 326.47692 
" clip-path="url(#p11c2ff9120)" style="fill: none; stroke: #cccccc; stroke-linecap: round"/>
     </g>
     <g id="line2d_8"/>
     <g id="text_8">
      <!-- 0 -->
      <g style="fill: #262626" transform="translate(59.439062 330.100357)scale(0.1 -0.1)">
       <use xlink:href="#LiberationSans-30"/>
      </g>
     </g>
    </g>
    <g id="ytick_2">
     <g id="line2d_9">
      <path d="M 72 274.846913 
L 518.4 274.846913 
" clip-path="url(#p11c2ff9120)" style="fill: none; stroke: #cccccc; stroke-linecap: round"/>
     </g>
     <g id="line2d_10"/>
     <g id="text_9">
      <!-- 2 -->
      <g style="fill: #262626" transform="translate(59.439062 278.47035)scale(0.1 -0.1)">
       <use xlink:href="#LiberationSans-32"/>
      </g>
     </g>
    </g>
    <g id="ytick_3">
     <g id="line2d_11">
      <path d="M 72 223.216905 
L 518.4 223.216905 
" clip-path="url(#p11c2ff9120)" style="fill: none; stroke: #cccccc; stroke-linecap: round"/>
     </g>
     <g id="line2d_12"/>
     <g id="text_10">
      <!-- 4 -->
      <g style="fill: #262626" transform="translate(59.439062 226.840343)scale(0.1 -0.1)">
       <use xlink:href="#LiberationSans-34"/>
      </g>
     </g>
    </g>
    <g id="ytick_4">
     <g id="line2d_13">
      <path d="M 72 171.586898 
L 518.4 171.586898 
" clip-path="url(#p11c2ff9120)" style="fill: none; stroke: #cccccc; stroke-linecap: round"/>
     </g>
     <g id="line2d_14"/>
     <g id="text_11">
      <!-- 6 -->
      <g style="fill: #262626" transform="translate(59.439062 175.210335)scale(0.1 -0.1)">
       <use xlink:href="#LiberationSans-36"/>
      </g>
     </g>
    </g>
    <g id="ytick_5">
     <g id="line2d_15">
      <path d="M 72 119.95689 
L 518.4 119.95689 
" clip-path="url(#p11c2ff9120)" style="fill: none; stroke: #cccccc; stroke-linecap: round"/>
     </g>
     <g id="line2d_16"/>
     <g id="text_12">
      <!-- 8 -->
      <g style="fill: #262626" transform="translate(59.439062 123.580328)scale(0.1 -0.1)">
       <defs>
        <path id="LiberationSans-38" d="M 3281 1228 
Q 3281 619 2893 278 
Q 2506 -63 1781 -63 
Q 1075 -63 676 271 
Q 278 606 278 1222 
Q 278 1653 525 1947 
Q 772 2241 1156 2303 
L 1156 2316 
Q 797 2400 589 2681 
Q 381 2963 381 3341 
Q 381 3844 757 4156 
Q 1134 4469 1769 4469 
Q 2419 4469 2795 4162 
Q 3172 3856 3172 3334 
Q 3172 2956 2962 2675 
Q 2753 2394 2391 2322 
L 2391 2309 
Q 2813 2241 3047 1952 
Q 3281 1663 3281 1228 
z
M 2588 3303 
Q 2588 4050 1769 4050 
Q 1372 4050 1164 3862 
Q 956 3675 956 3303 
Q 956 2925 1170 2726 
Q 1384 2528 1775 2528 
Q 2172 2528 2380 2711 
Q 2588 2894 2588 3303 
z
M 2697 1281 
Q 2697 1691 2453 1898 
Q 2209 2106 1769 2106 
Q 1341 2106 1100 1882 
Q 859 1659 859 1269 
Q 859 359 1788 359 
Q 2247 359 2472 579 
Q 2697 800 2697 1281 
z
" transform="scale(0.015625)"/>
       </defs>
       <use xlink:href="#LiberationSans-38"/>
      </g>
     </g>
    </g>
    <g id="ytick_6">
     <g id="line2d_17">
      <path d="M 72 68.326883 
L 518.4 68.326883 
" clip-path="url(#p11c2ff9120)" style="fill: none; stroke: #cccccc; stroke-linecap: round"/>
     </g>
     <g id="line2d_18"/>
     <g id="text_13">
      <!-- 10 -->
      <g style="fill: #262626" transform="translate(53.878125 71.95032)scale(0.1 -0.1)">
       <use xlink:href="#LiberationSans-31"/>
       <use xlink:href="#LiberationSans-30" x="55.615234"/>
      </g>
     </g>
    </g>
    <g id="text_14">
     <!-- Vol_Edasi / Vol_Farinotti -->
     <g style="fill: #262626" transform="translate(47.595625 256.628281)rotate(-90)scale(0.11 -0.11)">
      <defs>
       <path id="LiberationSans-56" d="M 2444 0 
L 1825 0 
L 28 4403 
L 656 4403 
L 1875 1303 
L 2138 525 
L 2400 1303 
L 3613 4403 
L 4241 4403 
L 2444 0 
z
" transform="scale(0.015625)"/>
       <path id="LiberationSans-6f" d="M 3291 1694 
Q 3291 806 2900 371 
Q 2509 -63 1766 -63 
Q 1025 -63 647 389 
Q 269 841 269 1694 
Q 269 3444 1784 3444 
Q 2559 3444 2925 3017 
Q 3291 2591 3291 1694 
z
M 2700 1694 
Q 2700 2394 2492 2711 
Q 2284 3028 1794 3028 
Q 1300 3028 1079 2704 
Q 859 2381 859 1694 
Q 859 1025 1076 689 
Q 1294 353 1759 353 
Q 2266 353 2483 678 
Q 2700 1003 2700 1694 
z
" transform="scale(0.015625)"/>
       <path id="LiberationSans-6c" d="M 431 0 
L 431 4638 
L 994 4638 
L 994 0 
L 431 0 
z
" transform="scale(0.015625)"/>
       <path id="LiberationSans-5f" d="M -97 -1272 
L -97 -866 
L 3631 -866 
L 3631 -1272 
L -97 -1272 
z
" transform="scale(0.015625)"/>
       <path id="LiberationSans-45" d="M 525 0 
L 525 4403 
L 3866 4403 
L 3866 3916 
L 1122 3916 
L 1122 2503 
L 3678 2503 
L 3678 2022 
L 1122 2022 
L 1122 488 
L 3994 488 
L 3994 0 
L 525 0 
z
" transform="scale(0.015625)"/>
       <path id="LiberationSans-64" d="M 2566 544 
Q 2409 219 2151 78 
Q 1894 -63 1513 -63 
Q 872 -63 570 368 
Q 269 800 269 1675 
Q 269 3444 1513 3444 
Q 1897 3444 2153 3303 
Q 2409 3163 2566 2856 
L 2572 2856 
L 2566 3234 
L 2566 4638 
L 3128 4638 
L 3128 697 
Q 3128 169 3147 0 
L 2609 0 
Q 2600 50 2589 231 
Q 2578 413 2578 544 
L 2566 544 
z
M 859 1694 
Q 859 984 1046 678 
Q 1234 372 1656 372 
Q 2134 372 2350 703 
Q 2566 1034 2566 1731 
Q 2566 2403 2350 2715 
Q 2134 3028 1663 3028 
Q 1238 3028 1048 2714 
Q 859 2400 859 1694 
z
" transform="scale(0.015625)"/>
       <path id="LiberationSans-73" d="M 2969 934 
Q 2969 456 2608 196 
Q 2247 -63 1597 -63 
Q 966 -63 623 145 
Q 281 353 178 794 
L 675 891 
Q 747 619 972 492 
Q 1197 366 1597 366 
Q 2025 366 2223 497 
Q 2422 628 2422 891 
Q 2422 1091 2284 1216 
Q 2147 1341 1841 1422 
L 1438 1528 
Q 953 1653 748 1773 
Q 544 1894 428 2066 
Q 313 2238 313 2488 
Q 313 2950 642 3192 
Q 972 3434 1603 3434 
Q 2163 3434 2492 3237 
Q 2822 3041 2909 2606 
L 2403 2544 
Q 2356 2769 2151 2889 
Q 1947 3009 1603 3009 
Q 1222 3009 1040 2893 
Q 859 2778 859 2544 
Q 859 2400 934 2306 
Q 1009 2213 1156 2147 
Q 1303 2081 1775 1966 
Q 2222 1853 2419 1758 
Q 2616 1663 2730 1547 
Q 2844 1431 2906 1279 
Q 2969 1128 2969 934 
z
" transform="scale(0.015625)"/>
       <path id="LiberationSans-69" d="M 428 4100 
L 428 4638 
L 991 4638 
L 991 4100 
L 428 4100 
z
M 428 0 
L 428 3381 
L 991 3381 
L 991 0 
L 428 0 
z
" transform="scale(0.015625)"/>
       <path id="LiberationSans-2f" d="M 0 -63 
L 1284 4638 
L 1778 4638 
L 506 -63 
L 0 -63 
z
" transform="scale(0.015625)"/>
       <path id="LiberationSans-46" d="M 1122 3916 
L 1122 2278 
L 3578 2278 
L 3578 1784 
L 1122 1784 
L 1122 0 
L 525 0 
L 525 4403 
L 3653 4403 
L 3653 3916 
L 1122 3916 
z
" transform="scale(0.015625)"/>
       <path id="LiberationSans-72" d="M 444 0 
L 444 2594 
Q 444 2950 425 3381 
L 956 3381 
Q 981 2806 981 2691 
L 994 2691 
Q 1128 3125 1303 3284 
Q 1478 3444 1797 3444 
Q 1909 3444 2025 3413 
L 2025 2897 
Q 1913 2928 1725 2928 
Q 1375 2928 1190 2626 
Q 1006 2325 1006 1763 
L 1006 0 
L 444 0 
z
" transform="scale(0.015625)"/>
       <path id="LiberationSans-6e" d="M 2578 0 
L 2578 2144 
Q 2578 2478 2512 2662 
Q 2447 2847 2303 2928 
Q 2159 3009 1881 3009 
Q 1475 3009 1240 2731 
Q 1006 2453 1006 1959 
L 1006 0 
L 444 0 
L 444 2659 
Q 444 3250 425 3381 
L 956 3381 
Q 959 3366 962 3297 
Q 966 3228 970 3139 
Q 975 3050 981 2803 
L 991 2803 
Q 1184 3153 1439 3298 
Q 1694 3444 2072 3444 
Q 2628 3444 2886 3167 
Q 3144 2891 3144 2253 
L 3144 0 
L 2578 0 
z
" transform="scale(0.015625)"/>
       <path id="LiberationSans-74" d="M 1731 25 
Q 1453 -50 1163 -50 
Q 488 -50 488 716 
L 488 2972 
L 97 2972 
L 97 3381 
L 509 3381 
L 675 4138 
L 1050 4138 
L 1050 3381 
L 1675 3381 
L 1675 2972 
L 1050 2972 
L 1050 838 
Q 1050 594 1129 495 
Q 1209 397 1406 397 
Q 1519 397 1731 441 
L 1731 25 
z
" transform="scale(0.015625)"/>
      </defs>
      <use xlink:href="#LiberationSans-56"/>
      <use xlink:href="#LiberationSans-6f" x="61.199219"/>
      <use xlink:href="#LiberationSans-6c" x="116.814453"/>
      <use xlink:href="#LiberationSans-5f" x="139.03125"/>
      <use xlink:href="#LiberationSans-45" x="194.646484"/>
      <use xlink:href="#LiberationSans-64" x="261.345703"/>
      <use xlink:href="#LiberationSans-61" x="316.960938"/>
      <use xlink:href="#LiberationSans-73" x="372.576172"/>
      <use xlink:href="#LiberationSans-69" x="422.576172"/>
      <use xlink:href="#LiberationSans-20" x="444.792969"/>
      <use xlink:href="#LiberationSans-2f" x="472.576172"/>
      <use xlink:href="#LiberationSans-20" x="500.359375"/>
      <use xlink:href="#LiberationSans-56" x="528.142578"/>
      <use xlink:href="#LiberationSans-6f" x="589.341797"/>
      <use xlink:href="#LiberationSans-6c" x="644.957031"/>
      <use xlink:href="#LiberationSans-5f" x="667.173828"/>
      <use xlink:href="#LiberationSans-46" x="722.789062"/>
      <use xlink:href="#LiberationSans-61" x="783.873047"/>
      <use xlink:href="#LiberationSans-72" x="839.488281"/>
      <use xlink:href="#LiberationSans-69" x="872.789062"/>
      <use xlink:href="#LiberationSans-6e" x="895.005859"/>
      <use xlink:href="#LiberationSans-6f" x="950.621094"/>
      <use xlink:href="#LiberationSans-74" x="1006.236328"/>
      <use xlink:href="#LiberationSans-74" x="1034.019531"/>
      <use xlink:href="#LiberationSans-69" x="1061.802734"/>
     </g>
    </g>
   </g>
   <g id="PolyCollection_1">
    <defs>
     <path id="m5d91043942" d="M 109.205047 -63.09 
L 109.194953 -63.09 
L 109.167931 -65.835455 
L 109.057176 -68.580909 
L 108.745873 -71.326364 
L 108.134923 -74.071818 
L 107.26311 -76.817273 
L 106.279796 -79.562727 
L 105.26092 -82.308182 
L 104.108691 -85.053636 
L 102.664548 -87.799091 
L 100.962665 -90.544545 
L 99.377992 -93.29 
L 98.421239 -96.035455 
L 98.338296 -98.780909 
L 98.963157 -101.526364 
L 99.949321 -104.271818 
L 101.049773 -107.017273 
L 102.159807 -109.762727 
L 103.206105 -112.508182 
L 104.093795 -115.253636 
L 104.764157 -117.999091 
L 105.245275 -120.744545 
L 105.614483 -123.49 
L 105.933339 -126.235455 
L 106.224516 -128.980909 
L 106.498862 -131.726364 
L 106.780198 -134.471818 
L 107.077046 -137.217273 
L 107.357708 -139.962727 
L 107.588269 -142.708182 
L 107.770036 -145.453636 
L 107.926033 -148.199091 
L 108.075196 -150.944545 
L 108.218985 -153.69 
L 108.344139 -156.435455 
L 108.440768 -159.180909 
L 108.512875 -161.926364 
L 108.569309 -164.671818 
L 108.616961 -167.417273 
L 108.664106 -170.162727 
L 108.714329 -172.908182 
L 108.763387 -175.653636 
L 108.810083 -178.399091 
L 108.853252 -181.144545 
L 108.885969 -183.89 
L 108.906586 -186.635455 
L 108.922525 -189.380909 
L 108.940122 -192.126364 
L 108.960276 -194.871818 
L 108.983161 -197.617273 
L 109.009646 -200.362727 
L 109.037433 -203.108182 
L 109.058488 -205.853636 
L 109.065006 -208.599091 
L 109.060813 -211.344545 
L 109.059326 -214.09 
L 109.066756 -216.835455 
L 109.076045 -219.580909 
L 109.080252 -222.326364 
L 109.081814 -225.071818 
L 109.087201 -227.817273 
L 109.099133 -230.562727 
L 109.114275 -233.308182 
L 109.128074 -236.053636 
L 109.138804 -238.799091 
L 109.145232 -241.544545 
L 109.146406 -244.29 
L 109.144951 -247.035455 
L 109.145343 -249.780909 
L 109.147973 -252.526364 
L 109.1486 -255.271818 
L 109.144679 -258.017273 
L 109.138777 -260.762727 
L 109.13498 -263.508182 
L 109.134913 -266.253636 
L 109.137711 -268.999091 
L 109.141059 -271.744545 
L 109.142073 -274.49 
L 109.140899 -277.235455 
L 109.14163 -279.980909 
L 109.145877 -282.726364 
L 109.150646 -285.471818 
L 109.154533 -288.217273 
L 109.159154 -290.962727 
L 109.16339 -293.708182 
L 109.163613 -296.453636 
L 109.161433 -299.199091 
L 109.162574 -301.944545 
L 109.167354 -304.69 
L 109.170664 -307.435455 
L 109.170269 -310.180909 
L 109.168978 -312.926364 
L 109.169864 -315.671818 
L 109.173269 -318.417273 
L 109.177759 -321.162727 
L 109.182438 -323.908182 
L 109.187774 -326.653636 
L 109.193368 -329.399091 
L 109.197442 -332.144545 
L 109.199331 -334.89 
L 109.200669 -334.89 
L 109.200669 -334.89 
L 109.202558 -332.144545 
L 109.206632 -329.399091 
L 109.212226 -326.653636 
L 109.217562 -323.908182 
L 109.222241 -321.162727 
L 109.226731 -318.417273 
L 109.230136 -315.671818 
L 109.231022 -312.926364 
L 109.229731 -310.180909 
L 109.229336 -307.435455 
L 109.232646 -304.69 
L 109.237426 -301.944545 
L 109.238567 -299.199091 
L 109.236387 -296.453636 
L 109.23661 -293.708182 
L 109.240846 -290.962727 
L 109.245467 -288.217273 
L 109.249354 -285.471818 
L 109.254123 -282.726364 
L 109.25837 -279.980909 
L 109.259101 -277.235455 
L 109.257927 -274.49 
L 109.258941 -271.744545 
L 109.262289 -268.999091 
L 109.265087 -266.253636 
L 109.26502 -263.508182 
L 109.261223 -260.762727 
L 109.255321 -258.017273 
L 109.2514 -255.271818 
L 109.252027 -252.526364 
L 109.254657 -249.780909 
L 109.255049 -247.035455 
L 109.253594 -244.29 
L 109.254768 -241.544545 
L 109.261196 -238.799091 
L 109.271926 -236.053636 
L 109.285725 -233.308182 
L 109.300867 -230.562727 
L 109.312799 -227.817273 
L 109.318186 -225.071818 
L 109.319748 -222.326364 
L 109.323955 -219.580909 
L 109.333244 -216.835455 
L 109.340674 -214.09 
L 109.339187 -211.344545 
L 109.334994 -208.599091 
L 109.341512 -205.853636 
L 109.362567 -203.108182 
L 109.390354 -200.362727 
L 109.416839 -197.617273 
L 109.439724 -194.871818 
L 109.459878 -192.126364 
L 109.477475 -189.380909 
L 109.493414 -186.635455 
L 109.514031 -183.89 
L 109.546748 -181.144545 
L 109.589917 -178.399091 
L 109.636613 -175.653636 
L 109.685671 -172.908182 
L 109.735894 -170.162727 
L 109.783039 -167.417273 
L 109.830691 -164.671818 
L 109.887125 -161.926364 
L 109.959232 -159.180909 
L 110.055861 -156.435455 
L 110.181015 -153.69 
L 110.324804 -150.944545 
L 110.473967 -148.199091 
L 110.629964 -145.453636 
L 110.811731 -142.708182 
L 111.042292 -139.962727 
L 111.322954 -137.217273 
L 111.619802 -134.471818 
L 111.901138 -131.726364 
L 112.175484 -128.980909 
L 112.466661 -126.235455 
L 112.785517 -123.49 
L 113.154725 -120.744545 
L 113.635843 -117.999091 
L 114.306205 -115.253636 
L 115.193895 -112.508182 
L 116.240193 -109.762727 
L 117.350227 -107.017273 
L 118.450679 -104.271818 
L 119.436843 -101.526364 
L 120.061704 -98.780909 
L 119.978761 -96.035455 
L 119.022008 -93.29 
L 117.437335 -90.544545 
L 115.735452 -87.799091 
L 114.291309 -85.053636 
L 113.13908 -82.308182 
L 112.120204 -79.562727 
L 111.13689 -76.817273 
L 110.265077 -74.071818 
L 109.654127 -71.326364 
L 109.342824 -68.580909 
L 109.232069 -65.835455 
L 109.205047 -63.09 
z
" style="stroke: #313131; stroke-width: 1.75"/>
    </defs>
    <g clip-path="url(#p11c2ff9120)">
     <use xlink:href="#m5d91043942" x="0" y="396" style="fill: #166a8e; stroke: #313131; stroke-width: 1.75"/>
    </g>
   </g>
   <g id="PolyCollection_2">
    <defs>
     <path id="m9298e12a81" d="M 183.602783 -66.720384 
L 183.597217 -66.720384 
L 183.562525 -69.279769 
L 183.405061 -71.839154 
L 183.035066 -74.398539 
L 182.3226 -76.957923 
L 180.923223 -79.517308 
L 178.189804 -82.076693 
L 172.877703 -84.636078 
L 164.686077 -87.195463 
L 157.113952 -89.754848 
L 153.84 -92.314233 
L 154.893345 -94.873618 
L 158.595974 -97.433003 
L 162.960415 -99.992388 
L 166.879068 -102.551772 
L 170.232301 -105.111157 
L 172.770348 -107.670542 
L 174.642075 -110.229927 
L 176.216982 -112.789312 
L 177.454777 -115.348697 
L 178.388606 -117.908082 
L 179.181002 -120.467467 
L 179.813695 -123.026852 
L 180.327304 -125.586237 
L 180.75553 -128.145621 
L 181.166508 -130.705006 
L 181.548517 -133.264391 
L 181.827863 -135.823776 
L 182.0412 -138.383161 
L 182.233708 -140.942546 
L 182.41822 -143.501931 
L 182.570217 -146.061316 
L 182.674042 -148.620701 
L 182.712807 -151.180086 
L 182.788437 -153.73947 
L 182.875132 -156.298855 
L 182.938619 -158.85824 
L 182.988336 -161.417625 
L 182.991659 -163.97701 
L 183.002073 -166.536395 
L 183.055777 -169.09578 
L 183.112665 -171.655165 
L 183.119901 -174.21455 
L 183.121998 -176.773935 
L 183.14563 -179.333319 
L 183.205822 -181.892704 
L 183.270561 -184.452089 
L 183.322443 -187.011474 
L 183.353201 -189.570859 
L 183.380651 -192.130244 
L 183.409901 -194.689629 
L 183.42497 -197.249014 
L 183.456669 -199.808399 
L 183.495726 -202.367784 
L 183.51969 -204.927168 
L 183.537023 -207.486553 
L 183.554653 -210.045938 
L 183.563619 -212.605323 
L 183.568082 -215.164708 
L 183.57446 -217.724093 
L 183.577503 -220.283478 
L 183.579302 -222.842863 
L 183.584084 -225.402248 
L 183.58447 -227.961633 
L 183.58687 -230.521017 
L 183.593769 -233.080402 
L 183.595922 -235.639787 
L 183.593424 -238.199172 
L 183.591788 -240.758557 
L 183.591189 -243.317942 
L 183.591409 -245.877327 
L 183.593979 -248.436712 
L 183.595953 -250.996097 
L 183.596989 -253.555482 
L 183.596677 -256.114866 
L 183.595897 -258.674251 
L 183.59787 -261.233636 
L 183.598647 -263.793021 
L 183.596261 -266.352406 
L 183.596197 -268.911791 
L 183.598469 -271.471176 
L 183.597975 -274.030561 
L 183.598009 -276.589946 
L 183.599523 -279.14933 
L 183.599928 -281.708715 
L 183.599353 -284.2681 
L 183.597826 -286.827485 
L 183.598293 -289.38687 
L 183.599687 -291.946255 
L 183.599987 -294.50564 
L 183.6 -297.065025 
L 183.6 -299.62441 
L 183.599996 -302.183795 
L 183.59986 -304.743179 
L 183.59881 -307.302564 
L 183.597601 -309.861949 
L 183.598273 -312.421334 
L 183.597716 -314.980719 
L 183.598277 -317.540104 
L 183.599681 -320.099489 
L 183.600319 -320.099489 
L 183.600319 -320.099489 
L 183.601723 -317.540104 
L 183.602284 -314.980719 
L 183.601727 -312.421334 
L 183.602399 -309.861949 
L 183.60119 -307.302564 
L 183.60014 -304.743179 
L 183.600004 -302.183795 
L 183.6 -299.62441 
L 183.6 -297.065025 
L 183.600013 -294.50564 
L 183.600313 -291.946255 
L 183.601707 -289.38687 
L 183.602174 -286.827485 
L 183.600647 -284.2681 
L 183.600072 -281.708715 
L 183.600477 -279.14933 
L 183.601991 -276.589946 
L 183.602025 -274.030561 
L 183.601531 -271.471176 
L 183.603803 -268.911791 
L 183.603739 -266.352406 
L 183.601353 -263.793021 
L 183.60213 -261.233636 
L 183.604103 -258.674251 
L 183.603323 -256.114866 
L 183.603011 -253.555482 
L 183.604047 -250.996097 
L 183.606021 -248.436712 
L 183.608591 -245.877327 
L 183.608811 -243.317942 
L 183.608212 -240.758557 
L 183.606576 -238.199172 
L 183.604078 -235.639787 
L 183.606231 -233.080402 
L 183.61313 -230.521017 
L 183.61553 -227.961633 
L 183.615916 -225.402248 
L 183.620698 -222.842863 
L 183.622497 -220.283478 
L 183.62554 -217.724093 
L 183.631918 -215.164708 
L 183.636381 -212.605323 
L 183.645347 -210.045938 
L 183.662977 -207.486553 
L 183.68031 -204.927168 
L 183.704274 -202.367784 
L 183.743331 -199.808399 
L 183.77503 -197.249014 
L 183.790099 -194.689629 
L 183.819349 -192.130244 
L 183.846799 -189.570859 
L 183.877557 -187.011474 
L 183.929439 -184.452089 
L 183.994178 -181.892704 
L 184.05437 -179.333319 
L 184.078002 -176.773935 
L 184.080099 -174.21455 
L 184.087335 -171.655165 
L 184.144223 -169.09578 
L 184.197927 -166.536395 
L 184.208341 -163.97701 
L 184.211664 -161.417625 
L 184.261381 -158.85824 
L 184.324868 -156.298855 
L 184.411563 -153.73947 
L 184.487193 -151.180086 
L 184.525958 -148.620701 
L 184.629783 -146.061316 
L 184.78178 -143.501931 
L 184.966292 -140.942546 
L 185.1588 -138.383161 
L 185.372137 -135.823776 
L 185.651483 -133.264391 
L 186.033492 -130.705006 
L 186.44447 -128.145621 
L 186.872696 -125.586237 
L 187.386305 -123.026852 
L 188.018998 -120.467467 
L 188.811394 -117.908082 
L 189.745223 -115.348697 
L 190.983018 -112.789312 
L 192.557925 -110.229927 
L 194.429652 -107.670542 
L 196.967699 -105.111157 
L 200.320932 -102.551772 
L 204.239585 -99.992388 
L 208.604026 -97.433003 
L 212.306655 -94.873618 
L 213.36 -92.314233 
L 210.086048 -89.754848 
L 202.513923 -87.195463 
L 194.322297 -84.636078 
L 189.010196 -82.076693 
L 186.276777 -79.517308 
L 184.8774 -76.957923 
L 184.164934 -74.398539 
L 183.794939 -71.839154 
L 183.637475 -69.279769 
L 183.602783 -66.720384 
z
" style="stroke: #313131; stroke-width: 1.75"/>
    </defs>
    <g clip-path="url(#p11c2ff9120)">
     <use xlink:href="#m9298e12a81" x="0" y="396" style="fill: #9eba81; stroke: #313131; stroke-width: 1.75"/>
    </g>
   </g>
   <g id="PolyCollection_3">
    <defs>
     <path id="m6f8b7b5051" d="M 258.000438 -68.646198 
L 257.999562 -68.646198 
L 257.996083 -71.268959 
L 257.976027 -73.89172 
L 257.855307 -76.514481 
L 257.225504 -79.137242 
L 255.048861 -81.760003 
L 250.6662 -84.382764 
L 245.886541 -87.005525 
L 243.547366 -89.628286 
L 243.91136 -92.251047 
L 245.62011 -94.873808 
L 247.610503 -97.496569 
L 249.49959 -100.11933 
L 251.28047 -102.742091 
L 252.74589 -105.364852 
L 253.806214 -107.987612 
L 254.545754 -110.610373 
L 255.050035 -113.233134 
L 255.453219 -115.855895 
L 255.800579 -118.478656 
L 256.059622 -121.101417 
L 256.244644 -123.724178 
L 256.439796 -126.346939 
L 256.621753 -128.9697 
L 256.791654 -131.592461 
L 256.981023 -134.215222 
L 257.126617 -136.837983 
L 257.183556 -139.460744 
L 257.268067 -142.083505 
L 257.383362 -144.706266 
L 257.454979 -147.329027 
L 257.511566 -149.951788 
L 257.560912 -152.574549 
L 257.595477 -155.19731 
L 257.617332 -157.820071 
L 257.621521 -160.442832 
L 257.642949 -163.065593 
L 257.692892 -165.688354 
L 257.730589 -168.311115 
L 257.761602 -170.933876 
L 257.797059 -173.556637 
L 257.817116 -176.179397 
L 257.83381 -178.802158 
L 257.85575 -181.424919 
L 257.870019 -184.04768 
L 257.888763 -186.670441 
L 257.914371 -189.293202 
L 257.932203 -191.915963 
L 257.944743 -194.538724 
L 257.95294 -197.161485 
L 257.963475 -199.784246 
L 257.972823 -202.407007 
L 257.982175 -205.029768 
L 257.990184 -207.652529 
L 257.994409 -210.27529 
L 257.998467 -212.898051 
L 257.999862 -215.520812 
L 257.999996 -218.143573 
L 257.999998 -220.766334 
L 257.999929 -223.389095 
L 257.999336 -226.011856 
L 257.998124 -228.634617 
L 257.998381 -231.257378 
L 257.999352 -233.880139 
L 257.998724 -236.5029 
L 257.997974 -239.125661 
L 257.999 -241.748422 
L 257.99985 -244.371182 
L 257.999993 -246.993943 
L 258 -249.616704 
L 258 -252.239465 
L 258 -254.862226 
L 257.999981 -257.484987 
L 257.999703 -260.107748 
L 257.998606 -262.730509 
L 257.998015 -265.35327 
L 257.999143 -267.976031 
L 257.999888 -270.598792 
L 257.999996 -273.221553 
L 257.999999 -275.844314 
L 257.99995 -278.467075 
L 257.999461 -281.089836 
L 257.998238 -283.712597 
L 257.998256 -286.335358 
L 257.999477 -288.958119 
L 257.999952 -291.58088 
L 257.999999 -294.203641 
L 258 -296.826402 
L 258 -299.449163 
L 258 -302.071924 
L 258 -304.694685 
L 258 -307.317446 
L 258 -309.940207 
L 258 -312.562968 
L 257.999995 -315.185728 
L 257.999877 -317.808489 
L 257.999101 -320.43125 
L 257.997999 -323.054011 
L 257.998651 -325.676772 
L 257.999725 -328.299533 
L 258.000275 -328.299533 
L 258.000275 -328.299533 
L 258.001349 -325.676772 
L 258.002001 -323.054011 
L 258.000899 -320.43125 
L 258.000123 -317.808489 
L 258.000005 -315.185728 
L 258 -312.562968 
L 258 -309.940207 
L 258 -307.317446 
L 258 -304.694685 
L 258 -302.071924 
L 258 -299.449163 
L 258 -296.826402 
L 258.000001 -294.203641 
L 258.000048 -291.58088 
L 258.000523 -288.958119 
L 258.001744 -286.335358 
L 258.001762 -283.712597 
L 258.000539 -281.089836 
L 258.00005 -278.467075 
L 258.000001 -275.844314 
L 258.000004 -273.221553 
L 258.000112 -270.598792 
L 258.000857 -267.976031 
L 258.001985 -265.35327 
L 258.001394 -262.730509 
L 258.000297 -260.107748 
L 258.000019 -257.484987 
L 258 -254.862226 
L 258 -252.239465 
L 258 -249.616704 
L 258.000007 -246.993943 
L 258.00015 -244.371182 
L 258.001 -241.748422 
L 258.002026 -239.125661 
L 258.001276 -236.5029 
L 258.000648 -233.880139 
L 258.001619 -231.257378 
L 258.001876 -228.634617 
L 258.000664 -226.011856 
L 258.000071 -223.389095 
L 258.000002 -220.766334 
L 258.000004 -218.143573 
L 258.000138 -215.520812 
L 258.001533 -212.898051 
L 258.005591 -210.27529 
L 258.009816 -207.652529 
L 258.017825 -205.029768 
L 258.027177 -202.407007 
L 258.036525 -199.784246 
L 258.04706 -197.161485 
L 258.055257 -194.538724 
L 258.067797 -191.915963 
L 258.085629 -189.293202 
L 258.111237 -186.670441 
L 258.129981 -184.04768 
L 258.14425 -181.424919 
L 258.16619 -178.802158 
L 258.182884 -176.179397 
L 258.202941 -173.556637 
L 258.238398 -170.933876 
L 258.269411 -168.311115 
L 258.307108 -165.688354 
L 258.357051 -163.065593 
L 258.378479 -160.442832 
L 258.382668 -157.820071 
L 258.404523 -155.19731 
L 258.439088 -152.574549 
L 258.488434 -149.951788 
L 258.545021 -147.329027 
L 258.616638 -144.706266 
L 258.731933 -142.083505 
L 258.816444 -139.460744 
L 258.873383 -136.837983 
L 259.018977 -134.215222 
L 259.208346 -131.592461 
L 259.378247 -128.9697 
L 259.560204 -126.346939 
L 259.755356 -123.724178 
L 259.940378 -121.101417 
L 260.199421 -118.478656 
L 260.546781 -115.855895 
L 260.949965 -113.233134 
L 261.454246 -110.610373 
L 262.193786 -107.987612 
L 263.25411 -105.364852 
L 264.71953 -102.742091 
L 266.50041 -100.11933 
L 268.389497 -97.496569 
L 270.37989 -94.873808 
L 272.08864 -92.251047 
L 272.452634 -89.628286 
L 270.113459 -87.005525 
L 265.3338 -84.382764 
L 260.951139 -81.760003 
L 258.774496 -79.137242 
L 258.144693 -76.514481 
L 258.023973 -73.89172 
L 258.003917 -71.268959 
L 258.000438 -68.646198 
z
" style="stroke: #313131; stroke-width: 1.75"/>
    </defs>
    <g clip-path="url(#p11c2ff9120)">
     <use xlink:href="#m6f8b7b5051" x="0" y="396" style="fill: #b1221c; stroke: #313131; stroke-width: 1.75"/>
    </g>
   </g>
   <g id="PolyCollection_4">
    <defs>
     <path id="m3775f2dc48" d="M 332.400751 -70.335895 
L 332.399249 -70.335895 
L 332.395997 -72.24638 
L 332.383909 -74.156865 
L 332.338795 -76.067351 
L 332.191617 -77.977836 
L 331.83137 -79.888322 
L 331.186085 -81.798807 
L 330.349794 -83.709292 
L 329.554886 -85.619778 
L 328.953077 -87.530263 
L 328.573504 -89.440749 
L 328.291332 -91.351234 
L 327.84252 -93.261719 
L 327.148726 -95.172205 
L 326.380418 -97.08269 
L 325.718468 -98.993176 
L 325.234233 -100.903661 
L 324.943967 -102.814146 
L 324.8392 -104.724632 
L 324.923749 -106.635117 
L 325.158193 -108.545603 
L 325.447449 -110.456088 
L 325.749775 -112.366573 
L 326.07044 -114.277059 
L 326.449913 -116.187544 
L 326.842052 -118.09803 
L 327.174111 -120.008515 
L 327.542177 -121.919 
L 328.0497 -123.829486 
L 328.611897 -125.739971 
L 329.097376 -127.650457 
L 329.563087 -129.560942 
L 330.0516 -131.471427 
L 330.467824 -133.381913 
L 330.761567 -135.292398 
L 331.013898 -137.202884 
L 331.284996 -139.113369 
L 331.519733 -141.023855 
L 331.685051 -142.93434 
L 331.806599 -144.844825 
L 331.903192 -146.755311 
L 331.984548 -148.665796 
L 332.056086 -150.576282 
L 332.121231 -152.486767 
L 332.183909 -154.397252 
L 332.235817 -156.307738 
L 332.273839 -158.218223 
L 332.30246 -160.128709 
L 332.321744 -162.039194 
L 332.333102 -163.949679 
L 332.339761 -165.860165 
L 332.345815 -167.77065 
L 332.354182 -169.681136 
L 332.363124 -171.591621 
L 332.369009 -173.502106 
L 332.369478 -175.412592 
L 332.368606 -177.323077 
L 332.372796 -179.233563 
L 332.377475 -181.144048 
L 332.379875 -183.054533 
L 332.385539 -184.965019 
L 332.392882 -186.875504 
L 332.396028 -188.78599 
L 332.395523 -190.696475 
L 332.394953 -192.60696 
L 332.395486 -194.517446 
L 332.396835 -196.427931 
L 332.396725 -198.338417 
L 332.39423 -200.248902 
L 332.393345 -202.159387 
L 332.396042 -204.069873 
L 332.398802 -205.980358 
L 332.399672 -207.890844 
L 332.398955 -209.801329 
L 332.396394 -211.711814 
L 332.39357 -213.6223 
L 332.394132 -215.532785 
L 332.397261 -217.443271 
L 332.399349 -219.353756 
L 332.399922 -221.264241 
L 332.399995 -223.174727 
L 332.4 -225.085212 
L 332.4 -226.995698 
L 332.4 -228.906183 
L 332.399996 -230.816668 
L 332.399925 -232.727154 
L 332.399349 -234.637639 
L 332.397178 -236.548125 
L 332.393931 -238.45861 
L 332.393519 -240.369096 
L 332.396563 -242.279581 
L 332.399095 -244.190066 
L 332.39988 -246.100552 
L 332.399961 -248.011037 
L 332.399706 -249.921523 
L 332.398658 -251.832008 
L 332.396994 -253.742493 
L 332.3967 -255.652979 
L 332.398224 -257.563464 
L 332.399531 -259.47395 
L 332.400469 -259.47395 
L 332.400469 -259.47395 
L 332.401776 -257.563464 
L 332.4033 -255.652979 
L 332.403006 -253.742493 
L 332.401342 -251.832008 
L 332.400294 -249.921523 
L 332.400039 -248.011037 
L 332.40012 -246.100552 
L 332.400905 -244.190066 
L 332.403437 -242.279581 
L 332.406481 -240.369096 
L 332.406069 -238.45861 
L 332.402822 -236.548125 
L 332.400651 -234.637639 
L 332.400075 -232.727154 
L 332.400004 -230.816668 
L 332.4 -228.906183 
L 332.4 -226.995698 
L 332.4 -225.085212 
L 332.400005 -223.174727 
L 332.400078 -221.264241 
L 332.400651 -219.353756 
L 332.402739 -217.443271 
L 332.405868 -215.532785 
L 332.40643 -213.6223 
L 332.403606 -211.711814 
L 332.401045 -209.801329 
L 332.400328 -207.890844 
L 332.401198 -205.980358 
L 332.403958 -204.069873 
L 332.406655 -202.159387 
L 332.40577 -200.248902 
L 332.403275 -198.338417 
L 332.403165 -196.427931 
L 332.404514 -194.517446 
L 332.405047 -192.60696 
L 332.404477 -190.696475 
L 332.403972 -188.78599 
L 332.407118 -186.875504 
L 332.414461 -184.965019 
L 332.420125 -183.054533 
L 332.422525 -181.144048 
L 332.427204 -179.233563 
L 332.431394 -177.323077 
L 332.430522 -175.412592 
L 332.430991 -173.502106 
L 332.436876 -171.591621 
L 332.445818 -169.681136 
L 332.454185 -167.77065 
L 332.460239 -165.860165 
L 332.466898 -163.949679 
L 332.478256 -162.039194 
L 332.49754 -160.128709 
L 332.526161 -158.218223 
L 332.564183 -156.307738 
L 332.616091 -154.397252 
L 332.678769 -152.486767 
L 332.743914 -150.576282 
L 332.815452 -148.665796 
L 332.896808 -146.755311 
L 332.993401 -144.844825 
L 333.114949 -142.93434 
L 333.280267 -141.023855 
L 333.515004 -139.113369 
L 333.786102 -137.202884 
L 334.038433 -135.292398 
L 334.332176 -133.381913 
L 334.7484 -131.471427 
L 335.236913 -129.560942 
L 335.702624 -127.650457 
L 336.188103 -125.739971 
L 336.7503 -123.829486 
L 337.257823 -121.919 
L 337.625889 -120.008515 
L 337.957948 -118.09803 
L 338.350087 -116.187544 
L 338.72956 -114.277059 
L 339.050225 -112.366573 
L 339.352551 -110.456088 
L 339.641807 -108.545603 
L 339.876251 -106.635117 
L 339.9608 -104.724632 
L 339.856033 -102.814146 
L 339.565767 -100.903661 
L 339.081532 -98.993176 
L 338.419582 -97.08269 
L 337.651274 -95.172205 
L 336.95748 -93.261719 
L 336.508668 -91.351234 
L 336.226496 -89.440749 
L 335.846923 -87.530263 
L 335.245114 -85.619778 
L 334.450206 -83.709292 
L 333.613915 -81.798807 
L 332.96863 -79.888322 
L 332.608383 -77.977836 
L 332.461205 -76.067351 
L 332.416091 -74.156865 
L 332.404003 -72.24638 
L 332.400751 -70.335895 
z
" style="stroke: #313131; stroke-width: 1.75"/>
    </defs>
    <g clip-path="url(#p11c2ff9120)">
     <use xlink:href="#m3775f2dc48" x="0" y="396" style="fill: #911657; stroke: #313131; stroke-width: 1.75"/>
    </g>
   </g>
   <g id="PolyCollection_5">
    <defs>
     <path id="m65916dd9a9" d="M 406.801416 -75.165035 
L 406.798584 -75.165035 
L 406.789533 -77.427706 
L 406.770476 -79.690378 
L 406.717189 -81.95305 
L 406.61608 -84.215721 
L 406.249892 -86.478393 
L 404.93734 -88.741064 
L 402.1783 -91.003736 
L 398.417115 -93.266408 
L 394.943486 -95.529079 
L 393.152557 -97.791751 
L 392.770762 -100.054422 
L 392.960078 -102.317094 
L 393.436953 -104.579765 
L 393.971342 -106.842437 
L 394.596229 -109.105109 
L 395.656403 -111.36778 
L 396.795368 -113.630452 
L 397.617858 -115.893123 
L 398.567295 -118.155795 
L 399.698116 -120.418467 
L 400.778694 -122.681138 
L 401.606626 -124.94381 
L 402.280743 -127.206481 
L 403.020396 -129.469153 
L 403.747671 -131.731824 
L 404.366507 -133.994496 
L 404.814745 -136.257168 
L 405.20037 -138.519839 
L 405.542527 -140.782511 
L 405.884732 -143.045182 
L 406.060702 -145.307854 
L 406.168732 -147.570525 
L 406.304829 -149.833197 
L 406.423901 -152.095869 
L 406.512248 -154.35854 
L 406.608437 -156.621212 
L 406.675767 -158.883883 
L 406.694367 -161.146555 
L 406.697008 -163.409227 
L 406.714189 -165.671898 
L 406.717333 -167.93457 
L 406.750343 -170.197241 
L 406.774402 -172.459913 
L 406.78652 -174.722584 
L 406.791463 -176.985256 
L 406.794162 -179.247928 
L 406.795844 -181.510599 
L 406.79827 -183.773271 
L 406.799851 -186.035942 
L 406.799998 -188.298614 
L 406.8 -190.561286 
L 406.8 -192.823957 
L 406.8 -195.086629 
L 406.8 -197.3493 
L 406.8 -199.611972 
L 406.8 -201.874643 
L 406.799975 -204.137315 
L 406.799341 -206.399987 
L 406.796854 -208.662658 
L 406.797229 -210.92533 
L 406.79955 -213.188001 
L 406.799987 -215.450673 
L 406.8 -217.713345 
L 406.8 -219.976016 
L 406.8 -222.238688 
L 406.8 -224.501359 
L 406.8 -226.764031 
L 406.8 -229.026702 
L 406.8 -231.289374 
L 406.8 -233.552046 
L 406.8 -235.814717 
L 406.8 -238.077389 
L 406.8 -240.34006 
L 406.8 -242.602732 
L 406.8 -244.865403 
L 406.8 -247.128075 
L 406.8 -249.390747 
L 406.799997 -251.653418 
L 406.799831 -253.91609 
L 406.798143 -256.178761 
L 406.795381 -258.441433 
L 406.792955 -260.704105 
L 406.793767 -262.966776 
L 406.798776 -265.229448 
L 406.799955 -267.492119 
L 406.8 -269.754791 
L 406.8 -272.017462 
L 406.8 -274.280134 
L 406.8 -276.542806 
L 406.8 -278.805477 
L 406.8 -281.068149 
L 406.8 -283.33082 
L 406.8 -285.593492 
L 406.8 -287.856164 
L 406.799978 -290.118835 
L 406.799398 -292.381507 
L 406.79694 -294.644178 
L 406.797132 -296.90685 
L 406.799504 -299.169521 
L 406.800496 -299.169521 
L 406.800496 -299.169521 
L 406.802868 -296.90685 
L 406.80306 -294.644178 
L 406.800602 -292.381507 
L 406.800022 -290.118835 
L 406.8 -287.856164 
L 406.8 -285.593492 
L 406.8 -283.33082 
L 406.8 -281.068149 
L 406.8 -278.805477 
L 406.8 -276.542806 
L 406.8 -274.280134 
L 406.8 -272.017462 
L 406.8 -269.754791 
L 406.800045 -267.492119 
L 406.801224 -265.229448 
L 406.806233 -262.966776 
L 406.807045 -260.704105 
L 406.804619 -258.441433 
L 406.801857 -256.178761 
L 406.800169 -253.91609 
L 406.800003 -251.653418 
L 406.8 -249.390747 
L 406.8 -247.128075 
L 406.8 -244.865403 
L 406.8 -242.602732 
L 406.8 -240.34006 
L 406.8 -238.077389 
L 406.8 -235.814717 
L 406.8 -233.552046 
L 406.8 -231.289374 
L 406.8 -229.026702 
L 406.8 -226.764031 
L 406.8 -224.501359 
L 406.8 -222.238688 
L 406.8 -219.976016 
L 406.8 -217.713345 
L 406.800013 -215.450673 
L 406.80045 -213.188001 
L 406.802771 -210.92533 
L 406.803146 -208.662658 
L 406.800659 -206.399987 
L 406.800025 -204.137315 
L 406.8 -201.874643 
L 406.8 -199.611972 
L 406.8 -197.3493 
L 406.8 -195.086629 
L 406.8 -192.823957 
L 406.8 -190.561286 
L 406.800002 -188.298614 
L 406.800149 -186.035942 
L 406.80173 -183.773271 
L 406.804156 -181.510599 
L 406.805838 -179.247928 
L 406.808537 -176.985256 
L 406.81348 -174.722584 
L 406.825598 -172.459913 
L 406.849657 -170.197241 
L 406.882667 -167.93457 
L 406.885811 -165.671898 
L 406.902992 -163.409227 
L 406.905633 -161.146555 
L 406.924233 -158.883883 
L 406.991563 -156.621212 
L 407.087752 -154.35854 
L 407.176099 -152.095869 
L 407.295171 -149.833197 
L 407.431268 -147.570525 
L 407.539298 -145.307854 
L 407.715268 -143.045182 
L 408.057473 -140.782511 
L 408.39963 -138.519839 
L 408.785255 -136.257168 
L 409.233493 -133.994496 
L 409.852329 -131.731824 
L 410.579604 -129.469153 
L 411.319257 -127.206481 
L 411.993374 -124.94381 
L 412.821306 -122.681138 
L 413.901884 -120.418467 
L 415.032705 -118.155795 
L 415.982142 -115.893123 
L 416.804632 -113.630452 
L 417.943597 -111.36778 
L 419.003771 -109.105109 
L 419.628658 -106.842437 
L 420.163047 -104.579765 
L 420.639922 -102.317094 
L 420.829238 -100.054422 
L 420.447443 -97.791751 
L 418.656514 -95.529079 
L 415.182885 -93.266408 
L 411.4217 -91.003736 
L 408.66266 -88.741064 
L 407.350108 -86.478393 
L 406.98392 -84.215721 
L 406.882811 -81.95305 
L 406.829524 -79.690378 
L 406.810467 -77.427706 
L 406.801416 -75.165035 
z
" style="stroke: #313131; stroke-width: 1.75"/>
    </defs>
    <g clip-path="url(#p11c2ff9120)">
     <use xlink:href="#m65916dd9a9" x="0" y="396" style="fill: #bcb11d; stroke: #313131; stroke-width: 1.75"/>
    </g>
   </g>
   <g id="PolyCollection_6">
    <defs>
     <path id="m9821b751ee" d="M 481.200835 -72.397367 
L 481.199165 -72.397367 
L 481.195858 -73.830789 
L 481.186016 -75.264211 
L 481.161484 -76.697634 
L 481.102653 -78.131056 
L 480.969934 -79.564478 
L 480.698328 -80.9979 
L 480.212973 -82.431323 
L 479.424703 -83.864745 
L 478.189558 -85.298167 
L 476.320459 -86.731589 
L 473.640664 -88.165011 
L 470.20908 -89.598434 
L 466.39566 -91.031856 
L 462.620062 -92.465278 
L 459.230534 -93.8987 
L 456.456027 -95.332123 
L 454.317819 -96.765545 
L 452.879212 -98.198967 
L 452.220826 -99.632389 
L 452.099969 -101.065812 
L 452.235316 -102.499234 
L 452.527897 -103.932656 
L 452.91374 -105.366078 
L 453.442858 -106.7995 
L 454.169822 -108.232923 
L 455.089634 -109.666345 
L 456.19963 -111.099767 
L 457.354802 -112.533189 
L 458.483858 -113.966612 
L 459.638987 -115.400034 
L 460.756336 -116.833456 
L 461.863174 -118.266878 
L 463.002028 -119.700301 
L 464.078055 -121.133723 
L 465.134651 -122.567145 
L 466.284757 -124.000567 
L 467.546772 -125.43399 
L 468.826461 -126.867412 
L 469.912329 -128.300834 
L 470.747527 -129.734256 
L 471.482743 -131.167678 
L 472.239124 -132.601101 
L 473.0687 -134.034523 
L 473.899265 -135.467945 
L 474.601086 -136.901367 
L 475.140704 -138.33479 
L 475.643875 -139.768212 
L 476.231459 -141.201634 
L 476.852257 -142.635056 
L 477.431857 -144.068479 
L 477.950057 -145.501901 
L 478.392696 -146.935323 
L 478.738162 -148.368745 
L 478.999684 -149.802167 
L 479.242506 -151.23559 
L 479.47991 -152.669012 
L 479.674032 -154.102434 
L 479.859002 -155.535856 
L 480.065051 -156.969279 
L 480.244667 -158.402701 
L 480.372236 -159.836123 
L 480.458502 -161.269545 
L 480.525118 -162.702968 
L 480.597221 -164.13639 
L 480.676898 -165.569812 
L 480.765596 -167.003234 
L 480.84718 -168.436656 
L 480.895698 -169.870079 
L 480.933134 -171.303501 
L 480.978488 -172.736923 
L 481.012152 -174.170345 
L 481.039238 -175.603768 
L 481.077161 -177.03719 
L 481.110384 -178.470612 
L 481.12147 -179.904034 
L 481.124235 -181.337457 
L 481.137667 -182.770879 
L 481.157205 -184.204301 
L 481.170861 -185.637723 
L 481.175047 -187.071145 
L 481.172245 -188.504568 
L 481.168626 -189.93799 
L 481.169897 -191.371412 
L 481.176123 -192.804834 
L 481.182567 -194.238257 
L 481.186571 -195.671679 
L 481.190315 -197.105101 
L 481.192958 -198.538523 
L 481.191818 -199.971946 
L 481.189298 -201.405368 
L 481.190046 -202.83879 
L 481.194461 -204.272212 
L 481.198239 -205.705635 
L 481.199221 -207.139057 
L 481.198022 -208.572479 
L 481.196099 -210.005901 
L 481.195988 -211.439323 
L 481.197872 -212.872746 
L 481.199418 -214.306168 
L 481.200582 -214.306168 
L 481.200582 -214.306168 
L 481.202128 -212.872746 
L 481.204012 -211.439323 
L 481.203901 -210.005901 
L 481.201978 -208.572479 
L 481.200779 -207.139057 
L 481.201761 -205.705635 
L 481.205539 -204.272212 
L 481.209954 -202.83879 
L 481.210702 -201.405368 
L 481.208182 -199.971946 
L 481.207042 -198.538523 
L 481.209685 -197.105101 
L 481.213429 -195.671679 
L 481.217433 -194.238257 
L 481.223877 -192.804834 
L 481.230103 -191.371412 
L 481.231374 -189.93799 
L 481.227755 -188.504568 
L 481.224953 -187.071145 
L 481.229139 -185.637723 
L 481.242795 -184.204301 
L 481.262333 -182.770879 
L 481.275765 -181.337457 
L 481.27853 -179.904034 
L 481.289616 -178.470612 
L 481.322839 -177.03719 
L 481.360762 -175.603768 
L 481.387848 -174.170345 
L 481.421512 -172.736923 
L 481.466866 -171.303501 
L 481.504302 -169.870079 
L 481.55282 -168.436656 
L 481.634404 -167.003234 
L 481.723102 -165.569812 
L 481.802779 -164.13639 
L 481.874882 -162.702968 
L 481.941498 -161.269545 
L 482.027764 -159.836123 
L 482.155333 -158.402701 
L 482.334949 -156.969279 
L 482.540998 -155.535856 
L 482.725968 -154.102434 
L 482.92009 -152.669012 
L 483.157494 -151.23559 
L 483.400316 -149.802167 
L 483.661838 -148.368745 
L 484.007304 -146.935323 
L 484.449943 -145.501901 
L 484.968143 -144.068479 
L 485.547743 -142.635056 
L 486.168541 -141.201634 
L 486.756125 -139.768212 
L 487.259296 -138.33479 
L 487.798914 -136.901367 
L 488.500735 -135.467945 
L 489.3313 -134.034523 
L 490.160876 -132.601101 
L 490.917257 -131.167678 
L 491.652473 -129.734256 
L 492.487671 -128.300834 
L 493.573539 -126.867412 
L 494.853228 -125.43399 
L 496.115243 -124.000567 
L 497.265349 -122.567145 
L 498.321945 -121.133723 
L 499.397972 -119.700301 
L 500.536826 -118.266878 
L 501.643664 -116.833456 
L 502.761013 -115.400034 
L 503.916142 -113.966612 
L 505.045198 -112.533189 
L 506.20037 -111.099767 
L 507.310366 -109.666345 
L 508.230178 -108.232923 
L 508.957142 -106.7995 
L 509.48626 -105.366078 
L 509.872103 -103.932656 
L 510.164684 -102.499234 
L 510.300031 -101.065812 
L 510.179174 -99.632389 
L 509.520788 -98.198967 
L 508.082181 -96.765545 
L 505.943973 -95.332123 
L 503.169466 -93.8987 
L 499.779938 -92.465278 
L 496.00434 -91.031856 
L 492.19092 -89.598434 
L 488.759336 -88.165011 
L 486.079541 -86.731589 
L 484.210442 -85.298167 
L 482.975297 -83.864745 
L 482.187027 -82.431323 
L 481.701672 -80.9979 
L 481.430066 -79.564478 
L 481.297347 -78.131056 
L 481.238516 -76.697634 
L 481.213984 -75.264211 
L 481.204142 -73.830789 
L 481.200835 -72.397367 
z
" style="stroke: #313131; stroke-width: 1.75"/>
    </defs>
    <g clip-path="url(#p11c2ff9120)">
     <use xlink:href="#m9821b751ee" x="0" y="396" style="fill: #92c4d0; stroke: #313131; stroke-width: 1.75"/>
    </g>
   </g>
   <g id="line2d_19">
    <path d="M 109.2 324.758205 
L 109.2 236.604129 
" clip-path="url(#p11c2ff9120)" style="fill: none; stroke: #313131; stroke-width: 1.75; stroke-linecap: round"/>
   </g>
   <g id="line2d_20">
    <path d="M 109.2 301.557235 
L 109.2 275.574511 
" clip-path="url(#p11c2ff9120)" style="fill: none; stroke: #313131; stroke-width: 5.25; stroke-linecap: round"/>
   </g>
   <g id="line2d_21">
    <path d="M 183.6 325.034374 
L 183.6 263.853667 
" clip-path="url(#p11c2ff9120)" style="fill: none; stroke: #313131; stroke-width: 1.75; stroke-linecap: round"/>
   </g>
   <g id="line2d_22">
    <path d="M 183.6 304.684603 
L 183.6 288.351451 
" clip-path="url(#p11c2ff9120)" style="fill: none; stroke: #313131; stroke-width: 5.25; stroke-linecap: round"/>
   </g>
   <g id="line2d_23">
    <path d="M 258 322.553177 
L 258 264.065137 
" clip-path="url(#p11c2ff9120)" style="fill: none; stroke: #313131; stroke-width: 1.75; stroke-linecap: round"/>
   </g>
   <g id="line2d_24">
    <path d="M 258 306.12768 
L 258 289.294442 
" clip-path="url(#p11c2ff9120)" style="fill: none; stroke: #313131; stroke-width: 5.25; stroke-linecap: round"/>
   </g>
   <g id="line2d_25">
    <path d="M 332.4 321.138412 
L 332.4 245.935238 
" clip-path="url(#p11c2ff9120)" style="fill: none; stroke: #313131; stroke-width: 1.75; stroke-linecap: round"/>
   </g>
   <g id="line2d_26">
    <path d="M 332.4 297.097407 
L 332.4 276.63176 
" clip-path="url(#p11c2ff9120)" style="fill: none; stroke: #313131; stroke-width: 5.25; stroke-linecap: round"/>
   </g>
   <g id="line2d_27">
    <path d="M 406.8 317.354186 
L 406.8 251.592128 
" clip-path="url(#p11c2ff9120)" style="fill: none; stroke: #313131; stroke-width: 1.75; stroke-linecap: round"/>
   </g>
   <g id="line2d_28">
    <path d="M 406.8 296.199433 
L 406.8 278.349094 
" clip-path="url(#p11c2ff9120)" style="fill: none; stroke: #313131; stroke-width: 5.25; stroke-linecap: round"/>
   </g>
   <g id="line2d_29">
    <path d="M 481.2 320.080462 
L 481.2 243.772974 
" clip-path="url(#p11c2ff9120)" style="fill: none; stroke: #313131; stroke-width: 1.75; stroke-linecap: round"/>
   </g>
   <g id="line2d_30">
    <path d="M 481.2 296.267493 
L 481.2 275.26196 
" clip-path="url(#p11c2ff9120)" style="fill: none; stroke: #313131; stroke-width: 5.25; stroke-linecap: round"/>
   </g>
   <g id="line2d_31">
    <path d="M 72 300.661916 
L 518.4 300.661916 
" clip-path="url(#p11c2ff9120)" style="fill: none; stroke-dasharray: 6.475,2.8; stroke-dashoffset: 0; stroke: #ff0000; stroke-width: 1.75"/>
   </g>
   <g id="patch_3">
    <path d="M 72 346.5 
L 72 47.52 
" style="fill: none; stroke: #cccccc; stroke-width: 1.25; stroke-linejoin: miter; stroke-linecap: square"/>
   </g>
   <g id="patch_4">
    <path d="M 518.4 346.5 
L 518.4 47.52 
" style="fill: none; stroke: #cccccc; stroke-width: 1.25; stroke-linejoin: miter; stroke-linecap: square"/>
   </g>
   <g id="patch_5">
    <path d="M 72 346.5 
L 518.4 346.5 
" style="fill: none; stroke: #cccccc; stroke-width: 1.25; stroke-linejoin: miter; stroke-linecap: square"/>
   </g>
   <g id="patch_6">
    <path d="M 72 47.52 
L 518.4 47.52 
" style="fill: none; stroke: #cccccc; stroke-width: 1.25; stroke-linejoin: miter; stroke-linecap: square"/>
   </g>
   <g id="PathCollection_1">
    <defs>
     <path id="m873da16ebe" d="M 0 1.75 
C 0.464105 1.75 0.909265 1.565609 1.237437 1.237437 
C 1.565609 0.909265 1.75 0.464105 1.75 0 
C 1.75 -0.464105 1.565609 -0.909265 1.237437 -1.237437 
C 0.909265 -1.565609 0.464105 -1.75 0 -1.75 
C -0.464105 -1.75 -0.909265 -1.565609 -1.237437 -1.237437 
C -1.565609 -0.909265 -1.75 -0.464105 -1.75 0 
C -1.75 0.464105 -1.565609 0.909265 -1.237437 1.237437 
C -0.909265 1.565609 -0.464105 1.75 0 1.75 
z
" style="stroke: #313131; stroke-width: 0.3"/>
    </defs>
    <g clip-path="url(#p11c2ff9120)">
     <use xlink:href="#m873da16ebe" x="109.2" y="292.280807" style="fill: #ffffff; stroke: #313131; stroke-width: 0.3"/>
    </g>
   </g>
   <g id="PathCollection_2">
    <g clip-path="url(#p11c2ff9120)">
     <use xlink:href="#m873da16ebe" x="183.6" y="298.727038" style="fill: #ffffff; stroke: #313131; stroke-width: 0.3"/>
    </g>
   </g>
   <g id="PathCollection_3">
    <g clip-path="url(#p11c2ff9120)">
     <use xlink:href="#m873da16ebe" x="258" y="300.124722" style="fill: #ffffff; stroke: #313131; stroke-width: 0.3"/>
    </g>
   </g>
   <g id="PathCollection_4">
    <g clip-path="url(#p11c2ff9120)">
     <use xlink:href="#m873da16ebe" x="332.4" y="287.702819" style="fill: #ffffff; stroke: #313131; stroke-width: 0.3"/>
    </g>
   </g>
   <g id="PathCollection_5">
    <g clip-path="url(#p11c2ff9120)">
     <use xlink:href="#m873da16ebe" x="406.8" y="288.337594" style="fill: #ffffff; stroke: #313131; stroke-width: 0.3"/>
    </g>
   </g>
   <g id="PathCollection_6">
    <g clip-path="url(#p11c2ff9120)">
     <use xlink:href="#m873da16ebe" x="481.2" y="287.086962" style="fill: #ffffff; stroke: #313131; stroke-width: 0.3"/>
    </g>
   </g>
   <g id="text_15">
    <!-- Volume Comparison Vol_Edasi / Vol_Farinotti against Zmax -->
    <g style="fill: #262626" transform="translate(136.791562 41.52)scale(0.12 -0.12)">
     <defs>
      <path id="LiberationSans-75" d="M 981 3381 
L 981 1238 
Q 981 903 1047 718 
Q 1113 534 1256 453 
Q 1400 372 1678 372 
Q 2084 372 2318 650 
Q 2553 928 2553 1422 
L 2553 3381 
L 3116 3381 
L 3116 722 
Q 3116 131 3134 0 
L 2603 0 
Q 2600 16 2597 84 
Q 2594 153 2589 242 
Q 2584 331 2578 578 
L 2569 578 
Q 2375 228 2120 82 
Q 1866 -63 1488 -63 
Q 931 -63 673 214 
Q 416 491 416 1128 
L 416 3381 
L 981 3381 
z
" transform="scale(0.015625)"/>
      <path id="LiberationSans-65" d="M 863 1572 
Q 863 991 1103 675 
Q 1344 359 1806 359 
Q 2172 359 2392 506 
Q 2613 653 2691 878 
L 3184 738 
Q 2881 -63 1806 -63 
Q 1056 -63 664 384 
Q 272 831 272 1713 
Q 272 2550 664 2997 
Q 1056 3444 1784 3444 
Q 3275 3444 3275 1647 
L 3275 1572 
L 863 1572 
z
M 2694 2003 
Q 2647 2538 2422 2783 
Q 2197 3028 1775 3028 
Q 1366 3028 1127 2754 
Q 888 2481 869 2003 
L 2694 2003 
z
" transform="scale(0.015625)"/>
      <path id="LiberationSans-43" d="M 2475 3981 
Q 1744 3981 1337 3511 
Q 931 3041 931 2222 
Q 931 1413 1354 920 
Q 1778 428 2500 428 
Q 3425 428 3891 1344 
L 4378 1100 
Q 4106 531 3614 234 
Q 3122 -63 2472 -63 
Q 1806 -63 1320 214 
Q 834 491 579 1005 
Q 325 1519 325 2222 
Q 325 3275 894 3872 
Q 1463 4469 2469 4469 
Q 3172 4469 3644 4194 
Q 4116 3919 4338 3378 
L 3772 3191 
Q 3619 3575 3280 3778 
Q 2941 3981 2475 3981 
z
" transform="scale(0.015625)"/>
      <path id="LiberationSans-70" d="M 3291 1706 
Q 3291 -63 2047 -63 
Q 1266 -63 997 525 
L 981 525 
Q 994 500 994 -6 
L 994 -1328 
L 431 -1328 
L 431 2691 
Q 431 3213 413 3381 
L 956 3381 
Q 959 3369 965 3292 
Q 972 3216 980 3056 
Q 988 2897 988 2838 
L 1000 2838 
Q 1150 3150 1397 3295 
Q 1644 3441 2047 3441 
Q 2672 3441 2981 3022 
Q 3291 2603 3291 1706 
z
M 2700 1694 
Q 2700 2400 2509 2703 
Q 2319 3006 1903 3006 
Q 1569 3006 1380 2865 
Q 1191 2725 1092 2426 
Q 994 2128 994 1650 
Q 994 984 1206 668 
Q 1419 353 1897 353 
Q 2316 353 2508 661 
Q 2700 969 2700 1694 
z
" transform="scale(0.015625)"/>
      <path id="LiberationSans-67" d="M 1713 -1328 
Q 1159 -1328 831 -1111 
Q 503 -894 409 -494 
L 975 -413 
Q 1031 -647 1223 -773 
Q 1416 -900 1728 -900 
Q 2569 -900 2569 84 
L 2569 628 
L 2563 628 
Q 2403 303 2125 139 
Q 1847 -25 1475 -25 
Q 853 -25 561 387 
Q 269 800 269 1684 
Q 269 2581 583 3007 
Q 897 3434 1538 3434 
Q 1897 3434 2161 3270 
Q 2425 3106 2569 2803 
L 2575 2803 
Q 2575 2897 2587 3128 
Q 2600 3359 2613 3381 
L 3147 3381 
Q 3128 3213 3128 2681 
L 3128 97 
Q 3128 -1328 1713 -1328 
z
M 2569 1691 
Q 2569 2103 2456 2401 
Q 2344 2700 2139 2858 
Q 1934 3016 1675 3016 
Q 1244 3016 1047 2703 
Q 850 2391 850 1691 
Q 850 997 1034 694 
Q 1219 391 1666 391 
Q 1931 391 2137 547 
Q 2344 703 2456 995 
Q 2569 1288 2569 1691 
z
" transform="scale(0.015625)"/>
     </defs>
     <use xlink:href="#LiberationSans-56"/>
     <use xlink:href="#LiberationSans-6f" x="61.199219"/>
     <use xlink:href="#LiberationSans-6c" x="116.814453"/>
     <use xlink:href="#LiberationSans-75" x="139.03125"/>
     <use xlink:href="#LiberationSans-6d" x="194.646484"/>
     <use xlink:href="#LiberationSans-65" x="277.947266"/>
     <use xlink:href="#LiberationSans-20" x="333.5625"/>
     <use xlink:href="#LiberationSans-43" x="361.345703"/>
     <use xlink:href="#LiberationSans-6f" x="433.5625"/>
     <use xlink:href="#LiberationSans-6d" x="489.177734"/>
     <use xlink:href="#LiberationSans-70" x="572.478516"/>
     <use xlink:href="#LiberationSans-61" x="628.09375"/>
     <use xlink:href="#LiberationSans-72" x="683.708984"/>
     <use xlink:href="#LiberationSans-69" x="717.009766"/>
     <use xlink:href="#LiberationSans-73" x="739.226562"/>
     <use xlink:href="#LiberationSans-6f" x="789.226562"/>
     <use xlink:href="#LiberationSans-6e" x="844.841797"/>
     <use xlink:href="#LiberationSans-20" x="900.457031"/>
     <use xlink:href="#LiberationSans-56" x="928.240234"/>
     <use xlink:href="#LiberationSans-6f" x="989.439453"/>
     <use xlink:href="#LiberationSans-6c" x="1045.054688"/>
     <use xlink:href="#LiberationSans-5f" x="1067.271484"/>
     <use xlink:href="#LiberationSans-45" x="1122.886719"/>
     <use xlink:href="#LiberationSans-64" x="1189.585938"/>
     <use xlink:href="#LiberationSans-61" x="1245.201172"/>
     <use xlink:href="#LiberationSans-73" x="1300.816406"/>
     <use xlink:href="#LiberationSans-69" x="1350.816406"/>
     <use xlink:href="#LiberationSans-20" x="1373.033203"/>
     <use xlink:href="#LiberationSans-2f" x="1400.816406"/>
     <use xlink:href="#LiberationSans-20" x="1428.599609"/>
     <use xlink:href="#LiberationSans-56" x="1456.382812"/>
     <use xlink:href="#LiberationSans-6f" x="1517.582031"/>
     <use xlink:href="#LiberationSans-6c" x="1573.197266"/>
     <use xlink:href="#LiberationSans-5f" x="1595.414062"/>
     <use xlink:href="#LiberationSans-46" x="1651.029297"/>
     <use xlink:href="#LiberationSans-61" x="1712.113281"/>
     <use xlink:href="#LiberationSans-72" x="1767.728516"/>
     <use xlink:href="#LiberationSans-69" x="1801.029297"/>
     <use xlink:href="#LiberationSans-6e" x="1823.246094"/>
     <use xlink:href="#LiberationSans-6f" x="1878.861328"/>
     <use xlink:href="#LiberationSans-74" x="1934.476562"/>
     <use xlink:href="#LiberationSans-74" x="1962.259766"/>
     <use xlink:href="#LiberationSans-69" x="1990.042969"/>
     <use xlink:href="#LiberationSans-20" x="2012.259766"/>
     <use xlink:href="#LiberationSans-61" x="2040.042969"/>
     <use xlink:href="#LiberationSans-67" x="2095.658203"/>
     <use xlink:href="#LiberationSans-61" x="2151.273438"/>
     <use xlink:href="#LiberationSans-69" x="2206.888672"/>
     <use xlink:href="#LiberationSans-6e" x="2229.105469"/>
     <use xlink:href="#LiberationSans-73" x="2284.720703"/>
     <use xlink:href="#LiberationSans-74" x="2334.720703"/>
     <use xlink:href="#LiberationSans-20" x="2362.503906"/>
     <use xlink:href="#LiberationSans-5a" x="2390.287109"/>
     <use xlink:href="#LiberationSans-6d" x="2451.371094"/>
     <use xlink:href="#LiberationSans-61" x="2534.671875"/>
     <use xlink:href="#LiberationSans-78" x="2590.287109"/>
    </g>
   </g>
  </g>
 </g>
 <defs>
  <clipPath id="p11c2ff9120">
   <rect x="72" y="47.52" width="446.4" height="298.98"/>
  </clipPath>
 </defs>
</svg>
