<?xml version="1.0" encoding="utf-8" standalone="no"?>
<!DOCTYPE svg PUBLIC "-//W3C//DTD SVG 1.1//EN"
  "http://www.w3.org/Graphics/SVG/1.1/DTD/svg11.dtd">
<svg xmlns:xlink="http://www.w3.org/1999/xlink" width="576pt" height="396pt" viewBox="0 0 576 396" xmlns="http://www.w3.org/2000/svg" version="1.1">
 <metadata>
  <rdf:RDF xmlns:dc="http://purl.org/dc/elements/1.1/" xmlns:cc="http://creativecommons.org/ns#" xmlns:rdf="http://www.w3.org/1999/02/22-rdf-syntax-ns#">
   <cc:Work>
    <dc:type rdf:resource="http://purl.org/dc/dcmitype/StillImage"/>
    <dc:date>2022-10-31T10:07:51.352762</dc:date>
    <dc:format>image/svg+xml</dc:format>
    <dc:creator>
     <cc:Agent>
      <dc:title>Matplotlib v3.5.0, https://matplotlib.org/</dc:title>
     </cc:Agent>
    </dc:creator>
   </cc:Work>
  </rdf:RDF>
 </metadata>
 <defs>
  <style type="text/css">*{stroke-linejoin: round; stroke-linecap: butt}</style>
 </defs>
 <g id="figure_1">
  <g id="patch_1">
   <path d="M 0 396 
L 576 396 
L 576 0 
L 0 0 
z
" style="fill: #ffffff"/>
  </g>
  <g id="axes_1">
   <g id="patch_2">
    <path d="M 72 346.5 
L 518.4 346.5 
L 518.4 47.52 
L 72 47.52 
z
" style="fill: #ffffff"/>
   </g>
   <g id="matplotlib.axis_1">
    <g id="xtick_1">
     <g id="line2d_1"/>
     <g id="text_1">
      <!-- 0-1000 -->
      <g style="fill: #262626" transform="translate(93.632812 360.746875)scale(0.1 -0.1)">
       <defs>
        <path id="LiberationSans-30" d="M 3309 2203 
Q 3309 1100 2920 518 
Q 2531 -63 1772 -63 
Q 1013 -63 631 515 
Q 250 1094 250 2203 
Q 250 3338 620 3903 
Q 991 4469 1791 4469 
Q 2569 4469 2939 3897 
Q 3309 3325 3309 2203 
z
M 2738 2203 
Q 2738 3156 2517 3584 
Q 2297 4013 1791 4013 
Q 1272 4013 1045 3591 
Q 819 3169 819 2203 
Q 819 1266 1048 831 
Q 1278 397 1778 397 
Q 2275 397 2506 840 
Q 2738 1284 2738 2203 
z
" transform="scale(0.015625)"/>
        <path id="LiberationSans-2d" d="M 284 1450 
L 284 1950 
L 1847 1950 
L 1847 1450 
L 284 1450 
z
" transform="scale(0.015625)"/>
        <path id="LiberationSans-31" d="M 488 0 
L 488 478 
L 1609 478 
L 1609 3866 
L 616 3156 
L 616 3688 
L 1656 4403 
L 2175 4403 
L 2175 478 
L 3247 478 
L 3247 0 
L 488 0 
z
" transform="scale(0.015625)"/>
       </defs>
       <use xlink:href="#LiberationSans-30"/>
       <use xlink:href="#LiberationSans-2d" x="55.615234"/>
       <use xlink:href="#LiberationSans-31" x="88.916016"/>
       <use xlink:href="#LiberationSans-30" x="144.53125"/>
       <use xlink:href="#LiberationSans-30" x="200.146484"/>
       <use xlink:href="#LiberationSans-30" x="255.761719"/>
      </g>
     </g>
    </g>
    <g id="xtick_2">
     <g id="line2d_2"/>
     <g id="text_2">
      <!-- 1000-2000 -->
      <g style="fill: #262626" transform="translate(159.691406 360.746875)scale(0.1 -0.1)">
       <defs>
        <path id="LiberationSans-32" d="M 322 0 
L 322 397 
Q 481 763 711 1042 
Q 941 1322 1194 1548 
Q 1447 1775 1695 1969 
Q 1944 2163 2144 2356 
Q 2344 2550 2467 2762 
Q 2591 2975 2591 3244 
Q 2591 3606 2378 3806 
Q 2166 4006 1788 4006 
Q 1428 4006 1195 3811 
Q 963 3616 922 3263 
L 347 3316 
Q 409 3844 795 4156 
Q 1181 4469 1788 4469 
Q 2453 4469 2811 4155 
Q 3169 3841 3169 3263 
Q 3169 3006 3051 2753 
Q 2934 2500 2703 2247 
Q 2472 1994 1819 1463 
Q 1459 1169 1246 933 
Q 1034 697 941 478 
L 3238 478 
L 3238 0 
L 322 0 
z
" transform="scale(0.015625)"/>
       </defs>
       <use xlink:href="#LiberationSans-31"/>
       <use xlink:href="#LiberationSans-30" x="55.615234"/>
       <use xlink:href="#LiberationSans-30" x="111.230469"/>
       <use xlink:href="#LiberationSans-30" x="166.845703"/>
       <use xlink:href="#LiberationSans-2d" x="222.460938"/>
       <use xlink:href="#LiberationSans-32" x="255.761719"/>
       <use xlink:href="#LiberationSans-30" x="311.376953"/>
       <use xlink:href="#LiberationSans-30" x="366.992188"/>
       <use xlink:href="#LiberationSans-30" x="422.607422"/>
      </g>
     </g>
    </g>
    <g id="xtick_3">
     <g id="line2d_3"/>
     <g id="text_3">
      <!-- 2000-3000 -->
      <g style="fill: #262626" transform="translate(234.091406 360.746875)scale(0.1 -0.1)">
       <defs>
        <path id="LiberationSans-33" d="M 3278 1216 
Q 3278 606 2890 271 
Q 2503 -63 1784 -63 
Q 1116 -63 717 239 
Q 319 541 244 1131 
L 825 1184 
Q 938 403 1784 403 
Q 2209 403 2451 612 
Q 2694 822 2694 1234 
Q 2694 1594 2417 1795 
Q 2141 1997 1619 1997 
L 1300 1997 
L 1300 2484 
L 1606 2484 
Q 2069 2484 2323 2686 
Q 2578 2888 2578 3244 
Q 2578 3597 2370 3801 
Q 2163 4006 1753 4006 
Q 1381 4006 1151 3815 
Q 922 3625 884 3278 
L 319 3322 
Q 381 3863 767 4166 
Q 1153 4469 1759 4469 
Q 2422 4469 2789 4161 
Q 3156 3853 3156 3303 
Q 3156 2881 2920 2617 
Q 2684 2353 2234 2259 
L 2234 2247 
Q 2728 2194 3003 1916 
Q 3278 1638 3278 1216 
z
" transform="scale(0.015625)"/>
       </defs>
       <use xlink:href="#LiberationSans-32"/>
       <use xlink:href="#LiberationSans-30" x="55.615234"/>
       <use xlink:href="#LiberationSans-30" x="111.230469"/>
       <use xlink:href="#LiberationSans-30" x="166.845703"/>
       <use xlink:href="#LiberationSans-2d" x="222.460938"/>
       <use xlink:href="#LiberationSans-33" x="255.761719"/>
       <use xlink:href="#LiberationSans-30" x="311.376953"/>
       <use xlink:href="#LiberationSans-30" x="366.992188"/>
       <use xlink:href="#LiberationSans-30" x="422.607422"/>
      </g>
     </g>
    </g>
    <g id="xtick_4">
     <g id="line2d_4"/>
     <g id="text_4">
      <!-- 3000-4000 -->
      <g style="fill: #262626" transform="translate(308.491406 360.746875)scale(0.1 -0.1)">
       <defs>
        <path id="LiberationSans-34" d="M 2753 997 
L 2753 0 
L 2222 0 
L 2222 997 
L 147 997 
L 147 1434 
L 2163 4403 
L 2753 4403 
L 2753 1441 
L 3372 1441 
L 3372 997 
L 2753 997 
z
M 2222 3769 
Q 2216 3750 2134 3603 
Q 2053 3456 2013 3397 
L 884 1734 
L 716 1503 
L 666 1441 
L 2222 1441 
L 2222 3769 
z
" transform="scale(0.015625)"/>
       </defs>
       <use xlink:href="#LiberationSans-33"/>
       <use xlink:href="#LiberationSans-30" x="55.615234"/>
       <use xlink:href="#LiberationSans-30" x="111.230469"/>
       <use xlink:href="#LiberationSans-30" x="166.845703"/>
       <use xlink:href="#LiberationSans-2d" x="222.460938"/>
       <use xlink:href="#LiberationSans-34" x="255.761719"/>
       <use xlink:href="#LiberationSans-30" x="311.376953"/>
       <use xlink:href="#LiberationSans-30" x="366.992188"/>
       <use xlink:href="#LiberationSans-30" x="422.607422"/>
      </g>
     </g>
    </g>
    <g id="xtick_5">
     <g id="line2d_5"/>
     <g id="text_5">
      <!-- 4000-5000 -->
      <g style="fill: #262626" transform="translate(382.891406 360.746875)scale(0.1 -0.1)">
       <defs>
        <path id="LiberationSans-35" d="M 3291 1434 
Q 3291 738 2877 337 
Q 2463 -63 1728 -63 
Q 1113 -63 734 206 
Q 356 475 256 984 
L 825 1050 
Q 1003 397 1741 397 
Q 2194 397 2450 670 
Q 2706 944 2706 1422 
Q 2706 1838 2448 2094 
Q 2191 2350 1753 2350 
Q 1525 2350 1328 2278 
Q 1131 2206 934 2034 
L 384 2034 
L 531 4403 
L 3034 4403 
L 3034 3925 
L 1044 3925 
L 959 2528 
Q 1325 2809 1869 2809 
Q 2519 2809 2905 2428 
Q 3291 2047 3291 1434 
z
" transform="scale(0.015625)"/>
       </defs>
       <use xlink:href="#LiberationSans-34"/>
       <use xlink:href="#LiberationSans-30" x="55.615234"/>
       <use xlink:href="#LiberationSans-30" x="111.230469"/>
       <use xlink:href="#LiberationSans-30" x="166.845703"/>
       <use xlink:href="#LiberationSans-2d" x="222.460938"/>
       <use xlink:href="#LiberationSans-35" x="255.761719"/>
       <use xlink:href="#LiberationSans-30" x="311.376953"/>
       <use xlink:href="#LiberationSans-30" x="366.992188"/>
       <use xlink:href="#LiberationSans-30" x="422.607422"/>
      </g>
     </g>
    </g>
    <g id="xtick_6">
     <g id="line2d_6"/>
     <g id="text_6">
      <!-- 5000-6000 -->
      <g style="fill: #262626" transform="translate(457.291406 360.746875)scale(0.1 -0.1)">
       <defs>
        <path id="LiberationSans-36" d="M 3278 1441 
Q 3278 744 2900 340 
Q 2522 -63 1856 -63 
Q 1113 -63 719 490 
Q 325 1044 325 2100 
Q 325 3244 734 3856 
Q 1144 4469 1900 4469 
Q 2897 4469 3156 3572 
L 2619 3475 
Q 2453 4013 1894 4013 
Q 1413 4013 1148 3564 
Q 884 3116 884 2266 
Q 1038 2550 1316 2698 
Q 1594 2847 1953 2847 
Q 2563 2847 2920 2465 
Q 3278 2084 3278 1441 
z
M 2706 1416 
Q 2706 1894 2472 2153 
Q 2238 2413 1819 2413 
Q 1425 2413 1183 2183 
Q 941 1953 941 1550 
Q 941 1041 1192 716 
Q 1444 391 1838 391 
Q 2244 391 2475 664 
Q 2706 938 2706 1416 
z
" transform="scale(0.015625)"/>
       </defs>
       <use xlink:href="#LiberationSans-35"/>
       <use xlink:href="#LiberationSans-30" x="55.615234"/>
       <use xlink:href="#LiberationSans-30" x="111.230469"/>
       <use xlink:href="#LiberationSans-30" x="166.845703"/>
       <use xlink:href="#LiberationSans-2d" x="222.460938"/>
       <use xlink:href="#LiberationSans-36" x="255.761719"/>
       <use xlink:href="#LiberationSans-30" x="311.376953"/>
       <use xlink:href="#LiberationSans-30" x="366.992188"/>
       <use xlink:href="#LiberationSans-30" x="422.607422"/>
      </g>
     </g>
    </g>
    <g id="text_7">
     <!-- Zmed (m) -->
     <g style="fill: #262626" transform="translate(271.370391 374.793437)scale(0.11 -0.11)">
      <defs>
       <path id="LiberationSans-5a" d="M 3709 0 
L 203 0 
L 203 447 
L 2884 3916 
L 431 3916 
L 431 4403 
L 3563 4403 
L 3563 3969 
L 881 488 
L 3709 488 
L 3709 0 
z
" transform="scale(0.015625)"/>
       <path id="LiberationSans-6d" d="M 2400 0 
L 2400 2144 
Q 2400 2634 2265 2821 
Q 2131 3009 1781 3009 
Q 1422 3009 1212 2734 
Q 1003 2459 1003 1959 
L 1003 0 
L 444 0 
L 444 2659 
Q 444 3250 425 3381 
L 956 3381 
Q 959 3366 962 3297 
Q 966 3228 970 3139 
Q 975 3050 981 2803 
L 991 2803 
Q 1172 3163 1406 3303 
Q 1641 3444 1978 3444 
Q 2363 3444 2586 3291 
Q 2809 3138 2897 2803 
L 2906 2803 
Q 3081 3144 3329 3294 
Q 3578 3444 3931 3444 
Q 4444 3444 4676 3166 
Q 4909 2888 4909 2253 
L 4909 0 
L 4353 0 
L 4353 2144 
Q 4353 2634 4218 2821 
Q 4084 3009 3734 3009 
Q 3366 3009 3161 2736 
Q 2956 2463 2956 1959 
L 2956 0 
L 2400 0 
z
" transform="scale(0.015625)"/>
       <path id="LiberationSans-65" d="M 863 1572 
Q 863 991 1103 675 
Q 1344 359 1806 359 
Q 2172 359 2392 506 
Q 2613 653 2691 878 
L 3184 738 
Q 2881 -63 1806 -63 
Q 1056 -63 664 384 
Q 272 831 272 1713 
Q 272 2550 664 2997 
Q 1056 3444 1784 3444 
Q 3275 3444 3275 1647 
L 3275 1572 
L 863 1572 
z
M 2694 2003 
Q 2647 2538 2422 2783 
Q 2197 3028 1775 3028 
Q 1366 3028 1127 2754 
Q 888 2481 869 2003 
L 2694 2003 
z
" transform="scale(0.015625)"/>
       <path id="LiberationSans-64" d="M 2566 544 
Q 2409 219 2151 78 
Q 1894 -63 1513 -63 
Q 872 -63 570 368 
Q 269 800 269 1675 
Q 269 3444 1513 3444 
Q 1897 3444 2153 3303 
Q 2409 3163 2566 2856 
L 2572 2856 
L 2566 3234 
L 2566 4638 
L 3128 4638 
L 3128 697 
Q 3128 169 3147 0 
L 2609 0 
Q 2600 50 2589 231 
Q 2578 413 2578 544 
L 2566 544 
z
M 859 1694 
Q 859 984 1046 678 
Q 1234 372 1656 372 
Q 2134 372 2350 703 
Q 2566 1034 2566 1731 
Q 2566 2403 2350 2715 
Q 2134 3028 1663 3028 
Q 1238 3028 1048 2714 
Q 859 2400 859 1694 
z
" transform="scale(0.015625)"/>
       <path id="LiberationSans-20" transform="scale(0.015625)"/>
       <path id="LiberationSans-28" d="M 397 1663 
Q 397 2566 680 3284 
Q 963 4003 1550 4638 
L 2094 4638 
Q 1509 3988 1236 3256 
Q 963 2525 963 1656 
Q 963 791 1233 62 
Q 1503 -666 2094 -1325 
L 1550 -1325 
Q 959 -688 678 32 
Q 397 753 397 1650 
L 397 1663 
z
" transform="scale(0.015625)"/>
       <path id="LiberationSans-29" d="M 1734 1650 
Q 1734 747 1451 28 
Q 1169 -691 581 -1325 
L 38 -1325 
Q 625 -669 897 57 
Q 1169 784 1169 1656 
Q 1169 2528 895 3256 
Q 622 3984 38 4638 
L 581 4638 
Q 1172 4000 1453 3279 
Q 1734 2559 1734 1663 
L 1734 1650 
z
" transform="scale(0.015625)"/>
      </defs>
      <use xlink:href="#LiberationSans-5a"/>
      <use xlink:href="#LiberationSans-6d" x="61.083984"/>
      <use xlink:href="#LiberationSans-65" x="144.384766"/>
      <use xlink:href="#LiberationSans-64" x="200"/>
      <use xlink:href="#LiberationSans-20" x="255.615234"/>
      <use xlink:href="#LiberationSans-28" x="283.398438"/>
      <use xlink:href="#LiberationSans-6d" x="316.699219"/>
      <use xlink:href="#LiberationSans-29" x="400"/>
     </g>
    </g>
   </g>
   <g id="matplotlib.axis_2">
    <g id="ytick_1">
     <g id="line2d_7">
      <path d="M 72 328.723406 
L 518.4 328.723406 
" clip-path="url(#p0b28aecb0d)" style="fill: none; stroke: #cccccc; stroke-linecap: round"/>
     </g>
     <g id="line2d_8"/>
     <g id="text_8">
      <!-- 0 -->
      <g style="fill: #262626" transform="translate(59.439062 332.346844)scale(0.1 -0.1)">
       <use xlink:href="#LiberationSans-30"/>
      </g>
     </g>
    </g>
    <g id="ytick_2">
     <g id="line2d_9">
      <path d="M 72 274.669277 
L 518.4 274.669277 
" clip-path="url(#p0b28aecb0d)" style="fill: none; stroke: #cccccc; stroke-linecap: round"/>
     </g>
     <g id="line2d_10"/>
     <g id="text_9">
      <!-- 2 -->
      <g style="fill: #262626" transform="translate(59.439062 278.292715)scale(0.1 -0.1)">
       <use xlink:href="#LiberationSans-32"/>
      </g>
     </g>
    </g>
    <g id="ytick_3">
     <g id="line2d_11">
      <path d="M 72 220.615148 
L 518.4 220.615148 
" clip-path="url(#p0b28aecb0d)" style="fill: none; stroke: #cccccc; stroke-linecap: round"/>
     </g>
     <g id="line2d_12"/>
     <g id="text_10">
      <!-- 4 -->
      <g style="fill: #262626" transform="translate(59.439062 224.238586)scale(0.1 -0.1)">
       <use xlink:href="#LiberationSans-34"/>
      </g>
     </g>
    </g>
    <g id="ytick_4">
     <g id="line2d_13">
      <path d="M 72 166.561019 
L 518.4 166.561019 
" clip-path="url(#p0b28aecb0d)" style="fill: none; stroke: #cccccc; stroke-linecap: round"/>
     </g>
     <g id="line2d_14"/>
     <g id="text_11">
      <!-- 6 -->
      <g style="fill: #262626" transform="translate(59.439062 170.184457)scale(0.1 -0.1)">
       <use xlink:href="#LiberationSans-36"/>
      </g>
     </g>
    </g>
    <g id="ytick_5">
     <g id="line2d_15">
      <path d="M 72 112.50689 
L 518.4 112.50689 
" clip-path="url(#p0b28aecb0d)" style="fill: none; stroke: #cccccc; stroke-linecap: round"/>
     </g>
     <g id="line2d_16"/>
     <g id="text_12">
      <!-- 8 -->
      <g style="fill: #262626" transform="translate(59.439062 116.130328)scale(0.1 -0.1)">
       <defs>
        <path id="LiberationSans-38" d="M 3281 1228 
Q 3281 619 2893 278 
Q 2506 -63 1781 -63 
Q 1075 -63 676 271 
Q 278 606 278 1222 
Q 278 1653 525 1947 
Q 772 2241 1156 2303 
L 1156 2316 
Q 797 2400 589 2681 
Q 381 2963 381 3341 
Q 381 3844 757 4156 
Q 1134 4469 1769 4469 
Q 2419 4469 2795 4162 
Q 3172 3856 3172 3334 
Q 3172 2956 2962 2675 
Q 2753 2394 2391 2322 
L 2391 2309 
Q 2813 2241 3047 1952 
Q 3281 1663 3281 1228 
z
M 2588 3303 
Q 2588 4050 1769 4050 
Q 1372 4050 1164 3862 
Q 956 3675 956 3303 
Q 956 2925 1170 2726 
Q 1384 2528 1775 2528 
Q 2172 2528 2380 2711 
Q 2588 2894 2588 3303 
z
M 2697 1281 
Q 2697 1691 2453 1898 
Q 2209 2106 1769 2106 
Q 1341 2106 1100 1882 
Q 859 1659 859 1269 
Q 859 359 1788 359 
Q 2247 359 2472 579 
Q 2697 800 2697 1281 
z
" transform="scale(0.015625)"/>
       </defs>
       <use xlink:href="#LiberationSans-38"/>
      </g>
     </g>
    </g>
    <g id="ytick_6">
     <g id="line2d_17">
      <path d="M 72 58.452761 
L 518.4 58.452761 
" clip-path="url(#p0b28aecb0d)" style="fill: none; stroke: #cccccc; stroke-linecap: round"/>
     </g>
     <g id="line2d_18"/>
     <g id="text_13">
      <!-- 10 -->
      <g style="fill: #262626" transform="translate(53.878125 62.076199)scale(0.1 -0.1)">
       <use xlink:href="#LiberationSans-31"/>
       <use xlink:href="#LiberationSans-30" x="55.615234"/>
      </g>
     </g>
    </g>
    <g id="text_14">
     <!-- Vol_Edasi / Vol_Farinotti -->
     <g style="fill: #262626" transform="translate(47.595625 256.628281)rotate(-90)scale(0.11 -0.11)">
      <defs>
       <path id="LiberationSans-56" d="M 2444 0 
L 1825 0 
L 28 4403 
L 656 4403 
L 1875 1303 
L 2138 525 
L 2400 1303 
L 3613 4403 
L 4241 4403 
L 2444 0 
z
" transform="scale(0.015625)"/>
       <path id="LiberationSans-6f" d="M 3291 1694 
Q 3291 806 2900 371 
Q 2509 -63 1766 -63 
Q 1025 -63 647 389 
Q 269 841 269 1694 
Q 269 3444 1784 3444 
Q 2559 3444 2925 3017 
Q 3291 2591 3291 1694 
z
M 2700 1694 
Q 2700 2394 2492 2711 
Q 2284 3028 1794 3028 
Q 1300 3028 1079 2704 
Q 859 2381 859 1694 
Q 859 1025 1076 689 
Q 1294 353 1759 353 
Q 2266 353 2483 678 
Q 2700 1003 2700 1694 
z
" transform="scale(0.015625)"/>
       <path id="LiberationSans-6c" d="M 431 0 
L 431 4638 
L 994 4638 
L 994 0 
L 431 0 
z
" transform="scale(0.015625)"/>
       <path id="LiberationSans-5f" d="M -97 -1272 
L -97 -866 
L 3631 -866 
L 3631 -1272 
L -97 -1272 
z
" transform="scale(0.015625)"/>
       <path id="LiberationSans-45" d="M 525 0 
L 525 4403 
L 3866 4403 
L 3866 3916 
L 1122 3916 
L 1122 2503 
L 3678 2503 
L 3678 2022 
L 1122 2022 
L 1122 488 
L 3994 488 
L 3994 0 
L 525 0 
z
" transform="scale(0.015625)"/>
       <path id="LiberationSans-61" d="M 1294 -63 
Q 784 -63 528 206 
Q 272 475 272 944 
Q 272 1469 617 1750 
Q 963 2031 1731 2050 
L 2491 2063 
L 2491 2247 
Q 2491 2659 2316 2837 
Q 2141 3016 1766 3016 
Q 1388 3016 1216 2887 
Q 1044 2759 1009 2478 
L 422 2531 
Q 566 3444 1778 3444 
Q 2416 3444 2737 3151 
Q 3059 2859 3059 2306 
L 3059 850 
Q 3059 600 3125 473 
Q 3191 347 3375 347 
Q 3456 347 3559 369 
L 3559 19 
Q 3347 -31 3125 -31 
Q 2813 -31 2670 133 
Q 2528 297 2509 647 
L 2491 647 
Q 2275 259 1989 98 
Q 1703 -63 1294 -63 
z
M 1422 359 
Q 1731 359 1972 500 
Q 2213 641 2352 886 
Q 2491 1131 2491 1391 
L 2491 1669 
L 1875 1656 
Q 1478 1650 1273 1575 
Q 1069 1500 959 1344 
Q 850 1188 850 934 
Q 850 659 998 509 
Q 1147 359 1422 359 
z
" transform="scale(0.015625)"/>
       <path id="LiberationSans-73" d="M 2969 934 
Q 2969 456 2608 196 
Q 2247 -63 1597 -63 
Q 966 -63 623 145 
Q 281 353 178 794 
L 675 891 
Q 747 619 972 492 
Q 1197 366 1597 366 
Q 2025 366 2223 497 
Q 2422 628 2422 891 
Q 2422 1091 2284 1216 
Q 2147 1341 1841 1422 
L 1438 1528 
Q 953 1653 748 1773 
Q 544 1894 428 2066 
Q 313 2238 313 2488 
Q 313 2950 642 3192 
Q 972 3434 1603 3434 
Q 2163 3434 2492 3237 
Q 2822 3041 2909 2606 
L 2403 2544 
Q 2356 2769 2151 2889 
Q 1947 3009 1603 3009 
Q 1222 3009 1040 2893 
Q 859 2778 859 2544 
Q 859 2400 934 2306 
Q 1009 2213 1156 2147 
Q 1303 2081 1775 1966 
Q 2222 1853 2419 1758 
Q 2616 1663 2730 1547 
Q 2844 1431 2906 1279 
Q 2969 1128 2969 934 
z
" transform="scale(0.015625)"/>
       <path id="LiberationSans-69" d="M 428 4100 
L 428 4638 
L 991 4638 
L 991 4100 
L 428 4100 
z
M 428 0 
L 428 3381 
L 991 3381 
L 991 0 
L 428 0 
z
" transform="scale(0.015625)"/>
       <path id="LiberationSans-2f" d="M 0 -63 
L 1284 4638 
L 1778 4638 
L 506 -63 
L 0 -63 
z
" transform="scale(0.015625)"/>
       <path id="LiberationSans-46" d="M 1122 3916 
L 1122 2278 
L 3578 2278 
L 3578 1784 
L 1122 1784 
L 1122 0 
L 525 0 
L 525 4403 
L 3653 4403 
L 3653 3916 
L 1122 3916 
z
" transform="scale(0.015625)"/>
       <path id="LiberationSans-72" d="M 444 0 
L 444 2594 
Q 444 2950 425 3381 
L 956 3381 
Q 981 2806 981 2691 
L 994 2691 
Q 1128 3125 1303 3284 
Q 1478 3444 1797 3444 
Q 1909 3444 2025 3413 
L 2025 2897 
Q 1913 2928 1725 2928 
Q 1375 2928 1190 2626 
Q 1006 2325 1006 1763 
L 1006 0 
L 444 0 
z
" transform="scale(0.015625)"/>
       <path id="LiberationSans-6e" d="M 2578 0 
L 2578 2144 
Q 2578 2478 2512 2662 
Q 2447 2847 2303 2928 
Q 2159 3009 1881 3009 
Q 1475 3009 1240 2731 
Q 1006 2453 1006 1959 
L 1006 0 
L 444 0 
L 444 2659 
Q 444 3250 425 3381 
L 956 3381 
Q 959 3366 962 3297 
Q 966 3228 970 3139 
Q 975 3050 981 2803 
L 991 2803 
Q 1184 3153 1439 3298 
Q 1694 3444 2072 3444 
Q 2628 3444 2886 3167 
Q 3144 2891 3144 2253 
L 3144 0 
L 2578 0 
z
" transform="scale(0.015625)"/>
       <path id="LiberationSans-74" d="M 1731 25 
Q 1453 -50 1163 -50 
Q 488 -50 488 716 
L 488 2972 
L 97 2972 
L 97 3381 
L 509 3381 
L 675 4138 
L 1050 4138 
L 1050 3381 
L 1675 3381 
L 1675 2972 
L 1050 2972 
L 1050 838 
Q 1050 594 1129 495 
Q 1209 397 1406 397 
Q 1519 397 1731 441 
L 1731 25 
z
" transform="scale(0.015625)"/>
      </defs>
      <use xlink:href="#LiberationSans-56"/>
      <use xlink:href="#LiberationSans-6f" x="61.199219"/>
      <use xlink:href="#LiberationSans-6c" x="116.814453"/>
      <use xlink:href="#LiberationSans-5f" x="139.03125"/>
      <use xlink:href="#LiberationSans-45" x="194.646484"/>
      <use xlink:href="#LiberationSans-64" x="261.345703"/>
      <use xlink:href="#LiberationSans-61" x="316.960938"/>
      <use xlink:href="#LiberationSans-73" x="372.576172"/>
      <use xlink:href="#LiberationSans-69" x="422.576172"/>
      <use xlink:href="#LiberationSans-20" x="444.792969"/>
      <use xlink:href="#LiberationSans-2f" x="472.576172"/>
      <use xlink:href="#LiberationSans-20" x="500.359375"/>
      <use xlink:href="#LiberationSans-56" x="528.142578"/>
      <use xlink:href="#LiberationSans-6f" x="589.341797"/>
      <use xlink:href="#LiberationSans-6c" x="644.957031"/>
      <use xlink:href="#LiberationSans-5f" x="667.173828"/>
      <use xlink:href="#LiberationSans-46" x="722.789062"/>
      <use xlink:href="#LiberationSans-61" x="783.873047"/>
      <use xlink:href="#LiberationSans-72" x="839.488281"/>
      <use xlink:href="#LiberationSans-69" x="872.789062"/>
      <use xlink:href="#LiberationSans-6e" x="895.005859"/>
      <use xlink:href="#LiberationSans-6f" x="950.621094"/>
      <use xlink:href="#LiberationSans-74" x="1006.236328"/>
      <use xlink:href="#LiberationSans-74" x="1034.019531"/>
      <use xlink:href="#LiberationSans-69" x="1061.802734"/>
     </g>
    </g>
   </g>
   <g id="PolyCollection_1">
    <defs>
     <path id="m9c6eb375f5" d="M 109.202566 -63.09 
L 109.197434 -63.09 
L 109.174372 -65.835455 
L 109.05219 -68.580909 
L 108.676746 -71.326364 
L 107.950185 -74.071818 
L 106.903683 -76.817273 
L 105.502707 -79.562727 
L 103.534447 -82.308182 
L 100.813049 -85.053636 
L 97.685882 -87.799091 
L 95.166208 -90.544545 
L 94.234577 -93.29 
L 95.013997 -96.035455 
L 96.782023 -98.780909 
L 98.731128 -101.526364 
L 100.463406 -104.271818 
L 101.903468 -107.017273 
L 103.120328 -109.762727 
L 104.208546 -112.508182 
L 105.103937 -115.253636 
L 105.727787 -117.999091 
L 106.135718 -120.744545 
L 106.445526 -123.49 
L 106.72086 -126.235455 
L 106.963062 -128.980909 
L 107.162557 -131.726364 
L 107.347571 -134.471818 
L 107.565635 -137.217273 
L 107.804993 -139.962727 
L 107.996357 -142.708182 
L 108.13564 -145.453636 
L 108.240557 -148.199091 
L 108.337657 -150.944545 
L 108.460897 -153.69 
L 108.58217 -156.435455 
L 108.658843 -159.180909 
L 108.704159 -161.926364 
L 108.742836 -164.671818 
L 108.774805 -167.417273 
L 108.793337 -170.162727 
L 108.826345 -172.908182 
L 108.880233 -175.653636 
L 108.915047 -178.399091 
L 108.939611 -181.144545 
L 108.978795 -183.89 
L 109.018793 -186.635455 
L 109.041279 -189.380909 
L 109.047317 -192.126364 
L 109.055719 -194.871818 
L 109.072503 -197.617273 
L 109.08947 -200.362727 
L 109.100072 -203.108182 
L 109.110125 -205.853636 
L 109.125974 -208.599091 
L 109.136964 -211.344545 
L 109.136638 -214.09 
L 109.130212 -216.835455 
L 109.129797 -219.580909 
L 109.139727 -222.326364 
L 109.148507 -225.071818 
L 109.14995 -227.817273 
L 109.146272 -230.562727 
L 109.14468 -233.308182 
L 109.153162 -236.053636 
L 109.164162 -238.799091 
L 109.17088 -241.544545 
L 109.177218 -244.29 
L 109.181774 -247.035455 
L 109.179164 -249.780909 
L 109.175224 -252.526364 
L 109.176928 -255.271818 
L 109.179733 -258.017273 
L 109.178357 -260.762727 
L 109.175196 -263.508182 
L 109.177134 -266.253636 
L 109.180478 -268.999091 
L 109.183284 -271.744545 
L 109.187112 -274.49 
L 109.191546 -277.235455 
L 109.1954 -279.980909 
L 109.195675 -282.726364 
L 109.193567 -285.471818 
L 109.191689 -288.217273 
L 109.191054 -290.962727 
L 109.191994 -293.708182 
L 109.192644 -296.453636 
L 109.193866 -299.199091 
L 109.195752 -301.944545 
L 109.196617 -304.69 
L 109.196992 -307.435455 
L 109.197906 -310.180909 
L 109.199196 -312.926364 
L 109.199752 -315.671818 
L 109.199055 -318.417273 
L 109.196351 -321.162727 
L 109.19334 -323.908182 
L 109.193696 -326.653636 
L 109.196295 -329.399091 
L 109.198575 -332.144545 
L 109.199697 -334.89 
L 109.200303 -334.89 
L 109.200303 -334.89 
L 109.201425 -332.144545 
L 109.203705 -329.399091 
L 109.206304 -326.653636 
L 109.20666 -323.908182 
L 109.203649 -321.162727 
L 109.200945 -318.417273 
L 109.200248 -315.671818 
L 109.200804 -312.926364 
L 109.202094 -310.180909 
L 109.203008 -307.435455 
L 109.203383 -304.69 
L 109.204248 -301.944545 
L 109.206134 -299.199091 
L 109.207356 -296.453636 
L 109.208006 -293.708182 
L 109.208946 -290.962727 
L 109.208311 -288.217273 
L 109.206433 -285.471818 
L 109.204325 -282.726364 
L 109.2046 -279.980909 
L 109.208454 -277.235455 
L 109.212888 -274.49 
L 109.216716 -271.744545 
L 109.219522 -268.999091 
L 109.222866 -266.253636 
L 109.224804 -263.508182 
L 109.221643 -260.762727 
L 109.220267 -258.017273 
L 109.223072 -255.271818 
L 109.224776 -252.526364 
L 109.220836 -249.780909 
L 109.218226 -247.035455 
L 109.222782 -244.29 
L 109.22912 -241.544545 
L 109.235838 -238.799091 
L 109.246838 -236.053636 
L 109.25532 -233.308182 
L 109.253728 -230.562727 
L 109.25005 -227.817273 
L 109.251493 -225.071818 
L 109.260273 -222.326364 
L 109.270203 -219.580909 
L 109.269788 -216.835455 
L 109.263362 -214.09 
L 109.263036 -211.344545 
L 109.274026 -208.599091 
L 109.289875 -205.853636 
L 109.299928 -203.108182 
L 109.31053 -200.362727 
L 109.327497 -197.617273 
L 109.344281 -194.871818 
L 109.352683 -192.126364 
L 109.358721 -189.380909 
L 109.381207 -186.635455 
L 109.421205 -183.89 
L 109.460389 -181.144545 
L 109.484953 -178.399091 
L 109.519767 -175.653636 
L 109.573655 -172.908182 
L 109.606663 -170.162727 
L 109.625195 -167.417273 
L 109.657164 -164.671818 
L 109.695841 -161.926364 
L 109.741157 -159.180909 
L 109.81783 -156.435455 
L 109.939103 -153.69 
L 110.062343 -150.944545 
L 110.159443 -148.199091 
L 110.26436 -145.453636 
L 110.403643 -142.708182 
L 110.595007 -139.962727 
L 110.834365 -137.217273 
L 111.052429 -134.471818 
L 111.237443 -131.726364 
L 111.436938 -128.980909 
L 111.67914 -126.235455 
L 111.954474 -123.49 
L 112.264282 -120.744545 
L 112.672213 -117.999091 
L 113.296063 -115.253636 
L 114.191454 -112.508182 
L 115.279672 -109.762727 
L 116.496532 -107.017273 
L 117.936594 -104.271818 
L 119.668872 -101.526364 
L 121.617977 -98.780909 
L 123.386003 -96.035455 
L 124.165423 -93.29 
L 123.233792 -90.544545 
L 120.714118 -87.799091 
L 117.586951 -85.053636 
L 114.865553 -82.308182 
L 112.897293 -79.562727 
L 111.496317 -76.817273 
L 110.449815 -74.071818 
L 109.723254 -71.326364 
L 109.34781 -68.580909 
L 109.225628 -65.835455 
L 109.202566 -63.09 
z
" style="stroke: #313131; stroke-width: 1.75"/>
    </defs>
    <g clip-path="url(#p0b28aecb0d)">
     <use xlink:href="#m9c6eb375f5" x="0" y="396" style="fill: #166a8e; stroke: #313131; stroke-width: 1.75"/>
    </g>
   </g>
   <g id="PolyCollection_2">
    <defs>
     <path id="m35d2dcbb6e" d="M 183.60233 -64.24284 
L 183.59767 -64.24284 
L 183.573348 -66.86022 
L 183.47369 -69.477599 
L 183.252009 -72.094979 
L 182.816161 -74.712359 
L 181.78639 -77.329738 
L 179.237046 -79.947118 
L 173.672092 -82.564498 
L 165.018178 -85.181877 
L 157.207306 -87.799257 
L 153.84 -90.416637 
L 154.564776 -93.034016 
L 157.693193 -95.651396 
L 161.787136 -98.268775 
L 165.76365 -100.886155 
L 169.157743 -103.503535 
L 171.950018 -106.120914 
L 174.03432 -108.738294 
L 175.678049 -111.355674 
L 177.011967 -113.973053 
L 178.006371 -116.590433 
L 178.793115 -119.207813 
L 179.439237 -121.825192 
L 179.943376 -124.442572 
L 180.401959 -127.059952 
L 180.834252 -129.677331 
L 181.208344 -132.294711 
L 181.525428 -134.912091 
L 181.781997 -137.52947 
L 181.991017 -140.14685 
L 182.172618 -142.764229 
L 182.313906 -145.381609 
L 182.458108 -147.998989 
L 182.574609 -150.616368 
L 182.623183 -153.233748 
L 182.700049 -155.851128 
L 182.791371 -158.468507 
L 182.853988 -161.085887 
L 182.890778 -163.703267 
L 182.901116 -166.320646 
L 182.936483 -168.938026 
L 182.996637 -171.555406 
L 183.04653 -174.172785 
L 183.054264 -176.790165 
L 183.059449 -179.407544 
L 183.098486 -182.024924 
L 183.16983 -184.642304 
L 183.235079 -187.259683 
L 183.291308 -189.877063 
L 183.333379 -192.494443 
L 183.359078 -195.111822 
L 183.389471 -197.729202 
L 183.409688 -200.346582 
L 183.436212 -202.963961 
L 183.47871 -205.581341 
L 183.511027 -208.198721 
L 183.529992 -210.8161 
L 183.546261 -213.43348 
L 183.561504 -216.050859 
L 183.567152 -218.668239 
L 183.571994 -221.285619 
L 183.576364 -223.902998 
L 183.579043 -226.520378 
L 183.583711 -229.137758 
L 183.586037 -231.755137 
L 183.584714 -234.372517 
L 183.589774 -236.989897 
L 183.595407 -239.607276 
L 183.595708 -242.224656 
L 183.594645 -244.842036 
L 183.593304 -247.459415 
L 183.591354 -250.076795 
L 183.591963 -252.694174 
L 183.594586 -255.311554 
L 183.59627 -257.928934 
L 183.598015 -260.546313 
L 183.5996 -263.163693 
L 183.599973 -265.781073 
L 183.599855 -268.398452 
L 183.598626 -271.015832 
L 183.596051 -273.633212 
L 183.596383 -276.250591 
L 183.598447 -278.867971 
L 183.597924 -281.485351 
L 183.598033 -284.10273 
L 183.599484 -286.72011 
L 183.599917 -289.337489 
L 183.59939 -291.954869 
L 183.597927 -294.572249 
L 183.598129 -297.189628 
L 183.599552 -299.807008 
L 183.599972 -302.424388 
L 183.6 -305.041767 
L 183.6 -307.659147 
L 183.599998 -310.276527 
L 183.599922 -312.893906 
L 183.599191 -315.511286 
L 183.597771 -318.128666 
L 183.598371 -320.746045 
L 183.599684 -323.363425 
L 183.600316 -323.363425 
L 183.600316 -323.363425 
L 183.601629 -320.746045 
L 183.602229 -318.128666 
L 183.600809 -315.511286 
L 183.600078 -312.893906 
L 183.600002 -310.276527 
L 183.6 -307.659147 
L 183.6 -305.041767 
L 183.600028 -302.424388 
L 183.600448 -299.807008 
L 183.601871 -297.189628 
L 183.602073 -294.572249 
L 183.60061 -291.954869 
L 183.600083 -289.337489 
L 183.600516 -286.72011 
L 183.601967 -284.10273 
L 183.602076 -281.485351 
L 183.601553 -278.867971 
L 183.603617 -276.250591 
L 183.603949 -273.633212 
L 183.601374 -271.015832 
L 183.600145 -268.398452 
L 183.600027 -265.781073 
L 183.6004 -263.163693 
L 183.601985 -260.546313 
L 183.60373 -257.928934 
L 183.605414 -255.311554 
L 183.608037 -252.694174 
L 183.608646 -250.076795 
L 183.606696 -247.459415 
L 183.605355 -244.842036 
L 183.604292 -242.224656 
L 183.604593 -239.607276 
L 183.610226 -236.989897 
L 183.615286 -234.372517 
L 183.613963 -231.755137 
L 183.616289 -229.137758 
L 183.620957 -226.520378 
L 183.623636 -223.902998 
L 183.628006 -221.285619 
L 183.632848 -218.668239 
L 183.638496 -216.050859 
L 183.653739 -213.43348 
L 183.670008 -210.8161 
L 183.688973 -208.198721 
L 183.72129 -205.581341 
L 183.763788 -202.963961 
L 183.790312 -200.346582 
L 183.810529 -197.729202 
L 183.840922 -195.111822 
L 183.866621 -192.494443 
L 183.908692 -189.877063 
L 183.964921 -187.259683 
L 184.03017 -184.642304 
L 184.101514 -182.024924 
L 184.140551 -179.407544 
L 184.145736 -176.790165 
L 184.15347 -174.172785 
L 184.203363 -171.555406 
L 184.263517 -168.938026 
L 184.298884 -166.320646 
L 184.309222 -163.703267 
L 184.346012 -161.085887 
L 184.408629 -158.468507 
L 184.499951 -155.851128 
L 184.576817 -153.233748 
L 184.625391 -150.616368 
L 184.741892 -147.998989 
L 184.886094 -145.381609 
L 185.027382 -142.764229 
L 185.208983 -140.14685 
L 185.418003 -137.52947 
L 185.674572 -134.912091 
L 185.991656 -132.294711 
L 186.365748 -129.677331 
L 186.798041 -127.059952 
L 187.256624 -124.442572 
L 187.760763 -121.825192 
L 188.406885 -119.207813 
L 189.193629 -116.590433 
L 190.188033 -113.973053 
L 191.521951 -111.355674 
L 193.16568 -108.738294 
L 195.249982 -106.120914 
L 198.042257 -103.503535 
L 201.43635 -100.886155 
L 205.412864 -98.268775 
L 209.506807 -95.651396 
L 212.635224 -93.034016 
L 213.36 -90.416637 
L 209.992694 -87.799257 
L 202.181822 -85.181877 
L 193.527908 -82.564498 
L 187.962954 -79.947118 
L 185.41361 -77.329738 
L 184.383839 -74.712359 
L 183.947991 -72.094979 
L 183.72631 -69.477599 
L 183.626652 -66.86022 
L 183.60233 -64.24284 
z
" style="stroke: #313131; stroke-width: 1.75"/>
    </defs>
    <g clip-path="url(#p0b28aecb0d)">
     <use xlink:href="#m35d2dcbb6e" x="0" y="396" style="fill: #9eba81; stroke: #313131; stroke-width: 1.75"/>
    </g>
   </g>
   <g id="PolyCollection_3">
    <defs>
     <path id="mb9ed4a3732" d="M 258.000776 -67.509723 
L 257.999224 -67.509723 
L 257.994077 -69.840211 
L 257.965713 -72.1707 
L 257.834893 -74.501189 
L 257.353355 -76.831678 
L 256.059179 -79.162167 
L 253.684918 -81.492656 
L 250.806489 -83.823144 
L 248.545299 -86.153633 
L 247.537044 -88.484122 
L 247.606038 -90.814611 
L 248.236083 -93.1451 
L 249.048815 -95.475589 
L 249.912332 -97.806078 
L 250.88135 -100.136566 
L 251.916891 -102.467055 
L 252.819519 -104.797544 
L 253.546394 -107.128033 
L 254.138199 -109.458522 
L 254.594935 -111.789011 
L 254.96699 -114.119499 
L 255.299834 -116.449988 
L 255.598295 -118.780477 
L 255.852856 -121.110966 
L 256.06832 -123.441455 
L 256.265752 -125.771944 
L 256.430655 -128.102433 
L 256.584672 -130.432921 
L 256.780917 -132.76341 
L 256.988534 -135.093899 
L 257.129586 -137.424388 
L 257.193838 -139.754877 
L 257.266301 -142.085366 
L 257.387443 -144.415855 
L 257.492443 -146.746343 
L 257.546186 -149.076832 
L 257.580058 -151.407321 
L 257.61413 -153.73781 
L 257.643773 -156.068299 
L 257.665961 -158.398788 
L 257.680478 -160.729276 
L 257.690867 -163.059765 
L 257.714709 -165.390254 
L 257.754342 -167.720743 
L 257.788409 -170.051232 
L 257.80939 -172.381721 
L 257.830083 -174.71221 
L 257.850507 -177.042698 
L 257.862799 -179.373187 
L 257.869939 -181.703676 
L 257.875671 -184.034165 
L 257.882273 -186.364654 
L 257.894451 -188.695143 
L 257.911805 -191.025631 
L 257.928179 -193.35612 
L 257.94118 -195.686609 
L 257.949518 -198.017098 
L 257.9553 -200.347587 
L 257.963659 -202.678076 
L 257.971816 -205.008565 
L 257.977503 -207.339053 
L 257.985288 -209.669542 
L 257.992958 -212.000031 
L 257.996979 -214.33052 
L 257.998924 -216.661009 
L 257.999776 -218.991498 
L 257.999977 -221.321987 
L 257.999999 -223.652475 
L 258 -225.982964 
L 258 -228.313453 
L 258 -230.643942 
L 258 -232.974431 
L 258 -235.30492 
L 258 -237.635408 
L 258 -239.965897 
L 258 -242.296386 
L 258 -244.626875 
L 258 -246.957364 
L 258 -249.287853 
L 258 -251.618342 
L 258 -253.94883 
L 258 -256.279319 
L 258 -258.609808 
L 258 -260.940297 
L 258 -263.270786 
L 258 -265.601275 
L 258 -267.931763 
L 258 -270.262252 
L 258 -272.592741 
L 258 -274.92323 
L 258 -277.253719 
L 258 -279.584208 
L 257.999999 -281.914697 
L 257.999987 -284.245185 
L 257.999857 -286.575674 
L 257.999241 -288.906163 
L 257.998114 -291.236652 
L 257.997803 -293.567141 
L 257.998799 -295.89763 
L 257.999692 -298.228119 
L 258.000308 -298.228119 
L 258.000308 -298.228119 
L 258.001201 -295.89763 
L 258.002197 -293.567141 
L 258.001886 -291.236652 
L 258.000759 -288.906163 
L 258.000143 -286.575674 
L 258.000013 -284.245185 
L 258.000001 -281.914697 
L 258 -279.584208 
L 258 -277.253719 
L 258 -274.92323 
L 258 -272.592741 
L 258 -270.262252 
L 258 -267.931763 
L 258 -265.601275 
L 258 -263.270786 
L 258 -260.940297 
L 258 -258.609808 
L 258 -256.279319 
L 258 -253.94883 
L 258 -251.618342 
L 258 -249.287853 
L 258 -246.957364 
L 258 -244.626875 
L 258 -242.296386 
L 258 -239.965897 
L 258 -237.635408 
L 258 -235.30492 
L 258 -232.974431 
L 258 -230.643942 
L 258 -228.313453 
L 258 -225.982964 
L 258.000001 -223.652475 
L 258.000023 -221.321987 
L 258.000224 -218.991498 
L 258.001076 -216.661009 
L 258.003021 -214.33052 
L 258.007042 -212.000031 
L 258.014712 -209.669542 
L 258.022497 -207.339053 
L 258.028184 -205.008565 
L 258.036341 -202.678076 
L 258.0447 -200.347587 
L 258.050482 -198.017098 
L 258.05882 -195.686609 
L 258.071821 -193.35612 
L 258.088195 -191.025631 
L 258.105549 -188.695143 
L 258.117727 -186.364654 
L 258.124329 -184.034165 
L 258.130061 -181.703676 
L 258.137201 -179.373187 
L 258.149493 -177.042698 
L 258.169917 -174.71221 
L 258.19061 -172.381721 
L 258.211591 -170.051232 
L 258.245658 -167.720743 
L 258.285291 -165.390254 
L 258.309133 -163.059765 
L 258.319522 -160.729276 
L 258.334039 -158.398788 
L 258.356227 -156.068299 
L 258.38587 -153.73781 
L 258.419942 -151.407321 
L 258.453814 -149.076832 
L 258.507557 -146.746343 
L 258.612557 -144.415855 
L 258.733699 -142.085366 
L 258.806162 -139.754877 
L 258.870414 -137.424388 
L 259.011466 -135.093899 
L 259.219083 -132.76341 
L 259.415328 -130.432921 
L 259.569345 -128.102433 
L 259.734248 -125.771944 
L 259.93168 -123.441455 
L 260.147144 -121.110966 
L 260.401705 -118.780477 
L 260.700166 -116.449988 
L 261.03301 -114.119499 
L 261.405065 -111.789011 
L 261.861801 -109.458522 
L 262.453606 -107.128033 
L 263.180481 -104.797544 
L 264.083109 -102.467055 
L 265.11865 -100.136566 
L 266.087668 -97.806078 
L 266.951185 -95.475589 
L 267.763917 -93.1451 
L 268.393962 -90.814611 
L 268.462956 -88.484122 
L 267.454701 -86.153633 
L 265.193511 -83.823144 
L 262.315082 -81.492656 
L 259.940821 -79.162167 
L 258.646645 -76.831678 
L 258.165107 -74.501189 
L 258.034287 -72.1707 
L 258.005923 -69.840211 
L 258.000776 -67.509723 
z
" style="stroke: #313131; stroke-width: 1.75"/>
    </defs>
    <g clip-path="url(#p0b28aecb0d)">
     <use xlink:href="#mb9ed4a3732" x="0" y="396" style="fill: #b1221c; stroke: #313131; stroke-width: 1.75"/>
    </g>
   </g>
   <g id="PolyCollection_4">
    <defs>
     <path id="mb8882db1c2" d="M 332.403196 -72.580122 
L 332.396804 -72.580122 
L 332.37836 -74.529709 
L 332.316139 -76.479296 
L 332.179365 -78.428882 
L 331.93899 -80.378469 
L 331.597208 -82.328055 
L 331.216872 -84.277642 
L 330.791505 -86.227229 
L 330.24345 -88.176815 
L 329.380754 -90.126402 
L 328.008684 -92.075988 
L 326.378283 -94.025575 
L 324.996808 -95.975162 
L 324.109965 -97.924748 
L 323.618829 -99.874335 
L 323.454491 -101.823921 
L 323.584404 -103.773508 
L 323.855136 -105.723095 
L 324.197769 -107.672681 
L 324.638676 -109.622268 
L 325.147231 -111.571854 
L 325.603164 -113.521441 
L 326.034593 -115.471027 
L 326.533563 -117.420614 
L 327.009774 -119.370201 
L 327.434889 -121.319787 
L 327.902587 -123.269374 
L 328.450183 -125.21896 
L 328.952473 -127.168547 
L 329.402129 -129.118134 
L 329.89863 -131.06772 
L 330.368976 -133.017307 
L 330.70292 -134.966893 
L 330.923498 -136.91648 
L 331.160921 -138.866067 
L 331.416069 -140.815653 
L 331.618251 -142.76524 
L 331.768354 -144.714826 
L 331.874592 -146.664413 
L 331.947718 -148.614 
L 332.019148 -150.563586 
L 332.090628 -152.513173 
L 332.153633 -154.462759 
L 332.211751 -156.412346 
L 332.256919 -158.361933 
L 332.290406 -160.311519 
L 332.316734 -162.261106 
L 332.33278 -164.210692 
L 332.340663 -166.160279 
L 332.34481 -168.109866 
L 332.350503 -170.059452 
L 332.359397 -172.009039 
L 332.368057 -173.958625 
L 332.374065 -175.908212 
L 332.375624 -177.857798 
L 332.374785 -179.807385 
L 332.378554 -181.756972 
L 332.382357 -183.706558 
L 332.381967 -185.656145 
L 332.385311 -187.605731 
L 332.392839 -189.555318 
L 332.396986 -191.504905 
L 332.396497 -193.454491 
L 332.395604 -195.404078 
L 332.395649 -197.353664 
L 332.396782 -199.303251 
L 332.398017 -201.252838 
L 332.396346 -203.202424 
L 332.393582 -205.152011 
L 332.394815 -207.101597 
L 332.398164 -209.051184 
L 332.399708 -211.000771 
L 332.399824 -212.950357 
L 332.398777 -214.899944 
L 332.395789 -216.84953 
L 332.393529 -218.799117 
L 332.395542 -220.748704 
L 332.398629 -222.69829 
L 332.399814 -224.647877 
L 332.399989 -226.597463 
L 332.4 -228.54705 
L 332.4 -230.496637 
L 332.4 -232.446223 
L 332.4 -234.39581 
L 332.4 -236.345396 
L 332.399993 -238.294983 
L 332.399881 -240.244569 
L 332.399141 -242.194156 
L 332.397403 -244.143743 
L 332.396708 -246.093329 
L 332.398251 -248.042916 
L 332.399611 -249.992502 
L 332.399964 -251.942089 
L 332.399993 -253.891676 
L 332.399903 -255.841262 
L 332.399246 -257.790849 
L 332.397551 -259.740435 
L 332.396664 -261.690022 
L 332.398096 -263.639609 
L 332.399544 -265.589195 
L 332.400456 -265.589195 
L 332.400456 -265.589195 
L 332.401904 -263.639609 
L 332.403336 -261.690022 
L 332.402449 -259.740435 
L 332.400754 -257.790849 
L 332.400097 -255.841262 
L 332.400007 -253.891676 
L 332.400036 -251.942089 
L 332.400389 -249.992502 
L 332.401749 -248.042916 
L 332.403292 -246.093329 
L 332.402597 -244.143743 
L 332.400859 -242.194156 
L 332.400119 -240.244569 
L 332.400007 -238.294983 
L 332.4 -236.345396 
L 332.4 -234.39581 
L 332.4 -232.446223 
L 332.4 -230.496637 
L 332.4 -228.54705 
L 332.400011 -226.597463 
L 332.400186 -224.647877 
L 332.401371 -222.69829 
L 332.404458 -220.748704 
L 332.406471 -218.799117 
L 332.404211 -216.84953 
L 332.401223 -214.899944 
L 332.400176 -212.950357 
L 332.400292 -211.000771 
L 332.401836 -209.051184 
L 332.405185 -207.101597 
L 332.406418 -205.152011 
L 332.403654 -203.202424 
L 332.401983 -201.252838 
L 332.403218 -199.303251 
L 332.404351 -197.353664 
L 332.404396 -195.404078 
L 332.403503 -193.454491 
L 332.403014 -191.504905 
L 332.407161 -189.555318 
L 332.414689 -187.605731 
L 332.418033 -185.656145 
L 332.417643 -183.706558 
L 332.421446 -181.756972 
L 332.425215 -179.807385 
L 332.424376 -177.857798 
L 332.425935 -175.908212 
L 332.431943 -173.958625 
L 332.440603 -172.009039 
L 332.449497 -170.059452 
L 332.45519 -168.109866 
L 332.459337 -166.160279 
L 332.46722 -164.210692 
L 332.483266 -162.261106 
L 332.509594 -160.311519 
L 332.543081 -158.361933 
L 332.588249 -156.412346 
L 332.646367 -154.462759 
L 332.709372 -152.513173 
L 332.780852 -150.563586 
L 332.852282 -148.614 
L 332.925408 -146.664413 
L 333.031646 -144.714826 
L 333.181749 -142.76524 
L 333.383931 -140.815653 
L 333.639079 -138.866067 
L 333.876502 -136.91648 
L 334.09708 -134.966893 
L 334.431024 -133.017307 
L 334.90137 -131.06772 
L 335.397871 -129.118134 
L 335.847527 -127.168547 
L 336.349817 -125.21896 
L 336.897413 -123.269374 
L 337.365111 -121.319787 
L 337.790226 -119.370201 
L 338.266437 -117.420614 
L 338.765407 -115.471027 
L 339.196836 -113.521441 
L 339.652769 -111.571854 
L 340.161324 -109.622268 
L 340.602231 -107.672681 
L 340.944864 -105.723095 
L 341.215596 -103.773508 
L 341.345509 -101.823921 
L 341.181171 -99.874335 
L 340.690035 -97.924748 
L 339.803192 -95.975162 
L 338.421717 -94.025575 
L 336.791316 -92.075988 
L 335.419246 -90.126402 
L 334.55655 -88.176815 
L 334.008495 -86.227229 
L 333.583128 -84.277642 
L 333.202792 -82.328055 
L 332.86101 -80.378469 
L 332.620635 -78.428882 
L 332.483861 -76.479296 
L 332.42164 -74.529709 
L 332.403196 -72.580122 
z
" style="stroke: #313131; stroke-width: 1.75"/>
    </defs>
    <g clip-path="url(#p0b28aecb0d)">
     <use xlink:href="#mb8882db1c2" x="0" y="396" style="fill: #911657; stroke: #313131; stroke-width: 1.75"/>
    </g>
   </g>
   <g id="PolyCollection_5">
    <defs>
     <path id="m58dfc673ff" d="M 406.80108 -73.437502 
L 406.79892 -73.437502 
L 406.789086 -75.803181 
L 406.753374 -78.168861 
L 406.652569 -80.534541 
L 406.429759 -82.90022 
L 405.71054 -85.2659 
L 403.55227 -87.63158 
L 399.761914 -89.997259 
L 395.453468 -92.362939 
L 391.999137 -94.728619 
L 390.517073 -97.094298 
L 390.302274 -99.459978 
L 390.600597 -101.825658 
L 391.010471 -104.191338 
L 391.665287 -106.557017 
L 392.608091 -108.922697 
L 393.900105 -111.288377 
L 395.107283 -113.654056 
L 396.095354 -116.019736 
L 397.367026 -118.385416 
L 398.690143 -120.751095 
L 399.898592 -123.116775 
L 400.952267 -125.482455 
L 401.755936 -127.848134 
L 402.605333 -130.213814 
L 403.338185 -132.579494 
L 403.972687 -134.945173 
L 404.529457 -137.310853 
L 404.962356 -139.676533 
L 405.341662 -142.042213 
L 405.691135 -144.407892 
L 405.890806 -146.773572 
L 406.065396 -149.139252 
L 406.231319 -151.504931 
L 406.362246 -153.870611 
L 406.447705 -156.236291 
L 406.559139 -158.60197 
L 406.655415 -160.96765 
L 406.671857 -163.33333 
L 406.65737 -165.699009 
L 406.67926 -168.064689 
L 406.701052 -170.430369 
L 406.746855 -172.796048 
L 406.763032 -175.161728 
L 406.767416 -177.527408 
L 406.777659 -179.893088 
L 406.79153 -182.258767 
L 406.794824 -184.624447 
L 406.794878 -186.990127 
L 406.796988 -189.355806 
L 406.796985 -191.721486 
L 406.796596 -194.087166 
L 406.798478 -196.452845 
L 406.796537 -198.818525 
L 406.797402 -201.184205 
L 406.799658 -203.549884 
L 406.799992 -205.915564 
L 406.799975 -208.281244 
L 406.799312 -210.646923 
L 406.796691 -213.012603 
L 406.797229 -215.378283 
L 406.799596 -217.743963 
L 406.79999 -220.109642 
L 406.8 -222.475322 
L 406.8 -224.841002 
L 406.8 -227.206681 
L 406.8 -229.572361 
L 406.8 -231.938041 
L 406.8 -234.30372 
L 406.8 -236.6694 
L 406.8 -239.03508 
L 406.8 -241.400759 
L 406.8 -243.766439 
L 406.8 -246.132119 
L 406.8 -248.497799 
L 406.8 -250.863478 
L 406.8 -253.229158 
L 406.8 -255.594838 
L 406.799998 -257.960517 
L 406.799844 -260.326197 
L 406.798133 -262.691877 
L 406.795288 -265.057556 
L 406.792811 -267.423236 
L 406.793557 -269.788916 
L 406.79879 -272.154595 
L 406.79996 -274.520275 
L 406.8 -276.885955 
L 406.8 -279.251634 
L 406.8 -281.617314 
L 406.8 -283.982994 
L 406.8 -286.348674 
L 406.8 -288.714353 
L 406.8 -291.080033 
L 406.8 -293.445713 
L 406.8 -295.811392 
L 406.799983 -298.177072 
L 406.79945 -300.542752 
L 406.796911 -302.908431 
L 406.796979 -305.274111 
L 406.799486 -307.639791 
L 406.800514 -307.639791 
L 406.800514 -307.639791 
L 406.803021 -305.274111 
L 406.803089 -302.908431 
L 406.80055 -300.542752 
L 406.800017 -298.177072 
L 406.8 -295.811392 
L 406.8 -293.445713 
L 406.8 -291.080033 
L 406.8 -288.714353 
L 406.8 -286.348674 
L 406.8 -283.982994 
L 406.8 -281.617314 
L 406.8 -279.251634 
L 406.8 -276.885955 
L 406.80004 -274.520275 
L 406.80121 -272.154595 
L 406.806443 -269.788916 
L 406.807189 -267.423236 
L 406.804712 -265.057556 
L 406.801867 -262.691877 
L 406.800156 -260.326197 
L 406.800002 -257.960517 
L 406.8 -255.594838 
L 406.8 -253.229158 
L 406.8 -250.863478 
L 406.8 -248.497799 
L 406.8 -246.132119 
L 406.8 -243.766439 
L 406.8 -241.400759 
L 406.8 -239.03508 
L 406.8 -236.6694 
L 406.8 -234.30372 
L 406.8 -231.938041 
L 406.8 -229.572361 
L 406.8 -227.206681 
L 406.8 -224.841002 
L 406.8 -222.475322 
L 406.80001 -220.109642 
L 406.800404 -217.743963 
L 406.802771 -215.378283 
L 406.803309 -213.012603 
L 406.800688 -210.646923 
L 406.800025 -208.281244 
L 406.800008 -205.915564 
L 406.800342 -203.549884 
L 406.802598 -201.184205 
L 406.803463 -198.818525 
L 406.801522 -196.452845 
L 406.803404 -194.087166 
L 406.803015 -191.721486 
L 406.803012 -189.355806 
L 406.805122 -186.990127 
L 406.805176 -184.624447 
L 406.80847 -182.258767 
L 406.822341 -179.893088 
L 406.832584 -177.527408 
L 406.836968 -175.161728 
L 406.853145 -172.796048 
L 406.898948 -170.430369 
L 406.92074 -168.064689 
L 406.94263 -165.699009 
L 406.928143 -163.33333 
L 406.944585 -160.96765 
L 407.040861 -158.60197 
L 407.152295 -156.236291 
L 407.237754 -153.870611 
L 407.368681 -151.504931 
L 407.534604 -149.139252 
L 407.709194 -146.773572 
L 407.908865 -144.407892 
L 408.258338 -142.042213 
L 408.637644 -139.676533 
L 409.070543 -137.310853 
L 409.627313 -134.945173 
L 410.261815 -132.579494 
L 410.994667 -130.213814 
L 411.844064 -127.848134 
L 412.647733 -125.482455 
L 413.701408 -123.116775 
L 414.909857 -120.751095 
L 416.232974 -118.385416 
L 417.504646 -116.019736 
L 418.492717 -113.654056 
L 419.699895 -111.288377 
L 420.991909 -108.922697 
L 421.934713 -106.557017 
L 422.589529 -104.191338 
L 422.999403 -101.825658 
L 423.297726 -99.459978 
L 423.082927 -97.094298 
L 421.600863 -94.728619 
L 418.146532 -92.362939 
L 413.838086 -89.997259 
L 410.04773 -87.63158 
L 407.88946 -85.2659 
L 407.170241 -82.90022 
L 406.947431 -80.534541 
L 406.846626 -78.168861 
L 406.810914 -75.803181 
L 406.80108 -73.437502 
z
" style="stroke: #313131; stroke-width: 1.75"/>
    </defs>
    <g clip-path="url(#p0b28aecb0d)">
     <use xlink:href="#m58dfc673ff" x="0" y="396" style="fill: #bcb11d; stroke: #313131; stroke-width: 1.75"/>
    </g>
   </g>
   <g id="PolyCollection_6">
    <defs>
     <path id="m6fc5f6ea21" d="M 481.200864 -70.230167 
L 481.199136 -70.230167 
L 481.195287 -71.820494 
L 481.182272 -73.410822 
L 481.144301 -75.001149 
L 481.0426 -76.591477 
L 480.802467 -78.181804 
L 480.309614 -79.772132 
L 479.442829 -81.362459 
L 478.074844 -82.952787 
L 476.000163 -84.543114 
L 473.019684 -86.133442 
L 469.21552 -87.723769 
L 464.999456 -89.314097 
L 460.978954 -90.904424 
L 457.717566 -92.494752 
L 455.31968 -94.085079 
L 453.540257 -95.675407 
L 452.322074 -97.265735 
L 451.711682 -98.856062 
L 451.557788 -100.44639 
L 451.790976 -102.036717 
L 452.368321 -103.627045 
L 453.00395 -105.217372 
L 453.564319 -106.8077 
L 454.233833 -108.398027 
L 455.200573 -109.988355 
L 456.413736 -111.578682 
L 457.712104 -113.16901 
L 459.043769 -114.759337 
L 460.30893 -116.349665 
L 461.479749 -117.939992 
L 462.647425 -119.53032 
L 463.745578 -121.120647 
L 464.791728 -122.710975 
L 465.921217 -124.301302 
L 467.221907 -125.89163 
L 468.60509 -127.481957 
L 469.75618 -129.072285 
L 470.605089 -130.662612 
L 471.37335 -132.25294 
L 472.207137 -133.843267 
L 473.106876 -135.433595 
L 473.952047 -137.023923 
L 474.63814 -138.61425 
L 475.193012 -140.204578 
L 475.762663 -141.794905 
L 476.407732 -143.385233 
L 477.072201 -144.97556 
L 477.6857 -146.565888 
L 478.205178 -148.156215 
L 478.612052 -149.746543 
L 478.912372 -151.33687 
L 479.181997 -152.927198 
L 479.451455 -154.517525 
L 479.680995 -156.107853 
L 479.892086 -157.69818 
L 480.093065 -159.288508 
L 480.247838 -160.878835 
L 480.362545 -162.469163 
L 480.45707 -164.05949 
L 480.542997 -165.649818 
L 480.623759 -167.240145 
L 480.708968 -168.830473 
L 480.795929 -170.4208 
L 480.852465 -172.011128 
L 480.894574 -173.601455 
L 480.949544 -175.191783 
L 480.99215 -176.782111 
L 481.023906 -178.372438 
L 481.06686 -179.962766 
L 481.100902 -181.553093 
L 481.107193 -183.143421 
L 481.108027 -184.733748 
L 481.125627 -186.324076 
L 481.152355 -187.914403 
L 481.170699 -189.504731 
L 481.175226 -191.095058 
L 481.171568 -192.685386 
L 481.166128 -194.275713 
L 481.166784 -195.866041 
L 481.176817 -197.456368 
L 481.187418 -199.046696 
L 481.192858 -200.637023 
L 481.194063 -202.227351 
L 481.191021 -203.817678 
L 481.186168 -205.408006 
L 481.185898 -206.998333 
L 481.191961 -208.588661 
L 481.197511 -210.178988 
L 481.198819 -211.769316 
L 481.197259 -213.359643 
L 481.195693 -214.949971 
L 481.196682 -216.540299 
L 481.198724 -218.130626 
L 481.199428 -219.720954 
L 481.19835 -221.311281 
L 481.19627 -222.901609 
L 481.195856 -224.491936 
L 481.197763 -226.082264 
L 481.199413 -227.672591 
L 481.200587 -227.672591 
L 481.200587 -227.672591 
L 481.202237 -226.082264 
L 481.204144 -224.491936 
L 481.20373 -222.901609 
L 481.20165 -221.311281 
L 481.200572 -219.720954 
L 481.201276 -218.130626 
L 481.203318 -216.540299 
L 481.204307 -214.949971 
L 481.202741 -213.359643 
L 481.201181 -211.769316 
L 481.202489 -210.178988 
L 481.208039 -208.588661 
L 481.214102 -206.998333 
L 481.213832 -205.408006 
L 481.208979 -203.817678 
L 481.205937 -202.227351 
L 481.207142 -200.637023 
L 481.212582 -199.046696 
L 481.223183 -197.456368 
L 481.233216 -195.866041 
L 481.233872 -194.275713 
L 481.228432 -192.685386 
L 481.224774 -191.095058 
L 481.229301 -189.504731 
L 481.247645 -187.914403 
L 481.274373 -186.324076 
L 481.291973 -184.733748 
L 481.292807 -183.143421 
L 481.299098 -181.553093 
L 481.33314 -179.962766 
L 481.376094 -178.372438 
L 481.40785 -176.782111 
L 481.450456 -175.191783 
L 481.505426 -173.601455 
L 481.547535 -172.011128 
L 481.604071 -170.4208 
L 481.691032 -168.830473 
L 481.776241 -167.240145 
L 481.857003 -165.649818 
L 481.94293 -164.05949 
L 482.037455 -162.469163 
L 482.152162 -160.878835 
L 482.306935 -159.288508 
L 482.507914 -157.69818 
L 482.719005 -156.107853 
L 482.948545 -154.517525 
L 483.218003 -152.927198 
L 483.487628 -151.33687 
L 483.787948 -149.746543 
L 484.194822 -148.156215 
L 484.7143 -146.565888 
L 485.327799 -144.97556 
L 485.992268 -143.385233 
L 486.637337 -141.794905 
L 487.206988 -140.204578 
L 487.76186 -138.61425 
L 488.447953 -137.023923 
L 489.293124 -135.433595 
L 490.192863 -133.843267 
L 491.02665 -132.25294 
L 491.794911 -130.662612 
L 492.64382 -129.072285 
L 493.79491 -127.481957 
L 495.178093 -125.89163 
L 496.478783 -124.301302 
L 497.608272 -122.710975 
L 498.654422 -121.120647 
L 499.752575 -119.53032 
L 500.920251 -117.939992 
L 502.09107 -116.349665 
L 503.356231 -114.759337 
L 504.687896 -113.16901 
L 505.986264 -111.578682 
L 507.199427 -109.988355 
L 508.166167 -108.398027 
L 508.835681 -106.8077 
L 509.39605 -105.217372 
L 510.031679 -103.627045 
L 510.609024 -102.036717 
L 510.842212 -100.44639 
L 510.688318 -98.856062 
L 510.077926 -97.265735 
L 508.859743 -95.675407 
L 507.08032 -94.085079 
L 504.682434 -92.494752 
L 501.421046 -90.904424 
L 497.400544 -89.314097 
L 493.18448 -87.723769 
L 489.380316 -86.133442 
L 486.399837 -84.543114 
L 484.325156 -82.952787 
L 482.957171 -81.362459 
L 482.090386 -79.772132 
L 481.597533 -78.181804 
L 481.3574 -76.591477 
L 481.255699 -75.001149 
L 481.217728 -73.410822 
L 481.204713 -71.820494 
L 481.200864 -70.230167 
z
" style="stroke: #313131; stroke-width: 1.75"/>
    </defs>
    <g clip-path="url(#p0b28aecb0d)">
     <use xlink:href="#m6fc5f6ea21" x="0" y="396" style="fill: #92c4d0; stroke: #313131; stroke-width: 1.75"/>
    </g>
   </g>
   <g id="line2d_19">
    <path d="M 109.2 326.923994 
L 109.2 254.574215 
" clip-path="url(#p0b28aecb0d)" style="fill: none; stroke: #313131; stroke-width: 1.75; stroke-linecap: round"/>
   </g>
   <g id="line2d_20">
    <path d="M 109.2 305.156191 
L 109.2 284.905636 
" clip-path="url(#p0b28aecb0d)" style="fill: none; stroke: #313131; stroke-width: 5.25; stroke-linecap: round"/>
   </g>
   <g id="line2d_21">
    <path d="M 183.6 327.21313 
L 183.6 262.204118 
" clip-path="url(#p0b28aecb0d)" style="fill: none; stroke: #313131; stroke-width: 1.75; stroke-linecap: round"/>
   </g>
   <g id="line2d_22">
    <path d="M 183.6 306.064863 
L 183.6 288.519482 
" clip-path="url(#p0b28aecb0d)" style="fill: none; stroke: #313131; stroke-width: 5.25; stroke-linecap: round"/>
   </g>
   <g id="line2d_23">
    <path d="M 258 323.134245 
L 258 255.751085 
" clip-path="url(#p0b28aecb0d)" style="fill: none; stroke: #313131; stroke-width: 1.75; stroke-linecap: round"/>
   </g>
   <g id="line2d_24">
    <path d="M 258 306.804898 
L 258 286.379389 
" clip-path="url(#p0b28aecb0d)" style="fill: none; stroke: #313131; stroke-width: 5.25; stroke-linecap: round"/>
   </g>
   <g id="line2d_25">
    <path d="M 332.4 319.238497 
L 332.4 248.278873 
" clip-path="url(#p0b28aecb0d)" style="fill: none; stroke: #313131; stroke-width: 1.75; stroke-linecap: round"/>
   </g>
   <g id="line2d_26">
    <path d="M 332.4 296.509564 
L 332.4 277.207548 
" clip-path="url(#p0b28aecb0d)" style="fill: none; stroke: #313131; stroke-width: 5.25; stroke-linecap: round"/>
   </g>
   <g id="line2d_27">
    <path d="M 406.8 318.983848 
L 406.8 250.598985 
" clip-path="url(#p0b28aecb0d)" style="fill: none; stroke: #313131; stroke-width: 1.75; stroke-linecap: round"/>
   </g>
   <g id="line2d_28">
    <path d="M 406.8 297.498969 
L 406.8 278.738943 
" clip-path="url(#p0b28aecb0d)" style="fill: none; stroke: #313131; stroke-width: 5.25; stroke-linecap: round"/>
   </g>
   <g id="line2d_29">
    <path d="M 481.2 322.026622 
L 481.2 241.473191 
" clip-path="url(#p0b28aecb0d)" style="fill: none; stroke: #313131; stroke-width: 1.75; stroke-linecap: round"/>
   </g>
   <g id="line2d_30">
    <path d="M 481.2 297.676157 
L 481.2 275.190347 
" clip-path="url(#p0b28aecb0d)" style="fill: none; stroke: #313131; stroke-width: 5.25; stroke-linecap: round"/>
   </g>
   <g id="line2d_31">
    <path d="M 72 301.696342 
L 518.4 301.696342 
" clip-path="url(#p0b28aecb0d)" style="fill: none; stroke-dasharray: 6.475,2.8; stroke-dashoffset: 0; stroke: #ff0000; stroke-width: 1.75"/>
   </g>
   <g id="patch_3">
    <path d="M 72 346.5 
L 72 47.52 
" style="fill: none; stroke: #cccccc; stroke-width: 1.25; stroke-linejoin: miter; stroke-linecap: square"/>
   </g>
   <g id="patch_4">
    <path d="M 518.4 346.5 
L 518.4 47.52 
" style="fill: none; stroke: #cccccc; stroke-width: 1.25; stroke-linejoin: miter; stroke-linecap: square"/>
   </g>
   <g id="patch_5">
    <path d="M 72 346.5 
L 518.4 346.5 
" style="fill: none; stroke: #cccccc; stroke-width: 1.25; stroke-linejoin: miter; stroke-linecap: square"/>
   </g>
   <g id="patch_6">
    <path d="M 72 47.52 
L 518.4 47.52 
" style="fill: none; stroke: #cccccc; stroke-width: 1.25; stroke-linejoin: miter; stroke-linecap: square"/>
   </g>
   <g id="PathCollection_1">
    <defs>
     <path id="m512d6c45c0" d="M 0 1.75 
C 0.464105 1.75 0.909265 1.565609 1.237437 1.237437 
C 1.565609 0.909265 1.75 0.464105 1.75 0 
C 1.75 -0.464105 1.565609 -0.909265 1.237437 -1.237437 
C 0.909265 -1.565609 0.464105 -1.75 0 -1.75 
C -0.464105 -1.75 -0.909265 -1.565609 -1.237437 -1.237437 
C -1.565609 -0.909265 -1.75 -0.464105 -1.75 0 
C -1.75 0.464105 -1.565609 0.909265 -1.237437 1.237437 
C -0.909265 1.565609 -0.464105 1.75 0 1.75 
z
" style="stroke: #313131; stroke-width: 0.3"/>
    </defs>
    <g clip-path="url(#p0b28aecb0d)">
     <use xlink:href="#m512d6c45c0" x="109.2" y="297.844691" style="fill: #ffffff; stroke: #313131; stroke-width: 0.3"/>
    </g>
   </g>
   <g id="PathCollection_2">
    <g clip-path="url(#p0b28aecb0d)">
     <use xlink:href="#m512d6c45c0" x="183.6" y="299.694888" style="fill: #ffffff; stroke: #313131; stroke-width: 0.3"/>
    </g>
   </g>
   <g id="PathCollection_3">
    <g clip-path="url(#p0b28aecb0d)">
     <use xlink:href="#m512d6c45c0" x="258" y="299.161511" style="fill: #ffffff; stroke: #313131; stroke-width: 0.3"/>
    </g>
   </g>
   <g id="PathCollection_4">
    <g clip-path="url(#p0b28aecb0d)">
     <use xlink:href="#m512d6c45c0" x="332.4" y="288.048693" style="fill: #ffffff; stroke: #313131; stroke-width: 0.3"/>
    </g>
   </g>
   <g id="PathCollection_5">
    <g clip-path="url(#p0b28aecb0d)">
     <use xlink:href="#m512d6c45c0" x="406.8" y="289.258914" style="fill: #ffffff; stroke: #313131; stroke-width: 0.3"/>
    </g>
   </g>
   <g id="PathCollection_6">
    <g clip-path="url(#p0b28aecb0d)">
     <use xlink:href="#m512d6c45c0" x="481.2" y="287.840181" style="fill: #ffffff; stroke: #313131; stroke-width: 0.3"/>
    </g>
   </g>
   <g id="text_15">
    <!-- Volume Comparison Vol_Edasi / Vol_Farinotti against Zmed -->
    <g style="fill: #262626" transform="translate(136.455 41.52)scale(0.12 -0.12)">
     <defs>
      <path id="LiberationSans-75" d="M 981 3381 
L 981 1238 
Q 981 903 1047 718 
Q 1113 534 1256 453 
Q 1400 372 1678 372 
Q 2084 372 2318 650 
Q 2553 928 2553 1422 
L 2553 3381 
L 3116 3381 
L 3116 722 
Q 3116 131 3134 0 
L 2603 0 
Q 2600 16 2597 84 
Q 2594 153 2589 242 
Q 2584 331 2578 578 
L 2569 578 
Q 2375 228 2120 82 
Q 1866 -63 1488 -63 
Q 931 -63 673 214 
Q 416 491 416 1128 
L 416 3381 
L 981 3381 
z
" transform="scale(0.015625)"/>
      <path id="LiberationSans-43" d="M 2475 3981 
Q 1744 3981 1337 3511 
Q 931 3041 931 2222 
Q 931 1413 1354 920 
Q 1778 428 2500 428 
Q 3425 428 3891 1344 
L 4378 1100 
Q 4106 531 3614 234 
Q 3122 -63 2472 -63 
Q 1806 -63 1320 214 
Q 834 491 579 1005 
Q 325 1519 325 2222 
Q 325 3275 894 3872 
Q 1463 4469 2469 4469 
Q 3172 4469 3644 4194 
Q 4116 3919 4338 3378 
L 3772 3191 
Q 3619 3575 3280 3778 
Q 2941 3981 2475 3981 
z
" transform="scale(0.015625)"/>
      <path id="LiberationSans-70" d="M 3291 1706 
Q 3291 -63 2047 -63 
Q 1266 -63 997 525 
L 981 525 
Q 994 500 994 -6 
L 994 -1328 
L 431 -1328 
L 431 2691 
Q 431 3213 413 3381 
L 956 3381 
Q 959 3369 965 3292 
Q 972 3216 980 3056 
Q 988 2897 988 2838 
L 1000 2838 
Q 1150 3150 1397 3295 
Q 1644 3441 2047 3441 
Q 2672 3441 2981 3022 
Q 3291 2603 3291 1706 
z
M 2700 1694 
Q 2700 2400 2509 2703 
Q 2319 3006 1903 3006 
Q 1569 3006 1380 2865 
Q 1191 2725 1092 2426 
Q 994 2128 994 1650 
Q 994 984 1206 668 
Q 1419 353 1897 353 
Q 2316 353 2508 661 
Q 2700 969 2700 1694 
z
" transform="scale(0.015625)"/>
      <path id="LiberationSans-67" d="M 1713 -1328 
Q 1159 -1328 831 -1111 
Q 503 -894 409 -494 
L 975 -413 
Q 1031 -647 1223 -773 
Q 1416 -900 1728 -900 
Q 2569 -900 2569 84 
L 2569 628 
L 2563 628 
Q 2403 303 2125 139 
Q 1847 -25 1475 -25 
Q 853 -25 561 387 
Q 269 800 269 1684 
Q 269 2581 583 3007 
Q 897 3434 1538 3434 
Q 1897 3434 2161 3270 
Q 2425 3106 2569 2803 
L 2575 2803 
Q 2575 2897 2587 3128 
Q 2600 3359 2613 3381 
L 3147 3381 
Q 3128 3213 3128 2681 
L 3128 97 
Q 3128 -1328 1713 -1328 
z
M 2569 1691 
Q 2569 2103 2456 2401 
Q 2344 2700 2139 2858 
Q 1934 3016 1675 3016 
Q 1244 3016 1047 2703 
Q 850 2391 850 1691 
Q 850 997 1034 694 
Q 1219 391 1666 391 
Q 1931 391 2137 547 
Q 2344 703 2456 995 
Q 2569 1288 2569 1691 
z
" transform="scale(0.015625)"/>
     </defs>
     <use xlink:href="#LiberationSans-56"/>
     <use xlink:href="#LiberationSans-6f" x="61.199219"/>
     <use xlink:href="#LiberationSans-6c" x="116.814453"/>
     <use xlink:href="#LiberationSans-75" x="139.03125"/>
     <use xlink:href="#LiberationSans-6d" x="194.646484"/>
     <use xlink:href="#LiberationSans-65" x="277.947266"/>
     <use xlink:href="#LiberationSans-20" x="333.5625"/>
     <use xlink:href="#LiberationSans-43" x="361.345703"/>
     <use xlink:href="#LiberationSans-6f" x="433.5625"/>
     <use xlink:href="#LiberationSans-6d" x="489.177734"/>
     <use xlink:href="#LiberationSans-70" x="572.478516"/>
     <use xlink:href="#LiberationSans-61" x="628.09375"/>
     <use xlink:href="#LiberationSans-72" x="683.708984"/>
     <use xlink:href="#LiberationSans-69" x="717.009766"/>
     <use xlink:href="#LiberationSans-73" x="739.226562"/>
     <use xlink:href="#LiberationSans-6f" x="789.226562"/>
     <use xlink:href="#LiberationSans-6e" x="844.841797"/>
     <use xlink:href="#LiberationSans-20" x="900.457031"/>
     <use xlink:href="#LiberationSans-56" x="928.240234"/>
     <use xlink:href="#LiberationSans-6f" x="989.439453"/>
     <use xlink:href="#LiberationSans-6c" x="1045.054688"/>
     <use xlink:href="#LiberationSans-5f" x="1067.271484"/>
     <use xlink:href="#LiberationSans-45" x="1122.886719"/>
     <use xlink:href="#LiberationSans-64" x="1189.585938"/>
     <use xlink:href="#LiberationSans-61" x="1245.201172"/>
     <use xlink:href="#LiberationSans-73" x="1300.816406"/>
     <use xlink:href="#LiberationSans-69" x="1350.816406"/>
     <use xlink:href="#LiberationSans-20" x="1373.033203"/>
     <use xlink:href="#LiberationSans-2f" x="1400.816406"/>
     <use xlink:href="#LiberationSans-20" x="1428.599609"/>
     <use xlink:href="#LiberationSans-56" x="1456.382812"/>
     <use xlink:href="#LiberationSans-6f" x="1517.582031"/>
     <use xlink:href="#LiberationSans-6c" x="1573.197266"/>
     <use xlink:href="#LiberationSans-5f" x="1595.414062"/>
     <use xlink:href="#LiberationSans-46" x="1651.029297"/>
     <use xlink:href="#LiberationSans-61" x="1712.113281"/>
     <use xlink:href="#LiberationSans-72" x="1767.728516"/>
     <use xlink:href="#LiberationSans-69" x="1801.029297"/>
     <use xlink:href="#LiberationSans-6e" x="1823.246094"/>
     <use xlink:href="#LiberationSans-6f" x="1878.861328"/>
     <use xlink:href="#LiberationSans-74" x="1934.476562"/>
     <use xlink:href="#LiberationSans-74" x="1962.259766"/>
     <use xlink:href="#LiberationSans-69" x="1990.042969"/>
     <use xlink:href="#LiberationSans-20" x="2012.259766"/>
     <use xlink:href="#LiberationSans-61" x="2040.042969"/>
     <use xlink:href="#LiberationSans-67" x="2095.658203"/>
     <use xlink:href="#LiberationSans-61" x="2151.273438"/>
     <use xlink:href="#LiberationSans-69" x="2206.888672"/>
     <use xlink:href="#LiberationSans-6e" x="2229.105469"/>
     <use xlink:href="#LiberationSans-73" x="2284.720703"/>
     <use xlink:href="#LiberationSans-74" x="2334.720703"/>
     <use xlink:href="#LiberationSans-20" x="2362.503906"/>
     <use xlink:href="#LiberationSans-5a" x="2390.287109"/>
     <use xlink:href="#LiberationSans-6d" x="2451.371094"/>
     <use xlink:href="#LiberationSans-65" x="2534.671875"/>
     <use xlink:href="#LiberationSans-64" x="2590.287109"/>
    </g>
   </g>
  </g>
 </g>
 <defs>
  <clipPath id="p0b28aecb0d">
   <rect x="72" y="47.52" width="446.4" height="298.98"/>
  </clipPath>
 </defs>
</svg>
