<?xml version="1.0" encoding="utf-8" standalone="no"?>
<!DOCTYPE svg PUBLIC "-//W3C//DTD SVG 1.1//EN"
  "http://www.w3.org/Graphics/SVG/1.1/DTD/svg11.dtd">
<svg xmlns:xlink="http://www.w3.org/1999/xlink" width="576pt" height="396pt" viewBox="0 0 576 396" xmlns="http://www.w3.org/2000/svg" version="1.1">
 <metadata>
  <rdf:RDF xmlns:dc="http://purl.org/dc/elements/1.1/" xmlns:cc="http://creativecommons.org/ns#" xmlns:rdf="http://www.w3.org/1999/02/22-rdf-syntax-ns#">
   <cc:Work>
    <dc:type rdf:resource="http://purl.org/dc/dcmitype/StillImage"/>
    <dc:date>2022-10-31T10:07:42.700807</dc:date>
    <dc:format>image/svg+xml</dc:format>
    <dc:creator>
     <cc:Agent>
      <dc:title>Matplotlib v3.5.0, https://matplotlib.org/</dc:title>
     </cc:Agent>
    </dc:creator>
   </cc:Work>
  </rdf:RDF>
 </metadata>
 <defs>
  <style type="text/css">*{stroke-linejoin: round; stroke-linecap: butt}</style>
 </defs>
 <g id="figure_1">
  <g id="patch_1">
   <path d="M 0 396 
L 576 396 
L 576 0 
L 0 0 
z
" style="fill: #ffffff"/>
  </g>
  <g id="axes_1">
   <g id="patch_2">
    <path d="M 72 346.5 
L 518.4 346.5 
L 518.4 47.52 
L 72 47.52 
z
" style="fill: #ffffff"/>
   </g>
   <g id="matplotlib.axis_1">
    <g id="xtick_1">
     <g id="line2d_1"/>
     <g id="text_1">
      <!-- 0-1000 -->
      <g style="fill: #262626" transform="translate(93.632812 360.746875)scale(0.1 -0.1)">
       <defs>
        <path id="LiberationSans-30" d="M 3309 2203 
Q 3309 1100 2920 518 
Q 2531 -63 1772 -63 
Q 1013 -63 631 515 
Q 250 1094 250 2203 
Q 250 3338 620 3903 
Q 991 4469 1791 4469 
Q 2569 4469 2939 3897 
Q 3309 3325 3309 2203 
z
M 2738 2203 
Q 2738 3156 2517 3584 
Q 2297 4013 1791 4013 
Q 1272 4013 1045 3591 
Q 819 3169 819 2203 
Q 819 1266 1048 831 
Q 1278 397 1778 397 
Q 2275 397 2506 840 
Q 2738 1284 2738 2203 
z
" transform="scale(0.015625)"/>
        <path id="LiberationSans-2d" d="M 284 1450 
L 284 1950 
L 1847 1950 
L 1847 1450 
L 284 1450 
z
" transform="scale(0.015625)"/>
        <path id="LiberationSans-31" d="M 488 0 
L 488 478 
L 1609 478 
L 1609 3866 
L 616 3156 
L 616 3688 
L 1656 4403 
L 2175 4403 
L 2175 478 
L 3247 478 
L 3247 0 
L 488 0 
z
" transform="scale(0.015625)"/>
       </defs>
       <use xlink:href="#LiberationSans-30"/>
       <use xlink:href="#LiberationSans-2d" x="55.615234"/>
       <use xlink:href="#LiberationSans-31" x="88.916016"/>
       <use xlink:href="#LiberationSans-30" x="144.53125"/>
       <use xlink:href="#LiberationSans-30" x="200.146484"/>
       <use xlink:href="#LiberationSans-30" x="255.761719"/>
      </g>
     </g>
    </g>
    <g id="xtick_2">
     <g id="line2d_2"/>
     <g id="text_2">
      <!-- 1000-2000 -->
      <g style="fill: #262626" transform="translate(159.691406 360.746875)scale(0.1 -0.1)">
       <defs>
        <path id="LiberationSans-32" d="M 322 0 
L 322 397 
Q 481 763 711 1042 
Q 941 1322 1194 1548 
Q 1447 1775 1695 1969 
Q 1944 2163 2144 2356 
Q 2344 2550 2467 2762 
Q 2591 2975 2591 3244 
Q 2591 3606 2378 3806 
Q 2166 4006 1788 4006 
Q 1428 4006 1195 3811 
Q 963 3616 922 3263 
L 347 3316 
Q 409 3844 795 4156 
Q 1181 4469 1788 4469 
Q 2453 4469 2811 4155 
Q 3169 3841 3169 3263 
Q 3169 3006 3051 2753 
Q 2934 2500 2703 2247 
Q 2472 1994 1819 1463 
Q 1459 1169 1246 933 
Q 1034 697 941 478 
L 3238 478 
L 3238 0 
L 322 0 
z
" transform="scale(0.015625)"/>
       </defs>
       <use xlink:href="#LiberationSans-31"/>
       <use xlink:href="#LiberationSans-30" x="55.615234"/>
       <use xlink:href="#LiberationSans-30" x="111.230469"/>
       <use xlink:href="#LiberationSans-30" x="166.845703"/>
       <use xlink:href="#LiberationSans-2d" x="222.460938"/>
       <use xlink:href="#LiberationSans-32" x="255.761719"/>
       <use xlink:href="#LiberationSans-30" x="311.376953"/>
       <use xlink:href="#LiberationSans-30" x="366.992188"/>
       <use xlink:href="#LiberationSans-30" x="422.607422"/>
      </g>
     </g>
    </g>
    <g id="xtick_3">
     <g id="line2d_3"/>
     <g id="text_3">
      <!-- 2000-3000 -->
      <g style="fill: #262626" transform="translate(234.091406 360.746875)scale(0.1 -0.1)">
       <defs>
        <path id="LiberationSans-33" d="M 3278 1216 
Q 3278 606 2890 271 
Q 2503 -63 1784 -63 
Q 1116 -63 717 239 
Q 319 541 244 1131 
L 825 1184 
Q 938 403 1784 403 
Q 2209 403 2451 612 
Q 2694 822 2694 1234 
Q 2694 1594 2417 1795 
Q 2141 1997 1619 1997 
L 1300 1997 
L 1300 2484 
L 1606 2484 
Q 2069 2484 2323 2686 
Q 2578 2888 2578 3244 
Q 2578 3597 2370 3801 
Q 2163 4006 1753 4006 
Q 1381 4006 1151 3815 
Q 922 3625 884 3278 
L 319 3322 
Q 381 3863 767 4166 
Q 1153 4469 1759 4469 
Q 2422 4469 2789 4161 
Q 3156 3853 3156 3303 
Q 3156 2881 2920 2617 
Q 2684 2353 2234 2259 
L 2234 2247 
Q 2728 2194 3003 1916 
Q 3278 1638 3278 1216 
z
" transform="scale(0.015625)"/>
       </defs>
       <use xlink:href="#LiberationSans-32"/>
       <use xlink:href="#LiberationSans-30" x="55.615234"/>
       <use xlink:href="#LiberationSans-30" x="111.230469"/>
       <use xlink:href="#LiberationSans-30" x="166.845703"/>
       <use xlink:href="#LiberationSans-2d" x="222.460938"/>
       <use xlink:href="#LiberationSans-33" x="255.761719"/>
       <use xlink:href="#LiberationSans-30" x="311.376953"/>
       <use xlink:href="#LiberationSans-30" x="366.992188"/>
       <use xlink:href="#LiberationSans-30" x="422.607422"/>
      </g>
     </g>
    </g>
    <g id="xtick_4">
     <g id="line2d_4"/>
     <g id="text_4">
      <!-- 3000-4000 -->
      <g style="fill: #262626" transform="translate(308.491406 360.746875)scale(0.1 -0.1)">
       <defs>
        <path id="LiberationSans-34" d="M 2753 997 
L 2753 0 
L 2222 0 
L 2222 997 
L 147 997 
L 147 1434 
L 2163 4403 
L 2753 4403 
L 2753 1441 
L 3372 1441 
L 3372 997 
L 2753 997 
z
M 2222 3769 
Q 2216 3750 2134 3603 
Q 2053 3456 2013 3397 
L 884 1734 
L 716 1503 
L 666 1441 
L 2222 1441 
L 2222 3769 
z
" transform="scale(0.015625)"/>
       </defs>
       <use xlink:href="#LiberationSans-33"/>
       <use xlink:href="#LiberationSans-30" x="55.615234"/>
       <use xlink:href="#LiberationSans-30" x="111.230469"/>
       <use xlink:href="#LiberationSans-30" x="166.845703"/>
       <use xlink:href="#LiberationSans-2d" x="222.460938"/>
       <use xlink:href="#LiberationSans-34" x="255.761719"/>
       <use xlink:href="#LiberationSans-30" x="311.376953"/>
       <use xlink:href="#LiberationSans-30" x="366.992188"/>
       <use xlink:href="#LiberationSans-30" x="422.607422"/>
      </g>
     </g>
    </g>
    <g id="xtick_5">
     <g id="line2d_5"/>
     <g id="text_5">
      <!-- 4000-5000 -->
      <g style="fill: #262626" transform="translate(382.891406 360.746875)scale(0.1 -0.1)">
       <defs>
        <path id="LiberationSans-35" d="M 3291 1434 
Q 3291 738 2877 337 
Q 2463 -63 1728 -63 
Q 1113 -63 734 206 
Q 356 475 256 984 
L 825 1050 
Q 1003 397 1741 397 
Q 2194 397 2450 670 
Q 2706 944 2706 1422 
Q 2706 1838 2448 2094 
Q 2191 2350 1753 2350 
Q 1525 2350 1328 2278 
Q 1131 2206 934 2034 
L 384 2034 
L 531 4403 
L 3034 4403 
L 3034 3925 
L 1044 3925 
L 959 2528 
Q 1325 2809 1869 2809 
Q 2519 2809 2905 2428 
Q 3291 2047 3291 1434 
z
" transform="scale(0.015625)"/>
       </defs>
       <use xlink:href="#LiberationSans-34"/>
       <use xlink:href="#LiberationSans-30" x="55.615234"/>
       <use xlink:href="#LiberationSans-30" x="111.230469"/>
       <use xlink:href="#LiberationSans-30" x="166.845703"/>
       <use xlink:href="#LiberationSans-2d" x="222.460938"/>
       <use xlink:href="#LiberationSans-35" x="255.761719"/>
       <use xlink:href="#LiberationSans-30" x="311.376953"/>
       <use xlink:href="#LiberationSans-30" x="366.992188"/>
       <use xlink:href="#LiberationSans-30" x="422.607422"/>
      </g>
     </g>
    </g>
    <g id="xtick_6">
     <g id="line2d_6"/>
     <g id="text_6">
      <!-- 5000-6000 -->
      <g style="fill: #262626" transform="translate(457.291406 360.746875)scale(0.1 -0.1)">
       <defs>
        <path id="LiberationSans-36" d="M 3278 1441 
Q 3278 744 2900 340 
Q 2522 -63 1856 -63 
Q 1113 -63 719 490 
Q 325 1044 325 2100 
Q 325 3244 734 3856 
Q 1144 4469 1900 4469 
Q 2897 4469 3156 3572 
L 2619 3475 
Q 2453 4013 1894 4013 
Q 1413 4013 1148 3564 
Q 884 3116 884 2266 
Q 1038 2550 1316 2698 
Q 1594 2847 1953 2847 
Q 2563 2847 2920 2465 
Q 3278 2084 3278 1441 
z
M 2706 1416 
Q 2706 1894 2472 2153 
Q 2238 2413 1819 2413 
Q 1425 2413 1183 2183 
Q 941 1953 941 1550 
Q 941 1041 1192 716 
Q 1444 391 1838 391 
Q 2244 391 2475 664 
Q 2706 938 2706 1416 
z
" transform="scale(0.015625)"/>
       </defs>
       <use xlink:href="#LiberationSans-35"/>
       <use xlink:href="#LiberationSans-30" x="55.615234"/>
       <use xlink:href="#LiberationSans-30" x="111.230469"/>
       <use xlink:href="#LiberationSans-30" x="166.845703"/>
       <use xlink:href="#LiberationSans-2d" x="222.460938"/>
       <use xlink:href="#LiberationSans-36" x="255.761719"/>
       <use xlink:href="#LiberationSans-30" x="311.376953"/>
       <use xlink:href="#LiberationSans-30" x="366.992188"/>
       <use xlink:href="#LiberationSans-30" x="422.607422"/>
      </g>
     </g>
    </g>
    <g id="text_7">
     <!-- Zmin (m) -->
     <g style="fill: #262626" transform="translate(273.206875 374.793437)scale(0.11 -0.11)">
      <defs>
       <path id="LiberationSans-5a" d="M 3709 0 
L 203 0 
L 203 447 
L 2884 3916 
L 431 3916 
L 431 4403 
L 3563 4403 
L 3563 3969 
L 881 488 
L 3709 488 
L 3709 0 
z
" transform="scale(0.015625)"/>
       <path id="LiberationSans-6d" d="M 2400 0 
L 2400 2144 
Q 2400 2634 2265 2821 
Q 2131 3009 1781 3009 
Q 1422 3009 1212 2734 
Q 1003 2459 1003 1959 
L 1003 0 
L 444 0 
L 444 2659 
Q 444 3250 425 3381 
L 956 3381 
Q 959 3366 962 3297 
Q 966 3228 970 3139 
Q 975 3050 981 2803 
L 991 2803 
Q 1172 3163 1406 3303 
Q 1641 3444 1978 3444 
Q 2363 3444 2586 3291 
Q 2809 3138 2897 2803 
L 2906 2803 
Q 3081 3144 3329 3294 
Q 3578 3444 3931 3444 
Q 4444 3444 4676 3166 
Q 4909 2888 4909 2253 
L 4909 0 
L 4353 0 
L 4353 2144 
Q 4353 2634 4218 2821 
Q 4084 3009 3734 3009 
Q 3366 3009 3161 2736 
Q 2956 2463 2956 1959 
L 2956 0 
L 2400 0 
z
" transform="scale(0.015625)"/>
       <path id="LiberationSans-69" d="M 428 4100 
L 428 4638 
L 991 4638 
L 991 4100 
L 428 4100 
z
M 428 0 
L 428 3381 
L 991 3381 
L 991 0 
L 428 0 
z
" transform="scale(0.015625)"/>
       <path id="LiberationSans-6e" d="M 2578 0 
L 2578 2144 
Q 2578 2478 2512 2662 
Q 2447 2847 2303 2928 
Q 2159 3009 1881 3009 
Q 1475 3009 1240 2731 
Q 1006 2453 1006 1959 
L 1006 0 
L 444 0 
L 444 2659 
Q 444 3250 425 3381 
L 956 3381 
Q 959 3366 962 3297 
Q 966 3228 970 3139 
Q 975 3050 981 2803 
L 991 2803 
Q 1184 3153 1439 3298 
Q 1694 3444 2072 3444 
Q 2628 3444 2886 3167 
Q 3144 2891 3144 2253 
L 3144 0 
L 2578 0 
z
" transform="scale(0.015625)"/>
       <path id="LiberationSans-20" transform="scale(0.015625)"/>
       <path id="LiberationSans-28" d="M 397 1663 
Q 397 2566 680 3284 
Q 963 4003 1550 4638 
L 2094 4638 
Q 1509 3988 1236 3256 
Q 963 2525 963 1656 
Q 963 791 1233 62 
Q 1503 -666 2094 -1325 
L 1550 -1325 
Q 959 -688 678 32 
Q 397 753 397 1650 
L 397 1663 
z
" transform="scale(0.015625)"/>
       <path id="LiberationSans-29" d="M 1734 1650 
Q 1734 747 1451 28 
Q 1169 -691 581 -1325 
L 38 -1325 
Q 625 -669 897 57 
Q 1169 784 1169 1656 
Q 1169 2528 895 3256 
Q 622 3984 38 4638 
L 581 4638 
Q 1172 4000 1453 3279 
Q 1734 2559 1734 1663 
L 1734 1650 
z
" transform="scale(0.015625)"/>
      </defs>
      <use xlink:href="#LiberationSans-5a"/>
      <use xlink:href="#LiberationSans-6d" x="61.083984"/>
      <use xlink:href="#LiberationSans-69" x="144.384766"/>
      <use xlink:href="#LiberationSans-6e" x="166.601562"/>
      <use xlink:href="#LiberationSans-20" x="222.216797"/>
      <use xlink:href="#LiberationSans-28" x="250"/>
      <use xlink:href="#LiberationSans-6d" x="283.300781"/>
      <use xlink:href="#LiberationSans-29" x="366.601562"/>
     </g>
    </g>
   </g>
   <g id="matplotlib.axis_2">
    <g id="ytick_1">
     <g id="line2d_7">
      <path d="M 72 328.695131 
L 518.4 328.695131 
" clip-path="url(#pfc08125f23)" style="fill: none; stroke: #cccccc; stroke-linecap: round"/>
     </g>
     <g id="line2d_8"/>
     <g id="text_8">
      <!-- 0 -->
      <g style="fill: #262626" transform="translate(59.439062 332.318569)scale(0.1 -0.1)">
       <use xlink:href="#LiberationSans-30"/>
      </g>
     </g>
    </g>
    <g id="ytick_2">
     <g id="line2d_9">
      <path d="M 72 276.124455 
L 518.4 276.124455 
" clip-path="url(#pfc08125f23)" style="fill: none; stroke: #cccccc; stroke-linecap: round"/>
     </g>
     <g id="line2d_10"/>
     <g id="text_9">
      <!-- 2 -->
      <g style="fill: #262626" transform="translate(59.439062 279.747893)scale(0.1 -0.1)">
       <use xlink:href="#LiberationSans-32"/>
      </g>
     </g>
    </g>
    <g id="ytick_3">
     <g id="line2d_11">
      <path d="M 72 223.553779 
L 518.4 223.553779 
" clip-path="url(#pfc08125f23)" style="fill: none; stroke: #cccccc; stroke-linecap: round"/>
     </g>
     <g id="line2d_12"/>
     <g id="text_10">
      <!-- 4 -->
      <g style="fill: #262626" transform="translate(59.439062 227.177217)scale(0.1 -0.1)">
       <use xlink:href="#LiberationSans-34"/>
      </g>
     </g>
    </g>
    <g id="ytick_4">
     <g id="line2d_13">
      <path d="M 72 170.983103 
L 518.4 170.983103 
" clip-path="url(#pfc08125f23)" style="fill: none; stroke: #cccccc; stroke-linecap: round"/>
     </g>
     <g id="line2d_14"/>
     <g id="text_11">
      <!-- 6 -->
      <g style="fill: #262626" transform="translate(59.439062 174.606541)scale(0.1 -0.1)">
       <use xlink:href="#LiberationSans-36"/>
      </g>
     </g>
    </g>
    <g id="ytick_5">
     <g id="line2d_15">
      <path d="M 72 118.412427 
L 518.4 118.412427 
" clip-path="url(#pfc08125f23)" style="fill: none; stroke: #cccccc; stroke-linecap: round"/>
     </g>
     <g id="line2d_16"/>
     <g id="text_12">
      <!-- 8 -->
      <g style="fill: #262626" transform="translate(59.439062 122.035864)scale(0.1 -0.1)">
       <defs>
        <path id="LiberationSans-38" d="M 3281 1228 
Q 3281 619 2893 278 
Q 2506 -63 1781 -63 
Q 1075 -63 676 271 
Q 278 606 278 1222 
Q 278 1653 525 1947 
Q 772 2241 1156 2303 
L 1156 2316 
Q 797 2400 589 2681 
Q 381 2963 381 3341 
Q 381 3844 757 4156 
Q 1134 4469 1769 4469 
Q 2419 4469 2795 4162 
Q 3172 3856 3172 3334 
Q 3172 2956 2962 2675 
Q 2753 2394 2391 2322 
L 2391 2309 
Q 2813 2241 3047 1952 
Q 3281 1663 3281 1228 
z
M 2588 3303 
Q 2588 4050 1769 4050 
Q 1372 4050 1164 3862 
Q 956 3675 956 3303 
Q 956 2925 1170 2726 
Q 1384 2528 1775 2528 
Q 2172 2528 2380 2711 
Q 2588 2894 2588 3303 
z
M 2697 1281 
Q 2697 1691 2453 1898 
Q 2209 2106 1769 2106 
Q 1341 2106 1100 1882 
Q 859 1659 859 1269 
Q 859 359 1788 359 
Q 2247 359 2472 579 
Q 2697 800 2697 1281 
z
" transform="scale(0.015625)"/>
       </defs>
       <use xlink:href="#LiberationSans-38"/>
      </g>
     </g>
    </g>
    <g id="ytick_6">
     <g id="line2d_17">
      <path d="M 72 65.841751 
L 518.4 65.841751 
" clip-path="url(#pfc08125f23)" style="fill: none; stroke: #cccccc; stroke-linecap: round"/>
     </g>
     <g id="line2d_18"/>
     <g id="text_13">
      <!-- 10 -->
      <g style="fill: #262626" transform="translate(53.878125 69.465188)scale(0.1 -0.1)">
       <use xlink:href="#LiberationSans-31"/>
       <use xlink:href="#LiberationSans-30" x="55.615234"/>
      </g>
     </g>
    </g>
    <g id="text_14">
     <!-- Vol_Edasi / Vol_Farinotti -->
     <g style="fill: #262626" transform="translate(47.595625 256.628281)rotate(-90)scale(0.11 -0.11)">
      <defs>
       <path id="LiberationSans-56" d="M 2444 0 
L 1825 0 
L 28 4403 
L 656 4403 
L 1875 1303 
L 2138 525 
L 2400 1303 
L 3613 4403 
L 4241 4403 
L 2444 0 
z
" transform="scale(0.015625)"/>
       <path id="LiberationSans-6f" d="M 3291 1694 
Q 3291 806 2900 371 
Q 2509 -63 1766 -63 
Q 1025 -63 647 389 
Q 269 841 269 1694 
Q 269 3444 1784 3444 
Q 2559 3444 2925 3017 
Q 3291 2591 3291 1694 
z
M 2700 1694 
Q 2700 2394 2492 2711 
Q 2284 3028 1794 3028 
Q 1300 3028 1079 2704 
Q 859 2381 859 1694 
Q 859 1025 1076 689 
Q 1294 353 1759 353 
Q 2266 353 2483 678 
Q 2700 1003 2700 1694 
z
" transform="scale(0.015625)"/>
       <path id="LiberationSans-6c" d="M 431 0 
L 431 4638 
L 994 4638 
L 994 0 
L 431 0 
z
" transform="scale(0.015625)"/>
       <path id="LiberationSans-5f" d="M -97 -1272 
L -97 -866 
L 3631 -866 
L 3631 -1272 
L -97 -1272 
z
" transform="scale(0.015625)"/>
       <path id="LiberationSans-45" d="M 525 0 
L 525 4403 
L 3866 4403 
L 3866 3916 
L 1122 3916 
L 1122 2503 
L 3678 2503 
L 3678 2022 
L 1122 2022 
L 1122 488 
L 3994 488 
L 3994 0 
L 525 0 
z
" transform="scale(0.015625)"/>
       <path id="LiberationSans-64" d="M 2566 544 
Q 2409 219 2151 78 
Q 1894 -63 1513 -63 
Q 872 -63 570 368 
Q 269 800 269 1675 
Q 269 3444 1513 3444 
Q 1897 3444 2153 3303 
Q 2409 3163 2566 2856 
L 2572 2856 
L 2566 3234 
L 2566 4638 
L 3128 4638 
L 3128 697 
Q 3128 169 3147 0 
L 2609 0 
Q 2600 50 2589 231 
Q 2578 413 2578 544 
L 2566 544 
z
M 859 1694 
Q 859 984 1046 678 
Q 1234 372 1656 372 
Q 2134 372 2350 703 
Q 2566 1034 2566 1731 
Q 2566 2403 2350 2715 
Q 2134 3028 1663 3028 
Q 1238 3028 1048 2714 
Q 859 2400 859 1694 
z
" transform="scale(0.015625)"/>
       <path id="LiberationSans-61" d="M 1294 -63 
Q 784 -63 528 206 
Q 272 475 272 944 
Q 272 1469 617 1750 
Q 963 2031 1731 2050 
L 2491 2063 
L 2491 2247 
Q 2491 2659 2316 2837 
Q 2141 3016 1766 3016 
Q 1388 3016 1216 2887 
Q 1044 2759 1009 2478 
L 422 2531 
Q 566 3444 1778 3444 
Q 2416 3444 2737 3151 
Q 3059 2859 3059 2306 
L 3059 850 
Q 3059 600 3125 473 
Q 3191 347 3375 347 
Q 3456 347 3559 369 
L 3559 19 
Q 3347 -31 3125 -31 
Q 2813 -31 2670 133 
Q 2528 297 2509 647 
L 2491 647 
Q 2275 259 1989 98 
Q 1703 -63 1294 -63 
z
M 1422 359 
Q 1731 359 1972 500 
Q 2213 641 2352 886 
Q 2491 1131 2491 1391 
L 2491 1669 
L 1875 1656 
Q 1478 1650 1273 1575 
Q 1069 1500 959 1344 
Q 850 1188 850 934 
Q 850 659 998 509 
Q 1147 359 1422 359 
z
" transform="scale(0.015625)"/>
       <path id="LiberationSans-73" d="M 2969 934 
Q 2969 456 2608 196 
Q 2247 -63 1597 -63 
Q 966 -63 623 145 
Q 281 353 178 794 
L 675 891 
Q 747 619 972 492 
Q 1197 366 1597 366 
Q 2025 366 2223 497 
Q 2422 628 2422 891 
Q 2422 1091 2284 1216 
Q 2147 1341 1841 1422 
L 1438 1528 
Q 953 1653 748 1773 
Q 544 1894 428 2066 
Q 313 2238 313 2488 
Q 313 2950 642 3192 
Q 972 3434 1603 3434 
Q 2163 3434 2492 3237 
Q 2822 3041 2909 2606 
L 2403 2544 
Q 2356 2769 2151 2889 
Q 1947 3009 1603 3009 
Q 1222 3009 1040 2893 
Q 859 2778 859 2544 
Q 859 2400 934 2306 
Q 1009 2213 1156 2147 
Q 1303 2081 1775 1966 
Q 2222 1853 2419 1758 
Q 2616 1663 2730 1547 
Q 2844 1431 2906 1279 
Q 2969 1128 2969 934 
z
" transform="scale(0.015625)"/>
       <path id="LiberationSans-2f" d="M 0 -63 
L 1284 4638 
L 1778 4638 
L 506 -63 
L 0 -63 
z
" transform="scale(0.015625)"/>
       <path id="LiberationSans-46" d="M 1122 3916 
L 1122 2278 
L 3578 2278 
L 3578 1784 
L 1122 1784 
L 1122 0 
L 525 0 
L 525 4403 
L 3653 4403 
L 3653 3916 
L 1122 3916 
z
" transform="scale(0.015625)"/>
       <path id="LiberationSans-72" d="M 444 0 
L 444 2594 
Q 444 2950 425 3381 
L 956 3381 
Q 981 2806 981 2691 
L 994 2691 
Q 1128 3125 1303 3284 
Q 1478 3444 1797 3444 
Q 1909 3444 2025 3413 
L 2025 2897 
Q 1913 2928 1725 2928 
Q 1375 2928 1190 2626 
Q 1006 2325 1006 1763 
L 1006 0 
L 444 0 
z
" transform="scale(0.015625)"/>
       <path id="LiberationSans-74" d="M 1731 25 
Q 1453 -50 1163 -50 
Q 488 -50 488 716 
L 488 2972 
L 97 2972 
L 97 3381 
L 509 3381 
L 675 4138 
L 1050 4138 
L 1050 3381 
L 1675 3381 
L 1675 2972 
L 1050 2972 
L 1050 838 
Q 1050 594 1129 495 
Q 1209 397 1406 397 
Q 1519 397 1731 441 
L 1731 25 
z
" transform="scale(0.015625)"/>
      </defs>
      <use xlink:href="#LiberationSans-56"/>
      <use xlink:href="#LiberationSans-6f" x="61.199219"/>
      <use xlink:href="#LiberationSans-6c" x="116.814453"/>
      <use xlink:href="#LiberationSans-5f" x="139.03125"/>
      <use xlink:href="#LiberationSans-45" x="194.646484"/>
      <use xlink:href="#LiberationSans-64" x="261.345703"/>
      <use xlink:href="#LiberationSans-61" x="316.960938"/>
      <use xlink:href="#LiberationSans-73" x="372.576172"/>
      <use xlink:href="#LiberationSans-69" x="422.576172"/>
      <use xlink:href="#LiberationSans-20" x="444.792969"/>
      <use xlink:href="#LiberationSans-2f" x="472.576172"/>
      <use xlink:href="#LiberationSans-20" x="500.359375"/>
      <use xlink:href="#LiberationSans-56" x="528.142578"/>
      <use xlink:href="#LiberationSans-6f" x="589.341797"/>
      <use xlink:href="#LiberationSans-6c" x="644.957031"/>
      <use xlink:href="#LiberationSans-5f" x="667.173828"/>
      <use xlink:href="#LiberationSans-46" x="722.789062"/>
      <use xlink:href="#LiberationSans-61" x="783.873047"/>
      <use xlink:href="#LiberationSans-72" x="839.488281"/>
      <use xlink:href="#LiberationSans-69" x="872.789062"/>
      <use xlink:href="#LiberationSans-6e" x="895.005859"/>
      <use xlink:href="#LiberationSans-6f" x="950.621094"/>
      <use xlink:href="#LiberationSans-74" x="1006.236328"/>
      <use xlink:href="#LiberationSans-74" x="1034.019531"/>
      <use xlink:href="#LiberationSans-69" x="1061.802734"/>
     </g>
    </g>
   </g>
   <g id="PolyCollection_1">
    <defs>
     <path id="mc4edd5da64" d="M 109.205168 -63.09 
L 109.194832 -63.09 
L 109.148092 -65.835455 
L 108.90585 -68.580909 
L 108.165736 -71.326364 
L 106.717548 -74.071818 
L 104.543806 -76.817273 
L 101.377307 -79.562727 
L 96.707644 -82.308182 
L 90.701007 -85.053636 
L 85.286807 -87.799091 
L 82.902569 -90.544545 
L 84.143769 -93.29 
L 87.747611 -96.035455 
L 91.927833 -98.780909 
L 95.52452 -101.526364 
L 98.260325 -104.271818 
L 100.307455 -107.017273 
L 101.966122 -109.762727 
L 103.361329 -112.508182 
L 104.356056 -115.253636 
L 104.972064 -117.999091 
L 105.429869 -120.744545 
L 105.854694 -123.49 
L 106.246861 -126.235455 
L 106.567843 -128.980909 
L 106.836287 -131.726364 
L 107.120482 -134.471818 
L 107.426095 -137.217273 
L 107.664405 -139.962727 
L 107.84167 -142.708182 
L 107.991132 -145.453636 
L 108.119395 -148.199091 
L 108.26063 -150.944545 
L 108.404164 -153.69 
L 108.507483 -156.435455 
L 108.571526 -159.180909 
L 108.621069 -161.926364 
L 108.664357 -164.671818 
L 108.689116 -167.417273 
L 108.733563 -170.162727 
L 108.802339 -172.908182 
L 108.842217 -175.653636 
L 108.872623 -178.399091 
L 108.915114 -181.144545 
L 108.944961 -183.89 
L 108.958144 -186.635455 
L 108.969113 -189.380909 
L 108.988487 -192.126364 
L 109.007959 -194.871818 
L 109.025259 -197.617273 
L 109.045865 -200.362727 
L 109.071278 -203.108182 
L 109.095903 -205.853636 
L 109.101435 -208.599091 
L 109.087187 -211.344545 
L 109.076592 -214.09 
L 109.088796 -216.835455 
L 109.10512 -219.580909 
L 109.107284 -222.326364 
L 109.105014 -225.071818 
L 109.106368 -227.817273 
L 109.116762 -230.562727 
L 109.132774 -233.308182 
L 109.143477 -236.053636 
L 109.151816 -238.799091 
L 109.159639 -241.544545 
L 109.160626 -244.29 
L 109.155338 -247.035455 
L 109.153448 -249.780909 
L 109.158368 -252.526364 
L 109.162702 -255.271818 
L 109.158069 -258.017273 
L 109.150716 -260.762727 
L 109.147126 -263.508182 
L 109.147868 -266.253636 
L 109.149917 -268.999091 
L 109.153667 -271.744545 
L 109.158213 -274.49 
L 109.156612 -277.235455 
L 109.151102 -279.980909 
L 109.154585 -282.726364 
L 109.161733 -285.471818 
L 109.164152 -288.217273 
L 109.16423 -290.962727 
L 109.170156 -293.708182 
L 109.176967 -296.453636 
L 109.17254 -299.199091 
L 109.165792 -301.944545 
L 109.170293 -304.69 
L 109.178571 -307.435455 
L 109.180263 -310.180909 
L 109.176017 -312.926364 
L 109.172969 -315.671818 
L 109.173768 -318.417273 
L 109.178486 -321.162727 
L 109.183832 -323.908182 
L 109.186081 -326.653636 
L 109.19051 -329.399091 
L 109.196609 -332.144545 
L 109.199441 -334.89 
L 109.200559 -334.89 
L 109.200559 -334.89 
L 109.203391 -332.144545 
L 109.20949 -329.399091 
L 109.213919 -326.653636 
L 109.216168 -323.908182 
L 109.221514 -321.162727 
L 109.226232 -318.417273 
L 109.227031 -315.671818 
L 109.223983 -312.926364 
L 109.219737 -310.180909 
L 109.221429 -307.435455 
L 109.229707 -304.69 
L 109.234208 -301.944545 
L 109.22746 -299.199091 
L 109.223033 -296.453636 
L 109.229844 -293.708182 
L 109.23577 -290.962727 
L 109.235848 -288.217273 
L 109.238267 -285.471818 
L 109.245415 -282.726364 
L 109.248898 -279.980909 
L 109.243388 -277.235455 
L 109.241787 -274.49 
L 109.246333 -271.744545 
L 109.250083 -268.999091 
L 109.252132 -266.253636 
L 109.252874 -263.508182 
L 109.249284 -260.762727 
L 109.241931 -258.017273 
L 109.237298 -255.271818 
L 109.241632 -252.526364 
L 109.246552 -249.780909 
L 109.244662 -247.035455 
L 109.239374 -244.29 
L 109.240361 -241.544545 
L 109.248184 -238.799091 
L 109.256523 -236.053636 
L 109.267226 -233.308182 
L 109.283238 -230.562727 
L 109.293632 -227.817273 
L 109.294986 -225.071818 
L 109.292716 -222.326364 
L 109.29488 -219.580909 
L 109.311204 -216.835455 
L 109.323408 -214.09 
L 109.312813 -211.344545 
L 109.298565 -208.599091 
L 109.304097 -205.853636 
L 109.328722 -203.108182 
L 109.354135 -200.362727 
L 109.374741 -197.617273 
L 109.392041 -194.871818 
L 109.411513 -192.126364 
L 109.430887 -189.380909 
L 109.441856 -186.635455 
L 109.455039 -183.89 
L 109.484886 -181.144545 
L 109.527377 -178.399091 
L 109.557783 -175.653636 
L 109.597661 -172.908182 
L 109.666437 -170.162727 
L 109.710884 -167.417273 
L 109.735643 -164.671818 
L 109.778931 -161.926364 
L 109.828474 -159.180909 
L 109.892517 -156.435455 
L 109.995836 -153.69 
L 110.13937 -150.944545 
L 110.280605 -148.199091 
L 110.408868 -145.453636 
L 110.55833 -142.708182 
L 110.735595 -139.962727 
L 110.973905 -137.217273 
L 111.279518 -134.471818 
L 111.563713 -131.726364 
L 111.832157 -128.980909 
L 112.153139 -126.235455 
L 112.545306 -123.49 
L 112.970131 -120.744545 
L 113.427936 -117.999091 
L 114.043944 -115.253636 
L 115.038671 -112.508182 
L 116.433878 -109.762727 
L 118.092545 -107.017273 
L 120.139675 -104.271818 
L 122.87548 -101.526364 
L 126.472167 -98.780909 
L 130.652389 -96.035455 
L 134.256231 -93.29 
L 135.497431 -90.544545 
L 133.113193 -87.799091 
L 127.698993 -85.053636 
L 121.692356 -82.308182 
L 117.022693 -79.562727 
L 113.856194 -76.817273 
L 111.682452 -74.071818 
L 110.234264 -71.326364 
L 109.49415 -68.580909 
L 109.251908 -65.835455 
L 109.205168 -63.09 
z
" style="stroke: #313131; stroke-width: 1.75"/>
    </defs>
    <g clip-path="url(#pfc08125f23)">
     <use xlink:href="#mc4edd5da64" x="0" y="396" style="fill: #166a8e; stroke: #313131; stroke-width: 1.75"/>
    </g>
   </g>
   <g id="PolyCollection_2">
    <defs>
     <path id="m00a29ef448" d="M 183.601185 -65.288058 
L 183.598815 -65.288058 
L 183.588891 -67.827667 
L 183.547789 -70.367276 
L 183.434868 -72.906884 
L 183.057492 -75.446493 
L 181.674609 -77.986102 
L 177.774044 -80.525711 
L 170.341805 -83.065319 
L 161.654113 -85.604928 
L 155.810348 -88.144537 
L 153.84 -90.684146 
L 154.732347 -93.223754 
L 157.44744 -95.763363 
L 161.0454 -98.302972 
L 164.720134 -100.842581 
L 168.073745 -103.382189 
L 170.859016 -105.921798 
L 172.970601 -108.461407 
L 174.64135 -111.001016 
L 175.989556 -113.540624 
L 177.085827 -116.080233 
L 178.004694 -118.619842 
L 178.675383 -121.159451 
L 179.203178 -123.699059 
L 179.741261 -126.238668 
L 180.26095 -128.778277 
L 180.704458 -131.317886 
L 181.062772 -133.857494 
L 181.337036 -136.397103 
L 181.580608 -138.936712 
L 181.825881 -141.476321 
L 182.017988 -144.015929 
L 182.185689 -146.555538 
L 182.28721 -149.095147 
L 182.346808 -151.634756 
L 182.452117 -154.174365 
L 182.554824 -156.713973 
L 182.616263 -159.253582 
L 182.643816 -161.793191 
L 182.660399 -164.3328 
L 182.73247 -166.872408 
L 182.835569 -169.412017 
L 182.891818 -171.951626 
L 182.890999 -174.491235 
L 182.901665 -177.030843 
L 182.967489 -179.570452 
L 183.060826 -182.110061 
L 183.136011 -184.64967 
L 183.20495 -187.189278 
L 183.260424 -189.728887 
L 183.303277 -192.268496 
L 183.34156 -194.808105 
L 183.365716 -197.347713 
L 183.403217 -199.887322 
L 183.448825 -202.426931 
L 183.483929 -204.96654 
L 183.511214 -207.506148 
L 183.535455 -210.045757 
L 183.555822 -212.585366 
L 183.566198 -215.124975 
L 183.571822 -217.664583 
L 183.574575 -220.204192 
L 183.576299 -222.743801 
L 183.580911 -225.28341 
L 183.582027 -227.823018 
L 183.582253 -230.362627 
L 183.589024 -232.902236 
L 183.594269 -235.441845 
L 183.593123 -237.981454 
L 183.590504 -240.521062 
L 183.589993 -243.060671 
L 183.591187 -245.60028 
L 183.593078 -248.139889 
L 183.594504 -250.679497 
L 183.595841 -253.219106 
L 183.597974 -255.758715 
L 183.599591 -258.298324 
L 183.599948 -260.837932 
L 183.599597 -263.377541 
L 183.597647 -265.91715 
L 183.595068 -268.456759 
L 183.596097 -270.996367 
L 183.597948 -273.535976 
L 183.59736 -276.075585 
L 183.597932 -278.615194 
L 183.599454 -281.154802 
L 183.599808 -283.694411 
L 183.598911 -286.23402 
L 183.597415 -288.773629 
L 183.598028 -291.313237 
L 183.599517 -293.852846 
L 183.599962 -296.392455 
L 183.599999 -298.932064 
L 183.6 -301.471672 
L 183.599989 -304.011281 
L 183.599793 -306.55089 
L 183.598688 -309.090499 
L 183.597336 -311.630107 
L 183.598263 -314.169716 
L 183.599636 -316.709325 
L 183.600364 -316.709325 
L 183.600364 -316.709325 
L 183.601737 -314.169716 
L 183.602664 -311.630107 
L 183.601312 -309.090499 
L 183.600207 -306.55089 
L 183.600011 -304.011281 
L 183.6 -301.471672 
L 183.600001 -298.932064 
L 183.600038 -296.392455 
L 183.600483 -293.852846 
L 183.601972 -291.313237 
L 183.602585 -288.773629 
L 183.601089 -286.23402 
L 183.600192 -283.694411 
L 183.600546 -281.154802 
L 183.602068 -278.615194 
L 183.60264 -276.075585 
L 183.602052 -273.535976 
L 183.603903 -270.996367 
L 183.604932 -268.456759 
L 183.602353 -265.91715 
L 183.600403 -263.377541 
L 183.600052 -260.837932 
L 183.600409 -258.298324 
L 183.602026 -255.758715 
L 183.604159 -253.219106 
L 183.605496 -250.679497 
L 183.606922 -248.139889 
L 183.608813 -245.60028 
L 183.610007 -243.060671 
L 183.609496 -240.521062 
L 183.606877 -237.981454 
L 183.605731 -235.441845 
L 183.610976 -232.902236 
L 183.617747 -230.362627 
L 183.617973 -227.823018 
L 183.619089 -225.28341 
L 183.623701 -222.743801 
L 183.625425 -220.204192 
L 183.628178 -217.664583 
L 183.633802 -215.124975 
L 183.644178 -212.585366 
L 183.664545 -210.045757 
L 183.688786 -207.506148 
L 183.716071 -204.96654 
L 183.751175 -202.426931 
L 183.796783 -199.887322 
L 183.834284 -197.347713 
L 183.85844 -194.808105 
L 183.896723 -192.268496 
L 183.939576 -189.728887 
L 183.99505 -187.189278 
L 184.063989 -184.64967 
L 184.139174 -182.110061 
L 184.232511 -179.570452 
L 184.298335 -177.030843 
L 184.309001 -174.491235 
L 184.308182 -171.951626 
L 184.364431 -169.412017 
L 184.46753 -166.872408 
L 184.539601 -164.3328 
L 184.556184 -161.793191 
L 184.583737 -159.253582 
L 184.645176 -156.713973 
L 184.747883 -154.174365 
L 184.853192 -151.634756 
L 184.91279 -149.095147 
L 185.014311 -146.555538 
L 185.182012 -144.015929 
L 185.374119 -141.476321 
L 185.619392 -138.936712 
L 185.862964 -136.397103 
L 186.137228 -133.857494 
L 186.495542 -131.317886 
L 186.93905 -128.778277 
L 187.458739 -126.238668 
L 187.996822 -123.699059 
L 188.524617 -121.159451 
L 189.195306 -118.619842 
L 190.114173 -116.080233 
L 191.210444 -113.540624 
L 192.55865 -111.001016 
L 194.229399 -108.461407 
L 196.340984 -105.921798 
L 199.126255 -103.382189 
L 202.479866 -100.842581 
L 206.1546 -98.302972 
L 209.75256 -95.763363 
L 212.467653 -93.223754 
L 213.36 -90.684146 
L 211.389652 -88.144537 
L 205.545887 -85.604928 
L 196.858195 -83.065319 
L 189.425956 -80.525711 
L 185.525391 -77.986102 
L 184.142508 -75.446493 
L 183.765132 -72.906884 
L 183.652211 -70.367276 
L 183.611109 -67.827667 
L 183.601185 -65.288058 
z
" style="stroke: #313131; stroke-width: 1.75"/>
    </defs>
    <g clip-path="url(#pfc08125f23)">
     <use xlink:href="#m00a29ef448" x="0" y="396" style="fill: #9eba81; stroke: #313131; stroke-width: 1.75"/>
    </g>
   </g>
   <g id="PolyCollection_3">
    <defs>
     <path id="m4b616a6e4b" d="M 258.000826 -67.376463 
L 257.999174 -67.376463 
L 257.992494 -70.042076 
L 257.95035 -72.707689 
L 257.735752 -75.373302 
L 256.955632 -78.038915 
L 255.155164 -80.704529 
L 252.608844 -83.370142 
L 250.289185 -86.035755 
L 248.924375 -88.701368 
L 248.579278 -91.366981 
L 248.817403 -94.032594 
L 249.315033 -96.698208 
L 250.114466 -99.363821 
L 251.171289 -102.029434 
L 252.144047 -104.695047 
L 252.941621 -107.36066 
L 253.596383 -110.026273 
L 254.150543 -112.691887 
L 254.661169 -115.3575 
L 255.106191 -118.023113 
L 255.49956 -120.688726 
L 255.853956 -123.354339 
L 256.114003 -126.019953 
L 256.323717 -128.685566 
L 256.604696 -131.351179 
L 256.896359 -134.016792 
L 257.066342 -136.682405 
L 257.16354 -139.348018 
L 257.316289 -142.013632 
L 257.467705 -144.679245 
L 257.544348 -147.344858 
L 257.587222 -150.010471 
L 257.629415 -152.676084 
L 257.67021 -155.341698 
L 257.703846 -158.007311 
L 257.732397 -160.672924 
L 257.773856 -163.338537 
L 257.810117 -166.00415 
L 257.816117 -168.669763 
L 257.824856 -171.335377 
L 257.848894 -174.00099 
L 257.86682 -176.666603 
L 257.872571 -179.332216 
L 257.879669 -181.997829 
L 257.897074 -184.663442 
L 257.917497 -187.329056 
L 257.932692 -189.994669 
L 257.941956 -192.660282 
L 257.948249 -195.325895 
L 257.958464 -197.991508 
L 257.973462 -200.657122 
L 257.984817 -203.322735 
L 257.993297 -205.988348 
L 257.998443 -208.653961 
L 257.999845 -211.319574 
L 257.999994 -213.985187 
L 258 -216.650801 
L 258 -219.316414 
L 258 -221.982027 
L 258 -224.64764 
L 258 -227.313253 
L 257.999996 -229.978867 
L 257.999916 -232.64448 
L 257.999283 -235.310093 
L 257.997729 -237.975706 
L 257.997322 -240.641319 
L 257.998824 -243.306932 
L 257.999808 -245.972546 
L 257.999988 -248.638159 
L 258 -251.303772 
L 258 -253.969385 
L 257.999995 -256.634998 
L 257.999892 -259.300611 
L 257.999166 -261.966225 
L 257.997594 -264.631838 
L 257.997416 -267.297451 
L 257.998966 -269.963064 
L 257.999846 -272.628677 
L 257.999991 -275.294291 
L 257.999986 -277.959904 
L 257.999784 -280.625517 
L 257.998744 -283.29113 
L 257.997281 -285.956743 
L 257.997807 -288.622356 
L 257.999341 -291.28797 
L 257.999926 -293.953583 
L 257.999997 -296.619196 
L 258 -299.284809 
L 258 -301.950422 
L 258 -304.616035 
L 258 -307.281649 
L 258 -309.947262 
L 258 -312.612875 
L 257.999999 -315.278488 
L 257.999966 -317.944101 
L 257.999598 -320.609715 
L 257.998253 -323.275328 
L 257.997172 -325.940941 
L 257.998295 -328.606554 
L 257.999617 -331.272167 
L 258.000383 -331.272167 
L 258.000383 -331.272167 
L 258.001705 -328.606554 
L 258.002828 -325.940941 
L 258.001747 -323.275328 
L 258.000402 -320.609715 
L 258.000034 -317.944101 
L 258.000001 -315.278488 
L 258 -312.612875 
L 258 -309.947262 
L 258 -307.281649 
L 258 -304.616035 
L 258 -301.950422 
L 258 -299.284809 
L 258.000003 -296.619196 
L 258.000074 -293.953583 
L 258.000659 -291.28797 
L 258.002193 -288.622356 
L 258.002719 -285.956743 
L 258.001256 -283.29113 
L 258.000216 -280.625517 
L 258.000014 -277.959904 
L 258.000009 -275.294291 
L 258.000154 -272.628677 
L 258.001034 -269.963064 
L 258.002584 -267.297451 
L 258.002406 -264.631838 
L 258.000834 -261.966225 
L 258.000108 -259.300611 
L 258.000005 -256.634998 
L 258 -253.969385 
L 258 -251.303772 
L 258.000012 -248.638159 
L 258.000192 -245.972546 
L 258.001176 -243.306932 
L 258.002678 -240.641319 
L 258.002271 -237.975706 
L 258.000717 -235.310093 
L 258.000084 -232.64448 
L 258.000004 -229.978867 
L 258 -227.313253 
L 258 -224.64764 
L 258 -221.982027 
L 258 -219.316414 
L 258 -216.650801 
L 258.000006 -213.985187 
L 258.000155 -211.319574 
L 258.001557 -208.653961 
L 258.006703 -205.988348 
L 258.015183 -203.322735 
L 258.026538 -200.657122 
L 258.041536 -197.991508 
L 258.051751 -195.325895 
L 258.058044 -192.660282 
L 258.067308 -189.994669 
L 258.082503 -187.329056 
L 258.102926 -184.663442 
L 258.120331 -181.997829 
L 258.127429 -179.332216 
L 258.13318 -176.666603 
L 258.151106 -174.00099 
L 258.175144 -171.335377 
L 258.183883 -168.669763 
L 258.189883 -166.00415 
L 258.226144 -163.338537 
L 258.267603 -160.672924 
L 258.296154 -158.007311 
L 258.32979 -155.341698 
L 258.370585 -152.676084 
L 258.412778 -150.010471 
L 258.455652 -147.344858 
L 258.532295 -144.679245 
L 258.683711 -142.013632 
L 258.83646 -139.348018 
L 258.933658 -136.682405 
L 259.103641 -134.016792 
L 259.395304 -131.351179 
L 259.676283 -128.685566 
L 259.885997 -126.019953 
L 260.146044 -123.354339 
L 260.50044 -120.688726 
L 260.893809 -118.023113 
L 261.338831 -115.3575 
L 261.849457 -112.691887 
L 262.403617 -110.026273 
L 263.058379 -107.36066 
L 263.855953 -104.695047 
L 264.828711 -102.029434 
L 265.885534 -99.363821 
L 266.684967 -96.698208 
L 267.182597 -94.032594 
L 267.420722 -91.366981 
L 267.075625 -88.701368 
L 265.710815 -86.035755 
L 263.391156 -83.370142 
L 260.844836 -80.704529 
L 259.044368 -78.038915 
L 258.264248 -75.373302 
L 258.04965 -72.707689 
L 258.007506 -70.042076 
L 258.000826 -67.376463 
z
" style="stroke: #313131; stroke-width: 1.75"/>
    </defs>
    <g clip-path="url(#pfc08125f23)">
     <use xlink:href="#m4b616a6e4b" x="0" y="396" style="fill: #b1221c; stroke: #313131; stroke-width: 1.75"/>
    </g>
   </g>
   <g id="PolyCollection_4">
    <defs>
     <path id="m12fb326f79" d="M 332.402744 -72.869474 
L 332.397256 -72.869474 
L 332.38145 -74.757991 
L 332.336815 -76.646509 
L 332.259228 -78.535027 
L 332.146893 -80.423544 
L 331.993989 -82.312062 
L 331.696938 -84.20058 
L 331.004767 -86.089097 
L 329.75089 -87.977615 
L 327.766073 -89.866133 
L 325.082676 -91.75465 
L 322.489398 -93.643168 
L 320.749241 -95.531686 
L 319.891592 -97.420203 
L 319.546267 -99.308721 
L 319.625096 -101.197239 
L 320.025979 -103.085756 
L 320.560199 -104.974274 
L 321.228172 -106.862792 
L 321.998534 -108.751309 
L 322.84284 -110.639827 
L 323.579932 -112.528345 
L 324.164695 -114.416862 
L 324.797109 -116.30538 
L 325.488285 -118.193898 
L 326.177627 -120.082415 
L 326.878947 -121.970933 
L 327.59223 -123.859451 
L 328.170067 -125.747968 
L 328.722458 -127.636486 
L 329.389025 -129.525004 
L 330.000865 -131.413521 
L 330.384716 -133.302039 
L 330.630482 -135.190557 
L 330.923746 -137.079074 
L 331.239373 -138.967592 
L 331.487519 -140.85611 
L 331.659588 -142.744627 
L 331.774261 -144.633145 
L 331.851281 -146.521663 
L 331.941258 -148.41018 
L 332.041018 -150.298698 
L 332.116173 -152.187216 
L 332.176784 -154.075733 
L 332.223455 -155.964251 
L 332.258309 -157.852769 
L 332.29028 -159.741286 
L 332.307698 -161.629804 
L 332.313766 -163.518322 
L 332.319778 -165.406839 
L 332.332599 -167.295357 
L 332.350033 -169.183875 
L 332.363168 -171.072392 
L 332.367981 -172.96091 
L 332.367397 -174.849428 
L 332.370255 -176.737946 
L 332.380091 -178.626463 
L 332.385122 -180.514981 
L 332.384014 -182.403499 
L 332.387286 -184.292016 
L 332.394053 -186.180534 
L 332.397512 -188.069052 
L 332.396309 -189.957569 
L 332.395244 -191.846087 
L 332.39525 -193.734605 
L 332.396415 -195.623122 
L 332.398239 -197.51164 
L 332.396517 -199.400158 
L 332.39274 -201.288675 
L 332.394009 -203.177193 
L 332.398123 -205.065711 
L 332.399776 -206.954228 
L 332.399915 -208.842746 
L 332.399097 -210.731264 
L 332.395854 -212.619781 
L 332.392593 -214.508299 
L 332.394802 -216.396817 
L 332.398576 -218.285334 
L 332.39985 -220.173852 
L 332.399994 -222.06237 
L 332.4 -223.950887 
L 332.4 -225.839405 
L 332.4 -227.727923 
L 332.4 -229.61644 
L 332.4 -231.504958 
L 332.399993 -233.393476 
L 332.399825 -235.281993 
L 332.398332 -237.170511 
L 332.39418 -239.059029 
L 332.392533 -240.947546 
L 332.396477 -242.836064 
L 332.399389 -244.724582 
L 332.399961 -246.613099 
L 332.399998 -248.501617 
L 332.399965 -250.390135 
L 332.399529 -252.278652 
L 332.397731 -254.16717 
L 332.396095 -256.055688 
L 332.397597 -257.944205 
L 332.399471 -259.832723 
L 332.400529 -259.832723 
L 332.400529 -259.832723 
L 332.402403 -257.944205 
L 332.403905 -256.055688 
L 332.402269 -254.16717 
L 332.400471 -252.278652 
L 332.400035 -250.390135 
L 332.400002 -248.501617 
L 332.400039 -246.613099 
L 332.400611 -244.724582 
L 332.403523 -242.836064 
L 332.407467 -240.947546 
L 332.40582 -239.059029 
L 332.401668 -237.170511 
L 332.400175 -235.281993 
L 332.400007 -233.393476 
L 332.4 -231.504958 
L 332.4 -229.61644 
L 332.4 -227.727923 
L 332.4 -225.839405 
L 332.4 -223.950887 
L 332.400006 -222.06237 
L 332.40015 -220.173852 
L 332.401424 -218.285334 
L 332.405198 -216.396817 
L 332.407407 -214.508299 
L 332.404146 -212.619781 
L 332.400903 -210.731264 
L 332.400085 -208.842746 
L 332.400224 -206.954228 
L 332.401877 -205.065711 
L 332.405991 -203.177193 
L 332.40726 -201.288675 
L 332.403483 -199.400158 
L 332.401761 -197.51164 
L 332.403585 -195.623122 
L 332.40475 -193.734605 
L 332.404756 -191.846087 
L 332.403691 -189.957569 
L 332.402488 -188.069052 
L 332.405947 -186.180534 
L 332.412714 -184.292016 
L 332.415986 -182.403499 
L 332.414878 -180.514981 
L 332.419909 -178.626463 
L 332.429745 -176.737946 
L 332.432603 -174.849428 
L 332.432019 -172.96091 
L 332.436832 -171.072392 
L 332.449967 -169.183875 
L 332.467401 -167.295357 
L 332.480222 -165.406839 
L 332.486234 -163.518322 
L 332.492302 -161.629804 
L 332.50972 -159.741286 
L 332.541691 -157.852769 
L 332.576545 -155.964251 
L 332.623216 -154.075733 
L 332.683827 -152.187216 
L 332.758982 -150.298698 
L 332.858742 -148.41018 
L 332.948719 -146.521663 
L 333.025739 -144.633145 
L 333.140412 -142.744627 
L 333.312481 -140.85611 
L 333.560627 -138.967592 
L 333.876254 -137.079074 
L 334.169518 -135.190557 
L 334.415284 -133.302039 
L 334.799135 -131.413521 
L 335.410975 -129.525004 
L 336.077542 -127.636486 
L 336.629933 -125.747968 
L 337.20777 -123.859451 
L 337.921053 -121.970933 
L 338.622373 -120.082415 
L 339.311715 -118.193898 
L 340.002891 -116.30538 
L 340.635305 -114.416862 
L 341.220068 -112.528345 
L 341.95716 -110.639827 
L 342.801466 -108.751309 
L 343.571828 -106.862792 
L 344.239801 -104.974274 
L 344.774021 -103.085756 
L 345.174904 -101.197239 
L 345.253733 -99.308721 
L 344.908408 -97.420203 
L 344.050759 -95.531686 
L 342.310602 -93.643168 
L 339.717324 -91.75465 
L 337.033927 -89.866133 
L 335.04911 -87.977615 
L 333.795233 -86.089097 
L 333.103062 -84.20058 
L 332.806011 -82.312062 
L 332.653107 -80.423544 
L 332.540772 -78.535027 
L 332.463185 -76.646509 
L 332.41855 -74.757991 
L 332.402744 -72.869474 
z
" style="stroke: #313131; stroke-width: 1.75"/>
    </defs>
    <g clip-path="url(#pfc08125f23)">
     <use xlink:href="#m12fb326f79" x="0" y="396" style="fill: #911657; stroke: #313131; stroke-width: 1.75"/>
    </g>
   </g>
   <g id="PolyCollection_5">
    <defs>
     <path id="ma7a2f6a2d3" d="M 406.800686 -70.436314 
L 406.799314 -70.436314 
L 406.793611 -72.764965 
L 406.765806 -75.093615 
L 406.640422 -77.422265 
L 406.2452 -79.750915 
L 405.345717 -82.079566 
L 403.642827 -84.408216 
L 400.421778 -86.736866 
L 395.465557 -89.065516 
L 390.161397 -91.394167 
L 385.797596 -93.722817 
L 383.649142 -96.051467 
L 383.522364 -98.380117 
L 383.928944 -100.708768 
L 384.593334 -103.037418 
L 385.559624 -105.366068 
L 386.934608 -107.694718 
L 388.882033 -110.023369 
L 390.708463 -112.352019 
L 392.27725 -114.680669 
L 394.036601 -117.00932 
L 395.696495 -119.33797 
L 397.182846 -121.66662 
L 398.625264 -123.99527 
L 399.929866 -126.323921 
L 401.106499 -128.652571 
L 402.079728 -130.981221 
L 402.920347 -133.309871 
L 403.751848 -135.638522 
L 404.308464 -137.967172 
L 404.768674 -140.295822 
L 405.27212 -142.624472 
L 405.580778 -144.953123 
L 405.837585 -147.281773 
L 406.044643 -149.610423 
L 406.23093 -151.939074 
L 406.380556 -154.267724 
L 406.523863 -156.596374 
L 406.616482 -158.925024 
L 406.629944 -161.253675 
L 406.648699 -163.582325 
L 406.668414 -165.910975 
L 406.689282 -168.239625 
L 406.744363 -170.568276 
L 406.760382 -172.896926 
L 406.769747 -175.225576 
L 406.782037 -177.554226 
L 406.789326 -179.882877 
L 406.79217 -182.211527 
L 406.794468 -184.540177 
L 406.7973 -186.868827 
L 406.795627 -189.197478 
L 406.797208 -191.526128 
L 406.797751 -193.854778 
L 406.795476 -196.183429 
L 406.798468 -198.512079 
L 406.799922 -200.840729 
L 406.799998 -203.169379 
L 406.79986 -205.49803 
L 406.797948 -207.82668 
L 406.795489 -210.15533 
L 406.798512 -212.48398 
L 406.799926 -214.812631 
L 406.799999 -217.141281 
L 406.8 -219.469931 
L 406.8 -221.798581 
L 406.8 -224.127232 
L 406.8 -226.455882 
L 406.8 -228.784532 
L 406.8 -231.113183 
L 406.8 -233.441833 
L 406.8 -235.770483 
L 406.8 -238.099133 
L 406.8 -240.427784 
L 406.8 -242.756434 
L 406.8 -245.085084 
L 406.8 -247.413734 
L 406.8 -249.742385 
L 406.8 -252.071035 
L 406.799948 -254.399685 
L 406.798755 -256.728335 
L 406.795142 -259.056986 
L 406.792598 -261.385636 
L 406.791112 -263.714286 
L 406.797737 -266.042936 
L 406.799912 -268.371587 
L 406.799999 -270.700237 
L 406.8 -273.028887 
L 406.8 -275.357538 
L 406.8 -277.686188 
L 406.8 -280.014838 
L 406.8 -282.343488 
L 406.8 -284.672139 
L 406.8 -287.000789 
L 406.8 -289.329439 
L 406.79999 -291.658089 
L 406.799532 -293.98674 
L 406.796583 -296.31539 
L 406.796259 -298.64404 
L 406.799385 -300.97269 
L 406.800615 -300.97269 
L 406.800615 -300.97269 
L 406.803741 -298.64404 
L 406.803417 -296.31539 
L 406.800468 -293.98674 
L 406.80001 -291.658089 
L 406.8 -289.329439 
L 406.8 -287.000789 
L 406.8 -284.672139 
L 406.8 -282.343488 
L 406.8 -280.014838 
L 406.8 -277.686188 
L 406.8 -275.357538 
L 406.8 -273.028887 
L 406.800001 -270.700237 
L 406.800088 -268.371587 
L 406.802263 -266.042936 
L 406.808888 -263.714286 
L 406.807402 -261.385636 
L 406.804858 -259.056986 
L 406.801245 -256.728335 
L 406.800052 -254.399685 
L 406.8 -252.071035 
L 406.8 -249.742385 
L 406.8 -247.413734 
L 406.8 -245.085084 
L 406.8 -242.756434 
L 406.8 -240.427784 
L 406.8 -238.099133 
L 406.8 -235.770483 
L 406.8 -233.441833 
L 406.8 -231.113183 
L 406.8 -228.784532 
L 406.8 -226.455882 
L 406.8 -224.127232 
L 406.8 -221.798581 
L 406.8 -219.469931 
L 406.800001 -217.141281 
L 406.800074 -214.812631 
L 406.801488 -212.48398 
L 406.804511 -210.15533 
L 406.802052 -207.82668 
L 406.80014 -205.49803 
L 406.800002 -203.169379 
L 406.800078 -200.840729 
L 406.801532 -198.512079 
L 406.804524 -196.183429 
L 406.802249 -193.854778 
L 406.802792 -191.526128 
L 406.804373 -189.197478 
L 406.8027 -186.868827 
L 406.805532 -184.540177 
L 406.80783 -182.211527 
L 406.810674 -179.882877 
L 406.817963 -177.554226 
L 406.830253 -175.225576 
L 406.839618 -172.896926 
L 406.855637 -170.568276 
L 406.910718 -168.239625 
L 406.931586 -165.910975 
L 406.951301 -163.582325 
L 406.970056 -161.253675 
L 406.983518 -158.925024 
L 407.076137 -156.596374 
L 407.219444 -154.267724 
L 407.36907 -151.939074 
L 407.555357 -149.610423 
L 407.762415 -147.281773 
L 408.019222 -144.953123 
L 408.32788 -142.624472 
L 408.831326 -140.295822 
L 409.291536 -137.967172 
L 409.848152 -135.638522 
L 410.679653 -133.309871 
L 411.520272 -130.981221 
L 412.493501 -128.652571 
L 413.670134 -126.323921 
L 414.974736 -123.99527 
L 416.417154 -121.66662 
L 417.903505 -119.33797 
L 419.563399 -117.00932 
L 421.32275 -114.680669 
L 422.891537 -112.352019 
L 424.717967 -110.023369 
L 426.665392 -107.694718 
L 428.040376 -105.366068 
L 429.006666 -103.037418 
L 429.671056 -100.708768 
L 430.077636 -98.380117 
L 429.950858 -96.051467 
L 427.802404 -93.722817 
L 423.438603 -91.394167 
L 418.134443 -89.065516 
L 413.178222 -86.736866 
L 409.957173 -84.408216 
L 408.254283 -82.079566 
L 407.3548 -79.750915 
L 406.959578 -77.422265 
L 406.834194 -75.093615 
L 406.806389 -72.764965 
L 406.800686 -70.436314 
z
" style="stroke: #313131; stroke-width: 1.75"/>
    </defs>
    <g clip-path="url(#pfc08125f23)">
     <use xlink:href="#ma7a2f6a2d3" x="0" y="396" style="fill: #bcb11d; stroke: #313131; stroke-width: 1.75"/>
    </g>
   </g>
   <g id="PolyCollection_6">
    <defs>
     <path id="m455e8659a8" d="M 481.20113 -71.030526 
L 481.19887 -71.030526 
L 481.193931 -72.571185 
L 481.176563 -74.111843 
L 481.126497 -75.652502 
L 481.000201 -77.19316 
L 480.728309 -78.733819 
L 480.222232 -80.274477 
L 479.344797 -81.815136 
L 477.857708 -83.355794 
L 475.480864 -84.896453 
L 472.17742 -86.437111 
L 468.304628 -87.97777 
L 464.449244 -89.518429 
L 461.207329 -91.059087 
L 458.84058 -92.599746 
L 457.136509 -94.140404 
L 455.735915 -95.681063 
L 454.620179 -97.221721 
L 453.989934 -98.76238 
L 453.835447 -100.303038 
L 454.025116 -101.843697 
L 454.348157 -103.384355 
L 454.593636 -104.925014 
L 454.818718 -106.465673 
L 455.241141 -108.006331 
L 455.963001 -109.54699 
L 456.875619 -111.087648 
L 457.892293 -112.628307 
L 459.027746 -114.168965 
L 460.192407 -115.709624 
L 461.322226 -117.250282 
L 462.37894 -118.790941 
L 463.343156 -120.331599 
L 464.347386 -121.872258 
L 465.48923 -123.412917 
L 466.773447 -124.953575 
L 468.041364 -126.494234 
L 469.032816 -128.034892 
L 469.783446 -129.575551 
L 470.559385 -131.116209 
L 471.474368 -132.656868 
L 472.411812 -134.197526 
L 473.240334 -135.738185 
L 473.953319 -137.278843 
L 474.612532 -138.819502 
L 475.284147 -140.36016 
L 475.990983 -141.900819 
L 476.69233 -143.441478 
L 477.327018 -144.982136 
L 477.86903 -146.522795 
L 478.31042 -148.063453 
L 478.662924 -149.604112 
L 478.971823 -151.14477 
L 479.240181 -152.685429 
L 479.469706 -154.226087 
L 479.705554 -155.766746 
L 479.938743 -157.307404 
L 480.120861 -158.848063 
L 480.246558 -160.388722 
L 480.340872 -161.92938 
L 480.434719 -163.470039 
L 480.542505 -165.010697 
L 480.655605 -166.551356 
L 480.74439 -168.092014 
L 480.795422 -169.632673 
L 480.841699 -171.173331 
L 480.900899 -172.71399 
L 480.955023 -174.254648 
L 481.004395 -175.795307 
L 481.056012 -177.335966 
L 481.091813 -178.876624 
L 481.100837 -180.417283 
L 481.104431 -181.957941 
L 481.122832 -183.4986 
L 481.148931 -185.039258 
L 481.16527 -186.579917 
L 481.166727 -188.120575 
L 481.159338 -189.661234 
L 481.152872 -191.201892 
L 481.156405 -192.742551 
L 481.169054 -194.28321 
L 481.18195 -195.823868 
L 481.189818 -197.364527 
L 481.191436 -198.905185 
L 481.187557 -200.445844 
L 481.183076 -201.986502 
L 481.18466 -203.527161 
L 481.19173 -205.067819 
L 481.197186 -206.608478 
L 481.198069 -208.149136 
L 481.196223 -209.689795 
L 481.195071 -211.230454 
L 481.196517 -212.771112 
L 481.198575 -214.311771 
L 481.199003 -215.852429 
L 481.197462 -217.393088 
L 481.195396 -218.933746 
L 481.195482 -220.474405 
L 481.197626 -222.015063 
L 481.199333 -223.555722 
L 481.200667 -223.555722 
L 481.200667 -223.555722 
L 481.202374 -222.015063 
L 481.204518 -220.474405 
L 481.204604 -218.933746 
L 481.202538 -217.393088 
L 481.200997 -215.852429 
L 481.201425 -214.311771 
L 481.203483 -212.771112 
L 481.204929 -211.230454 
L 481.203777 -209.689795 
L 481.201931 -208.149136 
L 481.202814 -206.608478 
L 481.20827 -205.067819 
L 481.21534 -203.527161 
L 481.216924 -201.986502 
L 481.212443 -200.445844 
L 481.208564 -198.905185 
L 481.210182 -197.364527 
L 481.21805 -195.823868 
L 481.230946 -194.28321 
L 481.243595 -192.742551 
L 481.247128 -191.201892 
L 481.240662 -189.661234 
L 481.233273 -188.120575 
L 481.23473 -186.579917 
L 481.251069 -185.039258 
L 481.277168 -183.4986 
L 481.295569 -181.957941 
L 481.299163 -180.417283 
L 481.308187 -178.876624 
L 481.343988 -177.335966 
L 481.395605 -175.795307 
L 481.444977 -174.254648 
L 481.499101 -172.71399 
L 481.558301 -171.173331 
L 481.604578 -169.632673 
L 481.65561 -168.092014 
L 481.744395 -166.551356 
L 481.857495 -165.010697 
L 481.965281 -163.470039 
L 482.059128 -161.92938 
L 482.153442 -160.388722 
L 482.279139 -158.848063 
L 482.461257 -157.307404 
L 482.694446 -155.766746 
L 482.930294 -154.226087 
L 483.159819 -152.685429 
L 483.428177 -151.14477 
L 483.737076 -149.604112 
L 484.08958 -148.063453 
L 484.53097 -146.522795 
L 485.072982 -144.982136 
L 485.70767 -143.441478 
L 486.409017 -141.900819 
L 487.115853 -140.36016 
L 487.787468 -138.819502 
L 488.446681 -137.278843 
L 489.159666 -135.738185 
L 489.988188 -134.197526 
L 490.925632 -132.656868 
L 491.840615 -131.116209 
L 492.616554 -129.575551 
L 493.367184 -128.034892 
L 494.358636 -126.494234 
L 495.626553 -124.953575 
L 496.91077 -123.412917 
L 498.052614 -121.872258 
L 499.056844 -120.331599 
L 500.02106 -118.790941 
L 501.077774 -117.250282 
L 502.207593 -115.709624 
L 503.372254 -114.168965 
L 504.507707 -112.628307 
L 505.524381 -111.087648 
L 506.436999 -109.54699 
L 507.158859 -108.006331 
L 507.581282 -106.465673 
L 507.806364 -104.925014 
L 508.051843 -103.384355 
L 508.374884 -101.843697 
L 508.564553 -100.303038 
L 508.410066 -98.76238 
L 507.779821 -97.221721 
L 506.664085 -95.681063 
L 505.263491 -94.140404 
L 503.55942 -92.599746 
L 501.192671 -91.059087 
L 497.950756 -89.518429 
L 494.095372 -87.97777 
L 490.22258 -86.437111 
L 486.919136 -84.896453 
L 484.542292 -83.355794 
L 483.055203 -81.815136 
L 482.177768 -80.274477 
L 481.671691 -78.733819 
L 481.399799 -77.19316 
L 481.273503 -75.652502 
L 481.223437 -74.111843 
L 481.206069 -72.571185 
L 481.20113 -71.030526 
z
" style="stroke: #313131; stroke-width: 1.75"/>
    </defs>
    <g clip-path="url(#pfc08125f23)">
     <use xlink:href="#m455e8659a8" x="0" y="396" style="fill: #92c4d0; stroke: #313131; stroke-width: 1.75"/>
    </g>
   </g>
   <g id="line2d_19">
    <path d="M 109.2 327.226303 
L 109.2 263.307796 
" clip-path="url(#pfc08125f23)" style="fill: none; stroke: #313131; stroke-width: 1.75; stroke-linecap: round"/>
   </g>
   <g id="line2d_20">
    <path d="M 109.2 307.527744 
L 109.2 289.838945 
" clip-path="url(#pfc08125f23)" style="fill: none; stroke: #313131; stroke-width: 5.25; stroke-linecap: round"/>
   </g>
   <g id="line2d_21">
    <path d="M 183.6 325.946986 
L 183.6 258.918022 
" clip-path="url(#pfc08125f23)" style="fill: none; stroke: #313131; stroke-width: 1.75; stroke-linecap: round"/>
   </g>
   <g id="line2d_22">
    <path d="M 183.6 305.991797 
L 183.6 287.161758 
" clip-path="url(#pfc08125f23)" style="fill: none; stroke: #313131; stroke-width: 5.25; stroke-linecap: round"/>
   </g>
   <g id="line2d_23">
    <path d="M 258 323.259359 
L 258 253.848237 
" clip-path="url(#pfc08125f23)" style="fill: none; stroke: #313131; stroke-width: 1.75; stroke-linecap: round"/>
   </g>
   <g id="line2d_24">
    <path d="M 258 305.546981 
L 258 284.860671 
" clip-path="url(#pfc08125f23)" style="fill: none; stroke: #313131; stroke-width: 5.25; stroke-linecap: round"/>
   </g>
   <g id="line2d_25">
    <path d="M 332.4 319.406187 
L 332.4 252.535267 
" clip-path="url(#pfc08125f23)" style="fill: none; stroke: #313131; stroke-width: 1.75; stroke-linecap: round"/>
   </g>
   <g id="line2d_26">
    <path d="M 332.4 297.631639 
L 332.4 279.574979 
" clip-path="url(#pfc08125f23)" style="fill: none; stroke: #313131; stroke-width: 5.25; stroke-linecap: round"/>
   </g>
   <g id="line2d_27">
    <path d="M 406.8 322.182133 
L 406.8 252.860901 
" clip-path="url(#pfc08125f23)" style="fill: none; stroke: #313131; stroke-width: 1.75; stroke-linecap: round"/>
   </g>
   <g id="line2d_28">
    <path d="M 406.8 299.201902 
L 406.8 280.662189 
" clip-path="url(#pfc08125f23)" style="fill: none; stroke: #313131; stroke-width: 5.25; stroke-linecap: round"/>
   </g>
   <g id="line2d_29">
    <path d="M 481.2 321.072253 
L 481.2 240.730572 
" clip-path="url(#pfc08125f23)" style="fill: none; stroke: #313131; stroke-width: 1.75; stroke-linecap: round"/>
   </g>
   <g id="line2d_30">
    <path d="M 481.2 297.568368 
L 481.2 274.831813 
" clip-path="url(#pfc08125f23)" style="fill: none; stroke: #313131; stroke-width: 5.25; stroke-linecap: round"/>
   </g>
   <g id="line2d_31">
    <path d="M 72 302.409793 
L 518.4 302.409793 
" clip-path="url(#pfc08125f23)" style="fill: none; stroke-dasharray: 6.475,2.8; stroke-dashoffset: 0; stroke: #ff0000; stroke-width: 1.75"/>
   </g>
   <g id="patch_3">
    <path d="M 72 346.5 
L 72 47.52 
" style="fill: none; stroke: #cccccc; stroke-width: 1.25; stroke-linejoin: miter; stroke-linecap: square"/>
   </g>
   <g id="patch_4">
    <path d="M 518.4 346.5 
L 518.4 47.52 
" style="fill: none; stroke: #cccccc; stroke-width: 1.25; stroke-linejoin: miter; stroke-linecap: square"/>
   </g>
   <g id="patch_5">
    <path d="M 72 346.5 
L 518.4 346.5 
" style="fill: none; stroke: #cccccc; stroke-width: 1.25; stroke-linejoin: miter; stroke-linecap: square"/>
   </g>
   <g id="patch_6">
    <path d="M 72 47.52 
L 518.4 47.52 
" style="fill: none; stroke: #cccccc; stroke-width: 1.25; stroke-linejoin: miter; stroke-linecap: square"/>
   </g>
   <g id="PathCollection_1">
    <defs>
     <path id="m3b5c67683f" d="M 0 1.75 
C 0.464105 1.75 0.909265 1.565609 1.237437 1.237437 
C 1.565609 0.909265 1.75 0.464105 1.75 0 
C 1.75 -0.464105 1.565609 -0.909265 1.237437 -1.237437 
C 0.909265 -1.565609 0.464105 -1.75 0 -1.75 
C -0.464105 -1.75 -0.909265 -1.565609 -1.237437 -1.237437 
C -1.565609 -0.909265 -1.75 -0.464105 -1.75 0 
C -1.75 0.464105 -1.565609 0.909265 -1.237437 1.237437 
C -0.909265 1.565609 -0.464105 1.75 0 1.75 
z
" style="stroke: #313131; stroke-width: 0.3"/>
    </defs>
    <g clip-path="url(#pfc08125f23)">
     <use xlink:href="#m3b5c67683f" x="109.2" y="301.22197" style="fill: #ffffff; stroke: #313131; stroke-width: 0.3"/>
    </g>
   </g>
   <g id="PathCollection_2">
    <g clip-path="url(#pfc08125f23)">
     <use xlink:href="#m3b5c67683f" x="183.6" y="299.16573" style="fill: #ffffff; stroke: #313131; stroke-width: 0.3"/>
    </g>
   </g>
   <g id="PathCollection_3">
    <g clip-path="url(#pfc08125f23)">
     <use xlink:href="#m3b5c67683f" x="258" y="297.517625" style="fill: #ffffff; stroke: #313131; stroke-width: 0.3"/>
    </g>
   </g>
   <g id="PathCollection_4">
    <g clip-path="url(#pfc08125f23)">
     <use xlink:href="#m3b5c67683f" x="332.4" y="289.917268" style="fill: #ffffff; stroke: #313131; stroke-width: 0.3"/>
    </g>
   </g>
   <g id="PathCollection_5">
    <g clip-path="url(#pfc08125f23)">
     <use xlink:href="#m3b5c67683f" x="406.8" y="291.054305" style="fill: #ffffff; stroke: #313131; stroke-width: 0.3"/>
    </g>
   </g>
   <g id="PathCollection_6">
    <g clip-path="url(#pfc08125f23)">
     <use xlink:href="#m3b5c67683f" x="481.2" y="287.421166" style="fill: #ffffff; stroke: #313131; stroke-width: 0.3"/>
    </g>
   </g>
   <g id="text_15">
    <!-- Volume Comparison Vol_Edasi / Vol_Farinotti against Zmin -->
    <g style="fill: #262626" transform="translate(138.458438 41.52)scale(0.12 -0.12)">
     <defs>
      <path id="LiberationSans-75" d="M 981 3381 
L 981 1238 
Q 981 903 1047 718 
Q 1113 534 1256 453 
Q 1400 372 1678 372 
Q 2084 372 2318 650 
Q 2553 928 2553 1422 
L 2553 3381 
L 3116 3381 
L 3116 722 
Q 3116 131 3134 0 
L 2603 0 
Q 2600 16 2597 84 
Q 2594 153 2589 242 
Q 2584 331 2578 578 
L 2569 578 
Q 2375 228 2120 82 
Q 1866 -63 1488 -63 
Q 931 -63 673 214 
Q 416 491 416 1128 
L 416 3381 
L 981 3381 
z
" transform="scale(0.015625)"/>
      <path id="LiberationSans-65" d="M 863 1572 
Q 863 991 1103 675 
Q 1344 359 1806 359 
Q 2172 359 2392 506 
Q 2613 653 2691 878 
L 3184 738 
Q 2881 -63 1806 -63 
Q 1056 -63 664 384 
Q 272 831 272 1713 
Q 272 2550 664 2997 
Q 1056 3444 1784 3444 
Q 3275 3444 3275 1647 
L 3275 1572 
L 863 1572 
z
M 2694 2003 
Q 2647 2538 2422 2783 
Q 2197 3028 1775 3028 
Q 1366 3028 1127 2754 
Q 888 2481 869 2003 
L 2694 2003 
z
" transform="scale(0.015625)"/>
      <path id="LiberationSans-43" d="M 2475 3981 
Q 1744 3981 1337 3511 
Q 931 3041 931 2222 
Q 931 1413 1354 920 
Q 1778 428 2500 428 
Q 3425 428 3891 1344 
L 4378 1100 
Q 4106 531 3614 234 
Q 3122 -63 2472 -63 
Q 1806 -63 1320 214 
Q 834 491 579 1005 
Q 325 1519 325 2222 
Q 325 3275 894 3872 
Q 1463 4469 2469 4469 
Q 3172 4469 3644 4194 
Q 4116 3919 4338 3378 
L 3772 3191 
Q 3619 3575 3280 3778 
Q 2941 3981 2475 3981 
z
" transform="scale(0.015625)"/>
      <path id="LiberationSans-70" d="M 3291 1706 
Q 3291 -63 2047 -63 
Q 1266 -63 997 525 
L 981 525 
Q 994 500 994 -6 
L 994 -1328 
L 431 -1328 
L 431 2691 
Q 431 3213 413 3381 
L 956 3381 
Q 959 3369 965 3292 
Q 972 3216 980 3056 
Q 988 2897 988 2838 
L 1000 2838 
Q 1150 3150 1397 3295 
Q 1644 3441 2047 3441 
Q 2672 3441 2981 3022 
Q 3291 2603 3291 1706 
z
M 2700 1694 
Q 2700 2400 2509 2703 
Q 2319 3006 1903 3006 
Q 1569 3006 1380 2865 
Q 1191 2725 1092 2426 
Q 994 2128 994 1650 
Q 994 984 1206 668 
Q 1419 353 1897 353 
Q 2316 353 2508 661 
Q 2700 969 2700 1694 
z
" transform="scale(0.015625)"/>
      <path id="LiberationSans-67" d="M 1713 -1328 
Q 1159 -1328 831 -1111 
Q 503 -894 409 -494 
L 975 -413 
Q 1031 -647 1223 -773 
Q 1416 -900 1728 -900 
Q 2569 -900 2569 84 
L 2569 628 
L 2563 628 
Q 2403 303 2125 139 
Q 1847 -25 1475 -25 
Q 853 -25 561 387 
Q 269 800 269 1684 
Q 269 2581 583 3007 
Q 897 3434 1538 3434 
Q 1897 3434 2161 3270 
Q 2425 3106 2569 2803 
L 2575 2803 
Q 2575 2897 2587 3128 
Q 2600 3359 2613 3381 
L 3147 3381 
Q 3128 3213 3128 2681 
L 3128 97 
Q 3128 -1328 1713 -1328 
z
M 2569 1691 
Q 2569 2103 2456 2401 
Q 2344 2700 2139 2858 
Q 1934 3016 1675 3016 
Q 1244 3016 1047 2703 
Q 850 2391 850 1691 
Q 850 997 1034 694 
Q 1219 391 1666 391 
Q 1931 391 2137 547 
Q 2344 703 2456 995 
Q 2569 1288 2569 1691 
z
" transform="scale(0.015625)"/>
     </defs>
     <use xlink:href="#LiberationSans-56"/>
     <use xlink:href="#LiberationSans-6f" x="61.199219"/>
     <use xlink:href="#LiberationSans-6c" x="116.814453"/>
     <use xlink:href="#LiberationSans-75" x="139.03125"/>
     <use xlink:href="#LiberationSans-6d" x="194.646484"/>
     <use xlink:href="#LiberationSans-65" x="277.947266"/>
     <use xlink:href="#LiberationSans-20" x="333.5625"/>
     <use xlink:href="#LiberationSans-43" x="361.345703"/>
     <use xlink:href="#LiberationSans-6f" x="433.5625"/>
     <use xlink:href="#LiberationSans-6d" x="489.177734"/>
     <use xlink:href="#LiberationSans-70" x="572.478516"/>
     <use xlink:href="#LiberationSans-61" x="628.09375"/>
     <use xlink:href="#LiberationSans-72" x="683.708984"/>
     <use xlink:href="#LiberationSans-69" x="717.009766"/>
     <use xlink:href="#LiberationSans-73" x="739.226562"/>
     <use xlink:href="#LiberationSans-6f" x="789.226562"/>
     <use xlink:href="#LiberationSans-6e" x="844.841797"/>
     <use xlink:href="#LiberationSans-20" x="900.457031"/>
     <use xlink:href="#LiberationSans-56" x="928.240234"/>
     <use xlink:href="#LiberationSans-6f" x="989.439453"/>
     <use xlink:href="#LiberationSans-6c" x="1045.054688"/>
     <use xlink:href="#LiberationSans-5f" x="1067.271484"/>
     <use xlink:href="#LiberationSans-45" x="1122.886719"/>
     <use xlink:href="#LiberationSans-64" x="1189.585938"/>
     <use xlink:href="#LiberationSans-61" x="1245.201172"/>
     <use xlink:href="#LiberationSans-73" x="1300.816406"/>
     <use xlink:href="#LiberationSans-69" x="1350.816406"/>
     <use xlink:href="#LiberationSans-20" x="1373.033203"/>
     <use xlink:href="#LiberationSans-2f" x="1400.816406"/>
     <use xlink:href="#LiberationSans-20" x="1428.599609"/>
     <use xlink:href="#LiberationSans-56" x="1456.382812"/>
     <use xlink:href="#LiberationSans-6f" x="1517.582031"/>
     <use xlink:href="#LiberationSans-6c" x="1573.197266"/>
     <use xlink:href="#LiberationSans-5f" x="1595.414062"/>
     <use xlink:href="#LiberationSans-46" x="1651.029297"/>
     <use xlink:href="#LiberationSans-61" x="1712.113281"/>
     <use xlink:href="#LiberationSans-72" x="1767.728516"/>
     <use xlink:href="#LiberationSans-69" x="1801.029297"/>
     <use xlink:href="#LiberationSans-6e" x="1823.246094"/>
     <use xlink:href="#LiberationSans-6f" x="1878.861328"/>
     <use xlink:href="#LiberationSans-74" x="1934.476562"/>
     <use xlink:href="#LiberationSans-74" x="1962.259766"/>
     <use xlink:href="#LiberationSans-69" x="1990.042969"/>
     <use xlink:href="#LiberationSans-20" x="2012.259766"/>
     <use xlink:href="#LiberationSans-61" x="2040.042969"/>
     <use xlink:href="#LiberationSans-67" x="2095.658203"/>
     <use xlink:href="#LiberationSans-61" x="2151.273438"/>
     <use xlink:href="#LiberationSans-69" x="2206.888672"/>
     <use xlink:href="#LiberationSans-6e" x="2229.105469"/>
     <use xlink:href="#LiberationSans-73" x="2284.720703"/>
     <use xlink:href="#LiberationSans-74" x="2334.720703"/>
     <use xlink:href="#LiberationSans-20" x="2362.503906"/>
     <use xlink:href="#LiberationSans-5a" x="2390.287109"/>
     <use xlink:href="#LiberationSans-6d" x="2451.371094"/>
     <use xlink:href="#LiberationSans-69" x="2534.671875"/>
     <use xlink:href="#LiberationSans-6e" x="2556.888672"/>
    </g>
   </g>
  </g>
 </g>
 <defs>
  <clipPath id="pfc08125f23">
   <rect x="72" y="47.52" width="446.4" height="298.98"/>
  </clipPath>
 </defs>
</svg>
