<?xml version="1.0" encoding="utf-8" standalone="no"?>
<!DOCTYPE svg PUBLIC "-//W3C//DTD SVG 1.1//EN"
  "http://www.w3.org/Graphics/SVG/1.1/DTD/svg11.dtd">
<svg xmlns:xlink="http://www.w3.org/1999/xlink" width="576pt" height="576pt" viewBox="0 0 576 576" xmlns="http://www.w3.org/2000/svg" version="1.1">
 <metadata>
  <rdf:RDF xmlns:dc="http://purl.org/dc/elements/1.1/" xmlns:cc="http://creativecommons.org/ns#" xmlns:rdf="http://www.w3.org/1999/02/22-rdf-syntax-ns#">
   <cc:Work>
    <dc:type rdf:resource="http://purl.org/dc/dcmitype/StillImage"/>
    <dc:date>2022-10-31T10:06:44.078138</dc:date>
    <dc:format>image/svg+xml</dc:format>
    <dc:creator>
     <cc:Agent>
      <dc:title>Matplotlib v3.5.0, https://matplotlib.org/</dc:title>
     </cc:Agent>
    </dc:creator>
   </cc:Work>
  </rdf:RDF>
 </metadata>
 <defs>
  <style type="text/css">*{stroke-linejoin: round; stroke-linecap: butt}</style>
 </defs>
 <g id="figure_1">
  <g id="patch_1">
   <path d="M 0 576 
L 576 576 
L 576 0 
L 0 0 
z
" style="fill: #ffffff"/>
  </g>
  <g id="axes_1">
   <g id="patch_2">
    <path d="M 72 504 
L 518.4 504 
L 518.4 69.12 
L 72 69.12 
z
" style="fill: #ffffff"/>
   </g>
   <g id="matplotlib.axis_1">
    <g id="xtick_1">
     <g id="line2d_1">
      <path d="M 121.450264 504 
L 121.450264 69.12 
" clip-path="url(#p14e6934f0b)" style="fill: none; stroke: #cccccc; stroke-linecap: round"/>
     </g>
     <g id="line2d_2"/>
     <g id="text_1">
      <!-- $\mathdefault{10^{-2}}$ -->
      <g style="fill: #262626" transform="translate(111.700264 518.246875)scale(0.1 -0.1)">
       <defs>
        <path id="LiberationSans-31" d="M 488 0 
L 488 478 
L 1609 478 
L 1609 3866 
L 616 3156 
L 616 3688 
L 1656 4403 
L 2175 4403 
L 2175 478 
L 3247 478 
L 3247 0 
L 488 0 
z
" transform="scale(0.015625)"/>
        <path id="LiberationSans-30" d="M 3309 2203 
Q 3309 1100 2920 518 
Q 2531 -63 1772 -63 
Q 1013 -63 631 515 
Q 250 1094 250 2203 
Q 250 3338 620 3903 
Q 991 4469 1791 4469 
Q 2569 4469 2939 3897 
Q 3309 3325 3309 2203 
z
M 2738 2203 
Q 2738 3156 2517 3584 
Q 2297 4013 1791 4013 
Q 1272 4013 1045 3591 
Q 819 3169 819 2203 
Q 819 1266 1048 831 
Q 1278 397 1778 397 
Q 2275 397 2506 840 
Q 2738 1284 2738 2203 
z
" transform="scale(0.015625)"/>
        <path id="LiberationSans-2212" d="M 316 1900 
L 316 2356 
L 3425 2356 
L 3425 1900 
L 316 1900 
z
" transform="scale(0.015625)"/>
        <path id="LiberationSans-32" d="M 322 0 
L 322 397 
Q 481 763 711 1042 
Q 941 1322 1194 1548 
Q 1447 1775 1695 1969 
Q 1944 2163 2144 2356 
Q 2344 2550 2467 2762 
Q 2591 2975 2591 3244 
Q 2591 3606 2378 3806 
Q 2166 4006 1788 4006 
Q 1428 4006 1195 3811 
Q 963 3616 922 3263 
L 347 3316 
Q 409 3844 795 4156 
Q 1181 4469 1788 4469 
Q 2453 4469 2811 4155 
Q 3169 3841 3169 3263 
Q 3169 3006 3051 2753 
Q 2934 2500 2703 2247 
Q 2472 1994 1819 1463 
Q 1459 1169 1246 933 
Q 1034 697 941 478 
L 3238 478 
L 3238 0 
L 322 0 
z
" transform="scale(0.015625)"/>
       </defs>
       <use xlink:href="#LiberationSans-31" transform="translate(0 0.140625)"/>
       <use xlink:href="#LiberationSans-30" transform="translate(55.615234 0.140625)"/>
       <use xlink:href="#LiberationSans-2212" transform="translate(112.154961 37.120312)scale(0.7)"/>
       <use xlink:href="#LiberationSans-32" transform="translate(153.033867 37.120312)scale(0.7)"/>
      </g>
     </g>
    </g>
    <g id="xtick_2">
     <g id="line2d_3">
      <path d="M 209.470443 504 
L 209.470443 69.12 
" clip-path="url(#p14e6934f0b)" style="fill: none; stroke: #cccccc; stroke-linecap: round"/>
     </g>
     <g id="line2d_4"/>
     <g id="text_2">
      <!-- $\mathdefault{10^{0}}$ -->
      <g style="fill: #262626" transform="translate(201.770443 518.246875)scale(0.1 -0.1)">
       <use xlink:href="#LiberationSans-31" transform="translate(0 0.140625)"/>
       <use xlink:href="#LiberationSans-30" transform="translate(55.615234 0.140625)"/>
       <use xlink:href="#LiberationSans-30" transform="translate(112.154961 37.120312)scale(0.7)"/>
      </g>
     </g>
    </g>
    <g id="xtick_3">
     <g id="line2d_5">
      <path d="M 297.490623 504 
L 297.490623 69.12 
" clip-path="url(#p14e6934f0b)" style="fill: none; stroke: #cccccc; stroke-linecap: round"/>
     </g>
     <g id="line2d_6"/>
     <g id="text_3">
      <!-- $\mathdefault{10^{2}}$ -->
      <g style="fill: #262626" transform="translate(289.790623 518.246875)scale(0.1 -0.1)">
       <use xlink:href="#LiberationSans-31" transform="translate(0 0.140625)"/>
       <use xlink:href="#LiberationSans-30" transform="translate(55.615234 0.140625)"/>
       <use xlink:href="#LiberationSans-32" transform="translate(112.154961 37.120312)scale(0.7)"/>
      </g>
     </g>
    </g>
    <g id="xtick_4">
     <g id="line2d_7">
      <path d="M 385.510802 504 
L 385.510802 69.12 
" clip-path="url(#p14e6934f0b)" style="fill: none; stroke: #cccccc; stroke-linecap: round"/>
     </g>
     <g id="line2d_8"/>
     <g id="text_4">
      <!-- $\mathdefault{10^{4}}$ -->
      <g style="fill: #262626" transform="translate(377.810802 518.246875)scale(0.1 -0.1)">
       <defs>
        <path id="LiberationSans-34" d="M 2753 997 
L 2753 0 
L 2222 0 
L 2222 997 
L 147 997 
L 147 1434 
L 2163 4403 
L 2753 4403 
L 2753 1441 
L 3372 1441 
L 3372 997 
L 2753 997 
z
M 2222 3769 
Q 2216 3750 2134 3603 
Q 2053 3456 2013 3397 
L 884 1734 
L 716 1503 
L 666 1441 
L 2222 1441 
L 2222 3769 
z
" transform="scale(0.015625)"/>
       </defs>
       <use xlink:href="#LiberationSans-31" transform="translate(0 0.8625)"/>
       <use xlink:href="#LiberationSans-30" transform="translate(55.615234 0.8625)"/>
       <use xlink:href="#LiberationSans-34" transform="translate(112.154961 37.842188)scale(0.7)"/>
      </g>
     </g>
    </g>
    <g id="xtick_5">
     <g id="line2d_9">
      <path d="M 473.530981 504 
L 473.530981 69.12 
" clip-path="url(#p14e6934f0b)" style="fill: none; stroke: #cccccc; stroke-linecap: round"/>
     </g>
     <g id="line2d_10"/>
     <g id="text_5">
      <!-- $\mathdefault{10^{6}}$ -->
      <g style="fill: #262626" transform="translate(465.830981 518.246875)scale(0.1 -0.1)">
       <defs>
        <path id="LiberationSans-36" d="M 3278 1441 
Q 3278 744 2900 340 
Q 2522 -63 1856 -63 
Q 1113 -63 719 490 
Q 325 1044 325 2100 
Q 325 3244 734 3856 
Q 1144 4469 1900 4469 
Q 2897 4469 3156 3572 
L 2619 3475 
Q 2453 4013 1894 4013 
Q 1413 4013 1148 3564 
Q 884 3116 884 2266 
Q 1038 2550 1316 2698 
Q 1594 2847 1953 2847 
Q 2563 2847 2920 2465 
Q 3278 2084 3278 1441 
z
M 2706 1416 
Q 2706 1894 2472 2153 
Q 2238 2413 1819 2413 
Q 1425 2413 1183 2183 
Q 941 1953 941 1550 
Q 941 1041 1192 716 
Q 1444 391 1838 391 
Q 2244 391 2475 664 
Q 2706 938 2706 1416 
z
" transform="scale(0.015625)"/>
       </defs>
       <use xlink:href="#LiberationSans-31" transform="translate(0 0.140625)"/>
       <use xlink:href="#LiberationSans-30" transform="translate(55.615234 0.140625)"/>
       <use xlink:href="#LiberationSans-36" transform="translate(112.154961 37.120312)scale(0.7)"/>
      </g>
     </g>
    </g>
    <g id="text_6">
     <!-- Ice Volume -->
     <g style="fill: #262626" transform="translate(267.990469 532.293437)scale(0.11 -0.11)">
      <defs>
       <path id="LiberationSans-49" d="M 591 0 
L 591 4403 
L 1188 4403 
L 1188 0 
L 591 0 
z
" transform="scale(0.015625)"/>
       <path id="LiberationSans-63" d="M 859 1706 
Q 859 1031 1071 706 
Q 1284 381 1713 381 
Q 2013 381 2214 543 
Q 2416 706 2463 1044 
L 3031 1006 
Q 2966 519 2616 228 
Q 2266 -63 1728 -63 
Q 1019 -63 645 385 
Q 272 834 272 1694 
Q 272 2547 647 2995 
Q 1022 3444 1722 3444 
Q 2241 3444 2583 3175 
Q 2925 2906 3013 2434 
L 2434 2391 
Q 2391 2672 2212 2837 
Q 2034 3003 1706 3003 
Q 1259 3003 1059 2706 
Q 859 2409 859 1706 
z
" transform="scale(0.015625)"/>
       <path id="LiberationSans-65" d="M 863 1572 
Q 863 991 1103 675 
Q 1344 359 1806 359 
Q 2172 359 2392 506 
Q 2613 653 2691 878 
L 3184 738 
Q 2881 -63 1806 -63 
Q 1056 -63 664 384 
Q 272 831 272 1713 
Q 272 2550 664 2997 
Q 1056 3444 1784 3444 
Q 3275 3444 3275 1647 
L 3275 1572 
L 863 1572 
z
M 2694 2003 
Q 2647 2538 2422 2783 
Q 2197 3028 1775 3028 
Q 1366 3028 1127 2754 
Q 888 2481 869 2003 
L 2694 2003 
z
" transform="scale(0.015625)"/>
       <path id="LiberationSans-20" transform="scale(0.015625)"/>
       <path id="LiberationSans-56" d="M 2444 0 
L 1825 0 
L 28 4403 
L 656 4403 
L 1875 1303 
L 2138 525 
L 2400 1303 
L 3613 4403 
L 4241 4403 
L 2444 0 
z
" transform="scale(0.015625)"/>
       <path id="LiberationSans-6f" d="M 3291 1694 
Q 3291 806 2900 371 
Q 2509 -63 1766 -63 
Q 1025 -63 647 389 
Q 269 841 269 1694 
Q 269 3444 1784 3444 
Q 2559 3444 2925 3017 
Q 3291 2591 3291 1694 
z
M 2700 1694 
Q 2700 2394 2492 2711 
Q 2284 3028 1794 3028 
Q 1300 3028 1079 2704 
Q 859 2381 859 1694 
Q 859 1025 1076 689 
Q 1294 353 1759 353 
Q 2266 353 2483 678 
Q 2700 1003 2700 1694 
z
" transform="scale(0.015625)"/>
       <path id="LiberationSans-6c" d="M 431 0 
L 431 4638 
L 994 4638 
L 994 0 
L 431 0 
z
" transform="scale(0.015625)"/>
       <path id="LiberationSans-75" d="M 981 3381 
L 981 1238 
Q 981 903 1047 718 
Q 1113 534 1256 453 
Q 1400 372 1678 372 
Q 2084 372 2318 650 
Q 2553 928 2553 1422 
L 2553 3381 
L 3116 3381 
L 3116 722 
Q 3116 131 3134 0 
L 2603 0 
Q 2600 16 2597 84 
Q 2594 153 2589 242 
Q 2584 331 2578 578 
L 2569 578 
Q 2375 228 2120 82 
Q 1866 -63 1488 -63 
Q 931 -63 673 214 
Q 416 491 416 1128 
L 416 3381 
L 981 3381 
z
" transform="scale(0.015625)"/>
       <path id="LiberationSans-6d" d="M 2400 0 
L 2400 2144 
Q 2400 2634 2265 2821 
Q 2131 3009 1781 3009 
Q 1422 3009 1212 2734 
Q 1003 2459 1003 1959 
L 1003 0 
L 444 0 
L 444 2659 
Q 444 3250 425 3381 
L 956 3381 
Q 959 3366 962 3297 
Q 966 3228 970 3139 
Q 975 3050 981 2803 
L 991 2803 
Q 1172 3163 1406 3303 
Q 1641 3444 1978 3444 
Q 2363 3444 2586 3291 
Q 2809 3138 2897 2803 
L 2906 2803 
Q 3081 3144 3329 3294 
Q 3578 3444 3931 3444 
Q 4444 3444 4676 3166 
Q 4909 2888 4909 2253 
L 4909 0 
L 4353 0 
L 4353 2144 
Q 4353 2634 4218 2821 
Q 4084 3009 3734 3009 
Q 3366 3009 3161 2736 
Q 2956 2463 2956 1959 
L 2956 0 
L 2400 0 
z
" transform="scale(0.015625)"/>
      </defs>
      <use xlink:href="#LiberationSans-49"/>
      <use xlink:href="#LiberationSans-63" x="27.783203"/>
      <use xlink:href="#LiberationSans-65" x="77.783203"/>
      <use xlink:href="#LiberationSans-20" x="133.398438"/>
      <use xlink:href="#LiberationSans-56" x="161.181641"/>
      <use xlink:href="#LiberationSans-6f" x="222.380859"/>
      <use xlink:href="#LiberationSans-6c" x="277.996094"/>
      <use xlink:href="#LiberationSans-75" x="300.212891"/>
      <use xlink:href="#LiberationSans-6d" x="355.828125"/>
      <use xlink:href="#LiberationSans-65" x="439.128906"/>
     </g>
    </g>
   </g>
   <g id="matplotlib.axis_2">
    <g id="ytick_1">
     <g id="line2d_11">
      <path d="M 72 484.232727 
L 518.4 484.232727 
" clip-path="url(#p14e6934f0b)" style="fill: none; stroke: #cccccc; stroke-linecap: round"/>
     </g>
     <g id="line2d_12"/>
     <g id="text_7">
      <!-- 0.0 -->
      <g style="fill: #262626" transform="translate(51.1 487.856165)scale(0.1 -0.1)">
       <defs>
        <path id="LiberationSans-2e" d="M 584 0 
L 584 684 
L 1194 684 
L 1194 0 
L 584 0 
z
" transform="scale(0.015625)"/>
       </defs>
       <use xlink:href="#LiberationSans-30"/>
       <use xlink:href="#LiberationSans-2e" x="55.615234"/>
       <use xlink:href="#LiberationSans-30" x="83.398438"/>
      </g>
     </g>
    </g>
    <g id="ytick_2">
     <g id="line2d_13">
      <path d="M 72 405.163636 
L 518.4 405.163636 
" clip-path="url(#p14e6934f0b)" style="fill: none; stroke: #cccccc; stroke-linecap: round"/>
     </g>
     <g id="line2d_14"/>
     <g id="text_8">
      <!-- 0.2 -->
      <g style="fill: #262626" transform="translate(51.1 408.787074)scale(0.1 -0.1)">
       <use xlink:href="#LiberationSans-30"/>
       <use xlink:href="#LiberationSans-2e" x="55.615234"/>
       <use xlink:href="#LiberationSans-32" x="83.398438"/>
      </g>
     </g>
    </g>
    <g id="ytick_3">
     <g id="line2d_15">
      <path d="M 72 326.094545 
L 518.4 326.094545 
" clip-path="url(#p14e6934f0b)" style="fill: none; stroke: #cccccc; stroke-linecap: round"/>
     </g>
     <g id="line2d_16"/>
     <g id="text_9">
      <!-- 0.4 -->
      <g style="fill: #262626" transform="translate(51.1 329.717983)scale(0.1 -0.1)">
       <use xlink:href="#LiberationSans-30"/>
       <use xlink:href="#LiberationSans-2e" x="55.615234"/>
       <use xlink:href="#LiberationSans-34" x="83.398438"/>
      </g>
     </g>
    </g>
    <g id="ytick_4">
     <g id="line2d_17">
      <path d="M 72 247.025455 
L 518.4 247.025455 
" clip-path="url(#p14e6934f0b)" style="fill: none; stroke: #cccccc; stroke-linecap: round"/>
     </g>
     <g id="line2d_18"/>
     <g id="text_10">
      <!-- 0.6 -->
      <g style="fill: #262626" transform="translate(51.1 250.648892)scale(0.1 -0.1)">
       <use xlink:href="#LiberationSans-30"/>
       <use xlink:href="#LiberationSans-2e" x="55.615234"/>
       <use xlink:href="#LiberationSans-36" x="83.398438"/>
      </g>
     </g>
    </g>
    <g id="ytick_5">
     <g id="line2d_19">
      <path d="M 72 167.956364 
L 518.4 167.956364 
" clip-path="url(#p14e6934f0b)" style="fill: none; stroke: #cccccc; stroke-linecap: round"/>
     </g>
     <g id="line2d_20"/>
     <g id="text_11">
      <!-- 0.8 -->
      <g style="fill: #262626" transform="translate(51.1 171.579801)scale(0.1 -0.1)">
       <defs>
        <path id="LiberationSans-38" d="M 3281 1228 
Q 3281 619 2893 278 
Q 2506 -63 1781 -63 
Q 1075 -63 676 271 
Q 278 606 278 1222 
Q 278 1653 525 1947 
Q 772 2241 1156 2303 
L 1156 2316 
Q 797 2400 589 2681 
Q 381 2963 381 3341 
Q 381 3844 757 4156 
Q 1134 4469 1769 4469 
Q 2419 4469 2795 4162 
Q 3172 3856 3172 3334 
Q 3172 2956 2962 2675 
Q 2753 2394 2391 2322 
L 2391 2309 
Q 2813 2241 3047 1952 
Q 3281 1663 3281 1228 
z
M 2588 3303 
Q 2588 4050 1769 4050 
Q 1372 4050 1164 3862 
Q 956 3675 956 3303 
Q 956 2925 1170 2726 
Q 1384 2528 1775 2528 
Q 2172 2528 2380 2711 
Q 2588 2894 2588 3303 
z
M 2697 1281 
Q 2697 1691 2453 1898 
Q 2209 2106 1769 2106 
Q 1341 2106 1100 1882 
Q 859 1659 859 1269 
Q 859 359 1788 359 
Q 2247 359 2472 579 
Q 2697 800 2697 1281 
z
" transform="scale(0.015625)"/>
       </defs>
       <use xlink:href="#LiberationSans-30"/>
       <use xlink:href="#LiberationSans-2e" x="55.615234"/>
       <use xlink:href="#LiberationSans-38" x="83.398438"/>
      </g>
     </g>
    </g>
    <g id="ytick_6">
     <g id="line2d_21">
      <path d="M 72 88.887273 
L 518.4 88.887273 
" clip-path="url(#p14e6934f0b)" style="fill: none; stroke: #cccccc; stroke-linecap: round"/>
     </g>
     <g id="line2d_22"/>
     <g id="text_12">
      <!-- 1.0 -->
      <g style="fill: #262626" transform="translate(51.1 92.51071)scale(0.1 -0.1)">
       <use xlink:href="#LiberationSans-31"/>
       <use xlink:href="#LiberationSans-2e" x="55.615234"/>
       <use xlink:href="#LiberationSans-30" x="83.398438"/>
      </g>
     </g>
    </g>
    <g id="text_13">
     <!-- % of Glaciers Containing Ice -->
     <g style="fill: #262626" transform="translate(44.8175 355.951094)rotate(-90)scale(0.11 -0.11)">
      <defs>
       <path id="LiberationSans-25" d="M 5463 1356 
Q 5463 684 5209 323 
Q 4956 -38 4463 -38 
Q 3975 -38 3726 314 
Q 3478 666 3478 1356 
Q 3478 2069 3717 2417 
Q 3956 2766 4475 2766 
Q 4988 2766 5225 2408 
Q 5463 2050 5463 1356 
z
M 1647 0 
L 1163 0 
L 4044 4403 
L 4534 4403 
L 1647 0 
z
M 1231 4441 
Q 1728 4441 1968 4091 
Q 2209 3741 2209 3047 
Q 2209 2369 1961 2003 
Q 1713 1638 1219 1638 
Q 725 1638 476 2000 
Q 228 2363 228 3047 
Q 228 3744 468 4092 
Q 709 4441 1231 4441 
z
M 5000 1356 
Q 5000 1916 4879 2167 
Q 4759 2419 4475 2419 
Q 4191 2419 4064 2172 
Q 3938 1925 3938 1356 
Q 3938 822 4061 564 
Q 4184 306 4469 306 
Q 4744 306 4872 567 
Q 5000 828 5000 1356 
z
M 1750 3047 
Q 1750 3597 1631 3850 
Q 1513 4103 1231 4103 
Q 938 4103 813 3854 
Q 688 3606 688 3047 
Q 688 2506 813 2248 
Q 938 1991 1225 1991 
Q 1497 1991 1623 2253 
Q 1750 2516 1750 3047 
z
" transform="scale(0.015625)"/>
       <path id="LiberationSans-66" d="M 1128 2972 
L 1128 0 
L 566 0 
L 566 2972 
L 91 2972 
L 91 3381 
L 566 3381 
L 566 3763 
Q 566 4225 769 4428 
Q 972 4631 1391 4631 
Q 1625 4631 1788 4594 
L 1788 4166 
Q 1647 4191 1538 4191 
Q 1322 4191 1225 4081 
Q 1128 3972 1128 3684 
L 1128 3381 
L 1788 3381 
L 1788 2972 
L 1128 2972 
z
" transform="scale(0.015625)"/>
       <path id="LiberationSans-47" d="M 322 2222 
Q 322 3294 897 3881 
Q 1472 4469 2513 4469 
Q 3244 4469 3700 4222 
Q 4156 3975 4403 3431 
L 3834 3263 
Q 3647 3638 3317 3809 
Q 2988 3981 2497 3981 
Q 1734 3981 1331 3520 
Q 928 3059 928 2222 
Q 928 1388 1356 905 
Q 1784 422 2541 422 
Q 2972 422 3345 553 
Q 3719 684 3950 909 
L 3950 1703 
L 2634 1703 
L 2634 2203 
L 4500 2203 
L 4500 684 
Q 4150 328 3642 132 
Q 3134 -63 2541 -63 
Q 1850 -63 1350 212 
Q 850 488 586 1005 
Q 322 1522 322 2222 
z
" transform="scale(0.015625)"/>
       <path id="LiberationSans-61" d="M 1294 -63 
Q 784 -63 528 206 
Q 272 475 272 944 
Q 272 1469 617 1750 
Q 963 2031 1731 2050 
L 2491 2063 
L 2491 2247 
Q 2491 2659 2316 2837 
Q 2141 3016 1766 3016 
Q 1388 3016 1216 2887 
Q 1044 2759 1009 2478 
L 422 2531 
Q 566 3444 1778 3444 
Q 2416 3444 2737 3151 
Q 3059 2859 3059 2306 
L 3059 850 
Q 3059 600 3125 473 
Q 3191 347 3375 347 
Q 3456 347 3559 369 
L 3559 19 
Q 3347 -31 3125 -31 
Q 2813 -31 2670 133 
Q 2528 297 2509 647 
L 2491 647 
Q 2275 259 1989 98 
Q 1703 -63 1294 -63 
z
M 1422 359 
Q 1731 359 1972 500 
Q 2213 641 2352 886 
Q 2491 1131 2491 1391 
L 2491 1669 
L 1875 1656 
Q 1478 1650 1273 1575 
Q 1069 1500 959 1344 
Q 850 1188 850 934 
Q 850 659 998 509 
Q 1147 359 1422 359 
z
" transform="scale(0.015625)"/>
       <path id="LiberationSans-69" d="M 428 4100 
L 428 4638 
L 991 4638 
L 991 4100 
L 428 4100 
z
M 428 0 
L 428 3381 
L 991 3381 
L 991 0 
L 428 0 
z
" transform="scale(0.015625)"/>
       <path id="LiberationSans-72" d="M 444 0 
L 444 2594 
Q 444 2950 425 3381 
L 956 3381 
Q 981 2806 981 2691 
L 994 2691 
Q 1128 3125 1303 3284 
Q 1478 3444 1797 3444 
Q 1909 3444 2025 3413 
L 2025 2897 
Q 1913 2928 1725 2928 
Q 1375 2928 1190 2626 
Q 1006 2325 1006 1763 
L 1006 0 
L 444 0 
z
" transform="scale(0.015625)"/>
       <path id="LiberationSans-73" d="M 2969 934 
Q 2969 456 2608 196 
Q 2247 -63 1597 -63 
Q 966 -63 623 145 
Q 281 353 178 794 
L 675 891 
Q 747 619 972 492 
Q 1197 366 1597 366 
Q 2025 366 2223 497 
Q 2422 628 2422 891 
Q 2422 1091 2284 1216 
Q 2147 1341 1841 1422 
L 1438 1528 
Q 953 1653 748 1773 
Q 544 1894 428 2066 
Q 313 2238 313 2488 
Q 313 2950 642 3192 
Q 972 3434 1603 3434 
Q 2163 3434 2492 3237 
Q 2822 3041 2909 2606 
L 2403 2544 
Q 2356 2769 2151 2889 
Q 1947 3009 1603 3009 
Q 1222 3009 1040 2893 
Q 859 2778 859 2544 
Q 859 2400 934 2306 
Q 1009 2213 1156 2147 
Q 1303 2081 1775 1966 
Q 2222 1853 2419 1758 
Q 2616 1663 2730 1547 
Q 2844 1431 2906 1279 
Q 2969 1128 2969 934 
z
" transform="scale(0.015625)"/>
       <path id="LiberationSans-43" d="M 2475 3981 
Q 1744 3981 1337 3511 
Q 931 3041 931 2222 
Q 931 1413 1354 920 
Q 1778 428 2500 428 
Q 3425 428 3891 1344 
L 4378 1100 
Q 4106 531 3614 234 
Q 3122 -63 2472 -63 
Q 1806 -63 1320 214 
Q 834 491 579 1005 
Q 325 1519 325 2222 
Q 325 3275 894 3872 
Q 1463 4469 2469 4469 
Q 3172 4469 3644 4194 
Q 4116 3919 4338 3378 
L 3772 3191 
Q 3619 3575 3280 3778 
Q 2941 3981 2475 3981 
z
" transform="scale(0.015625)"/>
       <path id="LiberationSans-6e" d="M 2578 0 
L 2578 2144 
Q 2578 2478 2512 2662 
Q 2447 2847 2303 2928 
Q 2159 3009 1881 3009 
Q 1475 3009 1240 2731 
Q 1006 2453 1006 1959 
L 1006 0 
L 444 0 
L 444 2659 
Q 444 3250 425 3381 
L 956 3381 
Q 959 3366 962 3297 
Q 966 3228 970 3139 
Q 975 3050 981 2803 
L 991 2803 
Q 1184 3153 1439 3298 
Q 1694 3444 2072 3444 
Q 2628 3444 2886 3167 
Q 3144 2891 3144 2253 
L 3144 0 
L 2578 0 
z
" transform="scale(0.015625)"/>
       <path id="LiberationSans-74" d="M 1731 25 
Q 1453 -50 1163 -50 
Q 488 -50 488 716 
L 488 2972 
L 97 2972 
L 97 3381 
L 509 3381 
L 675 4138 
L 1050 4138 
L 1050 3381 
L 1675 3381 
L 1675 2972 
L 1050 2972 
L 1050 838 
Q 1050 594 1129 495 
Q 1209 397 1406 397 
Q 1519 397 1731 441 
L 1731 25 
z
" transform="scale(0.015625)"/>
       <path id="LiberationSans-67" d="M 1713 -1328 
Q 1159 -1328 831 -1111 
Q 503 -894 409 -494 
L 975 -413 
Q 1031 -647 1223 -773 
Q 1416 -900 1728 -900 
Q 2569 -900 2569 84 
L 2569 628 
L 2563 628 
Q 2403 303 2125 139 
Q 1847 -25 1475 -25 
Q 853 -25 561 387 
Q 269 800 269 1684 
Q 269 2581 583 3007 
Q 897 3434 1538 3434 
Q 1897 3434 2161 3270 
Q 2425 3106 2569 2803 
L 2575 2803 
Q 2575 2897 2587 3128 
Q 2600 3359 2613 3381 
L 3147 3381 
Q 3128 3213 3128 2681 
L 3128 97 
Q 3128 -1328 1713 -1328 
z
M 2569 1691 
Q 2569 2103 2456 2401 
Q 2344 2700 2139 2858 
Q 1934 3016 1675 3016 
Q 1244 3016 1047 2703 
Q 850 2391 850 1691 
Q 850 997 1034 694 
Q 1219 391 1666 391 
Q 1931 391 2137 547 
Q 2344 703 2456 995 
Q 2569 1288 2569 1691 
z
" transform="scale(0.015625)"/>
      </defs>
      <use xlink:href="#LiberationSans-25"/>
      <use xlink:href="#LiberationSans-20" x="88.916016"/>
      <use xlink:href="#LiberationSans-6f" x="116.699219"/>
      <use xlink:href="#LiberationSans-66" x="172.314453"/>
      <use xlink:href="#LiberationSans-20" x="200.097656"/>
      <use xlink:href="#LiberationSans-47" x="227.880859"/>
      <use xlink:href="#LiberationSans-6c" x="305.664062"/>
      <use xlink:href="#LiberationSans-61" x="327.880859"/>
      <use xlink:href="#LiberationSans-63" x="383.496094"/>
      <use xlink:href="#LiberationSans-69" x="433.496094"/>
      <use xlink:href="#LiberationSans-65" x="455.712891"/>
      <use xlink:href="#LiberationSans-72" x="511.328125"/>
      <use xlink:href="#LiberationSans-73" x="544.628906"/>
      <use xlink:href="#LiberationSans-20" x="594.628906"/>
      <use xlink:href="#LiberationSans-43" x="622.412109"/>
      <use xlink:href="#LiberationSans-6f" x="694.628906"/>
      <use xlink:href="#LiberationSans-6e" x="750.244141"/>
      <use xlink:href="#LiberationSans-74" x="805.859375"/>
      <use xlink:href="#LiberationSans-61" x="833.642578"/>
      <use xlink:href="#LiberationSans-69" x="889.257812"/>
      <use xlink:href="#LiberationSans-6e" x="911.474609"/>
      <use xlink:href="#LiberationSans-69" x="967.089844"/>
      <use xlink:href="#LiberationSans-6e" x="989.306641"/>
      <use xlink:href="#LiberationSans-67" x="1044.921875"/>
      <use xlink:href="#LiberationSans-20" x="1100.537109"/>
      <use xlink:href="#LiberationSans-49" x="1128.320312"/>
      <use xlink:href="#LiberationSans-63" x="1156.103516"/>
      <use xlink:href="#LiberationSans-65" x="1206.103516"/>
     </g>
    </g>
   </g>
   <g id="line2d_23">
    <path d="M 92.290909 484.232727 
L 161.071868 484.100631 
L 164.248095 483.772225 
L 165.260843 483.511702 
L 165.788779 483.328236 
L 168.221361 482.161386 
L 168.35295 482.071487 
L 168.568458 481.932053 
L 168.929888 481.700884 
L 170.054292 481.001875 
L 170.433004 480.805566 
L 170.674116 480.664296 
L 171.241629 480.335891 
L 172.449133 479.543314 
L 172.638547 479.42773 
L 172.899199 479.275452 
L 173.010245 479.187388 
L 173.882311 478.565435 
L 174.136651 478.354448 
L 174.528095 478.075579 
L 174.639699 477.998522 
L 174.988874 477.818725 
L 175.145234 477.703141 
L 175.419762 477.538021 
L 175.528343 477.437114 
L 175.915792 477.191268 
L 179.502784 474.802529 
L 179.651427 474.705292 
L 179.939058 474.490636 
L 180.709917 473.91088 
L 180.900056 473.751264 
L 181.024265 473.652192 
L 182.039779 472.681652 
L 182.173251 472.496351 
L 182.471262 472.241332 
L 183.528934 471.175389 
L 184.009798 470.612146 
L 184.200585 470.434183 
L 184.550906 470.103942 
L 184.826367 469.797553 
L 185.717319 468.78665 
L 185.862728 468.641711 
L 185.981107 468.489434 
L 186.344784 468.052783 
L 187.015328 467.184984 
L 187.164619 466.992344 
L 187.316822 466.786861 
L 187.774881 466.21261 
L 187.93093 466.003457 
L 188.062887 465.785132 
L 188.185701 465.586988 
L 188.414062 465.308118 
L 191.677969 460.360016 
L 191.943823 459.9252 
L 192.300061 459.303247 
L 192.417523 459.134457 
L 192.77545 458.609742 
L 192.875603 458.422606 
L 193.418603 457.494263 
L 193.538838 457.321804 
L 194.37255 455.940299 
L 194.491369 455.738485 
L 198.503641 448.465858 
L 198.676439 448.137452 
L 198.829856 447.805377 
L 199.276838 446.858688 
L 199.402745 446.62385 
L 199.542486 446.352319 
L 202.425541 439.505335 
L 202.549795 439.164087 
L 202.731304 438.692577 
L 203.044502 437.777077 
L 209.325233 416.937073 
L 209.496023 416.359153 
L 210.028416 414.520814 
L 210.15773 414.060313 
L 210.64472 412.267841 
L 210.694041 412.10639 
L 210.831303 411.645888 
L 210.892529 411.453248 
L 211.04274 410.897343 
L 211.084973 410.717546 
L 211.199763 410.297407 
L 211.279673 410.057065 
L 211.435944 409.515838 
L 211.517251 409.231464 
L 211.634045 408.780136 
L 211.95326 407.598609 
L 212.086034 407.108752 
L 212.220136 406.595045 
L 212.563271 405.362148 
L 212.620435 405.165838 
L 212.810967 404.426466 
L 213.006414 403.738466 
L 213.080701 403.525644 
L 213.444561 402.204682 
L 213.51419 401.973514 
L 213.682352 401.311199 
L 213.739529 401.122228 
L 213.941912 400.331486 
L 213.995064 400.127837 
L 214.187877 399.395804 
L 214.268445 399.113265 
L 215.889062 393.011157 
L 216.042477 392.420393 
L 216.297552 391.477374 
L 216.457101 390.868264 
L 216.810822 389.565649 
L 216.869612 389.356496 
L 216.9858 388.940027 
L 217.05164 388.699685 
L 217.552715 386.806307 
L 217.675552 386.310946 
L 218.176431 384.483616 
L 218.365886 383.755252 
L 218.480026 383.338783 
L 218.681171 382.493 
L 219.473281 379.440111 
L 219.56484 379.038319 
L 220.401077 375.653355 
L 220.454845 375.387328 
L 220.586077 374.895636 
L 220.667508 374.567231 
L 220.816964 373.956286 
L 220.853646 373.816851 
L 221.831038 370.011748 
L 221.91071 369.716366 
L 222.039483 369.186147 
L 222.210408 368.457783 
L 222.645376 366.6488 
L 222.679252 366.502026 
L 222.795482 366.061706 
L 224.321689 359.677058 
L 224.439838 359.200044 
L 225.734547 353.989585 
L 225.779712 353.776763 
L 227.020637 348.72592 
L 227.271381 347.715017 
L 227.854729 345.351964 
L 227.938909 345.045574 
L 228.348387 343.401711 
L 228.486581 342.840302 
L 228.592884 342.396312 
L 228.991807 340.636865 
L 229.080174 340.244246 
L 230.020754 336.292369 
L 230.337787 334.947557 
L 230.532013 334.105444 
L 231.809886 328.761053 
L 231.949215 328.177628 
L 232.299528 326.779611 
L 232.506286 325.974191 
L 237.200002 306.400109 
L 237.25013 306.168941 
L 237.416026 305.524972 
L 237.64499 304.659008 
L 237.797033 304.055402 
L 238.081006 302.883049 
L 238.974557 299.404517 
L 239.010992 299.239397 
L 239.494357 297.412066 
L 239.666717 296.727735 
L 239.769568 296.34062 
L 240.127703 294.977461 
L 240.541753 293.368456 
L 242.88961 283.875879 
L 243.045918 283.198887 
L 243.117272 282.903505 
L 243.319434 282.156795 
L 243.560608 281.222948 
L 244.062352 279.111244 
L 244.111128 278.907596 
L 244.189984 278.559009 
L 244.437899 277.577461 
L 245.072215 274.996082 
L 245.227526 274.394311 
L 245.266848 274.258545 
L 245.621215 272.810992 
L 245.68389 272.579823 
L 246.018388 271.23868 
L 246.069421 271.04604 
L 246.228954 270.378221 
L 246.348792 269.915884 
L 246.535746 269.114134 
L 246.817294 268.017002 
L 246.95612 267.455593 
L 247.252339 266.336445 
L 247.585254 265.186108 
L 247.709951 264.681574 
L 248.920181 260.076555 
L 249.040089 259.6344 
L 249.170837 259.124362 
L 249.426705 258.104286 
L 249.571079 257.519027 
L 249.641957 257.271346 
L 249.793753 256.69893 
L 249.881096 256.381532 
L 250.231767 255.03305 
L 250.6648 253.359832 
L 250.887569 252.521389 
L 251.048715 251.930625 
L 251.240889 251.152726 
L 251.288817 251.005952 
L 251.58541 249.833599 
L 251.666949 249.510697 
L 251.781973 249.081384 
L 252.67111 245.749626 
L 252.928927 244.819449 
L 253.050042 244.390136 
L 253.164871 244.008525 
L 253.809783 241.663818 
L 257.973782 227.147918 
L 258.034672 226.935097 
L 258.162709 226.487437 
L 258.266051 226.120504 
L 259.338755 222.530057 
L 259.455853 222.100744 
L 259.656479 221.442098 
L 259.783797 221.043975 
L 259.923716 220.605489 
L 260.208748 219.645957 
L 260.375943 219.082714 
L 261.961648 213.874089 
L 261.998727 213.740158 
L 262.136184 213.320019 
L 263.377904 209.344292 
L 263.453599 209.118627 
L 263.608352 208.623267 
L 263.873807 207.777484 
L 263.988423 207.417889 
L 265.624551 202.466118 
L 265.723338 202.163398 
L 265.878204 201.756101 
L 266.061892 201.251567 
L 266.190383 200.899311 
L 266.578836 199.793005 
L 267.518629 197.075861 
L 267.574603 196.892394 
L 267.720197 196.507114 
L 267.838109 196.180542 
L 268.15221 195.237523 
L 268.315911 194.710973 
L 268.492511 194.222951 
L 268.647736 193.81015 
L 268.732809 193.58999 
L 268.888318 193.109307 
L 268.981625 192.883643 
L 269.179708 192.331407 
L 269.243514 192.155279 
L 269.368099 191.834212 
L 269.527114 191.414073 
L 269.843446 190.560952 
L 269.972234 190.236215 
L 270.090079 189.937164 
L 270.286015 189.403276 
L 270.396723 189.124406 
L 270.476405 188.959286 
L 270.60173 188.634549 
L 270.814323 188.096991 
L 271.078273 187.381471 
L 271.199966 187.047561 
L 271.310537 186.715486 
L 271.442228 186.361395 
L 271.681093 185.691741 
L 277.554786 171.271243 
L 277.6448 171.067595 
L 277.803534 170.73552 
L 277.963189 170.37776 
L 278.270983 169.607199 
L 278.474169 169.143027 
L 278.617108 168.82196 
L 279.410153 167.08086 
L 279.530793 166.814833 
L 279.882089 166.033264 
L 280.204629 165.273711 
L 280.287655 165.086575 
L 280.476837 164.629742 
L 281.083605 163.393175 
L 281.351011 162.851948 
L 281.485831 162.56207 
L 281.59995 162.303382 
L 284.057013 157.360784 
L 284.188915 157.127781 
L 284.514231 156.518671 
L 284.659405 156.24714 
L 284.850046 155.966436 
L 284.961744 155.757283 
L 285.532456 154.678498 
L 285.635867 154.476685 
L 286.029292 153.759329 
L 286.166913 153.53183 
L 286.392585 153.100683 
L 290.229105 146.462851 
L 290.343255 146.305069 
L 290.503674 146.055554 
L 290.612564 145.886765 
L 290.74587 145.657431 
L 290.819913 145.529005 
L 291.269766 144.789633 
L 291.356878 144.637355 
L 291.826047 143.874133 
L 291.937674 143.69617 
L 294.391892 139.918587 
L 294.50477 139.747963 
L 294.795338 139.316816 
L 294.937262 139.109498 
L 295.332662 138.463695 
L 295.921621 137.590392 
L 296.049117 137.405091 
L 296.429211 136.840013 
L 296.58414 136.618018 
L 296.943766 136.076791 
L 297.114363 135.841953 
L 298.05075 134.55585 
L 298.156971 134.421919 
L 298.596842 133.799966 
L 298.694966 133.66787 
L 299.106698 133.122974 
L 299.239399 132.941341 
L 299.366819 132.78356 
L 299.789538 132.192797 
L 304.013964 126.903446 
L 304.133882 126.754838 
L 304.280266 126.586049 
L 304.411675 126.439275 
L 304.561028 126.270485 
L 305.329299 125.399018 
L 305.515826 125.193535 
L 305.651967 125.039423 
L 305.871106 124.841278 
L 306.054426 124.643134 
L 306.183673 124.514707 
L 306.357624 124.338579 
L 306.506979 124.127592 
L 306.710064 123.889085 
L 307.529252 122.97542 
L 307.693596 122.824977 
L 307.821033 122.694716 
L 308.038576 122.474556 
L 308.850016 121.588411 
L 309.112653 121.338896 
L 309.288539 121.138917 
L 309.462504 120.95545 
L 309.635005 120.792164 
L 309.748244 120.650895 
L 310.040854 120.350009 
L 310.170692 120.238094 
L 310.965759 119.495053 
L 311.271141 119.194168 
L 312.250137 118.302519 
L 312.36459 118.190604 
L 312.538138 118.027318 
L 312.677107 117.875041 
L 314.543729 116.166964 
L 314.675243 116.040372 
L 314.795544 115.9413 
L 315.049138 115.74499 
L 317.319045 113.715846 
L 317.429311 113.622278 
L 317.793074 113.325062 
L 317.914657 113.214982 
L 318.098202 113.068208 
L 318.291249 112.901253 
L 318.696799 112.583856 
L 318.847171 112.482949 
L 319.11975 112.266458 
L 319.2695 112.160047 
L 319.781772 111.776601 
L 320.239117 111.470212 
L 320.460053 111.28858 
L 320.633505 111.149145 
L 320.856167 110.980355 
L 321.081909 110.831747 
L 321.509198 110.541869 
L 321.636973 110.451971 
L 321.907013 110.310701 
L 322.146014 110.130903 
L 322.310397 110.006146 
L 322.569965 109.837356 
L 322.777109 109.712599 
L 323.188517 109.494273 
L 323.392828 109.369516 
L 324.138525 108.927361 
L 324.316356 108.791595 
L 324.727201 108.560427 
L 325.082797 108.325589 
L 325.259228 108.224683 
L 326.226625 107.619242 
L 326.8563 107.239465 
L 326.971892 107.151401 
L 327.435206 106.872532 
L 327.950809 106.553299 
L 328.256367 106.390014 
L 335.761068 102.786724 
L 336.283301 102.564729 
L 337.776369 101.962958 
L 338.158557 101.797838 
L 338.312186 101.746467 
L 338.799123 101.566669 
L 339.192576 101.412557 
L 339.593924 101.252941 
L 339.717027 101.214413 
L 340.846513 100.748407 
L 340.972656 100.698871 
L 341.510787 100.520908 
L 351.696515 97.414814 
L 353.261682 97.077235 
L 353.541469 97.000178 
L 354.176991 96.818546 
L 355.211961 96.537842 
L 355.782599 96.392903 
L 357.503884 96.000284 
L 360.092277 95.380166 
L 361.144208 95.182022 
L 361.338559 95.143494 
L 362.325473 94.961861 
L 362.594101 94.912325 
L 363.303658 94.760048 
L 363.874911 94.648133 
L 365.782984 94.297711 
L 366.509428 94.16378 
L 368.194888 93.875737 
L 370.007346 93.560174 
L 370.975163 93.420739 
L 371.084762 93.402393 
L 375.122312 92.83548 
L 375.234717 92.822637 
L 375.691204 92.773101 
L 377.113871 92.598808 
L 377.232989 92.582296 
L 378.567734 92.439192 
L 378.676365 92.42268 
L 380.179564 92.263063 
L 380.345766 92.242882 
L 381.881894 92.072258 
L 383.03917 91.960343 
L 384.689401 91.817239 
L 395.944539 90.874219 
L 402.042414 90.443072 
L 404.519466 90.290794 
L 407.497529 90.129344 
L 415.112105 89.810111 
L 416.136041 89.773418 
L 461.538097 88.955155 
L 489.355191 88.890942 
L 498.109091 88.887273 
L 498.109091 88.887273 
" clip-path="url(#p14e6934f0b)" style="fill: none; stroke: #0000ff; stroke-width: 1.75; stroke-linecap: round"/>
   </g>
   <g id="line2d_24">
    <path d="M 168.594658 484.232727 
L 172.912938 484.084119 
L 174.08246 484.023575 
L 177.694113 483.641964 
L 177.930182 483.592428 
L 178.659726 483.458497 
L 179.507269 483.297046 
L 180.37951 483.086059 
L 181.590663 482.706283 
L 182.101782 482.550336 
L 182.281283 482.484288 
L 182.790125 482.317333 
L 182.949952 482.247616 
L 183.399587 482.08433 
L 186.194892 480.873449 
L 186.563885 480.688147 
L 186.742026 480.592744 
L 187.003435 480.445971 
L 187.175728 480.348733 
L 187.651091 480.101053 
L 187.92341 479.976296 
L 188.403561 479.684583 
L 188.534309 479.614866 
L 189.113306 479.275452 
L 189.392437 479.11767 
L 189.745906 478.937873 
L 189.858307 478.857148 
L 190.093865 478.719547 
L 190.268044 478.607633 
L 190.5706 478.431504 
L 190.887699 478.229691 
L 191.22769 478.027877 
L 191.681764 477.723322 
L 192.050668 477.521509 
L 192.288468 477.350884 
L 192.552848 477.172921 
L 193.047865 476.824334 
L 193.268328 476.668388 
L 193.382548 476.567481 
L 193.631769 476.374841 
L 193.795112 476.220728 
L 196.412564 474.10352 
L 196.53204 473.986102 
L 196.712104 473.835659 
L 196.900502 473.661365 
L 197.012278 473.534773 
L 197.370424 473.162335 
L 197.524823 473.013727 
L 197.763781 472.773386 
L 198.932042 471.551496 
L 199.047547 471.413896 
L 199.238385 471.162546 
L 199.402105 470.999261 
L 199.791368 470.524082 
L 199.964094 470.324103 
L 200.144995 470.14247 
L 200.642096 469.459974 
L 203.610949 465.370497 
L 203.722775 465.220054 
L 203.899259 464.987051 
L 207.643993 458.0942 
L 207.808139 457.751117 
L 207.930093 457.499767 
L 208.209084 456.885153 
L 209.067054 455.024799 
L 209.141332 454.878025 
L 209.255666 454.608329 
L 209.339112 454.413854 
L 209.61705 453.786397 
L 209.731685 453.507528 
L 209.847131 453.27636 
L 209.942123 453.072711 
L 210.10315 452.724124 
L 210.642089 451.425179 
L 210.953402 450.650948 
L 211.057218 450.39226 
L 214.899838 439.356727 
L 215.022844 438.964108 
L 215.124116 438.663222 
L 215.339218 437.991733 
L 215.467134 437.533066 
L 215.583051 437.085407 
L 218.738991 425.800359 
L 218.869208 425.292155 
L 218.984909 424.857339 
L 219.104815 424.383994 
L 219.328268 423.516196 
L 219.509422 422.811683 
L 220.230317 419.811999 
L 220.355451 419.259764 
L 220.411663 419.026761 
L 220.58076 418.318579 
L 220.632117 418.103923 
L 220.90347 416.95542 
L 220.995732 416.496753 
L 221.29546 415.309722 
L 221.431638 414.722628 
L 221.64951 413.788782 
L 221.859406 412.836588 
L 221.966579 412.403607 
L 222.216546 411.282624 
L 222.282326 411.003754 
L 222.393732 410.490047 
L 222.440366 410.297407 
L 222.595733 409.622249 
L 222.704041 409.132392 
L 222.820607 408.615015 
L 223.275721 406.618896 
L 223.913139 403.769655 
L 223.992663 403.426572 
L 224.396303 401.615754 
L 224.50908 401.103881 
L 224.564354 400.826846 
L 224.691016 400.237917 
L 224.913262 399.206834 
L 225.066263 398.463793 
L 225.0962 398.30968 
L 226.13657 393.429461 
L 226.248023 392.956117 
L 226.316031 392.625876 
L 226.713929 390.793042 
L 226.827248 390.259153 
L 226.909508 389.881212 
L 227.031603 389.349158 
L 227.352043 387.84106 
L 227.480407 387.213603 
L 229.109961 379.313519 
L 229.36368 377.970541 
L 229.440983 377.56141 
L 229.584847 376.866071 
L 229.641325 376.59454 
L 230.044238 374.539711 
L 230.129693 374.112233 
L 230.311857 373.310483 
L 230.51345 372.29958 
L 233.686315 356.167337 
L 233.786852 355.651795 
L 234.427821 352.356729 
L 234.476929 352.072356 
L 234.669152 351.054115 
L 234.8209 350.320247 
L 235.280458 348.146164 
L 235.317188 347.951689 
L 235.519854 346.951795 
L 235.596487 346.577523 
L 235.758382 345.753756 
L 235.811009 345.436358 
L 236.011298 344.407109 
L 236.119599 343.897071 
L 236.905285 339.958037 
L 236.964436 339.638805 
L 237.086606 338.97282 
L 237.348436 337.661032 
L 238.294625 332.802829 
L 238.504386 331.740555 
L 238.767735 330.309514 
L 238.92616 329.511433 
L 239.001912 329.131656 
L 239.14983 328.359261 
L 239.251012 327.838215 
L 239.621094 325.84026 
L 239.67794 325.544879 
L 240.042594 323.748738 
L 240.200931 322.9635 
L 240.325204 322.264491 
L 240.497472 321.391188 
L 240.617035 320.833449 
L 240.713441 320.33075 
L 241.464906 316.492622 
L 241.529105 316.184398 
L 241.697996 315.307426 
L 242.389607 311.949982 
L 242.837354 309.700678 
L 243.203573 307.814639 
L 243.370646 306.928494 
L 244.039751 303.466474 
L 244.141049 302.9069 
L 244.275726 302.228072 
L 244.323972 301.969384 
L 244.437311 301.40981 
L 244.52965 300.949308 
L 244.655619 300.345702 
L 244.745438 299.903547 
L 247.704969 285.70321 
L 247.78545 285.299582 
L 247.93012 284.573054 
L 248.730561 280.667044 
L 248.759731 280.516601 
L 248.944734 279.648802 
L 248.985424 279.446989 
L 249.122277 278.815863 
L 250.457887 272.511941 
L 250.569324 272.018415 
L 250.625951 271.743214 
L 254.466654 254.337711 
L 254.515438 254.143236 
L 254.858431 252.646146 
L 254.949826 252.2627 
L 255.280581 250.846336 
L 255.395147 250.372991 
L 255.523938 249.793236 
L 255.564592 249.607934 
L 255.705234 249.059368 
L 256.023851 247.688871 
L 256.231024 246.799056 
L 256.30261 246.488997 
L 256.420476 246.00281 
L 256.467521 245.766138 
L 256.698002 244.806606 
L 256.747049 244.602958 
L 257.02399 243.436108 
L 257.066147 243.267319 
L 257.184075 242.814156 
L 257.628538 240.801524 
L 257.676036 240.62723 
L 257.828108 239.986931 
L 257.955479 239.445704 
L 258.028585 239.108125 
L 258.198526 238.399942 
L 263.354802 217.624152 
L 263.511696 217.049901 
L 263.638428 216.532524 
L 268.063289 200.49018 
L 268.131611 200.295705 
L 268.256697 199.851715 
L 268.402177 199.40589 
L 275.254418 178.274174 
L 275.310844 178.105385 
L 275.579892 177.452243 
L 275.647603 177.266941 
L 275.823431 176.777085 
L 277.260183 172.900429 
L 277.398159 172.515149 
L 277.520294 172.181239 
L 277.63303 171.880353 
L 277.986243 170.953846 
L 278.086855 170.706165 
L 278.939536 168.522909 
L 279.025899 168.339442 
L 279.774913 166.400198 
L 279.984875 165.877317 
L 280.674714 164.218776 
L 280.786391 163.914221 
L 280.907838 163.593154 
L 281.0344 163.283095 
L 281.308388 162.629953 
L 281.470134 162.237334 
L 281.697982 161.688768 
L 282.518479 159.74035 
L 282.671146 159.410109 
L 282.965713 158.716604 
L 283.047778 158.566161 
L 284.554722 155.33531 
L 284.624997 155.183032 
L 284.770005 154.856461 
L 284.867126 154.632631 
L 285.123156 154.029025 
L 285.254584 153.75199 
L 285.344837 153.599713 
L 285.791679 152.744757 
L 285.891614 152.566794 
L 286.069145 152.243893 
L 286.721447 150.869726 
L 286.804746 150.689928 
L 286.920797 150.45876 
L 287.301647 149.724892 
L 288.08308 148.224133 
L 288.173715 148.051674 
L 288.308684 147.802159 
L 288.468531 147.514116 
L 288.586108 147.29946 
L 289.309649 145.877592 
L 289.417977 145.706967 
L 289.603518 145.376727 
L 289.754144 145.070337 
L 291.556453 141.953235 
L 291.736001 141.657853 
L 291.821618 141.496402 
L 291.942012 141.272573 
L 292.018182 141.114791 
L 292.147305 140.894631 
L 292.339302 140.571729 
L 292.440896 140.388262 
L 292.690127 139.991974 
L 292.939046 139.592016 
L 293.347604 138.98841 
L 295.403555 135.720865 
L 295.492053 135.575926 
L 295.632263 135.352096 
L 296.097334 134.66593 
L 296.208536 134.478794 
L 296.336157 134.300831 
L 296.487635 134.091679 
L 296.678706 133.829321 
L 296.807583 133.614665 
L 296.884914 133.466057 
L 297.150709 133.067934 
L 297.356893 132.779891 
L 297.497811 132.572573 
L 297.774822 132.205639 
L 297.988454 131.912092 
L 298.265937 131.535985 
L 299.132364 130.367301 
L 299.30508 130.132463 
L 299.427928 129.998533 
L 299.595596 129.794884 
L 300.863772 128.165698 
L 300.989443 128.002413 
L 301.161705 127.82445 
L 301.335282 127.578604 
L 301.630837 127.217175 
L 301.783221 127.033708 
L 301.902057 126.888769 
L 304.455757 123.966141 
L 304.561038 123.83588 
L 304.726187 123.597373 
L 304.876423 123.41941 
L 305.057265 123.234109 
L 305.365574 122.861671 
L 305.506175 122.705724 
L 305.79262 122.371814 
L 305.93998 122.193851 
L 306.099481 122.017723 
L 306.279143 121.810405 
L 306.42962 121.6196 
L 307.194471 120.749967 
L 307.321855 120.612367 
L 307.488504 120.441742 
L 307.770229 120.15003 
L 307.891203 120.008761 
L 308.18426 119.667512 
L 308.411396 119.456525 
L 308.534578 119.300578 
L 308.7167 119.102434 
L 308.873598 118.962999 
L 308.990823 118.852919 
L 309.266202 118.585058 
L 309.455011 118.390583 
L 310.357412 117.546635 
L 310.494146 117.398027 
L 312.099739 115.900937 
L 312.210387 115.811038 
L 312.401109 115.653257 
L 312.848701 115.256968 
L 313.315335 114.820317 
L 313.494113 114.675378 
L 313.649883 114.52677 
L 313.84815 114.352477 
L 313.996169 114.218546 
L 314.403923 113.860785 
L 314.549445 113.717681 
L 315.215923 113.189296 
L 320.122535 109.576833 
L 320.351035 109.417217 
L 320.929054 109.020929 
L 321.166248 108.833793 
L 321.375285 108.694358 
L 321.821576 108.441173 
L 322.152346 108.232021 
L 322.396953 108.066901 
L 325.507198 106.199208 
L 325.989723 105.957032 
L 326.112898 105.889149 
L 326.958793 105.426813 
L 327.181412 105.285543 
L 327.672046 105.026855 
L 328.069993 104.786513 
L 328.420861 104.604881 
L 328.695128 104.448934 
L 329.023568 104.245286 
L 329.445079 103.997605 
L 330.181649 103.627002 
L 330.47288 103.47289 
L 330.581588 103.428858 
L 331.030362 103.234383 
L 334.193147 101.871224 
L 334.525771 101.737293 
L 335.100505 101.47677 
L 335.622761 101.274957 
L 337.231498 100.586956 
L 337.695512 100.443852 
L 340.303966 99.508171 
L 340.635707 99.379744 
L 340.846594 99.280672 
L 341.759172 98.946762 
L 341.867938 98.915573 
L 342.366826 98.748618 
L 342.783799 98.607348 
L 343.303735 98.420212 
L 343.66412 98.313801 
L 344.20599 98.143177 
L 346.706895 97.356104 
L 347.145327 97.247859 
L 347.738949 97.093747 
L 347.862696 97.053384 
L 348.479392 96.868082 
L 348.606249 96.818546 
L 349.507883 96.587378 
L 349.66584 96.539677 
L 350.563329 96.299335 
L 350.673608 96.260807 
L 353.006973 95.648027 
L 353.160975 95.602161 
L 354.125665 95.369158 
L 354.271554 95.328795 
L 355.040535 95.148998 
L 355.407527 95.053595 
L 365.409241 93.143704 
L 366.863385 92.932718 
L 367.098845 92.905198 
L 370.715101 92.36397 
L 372.433627 92.158487 
L 372.616847 92.132802 
L 375.223085 91.86494 
L 375.364986 91.83742 
L 376.862045 91.657623 
L 378.385864 91.481494 
L 378.868873 91.430124 
L 381.018351 91.20079 
L 381.678574 91.127403 
L 383.917514 90.923755 
L 396.151554 90.085311 
L 400.310375 89.881663 
L 400.434266 89.87249 
L 405.822812 89.67618 
L 411.518897 89.494548 
L 417.763641 89.333097 
L 419.356919 89.294569 
L 428.610236 89.12578 
L 428.822272 89.120276 
L 447.016241 88.958825 
L 450.792471 88.944147 
L 497.224097 88.887273 
L 497.224097 88.887273 
" clip-path="url(#p14e6934f0b)" style="fill: none; stroke: #ffa500; stroke-width: 1.75; stroke-linecap: round"/>
   </g>
   <g id="patch_3">
    <path d="M 72 504 
L 72 69.12 
" style="fill: none; stroke: #cccccc; stroke-width: 1.25; stroke-linejoin: miter; stroke-linecap: square"/>
   </g>
   <g id="patch_4">
    <path d="M 518.4 504 
L 518.4 69.12 
" style="fill: none; stroke: #cccccc; stroke-width: 1.25; stroke-linejoin: miter; stroke-linecap: square"/>
   </g>
   <g id="patch_5">
    <path d="M 72 504 
L 518.4 504 
" style="fill: none; stroke: #cccccc; stroke-width: 1.25; stroke-linejoin: miter; stroke-linecap: square"/>
   </g>
   <g id="patch_6">
    <path d="M 72 69.12 
L 518.4 69.12 
" style="fill: none; stroke: #cccccc; stroke-width: 1.25; stroke-linejoin: miter; stroke-linecap: square"/>
   </g>
   <g id="legend_1">
    <g id="line2d_25">
     <path d="M 81 81.866875 
L 91 81.866875 
L 101 81.866875 
" style="fill: none; stroke: #0000ff; stroke-width: 1.75; stroke-linecap: round"/>
    </g>
    <g id="text_14">
     <!-- Farinotti Volume -->
     <g style="fill: #262626" transform="translate(109 85.366875)scale(0.1 -0.1)">
      <defs>
       <path id="LiberationSans-46" d="M 1122 3916 
L 1122 2278 
L 3578 2278 
L 3578 1784 
L 1122 1784 
L 1122 0 
L 525 0 
L 525 4403 
L 3653 4403 
L 3653 3916 
L 1122 3916 
z
" transform="scale(0.015625)"/>
      </defs>
      <use xlink:href="#LiberationSans-46"/>
      <use xlink:href="#LiberationSans-61" x="61.083984"/>
      <use xlink:href="#LiberationSans-72" x="116.699219"/>
      <use xlink:href="#LiberationSans-69" x="150"/>
      <use xlink:href="#LiberationSans-6e" x="172.216797"/>
      <use xlink:href="#LiberationSans-6f" x="227.832031"/>
      <use xlink:href="#LiberationSans-74" x="283.447266"/>
      <use xlink:href="#LiberationSans-74" x="311.230469"/>
      <use xlink:href="#LiberationSans-69" x="339.013672"/>
      <use xlink:href="#LiberationSans-20" x="361.230469"/>
      <use xlink:href="#LiberationSans-56" x="389.013672"/>
      <use xlink:href="#LiberationSans-6f" x="450.212891"/>
      <use xlink:href="#LiberationSans-6c" x="505.828125"/>
      <use xlink:href="#LiberationSans-75" x="528.044922"/>
      <use xlink:href="#LiberationSans-6d" x="583.660156"/>
      <use xlink:href="#LiberationSans-65" x="666.960938"/>
     </g>
    </g>
    <g id="line2d_26">
     <path d="M 81 96.18875 
L 91 96.18875 
L 101 96.18875 
" style="fill: none; stroke: #ffa500; stroke-width: 1.75; stroke-linecap: round"/>
    </g>
    <g id="text_15">
     <!-- Edasi Volume -->
     <g style="fill: #262626" transform="translate(109 99.68875)scale(0.1 -0.1)">
      <defs>
       <path id="LiberationSans-45" d="M 525 0 
L 525 4403 
L 3866 4403 
L 3866 3916 
L 1122 3916 
L 1122 2503 
L 3678 2503 
L 3678 2022 
L 1122 2022 
L 1122 488 
L 3994 488 
L 3994 0 
L 525 0 
z
" transform="scale(0.015625)"/>
       <path id="LiberationSans-64" d="M 2566 544 
Q 2409 219 2151 78 
Q 1894 -63 1513 -63 
Q 872 -63 570 368 
Q 269 800 269 1675 
Q 269 3444 1513 3444 
Q 1897 3444 2153 3303 
Q 2409 3163 2566 2856 
L 2572 2856 
L 2566 3234 
L 2566 4638 
L 3128 4638 
L 3128 697 
Q 3128 169 3147 0 
L 2609 0 
Q 2600 50 2589 231 
Q 2578 413 2578 544 
L 2566 544 
z
M 859 1694 
Q 859 984 1046 678 
Q 1234 372 1656 372 
Q 2134 372 2350 703 
Q 2566 1034 2566 1731 
Q 2566 2403 2350 2715 
Q 2134 3028 1663 3028 
Q 1238 3028 1048 2714 
Q 859 2400 859 1694 
z
" transform="scale(0.015625)"/>
      </defs>
      <use xlink:href="#LiberationSans-45"/>
      <use xlink:href="#LiberationSans-64" x="66.699219"/>
      <use xlink:href="#LiberationSans-61" x="122.314453"/>
      <use xlink:href="#LiberationSans-73" x="177.929688"/>
      <use xlink:href="#LiberationSans-69" x="227.929688"/>
      <use xlink:href="#LiberationSans-20" x="250.146484"/>
      <use xlink:href="#LiberationSans-56" x="277.929688"/>
      <use xlink:href="#LiberationSans-6f" x="339.128906"/>
      <use xlink:href="#LiberationSans-6c" x="394.744141"/>
      <use xlink:href="#LiberationSans-75" x="416.960938"/>
      <use xlink:href="#LiberationSans-6d" x="472.576172"/>
      <use xlink:href="#LiberationSans-65" x="555.876953"/>
     </g>
    </g>
   </g>
  </g>
  <g id="text_16">
   <!-- RGI Volume Cumulative Distribution Function -->
   <g style="fill: #262626" transform="translate(107.431875 53.364375)scale(0.18 -0.18)">
    <defs>
     <path id="LiberationSans-52" d="M 3638 0 
L 2494 1828 
L 1122 1828 
L 1122 0 
L 525 0 
L 525 4403 
L 2597 4403 
Q 3341 4403 3745 4070 
Q 4150 3738 4150 3144 
Q 4150 2653 3864 2318 
Q 3578 1984 3075 1897 
L 4325 0 
L 3638 0 
z
M 3550 3138 
Q 3550 3522 3289 3723 
Q 3028 3925 2538 3925 
L 1122 3925 
L 1122 2300 
L 2563 2300 
Q 3034 2300 3292 2520 
Q 3550 2741 3550 3138 
z
" transform="scale(0.015625)"/>
     <path id="LiberationSans-76" d="M 1916 0 
L 1250 0 
L 22 3381 
L 622 3381 
L 1366 1181 
Q 1406 1056 1581 441 
L 1691 806 
L 1813 1175 
L 2581 3381 
L 3178 3381 
L 1916 0 
z
" transform="scale(0.015625)"/>
     <path id="LiberationSans-44" d="M 4316 2247 
Q 4316 1566 4050 1055 
Q 3784 544 3296 272 
Q 2809 0 2172 0 
L 525 0 
L 525 4403 
L 1981 4403 
Q 3100 4403 3708 3842 
Q 4316 3281 4316 2247 
z
M 3716 2247 
Q 3716 3066 3267 3495 
Q 2819 3925 1969 3925 
L 1122 3925 
L 1122 478 
L 2103 478 
Q 2588 478 2955 690 
Q 3322 903 3519 1303 
Q 3716 1703 3716 2247 
z
" transform="scale(0.015625)"/>
     <path id="LiberationSans-62" d="M 3291 1706 
Q 3291 -63 2047 -63 
Q 1663 -63 1408 76 
Q 1153 216 994 525 
L 988 525 
Q 988 428 975 229 
Q 963 31 956 0 
L 413 0 
Q 431 169 431 697 
L 431 4638 
L 994 4638 
L 994 3316 
Q 994 3113 981 2838 
L 994 2838 
Q 1150 3163 1408 3303 
Q 1666 3444 2047 3444 
Q 2688 3444 2989 3012 
Q 3291 2581 3291 1706 
z
M 2700 1688 
Q 2700 2397 2512 2703 
Q 2325 3009 1903 3009 
Q 1428 3009 1211 2684 
Q 994 2359 994 1653 
Q 994 988 1206 670 
Q 1419 353 1897 353 
Q 2322 353 2511 667 
Q 2700 981 2700 1688 
z
" transform="scale(0.015625)"/>
    </defs>
    <use xlink:href="#LiberationSans-52"/>
    <use xlink:href="#LiberationSans-47" x="72.216797"/>
    <use xlink:href="#LiberationSans-49" x="150"/>
    <use xlink:href="#LiberationSans-20" x="177.783203"/>
    <use xlink:href="#LiberationSans-56" x="205.566406"/>
    <use xlink:href="#LiberationSans-6f" x="266.765625"/>
    <use xlink:href="#LiberationSans-6c" x="322.380859"/>
    <use xlink:href="#LiberationSans-75" x="344.597656"/>
    <use xlink:href="#LiberationSans-6d" x="400.212891"/>
    <use xlink:href="#LiberationSans-65" x="483.513672"/>
    <use xlink:href="#LiberationSans-20" x="539.128906"/>
    <use xlink:href="#LiberationSans-43" x="566.912109"/>
    <use xlink:href="#LiberationSans-75" x="639.128906"/>
    <use xlink:href="#LiberationSans-6d" x="694.744141"/>
    <use xlink:href="#LiberationSans-75" x="778.044922"/>
    <use xlink:href="#LiberationSans-6c" x="833.660156"/>
    <use xlink:href="#LiberationSans-61" x="855.876953"/>
    <use xlink:href="#LiberationSans-74" x="911.492188"/>
    <use xlink:href="#LiberationSans-69" x="939.275391"/>
    <use xlink:href="#LiberationSans-76" x="961.492188"/>
    <use xlink:href="#LiberationSans-65" x="1011.492188"/>
    <use xlink:href="#LiberationSans-20" x="1067.107422"/>
    <use xlink:href="#LiberationSans-44" x="1094.890625"/>
    <use xlink:href="#LiberationSans-69" x="1167.107422"/>
    <use xlink:href="#LiberationSans-73" x="1189.324219"/>
    <use xlink:href="#LiberationSans-74" x="1239.324219"/>
    <use xlink:href="#LiberationSans-72" x="1267.107422"/>
    <use xlink:href="#LiberationSans-69" x="1300.408203"/>
    <use xlink:href="#LiberationSans-62" x="1322.625"/>
    <use xlink:href="#LiberationSans-75" x="1378.240234"/>
    <use xlink:href="#LiberationSans-74" x="1433.855469"/>
    <use xlink:href="#LiberationSans-69" x="1461.638672"/>
    <use xlink:href="#LiberationSans-6f" x="1483.855469"/>
    <use xlink:href="#LiberationSans-6e" x="1539.470703"/>
    <use xlink:href="#LiberationSans-20" x="1595.085938"/>
    <use xlink:href="#LiberationSans-46" x="1622.869141"/>
    <use xlink:href="#LiberationSans-75" x="1683.953125"/>
    <use xlink:href="#LiberationSans-6e" x="1739.568359"/>
    <use xlink:href="#LiberationSans-63" x="1795.183594"/>
    <use xlink:href="#LiberationSans-74" x="1845.183594"/>
    <use xlink:href="#LiberationSans-69" x="1872.966797"/>
    <use xlink:href="#LiberationSans-6f" x="1895.183594"/>
    <use xlink:href="#LiberationSans-6e" x="1950.798828"/>
   </g>
  </g>
 </g>
 <defs>
  <clipPath id="p14e6934f0b">
   <rect x="72" y="69.12" width="446.4" height="434.88"/>
  </clipPath>
 </defs>
</svg>
