<?xml version="1.0" encoding="UTF-8" standalone="no"?>
<!DOCTYPE svg PUBLIC "-//W3C//DTD SVG 1.1//EN"
 "http://www.w3.org/Graphics/SVG/1.1/DTD/svg11.dtd">
<!-- Generated by graphviz version 2.50.0 (0)
 -->
<!-- Title: G Pages: 1 -->
<svg width="1210pt" height="596pt"
 viewBox="0.00 0.00 1210.30 596.00" xmlns="http://www.w3.org/2000/svg" xmlns:xlink="http://www.w3.org/1999/xlink">
<g id="graph0" class="graph" transform="scale(1 1) rotate(0) translate(4 592)">
<title>G</title>
<polygon fill="white" stroke="transparent" points="-4,4 -4,-592 1206.3,-592 1206.3,4 -4,4"/>
<g id="clust1" class="cluster">
<title>cluster_0</title>
<polygon fill="none" stroke="white" points="40,-12 40,-580 364,-580 364,-12 40,-12"/>
<text text-anchor="middle" x="202" y="-560" font-family="Times,serif" font-size="20.00">Input and Normalization layer</text>
</g>
<g id="clust2" class="cluster">
<title>cluster_1</title>
<polygon fill="none" stroke="white" points="384,-28 384,-564 600,-564 600,-28 384,-28"/>
<text text-anchor="middle" x="492" y="-544" font-family="Times,serif" font-size="20.00">Layer 1 </text>
<text text-anchor="middle" x="492" y="-522" font-family="Times,serif" font-size="20.00"> m neurons ∈ [3,20]</text>
</g>
<g id="clust3" class="cluster">
<title>cluster_2</title>
<polygon fill="none" stroke="white" points="620,-242 620,-298 845.3,-298 845.3,-242 620,-242"/>
</g>
<g id="clust4" class="cluster">
<title>cluster_3</title>
<polygon fill="none" stroke="white" points="865.3,-136 865.3,-456 1075.3,-456 1075.3,-136 865.3,-136"/>
<text text-anchor="middle" x="970.3" y="-436" font-family="Times,serif" font-size="20.00">Layer 2 </text>
<text text-anchor="middle" x="970.3" y="-414" font-family="Times,serif" font-size="20.00"> n neurons ∈ [2,15]</text>
</g>
<g id="clust5" class="cluster">
<title>cluster_4</title>
<polygon fill="none" stroke="white" points="1095.3,-244 1095.3,-324 1202.3,-324 1202.3,-244 1095.3,-244"/>
<text text-anchor="middle" x="1148.8" y="-305.6" font-family="Times,serif" font-size="18.00">Thickness</text>
</g>
<!-- x2 -->
<g id="node1" class="node">
<title>x2</title>
<ellipse fill="none" stroke="#00008b" cx="202" cy="-308" rx="18" ry="18"/>
<text text-anchor="middle" x="162.5" y="-275.6" font-family="Times,serif" font-size="18.00">Area</text>
</g>
<!-- a12 -->
<g id="node11" class="node">
<title>a12</title>
<ellipse fill="none" stroke="#ee0000" cx="492" cy="-54" rx="18" ry="18"/>
</g>
<!-- x2&#45;&gt;a12 -->
<g id="edge10" class="edge">
<title>x2&#45;&gt;a12</title>
<path fill="none" stroke="black" d="M216.12,-296.43C261.85,-256.1 414.43,-121.53 470.28,-72.27"/>
<polygon fill="black" stroke="black" points="472.61,-74.88 477.8,-65.64 467.98,-69.63 472.61,-74.88"/>
</g>
<!-- a22 -->
<g id="node12" class="node">
<title>a22</title>
<ellipse fill="none" stroke="#ee0000" cx="492" cy="-486" rx="18" ry="18"/>
</g>
<!-- x2&#45;&gt;a22 -->
<g id="edge11" class="edge">
<title>x2&#45;&gt;a22</title>
<path fill="none" stroke="black" d="M217.68,-317.07C264.48,-346 410.43,-436.21 467.65,-471.57"/>
<polygon fill="black" stroke="black" points="466.01,-474.67 476.35,-476.95 469.69,-468.71 466.01,-474.67"/>
</g>
<!-- a32 -->
<g id="node13" class="node">
<title>a32</title>
<ellipse fill="none" stroke="#ee0000" cx="492" cy="-432" rx="18" ry="18"/>
</g>
<!-- x2&#45;&gt;a32 -->
<g id="edge12" class="edge">
<title>x2&#45;&gt;a32</title>
<path fill="none" stroke="black" d="M218.89,-314.84C266.4,-335.3 407.58,-396.08 465.63,-421.08"/>
<polygon fill="black" stroke="black" points="464.59,-424.44 475.15,-425.18 467.35,-418.01 464.59,-424.44"/>
</g>
<!-- a42 -->
<g id="node14" class="node">
<title>a42</title>
<ellipse fill="none" stroke="#ee0000" cx="492" cy="-378" rx="18" ry="18"/>
</g>
<!-- x2&#45;&gt;a42 -->
<g id="edge13" class="edge">
<title>x2&#45;&gt;a42</title>
<path fill="none" stroke="black" d="M219.73,-312.07C267.65,-323.71 405.72,-357.27 464.26,-371.5"/>
<polygon fill="black" stroke="black" points="463.68,-374.96 474.22,-373.92 465.33,-368.16 463.68,-374.96"/>
</g>
<!-- a52 -->
<g id="node15" class="node">
<title>a52</title>
<ellipse fill="none" stroke="#ee0000" cx="492" cy="-324" rx="18" ry="18"/>
</g>
<!-- x2&#45;&gt;a52 -->
<g id="edge14" class="edge">
<title>x2&#45;&gt;a52</title>
<path fill="none" stroke="black" d="M220.15,-308.95C268.28,-311.63 404.86,-319.21 463.59,-322.48"/>
<polygon fill="black" stroke="black" points="463.76,-325.99 473.94,-323.05 464.15,-319 463.76,-325.99"/>
</g>
<!-- a62 -->
<g id="node16" class="node">
<title>a62</title>
<ellipse fill="none" stroke="#ee0000" cx="492" cy="-270" rx="18" ry="18"/>
</g>
<!-- x2&#45;&gt;a62 -->
<g id="edge15" class="edge">
<title>x2&#45;&gt;a62</title>
<path fill="none" stroke="black" d="M220.15,-305.74C268.38,-299.37 405.43,-281.29 463.96,-273.57"/>
<polygon fill="black" stroke="black" points="464.48,-277.03 473.94,-272.25 463.56,-270.09 464.48,-277.03"/>
</g>
<!-- a72 -->
<g id="node17" class="node">
<title>a72</title>
<ellipse fill="none" stroke="#ee0000" cx="492" cy="-216" rx="18" ry="18"/>
</g>
<!-- x2&#45;&gt;a72 -->
<g id="edge16" class="edge">
<title>x2&#45;&gt;a72</title>
<path fill="none" stroke="black" d="M219.31,-302.79C267.02,-287.55 406.61,-242.96 464.92,-224.33"/>
<polygon fill="black" stroke="black" points="466.05,-227.64 474.51,-221.27 463.92,-220.98 466.05,-227.64"/>
</g>
<!-- a82 -->
<g id="node18" class="node">
<title>a82</title>
<ellipse fill="none" stroke="#ee0000" cx="492" cy="-162" rx="18" ry="18"/>
</g>
<!-- x2&#45;&gt;a82 -->
<g id="edge17" class="edge">
<title>x2&#45;&gt;a82</title>
<path fill="none" stroke="black" d="M218.48,-300.15C265.76,-276.19 408.49,-203.83 466.29,-174.52"/>
<polygon fill="black" stroke="black" points="468.1,-177.53 475.44,-169.89 464.94,-171.29 468.1,-177.53"/>
</g>
<!-- a92 -->
<g id="node19" class="node">
<title>a92</title>
<ellipse fill="none" stroke="#ee0000" cx="492" cy="-108" rx="18" ry="18"/>
</g>
<!-- x2&#45;&gt;a92 -->
<g id="edge18" class="edge">
<title>x2&#45;&gt;a92</title>
<path fill="none" stroke="black" d="M217.28,-298.08C263.82,-265.76 411.39,-163.28 468.31,-123.76"/>
<polygon fill="black" stroke="black" points="470.41,-126.56 476.63,-117.98 466.42,-120.81 470.41,-126.56"/>
</g>
<!-- x3 -->
<g id="node2" class="node">
<title>x3</title>
<ellipse fill="none" stroke="#00008b" cx="202" cy="-254" rx="18" ry="18"/>
<text text-anchor="middle" x="152" y="-221.6" font-family="Times,serif" font-size="18.00">Length</text>
</g>
<!-- x3&#45;&gt;a12 -->
<g id="edge19" class="edge">
<title>x3&#45;&gt;a12</title>
<path fill="none" stroke="black" d="M217.28,-244.08C263.82,-211.76 411.39,-109.28 468.31,-69.76"/>
<polygon fill="black" stroke="black" points="470.41,-72.56 476.63,-63.98 466.42,-66.81 470.41,-72.56"/>
</g>
<!-- x3&#45;&gt;a22 -->
<g id="edge20" class="edge">
<title>x3&#45;&gt;a22</title>
<path fill="none" stroke="black" d="M216.5,-264.88C262.52,-301.95 413.43,-423.51 469.64,-468.8"/>
<polygon fill="black" stroke="black" points="467.54,-471.6 477.52,-475.14 471.93,-466.15 467.54,-471.6"/>
</g>
<!-- x3&#45;&gt;a32 -->
<g id="edge21" class="edge">
<title>x3&#45;&gt;a32</title>
<path fill="none" stroke="black" d="M217.68,-263.07C264.48,-292 410.43,-382.21 467.65,-417.57"/>
<polygon fill="black" stroke="black" points="466.01,-420.67 476.35,-422.95 469.69,-414.71 466.01,-420.67"/>
</g>
<!-- x3&#45;&gt;a42 -->
<g id="edge22" class="edge">
<title>x3&#45;&gt;a42</title>
<path fill="none" stroke="black" d="M218.89,-260.84C266.4,-281.3 407.58,-342.08 465.63,-367.08"/>
<polygon fill="black" stroke="black" points="464.59,-370.44 475.15,-371.18 467.35,-364.01 464.59,-370.44"/>
</g>
<!-- x3&#45;&gt;a52 -->
<g id="edge23" class="edge">
<title>x3&#45;&gt;a52</title>
<path fill="none" stroke="black" d="M219.73,-258.07C267.65,-269.71 405.72,-303.27 464.26,-317.5"/>
<polygon fill="black" stroke="black" points="463.68,-320.96 474.22,-319.92 465.33,-314.16 463.68,-320.96"/>
</g>
<!-- x3&#45;&gt;a62 -->
<g id="edge24" class="edge">
<title>x3&#45;&gt;a62</title>
<path fill="none" stroke="black" d="M220.15,-254.95C268.28,-257.63 404.86,-265.21 463.59,-268.48"/>
<polygon fill="black" stroke="black" points="463.76,-271.99 473.94,-269.05 464.15,-265 463.76,-271.99"/>
</g>
<!-- x3&#45;&gt;a72 -->
<g id="edge25" class="edge">
<title>x3&#45;&gt;a72</title>
<path fill="none" stroke="black" d="M220.15,-251.74C268.38,-245.37 405.43,-227.29 463.96,-219.57"/>
<polygon fill="black" stroke="black" points="464.48,-223.03 473.94,-218.25 463.56,-216.09 464.48,-223.03"/>
</g>
<!-- x3&#45;&gt;a82 -->
<g id="edge26" class="edge">
<title>x3&#45;&gt;a82</title>
<path fill="none" stroke="black" d="M219.31,-248.79C267.02,-233.55 406.61,-188.96 464.92,-170.33"/>
<polygon fill="black" stroke="black" points="466.05,-173.64 474.51,-167.27 463.92,-166.98 466.05,-173.64"/>
</g>
<!-- x3&#45;&gt;a92 -->
<g id="edge27" class="edge">
<title>x3&#45;&gt;a92</title>
<path fill="none" stroke="black" d="M218.48,-246.15C265.76,-222.19 408.49,-149.83 466.29,-120.52"/>
<polygon fill="black" stroke="black" points="468.1,-123.53 475.44,-115.89 464.94,-117.29 468.1,-123.53"/>
</g>
<!-- x5 -->
<g id="node3" class="node">
<title>x5</title>
<ellipse fill="none" stroke="#00008b" cx="202" cy="-200" rx="18" ry="18"/>
<text text-anchor="middle" x="93.5" y="-167.6" font-family="Times,serif" font-size="18.00">Elevation Minimum</text>
</g>
<!-- x5&#45;&gt;a12 -->
<g id="edge37" class="edge">
<title>x5&#45;&gt;a12</title>
<path fill="none" stroke="black" d="M218.48,-192.15C265.76,-168.19 408.49,-95.83 466.29,-66.52"/>
<polygon fill="black" stroke="black" points="468.1,-69.53 475.44,-61.89 464.94,-63.29 468.1,-69.53"/>
</g>
<!-- x5&#45;&gt;a22 -->
<g id="edge38" class="edge">
<title>x5&#45;&gt;a22</title>
<path fill="none" stroke="black" d="M215.37,-212.29C260.42,-257.03 415.92,-411.44 471.26,-466.4"/>
<polygon fill="black" stroke="black" points="469.11,-469.19 478.67,-473.76 474.04,-464.23 469.11,-469.19"/>
</g>
<!-- x5&#45;&gt;a32 -->
<g id="edge39" class="edge">
<title>x5&#45;&gt;a32</title>
<path fill="none" stroke="black" d="M216.5,-210.88C262.52,-247.95 413.43,-369.51 469.64,-414.8"/>
<polygon fill="black" stroke="black" points="467.54,-417.6 477.52,-421.14 471.93,-412.15 467.54,-417.6"/>
</g>
<!-- x5&#45;&gt;a42 -->
<g id="edge40" class="edge">
<title>x5&#45;&gt;a42</title>
<path fill="none" stroke="black" d="M217.68,-209.07C264.48,-238 410.43,-328.21 467.65,-363.57"/>
<polygon fill="black" stroke="black" points="466.01,-366.67 476.35,-368.95 469.69,-360.71 466.01,-366.67"/>
</g>
<!-- x5&#45;&gt;a52 -->
<g id="edge41" class="edge">
<title>x5&#45;&gt;a52</title>
<path fill="none" stroke="black" d="M218.89,-206.84C266.4,-227.3 407.58,-288.08 465.63,-313.08"/>
<polygon fill="black" stroke="black" points="464.59,-316.44 475.15,-317.18 467.35,-310.01 464.59,-316.44"/>
</g>
<!-- x5&#45;&gt;a62 -->
<g id="edge42" class="edge">
<title>x5&#45;&gt;a62</title>
<path fill="none" stroke="black" d="M219.73,-204.07C267.65,-215.71 405.72,-249.27 464.26,-263.5"/>
<polygon fill="black" stroke="black" points="463.68,-266.96 474.22,-265.92 465.33,-260.16 463.68,-266.96"/>
</g>
<!-- x5&#45;&gt;a72 -->
<g id="edge43" class="edge">
<title>x5&#45;&gt;a72</title>
<path fill="none" stroke="black" d="M220.15,-200.95C268.28,-203.63 404.86,-211.21 463.59,-214.48"/>
<polygon fill="black" stroke="black" points="463.76,-217.99 473.94,-215.05 464.15,-211 463.76,-217.99"/>
</g>
<!-- x5&#45;&gt;a82 -->
<g id="edge44" class="edge">
<title>x5&#45;&gt;a82</title>
<path fill="none" stroke="black" d="M220.15,-197.74C268.38,-191.37 405.43,-173.29 463.96,-165.57"/>
<polygon fill="black" stroke="black" points="464.48,-169.03 473.94,-164.25 463.56,-162.09 464.48,-169.03"/>
</g>
<!-- x5&#45;&gt;a92 -->
<g id="edge45" class="edge">
<title>x5&#45;&gt;a92</title>
<path fill="none" stroke="black" d="M219.31,-194.79C267.02,-179.55 406.61,-134.96 464.92,-116.33"/>
<polygon fill="black" stroke="black" points="466.05,-119.64 474.51,-113.27 463.92,-112.98 466.05,-119.64"/>
</g>
<!-- x6 -->
<g id="node4" class="node">
<title>x6</title>
<ellipse fill="none" stroke="#00008b" cx="202" cy="-146" rx="18" ry="18"/>
<text text-anchor="middle" x="103.5" y="-113.6" font-family="Times,serif" font-size="18.00">Elevation Median</text>
</g>
<!-- x6&#45;&gt;a12 -->
<g id="edge46" class="edge">
<title>x6&#45;&gt;a12</title>
<path fill="none" stroke="black" d="M219.31,-140.79C267.02,-125.55 406.61,-80.96 464.92,-62.33"/>
<polygon fill="black" stroke="black" points="466.05,-65.64 474.51,-59.27 463.92,-58.98 466.05,-65.64"/>
</g>
<!-- x6&#45;&gt;a22 -->
<g id="edge47" class="edge">
<title>x6&#45;&gt;a22</title>
<path fill="none" stroke="black" d="M214.29,-159.33C258.38,-211.38 419.19,-401.22 473.18,-464.96"/>
<polygon fill="black" stroke="black" points="470.65,-467.4 479.79,-472.76 476,-462.87 470.65,-467.4"/>
</g>
<!-- x6&#45;&gt;a32 -->
<g id="edge48" class="edge">
<title>x6&#45;&gt;a32</title>
<path fill="none" stroke="black" d="M215.37,-158.29C260.42,-203.03 415.92,-357.44 471.26,-412.4"/>
<polygon fill="black" stroke="black" points="469.11,-415.19 478.67,-419.76 474.04,-410.23 469.11,-415.19"/>
</g>
<!-- x6&#45;&gt;a42 -->
<g id="edge49" class="edge">
<title>x6&#45;&gt;a42</title>
<path fill="none" stroke="black" d="M216.5,-156.88C262.52,-193.95 413.43,-315.51 469.64,-360.8"/>
<polygon fill="black" stroke="black" points="467.54,-363.6 477.52,-367.14 471.93,-358.15 467.54,-363.6"/>
</g>
<!-- x6&#45;&gt;a52 -->
<g id="edge50" class="edge">
<title>x6&#45;&gt;a52</title>
<path fill="none" stroke="black" d="M217.68,-155.07C264.48,-184 410.43,-274.21 467.65,-309.57"/>
<polygon fill="black" stroke="black" points="466.01,-312.67 476.35,-314.95 469.69,-306.71 466.01,-312.67"/>
</g>
<!-- x6&#45;&gt;a62 -->
<g id="edge51" class="edge">
<title>x6&#45;&gt;a62</title>
<path fill="none" stroke="black" d="M218.89,-152.84C266.4,-173.3 407.58,-234.08 465.63,-259.08"/>
<polygon fill="black" stroke="black" points="464.59,-262.44 475.15,-263.18 467.35,-256.01 464.59,-262.44"/>
</g>
<!-- x6&#45;&gt;a72 -->
<g id="edge52" class="edge">
<title>x6&#45;&gt;a72</title>
<path fill="none" stroke="black" d="M219.73,-150.07C267.65,-161.71 405.72,-195.27 464.26,-209.5"/>
<polygon fill="black" stroke="black" points="463.68,-212.96 474.22,-211.92 465.33,-206.16 463.68,-212.96"/>
</g>
<!-- x6&#45;&gt;a82 -->
<g id="edge53" class="edge">
<title>x6&#45;&gt;a82</title>
<path fill="none" stroke="black" d="M220.15,-146.95C268.28,-149.63 404.86,-157.21 463.59,-160.48"/>
<polygon fill="black" stroke="black" points="463.76,-163.99 473.94,-161.05 464.15,-157 463.76,-163.99"/>
</g>
<!-- x6&#45;&gt;a92 -->
<g id="edge54" class="edge">
<title>x6&#45;&gt;a92</title>
<path fill="none" stroke="black" d="M220.15,-143.74C268.38,-137.37 405.43,-119.29 463.96,-111.57"/>
<polygon fill="black" stroke="black" points="464.48,-115.03 473.94,-110.25 463.56,-108.09 464.48,-115.03"/>
</g>
<!-- x7 -->
<g id="node5" class="node">
<title>x7</title>
<ellipse fill="none" stroke="#00008b" cx="202" cy="-92" rx="18" ry="18"/>
<text text-anchor="middle" x="92" y="-59.6" font-family="Times,serif" font-size="18.00">Elevation Maximum</text>
</g>
<!-- x7&#45;&gt;a12 -->
<g id="edge55" class="edge">
<title>x7&#45;&gt;a12</title>
<path fill="none" stroke="black" d="M220.15,-89.74C268.38,-83.37 405.43,-65.29 463.96,-57.57"/>
<polygon fill="black" stroke="black" points="464.48,-61.03 473.94,-56.25 463.56,-54.09 464.48,-61.03"/>
</g>
<!-- x7&#45;&gt;a22 -->
<g id="edge56" class="edge">
<title>x7&#45;&gt;a22</title>
<path fill="none" stroke="black" d="M213.59,-106.49C257,-165.87 421.47,-390.88 474.45,-463.36"/>
<polygon fill="black" stroke="black" points="471.89,-465.79 480.62,-471.79 477.54,-461.66 471.89,-465.79"/>
</g>
<!-- x7&#45;&gt;a32 -->
<g id="edge57" class="edge">
<title>x7&#45;&gt;a32</title>
<path fill="none" stroke="black" d="M214.29,-105.33C258.38,-157.38 419.19,-347.22 473.18,-410.96"/>
<polygon fill="black" stroke="black" points="470.65,-413.4 479.79,-418.76 476,-408.87 470.65,-413.4"/>
</g>
<!-- x7&#45;&gt;a42 -->
<g id="edge58" class="edge">
<title>x7&#45;&gt;a42</title>
<path fill="none" stroke="black" d="M215.37,-104.29C260.42,-149.03 415.92,-303.44 471.26,-358.4"/>
<polygon fill="black" stroke="black" points="469.11,-361.19 478.67,-365.76 474.04,-356.23 469.11,-361.19"/>
</g>
<!-- x7&#45;&gt;a52 -->
<g id="edge59" class="edge">
<title>x7&#45;&gt;a52</title>
<path fill="none" stroke="black" d="M216.5,-102.88C262.52,-139.95 413.43,-261.51 469.64,-306.8"/>
<polygon fill="black" stroke="black" points="467.54,-309.6 477.52,-313.14 471.93,-304.15 467.54,-309.6"/>
</g>
<!-- x7&#45;&gt;a62 -->
<g id="edge60" class="edge">
<title>x7&#45;&gt;a62</title>
<path fill="none" stroke="black" d="M217.68,-101.07C264.48,-130 410.43,-220.21 467.65,-255.57"/>
<polygon fill="black" stroke="black" points="466.01,-258.67 476.35,-260.95 469.69,-252.71 466.01,-258.67"/>
</g>
<!-- x7&#45;&gt;a72 -->
<g id="edge61" class="edge">
<title>x7&#45;&gt;a72</title>
<path fill="none" stroke="black" d="M218.89,-98.84C266.4,-119.3 407.58,-180.08 465.63,-205.08"/>
<polygon fill="black" stroke="black" points="464.59,-208.44 475.15,-209.18 467.35,-202.01 464.59,-208.44"/>
</g>
<!-- x7&#45;&gt;a82 -->
<g id="edge62" class="edge">
<title>x7&#45;&gt;a82</title>
<path fill="none" stroke="black" d="M219.73,-96.07C267.65,-107.71 405.72,-141.27 464.26,-155.5"/>
<polygon fill="black" stroke="black" points="463.68,-158.96 474.22,-157.92 465.33,-152.16 463.68,-158.96"/>
</g>
<!-- x7&#45;&gt;a92 -->
<g id="edge63" class="edge">
<title>x7&#45;&gt;a92</title>
<path fill="none" stroke="black" d="M220.15,-92.95C268.28,-95.63 404.86,-103.21 463.59,-106.48"/>
<polygon fill="black" stroke="black" points="463.76,-109.99 473.94,-107.05 464.15,-103 463.76,-109.99"/>
</g>
<!-- x8 -->
<g id="node6" class="node">
<title>x8</title>
<ellipse fill="none" stroke="#00008b" cx="202" cy="-38" rx="18" ry="18"/>
<text text-anchor="middle" x="103.5" y="-5.6" font-family="Times,serif" font-size="18.00">Elevation Change</text>
</g>
<!-- x8&#45;&gt;a12 -->
<g id="edge64" class="edge">
<title>x8&#45;&gt;a12</title>
<path fill="none" stroke="black" d="M220.15,-38.95C268.28,-41.63 404.86,-49.21 463.59,-52.48"/>
<polygon fill="black" stroke="black" points="463.76,-55.99 473.94,-53.05 464.15,-49 463.76,-55.99"/>
</g>
<!-- x8&#45;&gt;a22 -->
<g id="edge65" class="edge">
<title>x8&#45;&gt;a22</title>
<path fill="none" stroke="black" d="M212.58,-52.91C254.78,-118.55 424.23,-382.14 475.94,-462.58"/>
<polygon fill="black" stroke="black" points="473.03,-464.52 481.38,-471.04 478.92,-460.73 473.03,-464.52"/>
</g>
<!-- x8&#45;&gt;a32 -->
<g id="edge66" class="edge">
<title>x8&#45;&gt;a32</title>
<path fill="none" stroke="black" d="M213.59,-52.49C257,-111.87 421.47,-336.88 474.45,-409.36"/>
<polygon fill="black" stroke="black" points="471.89,-411.79 480.62,-417.79 477.54,-407.66 471.89,-411.79"/>
</g>
<!-- x8&#45;&gt;a42 -->
<g id="edge67" class="edge">
<title>x8&#45;&gt;a42</title>
<path fill="none" stroke="black" d="M214.29,-51.33C258.38,-103.38 419.19,-293.22 473.18,-356.96"/>
<polygon fill="black" stroke="black" points="470.65,-359.4 479.79,-364.76 476,-354.87 470.65,-359.4"/>
</g>
<!-- x8&#45;&gt;a52 -->
<g id="edge68" class="edge">
<title>x8&#45;&gt;a52</title>
<path fill="none" stroke="black" d="M215.37,-50.29C260.42,-95.03 415.92,-249.44 471.26,-304.4"/>
<polygon fill="black" stroke="black" points="469.11,-307.19 478.67,-311.76 474.04,-302.23 469.11,-307.19"/>
</g>
<!-- x8&#45;&gt;a62 -->
<g id="edge69" class="edge">
<title>x8&#45;&gt;a62</title>
<path fill="none" stroke="black" d="M216.5,-48.88C262.52,-85.95 413.43,-207.51 469.64,-252.8"/>
<polygon fill="black" stroke="black" points="467.54,-255.6 477.52,-259.14 471.93,-250.15 467.54,-255.6"/>
</g>
<!-- x8&#45;&gt;a72 -->
<g id="edge70" class="edge">
<title>x8&#45;&gt;a72</title>
<path fill="none" stroke="black" d="M217.68,-47.07C264.48,-76 410.43,-166.21 467.65,-201.57"/>
<polygon fill="black" stroke="black" points="466.01,-204.67 476.35,-206.95 469.69,-198.71 466.01,-204.67"/>
</g>
<!-- x8&#45;&gt;a82 -->
<g id="edge71" class="edge">
<title>x8&#45;&gt;a82</title>
<path fill="none" stroke="black" d="M218.89,-44.84C266.4,-65.3 407.58,-126.08 465.63,-151.08"/>
<polygon fill="black" stroke="black" points="464.59,-154.44 475.15,-155.18 467.35,-148.01 464.59,-154.44"/>
</g>
<!-- x8&#45;&gt;a92 -->
<g id="edge72" class="edge">
<title>x8&#45;&gt;a92</title>
<path fill="none" stroke="black" d="M219.73,-42.07C267.65,-53.71 405.72,-87.27 464.26,-101.5"/>
<polygon fill="black" stroke="black" points="463.68,-104.96 474.22,-103.92 465.33,-98.16 463.68,-104.96"/>
</g>
<!-- x1 -->
<g id="node7" class="node">
<title>x1</title>
<ellipse fill="none" stroke="#00008b" cx="202" cy="-524" rx="18" ry="18"/>
<text text-anchor="middle" x="158.5" y="-491.6" font-family="Times,serif" font-size="18.00">Slope</text>
</g>
<!-- x1&#45;&gt;a12 -->
<g id="edge1" class="edge">
<title>x1&#45;&gt;a12</title>
<path fill="none" stroke="black" d="M212.26,-508.89C254.02,-440.74 425.07,-161.6 476.38,-77.86"/>
<polygon fill="black" stroke="black" points="479.39,-79.64 481.63,-69.29 473.42,-75.98 479.39,-79.64"/>
</g>
<!-- x1&#45;&gt;a22 -->
<g id="edge2" class="edge">
<title>x1&#45;&gt;a22</title>
<path fill="none" stroke="black" d="M220.15,-521.74C268.38,-515.37 405.43,-497.29 463.96,-489.57"/>
<polygon fill="black" stroke="black" points="464.48,-493.03 473.94,-488.25 463.56,-486.09 464.48,-493.03"/>
</g>
<!-- x1&#45;&gt;a32 -->
<g id="edge3" class="edge">
<title>x1&#45;&gt;a32</title>
<path fill="none" stroke="black" d="M219.31,-518.79C267.02,-503.55 406.61,-458.96 464.92,-440.33"/>
<polygon fill="black" stroke="black" points="466.05,-443.64 474.51,-437.27 463.92,-436.98 466.05,-443.64"/>
</g>
<!-- x1&#45;&gt;a42 -->
<g id="edge4" class="edge">
<title>x1&#45;&gt;a42</title>
<path fill="none" stroke="black" d="M218.48,-516.15C265.76,-492.19 408.49,-419.83 466.29,-390.52"/>
<polygon fill="black" stroke="black" points="468.1,-393.53 475.44,-385.89 464.94,-387.29 468.1,-393.53"/>
</g>
<!-- x1&#45;&gt;a52 -->
<g id="edge5" class="edge">
<title>x1&#45;&gt;a52</title>
<path fill="none" stroke="black" d="M217.28,-514.08C263.82,-481.76 411.39,-379.28 468.31,-339.76"/>
<polygon fill="black" stroke="black" points="470.41,-342.56 476.63,-333.98 466.42,-336.81 470.41,-342.56"/>
</g>
<!-- x1&#45;&gt;a62 -->
<g id="edge6" class="edge">
<title>x1&#45;&gt;a62</title>
<path fill="none" stroke="black" d="M216.12,-512.43C261.85,-472.1 414.43,-337.53 470.28,-288.27"/>
<polygon fill="black" stroke="black" points="472.61,-290.88 477.8,-281.64 467.98,-285.63 472.61,-290.88"/>
</g>
<!-- x1&#45;&gt;a72 -->
<g id="edge7" class="edge">
<title>x1&#45;&gt;a72</title>
<path fill="none" stroke="black" d="M215.01,-511.16C259.75,-463.31 416.97,-295.17 471.89,-236.43"/>
<polygon fill="black" stroke="black" points="474.67,-238.59 478.94,-228.9 469.55,-233.81 474.67,-238.59"/>
</g>
<!-- x1&#45;&gt;a82 -->
<g id="edge8" class="edge">
<title>x1&#45;&gt;a82</title>
<path fill="none" stroke="black" d="M213.94,-510.25C257.69,-455.26 420.28,-250.89 473.8,-183.62"/>
<polygon fill="black" stroke="black" points="476.56,-185.77 480.05,-175.76 471.09,-181.41 476.56,-185.77"/>
</g>
<!-- x1&#45;&gt;a92 -->
<g id="edge9" class="edge">
<title>x1&#45;&gt;a92</title>
<path fill="none" stroke="black" d="M212.91,-509.68C255.4,-448.31 422.32,-207.2 474.99,-131.13"/>
<polygon fill="black" stroke="black" points="478.02,-132.9 480.83,-122.69 472.26,-128.92 478.02,-132.9"/>
</g>
<!-- x4 -->
<g id="node8" class="node">
<title>x4</title>
<ellipse fill="none" stroke="#00008b" cx="202" cy="-470" rx="18" ry="18"/>
<text text-anchor="middle" x="153.5" y="-437.6" font-family="Times,serif" font-size="18.00">Aspect</text>
</g>
<!-- x4&#45;&gt;a12 -->
<g id="edge28" class="edge">
<title>x4&#45;&gt;a12</title>
<path fill="none" stroke="black" d="M212.91,-455.68C255.4,-394.31 422.32,-153.2 474.99,-77.13"/>
<polygon fill="black" stroke="black" points="478.02,-78.9 480.83,-68.69 472.26,-74.92 478.02,-78.9"/>
</g>
<!-- x4&#45;&gt;a22 -->
<g id="edge29" class="edge">
<title>x4&#45;&gt;a22</title>
<path fill="none" stroke="black" d="M220.15,-470.95C268.28,-473.63 404.86,-481.21 463.59,-484.48"/>
<polygon fill="black" stroke="black" points="463.76,-487.99 473.94,-485.05 464.15,-481 463.76,-487.99"/>
</g>
<!-- x4&#45;&gt;a32 -->
<g id="edge30" class="edge">
<title>x4&#45;&gt;a32</title>
<path fill="none" stroke="black" d="M220.15,-467.74C268.38,-461.37 405.43,-443.29 463.96,-435.57"/>
<polygon fill="black" stroke="black" points="464.48,-439.03 473.94,-434.25 463.56,-432.09 464.48,-439.03"/>
</g>
<!-- x4&#45;&gt;a42 -->
<g id="edge31" class="edge">
<title>x4&#45;&gt;a42</title>
<path fill="none" stroke="black" d="M219.31,-464.79C267.02,-449.55 406.61,-404.96 464.92,-386.33"/>
<polygon fill="black" stroke="black" points="466.05,-389.64 474.51,-383.27 463.92,-382.98 466.05,-389.64"/>
</g>
<!-- x4&#45;&gt;a52 -->
<g id="edge32" class="edge">
<title>x4&#45;&gt;a52</title>
<path fill="none" stroke="black" d="M218.48,-462.15C265.76,-438.19 408.49,-365.83 466.29,-336.52"/>
<polygon fill="black" stroke="black" points="468.1,-339.53 475.44,-331.89 464.94,-333.29 468.1,-339.53"/>
</g>
<!-- x4&#45;&gt;a62 -->
<g id="edge33" class="edge">
<title>x4&#45;&gt;a62</title>
<path fill="none" stroke="black" d="M217.28,-460.08C263.82,-427.76 411.39,-325.28 468.31,-285.76"/>
<polygon fill="black" stroke="black" points="470.41,-288.56 476.63,-279.98 466.42,-282.81 470.41,-288.56"/>
</g>
<!-- x4&#45;&gt;a72 -->
<g id="edge34" class="edge">
<title>x4&#45;&gt;a72</title>
<path fill="none" stroke="black" d="M216.12,-458.43C261.85,-418.1 414.43,-283.53 470.28,-234.27"/>
<polygon fill="black" stroke="black" points="472.61,-236.88 477.8,-227.64 467.98,-231.63 472.61,-236.88"/>
</g>
<!-- x4&#45;&gt;a82 -->
<g id="edge35" class="edge">
<title>x4&#45;&gt;a82</title>
<path fill="none" stroke="black" d="M215.01,-457.16C259.75,-409.31 416.97,-241.17 471.89,-182.43"/>
<polygon fill="black" stroke="black" points="474.67,-184.59 478.94,-174.9 469.55,-179.81 474.67,-184.59"/>
</g>
<!-- x4&#45;&gt;a92 -->
<g id="edge36" class="edge">
<title>x4&#45;&gt;a92</title>
<path fill="none" stroke="black" d="M213.94,-456.25C257.69,-401.26 420.28,-196.89 473.8,-129.62"/>
<polygon fill="black" stroke="black" points="476.56,-131.77 480.05,-121.76 471.09,-127.41 476.56,-131.77"/>
</g>
<!-- x9 -->
<g id="node9" class="node">
<title>x9</title>
<ellipse fill="none" stroke="#00008b" cx="202" cy="-416" rx="18" ry="18"/>
<text text-anchor="middle" x="145.5" y="-383.6" font-family="Times,serif" font-size="18.00">Latitude</text>
</g>
<!-- x9&#45;&gt;a12 -->
<g id="edge73" class="edge">
<title>x9&#45;&gt;a12</title>
<path fill="none" stroke="black" d="M213.94,-402.25C257.69,-347.26 420.28,-142.89 473.8,-75.62"/>
<polygon fill="black" stroke="black" points="476.56,-77.77 480.05,-67.76 471.09,-73.41 476.56,-77.77"/>
</g>
<!-- x9&#45;&gt;a22 -->
<g id="edge74" class="edge">
<title>x9&#45;&gt;a22</title>
<path fill="none" stroke="black" d="M219.73,-420.07C267.65,-431.71 405.72,-465.27 464.26,-479.5"/>
<polygon fill="black" stroke="black" points="463.68,-482.96 474.22,-481.92 465.33,-476.16 463.68,-482.96"/>
</g>
<!-- x9&#45;&gt;a32 -->
<g id="edge75" class="edge">
<title>x9&#45;&gt;a32</title>
<path fill="none" stroke="black" d="M220.15,-416.95C268.28,-419.63 404.86,-427.21 463.59,-430.48"/>
<polygon fill="black" stroke="black" points="463.76,-433.99 473.94,-431.05 464.15,-427 463.76,-433.99"/>
</g>
<!-- x9&#45;&gt;a42 -->
<g id="edge76" class="edge">
<title>x9&#45;&gt;a42</title>
<path fill="none" stroke="black" d="M220.15,-413.74C268.38,-407.37 405.43,-389.29 463.96,-381.57"/>
<polygon fill="black" stroke="black" points="464.48,-385.03 473.94,-380.25 463.56,-378.09 464.48,-385.03"/>
</g>
<!-- x9&#45;&gt;a52 -->
<g id="edge77" class="edge">
<title>x9&#45;&gt;a52</title>
<path fill="none" stroke="black" d="M219.31,-410.79C267.02,-395.55 406.61,-350.96 464.92,-332.33"/>
<polygon fill="black" stroke="black" points="466.05,-335.64 474.51,-329.27 463.92,-328.98 466.05,-335.64"/>
</g>
<!-- x9&#45;&gt;a62 -->
<g id="edge78" class="edge">
<title>x9&#45;&gt;a62</title>
<path fill="none" stroke="black" d="M218.48,-408.15C265.76,-384.19 408.49,-311.83 466.29,-282.52"/>
<polygon fill="black" stroke="black" points="468.1,-285.53 475.44,-277.89 464.94,-279.29 468.1,-285.53"/>
</g>
<!-- x9&#45;&gt;a72 -->
<g id="edge79" class="edge">
<title>x9&#45;&gt;a72</title>
<path fill="none" stroke="black" d="M217.28,-406.08C263.82,-373.76 411.39,-271.28 468.31,-231.76"/>
<polygon fill="black" stroke="black" points="470.41,-234.56 476.63,-225.98 466.42,-228.81 470.41,-234.56"/>
</g>
<!-- x9&#45;&gt;a82 -->
<g id="edge80" class="edge">
<title>x9&#45;&gt;a82</title>
<path fill="none" stroke="black" d="M216.12,-404.43C261.85,-364.1 414.43,-229.53 470.28,-180.27"/>
<polygon fill="black" stroke="black" points="472.61,-182.88 477.8,-173.64 467.98,-177.63 472.61,-182.88"/>
</g>
<!-- x9&#45;&gt;a92 -->
<g id="edge81" class="edge">
<title>x9&#45;&gt;a92</title>
<path fill="none" stroke="black" d="M215.01,-403.16C259.75,-355.31 416.97,-187.17 471.89,-128.43"/>
<polygon fill="black" stroke="black" points="474.67,-130.59 478.94,-120.9 469.55,-125.81 474.67,-130.59"/>
</g>
<!-- x10 -->
<g id="node10" class="node">
<title>x10</title>
<ellipse fill="none" stroke="#00008b" cx="202" cy="-362" rx="18" ry="18"/>
<text text-anchor="middle" x="138" y="-329.6" font-family="Times,serif" font-size="18.00">Longitude</text>
</g>
<!-- x10&#45;&gt;a12 -->
<g id="edge82" class="edge">
<title>x10&#45;&gt;a12</title>
<path fill="none" stroke="black" d="M215.01,-349.16C259.75,-301.31 416.97,-133.17 471.89,-74.43"/>
<polygon fill="black" stroke="black" points="474.67,-76.59 478.94,-66.9 469.55,-71.81 474.67,-76.59"/>
</g>
<!-- x10&#45;&gt;a22 -->
<g id="edge83" class="edge">
<title>x10&#45;&gt;a22</title>
<path fill="none" stroke="black" d="M218.89,-368.84C266.4,-389.3 407.58,-450.08 465.63,-475.08"/>
<polygon fill="black" stroke="black" points="464.59,-478.44 475.15,-479.18 467.35,-472.01 464.59,-478.44"/>
</g>
<!-- x10&#45;&gt;a32 -->
<g id="edge84" class="edge">
<title>x10&#45;&gt;a32</title>
<path fill="none" stroke="black" d="M219.73,-366.07C267.65,-377.71 405.72,-411.27 464.26,-425.5"/>
<polygon fill="black" stroke="black" points="463.68,-428.96 474.22,-427.92 465.33,-422.16 463.68,-428.96"/>
</g>
<!-- x10&#45;&gt;a42 -->
<g id="edge85" class="edge">
<title>x10&#45;&gt;a42</title>
<path fill="none" stroke="black" d="M220.15,-362.95C268.28,-365.63 404.86,-373.21 463.59,-376.48"/>
<polygon fill="black" stroke="black" points="463.76,-379.99 473.94,-377.05 464.15,-373 463.76,-379.99"/>
</g>
<!-- x10&#45;&gt;a52 -->
<g id="edge86" class="edge">
<title>x10&#45;&gt;a52</title>
<path fill="none" stroke="black" d="M220.15,-359.74C268.38,-353.37 405.43,-335.29 463.96,-327.57"/>
<polygon fill="black" stroke="black" points="464.48,-331.03 473.94,-326.25 463.56,-324.09 464.48,-331.03"/>
</g>
<!-- x10&#45;&gt;a62 -->
<g id="edge87" class="edge">
<title>x10&#45;&gt;a62</title>
<path fill="none" stroke="black" d="M219.31,-356.79C267.02,-341.55 406.61,-296.96 464.92,-278.33"/>
<polygon fill="black" stroke="black" points="466.05,-281.64 474.51,-275.27 463.92,-274.98 466.05,-281.64"/>
</g>
<!-- x10&#45;&gt;a72 -->
<g id="edge88" class="edge">
<title>x10&#45;&gt;a72</title>
<path fill="none" stroke="black" d="M218.48,-354.15C265.76,-330.19 408.49,-257.83 466.29,-228.52"/>
<polygon fill="black" stroke="black" points="468.1,-231.53 475.44,-223.89 464.94,-225.29 468.1,-231.53"/>
</g>
<!-- x10&#45;&gt;a82 -->
<g id="edge89" class="edge">
<title>x10&#45;&gt;a82</title>
<path fill="none" stroke="black" d="M217.28,-352.08C263.82,-319.76 411.39,-217.28 468.31,-177.76"/>
<polygon fill="black" stroke="black" points="470.41,-180.56 476.63,-171.98 466.42,-174.81 470.41,-180.56"/>
</g>
<!-- x10&#45;&gt;a92 -->
<g id="edge90" class="edge">
<title>x10&#45;&gt;a92</title>
<path fill="none" stroke="black" d="M216.12,-350.43C261.85,-310.1 414.43,-175.53 470.28,-126.27"/>
<polygon fill="black" stroke="black" points="472.61,-128.88 477.8,-119.64 467.98,-123.63 472.61,-128.88"/>
</g>
<!-- O -->
<g id="node20" class="node">
<title>O</title>
<ellipse fill="none" stroke="#4eee94" cx="732.65" cy="-270" rx="104.8" ry="19.6"/>
<text text-anchor="middle" x="732.65" y="-265.6" font-family="Times,serif" font-size="18.00">Dropout Layer</text>
</g>
<!-- a12&#45;&gt;O -->
<g id="edge91" class="edge">
<title>a12&#45;&gt;O</title>
<path fill="none" stroke="black" d="M505.83,-65.61C542.85,-99.12 650.53,-196.57 702.67,-243.77"/>
<polygon fill="black" stroke="black" points="700.49,-246.51 710.25,-250.63 705.18,-241.32 700.49,-246.51"/>
</g>
<!-- a22&#45;&gt;O -->
<g id="edge92" class="edge">
<title>a22&#45;&gt;O</title>
<path fill="none" stroke="black" d="M505.83,-474.39C542.85,-440.88 650.53,-343.43 702.67,-296.23"/>
<polygon fill="black" stroke="black" points="705.18,-298.68 710.25,-289.37 700.49,-293.49 705.18,-298.68"/>
</g>
<!-- a32&#45;&gt;O -->
<g id="edge93" class="edge">
<title>a32&#45;&gt;O</title>
<path fill="none" stroke="black" d="M507.21,-422.35C543.62,-397.64 641.12,-331.45 694.86,-294.98"/>
<polygon fill="black" stroke="black" points="697.1,-297.68 703.41,-289.17 693.17,-291.89 697.1,-297.68"/>
</g>
<!-- a42&#45;&gt;O -->
<g id="edge94" class="edge">
<title>a42&#45;&gt;O</title>
<path fill="none" stroke="black" d="M508.66,-370.91C543.26,-355.25 627.48,-317.14 681.95,-292.49"/>
<polygon fill="black" stroke="black" points="683.42,-295.67 691.08,-288.36 680.53,-289.29 683.42,-295.67"/>
</g>
<!-- a52&#45;&gt;O -->
<g id="edge95" class="edge">
<title>a52&#45;&gt;O</title>
<path fill="none" stroke="black" d="M509.78,-320.2C539.58,-313.46 603.47,-299 655.06,-287.33"/>
<polygon fill="black" stroke="black" points="655.89,-290.73 664.88,-285.11 654.35,-283.9 655.89,-290.73"/>
</g>
<!-- a62&#45;&gt;O -->
<g id="edge96" class="edge">
<title>a62&#45;&gt;O</title>
<path fill="none" stroke="black" d="M510.16,-270C533.17,-270 575.97,-270 617.87,-270"/>
<polygon fill="black" stroke="black" points="617.92,-273.5 627.92,-270 617.92,-266.5 617.92,-273.5"/>
</g>
<!-- a72&#45;&gt;O -->
<g id="edge97" class="edge">
<title>a72&#45;&gt;O</title>
<path fill="none" stroke="black" d="M509.78,-219.8C539.58,-226.54 603.47,-241 655.06,-252.67"/>
<polygon fill="black" stroke="black" points="654.35,-256.1 664.88,-254.89 655.89,-249.27 654.35,-256.1"/>
</g>
<!-- a82&#45;&gt;O -->
<g id="edge98" class="edge">
<title>a82&#45;&gt;O</title>
<path fill="none" stroke="black" d="M508.66,-169.09C543.26,-184.75 627.48,-222.86 681.95,-247.51"/>
<polygon fill="black" stroke="black" points="680.53,-250.71 691.08,-251.64 683.42,-244.33 680.53,-250.71"/>
</g>
<!-- a92&#45;&gt;O -->
<g id="edge99" class="edge">
<title>a92&#45;&gt;O</title>
<path fill="none" stroke="black" d="M507.21,-117.65C543.62,-142.36 641.12,-208.55 694.86,-245.02"/>
<polygon fill="black" stroke="black" points="693.17,-248.11 703.41,-250.83 697.1,-242.32 693.17,-248.11"/>
</g>
<!-- b13 -->
<g id="node21" class="node">
<title>b13</title>
<ellipse fill="none" stroke="#ee0000" cx="970.3" cy="-378" rx="18" ry="18"/>
</g>
<!-- O&#45;&gt;b13 -->
<g id="edge100" class="edge">
<title>O&#45;&gt;b13</title>
<path fill="none" stroke="black" d="M773.63,-288.32C822.52,-310.73 903.77,-347.97 944.47,-366.62"/>
<polygon fill="black" stroke="black" points="943.12,-369.85 953.67,-370.83 946.04,-363.49 943.12,-369.85"/>
</g>
<!-- b23 -->
<g id="node22" class="node">
<title>b23</title>
<ellipse fill="none" stroke="#ee0000" cx="970.3" cy="-324" rx="18" ry="18"/>
</g>
<!-- O&#45;&gt;b23 -->
<g id="edge101" class="edge">
<title>O&#45;&gt;b23</title>
<path fill="none" stroke="black" d="M799.92,-285.19C847.3,-296.04 908.52,-310.07 942.88,-317.95"/>
<polygon fill="black" stroke="black" points="942.11,-321.36 952.64,-320.18 943.67,-314.54 942.11,-321.36"/>
</g>
<!-- b33 -->
<g id="node23" class="node">
<title>b33</title>
<ellipse fill="none" stroke="#ee0000" cx="970.3" cy="-270" rx="18" ry="18"/>
</g>
<!-- O&#45;&gt;b33 -->
<g id="edge102" class="edge">
<title>O&#45;&gt;b33</title>
<path fill="none" stroke="black" d="M837.36,-270C875.82,-270 916.32,-270 942.14,-270"/>
<polygon fill="black" stroke="black" points="942.26,-273.5 952.26,-270 942.26,-266.5 942.26,-273.5"/>
</g>
<!-- b43 -->
<g id="node24" class="node">
<title>b43</title>
<ellipse fill="none" stroke="#ee0000" cx="970.3" cy="-216" rx="18" ry="18"/>
</g>
<!-- O&#45;&gt;b43 -->
<g id="edge103" class="edge">
<title>O&#45;&gt;b43</title>
<path fill="none" stroke="black" d="M799.92,-254.81C847.3,-243.96 908.52,-229.93 942.88,-222.05"/>
<polygon fill="black" stroke="black" points="943.67,-225.46 952.64,-219.82 942.11,-218.64 943.67,-225.46"/>
</g>
<!-- b53 -->
<g id="node25" class="node">
<title>b53</title>
<ellipse fill="none" stroke="#ee0000" cx="970.3" cy="-162" rx="18" ry="18"/>
</g>
<!-- O&#45;&gt;b53 -->
<g id="edge104" class="edge">
<title>O&#45;&gt;b53</title>
<path fill="none" stroke="black" d="M773.63,-251.68C822.52,-229.27 903.77,-192.03 944.47,-173.38"/>
<polygon fill="black" stroke="black" points="946.04,-176.51 953.67,-169.17 943.12,-170.15 946.04,-176.51"/>
</g>
<!-- c11 -->
<g id="node26" class="node">
<title>c11</title>
<ellipse fill="none" stroke="#ee9a00" cx="1148.3" cy="-270" rx="18" ry="18"/>
</g>
<!-- b13&#45;&gt;c11 -->
<g id="edge105" class="edge">
<title>b13&#45;&gt;c11</title>
<path fill="none" stroke="black" d="M986.01,-368.98C1016.47,-350.28 1086.72,-307.18 1123.64,-284.52"/>
<polygon fill="black" stroke="black" points="1125.58,-287.44 1132.27,-279.23 1121.92,-281.47 1125.58,-287.44"/>
</g>
<!-- b23&#45;&gt;c11 -->
<g id="edge106" class="edge">
<title>b23&#45;&gt;c11</title>
<path fill="none" stroke="black" d="M987.86,-318.92C1018.47,-309.53 1084.13,-289.38 1120.93,-278.09"/>
<polygon fill="black" stroke="black" points="1122.38,-281.31 1130.92,-275.03 1120.33,-274.61 1122.38,-281.31"/>
</g>
<!-- b33&#45;&gt;c11 -->
<g id="edge107" class="edge">
<title>b33&#45;&gt;c11</title>
<path fill="none" stroke="black" d="M988.5,-270C1019.07,-270 1083.11,-270 1119.84,-270"/>
<polygon fill="black" stroke="black" points="1120.3,-273.5 1130.3,-270 1120.3,-266.5 1120.3,-273.5"/>
</g>
<!-- b43&#45;&gt;c11 -->
<g id="edge108" class="edge">
<title>b43&#45;&gt;c11</title>
<path fill="none" stroke="black" d="M987.86,-221.08C1018.47,-230.47 1084.13,-250.62 1120.93,-261.91"/>
<polygon fill="black" stroke="black" points="1120.33,-265.39 1130.92,-264.97 1122.38,-258.69 1120.33,-265.39"/>
</g>
<!-- b53&#45;&gt;c11 -->
<g id="edge109" class="edge">
<title>b53&#45;&gt;c11</title>
<path fill="none" stroke="black" d="M986.01,-171.02C1016.47,-189.72 1086.72,-232.82 1123.64,-255.48"/>
<polygon fill="black" stroke="black" points="1121.92,-258.53 1132.27,-260.77 1125.58,-252.56 1121.92,-258.53"/>
</g>
</g>
</svg>
