<?xml version="1.0" encoding="UTF-8" standalone="no"?>
<!DOCTYPE svg PUBLIC "-//W3C//DTD SVG 1.1//EN"
 "http://www.w3.org/Graphics/SVG/1.1/DTD/svg11.dtd">
<!-- Generated by graphviz version 2.43.0 (0)
 -->
<!-- Title: G Pages: 1 -->
<svg width="900pt" height="639pt"
 viewBox="0.00 0.00 899.99 639.00" xmlns="http://www.w3.org/2000/svg" xmlns:xlink="http://www.w3.org/1999/xlink">
<g id="graph0" class="graph" transform="scale(1 1) rotate(0) translate(4 635)">
<title>G</title>
<polygon fill="white" stroke="transparent" points="-4,4 -4,-635 895.99,-635 895.99,4 -4,4"/>
<g id="clust1" class="cluster">
<title>cluster_0</title>
<polygon fill="none" stroke="white" points="29,-8 29,-623 261,-623 261,-8 29,-8"/>
<text text-anchor="middle" x="145" y="-607.8" font-family="Times,serif" font-size="14.00">Input and Normalization layer</text>
</g>
<g id="clust2" class="cluster">
<title>cluster_1</title>
<polygon fill="none" stroke="white" points="281,-62 281,-584 439,-584 439,-62 281,-62"/>
<text text-anchor="middle" x="360" y="-568.8" font-family="Times,serif" font-size="14.00">Layer 1 </text>
<text text-anchor="middle" x="360" y="-553.8" font-family="Times,serif" font-size="14.00"> m neurons ∈ [3,20]</text>
</g>
<g id="clust3" class="cluster">
<title>cluster_2</title>
<polygon fill="none" stroke="white" points="459,-278 459,-330 630.99,-330 630.99,-278 459,-278"/>
</g>
<g id="clust4" class="cluster">
<title>cluster_3</title>
<polygon fill="none" stroke="white" points="650.99,-170 650.99,-476 804.99,-476 804.99,-170 650.99,-170"/>
<text text-anchor="middle" x="727.99" y="-460.8" font-family="Times,serif" font-size="14.00">Layer 2 </text>
<text text-anchor="middle" x="727.99" y="-445.8" font-family="Times,serif" font-size="14.00"> n neurons ∈ [2,15]</text>
</g>
<g id="clust5" class="cluster">
<title>cluster_4</title>
<polygon fill="none" stroke="white" points="824.99,-278 824.99,-353 891.99,-353 891.99,-278 824.99,-278"/>
<text text-anchor="middle" x="858.49" y="-337.8" font-family="Times,serif" font-size="14.00">Output</text>
</g>
<!-- x1 -->
<g id="node1" class="node">
<title>x1</title>
<ellipse fill="none" stroke="#00008b" cx="145" cy="-358" rx="18" ry="18"/>
<text text-anchor="middle" x="96.5" y="-328.8" font-family="Times,serif" font-size="14.00">Latitude</text>
</g>
<!-- a12 -->
<g id="node12" class="node">
<title>a12</title>
<ellipse fill="none" stroke="#ee0000" cx="360" cy="-88" rx="18" ry="18"/>
</g>
<!-- x1&#45;&gt;a12 -->
<g id="edge1" class="edge">
<title>x1&#45;&gt;a12</title>
<path fill="none" stroke="black" d="M156.86,-344.24C191.47,-300.37 299.41,-163.53 341.73,-109.89"/>
<polygon fill="black" stroke="black" points="344.72,-111.75 348.17,-101.73 339.22,-107.42 344.72,-111.75"/>
</g>
<!-- a22 -->
<g id="node13" class="node">
<title>a22</title>
<ellipse fill="none" stroke="#ee0000" cx="360" cy="-520" rx="18" ry="18"/>
</g>
<!-- x1&#45;&gt;a22 -->
<g id="edge2" class="edge">
<title>x1&#45;&gt;a22</title>
<path fill="none" stroke="black" d="M159.98,-368.63C196.24,-396.21 293.58,-470.25 337.26,-503.47"/>
<polygon fill="black" stroke="black" points="335.17,-506.27 345.25,-509.54 339.41,-500.7 335.17,-506.27"/>
</g>
<!-- a32 -->
<g id="node14" class="node">
<title>a32</title>
<ellipse fill="none" stroke="#ee0000" cx="360" cy="-466" rx="18" ry="18"/>
</g>
<!-- x1&#45;&gt;a32 -->
<g id="edge3" class="edge">
<title>x1&#45;&gt;a32</title>
<path fill="none" stroke="black" d="M161.32,-365.77C197.84,-384.29 290.3,-431.17 334.6,-453.63"/>
<polygon fill="black" stroke="black" points="333.03,-456.76 343.53,-458.16 336.2,-450.51 333.03,-456.76"/>
</g>
<!-- a42 -->
<g id="node15" class="node">
<title>a42</title>
<ellipse fill="none" stroke="#ee0000" cx="360" cy="-412" rx="18" ry="18"/>
</g>
<!-- x1&#45;&gt;a42 -->
<g id="edge4" class="edge">
<title>x1&#45;&gt;a42</title>
<path fill="none" stroke="black" d="M162.71,-362.24C199.58,-371.58 288.1,-394.03 332.57,-405.3"/>
<polygon fill="black" stroke="black" points="331.81,-408.72 342.36,-407.78 333.53,-401.93 331.81,-408.72"/>
</g>
<!-- a52 -->
<g id="node16" class="node">
<title>a52</title>
<ellipse fill="none" stroke="#ee0000" cx="360" cy="-358" rx="18" ry="18"/>
</g>
<!-- x1&#45;&gt;a52 -->
<g id="edge5" class="edge">
<title>x1&#45;&gt;a52</title>
<path fill="none" stroke="black" d="M163.07,-358C199.92,-358 287.16,-358 331.74,-358"/>
<polygon fill="black" stroke="black" points="331.85,-361.5 341.85,-358 331.85,-354.5 331.85,-361.5"/>
</g>
<!-- a62 -->
<g id="node17" class="node">
<title>a62</title>
<ellipse fill="none" stroke="#ee0000" cx="360" cy="-304" rx="18" ry="18"/>
</g>
<!-- x1&#45;&gt;a62 -->
<g id="edge6" class="edge">
<title>x1&#45;&gt;a62</title>
<path fill="none" stroke="black" d="M162.71,-353.76C199.58,-344.42 288.1,-321.97 332.57,-310.7"/>
<polygon fill="black" stroke="black" points="333.53,-314.07 342.36,-308.22 331.81,-307.28 333.53,-314.07"/>
</g>
<!-- a72 -->
<g id="node18" class="node">
<title>a72</title>
<ellipse fill="none" stroke="#ee0000" cx="360" cy="-250" rx="18" ry="18"/>
</g>
<!-- x1&#45;&gt;a72 -->
<g id="edge7" class="edge">
<title>x1&#45;&gt;a72</title>
<path fill="none" stroke="black" d="M161.32,-350.23C197.84,-331.71 290.3,-284.83 334.6,-262.37"/>
<polygon fill="black" stroke="black" points="336.2,-265.49 343.53,-257.84 333.03,-259.24 336.2,-265.49"/>
</g>
<!-- a82 -->
<g id="node19" class="node">
<title>a82</title>
<ellipse fill="none" stroke="#ee0000" cx="360" cy="-196" rx="18" ry="18"/>
</g>
<!-- x1&#45;&gt;a82 -->
<g id="edge8" class="edge">
<title>x1&#45;&gt;a82</title>
<path fill="none" stroke="black" d="M159.98,-347.37C196.24,-319.79 293.58,-245.75 337.26,-212.53"/>
<polygon fill="black" stroke="black" points="339.41,-215.3 345.25,-206.46 335.17,-209.73 339.41,-215.3"/>
</g>
<!-- a92 -->
<g id="node20" class="node">
<title>a92</title>
<ellipse fill="none" stroke="#ee0000" cx="360" cy="-142" rx="18" ry="18"/>
</g>
<!-- x1&#45;&gt;a92 -->
<g id="edge9" class="edge">
<title>x1&#45;&gt;a92</title>
<path fill="none" stroke="black" d="M158.37,-345.45C193.97,-309.35 296.84,-205.04 339.8,-161.47"/>
<polygon fill="black" stroke="black" points="342.33,-163.89 346.86,-154.31 337.35,-158.98 342.33,-163.89"/>
</g>
<!-- x2 -->
<g id="node2" class="node">
<title>x2</title>
<ellipse fill="none" stroke="#00008b" cx="145" cy="-304" rx="18" ry="18"/>
<text text-anchor="middle" x="90.5" y="-274.8" font-family="Times,serif" font-size="14.00">Longitude</text>
</g>
<!-- x2&#45;&gt;a12 -->
<g id="edge10" class="edge">
<title>x2&#45;&gt;a12</title>
<path fill="none" stroke="black" d="M158.37,-291.45C193.97,-255.35 296.84,-151.04 339.8,-107.47"/>
<polygon fill="black" stroke="black" points="342.33,-109.89 346.86,-100.31 337.35,-104.98 342.33,-109.89"/>
</g>
<!-- x2&#45;&gt;a22 -->
<g id="edge11" class="edge">
<title>x2&#45;&gt;a22</title>
<path fill="none" stroke="black" d="M158.37,-316.55C193.97,-352.65 296.84,-456.96 339.8,-500.53"/>
<polygon fill="black" stroke="black" points="337.35,-503.02 346.86,-507.69 342.33,-498.11 337.35,-503.02"/>
</g>
<!-- x2&#45;&gt;a32 -->
<g id="edge12" class="edge">
<title>x2&#45;&gt;a32</title>
<path fill="none" stroke="black" d="M159.98,-314.63C196.24,-342.21 293.58,-416.25 337.26,-449.47"/>
<polygon fill="black" stroke="black" points="335.17,-452.27 345.25,-455.54 339.41,-446.7 335.17,-452.27"/>
</g>
<!-- x2&#45;&gt;a42 -->
<g id="edge13" class="edge">
<title>x2&#45;&gt;a42</title>
<path fill="none" stroke="black" d="M161.32,-311.77C197.84,-330.29 290.3,-377.17 334.6,-399.63"/>
<polygon fill="black" stroke="black" points="333.03,-402.76 343.53,-404.16 336.2,-396.51 333.03,-402.76"/>
</g>
<!-- x2&#45;&gt;a52 -->
<g id="edge14" class="edge">
<title>x2&#45;&gt;a52</title>
<path fill="none" stroke="black" d="M162.71,-308.24C199.58,-317.58 288.1,-340.03 332.57,-351.3"/>
<polygon fill="black" stroke="black" points="331.81,-354.72 342.36,-353.78 333.53,-347.93 331.81,-354.72"/>
</g>
<!-- x2&#45;&gt;a62 -->
<g id="edge15" class="edge">
<title>x2&#45;&gt;a62</title>
<path fill="none" stroke="black" d="M163.07,-304C199.92,-304 287.16,-304 331.74,-304"/>
<polygon fill="black" stroke="black" points="331.85,-307.5 341.85,-304 331.85,-300.5 331.85,-307.5"/>
</g>
<!-- x2&#45;&gt;a72 -->
<g id="edge16" class="edge">
<title>x2&#45;&gt;a72</title>
<path fill="none" stroke="black" d="M162.71,-299.76C199.58,-290.42 288.1,-267.97 332.57,-256.7"/>
<polygon fill="black" stroke="black" points="333.53,-260.07 342.36,-254.22 331.81,-253.28 333.53,-260.07"/>
</g>
<!-- x2&#45;&gt;a82 -->
<g id="edge17" class="edge">
<title>x2&#45;&gt;a82</title>
<path fill="none" stroke="black" d="M161.32,-296.23C197.84,-277.71 290.3,-230.83 334.6,-208.37"/>
<polygon fill="black" stroke="black" points="336.2,-211.49 343.53,-203.84 333.03,-205.24 336.2,-211.49"/>
</g>
<!-- x2&#45;&gt;a92 -->
<g id="edge18" class="edge">
<title>x2&#45;&gt;a92</title>
<path fill="none" stroke="black" d="M159.98,-293.37C196.24,-265.79 293.58,-191.75 337.26,-158.53"/>
<polygon fill="black" stroke="black" points="339.41,-161.3 345.25,-152.46 335.17,-155.73 339.41,-161.3"/>
</g>
<!-- x3 -->
<g id="node3" class="node">
<title>x3</title>
<ellipse fill="none" stroke="#00008b" cx="145" cy="-250" rx="18" ry="18"/>
<text text-anchor="middle" x="110" y="-220.8" font-family="Times,serif" font-size="14.00">Area</text>
</g>
<!-- x3&#45;&gt;a12 -->
<g id="edge19" class="edge">
<title>x3&#45;&gt;a12</title>
<path fill="none" stroke="black" d="M159.98,-239.37C196.24,-211.79 293.58,-137.75 337.26,-104.53"/>
<polygon fill="black" stroke="black" points="339.41,-107.3 345.25,-98.46 335.17,-101.73 339.41,-107.3"/>
</g>
<!-- x3&#45;&gt;a22 -->
<g id="edge20" class="edge">
<title>x3&#45;&gt;a22</title>
<path fill="none" stroke="black" d="M156.86,-263.76C191.47,-307.63 299.41,-444.47 341.73,-498.11"/>
<polygon fill="black" stroke="black" points="339.22,-500.58 348.17,-506.27 344.72,-496.25 339.22,-500.58"/>
</g>
<!-- x3&#45;&gt;a32 -->
<g id="edge21" class="edge">
<title>x3&#45;&gt;a32</title>
<path fill="none" stroke="black" d="M158.37,-262.55C193.97,-298.65 296.84,-402.96 339.8,-446.53"/>
<polygon fill="black" stroke="black" points="337.35,-449.02 346.86,-453.69 342.33,-444.11 337.35,-449.02"/>
</g>
<!-- x3&#45;&gt;a42 -->
<g id="edge22" class="edge">
<title>x3&#45;&gt;a42</title>
<path fill="none" stroke="black" d="M159.98,-260.63C196.24,-288.21 293.58,-362.25 337.26,-395.47"/>
<polygon fill="black" stroke="black" points="335.17,-398.27 345.25,-401.54 339.41,-392.7 335.17,-398.27"/>
</g>
<!-- x3&#45;&gt;a52 -->
<g id="edge23" class="edge">
<title>x3&#45;&gt;a52</title>
<path fill="none" stroke="black" d="M161.32,-257.77C197.84,-276.29 290.3,-323.17 334.6,-345.63"/>
<polygon fill="black" stroke="black" points="333.03,-348.76 343.53,-350.16 336.2,-342.51 333.03,-348.76"/>
</g>
<!-- x3&#45;&gt;a62 -->
<g id="edge24" class="edge">
<title>x3&#45;&gt;a62</title>
<path fill="none" stroke="black" d="M162.71,-254.24C199.58,-263.58 288.1,-286.03 332.57,-297.3"/>
<polygon fill="black" stroke="black" points="331.81,-300.72 342.36,-299.78 333.53,-293.93 331.81,-300.72"/>
</g>
<!-- x3&#45;&gt;a72 -->
<g id="edge25" class="edge">
<title>x3&#45;&gt;a72</title>
<path fill="none" stroke="black" d="M163.07,-250C199.92,-250 287.16,-250 331.74,-250"/>
<polygon fill="black" stroke="black" points="331.85,-253.5 341.85,-250 331.85,-246.5 331.85,-253.5"/>
</g>
<!-- x3&#45;&gt;a82 -->
<g id="edge26" class="edge">
<title>x3&#45;&gt;a82</title>
<path fill="none" stroke="black" d="M162.71,-245.76C199.58,-236.42 288.1,-213.97 332.57,-202.7"/>
<polygon fill="black" stroke="black" points="333.53,-206.07 342.36,-200.22 331.81,-199.28 333.53,-206.07"/>
</g>
<!-- x3&#45;&gt;a92 -->
<g id="edge27" class="edge">
<title>x3&#45;&gt;a92</title>
<path fill="none" stroke="black" d="M161.32,-242.23C197.84,-223.71 290.3,-176.83 334.6,-154.37"/>
<polygon fill="black" stroke="black" points="336.2,-157.49 343.53,-149.84 333.03,-151.24 336.2,-157.49"/>
</g>
<!-- x4 -->
<g id="node4" class="node">
<title>x4</title>
<ellipse fill="none" stroke="#00008b" cx="145" cy="-196" rx="18" ry="18"/>
<text text-anchor="middle" x="101.5" y="-166.8" font-family="Times,serif" font-size="14.00">Length</text>
</g>
<!-- x4&#45;&gt;a12 -->
<g id="edge28" class="edge">
<title>x4&#45;&gt;a12</title>
<path fill="none" stroke="black" d="M161.32,-188.23C197.84,-169.71 290.3,-122.83 334.6,-100.37"/>
<polygon fill="black" stroke="black" points="336.2,-103.49 343.53,-95.84 333.03,-97.24 336.2,-103.49"/>
</g>
<!-- x4&#45;&gt;a22 -->
<g id="edge29" class="edge">
<title>x4&#45;&gt;a22</title>
<path fill="none" stroke="black" d="M155.71,-210.76C189.53,-262.21 302.37,-433.86 343.68,-496.7"/>
<polygon fill="black" stroke="black" points="340.82,-498.72 349.24,-505.15 346.67,-494.87 340.82,-498.72"/>
</g>
<!-- x4&#45;&gt;a32 -->
<g id="edge30" class="edge">
<title>x4&#45;&gt;a32</title>
<path fill="none" stroke="black" d="M156.86,-209.76C191.47,-253.63 299.41,-390.47 341.73,-444.11"/>
<polygon fill="black" stroke="black" points="339.22,-446.58 348.17,-452.27 344.72,-442.25 339.22,-446.58"/>
</g>
<!-- x4&#45;&gt;a42 -->
<g id="edge31" class="edge">
<title>x4&#45;&gt;a42</title>
<path fill="none" stroke="black" d="M158.37,-208.55C193.97,-244.65 296.84,-348.96 339.8,-392.53"/>
<polygon fill="black" stroke="black" points="337.35,-395.02 346.86,-399.69 342.33,-390.11 337.35,-395.02"/>
</g>
<!-- x4&#45;&gt;a52 -->
<g id="edge32" class="edge">
<title>x4&#45;&gt;a52</title>
<path fill="none" stroke="black" d="M159.98,-206.63C196.24,-234.21 293.58,-308.25 337.26,-341.47"/>
<polygon fill="black" stroke="black" points="335.17,-344.27 345.25,-347.54 339.41,-338.7 335.17,-344.27"/>
</g>
<!-- x4&#45;&gt;a62 -->
<g id="edge33" class="edge">
<title>x4&#45;&gt;a62</title>
<path fill="none" stroke="black" d="M161.32,-203.77C197.84,-222.29 290.3,-269.17 334.6,-291.63"/>
<polygon fill="black" stroke="black" points="333.03,-294.76 343.53,-296.16 336.2,-288.51 333.03,-294.76"/>
</g>
<!-- x4&#45;&gt;a72 -->
<g id="edge34" class="edge">
<title>x4&#45;&gt;a72</title>
<path fill="none" stroke="black" d="M162.71,-200.24C199.58,-209.58 288.1,-232.03 332.57,-243.3"/>
<polygon fill="black" stroke="black" points="331.81,-246.72 342.36,-245.78 333.53,-239.93 331.81,-246.72"/>
</g>
<!-- x4&#45;&gt;a82 -->
<g id="edge35" class="edge">
<title>x4&#45;&gt;a82</title>
<path fill="none" stroke="black" d="M163.07,-196C199.92,-196 287.16,-196 331.74,-196"/>
<polygon fill="black" stroke="black" points="331.85,-199.5 341.85,-196 331.85,-192.5 331.85,-199.5"/>
</g>
<!-- x4&#45;&gt;a92 -->
<g id="edge36" class="edge">
<title>x4&#45;&gt;a92</title>
<path fill="none" stroke="black" d="M162.71,-191.76C199.58,-182.42 288.1,-159.97 332.57,-148.7"/>
<polygon fill="black" stroke="black" points="333.53,-152.07 342.36,-146.22 331.81,-145.28 333.53,-152.07"/>
</g>
<!-- x5 -->
<g id="node5" class="node">
<title>x5</title>
<ellipse fill="none" stroke="#00008b" cx="145" cy="-142" rx="18" ry="18"/>
<text text-anchor="middle" x="102.5" y="-112.8" font-family="Times,serif" font-size="14.00">Aspect</text>
</g>
<!-- x5&#45;&gt;a12 -->
<g id="edge37" class="edge">
<title>x5&#45;&gt;a12</title>
<path fill="none" stroke="black" d="M162.71,-137.76C199.58,-128.42 288.1,-105.97 332.57,-94.7"/>
<polygon fill="black" stroke="black" points="333.53,-98.07 342.36,-92.22 331.81,-91.28 333.53,-98.07"/>
</g>
<!-- x5&#45;&gt;a22 -->
<g id="edge38" class="edge">
<title>x5&#45;&gt;a22</title>
<path fill="none" stroke="black" d="M154.61,-157.29C187.46,-215.58 305.04,-424.23 345.33,-495.75"/>
<polygon fill="black" stroke="black" points="342.32,-497.53 350.28,-504.52 348.42,-494.09 342.32,-497.53"/>
</g>
<!-- x5&#45;&gt;a32 -->
<g id="edge39" class="edge">
<title>x5&#45;&gt;a32</title>
<path fill="none" stroke="black" d="M155.71,-156.76C189.53,-208.21 302.37,-379.86 343.68,-442.7"/>
<polygon fill="black" stroke="black" points="340.82,-444.72 349.24,-451.15 346.67,-440.87 340.82,-444.72"/>
</g>
<!-- x5&#45;&gt;a42 -->
<g id="edge40" class="edge">
<title>x5&#45;&gt;a42</title>
<path fill="none" stroke="black" d="M156.86,-155.76C191.47,-199.63 299.41,-336.47 341.73,-390.11"/>
<polygon fill="black" stroke="black" points="339.22,-392.58 348.17,-398.27 344.72,-388.25 339.22,-392.58"/>
</g>
<!-- x5&#45;&gt;a52 -->
<g id="edge41" class="edge">
<title>x5&#45;&gt;a52</title>
<path fill="none" stroke="black" d="M158.37,-154.55C193.97,-190.65 296.84,-294.96 339.8,-338.53"/>
<polygon fill="black" stroke="black" points="337.35,-341.02 346.86,-345.69 342.33,-336.11 337.35,-341.02"/>
</g>
<!-- x5&#45;&gt;a62 -->
<g id="edge42" class="edge">
<title>x5&#45;&gt;a62</title>
<path fill="none" stroke="black" d="M159.98,-152.63C196.24,-180.21 293.58,-254.25 337.26,-287.47"/>
<polygon fill="black" stroke="black" points="335.17,-290.27 345.25,-293.54 339.41,-284.7 335.17,-290.27"/>
</g>
<!-- x5&#45;&gt;a72 -->
<g id="edge43" class="edge">
<title>x5&#45;&gt;a72</title>
<path fill="none" stroke="black" d="M161.32,-149.77C197.84,-168.29 290.3,-215.17 334.6,-237.63"/>
<polygon fill="black" stroke="black" points="333.03,-240.76 343.53,-242.16 336.2,-234.51 333.03,-240.76"/>
</g>
<!-- x5&#45;&gt;a82 -->
<g id="edge44" class="edge">
<title>x5&#45;&gt;a82</title>
<path fill="none" stroke="black" d="M162.71,-146.24C199.58,-155.58 288.1,-178.03 332.57,-189.3"/>
<polygon fill="black" stroke="black" points="331.81,-192.72 342.36,-191.78 333.53,-185.93 331.81,-192.72"/>
</g>
<!-- x5&#45;&gt;a92 -->
<g id="edge45" class="edge">
<title>x5&#45;&gt;a92</title>
<path fill="none" stroke="black" d="M163.07,-142C199.92,-142 287.16,-142 331.74,-142"/>
<polygon fill="black" stroke="black" points="331.85,-145.5 341.85,-142 331.85,-138.5 331.85,-145.5"/>
</g>
<!-- x6 -->
<g id="node6" class="node">
<title>x6</title>
<ellipse fill="none" stroke="#00008b" cx="145" cy="-88" rx="18" ry="18"/>
<text text-anchor="middle" x="77" y="-58.8" font-family="Times,serif" font-size="14.00">Elevation Min</text>
</g>
<!-- x6&#45;&gt;a12 -->
<g id="edge46" class="edge">
<title>x6&#45;&gt;a12</title>
<path fill="none" stroke="black" d="M163.07,-88C199.92,-88 287.16,-88 331.74,-88"/>
<polygon fill="black" stroke="black" points="331.85,-91.5 341.85,-88 331.85,-84.5 331.85,-91.5"/>
</g>
<!-- x6&#45;&gt;a22 -->
<g id="edge47" class="edge">
<title>x6&#45;&gt;a22</title>
<path fill="none" stroke="black" d="M153.83,-103.89C185.86,-168.85 307.03,-414.6 346.49,-494.64"/>
<polygon fill="black" stroke="black" points="343.53,-496.55 351.1,-503.97 349.81,-493.45 343.53,-496.55"/>
</g>
<!-- x6&#45;&gt;a32 -->
<g id="edge48" class="edge">
<title>x6&#45;&gt;a32</title>
<path fill="none" stroke="black" d="M154.61,-103.29C187.46,-161.58 305.04,-370.23 345.33,-441.75"/>
<polygon fill="black" stroke="black" points="342.32,-443.53 350.28,-450.52 348.42,-440.09 342.32,-443.53"/>
</g>
<!-- x6&#45;&gt;a42 -->
<g id="edge49" class="edge">
<title>x6&#45;&gt;a42</title>
<path fill="none" stroke="black" d="M155.71,-102.76C189.53,-154.21 302.37,-325.86 343.68,-388.7"/>
<polygon fill="black" stroke="black" points="340.82,-390.72 349.24,-397.15 346.67,-386.87 340.82,-390.72"/>
</g>
<!-- x6&#45;&gt;a52 -->
<g id="edge50" class="edge">
<title>x6&#45;&gt;a52</title>
<path fill="none" stroke="black" d="M156.86,-101.76C191.47,-145.63 299.41,-282.47 341.73,-336.11"/>
<polygon fill="black" stroke="black" points="339.22,-338.58 348.17,-344.27 344.72,-334.25 339.22,-338.58"/>
</g>
<!-- x6&#45;&gt;a62 -->
<g id="edge51" class="edge">
<title>x6&#45;&gt;a62</title>
<path fill="none" stroke="black" d="M158.37,-100.55C193.97,-136.65 296.84,-240.96 339.8,-284.53"/>
<polygon fill="black" stroke="black" points="337.35,-287.02 346.86,-291.69 342.33,-282.11 337.35,-287.02"/>
</g>
<!-- x6&#45;&gt;a72 -->
<g id="edge52" class="edge">
<title>x6&#45;&gt;a72</title>
<path fill="none" stroke="black" d="M159.98,-98.63C196.24,-126.21 293.58,-200.25 337.26,-233.47"/>
<polygon fill="black" stroke="black" points="335.17,-236.27 345.25,-239.54 339.41,-230.7 335.17,-236.27"/>
</g>
<!-- x6&#45;&gt;a82 -->
<g id="edge53" class="edge">
<title>x6&#45;&gt;a82</title>
<path fill="none" stroke="black" d="M161.32,-95.77C197.84,-114.29 290.3,-161.17 334.6,-183.63"/>
<polygon fill="black" stroke="black" points="333.03,-186.76 343.53,-188.16 336.2,-180.51 333.03,-186.76"/>
</g>
<!-- x6&#45;&gt;a92 -->
<g id="edge54" class="edge">
<title>x6&#45;&gt;a92</title>
<path fill="none" stroke="black" d="M162.71,-92.24C199.58,-101.58 288.1,-124.03 332.57,-135.3"/>
<polygon fill="black" stroke="black" points="331.81,-138.72 342.36,-137.78 333.53,-131.93 331.81,-138.72"/>
</g>
<!-- x7 -->
<g id="node7" class="node">
<title>x7</title>
<ellipse fill="none" stroke="#00008b" cx="145" cy="-34" rx="18" ry="18"/>
<text text-anchor="middle" x="77" y="-4.8" font-family="Times,serif" font-size="14.00">Elevation Mid</text>
</g>
<!-- x7&#45;&gt;a12 -->
<g id="edge55" class="edge">
<title>x7&#45;&gt;a12</title>
<path fill="none" stroke="black" d="M162.71,-38.24C199.58,-47.58 288.1,-70.03 332.57,-81.3"/>
<polygon fill="black" stroke="black" points="331.81,-84.72 342.36,-83.78 333.53,-77.93 331.81,-84.72"/>
</g>
<!-- x7&#45;&gt;a22 -->
<g id="edge56" class="edge">
<title>x7&#45;&gt;a22</title>
<path fill="none" stroke="black" d="M153.09,-50.17C184.3,-121.38 309.62,-407.33 347.86,-494.59"/>
<polygon fill="black" stroke="black" points="344.67,-496.02 351.89,-503.77 351.08,-493.21 344.67,-496.02"/>
</g>
<!-- x7&#45;&gt;a32 -->
<g id="edge57" class="edge">
<title>x7&#45;&gt;a32</title>
<path fill="none" stroke="black" d="M153.83,-49.89C185.86,-114.85 307.03,-360.6 346.49,-440.64"/>
<polygon fill="black" stroke="black" points="343.53,-442.55 351.1,-449.97 349.81,-439.45 343.53,-442.55"/>
</g>
<!-- x7&#45;&gt;a42 -->
<g id="edge58" class="edge">
<title>x7&#45;&gt;a42</title>
<path fill="none" stroke="black" d="M154.61,-49.29C187.46,-107.58 305.04,-316.23 345.33,-387.75"/>
<polygon fill="black" stroke="black" points="342.32,-389.53 350.28,-396.52 348.42,-386.09 342.32,-389.53"/>
</g>
<!-- x7&#45;&gt;a52 -->
<g id="edge59" class="edge">
<title>x7&#45;&gt;a52</title>
<path fill="none" stroke="black" d="M155.71,-48.76C189.53,-100.21 302.37,-271.86 343.68,-334.7"/>
<polygon fill="black" stroke="black" points="340.82,-336.72 349.24,-343.15 346.67,-332.87 340.82,-336.72"/>
</g>
<!-- x7&#45;&gt;a62 -->
<g id="edge60" class="edge">
<title>x7&#45;&gt;a62</title>
<path fill="none" stroke="black" d="M156.86,-47.76C191.47,-91.63 299.41,-228.47 341.73,-282.11"/>
<polygon fill="black" stroke="black" points="339.22,-284.58 348.17,-290.27 344.72,-280.25 339.22,-284.58"/>
</g>
<!-- x7&#45;&gt;a72 -->
<g id="edge61" class="edge">
<title>x7&#45;&gt;a72</title>
<path fill="none" stroke="black" d="M158.37,-46.55C193.97,-82.65 296.84,-186.96 339.8,-230.53"/>
<polygon fill="black" stroke="black" points="337.35,-233.02 346.86,-237.69 342.33,-228.11 337.35,-233.02"/>
</g>
<!-- x7&#45;&gt;a82 -->
<g id="edge62" class="edge">
<title>x7&#45;&gt;a82</title>
<path fill="none" stroke="black" d="M159.98,-44.63C196.24,-72.21 293.58,-146.25 337.26,-179.47"/>
<polygon fill="black" stroke="black" points="335.17,-182.27 345.25,-185.54 339.41,-176.7 335.17,-182.27"/>
</g>
<!-- x7&#45;&gt;a92 -->
<g id="edge63" class="edge">
<title>x7&#45;&gt;a92</title>
<path fill="none" stroke="black" d="M161.32,-41.77C197.84,-60.29 290.3,-107.17 334.6,-129.63"/>
<polygon fill="black" stroke="black" points="333.03,-132.76 343.53,-134.16 336.2,-126.51 333.03,-132.76"/>
</g>
<!-- x8 -->
<g id="node8" class="node">
<title>x8</title>
<ellipse fill="none" stroke="#00008b" cx="145" cy="-574" rx="18" ry="18"/>
<text text-anchor="middle" x="75.5" y="-544.8" font-family="Times,serif" font-size="14.00">Elevation Max</text>
</g>
<!-- x8&#45;&gt;a12 -->
<g id="edge64" class="edge">
<title>x8&#45;&gt;a12</title>
<path fill="none" stroke="black" d="M153.09,-557.83C184.3,-486.62 309.62,-200.67 347.86,-113.41"/>
<polygon fill="black" stroke="black" points="351.08,-114.79 351.89,-104.23 344.67,-111.98 351.08,-114.79"/>
</g>
<!-- x8&#45;&gt;a22 -->
<g id="edge65" class="edge">
<title>x8&#45;&gt;a22</title>
<path fill="none" stroke="black" d="M162.71,-569.76C199.58,-560.42 288.1,-537.97 332.57,-526.7"/>
<polygon fill="black" stroke="black" points="333.53,-530.07 342.36,-524.22 331.81,-523.28 333.53,-530.07"/>
</g>
<!-- x8&#45;&gt;a32 -->
<g id="edge66" class="edge">
<title>x8&#45;&gt;a32</title>
<path fill="none" stroke="black" d="M161.32,-566.23C197.84,-547.71 290.3,-500.83 334.6,-478.37"/>
<polygon fill="black" stroke="black" points="336.2,-481.49 343.53,-473.84 333.03,-475.24 336.2,-481.49"/>
</g>
<!-- x8&#45;&gt;a42 -->
<g id="edge67" class="edge">
<title>x8&#45;&gt;a42</title>
<path fill="none" stroke="black" d="M159.98,-563.37C196.24,-535.79 293.58,-461.75 337.26,-428.53"/>
<polygon fill="black" stroke="black" points="339.41,-431.3 345.25,-422.46 335.17,-425.73 339.41,-431.3"/>
</g>
<!-- x8&#45;&gt;a52 -->
<g id="edge68" class="edge">
<title>x8&#45;&gt;a52</title>
<path fill="none" stroke="black" d="M158.37,-561.45C193.97,-525.35 296.84,-421.04 339.8,-377.47"/>
<polygon fill="black" stroke="black" points="342.33,-379.89 346.86,-370.31 337.35,-374.98 342.33,-379.89"/>
</g>
<!-- x8&#45;&gt;a62 -->
<g id="edge69" class="edge">
<title>x8&#45;&gt;a62</title>
<path fill="none" stroke="black" d="M156.86,-560.24C191.47,-516.37 299.41,-379.53 341.73,-325.89"/>
<polygon fill="black" stroke="black" points="344.72,-327.75 348.17,-317.73 339.22,-323.42 344.72,-327.75"/>
</g>
<!-- x8&#45;&gt;a72 -->
<g id="edge70" class="edge">
<title>x8&#45;&gt;a72</title>
<path fill="none" stroke="black" d="M155.71,-559.24C189.53,-507.79 302.37,-336.14 343.68,-273.3"/>
<polygon fill="black" stroke="black" points="346.67,-275.13 349.24,-264.85 340.82,-271.28 346.67,-275.13"/>
</g>
<!-- x8&#45;&gt;a82 -->
<g id="edge71" class="edge">
<title>x8&#45;&gt;a82</title>
<path fill="none" stroke="black" d="M154.61,-558.71C187.46,-500.42 305.04,-291.77 345.33,-220.25"/>
<polygon fill="black" stroke="black" points="348.42,-221.91 350.28,-211.48 342.32,-218.47 348.42,-221.91"/>
</g>
<!-- x8&#45;&gt;a92 -->
<g id="edge72" class="edge">
<title>x8&#45;&gt;a92</title>
<path fill="none" stroke="black" d="M153.83,-558.11C185.86,-493.15 307.03,-247.4 346.49,-167.36"/>
<polygon fill="black" stroke="black" points="349.81,-168.55 351.1,-158.03 343.53,-165.45 349.81,-168.55"/>
</g>
<!-- x9 -->
<g id="node9" class="node">
<title>x9</title>
<ellipse fill="none" stroke="#00008b" cx="145" cy="-520" rx="18" ry="18"/>
<text text-anchor="middle" x="63.5" y="-490.8" font-family="Times,serif" font-size="14.00">Elevation Change</text>
</g>
<!-- x9&#45;&gt;a12 -->
<g id="edge73" class="edge">
<title>x9&#45;&gt;a12</title>
<path fill="none" stroke="black" d="M153.83,-504.11C185.86,-439.15 307.03,-193.4 346.49,-113.36"/>
<polygon fill="black" stroke="black" points="349.81,-114.55 351.1,-104.03 343.53,-111.45 349.81,-114.55"/>
</g>
<!-- x9&#45;&gt;a22 -->
<g id="edge74" class="edge">
<title>x9&#45;&gt;a22</title>
<path fill="none" stroke="black" d="M163.07,-520C199.92,-520 287.16,-520 331.74,-520"/>
<polygon fill="black" stroke="black" points="331.85,-523.5 341.85,-520 331.85,-516.5 331.85,-523.5"/>
</g>
<!-- x9&#45;&gt;a32 -->
<g id="edge75" class="edge">
<title>x9&#45;&gt;a32</title>
<path fill="none" stroke="black" d="M162.71,-515.76C199.58,-506.42 288.1,-483.97 332.57,-472.7"/>
<polygon fill="black" stroke="black" points="333.53,-476.07 342.36,-470.22 331.81,-469.28 333.53,-476.07"/>
</g>
<!-- x9&#45;&gt;a42 -->
<g id="edge76" class="edge">
<title>x9&#45;&gt;a42</title>
<path fill="none" stroke="black" d="M161.32,-512.23C197.84,-493.71 290.3,-446.83 334.6,-424.37"/>
<polygon fill="black" stroke="black" points="336.2,-427.49 343.53,-419.84 333.03,-421.24 336.2,-427.49"/>
</g>
<!-- x9&#45;&gt;a52 -->
<g id="edge77" class="edge">
<title>x9&#45;&gt;a52</title>
<path fill="none" stroke="black" d="M159.98,-509.37C196.24,-481.79 293.58,-407.75 337.26,-374.53"/>
<polygon fill="black" stroke="black" points="339.41,-377.3 345.25,-368.46 335.17,-371.73 339.41,-377.3"/>
</g>
<!-- x9&#45;&gt;a62 -->
<g id="edge78" class="edge">
<title>x9&#45;&gt;a62</title>
<path fill="none" stroke="black" d="M158.37,-507.45C193.97,-471.35 296.84,-367.04 339.8,-323.47"/>
<polygon fill="black" stroke="black" points="342.33,-325.89 346.86,-316.31 337.35,-320.98 342.33,-325.89"/>
</g>
<!-- x9&#45;&gt;a72 -->
<g id="edge79" class="edge">
<title>x9&#45;&gt;a72</title>
<path fill="none" stroke="black" d="M156.86,-506.24C191.47,-462.37 299.41,-325.53 341.73,-271.89"/>
<polygon fill="black" stroke="black" points="344.72,-273.75 348.17,-263.73 339.22,-269.42 344.72,-273.75"/>
</g>
<!-- x9&#45;&gt;a82 -->
<g id="edge80" class="edge">
<title>x9&#45;&gt;a82</title>
<path fill="none" stroke="black" d="M155.71,-505.24C189.53,-453.79 302.37,-282.14 343.68,-219.3"/>
<polygon fill="black" stroke="black" points="346.67,-221.13 349.24,-210.85 340.82,-217.28 346.67,-221.13"/>
</g>
<!-- x9&#45;&gt;a92 -->
<g id="edge81" class="edge">
<title>x9&#45;&gt;a92</title>
<path fill="none" stroke="black" d="M154.61,-504.71C187.46,-446.42 305.04,-237.77 345.33,-166.25"/>
<polygon fill="black" stroke="black" points="348.42,-167.91 350.28,-157.48 342.32,-164.47 348.42,-167.91"/>
</g>
<!-- x10 -->
<g id="node10" class="node">
<title>x10</title>
<ellipse fill="none" stroke="#00008b" cx="145" cy="-466" rx="18" ry="18"/>
<text text-anchor="middle" x="107" y="-436.8" font-family="Times,serif" font-size="14.00">Slope</text>
</g>
<!-- x10&#45;&gt;a12 -->
<g id="edge82" class="edge">
<title>x10&#45;&gt;a12</title>
<path fill="none" stroke="black" d="M154.61,-450.71C187.46,-392.42 305.04,-183.77 345.33,-112.25"/>
<polygon fill="black" stroke="black" points="348.42,-113.91 350.28,-103.48 342.32,-110.47 348.42,-113.91"/>
</g>
<!-- x10&#45;&gt;a22 -->
<g id="edge83" class="edge">
<title>x10&#45;&gt;a22</title>
<path fill="none" stroke="black" d="M162.71,-470.24C199.58,-479.58 288.1,-502.03 332.57,-513.3"/>
<polygon fill="black" stroke="black" points="331.81,-516.72 342.36,-515.78 333.53,-509.93 331.81,-516.72"/>
</g>
<!-- x10&#45;&gt;a32 -->
<g id="edge84" class="edge">
<title>x10&#45;&gt;a32</title>
<path fill="none" stroke="black" d="M163.07,-466C199.92,-466 287.16,-466 331.74,-466"/>
<polygon fill="black" stroke="black" points="331.85,-469.5 341.85,-466 331.85,-462.5 331.85,-469.5"/>
</g>
<!-- x10&#45;&gt;a42 -->
<g id="edge85" class="edge">
<title>x10&#45;&gt;a42</title>
<path fill="none" stroke="black" d="M162.71,-461.76C199.58,-452.42 288.1,-429.97 332.57,-418.7"/>
<polygon fill="black" stroke="black" points="333.53,-422.07 342.36,-416.22 331.81,-415.28 333.53,-422.07"/>
</g>
<!-- x10&#45;&gt;a52 -->
<g id="edge86" class="edge">
<title>x10&#45;&gt;a52</title>
<path fill="none" stroke="black" d="M161.32,-458.23C197.84,-439.71 290.3,-392.83 334.6,-370.37"/>
<polygon fill="black" stroke="black" points="336.2,-373.49 343.53,-365.84 333.03,-367.24 336.2,-373.49"/>
</g>
<!-- x10&#45;&gt;a62 -->
<g id="edge87" class="edge">
<title>x10&#45;&gt;a62</title>
<path fill="none" stroke="black" d="M159.98,-455.37C196.24,-427.79 293.58,-353.75 337.26,-320.53"/>
<polygon fill="black" stroke="black" points="339.41,-323.3 345.25,-314.46 335.17,-317.73 339.41,-323.3"/>
</g>
<!-- x10&#45;&gt;a72 -->
<g id="edge88" class="edge">
<title>x10&#45;&gt;a72</title>
<path fill="none" stroke="black" d="M158.37,-453.45C193.97,-417.35 296.84,-313.04 339.8,-269.47"/>
<polygon fill="black" stroke="black" points="342.33,-271.89 346.86,-262.31 337.35,-266.98 342.33,-271.89"/>
</g>
<!-- x10&#45;&gt;a82 -->
<g id="edge89" class="edge">
<title>x10&#45;&gt;a82</title>
<path fill="none" stroke="black" d="M156.86,-452.24C191.47,-408.37 299.41,-271.53 341.73,-217.89"/>
<polygon fill="black" stroke="black" points="344.72,-219.75 348.17,-209.73 339.22,-215.42 344.72,-219.75"/>
</g>
<!-- x10&#45;&gt;a92 -->
<g id="edge90" class="edge">
<title>x10&#45;&gt;a92</title>
<path fill="none" stroke="black" d="M155.71,-451.24C189.53,-399.79 302.37,-228.14 343.68,-165.3"/>
<polygon fill="black" stroke="black" points="346.67,-167.13 349.24,-156.85 340.82,-163.28 346.67,-167.13"/>
</g>
<!-- x11 -->
<g id="node11" class="node">
<title>x11</title>
<ellipse fill="none" stroke="#00008b" cx="145" cy="-412" rx="18" ry="18"/>
<text text-anchor="middle" x="91.5" y="-382.8" font-family="Times,serif" font-size="14.00">Thickness</text>
</g>
<!-- x11&#45;&gt;a12 -->
<g id="edge91" class="edge">
<title>x11&#45;&gt;a12</title>
<path fill="none" stroke="black" d="M155.71,-397.24C189.53,-345.79 302.37,-174.14 343.68,-111.3"/>
<polygon fill="black" stroke="black" points="346.67,-113.13 349.24,-102.85 340.82,-109.28 346.67,-113.13"/>
</g>
<!-- x11&#45;&gt;a22 -->
<g id="edge92" class="edge">
<title>x11&#45;&gt;a22</title>
<path fill="none" stroke="black" d="M161.32,-419.77C197.84,-438.29 290.3,-485.17 334.6,-507.63"/>
<polygon fill="black" stroke="black" points="333.03,-510.76 343.53,-512.16 336.2,-504.51 333.03,-510.76"/>
</g>
<!-- x11&#45;&gt;a32 -->
<g id="edge93" class="edge">
<title>x11&#45;&gt;a32</title>
<path fill="none" stroke="black" d="M162.71,-416.24C199.58,-425.58 288.1,-448.03 332.57,-459.3"/>
<polygon fill="black" stroke="black" points="331.81,-462.72 342.36,-461.78 333.53,-455.93 331.81,-462.72"/>
</g>
<!-- x11&#45;&gt;a42 -->
<g id="edge94" class="edge">
<title>x11&#45;&gt;a42</title>
<path fill="none" stroke="black" d="M163.07,-412C199.92,-412 287.16,-412 331.74,-412"/>
<polygon fill="black" stroke="black" points="331.85,-415.5 341.85,-412 331.85,-408.5 331.85,-415.5"/>
</g>
<!-- x11&#45;&gt;a52 -->
<g id="edge95" class="edge">
<title>x11&#45;&gt;a52</title>
<path fill="none" stroke="black" d="M162.71,-407.76C199.58,-398.42 288.1,-375.97 332.57,-364.7"/>
<polygon fill="black" stroke="black" points="333.53,-368.07 342.36,-362.22 331.81,-361.28 333.53,-368.07"/>
</g>
<!-- x11&#45;&gt;a62 -->
<g id="edge96" class="edge">
<title>x11&#45;&gt;a62</title>
<path fill="none" stroke="black" d="M161.32,-404.23C197.84,-385.71 290.3,-338.83 334.6,-316.37"/>
<polygon fill="black" stroke="black" points="336.2,-319.49 343.53,-311.84 333.03,-313.24 336.2,-319.49"/>
</g>
<!-- x11&#45;&gt;a72 -->
<g id="edge97" class="edge">
<title>x11&#45;&gt;a72</title>
<path fill="none" stroke="black" d="M159.98,-401.37C196.24,-373.79 293.58,-299.75 337.26,-266.53"/>
<polygon fill="black" stroke="black" points="339.41,-269.3 345.25,-260.46 335.17,-263.73 339.41,-269.3"/>
</g>
<!-- x11&#45;&gt;a82 -->
<g id="edge98" class="edge">
<title>x11&#45;&gt;a82</title>
<path fill="none" stroke="black" d="M158.37,-399.45C193.97,-363.35 296.84,-259.04 339.8,-215.47"/>
<polygon fill="black" stroke="black" points="342.33,-217.89 346.86,-208.31 337.35,-212.98 342.33,-217.89"/>
</g>
<!-- x11&#45;&gt;a92 -->
<g id="edge99" class="edge">
<title>x11&#45;&gt;a92</title>
<path fill="none" stroke="black" d="M156.86,-398.24C191.47,-354.37 299.41,-217.53 341.73,-163.89"/>
<polygon fill="black" stroke="black" points="344.72,-165.75 348.17,-155.73 339.22,-161.42 344.72,-165.75"/>
</g>
<!-- O -->
<g id="node21" class="node">
<title>O</title>
<ellipse fill="none" stroke="#4eee94" cx="544.99" cy="-304" rx="77.99" ry="18"/>
<text text-anchor="middle" x="544.99" y="-300.3" font-family="Times,serif" font-size="14.00">Dropout Layer</text>
</g>
<!-- a12&#45;&gt;O -->
<g id="edge100" class="edge">
<title>a12&#45;&gt;O</title>
<path fill="none" stroke="black" d="M372.45,-101.51C402.42,-136.89 483.54,-232.65 522.52,-278.65"/>
<polygon fill="black" stroke="black" points="519.93,-281.01 529.06,-286.38 525.27,-276.49 519.93,-281.01"/>
</g>
<!-- a22&#45;&gt;O -->
<g id="edge101" class="edge">
<title>a22&#45;&gt;O</title>
<path fill="none" stroke="black" d="M372.45,-506.49C402.42,-471.11 483.54,-375.35 522.52,-329.35"/>
<polygon fill="black" stroke="black" points="525.27,-331.51 529.06,-321.62 519.93,-326.99 525.27,-331.51"/>
</g>
<!-- a32&#45;&gt;O -->
<g id="edge102" class="edge">
<title>a32&#45;&gt;O</title>
<path fill="none" stroke="black" d="M374.16,-454.35C403.89,-428.03 476.77,-363.51 516.71,-328.15"/>
<polygon fill="black" stroke="black" points="519.07,-330.74 524.24,-321.49 514.43,-325.5 519.07,-330.74"/>
</g>
<!-- a42&#45;&gt;O -->
<g id="edge103" class="edge">
<title>a42&#45;&gt;O</title>
<path fill="none" stroke="black" d="M375.98,-403.16C404.31,-386.44 466.51,-349.73 506.77,-325.97"/>
<polygon fill="black" stroke="black" points="508.67,-328.91 515.5,-320.82 505.11,-322.89 508.67,-328.91"/>
</g>
<!-- a52&#45;&gt;O -->
<g id="edge104" class="edge">
<title>a52&#45;&gt;O</title>
<path fill="none" stroke="black" d="M377.56,-353.11C401.87,-345.94 448.41,-332.2 486.11,-321.08"/>
<polygon fill="black" stroke="black" points="487.39,-324.35 495.99,-318.17 485.4,-317.64 487.39,-324.35"/>
</g>
<!-- a62&#45;&gt;O -->
<g id="edge105" class="edge">
<title>a62&#45;&gt;O</title>
<path fill="none" stroke="black" d="M378.22,-304C396.52,-304 426.88,-304 456.66,-304"/>
<polygon fill="black" stroke="black" points="456.71,-307.5 466.71,-304 456.71,-300.5 456.71,-307.5"/>
</g>
<!-- a72&#45;&gt;O -->
<g id="edge106" class="edge">
<title>a72&#45;&gt;O</title>
<path fill="none" stroke="black" d="M377.56,-254.89C401.87,-262.06 448.41,-275.8 486.11,-286.92"/>
<polygon fill="black" stroke="black" points="485.4,-290.36 495.99,-289.83 487.39,-283.65 485.4,-290.36"/>
</g>
<!-- a82&#45;&gt;O -->
<g id="edge107" class="edge">
<title>a82&#45;&gt;O</title>
<path fill="none" stroke="black" d="M375.98,-204.84C404.31,-221.56 466.51,-258.27 506.77,-282.03"/>
<polygon fill="black" stroke="black" points="505.11,-285.11 515.5,-287.18 508.67,-279.09 505.11,-285.11"/>
</g>
<!-- a92&#45;&gt;O -->
<g id="edge108" class="edge">
<title>a92&#45;&gt;O</title>
<path fill="none" stroke="black" d="M374.16,-153.65C403.89,-179.97 476.77,-244.49 516.71,-279.85"/>
<polygon fill="black" stroke="black" points="514.43,-282.5 524.24,-286.51 519.07,-277.26 514.43,-282.5"/>
</g>
<!-- b13 -->
<g id="node22" class="node">
<title>b13</title>
<ellipse fill="none" stroke="#ee0000" cx="727.99" cy="-412" rx="18" ry="18"/>
</g>
<!-- O&#45;&gt;b13 -->
<g id="edge109" class="edge">
<title>O&#45;&gt;b13</title>
<path fill="none" stroke="black" d="M574.27,-320.88C609.75,-342.04 669.94,-377.96 703.17,-397.79"/>
<polygon fill="black" stroke="black" points="701.79,-401.04 712.17,-403.16 705.38,-395.03 701.79,-401.04"/>
</g>
<!-- b23 -->
<g id="node23" class="node">
<title>b23</title>
<ellipse fill="none" stroke="#ee0000" cx="727.99" cy="-358" rx="18" ry="18"/>
</g>
<!-- O&#45;&gt;b23 -->
<g id="edge110" class="edge">
<title>O&#45;&gt;b23</title>
<path fill="none" stroke="black" d="M593.55,-318.19C627.72,-328.38 672.54,-341.76 700.55,-350.11"/>
<polygon fill="black" stroke="black" points="699.82,-353.55 710.4,-353.05 701.82,-346.84 699.82,-353.55"/>
</g>
<!-- b33 -->
<g id="node24" class="node">
<title>b33</title>
<ellipse fill="none" stroke="#ee0000" cx="727.99" cy="-304" rx="18" ry="18"/>
</g>
<!-- O&#45;&gt;b33 -->
<g id="edge111" class="edge">
<title>O&#45;&gt;b33</title>
<path fill="none" stroke="black" d="M623.01,-304C650.25,-304 679.16,-304 699.56,-304"/>
<polygon fill="black" stroke="black" points="699.68,-307.5 709.68,-304 699.68,-300.5 699.68,-307.5"/>
</g>
<!-- b43 -->
<g id="node25" class="node">
<title>b43</title>
<ellipse fill="none" stroke="#ee0000" cx="727.99" cy="-250" rx="18" ry="18"/>
</g>
<!-- O&#45;&gt;b43 -->
<g id="edge112" class="edge">
<title>O&#45;&gt;b43</title>
<path fill="none" stroke="black" d="M593.55,-289.81C627.72,-279.62 672.54,-266.24 700.55,-257.89"/>
<polygon fill="black" stroke="black" points="701.82,-261.16 710.4,-254.95 699.82,-254.45 701.82,-261.16"/>
</g>
<!-- b53 -->
<g id="node26" class="node">
<title>b53</title>
<ellipse fill="none" stroke="#ee0000" cx="727.99" cy="-196" rx="18" ry="18"/>
</g>
<!-- O&#45;&gt;b53 -->
<g id="edge113" class="edge">
<title>O&#45;&gt;b53</title>
<path fill="none" stroke="black" d="M574.27,-287.12C609.75,-265.96 669.94,-230.04 703.17,-210.21"/>
<polygon fill="black" stroke="black" points="705.38,-212.97 712.17,-204.84 701.79,-206.96 705.38,-212.97"/>
</g>
<!-- c11 -->
<g id="node27" class="node">
<title>c11</title>
<ellipse fill="none" stroke="#ee9a00" cx="857.99" cy="-304" rx="18" ry="18"/>
</g>
<!-- b13&#45;&gt;c11 -->
<g id="edge114" class="edge">
<title>b13&#45;&gt;c11</title>
<path fill="none" stroke="black" d="M742.2,-400.85C764.33,-382.17 809.08,-344.42 835.7,-321.96"/>
<polygon fill="black" stroke="black" points="838.26,-324.38 843.65,-315.25 833.75,-319.03 838.26,-324.38"/>
</g>
<!-- b23&#45;&gt;c11 -->
<g id="edge115" class="edge">
<title>b23&#45;&gt;c11</title>
<path fill="none" stroke="black" d="M744.94,-351.27C766.71,-342.08 805.97,-325.52 831.75,-314.65"/>
<polygon fill="black" stroke="black" points="833.38,-317.76 841.23,-310.65 830.66,-311.31 833.38,-317.76"/>
</g>
<!-- b33&#45;&gt;c11 -->
<g id="edge116" class="edge">
<title>b33&#45;&gt;c11</title>
<path fill="none" stroke="black" d="M746.25,-304C767.62,-304 804.3,-304 829.54,-304"/>
<polygon fill="black" stroke="black" points="829.59,-307.5 839.59,-304 829.59,-300.5 829.59,-307.5"/>
</g>
<!-- b43&#45;&gt;c11 -->
<g id="edge117" class="edge">
<title>b43&#45;&gt;c11</title>
<path fill="none" stroke="black" d="M744.94,-256.73C766.71,-265.92 805.97,-282.48 831.75,-293.35"/>
<polygon fill="black" stroke="black" points="830.66,-296.69 841.23,-297.35 833.38,-290.24 830.66,-296.69"/>
</g>
<!-- b53&#45;&gt;c11 -->
<g id="edge118" class="edge">
<title>b53&#45;&gt;c11</title>
<path fill="none" stroke="black" d="M742.2,-207.15C764.33,-225.83 809.08,-263.58 835.7,-286.04"/>
<polygon fill="black" stroke="black" points="833.75,-288.97 843.65,-292.75 838.26,-283.62 833.75,-288.97"/>
</g>
</g>
</svg>
