<?xml version="1.0" encoding="UTF-8" standalone="no"?>
<!DOCTYPE svg PUBLIC "-//W3C//DTD SVG 1.1//EN"
 "http://www.w3.org/Graphics/SVG/1.1/DTD/svg11.dtd">
<!-- Generated by graphviz version 2.50.0 (0)
 -->
<!-- Title: G Pages: 1 -->
<svg width="918pt" height="639pt"
 viewBox="0.00 0.00 917.99 639.00" xmlns="http://www.w3.org/2000/svg" xmlns:xlink="http://www.w3.org/1999/xlink">
<g id="graph0" class="graph" transform="scale(1 1) rotate(0) translate(4 635)">
<title>G</title>
<polygon fill="white" stroke="transparent" points="-4,4 -4,-635 913.99,-635 913.99,4 -4,4"/>
<g id="clust1" class="cluster">
<title>cluster_0</title>
<polygon fill="none" stroke="white" points="47,-8 47,-623 279,-623 279,-8 47,-8"/>
<text text-anchor="middle" x="163" y="-607.8" font-family="Times,serif" font-size="14.00">Input and Normalization layer</text>
</g>
<g id="clust2" class="cluster">
<title>cluster_1</title>
<polygon fill="none" stroke="white" points="299,-62 299,-584 457,-584 457,-62 299,-62"/>
<text text-anchor="middle" x="378" y="-568.8" font-family="Times,serif" font-size="14.00">Layer 1 </text>
<text text-anchor="middle" x="378" y="-553.8" font-family="Times,serif" font-size="14.00"> m neurons ∈ [3,20]</text>
</g>
<g id="clust3" class="cluster">
<title>cluster_2</title>
<polygon fill="none" stroke="white" points="477,-278 477,-330 648.99,-330 648.99,-278 477,-278"/>
</g>
<g id="clust4" class="cluster">
<title>cluster_3</title>
<polygon fill="none" stroke="white" points="668.99,-170 668.99,-476 822.99,-476 822.99,-170 668.99,-170"/>
<text text-anchor="middle" x="745.99" y="-460.8" font-family="Times,serif" font-size="14.00">Layer 2 </text>
<text text-anchor="middle" x="745.99" y="-445.8" font-family="Times,serif" font-size="14.00"> n neurons ∈ [2,15]</text>
</g>
<g id="clust5" class="cluster">
<title>cluster_4</title>
<polygon fill="none" stroke="white" points="842.99,-278 842.99,-353 909.99,-353 909.99,-278 842.99,-278"/>
<text text-anchor="middle" x="876.49" y="-337.8" font-family="Times,serif" font-size="14.00">Output</text>
</g>
<!-- x1 -->
<g id="node1" class="node">
<title>x1</title>
<ellipse fill="none" stroke="#00008b" cx="163" cy="-358" rx="18" ry="18"/>
<text text-anchor="middle" x="114.5" y="-328.8" font-family="Times,serif" font-size="14.00">Latitude</text>
</g>
<!-- a12 -->
<g id="node12" class="node">
<title>a12</title>
<ellipse fill="none" stroke="#ee0000" cx="378" cy="-88" rx="18" ry="18"/>
</g>
<!-- x1&#45;&gt;a12 -->
<g id="edge1" class="edge">
<title>x1&#45;&gt;a12</title>
<path fill="none" stroke="black" d="M174.86,-344.24C209.47,-300.37 317.41,-163.53 359.73,-109.89"/>
<polygon fill="black" stroke="black" points="362.72,-111.75 366.17,-101.73 357.22,-107.42 362.72,-111.75"/>
</g>
<!-- a22 -->
<g id="node13" class="node">
<title>a22</title>
<ellipse fill="none" stroke="#ee0000" cx="378" cy="-520" rx="18" ry="18"/>
</g>
<!-- x1&#45;&gt;a22 -->
<g id="edge2" class="edge">
<title>x1&#45;&gt;a22</title>
<path fill="none" stroke="black" d="M177.98,-368.63C214.24,-396.21 311.58,-470.25 355.26,-503.47"/>
<polygon fill="black" stroke="black" points="353.17,-506.27 363.25,-509.54 357.41,-500.7 353.17,-506.27"/>
</g>
<!-- a32 -->
<g id="node14" class="node">
<title>a32</title>
<ellipse fill="none" stroke="#ee0000" cx="378" cy="-466" rx="18" ry="18"/>
</g>
<!-- x1&#45;&gt;a32 -->
<g id="edge3" class="edge">
<title>x1&#45;&gt;a32</title>
<path fill="none" stroke="black" d="M179.32,-365.77C215.84,-384.29 308.3,-431.17 352.6,-453.63"/>
<polygon fill="black" stroke="black" points="351.03,-456.76 361.53,-458.16 354.2,-450.51 351.03,-456.76"/>
</g>
<!-- a42 -->
<g id="node15" class="node">
<title>a42</title>
<ellipse fill="none" stroke="#ee0000" cx="378" cy="-412" rx="18" ry="18"/>
</g>
<!-- x1&#45;&gt;a42 -->
<g id="edge4" class="edge">
<title>x1&#45;&gt;a42</title>
<path fill="none" stroke="black" d="M180.71,-362.24C217.58,-371.58 306.1,-394.03 350.57,-405.3"/>
<polygon fill="black" stroke="black" points="349.81,-408.72 360.36,-407.78 351.53,-401.93 349.81,-408.72"/>
</g>
<!-- a52 -->
<g id="node16" class="node">
<title>a52</title>
<ellipse fill="none" stroke="#ee0000" cx="378" cy="-358" rx="18" ry="18"/>
</g>
<!-- x1&#45;&gt;a52 -->
<g id="edge5" class="edge">
<title>x1&#45;&gt;a52</title>
<path fill="none" stroke="black" d="M181.07,-358C217.92,-358 305.16,-358 349.74,-358"/>
<polygon fill="black" stroke="black" points="349.85,-361.5 359.85,-358 349.85,-354.5 349.85,-361.5"/>
</g>
<!-- a62 -->
<g id="node17" class="node">
<title>a62</title>
<ellipse fill="none" stroke="#ee0000" cx="378" cy="-304" rx="18" ry="18"/>
</g>
<!-- x1&#45;&gt;a62 -->
<g id="edge6" class="edge">
<title>x1&#45;&gt;a62</title>
<path fill="none" stroke="black" d="M180.71,-353.76C217.58,-344.42 306.1,-321.97 350.57,-310.7"/>
<polygon fill="black" stroke="black" points="351.53,-314.07 360.36,-308.22 349.81,-307.28 351.53,-314.07"/>
</g>
<!-- a72 -->
<g id="node18" class="node">
<title>a72</title>
<ellipse fill="none" stroke="#ee0000" cx="378" cy="-250" rx="18" ry="18"/>
</g>
<!-- x1&#45;&gt;a72 -->
<g id="edge7" class="edge">
<title>x1&#45;&gt;a72</title>
<path fill="none" stroke="black" d="M179.32,-350.23C215.84,-331.71 308.3,-284.83 352.6,-262.37"/>
<polygon fill="black" stroke="black" points="354.2,-265.49 361.53,-257.84 351.03,-259.24 354.2,-265.49"/>
</g>
<!-- a82 -->
<g id="node19" class="node">
<title>a82</title>
<ellipse fill="none" stroke="#ee0000" cx="378" cy="-196" rx="18" ry="18"/>
</g>
<!-- x1&#45;&gt;a82 -->
<g id="edge8" class="edge">
<title>x1&#45;&gt;a82</title>
<path fill="none" stroke="black" d="M177.98,-347.37C214.24,-319.79 311.58,-245.75 355.26,-212.53"/>
<polygon fill="black" stroke="black" points="357.41,-215.3 363.25,-206.46 353.17,-209.73 357.41,-215.3"/>
</g>
<!-- a92 -->
<g id="node20" class="node">
<title>a92</title>
<ellipse fill="none" stroke="#ee0000" cx="378" cy="-142" rx="18" ry="18"/>
</g>
<!-- x1&#45;&gt;a92 -->
<g id="edge9" class="edge">
<title>x1&#45;&gt;a92</title>
<path fill="none" stroke="black" d="M176.37,-345.45C211.97,-309.35 314.84,-205.04 357.8,-161.47"/>
<polygon fill="black" stroke="black" points="360.33,-163.89 364.86,-154.31 355.35,-158.98 360.33,-163.89"/>
</g>
<!-- x2 -->
<g id="node2" class="node">
<title>x2</title>
<ellipse fill="none" stroke="#00008b" cx="163" cy="-304" rx="18" ry="18"/>
<text text-anchor="middle" x="108.5" y="-274.8" font-family="Times,serif" font-size="14.00">Longitude</text>
</g>
<!-- x2&#45;&gt;a12 -->
<g id="edge10" class="edge">
<title>x2&#45;&gt;a12</title>
<path fill="none" stroke="black" d="M176.37,-291.45C211.97,-255.35 314.84,-151.04 357.8,-107.47"/>
<polygon fill="black" stroke="black" points="360.33,-109.89 364.86,-100.31 355.35,-104.98 360.33,-109.89"/>
</g>
<!-- x2&#45;&gt;a22 -->
<g id="edge11" class="edge">
<title>x2&#45;&gt;a22</title>
<path fill="none" stroke="black" d="M176.37,-316.55C211.97,-352.65 314.84,-456.96 357.8,-500.53"/>
<polygon fill="black" stroke="black" points="355.35,-503.02 364.86,-507.69 360.33,-498.11 355.35,-503.02"/>
</g>
<!-- x2&#45;&gt;a32 -->
<g id="edge12" class="edge">
<title>x2&#45;&gt;a32</title>
<path fill="none" stroke="black" d="M177.98,-314.63C214.24,-342.21 311.58,-416.25 355.26,-449.47"/>
<polygon fill="black" stroke="black" points="353.17,-452.27 363.25,-455.54 357.41,-446.7 353.17,-452.27"/>
</g>
<!-- x2&#45;&gt;a42 -->
<g id="edge13" class="edge">
<title>x2&#45;&gt;a42</title>
<path fill="none" stroke="black" d="M179.32,-311.77C215.84,-330.29 308.3,-377.17 352.6,-399.63"/>
<polygon fill="black" stroke="black" points="351.03,-402.76 361.53,-404.16 354.2,-396.51 351.03,-402.76"/>
</g>
<!-- x2&#45;&gt;a52 -->
<g id="edge14" class="edge">
<title>x2&#45;&gt;a52</title>
<path fill="none" stroke="black" d="M180.71,-308.24C217.58,-317.58 306.1,-340.03 350.57,-351.3"/>
<polygon fill="black" stroke="black" points="349.81,-354.72 360.36,-353.78 351.53,-347.93 349.81,-354.72"/>
</g>
<!-- x2&#45;&gt;a62 -->
<g id="edge15" class="edge">
<title>x2&#45;&gt;a62</title>
<path fill="none" stroke="black" d="M181.07,-304C217.92,-304 305.16,-304 349.74,-304"/>
<polygon fill="black" stroke="black" points="349.85,-307.5 359.85,-304 349.85,-300.5 349.85,-307.5"/>
</g>
<!-- x2&#45;&gt;a72 -->
<g id="edge16" class="edge">
<title>x2&#45;&gt;a72</title>
<path fill="none" stroke="black" d="M180.71,-299.76C217.58,-290.42 306.1,-267.97 350.57,-256.7"/>
<polygon fill="black" stroke="black" points="351.53,-260.07 360.36,-254.22 349.81,-253.28 351.53,-260.07"/>
</g>
<!-- x2&#45;&gt;a82 -->
<g id="edge17" class="edge">
<title>x2&#45;&gt;a82</title>
<path fill="none" stroke="black" d="M179.32,-296.23C215.84,-277.71 308.3,-230.83 352.6,-208.37"/>
<polygon fill="black" stroke="black" points="354.2,-211.49 361.53,-203.84 351.03,-205.24 354.2,-211.49"/>
</g>
<!-- x2&#45;&gt;a92 -->
<g id="edge18" class="edge">
<title>x2&#45;&gt;a92</title>
<path fill="none" stroke="black" d="M177.98,-293.37C214.24,-265.79 311.58,-191.75 355.26,-158.53"/>
<polygon fill="black" stroke="black" points="357.41,-161.3 363.25,-152.46 353.17,-155.73 357.41,-161.3"/>
</g>
<!-- x3 -->
<g id="node3" class="node">
<title>x3</title>
<ellipse fill="none" stroke="#00008b" cx="163" cy="-250" rx="18" ry="18"/>
<text text-anchor="middle" x="128" y="-220.8" font-family="Times,serif" font-size="14.00">Area</text>
</g>
<!-- x3&#45;&gt;a12 -->
<g id="edge19" class="edge">
<title>x3&#45;&gt;a12</title>
<path fill="none" stroke="black" d="M177.98,-239.37C214.24,-211.79 311.58,-137.75 355.26,-104.53"/>
<polygon fill="black" stroke="black" points="357.41,-107.3 363.25,-98.46 353.17,-101.73 357.41,-107.3"/>
</g>
<!-- x3&#45;&gt;a22 -->
<g id="edge20" class="edge">
<title>x3&#45;&gt;a22</title>
<path fill="none" stroke="black" d="M174.86,-263.76C209.47,-307.63 317.41,-444.47 359.73,-498.11"/>
<polygon fill="black" stroke="black" points="357.22,-500.58 366.17,-506.27 362.72,-496.25 357.22,-500.58"/>
</g>
<!-- x3&#45;&gt;a32 -->
<g id="edge21" class="edge">
<title>x3&#45;&gt;a32</title>
<path fill="none" stroke="black" d="M176.37,-262.55C211.97,-298.65 314.84,-402.96 357.8,-446.53"/>
<polygon fill="black" stroke="black" points="355.35,-449.02 364.86,-453.69 360.33,-444.11 355.35,-449.02"/>
</g>
<!-- x3&#45;&gt;a42 -->
<g id="edge22" class="edge">
<title>x3&#45;&gt;a42</title>
<path fill="none" stroke="black" d="M177.98,-260.63C214.24,-288.21 311.58,-362.25 355.26,-395.47"/>
<polygon fill="black" stroke="black" points="353.17,-398.27 363.25,-401.54 357.41,-392.7 353.17,-398.27"/>
</g>
<!-- x3&#45;&gt;a52 -->
<g id="edge23" class="edge">
<title>x3&#45;&gt;a52</title>
<path fill="none" stroke="black" d="M179.32,-257.77C215.84,-276.29 308.3,-323.17 352.6,-345.63"/>
<polygon fill="black" stroke="black" points="351.03,-348.76 361.53,-350.16 354.2,-342.51 351.03,-348.76"/>
</g>
<!-- x3&#45;&gt;a62 -->
<g id="edge24" class="edge">
<title>x3&#45;&gt;a62</title>
<path fill="none" stroke="black" d="M180.71,-254.24C217.58,-263.58 306.1,-286.03 350.57,-297.3"/>
<polygon fill="black" stroke="black" points="349.81,-300.72 360.36,-299.78 351.53,-293.93 349.81,-300.72"/>
</g>
<!-- x3&#45;&gt;a72 -->
<g id="edge25" class="edge">
<title>x3&#45;&gt;a72</title>
<path fill="none" stroke="black" d="M181.07,-250C217.92,-250 305.16,-250 349.74,-250"/>
<polygon fill="black" stroke="black" points="349.85,-253.5 359.85,-250 349.85,-246.5 349.85,-253.5"/>
</g>
<!-- x3&#45;&gt;a82 -->
<g id="edge26" class="edge">
<title>x3&#45;&gt;a82</title>
<path fill="none" stroke="black" d="M180.71,-245.76C217.58,-236.42 306.1,-213.97 350.57,-202.7"/>
<polygon fill="black" stroke="black" points="351.53,-206.07 360.36,-200.22 349.81,-199.28 351.53,-206.07"/>
</g>
<!-- x3&#45;&gt;a92 -->
<g id="edge27" class="edge">
<title>x3&#45;&gt;a92</title>
<path fill="none" stroke="black" d="M179.32,-242.23C215.84,-223.71 308.3,-176.83 352.6,-154.37"/>
<polygon fill="black" stroke="black" points="354.2,-157.49 361.53,-149.84 351.03,-151.24 354.2,-157.49"/>
</g>
<!-- x4 -->
<g id="node4" class="node">
<title>x4</title>
<ellipse fill="none" stroke="#00008b" cx="163" cy="-196" rx="18" ry="18"/>
<text text-anchor="middle" x="119.5" y="-166.8" font-family="Times,serif" font-size="14.00">Length</text>
</g>
<!-- x4&#45;&gt;a12 -->
<g id="edge28" class="edge">
<title>x4&#45;&gt;a12</title>
<path fill="none" stroke="black" d="M179.32,-188.23C215.84,-169.71 308.3,-122.83 352.6,-100.37"/>
<polygon fill="black" stroke="black" points="354.2,-103.49 361.53,-95.84 351.03,-97.24 354.2,-103.49"/>
</g>
<!-- x4&#45;&gt;a22 -->
<g id="edge29" class="edge">
<title>x4&#45;&gt;a22</title>
<path fill="none" stroke="black" d="M173.71,-210.76C207.53,-262.21 320.37,-433.86 361.68,-496.7"/>
<polygon fill="black" stroke="black" points="358.82,-498.72 367.24,-505.15 364.67,-494.87 358.82,-498.72"/>
</g>
<!-- x4&#45;&gt;a32 -->
<g id="edge30" class="edge">
<title>x4&#45;&gt;a32</title>
<path fill="none" stroke="black" d="M174.86,-209.76C209.47,-253.63 317.41,-390.47 359.73,-444.11"/>
<polygon fill="black" stroke="black" points="357.22,-446.58 366.17,-452.27 362.72,-442.25 357.22,-446.58"/>
</g>
<!-- x4&#45;&gt;a42 -->
<g id="edge31" class="edge">
<title>x4&#45;&gt;a42</title>
<path fill="none" stroke="black" d="M176.37,-208.55C211.97,-244.65 314.84,-348.96 357.8,-392.53"/>
<polygon fill="black" stroke="black" points="355.35,-395.02 364.86,-399.69 360.33,-390.11 355.35,-395.02"/>
</g>
<!-- x4&#45;&gt;a52 -->
<g id="edge32" class="edge">
<title>x4&#45;&gt;a52</title>
<path fill="none" stroke="black" d="M177.98,-206.63C214.24,-234.21 311.58,-308.25 355.26,-341.47"/>
<polygon fill="black" stroke="black" points="353.17,-344.27 363.25,-347.54 357.41,-338.7 353.17,-344.27"/>
</g>
<!-- x4&#45;&gt;a62 -->
<g id="edge33" class="edge">
<title>x4&#45;&gt;a62</title>
<path fill="none" stroke="black" d="M179.32,-203.77C215.84,-222.29 308.3,-269.17 352.6,-291.63"/>
<polygon fill="black" stroke="black" points="351.03,-294.76 361.53,-296.16 354.2,-288.51 351.03,-294.76"/>
</g>
<!-- x4&#45;&gt;a72 -->
<g id="edge34" class="edge">
<title>x4&#45;&gt;a72</title>
<path fill="none" stroke="black" d="M180.71,-200.24C217.58,-209.58 306.1,-232.03 350.57,-243.3"/>
<polygon fill="black" stroke="black" points="349.81,-246.72 360.36,-245.78 351.53,-239.93 349.81,-246.72"/>
</g>
<!-- x4&#45;&gt;a82 -->
<g id="edge35" class="edge">
<title>x4&#45;&gt;a82</title>
<path fill="none" stroke="black" d="M181.07,-196C217.92,-196 305.16,-196 349.74,-196"/>
<polygon fill="black" stroke="black" points="349.85,-199.5 359.85,-196 349.85,-192.5 349.85,-199.5"/>
</g>
<!-- x4&#45;&gt;a92 -->
<g id="edge36" class="edge">
<title>x4&#45;&gt;a92</title>
<path fill="none" stroke="black" d="M180.71,-191.76C217.58,-182.42 306.1,-159.97 350.57,-148.7"/>
<polygon fill="black" stroke="black" points="351.53,-152.07 360.36,-146.22 349.81,-145.28 351.53,-152.07"/>
</g>
<!-- x5 -->
<g id="node5" class="node">
<title>x5</title>
<ellipse fill="none" stroke="#00008b" cx="163" cy="-142" rx="18" ry="18"/>
<text text-anchor="middle" x="120.5" y="-112.8" font-family="Times,serif" font-size="14.00">Aspect</text>
</g>
<!-- x5&#45;&gt;a12 -->
<g id="edge37" class="edge">
<title>x5&#45;&gt;a12</title>
<path fill="none" stroke="black" d="M180.71,-137.76C217.58,-128.42 306.1,-105.97 350.57,-94.7"/>
<polygon fill="black" stroke="black" points="351.53,-98.07 360.36,-92.22 349.81,-91.28 351.53,-98.07"/>
</g>
<!-- x5&#45;&gt;a22 -->
<g id="edge38" class="edge">
<title>x5&#45;&gt;a22</title>
<path fill="none" stroke="black" d="M172.61,-157.29C205.46,-215.58 323.04,-424.23 363.33,-495.75"/>
<polygon fill="black" stroke="black" points="360.32,-497.53 368.28,-504.52 366.42,-494.09 360.32,-497.53"/>
</g>
<!-- x5&#45;&gt;a32 -->
<g id="edge39" class="edge">
<title>x5&#45;&gt;a32</title>
<path fill="none" stroke="black" d="M173.71,-156.76C207.53,-208.21 320.37,-379.86 361.68,-442.7"/>
<polygon fill="black" stroke="black" points="358.82,-444.72 367.24,-451.15 364.67,-440.87 358.82,-444.72"/>
</g>
<!-- x5&#45;&gt;a42 -->
<g id="edge40" class="edge">
<title>x5&#45;&gt;a42</title>
<path fill="none" stroke="black" d="M174.86,-155.76C209.47,-199.63 317.41,-336.47 359.73,-390.11"/>
<polygon fill="black" stroke="black" points="357.22,-392.58 366.17,-398.27 362.72,-388.25 357.22,-392.58"/>
</g>
<!-- x5&#45;&gt;a52 -->
<g id="edge41" class="edge">
<title>x5&#45;&gt;a52</title>
<path fill="none" stroke="black" d="M176.37,-154.55C211.97,-190.65 314.84,-294.96 357.8,-338.53"/>
<polygon fill="black" stroke="black" points="355.35,-341.02 364.86,-345.69 360.33,-336.11 355.35,-341.02"/>
</g>
<!-- x5&#45;&gt;a62 -->
<g id="edge42" class="edge">
<title>x5&#45;&gt;a62</title>
<path fill="none" stroke="black" d="M177.98,-152.63C214.24,-180.21 311.58,-254.25 355.26,-287.47"/>
<polygon fill="black" stroke="black" points="353.17,-290.27 363.25,-293.54 357.41,-284.7 353.17,-290.27"/>
</g>
<!-- x5&#45;&gt;a72 -->
<g id="edge43" class="edge">
<title>x5&#45;&gt;a72</title>
<path fill="none" stroke="black" d="M179.32,-149.77C215.84,-168.29 308.3,-215.17 352.6,-237.63"/>
<polygon fill="black" stroke="black" points="351.03,-240.76 361.53,-242.16 354.2,-234.51 351.03,-240.76"/>
</g>
<!-- x5&#45;&gt;a82 -->
<g id="edge44" class="edge">
<title>x5&#45;&gt;a82</title>
<path fill="none" stroke="black" d="M180.71,-146.24C217.58,-155.58 306.1,-178.03 350.57,-189.3"/>
<polygon fill="black" stroke="black" points="349.81,-192.72 360.36,-191.78 351.53,-185.93 349.81,-192.72"/>
</g>
<!-- x5&#45;&gt;a92 -->
<g id="edge45" class="edge">
<title>x5&#45;&gt;a92</title>
<path fill="none" stroke="black" d="M181.07,-142C217.92,-142 305.16,-142 349.74,-142"/>
<polygon fill="black" stroke="black" points="349.85,-145.5 359.85,-142 349.85,-138.5 349.85,-145.5"/>
</g>
<!-- x6 -->
<g id="node6" class="node">
<title>x6</title>
<ellipse fill="none" stroke="#00008b" cx="163" cy="-88" rx="18" ry="18"/>
<text text-anchor="middle" x="95" y="-58.8" font-family="Times,serif" font-size="14.00">Min Elevation</text>
</g>
<!-- x6&#45;&gt;a12 -->
<g id="edge46" class="edge">
<title>x6&#45;&gt;a12</title>
<path fill="none" stroke="black" d="M181.07,-88C217.92,-88 305.16,-88 349.74,-88"/>
<polygon fill="black" stroke="black" points="349.85,-91.5 359.85,-88 349.85,-84.5 349.85,-91.5"/>
</g>
<!-- x6&#45;&gt;a22 -->
<g id="edge47" class="edge">
<title>x6&#45;&gt;a22</title>
<path fill="none" stroke="black" d="M171.83,-103.89C203.86,-168.85 325.03,-414.6 364.49,-494.64"/>
<polygon fill="black" stroke="black" points="361.53,-496.55 369.1,-503.97 367.81,-493.45 361.53,-496.55"/>
</g>
<!-- x6&#45;&gt;a32 -->
<g id="edge48" class="edge">
<title>x6&#45;&gt;a32</title>
<path fill="none" stroke="black" d="M172.61,-103.29C205.46,-161.58 323.04,-370.23 363.33,-441.75"/>
<polygon fill="black" stroke="black" points="360.32,-443.53 368.28,-450.52 366.42,-440.09 360.32,-443.53"/>
</g>
<!-- x6&#45;&gt;a42 -->
<g id="edge49" class="edge">
<title>x6&#45;&gt;a42</title>
<path fill="none" stroke="black" d="M173.71,-102.76C207.53,-154.21 320.37,-325.86 361.68,-388.7"/>
<polygon fill="black" stroke="black" points="358.82,-390.72 367.24,-397.15 364.67,-386.87 358.82,-390.72"/>
</g>
<!-- x6&#45;&gt;a52 -->
<g id="edge50" class="edge">
<title>x6&#45;&gt;a52</title>
<path fill="none" stroke="black" d="M174.86,-101.76C209.47,-145.63 317.41,-282.47 359.73,-336.11"/>
<polygon fill="black" stroke="black" points="357.22,-338.58 366.17,-344.27 362.72,-334.25 357.22,-338.58"/>
</g>
<!-- x6&#45;&gt;a62 -->
<g id="edge51" class="edge">
<title>x6&#45;&gt;a62</title>
<path fill="none" stroke="black" d="M176.37,-100.55C211.97,-136.65 314.84,-240.96 357.8,-284.53"/>
<polygon fill="black" stroke="black" points="355.35,-287.02 364.86,-291.69 360.33,-282.11 355.35,-287.02"/>
</g>
<!-- x6&#45;&gt;a72 -->
<g id="edge52" class="edge">
<title>x6&#45;&gt;a72</title>
<path fill="none" stroke="black" d="M177.98,-98.63C214.24,-126.21 311.58,-200.25 355.26,-233.47"/>
<polygon fill="black" stroke="black" points="353.17,-236.27 363.25,-239.54 357.41,-230.7 353.17,-236.27"/>
</g>
<!-- x6&#45;&gt;a82 -->
<g id="edge53" class="edge">
<title>x6&#45;&gt;a82</title>
<path fill="none" stroke="black" d="M179.32,-95.77C215.84,-114.29 308.3,-161.17 352.6,-183.63"/>
<polygon fill="black" stroke="black" points="351.03,-186.76 361.53,-188.16 354.2,-180.51 351.03,-186.76"/>
</g>
<!-- x6&#45;&gt;a92 -->
<g id="edge54" class="edge">
<title>x6&#45;&gt;a92</title>
<path fill="none" stroke="black" d="M180.71,-92.24C217.58,-101.58 306.1,-124.03 350.57,-135.3"/>
<polygon fill="black" stroke="black" points="349.81,-138.72 360.36,-137.78 351.53,-131.93 349.81,-138.72"/>
</g>
<!-- x7 -->
<g id="node7" class="node">
<title>x7</title>
<ellipse fill="none" stroke="#00008b" cx="163" cy="-34" rx="18" ry="18"/>
<text text-anchor="middle" x="95" y="-4.8" font-family="Times,serif" font-size="14.00">Mid Elevation</text>
</g>
<!-- x7&#45;&gt;a12 -->
<g id="edge55" class="edge">
<title>x7&#45;&gt;a12</title>
<path fill="none" stroke="black" d="M180.71,-38.24C217.58,-47.58 306.1,-70.03 350.57,-81.3"/>
<polygon fill="black" stroke="black" points="349.81,-84.72 360.36,-83.78 351.53,-77.93 349.81,-84.72"/>
</g>
<!-- x7&#45;&gt;a22 -->
<g id="edge56" class="edge">
<title>x7&#45;&gt;a22</title>
<path fill="none" stroke="black" d="M171.09,-50.17C202.3,-121.38 327.62,-407.33 365.86,-494.59"/>
<polygon fill="black" stroke="black" points="362.67,-496.02 369.89,-503.77 369.08,-493.21 362.67,-496.02"/>
</g>
<!-- x7&#45;&gt;a32 -->
<g id="edge57" class="edge">
<title>x7&#45;&gt;a32</title>
<path fill="none" stroke="black" d="M171.83,-49.89C203.86,-114.85 325.03,-360.6 364.49,-440.64"/>
<polygon fill="black" stroke="black" points="361.53,-442.55 369.1,-449.97 367.81,-439.45 361.53,-442.55"/>
</g>
<!-- x7&#45;&gt;a42 -->
<g id="edge58" class="edge">
<title>x7&#45;&gt;a42</title>
<path fill="none" stroke="black" d="M172.61,-49.29C205.46,-107.58 323.04,-316.23 363.33,-387.75"/>
<polygon fill="black" stroke="black" points="360.32,-389.53 368.28,-396.52 366.42,-386.09 360.32,-389.53"/>
</g>
<!-- x7&#45;&gt;a52 -->
<g id="edge59" class="edge">
<title>x7&#45;&gt;a52</title>
<path fill="none" stroke="black" d="M173.71,-48.76C207.53,-100.21 320.37,-271.86 361.68,-334.7"/>
<polygon fill="black" stroke="black" points="358.82,-336.72 367.24,-343.15 364.67,-332.87 358.82,-336.72"/>
</g>
<!-- x7&#45;&gt;a62 -->
<g id="edge60" class="edge">
<title>x7&#45;&gt;a62</title>
<path fill="none" stroke="black" d="M174.86,-47.76C209.47,-91.63 317.41,-228.47 359.73,-282.11"/>
<polygon fill="black" stroke="black" points="357.22,-284.58 366.17,-290.27 362.72,-280.25 357.22,-284.58"/>
</g>
<!-- x7&#45;&gt;a72 -->
<g id="edge61" class="edge">
<title>x7&#45;&gt;a72</title>
<path fill="none" stroke="black" d="M176.37,-46.55C211.97,-82.65 314.84,-186.96 357.8,-230.53"/>
<polygon fill="black" stroke="black" points="355.35,-233.02 364.86,-237.69 360.33,-228.11 355.35,-233.02"/>
</g>
<!-- x7&#45;&gt;a82 -->
<g id="edge62" class="edge">
<title>x7&#45;&gt;a82</title>
<path fill="none" stroke="black" d="M177.98,-44.63C214.24,-72.21 311.58,-146.25 355.26,-179.47"/>
<polygon fill="black" stroke="black" points="353.17,-182.27 363.25,-185.54 357.41,-176.7 353.17,-182.27"/>
</g>
<!-- x7&#45;&gt;a92 -->
<g id="edge63" class="edge">
<title>x7&#45;&gt;a92</title>
<path fill="none" stroke="black" d="M179.32,-41.77C215.84,-60.29 308.3,-107.17 352.6,-129.63"/>
<polygon fill="black" stroke="black" points="351.03,-132.76 361.53,-134.16 354.2,-126.51 351.03,-132.76"/>
</g>
<!-- x8 -->
<g id="node8" class="node">
<title>x8</title>
<ellipse fill="none" stroke="#00008b" cx="163" cy="-574" rx="18" ry="18"/>
<text text-anchor="middle" x="93.5" y="-544.8" font-family="Times,serif" font-size="14.00">Max Elevation</text>
</g>
<!-- x8&#45;&gt;a12 -->
<g id="edge64" class="edge">
<title>x8&#45;&gt;a12</title>
<path fill="none" stroke="black" d="M171.09,-557.83C202.3,-486.62 327.62,-200.67 365.86,-113.41"/>
<polygon fill="black" stroke="black" points="369.08,-114.79 369.89,-104.23 362.67,-111.98 369.08,-114.79"/>
</g>
<!-- x8&#45;&gt;a22 -->
<g id="edge65" class="edge">
<title>x8&#45;&gt;a22</title>
<path fill="none" stroke="black" d="M180.71,-569.76C217.58,-560.42 306.1,-537.97 350.57,-526.7"/>
<polygon fill="black" stroke="black" points="351.53,-530.07 360.36,-524.22 349.81,-523.28 351.53,-530.07"/>
</g>
<!-- x8&#45;&gt;a32 -->
<g id="edge66" class="edge">
<title>x8&#45;&gt;a32</title>
<path fill="none" stroke="black" d="M179.32,-566.23C215.84,-547.71 308.3,-500.83 352.6,-478.37"/>
<polygon fill="black" stroke="black" points="354.2,-481.49 361.53,-473.84 351.03,-475.24 354.2,-481.49"/>
</g>
<!-- x8&#45;&gt;a42 -->
<g id="edge67" class="edge">
<title>x8&#45;&gt;a42</title>
<path fill="none" stroke="black" d="M177.98,-563.37C214.24,-535.79 311.58,-461.75 355.26,-428.53"/>
<polygon fill="black" stroke="black" points="357.41,-431.3 363.25,-422.46 353.17,-425.73 357.41,-431.3"/>
</g>
<!-- x8&#45;&gt;a52 -->
<g id="edge68" class="edge">
<title>x8&#45;&gt;a52</title>
<path fill="none" stroke="black" d="M176.37,-561.45C211.97,-525.35 314.84,-421.04 357.8,-377.47"/>
<polygon fill="black" stroke="black" points="360.33,-379.89 364.86,-370.31 355.35,-374.98 360.33,-379.89"/>
</g>
<!-- x8&#45;&gt;a62 -->
<g id="edge69" class="edge">
<title>x8&#45;&gt;a62</title>
<path fill="none" stroke="black" d="M174.86,-560.24C209.47,-516.37 317.41,-379.53 359.73,-325.89"/>
<polygon fill="black" stroke="black" points="362.72,-327.75 366.17,-317.73 357.22,-323.42 362.72,-327.75"/>
</g>
<!-- x8&#45;&gt;a72 -->
<g id="edge70" class="edge">
<title>x8&#45;&gt;a72</title>
<path fill="none" stroke="black" d="M173.71,-559.24C207.53,-507.79 320.37,-336.14 361.68,-273.3"/>
<polygon fill="black" stroke="black" points="364.67,-275.13 367.24,-264.85 358.82,-271.28 364.67,-275.13"/>
</g>
<!-- x8&#45;&gt;a82 -->
<g id="edge71" class="edge">
<title>x8&#45;&gt;a82</title>
<path fill="none" stroke="black" d="M172.61,-558.71C205.46,-500.42 323.04,-291.77 363.33,-220.25"/>
<polygon fill="black" stroke="black" points="366.42,-221.91 368.28,-211.48 360.32,-218.47 366.42,-221.91"/>
</g>
<!-- x8&#45;&gt;a92 -->
<g id="edge72" class="edge">
<title>x8&#45;&gt;a92</title>
<path fill="none" stroke="black" d="M171.83,-558.11C203.86,-493.15 325.03,-247.4 364.49,-167.36"/>
<polygon fill="black" stroke="black" points="367.81,-168.55 369.1,-158.03 361.53,-165.45 367.81,-168.55"/>
</g>
<!-- x9 -->
<g id="node9" class="node">
<title>x9</title>
<ellipse fill="none" stroke="#00008b" cx="163" cy="-520" rx="18" ry="18"/>
<text text-anchor="middle" x="72.5" y="-490.8" font-family="Times,serif" font-size="14.00">Change in Elevation</text>
</g>
<!-- x9&#45;&gt;a12 -->
<g id="edge73" class="edge">
<title>x9&#45;&gt;a12</title>
<path fill="none" stroke="black" d="M171.83,-504.11C203.86,-439.15 325.03,-193.4 364.49,-113.36"/>
<polygon fill="black" stroke="black" points="367.81,-114.55 369.1,-104.03 361.53,-111.45 367.81,-114.55"/>
</g>
<!-- x9&#45;&gt;a22 -->
<g id="edge74" class="edge">
<title>x9&#45;&gt;a22</title>
<path fill="none" stroke="black" d="M181.07,-520C217.92,-520 305.16,-520 349.74,-520"/>
<polygon fill="black" stroke="black" points="349.85,-523.5 359.85,-520 349.85,-516.5 349.85,-523.5"/>
</g>
<!-- x9&#45;&gt;a32 -->
<g id="edge75" class="edge">
<title>x9&#45;&gt;a32</title>
<path fill="none" stroke="black" d="M180.71,-515.76C217.58,-506.42 306.1,-483.97 350.57,-472.7"/>
<polygon fill="black" stroke="black" points="351.53,-476.07 360.36,-470.22 349.81,-469.28 351.53,-476.07"/>
</g>
<!-- x9&#45;&gt;a42 -->
<g id="edge76" class="edge">
<title>x9&#45;&gt;a42</title>
<path fill="none" stroke="black" d="M179.32,-512.23C215.84,-493.71 308.3,-446.83 352.6,-424.37"/>
<polygon fill="black" stroke="black" points="354.2,-427.49 361.53,-419.84 351.03,-421.24 354.2,-427.49"/>
</g>
<!-- x9&#45;&gt;a52 -->
<g id="edge77" class="edge">
<title>x9&#45;&gt;a52</title>
<path fill="none" stroke="black" d="M177.98,-509.37C214.24,-481.79 311.58,-407.75 355.26,-374.53"/>
<polygon fill="black" stroke="black" points="357.41,-377.3 363.25,-368.46 353.17,-371.73 357.41,-377.3"/>
</g>
<!-- x9&#45;&gt;a62 -->
<g id="edge78" class="edge">
<title>x9&#45;&gt;a62</title>
<path fill="none" stroke="black" d="M176.37,-507.45C211.97,-471.35 314.84,-367.04 357.8,-323.47"/>
<polygon fill="black" stroke="black" points="360.33,-325.89 364.86,-316.31 355.35,-320.98 360.33,-325.89"/>
</g>
<!-- x9&#45;&gt;a72 -->
<g id="edge79" class="edge">
<title>x9&#45;&gt;a72</title>
<path fill="none" stroke="black" d="M174.86,-506.24C209.47,-462.37 317.41,-325.53 359.73,-271.89"/>
<polygon fill="black" stroke="black" points="362.72,-273.75 366.17,-263.73 357.22,-269.42 362.72,-273.75"/>
</g>
<!-- x9&#45;&gt;a82 -->
<g id="edge80" class="edge">
<title>x9&#45;&gt;a82</title>
<path fill="none" stroke="black" d="M173.71,-505.24C207.53,-453.79 320.37,-282.14 361.68,-219.3"/>
<polygon fill="black" stroke="black" points="364.67,-221.13 367.24,-210.85 358.82,-217.28 364.67,-221.13"/>
</g>
<!-- x9&#45;&gt;a92 -->
<g id="edge81" class="edge">
<title>x9&#45;&gt;a92</title>
<path fill="none" stroke="black" d="M172.61,-504.71C205.46,-446.42 323.04,-237.77 363.33,-166.25"/>
<polygon fill="black" stroke="black" points="366.42,-167.91 368.28,-157.48 360.32,-164.47 366.42,-167.91"/>
</g>
<!-- x10 -->
<g id="node10" class="node">
<title>x10</title>
<ellipse fill="none" stroke="#00008b" cx="163" cy="-466" rx="18" ry="18"/>
<text text-anchor="middle" x="125" y="-436.8" font-family="Times,serif" font-size="14.00">Slope</text>
</g>
<!-- x10&#45;&gt;a12 -->
<g id="edge82" class="edge">
<title>x10&#45;&gt;a12</title>
<path fill="none" stroke="black" d="M172.61,-450.71C205.46,-392.42 323.04,-183.77 363.33,-112.25"/>
<polygon fill="black" stroke="black" points="366.42,-113.91 368.28,-103.48 360.32,-110.47 366.42,-113.91"/>
</g>
<!-- x10&#45;&gt;a22 -->
<g id="edge83" class="edge">
<title>x10&#45;&gt;a22</title>
<path fill="none" stroke="black" d="M180.71,-470.24C217.58,-479.58 306.1,-502.03 350.57,-513.3"/>
<polygon fill="black" stroke="black" points="349.81,-516.72 360.36,-515.78 351.53,-509.93 349.81,-516.72"/>
</g>
<!-- x10&#45;&gt;a32 -->
<g id="edge84" class="edge">
<title>x10&#45;&gt;a32</title>
<path fill="none" stroke="black" d="M181.07,-466C217.92,-466 305.16,-466 349.74,-466"/>
<polygon fill="black" stroke="black" points="349.85,-469.5 359.85,-466 349.85,-462.5 349.85,-469.5"/>
</g>
<!-- x10&#45;&gt;a42 -->
<g id="edge85" class="edge">
<title>x10&#45;&gt;a42</title>
<path fill="none" stroke="black" d="M180.71,-461.76C217.58,-452.42 306.1,-429.97 350.57,-418.7"/>
<polygon fill="black" stroke="black" points="351.53,-422.07 360.36,-416.22 349.81,-415.28 351.53,-422.07"/>
</g>
<!-- x10&#45;&gt;a52 -->
<g id="edge86" class="edge">
<title>x10&#45;&gt;a52</title>
<path fill="none" stroke="black" d="M179.32,-458.23C215.84,-439.71 308.3,-392.83 352.6,-370.37"/>
<polygon fill="black" stroke="black" points="354.2,-373.49 361.53,-365.84 351.03,-367.24 354.2,-373.49"/>
</g>
<!-- x10&#45;&gt;a62 -->
<g id="edge87" class="edge">
<title>x10&#45;&gt;a62</title>
<path fill="none" stroke="black" d="M177.98,-455.37C214.24,-427.79 311.58,-353.75 355.26,-320.53"/>
<polygon fill="black" stroke="black" points="357.41,-323.3 363.25,-314.46 353.17,-317.73 357.41,-323.3"/>
</g>
<!-- x10&#45;&gt;a72 -->
<g id="edge88" class="edge">
<title>x10&#45;&gt;a72</title>
<path fill="none" stroke="black" d="M176.37,-453.45C211.97,-417.35 314.84,-313.04 357.8,-269.47"/>
<polygon fill="black" stroke="black" points="360.33,-271.89 364.86,-262.31 355.35,-266.98 360.33,-271.89"/>
</g>
<!-- x10&#45;&gt;a82 -->
<g id="edge89" class="edge">
<title>x10&#45;&gt;a82</title>
<path fill="none" stroke="black" d="M174.86,-452.24C209.47,-408.37 317.41,-271.53 359.73,-217.89"/>
<polygon fill="black" stroke="black" points="362.72,-219.75 366.17,-209.73 357.22,-215.42 362.72,-219.75"/>
</g>
<!-- x10&#45;&gt;a92 -->
<g id="edge90" class="edge">
<title>x10&#45;&gt;a92</title>
<path fill="none" stroke="black" d="M173.71,-451.24C207.53,-399.79 320.37,-228.14 361.68,-165.3"/>
<polygon fill="black" stroke="black" points="364.67,-167.13 367.24,-156.85 358.82,-163.28 364.67,-167.13"/>
</g>
<!-- x11 -->
<g id="node11" class="node">
<title>x11</title>
<ellipse fill="none" stroke="#00008b" cx="163" cy="-412" rx="18" ry="18"/>
<text text-anchor="middle" x="109.5" y="-382.8" font-family="Times,serif" font-size="14.00">Thickness</text>
</g>
<!-- x11&#45;&gt;a12 -->
<g id="edge91" class="edge">
<title>x11&#45;&gt;a12</title>
<path fill="none" stroke="black" d="M173.71,-397.24C207.53,-345.79 320.37,-174.14 361.68,-111.3"/>
<polygon fill="black" stroke="black" points="364.67,-113.13 367.24,-102.85 358.82,-109.28 364.67,-113.13"/>
</g>
<!-- x11&#45;&gt;a22 -->
<g id="edge92" class="edge">
<title>x11&#45;&gt;a22</title>
<path fill="none" stroke="black" d="M179.32,-419.77C215.84,-438.29 308.3,-485.17 352.6,-507.63"/>
<polygon fill="black" stroke="black" points="351.03,-510.76 361.53,-512.16 354.2,-504.51 351.03,-510.76"/>
</g>
<!-- x11&#45;&gt;a32 -->
<g id="edge93" class="edge">
<title>x11&#45;&gt;a32</title>
<path fill="none" stroke="black" d="M180.71,-416.24C217.58,-425.58 306.1,-448.03 350.57,-459.3"/>
<polygon fill="black" stroke="black" points="349.81,-462.72 360.36,-461.78 351.53,-455.93 349.81,-462.72"/>
</g>
<!-- x11&#45;&gt;a42 -->
<g id="edge94" class="edge">
<title>x11&#45;&gt;a42</title>
<path fill="none" stroke="black" d="M181.07,-412C217.92,-412 305.16,-412 349.74,-412"/>
<polygon fill="black" stroke="black" points="349.85,-415.5 359.85,-412 349.85,-408.5 349.85,-415.5"/>
</g>
<!-- x11&#45;&gt;a52 -->
<g id="edge95" class="edge">
<title>x11&#45;&gt;a52</title>
<path fill="none" stroke="black" d="M180.71,-407.76C217.58,-398.42 306.1,-375.97 350.57,-364.7"/>
<polygon fill="black" stroke="black" points="351.53,-368.07 360.36,-362.22 349.81,-361.28 351.53,-368.07"/>
</g>
<!-- x11&#45;&gt;a62 -->
<g id="edge96" class="edge">
<title>x11&#45;&gt;a62</title>
<path fill="none" stroke="black" d="M179.32,-404.23C215.84,-385.71 308.3,-338.83 352.6,-316.37"/>
<polygon fill="black" stroke="black" points="354.2,-319.49 361.53,-311.84 351.03,-313.24 354.2,-319.49"/>
</g>
<!-- x11&#45;&gt;a72 -->
<g id="edge97" class="edge">
<title>x11&#45;&gt;a72</title>
<path fill="none" stroke="black" d="M177.98,-401.37C214.24,-373.79 311.58,-299.75 355.26,-266.53"/>
<polygon fill="black" stroke="black" points="357.41,-269.3 363.25,-260.46 353.17,-263.73 357.41,-269.3"/>
</g>
<!-- x11&#45;&gt;a82 -->
<g id="edge98" class="edge">
<title>x11&#45;&gt;a82</title>
<path fill="none" stroke="black" d="M176.37,-399.45C211.97,-363.35 314.84,-259.04 357.8,-215.47"/>
<polygon fill="black" stroke="black" points="360.33,-217.89 364.86,-208.31 355.35,-212.98 360.33,-217.89"/>
</g>
<!-- x11&#45;&gt;a92 -->
<g id="edge99" class="edge">
<title>x11&#45;&gt;a92</title>
<path fill="none" stroke="black" d="M174.86,-398.24C209.47,-354.37 317.41,-217.53 359.73,-163.89"/>
<polygon fill="black" stroke="black" points="362.72,-165.75 366.17,-155.73 357.22,-161.42 362.72,-165.75"/>
</g>
<!-- O -->
<g id="node21" class="node">
<title>O</title>
<ellipse fill="none" stroke="#4eee94" cx="562.99" cy="-304" rx="77.99" ry="18"/>
<text text-anchor="middle" x="562.99" y="-300.3" font-family="Times,serif" font-size="14.00">Dropout Layer</text>
</g>
<!-- a12&#45;&gt;O -->
<g id="edge100" class="edge">
<title>a12&#45;&gt;O</title>
<path fill="none" stroke="black" d="M390.45,-101.51C420.42,-136.89 501.54,-232.65 540.52,-278.65"/>
<polygon fill="black" stroke="black" points="537.93,-281.01 547.06,-286.38 543.27,-276.49 537.93,-281.01"/>
</g>
<!-- a22&#45;&gt;O -->
<g id="edge101" class="edge">
<title>a22&#45;&gt;O</title>
<path fill="none" stroke="black" d="M390.45,-506.49C420.42,-471.11 501.54,-375.35 540.52,-329.35"/>
<polygon fill="black" stroke="black" points="543.27,-331.51 547.06,-321.62 537.93,-326.99 543.27,-331.51"/>
</g>
<!-- a32&#45;&gt;O -->
<g id="edge102" class="edge">
<title>a32&#45;&gt;O</title>
<path fill="none" stroke="black" d="M392.16,-454.35C421.89,-428.03 494.77,-363.51 534.71,-328.15"/>
<polygon fill="black" stroke="black" points="537.07,-330.74 542.24,-321.49 532.43,-325.5 537.07,-330.74"/>
</g>
<!-- a42&#45;&gt;O -->
<g id="edge103" class="edge">
<title>a42&#45;&gt;O</title>
<path fill="none" stroke="black" d="M393.98,-403.16C422.31,-386.44 484.51,-349.73 524.77,-325.97"/>
<polygon fill="black" stroke="black" points="526.67,-328.91 533.5,-320.82 523.11,-322.89 526.67,-328.91"/>
</g>
<!-- a52&#45;&gt;O -->
<g id="edge104" class="edge">
<title>a52&#45;&gt;O</title>
<path fill="none" stroke="black" d="M395.56,-353.11C419.87,-345.94 466.41,-332.2 504.11,-321.08"/>
<polygon fill="black" stroke="black" points="505.39,-324.35 513.99,-318.17 503.4,-317.64 505.39,-324.35"/>
</g>
<!-- a62&#45;&gt;O -->
<g id="edge105" class="edge">
<title>a62&#45;&gt;O</title>
<path fill="none" stroke="black" d="M396.22,-304C414.52,-304 444.88,-304 474.66,-304"/>
<polygon fill="black" stroke="black" points="474.71,-307.5 484.71,-304 474.71,-300.5 474.71,-307.5"/>
</g>
<!-- a72&#45;&gt;O -->
<g id="edge106" class="edge">
<title>a72&#45;&gt;O</title>
<path fill="none" stroke="black" d="M395.56,-254.89C419.87,-262.06 466.41,-275.8 504.11,-286.92"/>
<polygon fill="black" stroke="black" points="503.4,-290.36 513.99,-289.83 505.39,-283.65 503.4,-290.36"/>
</g>
<!-- a82&#45;&gt;O -->
<g id="edge107" class="edge">
<title>a82&#45;&gt;O</title>
<path fill="none" stroke="black" d="M393.98,-204.84C422.31,-221.56 484.51,-258.27 524.77,-282.03"/>
<polygon fill="black" stroke="black" points="523.11,-285.11 533.5,-287.18 526.67,-279.09 523.11,-285.11"/>
</g>
<!-- a92&#45;&gt;O -->
<g id="edge108" class="edge">
<title>a92&#45;&gt;O</title>
<path fill="none" stroke="black" d="M392.16,-153.65C421.89,-179.97 494.77,-244.49 534.71,-279.85"/>
<polygon fill="black" stroke="black" points="532.43,-282.5 542.24,-286.51 537.07,-277.26 532.43,-282.5"/>
</g>
<!-- b13 -->
<g id="node22" class="node">
<title>b13</title>
<ellipse fill="none" stroke="#ee0000" cx="745.99" cy="-412" rx="18" ry="18"/>
</g>
<!-- O&#45;&gt;b13 -->
<g id="edge109" class="edge">
<title>O&#45;&gt;b13</title>
<path fill="none" stroke="black" d="M592.27,-320.88C627.75,-342.04 687.94,-377.96 721.17,-397.79"/>
<polygon fill="black" stroke="black" points="719.79,-401.04 730.17,-403.16 723.38,-395.03 719.79,-401.04"/>
</g>
<!-- b23 -->
<g id="node23" class="node">
<title>b23</title>
<ellipse fill="none" stroke="#ee0000" cx="745.99" cy="-358" rx="18" ry="18"/>
</g>
<!-- O&#45;&gt;b23 -->
<g id="edge110" class="edge">
<title>O&#45;&gt;b23</title>
<path fill="none" stroke="black" d="M611.55,-318.19C645.72,-328.38 690.54,-341.76 718.55,-350.11"/>
<polygon fill="black" stroke="black" points="717.82,-353.55 728.4,-353.05 719.82,-346.84 717.82,-353.55"/>
</g>
<!-- b33 -->
<g id="node24" class="node">
<title>b33</title>
<ellipse fill="none" stroke="#ee0000" cx="745.99" cy="-304" rx="18" ry="18"/>
</g>
<!-- O&#45;&gt;b33 -->
<g id="edge111" class="edge">
<title>O&#45;&gt;b33</title>
<path fill="none" stroke="black" d="M641.01,-304C668.25,-304 697.16,-304 717.56,-304"/>
<polygon fill="black" stroke="black" points="717.68,-307.5 727.68,-304 717.68,-300.5 717.68,-307.5"/>
</g>
<!-- b43 -->
<g id="node25" class="node">
<title>b43</title>
<ellipse fill="none" stroke="#ee0000" cx="745.99" cy="-250" rx="18" ry="18"/>
</g>
<!-- O&#45;&gt;b43 -->
<g id="edge112" class="edge">
<title>O&#45;&gt;b43</title>
<path fill="none" stroke="black" d="M611.55,-289.81C645.72,-279.62 690.54,-266.24 718.55,-257.89"/>
<polygon fill="black" stroke="black" points="719.82,-261.16 728.4,-254.95 717.82,-254.45 719.82,-261.16"/>
</g>
<!-- b53 -->
<g id="node26" class="node">
<title>b53</title>
<ellipse fill="none" stroke="#ee0000" cx="745.99" cy="-196" rx="18" ry="18"/>
</g>
<!-- O&#45;&gt;b53 -->
<g id="edge113" class="edge">
<title>O&#45;&gt;b53</title>
<path fill="none" stroke="black" d="M592.27,-287.12C627.75,-265.96 687.94,-230.04 721.17,-210.21"/>
<polygon fill="black" stroke="black" points="723.38,-212.97 730.17,-204.84 719.79,-206.96 723.38,-212.97"/>
</g>
<!-- c11 -->
<g id="node27" class="node">
<title>c11</title>
<ellipse fill="none" stroke="#ee9a00" cx="875.99" cy="-304" rx="18" ry="18"/>
</g>
<!-- b13&#45;&gt;c11 -->
<g id="edge114" class="edge">
<title>b13&#45;&gt;c11</title>
<path fill="none" stroke="black" d="M760.2,-400.85C782.33,-382.17 827.08,-344.42 853.7,-321.96"/>
<polygon fill="black" stroke="black" points="856.26,-324.38 861.65,-315.25 851.75,-319.03 856.26,-324.38"/>
</g>
<!-- b23&#45;&gt;c11 -->
<g id="edge115" class="edge">
<title>b23&#45;&gt;c11</title>
<path fill="none" stroke="black" d="M762.94,-351.27C784.71,-342.08 823.97,-325.52 849.75,-314.65"/>
<polygon fill="black" stroke="black" points="851.38,-317.76 859.23,-310.65 848.66,-311.31 851.38,-317.76"/>
</g>
<!-- b33&#45;&gt;c11 -->
<g id="edge116" class="edge">
<title>b33&#45;&gt;c11</title>
<path fill="none" stroke="black" d="M764.25,-304C785.62,-304 822.3,-304 847.54,-304"/>
<polygon fill="black" stroke="black" points="847.59,-307.5 857.59,-304 847.59,-300.5 847.59,-307.5"/>
</g>
<!-- b43&#45;&gt;c11 -->
<g id="edge117" class="edge">
<title>b43&#45;&gt;c11</title>
<path fill="none" stroke="black" d="M762.94,-256.73C784.71,-265.92 823.97,-282.48 849.75,-293.35"/>
<polygon fill="black" stroke="black" points="848.66,-296.69 859.23,-297.35 851.38,-290.24 848.66,-296.69"/>
</g>
<!-- b53&#45;&gt;c11 -->
<g id="edge118" class="edge">
<title>b53&#45;&gt;c11</title>
<path fill="none" stroke="black" d="M760.2,-207.15C782.33,-225.83 827.08,-263.58 853.7,-286.04"/>
<polygon fill="black" stroke="black" points="851.75,-288.97 861.65,-292.75 856.26,-283.62 851.75,-288.97"/>
</g>
</g>
</svg>
