<?xml version="1.0" encoding="UTF-8" standalone="no"?>
<!DOCTYPE svg PUBLIC "-//W3C//DTD SVG 1.1//EN"
 "http://www.w3.org/Graphics/SVG/1.1/DTD/svg11.dtd">
<!-- Generated by graphviz version 2.50.0 (0)
 -->
<!-- Title: G Pages: 1 -->
<svg width="1054pt" height="590pt"
 viewBox="0.00 0.00 1053.89 590.00" xmlns="http://www.w3.org/2000/svg" xmlns:xlink="http://www.w3.org/1999/xlink">
<g id="graph0" class="graph" transform="scale(1 1) rotate(0) translate(4 586)">
<title>G</title>
<polygon fill="white" stroke="transparent" points="-4,4 -4,-586 1049.89,-586 1049.89,4 -4,4"/>
<g id="clust1" class="cluster">
<title>cluster_0</title>
<polygon fill="none" stroke="white" points="29,-9 29,-574 309,-574 309,-9 29,-9"/>
<text text-anchor="middle" x="169" y="-556.4" font-family="Times,serif" font-size="17.00">Input and Normalization layer</text>
</g>
<g id="clust2" class="cluster">
<title>cluster_1</title>
<polygon fill="none" stroke="white" points="329,-26 329,-556 517,-556 517,-26 329,-26"/>
<text text-anchor="middle" x="423" y="-538.4" font-family="Times,serif" font-size="17.00">Layer 1 </text>
<text text-anchor="middle" x="423" y="-519.4" font-family="Times,serif" font-size="17.00"> m neurons ∈ [3,20]</text>
</g>
<g id="clust3" class="cluster">
<title>cluster_2</title>
<polygon fill="none" stroke="white" points="537,-242 537,-294 730.89,-294 730.89,-242 537,-242"/>
</g>
<g id="clust4" class="cluster">
<title>cluster_3</title>
<polygon fill="none" stroke="white" points="750.89,-134 750.89,-448 933.89,-448 933.89,-134 750.89,-134"/>
<text text-anchor="middle" x="842.39" y="-430.4" font-family="Times,serif" font-size="17.00">Layer 2 </text>
<text text-anchor="middle" x="842.39" y="-411.4" font-family="Times,serif" font-size="17.00"> n neurons ∈ [2,15]</text>
</g>
<g id="clust5" class="cluster">
<title>cluster_4</title>
<polygon fill="none" stroke="white" points="953.89,-242 953.89,-319 1045.89,-319 1045.89,-242 953.89,-242"/>
<text text-anchor="middle" x="999.89" y="-303" font-family="Times,serif" font-size="15.00">Thickness</text>
</g>
<!-- x2 -->
<g id="node1" class="node">
<title>x2</title>
<ellipse fill="none" stroke="#00008b" cx="169" cy="-305" rx="18" ry="18"/>
<text text-anchor="middle" x="132.5" y="-275" font-family="Times,serif" font-size="15.00">Area</text>
</g>
<!-- a12 -->
<g id="node11" class="node">
<title>a12</title>
<ellipse fill="none" stroke="#ee0000" cx="423" cy="-52" rx="18" ry="18"/>
</g>
<!-- x2&#45;&gt;a12 -->
<g id="edge10" class="edge">
<title>x2&#45;&gt;a12</title>
<path fill="none" stroke="black" d="M182.5,-292.45C223.32,-251.47 352.94,-121.33 402.49,-71.59"/>
<polygon fill="black" stroke="black" points="405.15,-73.88 409.73,-64.32 400.19,-68.94 405.15,-73.88"/>
</g>
<!-- a22 -->
<g id="node12" class="node">
<title>a22</title>
<ellipse fill="none" stroke="#ee0000" cx="423" cy="-484" rx="18" ry="18"/>
</g>
<!-- x2&#45;&gt;a22 -->
<g id="edge11" class="edge">
<title>x2&#45;&gt;a22</title>
<path fill="none" stroke="black" d="M184.27,-315.14C226.11,-344.86 348.73,-431.96 399.54,-468.05"/>
<polygon fill="black" stroke="black" points="397.71,-471.04 407.89,-473.97 401.76,-465.33 397.71,-471.04"/>
</g>
<!-- a32 -->
<g id="node13" class="node">
<title>a32</title>
<ellipse fill="none" stroke="#ee0000" cx="423" cy="-430" rx="18" ry="18"/>
</g>
<!-- x2&#45;&gt;a32 -->
<g id="edge12" class="edge">
<title>x2&#45;&gt;a32</title>
<path fill="none" stroke="black" d="M185.38,-312.63C227.65,-333.6 345.81,-392.21 397.39,-417.79"/>
<polygon fill="black" stroke="black" points="395.98,-421 406.5,-422.31 399.09,-414.73 395.98,-421"/>
</g>
<!-- a42 -->
<g id="node14" class="node">
<title>a42</title>
<ellipse fill="none" stroke="#ee0000" cx="423" cy="-376" rx="18" ry="18"/>
</g>
<!-- x2&#45;&gt;a42 -->
<g id="edge13" class="edge">
<title>x2&#45;&gt;a42</title>
<path fill="none" stroke="black" d="M186.53,-309.66C229.25,-321.69 343.58,-353.91 395.59,-368.56"/>
<polygon fill="black" stroke="black" points="394.83,-371.98 405.4,-371.32 396.73,-365.24 394.83,-371.98"/>
</g>
<!-- a52 -->
<g id="node15" class="node">
<title>a52</title>
<ellipse fill="none" stroke="#ee0000" cx="423" cy="-322" rx="18" ry="18"/>
</g>
<!-- x2&#45;&gt;a52 -->
<g id="edge14" class="edge">
<title>x2&#45;&gt;a52</title>
<path fill="none" stroke="black" d="M187.32,-306.17C230.4,-309.07 342.67,-316.65 394.74,-320.16"/>
<polygon fill="black" stroke="black" points="394.68,-323.66 404.89,-320.85 395.15,-316.68 394.68,-323.66"/>
</g>
<!-- a62 -->
<g id="node16" class="node">
<title>a62</title>
<ellipse fill="none" stroke="#ee0000" cx="423" cy="-268" rx="18" ry="18"/>
</g>
<!-- x2&#45;&gt;a62 -->
<g id="edge15" class="edge">
<title>x2&#45;&gt;a62</title>
<path fill="none" stroke="black" d="M186.93,-302.51C229.78,-296.22 342.88,-279.62 395,-271.96"/>
<polygon fill="black" stroke="black" points="395.76,-275.39 405.15,-270.47 394.75,-268.46 395.76,-275.39"/>
</g>
<!-- a72 -->
<g id="node17" class="node">
<title>a72</title>
<ellipse fill="none" stroke="#ee0000" cx="423" cy="-214" rx="18" ry="18"/>
</g>
<!-- x2&#45;&gt;a72 -->
<g id="edge16" class="edge">
<title>x2&#45;&gt;a72</title>
<path fill="none" stroke="black" d="M186.15,-299.17C228.72,-283.8 344.29,-242.06 396.17,-223.33"/>
<polygon fill="black" stroke="black" points="397.44,-226.59 405.66,-219.9 395.07,-220 397.44,-226.59"/>
</g>
<!-- a82 -->
<g id="node18" class="node">
<title>a82</title>
<ellipse fill="none" stroke="#ee0000" cx="423" cy="-160" rx="18" ry="18"/>
</g>
<!-- x2&#45;&gt;a82 -->
<g id="edge17" class="edge">
<title>x2&#45;&gt;a82</title>
<path fill="none" stroke="black" d="M185.01,-296.36C227.2,-272.09 347.12,-203.08 398.34,-173.61"/>
<polygon fill="black" stroke="black" points="400.15,-176.61 407.07,-168.59 396.66,-170.54 400.15,-176.61"/>
</g>
<!-- a92 -->
<g id="node19" class="node">
<title>a92</title>
<ellipse fill="none" stroke="#ee0000" cx="423" cy="-106" rx="18" ry="18"/>
</g>
<!-- x2&#45;&gt;a92 -->
<g id="edge18" class="edge">
<title>x2&#45;&gt;a92</title>
<path fill="none" stroke="black" d="M183.55,-294.3C224.91,-261.64 349.8,-163.01 400.38,-123.07"/>
<polygon fill="black" stroke="black" points="402.71,-125.7 408.38,-116.75 398.37,-120.2 402.71,-125.7"/>
</g>
<!-- x3 -->
<g id="node2" class="node">
<title>x3</title>
<ellipse fill="none" stroke="#00008b" cx="169" cy="-251" rx="18" ry="18"/>
<text text-anchor="middle" x="123.5" y="-221" font-family="Times,serif" font-size="15.00">Length</text>
</g>
<!-- x3&#45;&gt;a12 -->
<g id="edge19" class="edge">
<title>x3&#45;&gt;a12</title>
<path fill="none" stroke="black" d="M183.55,-240.3C224.91,-207.64 349.8,-109.01 400.38,-69.07"/>
<polygon fill="black" stroke="black" points="402.71,-71.7 408.38,-62.75 398.37,-66.2 402.71,-71.7"/>
</g>
<!-- x3&#45;&gt;a22 -->
<g id="edge20" class="edge">
<title>x3&#45;&gt;a22</title>
<path fill="none" stroke="black" d="M182.84,-262.87C223.79,-300.74 351.5,-418.82 401.57,-465.11"/>
<polygon fill="black" stroke="black" points="399.46,-467.93 409.18,-472.15 404.22,-462.79 399.46,-467.93"/>
</g>
<!-- x3&#45;&gt;a32 -->
<g id="edge21" class="edge">
<title>x3&#45;&gt;a32</title>
<path fill="none" stroke="black" d="M184.27,-261.14C226.11,-290.86 348.73,-377.96 399.54,-414.05"/>
<polygon fill="black" stroke="black" points="397.71,-417.04 407.89,-419.97 401.76,-411.33 397.71,-417.04"/>
</g>
<!-- x3&#45;&gt;a42 -->
<g id="edge22" class="edge">
<title>x3&#45;&gt;a42</title>
<path fill="none" stroke="black" d="M185.38,-258.63C227.65,-279.6 345.81,-338.21 397.39,-363.79"/>
<polygon fill="black" stroke="black" points="395.98,-367 406.5,-368.31 399.09,-360.73 395.98,-367"/>
</g>
<!-- x3&#45;&gt;a52 -->
<g id="edge23" class="edge">
<title>x3&#45;&gt;a52</title>
<path fill="none" stroke="black" d="M186.53,-255.66C229.25,-267.69 343.58,-299.91 395.59,-314.56"/>
<polygon fill="black" stroke="black" points="394.83,-317.98 405.4,-317.32 396.73,-311.24 394.83,-317.98"/>
</g>
<!-- x3&#45;&gt;a62 -->
<g id="edge24" class="edge">
<title>x3&#45;&gt;a62</title>
<path fill="none" stroke="black" d="M187.32,-252.17C230.4,-255.07 342.67,-262.65 394.74,-266.16"/>
<polygon fill="black" stroke="black" points="394.68,-269.66 404.89,-266.85 395.15,-262.68 394.68,-269.66"/>
</g>
<!-- x3&#45;&gt;a72 -->
<g id="edge25" class="edge">
<title>x3&#45;&gt;a72</title>
<path fill="none" stroke="black" d="M186.93,-248.51C229.78,-242.22 342.88,-225.62 395,-217.96"/>
<polygon fill="black" stroke="black" points="395.76,-221.39 405.15,-216.47 394.75,-214.46 395.76,-221.39"/>
</g>
<!-- x3&#45;&gt;a82 -->
<g id="edge26" class="edge">
<title>x3&#45;&gt;a82</title>
<path fill="none" stroke="black" d="M186.15,-245.17C228.72,-229.8 344.29,-188.06 396.17,-169.33"/>
<polygon fill="black" stroke="black" points="397.44,-172.59 405.66,-165.9 395.07,-166 397.44,-172.59"/>
</g>
<!-- x3&#45;&gt;a92 -->
<g id="edge27" class="edge">
<title>x3&#45;&gt;a92</title>
<path fill="none" stroke="black" d="M185.01,-242.36C227.2,-218.09 347.12,-149.08 398.34,-119.61"/>
<polygon fill="black" stroke="black" points="400.15,-122.61 407.07,-114.59 396.66,-116.54 400.15,-122.61"/>
</g>
<!-- x5 -->
<g id="node3" class="node">
<title>x5</title>
<ellipse fill="none" stroke="#00008b" cx="169" cy="-197" rx="18" ry="18"/>
<text text-anchor="middle" x="77" y="-167" font-family="Times,serif" font-size="15.00">Elevation Minimum</text>
</g>
<!-- x5&#45;&gt;a12 -->
<g id="edge37" class="edge">
<title>x5&#45;&gt;a12</title>
<path fill="none" stroke="black" d="M185.01,-188.36C227.2,-164.09 347.12,-95.08 398.34,-65.61"/>
<polygon fill="black" stroke="black" points="400.15,-68.61 407.07,-60.59 396.66,-62.54 400.15,-68.61"/>
</g>
<!-- x5&#45;&gt;a22 -->
<g id="edge38" class="edge">
<title>x5&#45;&gt;a22</title>
<path fill="none" stroke="black" d="M181.48,-210.08C221.41,-255.55 354.45,-407.07 403.57,-463.01"/>
<polygon fill="black" stroke="black" points="401.22,-465.64 410.45,-470.85 406.48,-461.02 401.22,-465.64"/>
</g>
<!-- x5&#45;&gt;a32 -->
<g id="edge39" class="edge">
<title>x5&#45;&gt;a32</title>
<path fill="none" stroke="black" d="M182.84,-208.87C223.79,-246.74 351.5,-364.82 401.57,-411.11"/>
<polygon fill="black" stroke="black" points="399.46,-413.93 409.18,-418.15 404.22,-408.79 399.46,-413.93"/>
</g>
<!-- x5&#45;&gt;a42 -->
<g id="edge40" class="edge">
<title>x5&#45;&gt;a42</title>
<path fill="none" stroke="black" d="M184.27,-207.14C226.11,-236.86 348.73,-323.96 399.54,-360.05"/>
<polygon fill="black" stroke="black" points="397.71,-363.04 407.89,-365.97 401.76,-357.33 397.71,-363.04"/>
</g>
<!-- x5&#45;&gt;a52 -->
<g id="edge41" class="edge">
<title>x5&#45;&gt;a52</title>
<path fill="none" stroke="black" d="M185.38,-204.63C227.65,-225.6 345.81,-284.21 397.39,-309.79"/>
<polygon fill="black" stroke="black" points="395.98,-313 406.5,-314.31 399.09,-306.73 395.98,-313"/>
</g>
<!-- x5&#45;&gt;a62 -->
<g id="edge42" class="edge">
<title>x5&#45;&gt;a62</title>
<path fill="none" stroke="black" d="M186.53,-201.66C229.25,-213.69 343.58,-245.91 395.59,-260.56"/>
<polygon fill="black" stroke="black" points="394.83,-263.98 405.4,-263.32 396.73,-257.24 394.83,-263.98"/>
</g>
<!-- x5&#45;&gt;a72 -->
<g id="edge43" class="edge">
<title>x5&#45;&gt;a72</title>
<path fill="none" stroke="black" d="M187.32,-198.17C230.4,-201.07 342.67,-208.65 394.74,-212.16"/>
<polygon fill="black" stroke="black" points="394.68,-215.66 404.89,-212.85 395.15,-208.68 394.68,-215.66"/>
</g>
<!-- x5&#45;&gt;a82 -->
<g id="edge44" class="edge">
<title>x5&#45;&gt;a82</title>
<path fill="none" stroke="black" d="M186.93,-194.51C229.78,-188.22 342.88,-171.62 395,-163.96"/>
<polygon fill="black" stroke="black" points="395.76,-167.39 405.15,-162.47 394.75,-160.46 395.76,-167.39"/>
</g>
<!-- x5&#45;&gt;a92 -->
<g id="edge45" class="edge">
<title>x5&#45;&gt;a92</title>
<path fill="none" stroke="black" d="M186.15,-191.17C228.72,-175.8 344.29,-134.06 396.17,-115.33"/>
<polygon fill="black" stroke="black" points="397.44,-118.59 405.66,-111.9 395.07,-112 397.44,-118.59"/>
</g>
<!-- x6 -->
<g id="node4" class="node">
<title>x6</title>
<ellipse fill="none" stroke="#00008b" cx="169" cy="-143" rx="18" ry="18"/>
<text text-anchor="middle" x="84.5" y="-113" font-family="Times,serif" font-size="15.00">Elevation Median</text>
</g>
<!-- x6&#45;&gt;a12 -->
<g id="edge46" class="edge">
<title>x6&#45;&gt;a12</title>
<path fill="none" stroke="black" d="M186.15,-137.17C228.72,-121.8 344.29,-80.06 396.17,-61.33"/>
<polygon fill="black" stroke="black" points="397.44,-64.59 405.66,-57.9 395.07,-58 397.44,-64.59"/>
</g>
<!-- x6&#45;&gt;a22 -->
<g id="edge47" class="edge">
<title>x6&#45;&gt;a22</title>
<path fill="none" stroke="black" d="M180.51,-157.22C219.65,-210.19 357.22,-396.35 405.28,-461.38"/>
<polygon fill="black" stroke="black" points="402.69,-463.76 411.45,-469.72 408.32,-459.6 402.69,-463.76"/>
</g>
<!-- x6&#45;&gt;a32 -->
<g id="edge48" class="edge">
<title>x6&#45;&gt;a32</title>
<path fill="none" stroke="black" d="M181.48,-156.08C221.41,-201.55 354.45,-353.07 403.57,-409.01"/>
<polygon fill="black" stroke="black" points="401.22,-411.64 410.45,-416.85 406.48,-407.02 401.22,-411.64"/>
</g>
<!-- x6&#45;&gt;a42 -->
<g id="edge49" class="edge">
<title>x6&#45;&gt;a42</title>
<path fill="none" stroke="black" d="M182.84,-154.87C223.79,-192.74 351.5,-310.82 401.57,-357.11"/>
<polygon fill="black" stroke="black" points="399.46,-359.93 409.18,-364.15 404.22,-354.79 399.46,-359.93"/>
</g>
<!-- x6&#45;&gt;a52 -->
<g id="edge50" class="edge">
<title>x6&#45;&gt;a52</title>
<path fill="none" stroke="black" d="M184.27,-153.14C226.11,-182.86 348.73,-269.96 399.54,-306.05"/>
<polygon fill="black" stroke="black" points="397.71,-309.04 407.89,-311.97 401.76,-303.33 397.71,-309.04"/>
</g>
<!-- x6&#45;&gt;a62 -->
<g id="edge51" class="edge">
<title>x6&#45;&gt;a62</title>
<path fill="none" stroke="black" d="M185.38,-150.63C227.65,-171.6 345.81,-230.21 397.39,-255.79"/>
<polygon fill="black" stroke="black" points="395.98,-259 406.5,-260.31 399.09,-252.73 395.98,-259"/>
</g>
<!-- x6&#45;&gt;a72 -->
<g id="edge52" class="edge">
<title>x6&#45;&gt;a72</title>
<path fill="none" stroke="black" d="M186.53,-147.66C229.25,-159.69 343.58,-191.91 395.59,-206.56"/>
<polygon fill="black" stroke="black" points="394.83,-209.98 405.4,-209.32 396.73,-203.24 394.83,-209.98"/>
</g>
<!-- x6&#45;&gt;a82 -->
<g id="edge53" class="edge">
<title>x6&#45;&gt;a82</title>
<path fill="none" stroke="black" d="M187.32,-144.17C230.4,-147.07 342.67,-154.65 394.74,-158.16"/>
<polygon fill="black" stroke="black" points="394.68,-161.66 404.89,-158.85 395.15,-154.68 394.68,-161.66"/>
</g>
<!-- x6&#45;&gt;a92 -->
<g id="edge54" class="edge">
<title>x6&#45;&gt;a92</title>
<path fill="none" stroke="black" d="M186.93,-140.51C229.78,-134.22 342.88,-117.62 395,-109.96"/>
<polygon fill="black" stroke="black" points="395.76,-113.39 405.15,-108.47 394.75,-106.46 395.76,-113.39"/>
</g>
<!-- x7 -->
<g id="node5" class="node">
<title>x7</title>
<ellipse fill="none" stroke="#00008b" cx="169" cy="-89" rx="18" ry="18"/>
<text text-anchor="middle" x="75.5" y="-59" font-family="Times,serif" font-size="15.00">Elevation Maximum</text>
</g>
<!-- x7&#45;&gt;a12 -->
<g id="edge55" class="edge">
<title>x7&#45;&gt;a12</title>
<path fill="none" stroke="black" d="M186.93,-86.51C229.78,-80.22 342.88,-63.62 395,-55.96"/>
<polygon fill="black" stroke="black" points="395.76,-59.39 405.15,-54.47 394.75,-52.46 395.76,-59.39"/>
</g>
<!-- x7&#45;&gt;a22 -->
<g id="edge56" class="edge">
<title>x7&#45;&gt;a22</title>
<path fill="none" stroke="black" d="M179.57,-104C217.85,-164 360.12,-387.01 406.95,-460.41"/>
<polygon fill="black" stroke="black" points="404.09,-462.43 412.42,-468.98 409.99,-458.67 404.09,-462.43"/>
</g>
<!-- x7&#45;&gt;a32 -->
<g id="edge57" class="edge">
<title>x7&#45;&gt;a32</title>
<path fill="none" stroke="black" d="M180.51,-103.22C219.65,-156.19 357.22,-342.35 405.28,-407.38"/>
<polygon fill="black" stroke="black" points="402.69,-409.76 411.45,-415.72 408.32,-405.6 402.69,-409.76"/>
</g>
<!-- x7&#45;&gt;a42 -->
<g id="edge58" class="edge">
<title>x7&#45;&gt;a42</title>
<path fill="none" stroke="black" d="M181.48,-102.08C221.41,-147.55 354.45,-299.07 403.57,-355.01"/>
<polygon fill="black" stroke="black" points="401.22,-357.64 410.45,-362.85 406.48,-353.02 401.22,-357.64"/>
</g>
<!-- x7&#45;&gt;a52 -->
<g id="edge59" class="edge">
<title>x7&#45;&gt;a52</title>
<path fill="none" stroke="black" d="M182.84,-100.87C223.79,-138.74 351.5,-256.82 401.57,-303.11"/>
<polygon fill="black" stroke="black" points="399.46,-305.93 409.18,-310.15 404.22,-300.79 399.46,-305.93"/>
</g>
<!-- x7&#45;&gt;a62 -->
<g id="edge60" class="edge">
<title>x7&#45;&gt;a62</title>
<path fill="none" stroke="black" d="M184.27,-99.14C226.11,-128.86 348.73,-215.96 399.54,-252.05"/>
<polygon fill="black" stroke="black" points="397.71,-255.04 407.89,-257.97 401.76,-249.33 397.71,-255.04"/>
</g>
<!-- x7&#45;&gt;a72 -->
<g id="edge61" class="edge">
<title>x7&#45;&gt;a72</title>
<path fill="none" stroke="black" d="M185.38,-96.63C227.65,-117.6 345.81,-176.21 397.39,-201.79"/>
<polygon fill="black" stroke="black" points="395.98,-205 406.5,-206.31 399.09,-198.73 395.98,-205"/>
</g>
<!-- x7&#45;&gt;a82 -->
<g id="edge62" class="edge">
<title>x7&#45;&gt;a82</title>
<path fill="none" stroke="black" d="M186.53,-93.66C229.25,-105.69 343.58,-137.91 395.59,-152.56"/>
<polygon fill="black" stroke="black" points="394.83,-155.98 405.4,-155.32 396.73,-149.24 394.83,-155.98"/>
</g>
<!-- x7&#45;&gt;a92 -->
<g id="edge63" class="edge">
<title>x7&#45;&gt;a92</title>
<path fill="none" stroke="black" d="M187.32,-90.17C230.4,-93.07 342.67,-100.65 394.74,-104.16"/>
<polygon fill="black" stroke="black" points="394.68,-107.66 404.89,-104.85 395.15,-100.68 394.68,-107.66"/>
</g>
<!-- x8 -->
<g id="node6" class="node">
<title>x8</title>
<ellipse fill="none" stroke="#00008b" cx="169" cy="-35" rx="18" ry="18"/>
<text text-anchor="middle" x="83.5" y="-5" font-family="Times,serif" font-size="15.00">Elevation Change</text>
</g>
<!-- x8&#45;&gt;a12 -->
<g id="edge64" class="edge">
<title>x8&#45;&gt;a12</title>
<path fill="none" stroke="black" d="M187.32,-36.17C230.4,-39.07 342.67,-46.65 394.74,-50.16"/>
<polygon fill="black" stroke="black" points="394.68,-53.66 404.89,-50.85 395.15,-46.68 394.68,-53.66"/>
</g>
<!-- x8&#45;&gt;a22 -->
<g id="edge65" class="edge">
<title>x8&#45;&gt;a22</title>
<path fill="none" stroke="black" d="M178.67,-50.46C215.93,-116.84 362.56,-378.1 408.3,-459.59"/>
<polygon fill="black" stroke="black" points="405.42,-461.6 413.36,-468.61 411.52,-458.18 405.42,-461.6"/>
</g>
<!-- x8&#45;&gt;a32 -->
<g id="edge66" class="edge">
<title>x8&#45;&gt;a32</title>
<path fill="none" stroke="black" d="M179.57,-50C217.85,-110 360.12,-333.01 406.95,-406.41"/>
<polygon fill="black" stroke="black" points="404.09,-408.43 412.42,-414.98 409.99,-404.67 404.09,-408.43"/>
</g>
<!-- x8&#45;&gt;a42 -->
<g id="edge67" class="edge">
<title>x8&#45;&gt;a42</title>
<path fill="none" stroke="black" d="M180.51,-49.22C219.65,-102.19 357.22,-288.35 405.28,-353.38"/>
<polygon fill="black" stroke="black" points="402.69,-355.76 411.45,-361.72 408.32,-351.6 402.69,-355.76"/>
</g>
<!-- x8&#45;&gt;a52 -->
<g id="edge68" class="edge">
<title>x8&#45;&gt;a52</title>
<path fill="none" stroke="black" d="M181.48,-48.08C221.41,-93.55 354.45,-245.07 403.57,-301.01"/>
<polygon fill="black" stroke="black" points="401.22,-303.64 410.45,-308.85 406.48,-299.02 401.22,-303.64"/>
</g>
<!-- x8&#45;&gt;a62 -->
<g id="edge69" class="edge">
<title>x8&#45;&gt;a62</title>
<path fill="none" stroke="black" d="M182.84,-46.87C223.79,-84.74 351.5,-202.82 401.57,-249.11"/>
<polygon fill="black" stroke="black" points="399.46,-251.93 409.18,-256.15 404.22,-246.79 399.46,-251.93"/>
</g>
<!-- x8&#45;&gt;a72 -->
<g id="edge70" class="edge">
<title>x8&#45;&gt;a72</title>
<path fill="none" stroke="black" d="M184.27,-45.14C226.11,-74.86 348.73,-161.96 399.54,-198.05"/>
<polygon fill="black" stroke="black" points="397.71,-201.04 407.89,-203.97 401.76,-195.33 397.71,-201.04"/>
</g>
<!-- x8&#45;&gt;a82 -->
<g id="edge71" class="edge">
<title>x8&#45;&gt;a82</title>
<path fill="none" stroke="black" d="M185.38,-42.63C227.65,-63.6 345.81,-122.21 397.39,-147.79"/>
<polygon fill="black" stroke="black" points="395.98,-151 406.5,-152.31 399.09,-144.73 395.98,-151"/>
</g>
<!-- x8&#45;&gt;a92 -->
<g id="edge72" class="edge">
<title>x8&#45;&gt;a92</title>
<path fill="none" stroke="black" d="M186.53,-39.66C229.25,-51.69 343.58,-83.91 395.59,-98.56"/>
<polygon fill="black" stroke="black" points="394.83,-101.98 405.4,-101.32 396.73,-95.24 394.83,-101.98"/>
</g>
<!-- x1 -->
<g id="node7" class="node">
<title>x1</title>
<ellipse fill="none" stroke="#00008b" cx="169" cy="-521" rx="18" ry="18"/>
<text text-anchor="middle" x="129.5" y="-491" font-family="Times,serif" font-size="15.00">Slope</text>
</g>
<!-- x1&#45;&gt;a12 -->
<g id="edge1" class="edge">
<title>x1&#45;&gt;a12</title>
<path fill="none" stroke="black" d="M178.38,-505.4C215.31,-436.68 363.58,-160.73 408.82,-76.52"/>
<polygon fill="black" stroke="black" points="411.93,-78.13 413.58,-67.66 405.77,-74.82 411.93,-78.13"/>
</g>
<!-- x1&#45;&gt;a22 -->
<g id="edge2" class="edge">
<title>x1&#45;&gt;a22</title>
<path fill="none" stroke="black" d="M186.93,-518.51C229.78,-512.22 342.88,-495.62 395,-487.96"/>
<polygon fill="black" stroke="black" points="395.76,-491.39 405.15,-486.47 394.75,-484.46 395.76,-491.39"/>
</g>
<!-- x1&#45;&gt;a32 -->
<g id="edge3" class="edge">
<title>x1&#45;&gt;a32</title>
<path fill="none" stroke="black" d="M186.15,-515.17C228.72,-499.8 344.29,-458.06 396.17,-439.33"/>
<polygon fill="black" stroke="black" points="397.44,-442.59 405.66,-435.9 395.07,-436 397.44,-442.59"/>
</g>
<!-- x1&#45;&gt;a42 -->
<g id="edge4" class="edge">
<title>x1&#45;&gt;a42</title>
<path fill="none" stroke="black" d="M185.01,-512.36C227.2,-488.09 347.12,-419.08 398.34,-389.61"/>
<polygon fill="black" stroke="black" points="400.15,-392.61 407.07,-384.59 396.66,-386.54 400.15,-392.61"/>
</g>
<!-- x1&#45;&gt;a52 -->
<g id="edge5" class="edge">
<title>x1&#45;&gt;a52</title>
<path fill="none" stroke="black" d="M183.55,-510.3C224.91,-477.64 349.8,-379.01 400.38,-339.07"/>
<polygon fill="black" stroke="black" points="402.71,-341.7 408.38,-332.75 398.37,-336.2 402.71,-341.7"/>
</g>
<!-- x1&#45;&gt;a62 -->
<g id="edge6" class="edge">
<title>x1&#45;&gt;a62</title>
<path fill="none" stroke="black" d="M182.5,-508.45C223.32,-467.47 352.94,-337.33 402.49,-287.59"/>
<polygon fill="black" stroke="black" points="405.15,-289.88 409.73,-280.32 400.19,-284.94 405.15,-289.88"/>
</g>
<!-- x1&#45;&gt;a72 -->
<g id="edge7" class="edge">
<title>x1&#45;&gt;a72</title>
<path fill="none" stroke="black" d="M181.15,-507.41C220.92,-458.97 355.96,-294.46 404.47,-235.36"/>
<polygon fill="black" stroke="black" points="407.34,-237.38 410.98,-227.43 401.93,-232.94 407.34,-237.38"/>
</g>
<!-- x1&#45;&gt;a82 -->
<g id="edge8" class="edge">
<title>x1&#45;&gt;a82</title>
<path fill="none" stroke="black" d="M180.19,-506.4C219.14,-450.6 358.79,-250.56 406.15,-182.7"/>
<polygon fill="black" stroke="black" points="409.1,-184.59 411.96,-174.38 403.36,-180.58 409.1,-184.59"/>
</g>
<!-- x1&#45;&gt;a92 -->
<g id="edge9" class="edge">
<title>x1&#45;&gt;a92</title>
<path fill="none" stroke="black" d="M179.27,-505.74C217.25,-443.19 361.16,-206.19 407.52,-129.85"/>
<polygon fill="black" stroke="black" points="410.72,-131.33 412.91,-120.96 404.73,-127.69 410.72,-131.33"/>
</g>
<!-- x4 -->
<g id="node8" class="node">
<title>x4</title>
<ellipse fill="none" stroke="#00008b" cx="169" cy="-467" rx="18" ry="18"/>
<text text-anchor="middle" x="125" y="-437" font-family="Times,serif" font-size="15.00">Aspect</text>
</g>
<!-- x4&#45;&gt;a12 -->
<g id="edge28" class="edge">
<title>x4&#45;&gt;a12</title>
<path fill="none" stroke="black" d="M179.27,-451.74C217.25,-389.19 361.16,-152.19 407.52,-75.85"/>
<polygon fill="black" stroke="black" points="410.72,-77.33 412.91,-66.96 404.73,-73.69 410.72,-77.33"/>
</g>
<!-- x4&#45;&gt;a22 -->
<g id="edge29" class="edge">
<title>x4&#45;&gt;a22</title>
<path fill="none" stroke="black" d="M187.32,-468.17C230.4,-471.07 342.67,-478.65 394.74,-482.16"/>
<polygon fill="black" stroke="black" points="394.68,-485.66 404.89,-482.85 395.15,-478.68 394.68,-485.66"/>
</g>
<!-- x4&#45;&gt;a32 -->
<g id="edge30" class="edge">
<title>x4&#45;&gt;a32</title>
<path fill="none" stroke="black" d="M186.93,-464.51C229.78,-458.22 342.88,-441.62 395,-433.96"/>
<polygon fill="black" stroke="black" points="395.76,-437.39 405.15,-432.47 394.75,-430.46 395.76,-437.39"/>
</g>
<!-- x4&#45;&gt;a42 -->
<g id="edge31" class="edge">
<title>x4&#45;&gt;a42</title>
<path fill="none" stroke="black" d="M186.15,-461.17C228.72,-445.8 344.29,-404.06 396.17,-385.33"/>
<polygon fill="black" stroke="black" points="397.44,-388.59 405.66,-381.9 395.07,-382 397.44,-388.59"/>
</g>
<!-- x4&#45;&gt;a52 -->
<g id="edge32" class="edge">
<title>x4&#45;&gt;a52</title>
<path fill="none" stroke="black" d="M185.01,-458.36C227.2,-434.09 347.12,-365.08 398.34,-335.61"/>
<polygon fill="black" stroke="black" points="400.15,-338.61 407.07,-330.59 396.66,-332.54 400.15,-338.61"/>
</g>
<!-- x4&#45;&gt;a62 -->
<g id="edge33" class="edge">
<title>x4&#45;&gt;a62</title>
<path fill="none" stroke="black" d="M183.55,-456.3C224.91,-423.64 349.8,-325.01 400.38,-285.07"/>
<polygon fill="black" stroke="black" points="402.71,-287.7 408.38,-278.75 398.37,-282.2 402.71,-287.7"/>
</g>
<!-- x4&#45;&gt;a72 -->
<g id="edge34" class="edge">
<title>x4&#45;&gt;a72</title>
<path fill="none" stroke="black" d="M182.5,-454.45C223.32,-413.47 352.94,-283.33 402.49,-233.59"/>
<polygon fill="black" stroke="black" points="405.15,-235.88 409.73,-226.32 400.19,-230.94 405.15,-235.88"/>
</g>
<!-- x4&#45;&gt;a82 -->
<g id="edge35" class="edge">
<title>x4&#45;&gt;a82</title>
<path fill="none" stroke="black" d="M181.15,-453.41C220.92,-404.97 355.96,-240.46 404.47,-181.36"/>
<polygon fill="black" stroke="black" points="407.34,-183.38 410.98,-173.43 401.93,-178.94 407.34,-183.38"/>
</g>
<!-- x4&#45;&gt;a92 -->
<g id="edge36" class="edge">
<title>x4&#45;&gt;a92</title>
<path fill="none" stroke="black" d="M180.19,-452.4C219.14,-396.6 358.79,-196.56 406.15,-128.7"/>
<polygon fill="black" stroke="black" points="409.1,-130.59 411.96,-120.38 403.36,-126.58 409.1,-130.59"/>
</g>
<!-- x9 -->
<g id="node9" class="node">
<title>x9</title>
<ellipse fill="none" stroke="#00008b" cx="169" cy="-413" rx="18" ry="18"/>
<text text-anchor="middle" x="119" y="-383" font-family="Times,serif" font-size="15.00">Latitude</text>
</g>
<!-- x9&#45;&gt;a12 -->
<g id="edge73" class="edge">
<title>x9&#45;&gt;a12</title>
<path fill="none" stroke="black" d="M180.19,-398.4C219.14,-342.6 358.79,-142.56 406.15,-74.7"/>
<polygon fill="black" stroke="black" points="409.1,-76.59 411.96,-66.38 403.36,-72.58 409.1,-76.59"/>
</g>
<!-- x9&#45;&gt;a22 -->
<g id="edge74" class="edge">
<title>x9&#45;&gt;a22</title>
<path fill="none" stroke="black" d="M186.53,-417.66C229.25,-429.69 343.58,-461.91 395.59,-476.56"/>
<polygon fill="black" stroke="black" points="394.83,-479.98 405.4,-479.32 396.73,-473.24 394.83,-479.98"/>
</g>
<!-- x9&#45;&gt;a32 -->
<g id="edge75" class="edge">
<title>x9&#45;&gt;a32</title>
<path fill="none" stroke="black" d="M187.32,-414.17C230.4,-417.07 342.67,-424.65 394.74,-428.16"/>
<polygon fill="black" stroke="black" points="394.68,-431.66 404.89,-428.85 395.15,-424.68 394.68,-431.66"/>
</g>
<!-- x9&#45;&gt;a42 -->
<g id="edge76" class="edge">
<title>x9&#45;&gt;a42</title>
<path fill="none" stroke="black" d="M186.93,-410.51C229.78,-404.22 342.88,-387.62 395,-379.96"/>
<polygon fill="black" stroke="black" points="395.76,-383.39 405.15,-378.47 394.75,-376.46 395.76,-383.39"/>
</g>
<!-- x9&#45;&gt;a52 -->
<g id="edge77" class="edge">
<title>x9&#45;&gt;a52</title>
<path fill="none" stroke="black" d="M186.15,-407.17C228.72,-391.8 344.29,-350.06 396.17,-331.33"/>
<polygon fill="black" stroke="black" points="397.44,-334.59 405.66,-327.9 395.07,-328 397.44,-334.59"/>
</g>
<!-- x9&#45;&gt;a62 -->
<g id="edge78" class="edge">
<title>x9&#45;&gt;a62</title>
<path fill="none" stroke="black" d="M185.01,-404.36C227.2,-380.09 347.12,-311.08 398.34,-281.61"/>
<polygon fill="black" stroke="black" points="400.15,-284.61 407.07,-276.59 396.66,-278.54 400.15,-284.61"/>
</g>
<!-- x9&#45;&gt;a72 -->
<g id="edge79" class="edge">
<title>x9&#45;&gt;a72</title>
<path fill="none" stroke="black" d="M183.55,-402.3C224.91,-369.64 349.8,-271.01 400.38,-231.07"/>
<polygon fill="black" stroke="black" points="402.71,-233.7 408.38,-224.75 398.37,-228.2 402.71,-233.7"/>
</g>
<!-- x9&#45;&gt;a82 -->
<g id="edge80" class="edge">
<title>x9&#45;&gt;a82</title>
<path fill="none" stroke="black" d="M182.5,-400.45C223.32,-359.47 352.94,-229.33 402.49,-179.59"/>
<polygon fill="black" stroke="black" points="405.15,-181.88 409.73,-172.32 400.19,-176.94 405.15,-181.88"/>
</g>
<!-- x9&#45;&gt;a92 -->
<g id="edge81" class="edge">
<title>x9&#45;&gt;a92</title>
<path fill="none" stroke="black" d="M181.15,-399.41C220.92,-350.97 355.96,-186.46 404.47,-127.36"/>
<polygon fill="black" stroke="black" points="407.34,-129.38 410.98,-119.43 401.93,-124.94 407.34,-129.38"/>
</g>
<!-- x10 -->
<g id="node10" class="node">
<title>x10</title>
<ellipse fill="none" stroke="#00008b" cx="169" cy="-359" rx="18" ry="18"/>
<text text-anchor="middle" x="112" y="-329" font-family="Times,serif" font-size="15.00">Longitude</text>
</g>
<!-- x10&#45;&gt;a12 -->
<g id="edge82" class="edge">
<title>x10&#45;&gt;a12</title>
<path fill="none" stroke="black" d="M181.15,-345.41C220.92,-296.97 355.96,-132.46 404.47,-73.36"/>
<polygon fill="black" stroke="black" points="407.34,-75.38 410.98,-65.43 401.93,-70.94 407.34,-75.38"/>
</g>
<!-- x10&#45;&gt;a22 -->
<g id="edge83" class="edge">
<title>x10&#45;&gt;a22</title>
<path fill="none" stroke="black" d="M185.38,-366.63C227.65,-387.6 345.81,-446.21 397.39,-471.79"/>
<polygon fill="black" stroke="black" points="395.98,-475 406.5,-476.31 399.09,-468.73 395.98,-475"/>
</g>
<!-- x10&#45;&gt;a32 -->
<g id="edge84" class="edge">
<title>x10&#45;&gt;a32</title>
<path fill="none" stroke="black" d="M186.53,-363.66C229.25,-375.69 343.58,-407.91 395.59,-422.56"/>
<polygon fill="black" stroke="black" points="394.83,-425.98 405.4,-425.32 396.73,-419.24 394.83,-425.98"/>
</g>
<!-- x10&#45;&gt;a42 -->
<g id="edge85" class="edge">
<title>x10&#45;&gt;a42</title>
<path fill="none" stroke="black" d="M187.32,-360.17C230.4,-363.07 342.67,-370.65 394.74,-374.16"/>
<polygon fill="black" stroke="black" points="394.68,-377.66 404.89,-374.85 395.15,-370.68 394.68,-377.66"/>
</g>
<!-- x10&#45;&gt;a52 -->
<g id="edge86" class="edge">
<title>x10&#45;&gt;a52</title>
<path fill="none" stroke="black" d="M186.93,-356.51C229.78,-350.22 342.88,-333.62 395,-325.96"/>
<polygon fill="black" stroke="black" points="395.76,-329.39 405.15,-324.47 394.75,-322.46 395.76,-329.39"/>
</g>
<!-- x10&#45;&gt;a62 -->
<g id="edge87" class="edge">
<title>x10&#45;&gt;a62</title>
<path fill="none" stroke="black" d="M186.15,-353.17C228.72,-337.8 344.29,-296.06 396.17,-277.33"/>
<polygon fill="black" stroke="black" points="397.44,-280.59 405.66,-273.9 395.07,-274 397.44,-280.59"/>
</g>
<!-- x10&#45;&gt;a72 -->
<g id="edge88" class="edge">
<title>x10&#45;&gt;a72</title>
<path fill="none" stroke="black" d="M185.01,-350.36C227.2,-326.09 347.12,-257.08 398.34,-227.61"/>
<polygon fill="black" stroke="black" points="400.15,-230.61 407.07,-222.59 396.66,-224.54 400.15,-230.61"/>
</g>
<!-- x10&#45;&gt;a82 -->
<g id="edge89" class="edge">
<title>x10&#45;&gt;a82</title>
<path fill="none" stroke="black" d="M183.55,-348.3C224.91,-315.64 349.8,-217.01 400.38,-177.07"/>
<polygon fill="black" stroke="black" points="402.71,-179.7 408.38,-170.75 398.37,-174.2 402.71,-179.7"/>
</g>
<!-- x10&#45;&gt;a92 -->
<g id="edge90" class="edge">
<title>x10&#45;&gt;a92</title>
<path fill="none" stroke="black" d="M182.5,-346.45C223.32,-305.47 352.94,-175.33 402.49,-125.59"/>
<polygon fill="black" stroke="black" points="405.15,-127.88 409.73,-118.32 400.19,-122.94 405.15,-127.88"/>
</g>
<!-- O -->
<g id="node20" class="node">
<title>O</title>
<ellipse fill="none" stroke="#4eee94" cx="633.94" cy="-268" rx="88.89" ry="18"/>
<text text-anchor="middle" x="633.94" y="-264.5" font-family="Times,serif" font-size="15.00">Dropout Layer</text>
</g>
<!-- a12&#45;&gt;O -->
<g id="edge91" class="edge">
<title>a12&#45;&gt;O</title>
<path fill="none" stroke="black" d="M436.14,-64.55C469.63,-99.17 563.85,-196.58 608.67,-242.91"/>
<polygon fill="black" stroke="black" points="606.21,-245.4 615.68,-250.15 611.24,-240.53 606.21,-245.4"/>
</g>
<!-- a22&#45;&gt;O -->
<g id="edge92" class="edge">
<title>a22&#45;&gt;O</title>
<path fill="none" stroke="black" d="M436.14,-471.45C469.63,-436.83 563.85,-339.42 608.67,-293.09"/>
<polygon fill="black" stroke="black" points="611.24,-295.47 615.68,-285.85 606.21,-290.6 611.24,-295.47"/>
</g>
<!-- a32&#45;&gt;O -->
<g id="edge93" class="edge">
<title>a32&#45;&gt;O</title>
<path fill="none" stroke="black" d="M437.71,-419.37C470.87,-393.66 556.08,-327.59 602.2,-291.84"/>
<polygon fill="black" stroke="black" points="604.58,-294.42 610.34,-285.53 600.29,-288.89 604.58,-294.42"/>
</g>
<!-- a42&#45;&gt;O -->
<g id="edge94" class="edge">
<title>a42&#45;&gt;O</title>
<path fill="none" stroke="black" d="M439.36,-368.06C471.08,-351.66 544.75,-313.59 591.51,-289.42"/>
<polygon fill="black" stroke="black" points="593.2,-292.48 600.48,-284.78 589.99,-286.26 593.2,-292.48"/>
</g>
<!-- a52&#45;&gt;O -->
<g id="edge95" class="edge">
<title>a52&#45;&gt;O</title>
<path fill="none" stroke="black" d="M440.75,-317.67C468.11,-310.6 523.83,-296.2 568.26,-284.72"/>
<polygon fill="black" stroke="black" points="569.33,-288.06 578.13,-282.17 567.57,-281.28 569.33,-288.06"/>
</g>
<!-- a62&#45;&gt;O -->
<g id="edge96" class="edge">
<title>a62&#45;&gt;O</title>
<path fill="none" stroke="black" d="M441.1,-268C461.95,-268 498.86,-268 534.77,-268"/>
<polygon fill="black" stroke="black" points="534.86,-271.5 544.86,-268 534.86,-264.5 534.86,-271.5"/>
</g>
<!-- a72&#45;&gt;O -->
<g id="edge97" class="edge">
<title>a72&#45;&gt;O</title>
<path fill="none" stroke="black" d="M440.75,-218.33C468.11,-225.4 523.83,-239.8 568.26,-251.28"/>
<polygon fill="black" stroke="black" points="567.57,-254.72 578.13,-253.83 569.33,-247.94 567.57,-254.72"/>
</g>
<!-- a82&#45;&gt;O -->
<g id="edge98" class="edge">
<title>a82&#45;&gt;O</title>
<path fill="none" stroke="black" d="M439.36,-167.94C471.08,-184.34 544.75,-222.41 591.51,-246.58"/>
<polygon fill="black" stroke="black" points="589.99,-249.74 600.48,-251.22 593.2,-243.52 589.99,-249.74"/>
</g>
<!-- a92&#45;&gt;O -->
<g id="edge99" class="edge">
<title>a92&#45;&gt;O</title>
<path fill="none" stroke="black" d="M437.71,-116.63C470.87,-142.34 556.08,-208.41 602.2,-244.16"/>
<polygon fill="black" stroke="black" points="600.29,-247.11 610.34,-250.47 604.58,-241.58 600.29,-247.11"/>
</g>
<!-- b13 -->
<g id="node21" class="node">
<title>b13</title>
<ellipse fill="none" stroke="#ee0000" cx="841.89" cy="-376" rx="18" ry="18"/>
</g>
<!-- O&#45;&gt;b13 -->
<g id="edge100" class="edge">
<title>O&#45;&gt;b13</title>
<path fill="none" stroke="black" d="M667.12,-284.88C708.46,-306.55 779.28,-343.69 816.46,-363.19"/>
<polygon fill="black" stroke="black" points="815.1,-366.43 825.58,-367.97 818.35,-360.23 815.1,-366.43"/>
</g>
<!-- b23 -->
<g id="node22" class="node">
<title>b23</title>
<ellipse fill="none" stroke="#ee0000" cx="841.89" cy="-322" rx="18" ry="18"/>
</g>
<!-- O&#45;&gt;b23 -->
<g id="edge101" class="edge">
<title>O&#45;&gt;b23</title>
<path fill="none" stroke="black" d="M689.05,-282.19C729.53,-292.8 783.11,-306.85 814.61,-315.11"/>
<polygon fill="black" stroke="black" points="813.83,-318.52 824.39,-317.67 815.6,-311.75 813.83,-318.52"/>
</g>
<!-- b33 -->
<g id="node23" class="node">
<title>b33</title>
<ellipse fill="none" stroke="#ee0000" cx="841.89" cy="-268" rx="18" ry="18"/>
</g>
<!-- O&#45;&gt;b33 -->
<g id="edge102" class="edge">
<title>O&#45;&gt;b33</title>
<path fill="none" stroke="black" d="M723.18,-268C755.79,-268 790.41,-268 813.6,-268"/>
<polygon fill="black" stroke="black" points="813.71,-271.5 823.71,-268 813.71,-264.5 813.71,-271.5"/>
</g>
<!-- b43 -->
<g id="node24" class="node">
<title>b43</title>
<ellipse fill="none" stroke="#ee0000" cx="841.89" cy="-214" rx="18" ry="18"/>
</g>
<!-- O&#45;&gt;b43 -->
<g id="edge103" class="edge">
<title>O&#45;&gt;b43</title>
<path fill="none" stroke="black" d="M689.05,-253.81C729.53,-243.2 783.11,-229.15 814.61,-220.89"/>
<polygon fill="black" stroke="black" points="815.6,-224.25 824.39,-218.33 813.83,-217.48 815.6,-224.25"/>
</g>
<!-- b53 -->
<g id="node25" class="node">
<title>b53</title>
<ellipse fill="none" stroke="#ee0000" cx="841.89" cy="-160" rx="18" ry="18"/>
</g>
<!-- O&#45;&gt;b53 -->
<g id="edge104" class="edge">
<title>O&#45;&gt;b53</title>
<path fill="none" stroke="black" d="M667.12,-251.12C708.46,-229.45 779.28,-192.31 816.46,-172.81"/>
<polygon fill="black" stroke="black" points="818.35,-175.77 825.58,-168.03 815.1,-169.57 818.35,-175.77"/>
</g>
<!-- c11 -->
<g id="node26" class="node">
<title>c11</title>
<ellipse fill="none" stroke="#ee9a00" cx="999.89" cy="-268" rx="18" ry="18"/>
</g>
<!-- b13&#45;&gt;c11 -->
<g id="edge105" class="edge">
<title>b13&#45;&gt;c11</title>
<path fill="none" stroke="black" d="M857.01,-366.23C884.02,-347.53 943.23,-306.53 975.98,-283.86"/>
<polygon fill="black" stroke="black" points="978.23,-286.56 984.46,-277.99 974.25,-280.8 978.23,-286.56"/>
</g>
<!-- b23&#45;&gt;c11 -->
<g id="edge106" class="edge">
<title>b23&#45;&gt;c11</title>
<path fill="none" stroke="black" d="M859.29,-316.32C886.4,-306.94 940.75,-288.13 973.06,-276.94"/>
<polygon fill="black" stroke="black" points="974.4,-280.18 982.71,-273.6 972.11,-273.56 974.4,-280.18"/>
</g>
<!-- b33&#45;&gt;c11 -->
<g id="edge107" class="edge">
<title>b33&#45;&gt;c11</title>
<path fill="none" stroke="black" d="M860.18,-268C887.12,-268 939.35,-268 971.47,-268"/>
<polygon fill="black" stroke="black" points="971.52,-271.5 981.52,-268 971.52,-264.5 971.52,-271.5"/>
</g>
<!-- b43&#45;&gt;c11 -->
<g id="edge108" class="edge">
<title>b43&#45;&gt;c11</title>
<path fill="none" stroke="black" d="M859.29,-219.68C886.4,-229.06 940.75,-247.87 973.06,-259.06"/>
<polygon fill="black" stroke="black" points="972.11,-262.44 982.71,-262.4 974.4,-255.82 972.11,-262.44"/>
</g>
<!-- b53&#45;&gt;c11 -->
<g id="edge109" class="edge">
<title>b53&#45;&gt;c11</title>
<path fill="none" stroke="black" d="M857.01,-169.77C884.02,-188.47 943.23,-229.47 975.98,-252.14"/>
<polygon fill="black" stroke="black" points="974.25,-255.2 984.46,-258.01 978.23,-249.44 974.25,-255.2"/>
</g>
</g>
</svg>
