<?xml version="1.0" encoding="UTF-8" standalone="no"?>
<!DOCTYPE svg PUBLIC "-//W3C//DTD SVG 1.1//EN"
 "http://www.w3.org/Graphics/SVG/1.1/DTD/svg11.dtd">
<!-- Generated by graphviz version 2.43.0 (0)
 -->
<!-- Title: G Pages: 1 -->
<svg width="937pt" height="585pt"
 viewBox="0.00 0.00 936.99 585.00" xmlns="http://www.w3.org/2000/svg" xmlns:xlink="http://www.w3.org/1999/xlink">
<g id="graph0" class="graph" transform="scale(1 1) rotate(0) translate(4 581)">
<title>G</title>
<polygon fill="white" stroke="transparent" points="-4,4 -4,-581 932.99,-581 932.99,4 -4,4"/>
<g id="clust1" class="cluster">
<title>cluster_0</title>
<polygon fill="none" stroke="white" points="46,-8 46,-569 278,-569 278,-8 46,-8"/>
<text text-anchor="middle" x="162" y="-553.8" font-family="Times,serif" font-size="14.00">Input and Normalization layer</text>
</g>
<g id="clust2" class="cluster">
<title>cluster_1</title>
<polygon fill="none" stroke="white" points="298,-27 298,-549 456,-549 456,-27 298,-27"/>
<text text-anchor="middle" x="377" y="-533.8" font-family="Times,serif" font-size="14.00">Layer 1 </text>
<text text-anchor="middle" x="377" y="-518.8" font-family="Times,serif" font-size="14.00"> m neurons ∈ [3,20]</text>
</g>
<g id="clust3" class="cluster">
<title>cluster_2</title>
<polygon fill="none" stroke="white" points="476,-243 476,-295 647.99,-295 647.99,-243 476,-243"/>
</g>
<g id="clust4" class="cluster">
<title>cluster_3</title>
<polygon fill="none" stroke="white" points="667.99,-135 667.99,-441 821.99,-441 821.99,-135 667.99,-135"/>
<text text-anchor="middle" x="744.99" y="-425.8" font-family="Times,serif" font-size="14.00">Layer 2 </text>
<text text-anchor="middle" x="744.99" y="-410.8" font-family="Times,serif" font-size="14.00"> n neurons ∈ [2,15]</text>
</g>
<g id="clust5" class="cluster">
<title>cluster_4</title>
<polygon fill="none" stroke="white" points="841.99,-243 841.99,-318 928.99,-318 928.99,-243 841.99,-243"/>
<text text-anchor="middle" x="885.49" y="-302.8" font-family="Times,serif" font-size="14.00">Thickness</text>
</g>
<!-- x1 -->
<g id="node1" class="node">
<title>x1</title>
<ellipse fill="none" stroke="#00008b" cx="162" cy="-304" rx="18" ry="18"/>
<text text-anchor="middle" x="113.5" y="-274.8" font-family="Times,serif" font-size="14.00">Latitude</text>
</g>
<!-- a12 -->
<g id="node11" class="node">
<title>a12</title>
<ellipse fill="none" stroke="#ee0000" cx="377" cy="-53" rx="18" ry="18"/>
</g>
<!-- x1&#45;&gt;a12 -->
<g id="edge1" class="edge">
<title>x1&#45;&gt;a12</title>
<path fill="none" stroke="black" d="M174.45,-290.51C209.49,-249.21 315.47,-124.33 358.03,-74.18"/>
<polygon fill="black" stroke="black" points="360.95,-76.15 364.75,-66.26 355.61,-71.62 360.95,-76.15"/>
</g>
<!-- a22 -->
<g id="node12" class="node">
<title>a22</title>
<ellipse fill="none" stroke="#ee0000" cx="377" cy="-485" rx="18" ry="18"/>
</g>
<!-- x1&#45;&gt;a22 -->
<g id="edge2" class="edge">
<title>x1&#45;&gt;a22</title>
<path fill="none" stroke="black" d="M176.32,-315.32C212.26,-345.86 311.39,-430.1 354.98,-467.14"/>
<polygon fill="black" stroke="black" points="352.79,-469.87 362.68,-473.68 357.33,-464.54 352.79,-469.87"/>
</g>
<!-- a32 -->
<g id="node13" class="node">
<title>a32</title>
<ellipse fill="none" stroke="#ee0000" cx="377" cy="-431" rx="18" ry="18"/>
</g>
<!-- x1&#45;&gt;a32 -->
<g id="edge3" class="edge">
<title>x1&#45;&gt;a32</title>
<path fill="none" stroke="black" d="M177.98,-312.93C214.49,-334.7 308.31,-390.64 352.42,-416.94"/>
<polygon fill="black" stroke="black" points="350.66,-419.96 361.04,-422.08 354.24,-413.95 350.66,-419.96"/>
</g>
<!-- a42 -->
<g id="node14" class="node">
<title>a42</title>
<ellipse fill="none" stroke="#ee0000" cx="377" cy="-377" rx="18" ry="18"/>
</g>
<!-- x1&#45;&gt;a42 -->
<g id="edge4" class="edge">
<title>x1&#45;&gt;a42</title>
<path fill="none" stroke="black" d="M179.36,-309.61C216.14,-322.21 305.62,-352.88 350.06,-368.11"/>
<polygon fill="black" stroke="black" points="348.99,-371.44 359.58,-371.37 351.26,-364.82 348.99,-371.44"/>
</g>
<!-- a52 -->
<g id="node15" class="node">
<title>a52</title>
<ellipse fill="none" stroke="#ee0000" cx="377" cy="-323" rx="18" ry="18"/>
</g>
<!-- x1&#45;&gt;a52 -->
<g id="edge5" class="edge">
<title>x1&#45;&gt;a52</title>
<path fill="none" stroke="black" d="M180.07,-305.52C216.92,-308.81 304.16,-316.59 348.74,-320.57"/>
<polygon fill="black" stroke="black" points="348.58,-324.07 358.85,-321.47 349.2,-317.1 348.58,-324.07"/>
</g>
<!-- a62 -->
<g id="node16" class="node">
<title>a62</title>
<ellipse fill="none" stroke="#ee0000" cx="377" cy="-269" rx="18" ry="18"/>
</g>
<!-- x1&#45;&gt;a62 -->
<g id="edge6" class="edge">
<title>x1&#45;&gt;a62</title>
<path fill="none" stroke="black" d="M180.07,-301.19C217.01,-295.13 304.59,-280.73 349.07,-273.42"/>
<polygon fill="black" stroke="black" points="349.84,-276.85 359.14,-271.77 348.71,-269.94 349.84,-276.85"/>
</g>
<!-- a72 -->
<g id="node17" class="node">
<title>a72</title>
<ellipse fill="none" stroke="#ee0000" cx="377" cy="-215" rx="18" ry="18"/>
</g>
<!-- x1&#45;&gt;a72 -->
<g id="edge7" class="edge">
<title>x1&#45;&gt;a72</title>
<path fill="none" stroke="black" d="M179.01,-297.31C215.72,-281.97 306.21,-244.16 350.61,-225.61"/>
<polygon fill="black" stroke="black" points="352.22,-228.73 360.1,-221.65 349.52,-222.27 352.22,-228.73"/>
</g>
<!-- a82 -->
<g id="node18" class="node">
<title>a82</title>
<ellipse fill="none" stroke="#ee0000" cx="377" cy="-161" rx="18" ry="18"/>
</g>
<!-- x1&#45;&gt;a82 -->
<g id="edge8" class="edge">
<title>x1&#45;&gt;a82</title>
<path fill="none" stroke="black" d="M177.31,-294.4C213.52,-270.08 309.07,-205.94 353.14,-176.35"/>
<polygon fill="black" stroke="black" points="355.12,-179.23 361.48,-170.75 351.22,-173.42 355.12,-179.23"/>
</g>
<!-- a92 -->
<g id="node19" class="node">
<title>a92</title>
<ellipse fill="none" stroke="#ee0000" cx="377" cy="-107" rx="18" ry="18"/>
</g>
<!-- x1&#45;&gt;a92 -->
<g id="edge9" class="edge">
<title>x1&#45;&gt;a92</title>
<path fill="none" stroke="black" d="M175.69,-292.27C211.27,-259.36 312.23,-165.98 355.69,-125.78"/>
<polygon fill="black" stroke="black" points="358.15,-128.28 363.11,-118.92 353.39,-123.14 358.15,-128.28"/>
</g>
<!-- x2 -->
<g id="node2" class="node">
<title>x2</title>
<ellipse fill="none" stroke="#00008b" cx="162" cy="-250" rx="18" ry="18"/>
<text text-anchor="middle" x="107.5" y="-220.8" font-family="Times,serif" font-size="14.00">Longitude</text>
</g>
<!-- x2&#45;&gt;a12 -->
<g id="edge10" class="edge">
<title>x2&#45;&gt;a12</title>
<path fill="none" stroke="black" d="M175.69,-238.27C211.27,-205.36 312.23,-111.98 355.69,-71.78"/>
<polygon fill="black" stroke="black" points="358.15,-74.28 363.11,-64.92 353.39,-69.14 358.15,-74.28"/>
</g>
<!-- x2&#45;&gt;a22 -->
<g id="edge11" class="edge">
<title>x2&#45;&gt;a22</title>
<path fill="none" stroke="black" d="M174.76,-262.97C209.96,-301.81 314.74,-417.41 357.51,-464.6"/>
<polygon fill="black" stroke="black" points="354.97,-467.01 364.28,-472.07 360.16,-462.31 354.97,-467.01"/>
</g>
<!-- x2&#45;&gt;a32 -->
<g id="edge12" class="edge">
<title>x2&#45;&gt;a32</title>
<path fill="none" stroke="black" d="M176.32,-261.32C212.26,-291.86 311.39,-376.1 354.98,-413.14"/>
<polygon fill="black" stroke="black" points="352.79,-415.87 362.68,-419.68 357.33,-410.54 352.79,-415.87"/>
</g>
<!-- x2&#45;&gt;a42 -->
<g id="edge13" class="edge">
<title>x2&#45;&gt;a42</title>
<path fill="none" stroke="black" d="M177.98,-258.93C214.49,-280.7 308.31,-336.64 352.42,-362.94"/>
<polygon fill="black" stroke="black" points="350.66,-365.96 361.04,-368.08 354.24,-359.95 350.66,-365.96"/>
</g>
<!-- x2&#45;&gt;a52 -->
<g id="edge14" class="edge">
<title>x2&#45;&gt;a52</title>
<path fill="none" stroke="black" d="M179.36,-255.61C216.14,-268.21 305.62,-298.88 350.06,-314.11"/>
<polygon fill="black" stroke="black" points="348.99,-317.44 359.58,-317.37 351.26,-310.82 348.99,-317.44"/>
</g>
<!-- x2&#45;&gt;a62 -->
<g id="edge15" class="edge">
<title>x2&#45;&gt;a62</title>
<path fill="none" stroke="black" d="M180.07,-251.52C216.92,-254.81 304.16,-262.59 348.74,-266.57"/>
<polygon fill="black" stroke="black" points="348.58,-270.07 358.85,-267.47 349.2,-263.1 348.58,-270.07"/>
</g>
<!-- x2&#45;&gt;a72 -->
<g id="edge16" class="edge">
<title>x2&#45;&gt;a72</title>
<path fill="none" stroke="black" d="M180.07,-247.19C217.01,-241.13 304.59,-226.73 349.07,-219.42"/>
<polygon fill="black" stroke="black" points="349.84,-222.85 359.14,-217.77 348.71,-215.94 349.84,-222.85"/>
</g>
<!-- x2&#45;&gt;a82 -->
<g id="edge17" class="edge">
<title>x2&#45;&gt;a82</title>
<path fill="none" stroke="black" d="M179.01,-243.31C215.72,-227.97 306.21,-190.16 350.61,-171.61"/>
<polygon fill="black" stroke="black" points="352.22,-174.73 360.1,-167.65 349.52,-168.27 352.22,-174.73"/>
</g>
<!-- x2&#45;&gt;a92 -->
<g id="edge18" class="edge">
<title>x2&#45;&gt;a92</title>
<path fill="none" stroke="black" d="M177.31,-240.4C213.52,-216.08 309.07,-151.94 353.14,-122.35"/>
<polygon fill="black" stroke="black" points="355.12,-125.23 361.48,-116.75 351.22,-119.42 355.12,-125.23"/>
</g>
<!-- x3 -->
<g id="node3" class="node">
<title>x3</title>
<ellipse fill="none" stroke="#00008b" cx="162" cy="-196" rx="18" ry="18"/>
<text text-anchor="middle" x="127" y="-166.8" font-family="Times,serif" font-size="14.00">Area</text>
</g>
<!-- x3&#45;&gt;a12 -->
<g id="edge19" class="edge">
<title>x3&#45;&gt;a12</title>
<path fill="none" stroke="black" d="M177.31,-186.4C213.52,-162.08 309.07,-97.94 353.14,-68.35"/>
<polygon fill="black" stroke="black" points="355.12,-71.23 361.48,-62.75 351.22,-65.42 355.12,-71.23"/>
</g>
<!-- x3&#45;&gt;a22 -->
<g id="edge20" class="edge">
<title>x3&#45;&gt;a22</title>
<path fill="none" stroke="black" d="M173.56,-210.33C208.06,-257.14 317.63,-405.8 359.51,-462.62"/>
<polygon fill="black" stroke="black" points="356.87,-464.95 365.62,-470.92 362.51,-460.8 356.87,-464.95"/>
</g>
<!-- x3&#45;&gt;a32 -->
<g id="edge21" class="edge">
<title>x3&#45;&gt;a32</title>
<path fill="none" stroke="black" d="M174.76,-208.97C209.96,-247.81 314.74,-363.41 357.51,-410.6"/>
<polygon fill="black" stroke="black" points="354.97,-413.01 364.28,-418.07 360.16,-408.31 354.97,-413.01"/>
</g>
<!-- x3&#45;&gt;a42 -->
<g id="edge22" class="edge">
<title>x3&#45;&gt;a42</title>
<path fill="none" stroke="black" d="M176.32,-207.32C212.26,-237.86 311.39,-322.1 354.98,-359.14"/>
<polygon fill="black" stroke="black" points="352.79,-361.87 362.68,-365.68 357.33,-356.54 352.79,-361.87"/>
</g>
<!-- x3&#45;&gt;a52 -->
<g id="edge23" class="edge">
<title>x3&#45;&gt;a52</title>
<path fill="none" stroke="black" d="M177.98,-204.93C214.49,-226.7 308.31,-282.64 352.42,-308.94"/>
<polygon fill="black" stroke="black" points="350.66,-311.96 361.04,-314.08 354.24,-305.95 350.66,-311.96"/>
</g>
<!-- x3&#45;&gt;a62 -->
<g id="edge24" class="edge">
<title>x3&#45;&gt;a62</title>
<path fill="none" stroke="black" d="M179.36,-201.61C216.14,-214.21 305.62,-244.88 350.06,-260.11"/>
<polygon fill="black" stroke="black" points="348.99,-263.44 359.58,-263.37 351.26,-256.82 348.99,-263.44"/>
</g>
<!-- x3&#45;&gt;a72 -->
<g id="edge25" class="edge">
<title>x3&#45;&gt;a72</title>
<path fill="none" stroke="black" d="M180.07,-197.52C216.92,-200.81 304.16,-208.59 348.74,-212.57"/>
<polygon fill="black" stroke="black" points="348.58,-216.07 358.85,-213.47 349.2,-209.1 348.58,-216.07"/>
</g>
<!-- x3&#45;&gt;a82 -->
<g id="edge26" class="edge">
<title>x3&#45;&gt;a82</title>
<path fill="none" stroke="black" d="M180.07,-193.19C217.01,-187.13 304.59,-172.73 349.07,-165.42"/>
<polygon fill="black" stroke="black" points="349.84,-168.85 359.14,-163.77 348.71,-161.94 349.84,-168.85"/>
</g>
<!-- x3&#45;&gt;a92 -->
<g id="edge27" class="edge">
<title>x3&#45;&gt;a92</title>
<path fill="none" stroke="black" d="M179.01,-189.31C215.72,-173.97 306.21,-136.16 350.61,-117.61"/>
<polygon fill="black" stroke="black" points="352.22,-120.73 360.1,-113.65 349.52,-114.27 352.22,-120.73"/>
</g>
<!-- x4 -->
<g id="node4" class="node">
<title>x4</title>
<ellipse fill="none" stroke="#00008b" cx="162" cy="-142" rx="18" ry="18"/>
<text text-anchor="middle" x="118.5" y="-112.8" font-family="Times,serif" font-size="14.00">Length</text>
</g>
<!-- x4&#45;&gt;a12 -->
<g id="edge28" class="edge">
<title>x4&#45;&gt;a12</title>
<path fill="none" stroke="black" d="M179.01,-135.31C215.72,-119.97 306.21,-82.16 350.61,-63.61"/>
<polygon fill="black" stroke="black" points="352.22,-66.73 360.1,-59.65 349.52,-60.27 352.22,-66.73"/>
</g>
<!-- x4&#45;&gt;a22 -->
<g id="edge29" class="edge">
<title>x4&#45;&gt;a22</title>
<path fill="none" stroke="black" d="M172.43,-157.18C206.04,-211.31 320.18,-395.11 361.18,-461.14"/>
<polygon fill="black" stroke="black" points="358.43,-463.35 366.68,-469.99 364.38,-459.65 358.43,-463.35"/>
</g>
<!-- x4&#45;&gt;a32 -->
<g id="edge30" class="edge">
<title>x4&#45;&gt;a32</title>
<path fill="none" stroke="black" d="M173.56,-156.33C208.06,-203.14 317.63,-351.8 359.51,-408.62"/>
<polygon fill="black" stroke="black" points="356.87,-410.95 365.62,-416.92 362.51,-406.8 356.87,-410.95"/>
</g>
<!-- x4&#45;&gt;a42 -->
<g id="edge31" class="edge">
<title>x4&#45;&gt;a42</title>
<path fill="none" stroke="black" d="M174.76,-154.97C209.96,-193.81 314.74,-309.41 357.51,-356.6"/>
<polygon fill="black" stroke="black" points="354.97,-359.01 364.28,-364.07 360.16,-354.31 354.97,-359.01"/>
</g>
<!-- x4&#45;&gt;a52 -->
<g id="edge32" class="edge">
<title>x4&#45;&gt;a52</title>
<path fill="none" stroke="black" d="M176.32,-153.32C212.26,-183.86 311.39,-268.1 354.98,-305.14"/>
<polygon fill="black" stroke="black" points="352.79,-307.87 362.68,-311.68 357.33,-302.54 352.79,-307.87"/>
</g>
<!-- x4&#45;&gt;a62 -->
<g id="edge33" class="edge">
<title>x4&#45;&gt;a62</title>
<path fill="none" stroke="black" d="M177.98,-150.93C214.49,-172.7 308.31,-228.64 352.42,-254.94"/>
<polygon fill="black" stroke="black" points="350.66,-257.96 361.04,-260.08 354.24,-251.95 350.66,-257.96"/>
</g>
<!-- x4&#45;&gt;a72 -->
<g id="edge34" class="edge">
<title>x4&#45;&gt;a72</title>
<path fill="none" stroke="black" d="M179.36,-147.61C216.14,-160.21 305.62,-190.88 350.06,-206.11"/>
<polygon fill="black" stroke="black" points="348.99,-209.44 359.58,-209.37 351.26,-202.82 348.99,-209.44"/>
</g>
<!-- x4&#45;&gt;a82 -->
<g id="edge35" class="edge">
<title>x4&#45;&gt;a82</title>
<path fill="none" stroke="black" d="M180.07,-143.52C216.92,-146.81 304.16,-154.59 348.74,-158.57"/>
<polygon fill="black" stroke="black" points="348.58,-162.07 358.85,-159.47 349.2,-155.1 348.58,-162.07"/>
</g>
<!-- x4&#45;&gt;a92 -->
<g id="edge36" class="edge">
<title>x4&#45;&gt;a92</title>
<path fill="none" stroke="black" d="M180.07,-139.19C217.01,-133.13 304.59,-118.73 349.07,-111.42"/>
<polygon fill="black" stroke="black" points="349.84,-114.85 359.14,-109.77 348.71,-107.94 349.84,-114.85"/>
</g>
<!-- x5 -->
<g id="node5" class="node">
<title>x5</title>
<ellipse fill="none" stroke="#00008b" cx="162" cy="-88" rx="18" ry="18"/>
<text text-anchor="middle" x="119.5" y="-58.8" font-family="Times,serif" font-size="14.00">Aspect</text>
</g>
<!-- x5&#45;&gt;a12 -->
<g id="edge37" class="edge">
<title>x5&#45;&gt;a12</title>
<path fill="none" stroke="black" d="M180.07,-85.19C217.01,-79.13 304.59,-64.73 349.07,-57.42"/>
<polygon fill="black" stroke="black" points="349.84,-60.85 359.14,-55.77 348.71,-53.94 349.84,-60.85"/>
</g>
<!-- x5&#45;&gt;a22 -->
<g id="edge38" class="edge">
<title>x5&#45;&gt;a22</title>
<path fill="none" stroke="black" d="M171.35,-103.56C203.96,-164.34 322.89,-386.01 362.82,-460.44"/>
<polygon fill="black" stroke="black" points="359.9,-462.39 367.71,-469.54 366.06,-459.08 359.9,-462.39"/>
</g>
<!-- x5&#45;&gt;a32 -->
<g id="edge39" class="edge">
<title>x5&#45;&gt;a32</title>
<path fill="none" stroke="black" d="M172.43,-103.18C206.04,-157.31 320.18,-341.11 361.18,-407.14"/>
<polygon fill="black" stroke="black" points="358.43,-409.35 366.68,-415.99 364.38,-405.65 358.43,-409.35"/>
</g>
<!-- x5&#45;&gt;a42 -->
<g id="edge40" class="edge">
<title>x5&#45;&gt;a42</title>
<path fill="none" stroke="black" d="M173.56,-102.33C208.06,-149.14 317.63,-297.8 359.51,-354.62"/>
<polygon fill="black" stroke="black" points="356.87,-356.95 365.62,-362.92 362.51,-352.8 356.87,-356.95"/>
</g>
<!-- x5&#45;&gt;a52 -->
<g id="edge41" class="edge">
<title>x5&#45;&gt;a52</title>
<path fill="none" stroke="black" d="M174.76,-100.97C209.96,-139.81 314.74,-255.41 357.51,-302.6"/>
<polygon fill="black" stroke="black" points="354.97,-305.01 364.28,-310.07 360.16,-300.31 354.97,-305.01"/>
</g>
<!-- x5&#45;&gt;a62 -->
<g id="edge42" class="edge">
<title>x5&#45;&gt;a62</title>
<path fill="none" stroke="black" d="M176.32,-99.32C212.26,-129.86 311.39,-214.1 354.98,-251.14"/>
<polygon fill="black" stroke="black" points="352.79,-253.87 362.68,-257.68 357.33,-248.54 352.79,-253.87"/>
</g>
<!-- x5&#45;&gt;a72 -->
<g id="edge43" class="edge">
<title>x5&#45;&gt;a72</title>
<path fill="none" stroke="black" d="M177.98,-96.93C214.49,-118.7 308.31,-174.64 352.42,-200.94"/>
<polygon fill="black" stroke="black" points="350.66,-203.96 361.04,-206.08 354.24,-197.95 350.66,-203.96"/>
</g>
<!-- x5&#45;&gt;a82 -->
<g id="edge44" class="edge">
<title>x5&#45;&gt;a82</title>
<path fill="none" stroke="black" d="M179.36,-93.61C216.14,-106.21 305.62,-136.88 350.06,-152.11"/>
<polygon fill="black" stroke="black" points="348.99,-155.44 359.58,-155.37 351.26,-148.82 348.99,-155.44"/>
</g>
<!-- x5&#45;&gt;a92 -->
<g id="edge45" class="edge">
<title>x5&#45;&gt;a92</title>
<path fill="none" stroke="black" d="M180.07,-89.52C216.92,-92.81 304.16,-100.59 348.74,-104.57"/>
<polygon fill="black" stroke="black" points="348.58,-108.07 358.85,-105.47 349.2,-101.1 348.58,-108.07"/>
</g>
<!-- x6 -->
<g id="node6" class="node">
<title>x6</title>
<ellipse fill="none" stroke="#00008b" cx="162" cy="-34" rx="18" ry="18"/>
<text text-anchor="middle" x="73.5" y="-4.8" font-family="Times,serif" font-size="14.00">Elevation Minimum</text>
</g>
<!-- x6&#45;&gt;a12 -->
<g id="edge46" class="edge">
<title>x6&#45;&gt;a12</title>
<path fill="none" stroke="black" d="M180.07,-35.52C216.92,-38.81 304.16,-46.59 348.74,-50.57"/>
<polygon fill="black" stroke="black" points="348.58,-54.07 358.85,-51.47 349.2,-47.1 348.58,-54.07"/>
</g>
<!-- x6&#45;&gt;a22 -->
<g id="edge47" class="edge">
<title>x6&#45;&gt;a22</title>
<path fill="none" stroke="black" d="M170.58,-50.05C202.34,-117.3 324.86,-376.73 363.95,-459.48"/>
<polygon fill="black" stroke="black" points="360.85,-461.12 368.29,-468.67 367.18,-458.13 360.85,-461.12"/>
</g>
<!-- x6&#45;&gt;a32 -->
<g id="edge48" class="edge">
<title>x6&#45;&gt;a32</title>
<path fill="none" stroke="black" d="M171.35,-49.56C203.96,-110.34 322.89,-332.01 362.82,-406.44"/>
<polygon fill="black" stroke="black" points="359.9,-408.39 367.71,-415.54 366.06,-405.08 359.9,-408.39"/>
</g>
<!-- x6&#45;&gt;a42 -->
<g id="edge49" class="edge">
<title>x6&#45;&gt;a42</title>
<path fill="none" stroke="black" d="M172.43,-49.18C206.04,-103.31 320.18,-287.11 361.18,-353.14"/>
<polygon fill="black" stroke="black" points="358.43,-355.35 366.68,-361.99 364.38,-351.65 358.43,-355.35"/>
</g>
<!-- x6&#45;&gt;a52 -->
<g id="edge50" class="edge">
<title>x6&#45;&gt;a52</title>
<path fill="none" stroke="black" d="M173.56,-48.33C208.06,-95.14 317.63,-243.8 359.51,-300.62"/>
<polygon fill="black" stroke="black" points="356.87,-302.95 365.62,-308.92 362.51,-298.8 356.87,-302.95"/>
</g>
<!-- x6&#45;&gt;a62 -->
<g id="edge51" class="edge">
<title>x6&#45;&gt;a62</title>
<path fill="none" stroke="black" d="M174.76,-46.97C209.96,-85.81 314.74,-201.41 357.51,-248.6"/>
<polygon fill="black" stroke="black" points="354.97,-251.01 364.28,-256.07 360.16,-246.31 354.97,-251.01"/>
</g>
<!-- x6&#45;&gt;a72 -->
<g id="edge52" class="edge">
<title>x6&#45;&gt;a72</title>
<path fill="none" stroke="black" d="M176.32,-45.32C212.26,-75.86 311.39,-160.1 354.98,-197.14"/>
<polygon fill="black" stroke="black" points="352.79,-199.87 362.68,-203.68 357.33,-194.54 352.79,-199.87"/>
</g>
<!-- x6&#45;&gt;a82 -->
<g id="edge53" class="edge">
<title>x6&#45;&gt;a82</title>
<path fill="none" stroke="black" d="M177.98,-42.93C214.49,-64.7 308.31,-120.64 352.42,-146.94"/>
<polygon fill="black" stroke="black" points="350.66,-149.96 361.04,-152.08 354.24,-143.95 350.66,-149.96"/>
</g>
<!-- x6&#45;&gt;a92 -->
<g id="edge54" class="edge">
<title>x6&#45;&gt;a92</title>
<path fill="none" stroke="black" d="M179.36,-39.61C216.14,-52.21 305.62,-82.88 350.06,-98.11"/>
<polygon fill="black" stroke="black" points="348.99,-101.44 359.58,-101.37 351.26,-94.82 348.99,-101.44"/>
</g>
<!-- x7 -->
<g id="node7" class="node">
<title>x7</title>
<ellipse fill="none" stroke="#00008b" cx="162" cy="-520" rx="18" ry="18"/>
<text text-anchor="middle" x="81" y="-490.8" font-family="Times,serif" font-size="14.00">Elevation Median</text>
</g>
<!-- x7&#45;&gt;a12 -->
<g id="edge55" class="edge">
<title>x7&#45;&gt;a12</title>
<path fill="none" stroke="black" d="M170.33,-503.92C201.86,-434.81 326.01,-162.6 364.54,-78.13"/>
<polygon fill="black" stroke="black" points="367.73,-79.56 368.7,-69.01 361.36,-76.65 367.73,-79.56"/>
</g>
<!-- x7&#45;&gt;a22 -->
<g id="edge56" class="edge">
<title>x7&#45;&gt;a22</title>
<path fill="none" stroke="black" d="M180.07,-517.19C217.01,-511.13 304.59,-496.73 349.07,-489.42"/>
<polygon fill="black" stroke="black" points="349.84,-492.85 359.14,-487.77 348.71,-485.94 349.84,-492.85"/>
</g>
<!-- x7&#45;&gt;a32 -->
<g id="edge57" class="edge">
<title>x7&#45;&gt;a32</title>
<path fill="none" stroke="black" d="M179.01,-513.31C215.72,-497.97 306.21,-460.16 350.61,-441.61"/>
<polygon fill="black" stroke="black" points="352.22,-444.73 360.1,-437.65 349.52,-438.27 352.22,-444.73"/>
</g>
<!-- x7&#45;&gt;a42 -->
<g id="edge58" class="edge">
<title>x7&#45;&gt;a42</title>
<path fill="none" stroke="black" d="M177.31,-510.4C213.52,-486.08 309.07,-421.94 353.14,-392.35"/>
<polygon fill="black" stroke="black" points="355.12,-395.23 361.48,-386.75 351.22,-389.42 355.12,-395.23"/>
</g>
<!-- x7&#45;&gt;a52 -->
<g id="edge59" class="edge">
<title>x7&#45;&gt;a52</title>
<path fill="none" stroke="black" d="M175.69,-508.27C211.27,-475.36 312.23,-381.98 355.69,-341.78"/>
<polygon fill="black" stroke="black" points="358.15,-344.28 363.11,-334.92 353.39,-339.14 358.15,-344.28"/>
</g>
<!-- x7&#45;&gt;a62 -->
<g id="edge60" class="edge">
<title>x7&#45;&gt;a62</title>
<path fill="none" stroke="black" d="M174.45,-506.51C209.49,-465.21 315.47,-340.33 358.03,-290.18"/>
<polygon fill="black" stroke="black" points="360.95,-292.15 364.75,-282.26 355.61,-287.62 360.95,-292.15"/>
</g>
<!-- x7&#45;&gt;a72 -->
<g id="edge61" class="edge">
<title>x7&#45;&gt;a72</title>
<path fill="none" stroke="black" d="M172.99,-505.7C206.94,-457.08 318.11,-297.89 359.92,-238.03"/>
<polygon fill="black" stroke="black" points="362.93,-239.83 365.79,-229.63 357.19,-235.82 362.93,-239.83"/>
</g>
<!-- x7&#45;&gt;a82 -->
<g id="edge62" class="edge">
<title>x7&#45;&gt;a82</title>
<path fill="none" stroke="black" d="M172.15,-504.57C205.54,-448.3 320.95,-253.79 361.65,-185.19"/>
<polygon fill="black" stroke="black" points="364.79,-186.75 366.88,-176.37 358.77,-183.18 364.79,-186.75"/>
</g>
<!-- x7&#45;&gt;a92 -->
<g id="edge63" class="edge">
<title>x7&#45;&gt;a92</title>
<path fill="none" stroke="black" d="M171.09,-504.31C203.45,-441.58 323.7,-208.41 363.28,-131.66"/>
<polygon fill="black" stroke="black" points="366.43,-133.19 367.9,-122.7 360.21,-129.98 366.43,-133.19"/>
</g>
<!-- x8 -->
<g id="node8" class="node">
<title>x8</title>
<ellipse fill="none" stroke="#00008b" cx="162" cy="-466" rx="18" ry="18"/>
<text text-anchor="middle" x="72" y="-436.8" font-family="Times,serif" font-size="14.00">Elevation Maximum</text>
</g>
<!-- x8&#45;&gt;a12 -->
<g id="edge64" class="edge">
<title>x8&#45;&gt;a12</title>
<path fill="none" stroke="black" d="M171.09,-450.31C203.45,-387.58 323.7,-154.41 363.28,-77.66"/>
<polygon fill="black" stroke="black" points="366.43,-79.19 367.9,-68.7 360.21,-75.98 366.43,-79.19"/>
</g>
<!-- x8&#45;&gt;a22 -->
<g id="edge65" class="edge">
<title>x8&#45;&gt;a22</title>
<path fill="none" stroke="black" d="M180.07,-467.52C216.92,-470.81 304.16,-478.59 348.74,-482.57"/>
<polygon fill="black" stroke="black" points="348.58,-486.07 358.85,-483.47 349.2,-479.1 348.58,-486.07"/>
</g>
<!-- x8&#45;&gt;a32 -->
<g id="edge66" class="edge">
<title>x8&#45;&gt;a32</title>
<path fill="none" stroke="black" d="M180.07,-463.19C217.01,-457.13 304.59,-442.73 349.07,-435.42"/>
<polygon fill="black" stroke="black" points="349.84,-438.85 359.14,-433.77 348.71,-431.94 349.84,-438.85"/>
</g>
<!-- x8&#45;&gt;a42 -->
<g id="edge67" class="edge">
<title>x8&#45;&gt;a42</title>
<path fill="none" stroke="black" d="M179.01,-459.31C215.72,-443.97 306.21,-406.16 350.61,-387.61"/>
<polygon fill="black" stroke="black" points="352.22,-390.73 360.1,-383.65 349.52,-384.27 352.22,-390.73"/>
</g>
<!-- x8&#45;&gt;a52 -->
<g id="edge68" class="edge">
<title>x8&#45;&gt;a52</title>
<path fill="none" stroke="black" d="M177.31,-456.4C213.52,-432.08 309.07,-367.94 353.14,-338.35"/>
<polygon fill="black" stroke="black" points="355.12,-341.23 361.48,-332.75 351.22,-335.42 355.12,-341.23"/>
</g>
<!-- x8&#45;&gt;a62 -->
<g id="edge69" class="edge">
<title>x8&#45;&gt;a62</title>
<path fill="none" stroke="black" d="M175.69,-454.27C211.27,-421.36 312.23,-327.98 355.69,-287.78"/>
<polygon fill="black" stroke="black" points="358.15,-290.28 363.11,-280.92 353.39,-285.14 358.15,-290.28"/>
</g>
<!-- x8&#45;&gt;a72 -->
<g id="edge70" class="edge">
<title>x8&#45;&gt;a72</title>
<path fill="none" stroke="black" d="M174.45,-452.51C209.49,-411.21 315.47,-286.33 358.03,-236.18"/>
<polygon fill="black" stroke="black" points="360.95,-238.15 364.75,-228.26 355.61,-233.62 360.95,-238.15"/>
</g>
<!-- x8&#45;&gt;a82 -->
<g id="edge71" class="edge">
<title>x8&#45;&gt;a82</title>
<path fill="none" stroke="black" d="M172.99,-451.7C206.94,-403.08 318.11,-243.89 359.92,-184.03"/>
<polygon fill="black" stroke="black" points="362.93,-185.83 365.79,-175.63 357.19,-181.82 362.93,-185.83"/>
</g>
<!-- x8&#45;&gt;a92 -->
<g id="edge72" class="edge">
<title>x8&#45;&gt;a92</title>
<path fill="none" stroke="black" d="M172.15,-450.57C205.54,-394.3 320.95,-199.79 361.65,-131.19"/>
<polygon fill="black" stroke="black" points="364.79,-132.75 366.88,-122.37 358.77,-129.18 364.79,-132.75"/>
</g>
<!-- x9 -->
<g id="node9" class="node">
<title>x9</title>
<ellipse fill="none" stroke="#00008b" cx="162" cy="-412" rx="18" ry="18"/>
<text text-anchor="middle" x="80.5" y="-382.8" font-family="Times,serif" font-size="14.00">Elevation Change</text>
</g>
<!-- x9&#45;&gt;a12 -->
<g id="edge73" class="edge">
<title>x9&#45;&gt;a12</title>
<path fill="none" stroke="black" d="M172.15,-396.57C205.54,-340.3 320.95,-145.79 361.65,-77.19"/>
<polygon fill="black" stroke="black" points="364.79,-78.75 366.88,-68.37 358.77,-75.18 364.79,-78.75"/>
</g>
<!-- x9&#45;&gt;a22 -->
<g id="edge74" class="edge">
<title>x9&#45;&gt;a22</title>
<path fill="none" stroke="black" d="M179.36,-417.61C216.14,-430.21 305.62,-460.88 350.06,-476.11"/>
<polygon fill="black" stroke="black" points="348.99,-479.44 359.58,-479.37 351.26,-472.82 348.99,-479.44"/>
</g>
<!-- x9&#45;&gt;a32 -->
<g id="edge75" class="edge">
<title>x9&#45;&gt;a32</title>
<path fill="none" stroke="black" d="M180.07,-413.52C216.92,-416.81 304.16,-424.59 348.74,-428.57"/>
<polygon fill="black" stroke="black" points="348.58,-432.07 358.85,-429.47 349.2,-425.1 348.58,-432.07"/>
</g>
<!-- x9&#45;&gt;a42 -->
<g id="edge76" class="edge">
<title>x9&#45;&gt;a42</title>
<path fill="none" stroke="black" d="M180.07,-409.19C217.01,-403.13 304.59,-388.73 349.07,-381.42"/>
<polygon fill="black" stroke="black" points="349.84,-384.85 359.14,-379.77 348.71,-377.94 349.84,-384.85"/>
</g>
<!-- x9&#45;&gt;a52 -->
<g id="edge77" class="edge">
<title>x9&#45;&gt;a52</title>
<path fill="none" stroke="black" d="M179.01,-405.31C215.72,-389.97 306.21,-352.16 350.61,-333.61"/>
<polygon fill="black" stroke="black" points="352.22,-336.73 360.1,-329.65 349.52,-330.27 352.22,-336.73"/>
</g>
<!-- x9&#45;&gt;a62 -->
<g id="edge78" class="edge">
<title>x9&#45;&gt;a62</title>
<path fill="none" stroke="black" d="M177.31,-402.4C213.52,-378.08 309.07,-313.94 353.14,-284.35"/>
<polygon fill="black" stroke="black" points="355.12,-287.23 361.48,-278.75 351.22,-281.42 355.12,-287.23"/>
</g>
<!-- x9&#45;&gt;a72 -->
<g id="edge79" class="edge">
<title>x9&#45;&gt;a72</title>
<path fill="none" stroke="black" d="M175.69,-400.27C211.27,-367.36 312.23,-273.98 355.69,-233.78"/>
<polygon fill="black" stroke="black" points="358.15,-236.28 363.11,-226.92 353.39,-231.14 358.15,-236.28"/>
</g>
<!-- x9&#45;&gt;a82 -->
<g id="edge80" class="edge">
<title>x9&#45;&gt;a82</title>
<path fill="none" stroke="black" d="M174.45,-398.51C209.49,-357.21 315.47,-232.33 358.03,-182.18"/>
<polygon fill="black" stroke="black" points="360.95,-184.15 364.75,-174.26 355.61,-179.62 360.95,-184.15"/>
</g>
<!-- x9&#45;&gt;a92 -->
<g id="edge81" class="edge">
<title>x9&#45;&gt;a92</title>
<path fill="none" stroke="black" d="M172.99,-397.7C206.94,-349.08 318.11,-189.89 359.92,-130.03"/>
<polygon fill="black" stroke="black" points="362.93,-131.83 365.79,-121.63 357.19,-127.82 362.93,-131.83"/>
</g>
<!-- x10 -->
<g id="node10" class="node">
<title>x10</title>
<ellipse fill="none" stroke="#00008b" cx="162" cy="-358" rx="18" ry="18"/>
<text text-anchor="middle" x="124" y="-328.8" font-family="Times,serif" font-size="14.00">Slope</text>
</g>
<!-- x10&#45;&gt;a12 -->
<g id="edge82" class="edge">
<title>x10&#45;&gt;a12</title>
<path fill="none" stroke="black" d="M172.99,-343.7C206.94,-295.08 318.11,-135.89 359.92,-76.03"/>
<polygon fill="black" stroke="black" points="362.93,-77.83 365.79,-67.63 357.19,-73.82 362.93,-77.83"/>
</g>
<!-- x10&#45;&gt;a22 -->
<g id="edge83" class="edge">
<title>x10&#45;&gt;a22</title>
<path fill="none" stroke="black" d="M177.98,-366.93C214.49,-388.7 308.31,-444.64 352.42,-470.94"/>
<polygon fill="black" stroke="black" points="350.66,-473.96 361.04,-476.08 354.24,-467.95 350.66,-473.96"/>
</g>
<!-- x10&#45;&gt;a32 -->
<g id="edge84" class="edge">
<title>x10&#45;&gt;a32</title>
<path fill="none" stroke="black" d="M179.36,-363.61C216.14,-376.21 305.62,-406.88 350.06,-422.11"/>
<polygon fill="black" stroke="black" points="348.99,-425.44 359.58,-425.37 351.26,-418.82 348.99,-425.44"/>
</g>
<!-- x10&#45;&gt;a42 -->
<g id="edge85" class="edge">
<title>x10&#45;&gt;a42</title>
<path fill="none" stroke="black" d="M180.07,-359.52C216.92,-362.81 304.16,-370.59 348.74,-374.57"/>
<polygon fill="black" stroke="black" points="348.58,-378.07 358.85,-375.47 349.2,-371.1 348.58,-378.07"/>
</g>
<!-- x10&#45;&gt;a52 -->
<g id="edge86" class="edge">
<title>x10&#45;&gt;a52</title>
<path fill="none" stroke="black" d="M180.07,-355.19C217.01,-349.13 304.59,-334.73 349.07,-327.42"/>
<polygon fill="black" stroke="black" points="349.84,-330.85 359.14,-325.77 348.71,-323.94 349.84,-330.85"/>
</g>
<!-- x10&#45;&gt;a62 -->
<g id="edge87" class="edge">
<title>x10&#45;&gt;a62</title>
<path fill="none" stroke="black" d="M179.01,-351.31C215.72,-335.97 306.21,-298.16 350.61,-279.61"/>
<polygon fill="black" stroke="black" points="352.22,-282.73 360.1,-275.65 349.52,-276.27 352.22,-282.73"/>
</g>
<!-- x10&#45;&gt;a72 -->
<g id="edge88" class="edge">
<title>x10&#45;&gt;a72</title>
<path fill="none" stroke="black" d="M177.31,-348.4C213.52,-324.08 309.07,-259.94 353.14,-230.35"/>
<polygon fill="black" stroke="black" points="355.12,-233.23 361.48,-224.75 351.22,-227.42 355.12,-233.23"/>
</g>
<!-- x10&#45;&gt;a82 -->
<g id="edge89" class="edge">
<title>x10&#45;&gt;a82</title>
<path fill="none" stroke="black" d="M175.69,-346.27C211.27,-313.36 312.23,-219.98 355.69,-179.78"/>
<polygon fill="black" stroke="black" points="358.15,-182.28 363.11,-172.92 353.39,-177.14 358.15,-182.28"/>
</g>
<!-- x10&#45;&gt;a92 -->
<g id="edge90" class="edge">
<title>x10&#45;&gt;a92</title>
<path fill="none" stroke="black" d="M174.45,-344.51C209.49,-303.21 315.47,-178.33 358.03,-128.18"/>
<polygon fill="black" stroke="black" points="360.95,-130.15 364.75,-120.26 355.61,-125.62 360.95,-130.15"/>
</g>
<!-- O -->
<g id="node20" class="node">
<title>O</title>
<ellipse fill="none" stroke="#4eee94" cx="561.99" cy="-269" rx="77.99" ry="18"/>
<text text-anchor="middle" x="561.99" y="-265.3" font-family="Times,serif" font-size="14.00">Dropout Layer</text>
</g>
<!-- a12&#45;&gt;O -->
<g id="edge91" class="edge">
<title>a12&#45;&gt;O</title>
<path fill="none" stroke="black" d="M389.45,-66.51C419.42,-101.89 500.54,-197.65 539.52,-243.65"/>
<polygon fill="black" stroke="black" points="536.93,-246.01 546.06,-251.38 542.27,-241.49 536.93,-246.01"/>
</g>
<!-- a22&#45;&gt;O -->
<g id="edge92" class="edge">
<title>a22&#45;&gt;O</title>
<path fill="none" stroke="black" d="M389.45,-471.49C419.42,-436.11 500.54,-340.35 539.52,-294.35"/>
<polygon fill="black" stroke="black" points="542.27,-296.51 546.06,-286.62 536.93,-291.99 542.27,-296.51"/>
</g>
<!-- a32&#45;&gt;O -->
<g id="edge93" class="edge">
<title>a32&#45;&gt;O</title>
<path fill="none" stroke="black" d="M391.16,-419.35C420.89,-393.03 493.77,-328.51 533.71,-293.15"/>
<polygon fill="black" stroke="black" points="536.07,-295.74 541.24,-286.49 531.43,-290.5 536.07,-295.74"/>
</g>
<!-- a42&#45;&gt;O -->
<g id="edge94" class="edge">
<title>a42&#45;&gt;O</title>
<path fill="none" stroke="black" d="M392.98,-368.16C421.31,-351.44 483.51,-314.73 523.77,-290.97"/>
<polygon fill="black" stroke="black" points="525.67,-293.91 532.5,-285.82 522.11,-287.89 525.67,-293.91"/>
</g>
<!-- a52&#45;&gt;O -->
<g id="edge95" class="edge">
<title>a52&#45;&gt;O</title>
<path fill="none" stroke="black" d="M394.56,-318.11C418.87,-310.94 465.41,-297.2 503.11,-286.08"/>
<polygon fill="black" stroke="black" points="504.39,-289.35 512.99,-283.17 502.4,-282.64 504.39,-289.35"/>
</g>
<!-- a62&#45;&gt;O -->
<g id="edge96" class="edge">
<title>a62&#45;&gt;O</title>
<path fill="none" stroke="black" d="M395.22,-269C413.52,-269 443.88,-269 473.66,-269"/>
<polygon fill="black" stroke="black" points="473.71,-272.5 483.71,-269 473.71,-265.5 473.71,-272.5"/>
</g>
<!-- a72&#45;&gt;O -->
<g id="edge97" class="edge">
<title>a72&#45;&gt;O</title>
<path fill="none" stroke="black" d="M394.56,-219.89C418.87,-227.06 465.41,-240.8 503.11,-251.92"/>
<polygon fill="black" stroke="black" points="502.4,-255.36 512.99,-254.83 504.39,-248.65 502.4,-255.36"/>
</g>
<!-- a82&#45;&gt;O -->
<g id="edge98" class="edge">
<title>a82&#45;&gt;O</title>
<path fill="none" stroke="black" d="M392.98,-169.84C421.31,-186.56 483.51,-223.27 523.77,-247.03"/>
<polygon fill="black" stroke="black" points="522.11,-250.11 532.5,-252.18 525.67,-244.09 522.11,-250.11"/>
</g>
<!-- a92&#45;&gt;O -->
<g id="edge99" class="edge">
<title>a92&#45;&gt;O</title>
<path fill="none" stroke="black" d="M391.16,-118.65C420.89,-144.97 493.77,-209.49 533.71,-244.85"/>
<polygon fill="black" stroke="black" points="531.43,-247.5 541.24,-251.51 536.07,-242.26 531.43,-247.5"/>
</g>
<!-- b13 -->
<g id="node21" class="node">
<title>b13</title>
<ellipse fill="none" stroke="#ee0000" cx="744.99" cy="-377" rx="18" ry="18"/>
</g>
<!-- O&#45;&gt;b13 -->
<g id="edge100" class="edge">
<title>O&#45;&gt;b13</title>
<path fill="none" stroke="black" d="M591.27,-285.88C626.75,-307.04 686.94,-342.96 720.17,-362.79"/>
<polygon fill="black" stroke="black" points="718.79,-366.04 729.17,-368.16 722.38,-360.03 718.79,-366.04"/>
</g>
<!-- b23 -->
<g id="node22" class="node">
<title>b23</title>
<ellipse fill="none" stroke="#ee0000" cx="744.99" cy="-323" rx="18" ry="18"/>
</g>
<!-- O&#45;&gt;b23 -->
<g id="edge101" class="edge">
<title>O&#45;&gt;b23</title>
<path fill="none" stroke="black" d="M610.55,-283.19C644.72,-293.38 689.54,-306.76 717.55,-315.11"/>
<polygon fill="black" stroke="black" points="716.82,-318.55 727.4,-318.05 718.82,-311.84 716.82,-318.55"/>
</g>
<!-- b33 -->
<g id="node23" class="node">
<title>b33</title>
<ellipse fill="none" stroke="#ee0000" cx="744.99" cy="-269" rx="18" ry="18"/>
</g>
<!-- O&#45;&gt;b33 -->
<g id="edge102" class="edge">
<title>O&#45;&gt;b33</title>
<path fill="none" stroke="black" d="M640.01,-269C667.25,-269 696.16,-269 716.56,-269"/>
<polygon fill="black" stroke="black" points="716.68,-272.5 726.68,-269 716.68,-265.5 716.68,-272.5"/>
</g>
<!-- b43 -->
<g id="node24" class="node">
<title>b43</title>
<ellipse fill="none" stroke="#ee0000" cx="744.99" cy="-215" rx="18" ry="18"/>
</g>
<!-- O&#45;&gt;b43 -->
<g id="edge103" class="edge">
<title>O&#45;&gt;b43</title>
<path fill="none" stroke="black" d="M610.55,-254.81C644.72,-244.62 689.54,-231.24 717.55,-222.89"/>
<polygon fill="black" stroke="black" points="718.82,-226.16 727.4,-219.95 716.82,-219.45 718.82,-226.16"/>
</g>
<!-- b53 -->
<g id="node25" class="node">
<title>b53</title>
<ellipse fill="none" stroke="#ee0000" cx="744.99" cy="-161" rx="18" ry="18"/>
</g>
<!-- O&#45;&gt;b53 -->
<g id="edge104" class="edge">
<title>O&#45;&gt;b53</title>
<path fill="none" stroke="black" d="M591.27,-252.12C626.75,-230.96 686.94,-195.04 720.17,-175.21"/>
<polygon fill="black" stroke="black" points="722.38,-177.97 729.17,-169.84 718.79,-171.96 722.38,-177.97"/>
</g>
<!-- c11 -->
<g id="node26" class="node">
<title>c11</title>
<ellipse fill="none" stroke="#ee9a00" cx="884.99" cy="-269" rx="18" ry="18"/>
</g>
<!-- b13&#45;&gt;c11 -->
<g id="edge105" class="edge">
<title>b13&#45;&gt;c11</title>
<path fill="none" stroke="black" d="M759.72,-366.25C783.69,-347.49 833.35,-308.63 862.1,-286.13"/>
<polygon fill="black" stroke="black" points="864.59,-288.63 870.31,-279.71 860.27,-283.11 864.59,-288.63"/>
</g>
<!-- b23&#45;&gt;c11 -->
<g id="edge106" class="edge">
<title>b23&#45;&gt;c11</title>
<path fill="none" stroke="black" d="M762.09,-316.7C785.77,-307.43 830.23,-290.03 858.41,-279.01"/>
<polygon fill="black" stroke="black" points="859.95,-282.16 867.99,-275.26 857.4,-275.64 859.95,-282.16"/>
</g>
<!-- b33&#45;&gt;c11 -->
<g id="edge107" class="edge">
<title>b33&#45;&gt;c11</title>
<path fill="none" stroke="black" d="M763.18,-269C786.53,-269 828.52,-269 856.32,-269"/>
<polygon fill="black" stroke="black" points="856.57,-272.5 866.57,-269 856.57,-265.5 856.57,-272.5"/>
</g>
<!-- b43&#45;&gt;c11 -->
<g id="edge108" class="edge">
<title>b43&#45;&gt;c11</title>
<path fill="none" stroke="black" d="M762.09,-221.3C785.77,-230.57 830.23,-247.97 858.41,-258.99"/>
<polygon fill="black" stroke="black" points="857.4,-262.36 867.99,-262.74 859.95,-255.84 857.4,-262.36"/>
</g>
<!-- b53&#45;&gt;c11 -->
<g id="edge109" class="edge">
<title>b53&#45;&gt;c11</title>
<path fill="none" stroke="black" d="M759.72,-171.75C783.69,-190.51 833.35,-229.37 862.1,-251.87"/>
<polygon fill="black" stroke="black" points="860.27,-254.89 870.31,-258.29 864.59,-249.37 860.27,-254.89"/>
</g>
</g>
</svg>
